<?xml version="1.0" encoding="UTF-8"?>
<svg id="Layer_2" data-name="Layer 2" xmlns="http://www.w3.org/2000/svg" viewBox="0 0 467.57 303.08">
  <g id="illustrations">
    <g id="hammock">
      <path d="M168.93,99.68c5.72,8.4,12.77,15.89,20.82,22.1-5.23-12.56-7.5-26.34-6.56-39.91.37-5.36,1.41-11.06,5.14-14.93,7.09-7.35,19.38-4.34,28.63,0,10.39,4.87,20.29,10.77,29.51,17.59,11.22,8.3,27.6,3.43,38.62-5.14,11.02-8.57,19.42-20.37,31.27-27.75,5.18-3.22,10.87-5.51,16.55-7.72,40.48-15.8,81.95-29.06,124.08-39.69,3.4-.86,7.94-1.22,9.49,1.93.68,1.38.48,3.02.27,4.54-4,28.72-8.05,57.64-17.38,85.09-3.37,9.92-7.49,20.06-6.54,30.5.32,3.57,1.16,7.5-.81,10.5-25.05,38.16-54.45,73.46-87.43,105.01-20.44,19.55-42.62,37.9-68.48,49.36-25.86,11.46-55.94,15.49-82.6,6.05-10.11-3.58-19.47-8.96-28.76-14.31-45.86-26.42-93.72-54.77-120.64-100.33-5.8-9.81-10.49-20.23-15.17-30.63-8.05-17.9-16.11-35.8-24.16-53.69C7.86,82.9.81,66.81,1.7,50.01c8.72-1.81,17.14,3.51,24.57,8.41,25.14,16.55,51.7,30.93,79.3,42.93,10.39,4.52,21.16,8.76,32.47,9.47,11.31.71,23.41-2.62,30.88-11.14M110.9,180.42c9.12,14.82,22.77,26.79,38.65,33.9,16.72,7.49,36.64,9.38,53.29,1.72,16.65-7.66,28.73-26.07,25.9-44.17-1.03-6.58-3.86-12.77-7.46-18.36-6.17-9.59-14.69-17.66-24.6-23.29-10.58-6.01-24.15-10.96-26.98-22.79-10.18,5.85-9.2,22.99-19.68,28.3-9.66,4.89-17.76,12.79-22.9,22.31-1.8,3.34-6.17,4.58-9.89,3.89-3.73-.69-6.98-2.88-10.1-5.03-3.91,7.35-.58,16.43,3.79,23.52M335.92,189.6c-1.15-7.59-6.43-13.8-11.5-19.56-7.62-8.67-15.24-17.35-22.87-26.02-26.37-30-54.35-61.14-91.86-74.88-5.96-2.18-13.51-3.56-17.92,1-3.17,3.27-3.35,8.32-3.35,12.87,0,17.24,1.56,37.48,16.09,46.77,13.29,8.5,23.73,21.37,29.32,36.12,35.4-3.7,71.95,4.79,102.1,23.7M240.09,233.54c-1.48-1.58-1.89-4.09-.98-6.06,5.74.88,12.81,1.22,16.07-3.59,3.62-5.34-1.25-13.19-7.55-14.57-6.3-1.38-12.71,1.77-17.91,5.59-5.19,3.82-9.92,8.49-15.91,10.9,4.75-11.72,16.5-20.28,29.12-21.2,6.94-.51,14.58,1.55,18.6,7.23,4.02,5.68,2.31,15.23-4.27,17.47,24.33-5.6,48.11-13.61,70.87-23.86,2.27-1.02,4.76-2.31,5.55-4.68,1.24-3.74-2.46-7.16-5.8-9.25-18.84-11.79-40.49-19.06-62.63-21.05,4.61,3.84,9.23,8.85,9.01,14.85-.34,8.97-11.91,13.86-20.41,10.99-8.5-2.87-14.29-10.56-19.54-17.84.49,19.99-14.64,38.38-33.5,45.02-18.87,6.63-40.31,2.82-57.84-6.82,4.45,12.87,20.68,16.5,34.26,17.43,20.93,1.43,41.97,1.24,62.87-.57M437.07,129.83c-.6-3.76-4.21-6.18-7.48-8.13-36.58-21.72-73.16-43.45-109.74-65.17-2.53-.15-1.49,4.03.41,5.7,29.51,25.92,60.85,49.75,93.73,71.25,4.16,2.72,8.66,5.5,13.64,5.47s10.23-4.21,9.45-9.12M434.45,117.9c1.54-.55,2.25-2.28,2.78-3.82,11.09-32.19,18.96-65.48,23.47-99.22-2.21,2.13-3.26,5.16-4.23,8.07-9.25,27.55-19.2,54.87-29.82,81.92-.92,2.35-3.01,5.21-5.29,4.12-2.09-1-1.56-4.08-.7-6.24,12.64-31.71,25.28-63.42,37.92-95.14-3.32,2.35-5.34,6.06-7.25,9.65-14.93,28-29.86,56-44.79,84,7.5,5.65,15.33,10.85,23.43,15.59,1.37.8,2.99,1.62,4.49,1.08M371.67,83.26c9.5,5.67,19.3,10.84,29.34,15.48,14.12-24.97,28.23-49.93,42.35-74.9-4.96,2.62-8.54,7.17-12.49,11.14-3.62,3.64-7.63,6.86-11.63,10.07-15.86,12.73-31.71,25.47-47.57,38.2M370.08,77.87c27.2-20.98,54.47-42.01,79.06-65.98-33.94,18.59-67.88,37.19-101.82,55.78,4.81,4.3,10.21,7.93,16,10.77,1.26.62,2.64,1.21,4.02.94,1.03-.2,1.91-.86,2.74-1.51M66.92,189.11c4.95-7.04,6.15-15.98,7.02-24.54,1.77-17.44,2.73-34.96,2.87-52.49.08-9.66-.91-20.92-8.98-26.22-2.5,3.03-2.91,7.22-3.22,11.14-1.14,14.65-2.28,29.31-3.43,43.96-.81,10.4-1.62,20.93.18,31.21,1.03,5.87,2.9,11.6,5.55,16.94M430.97,16.81c-23.84,4.52-46.74,12.93-69.52,21.31-10.93,4.02-21.85,8.04-32.78,12.05-1.46.54-3.08,1.23-3.64,2.68,3.71,3.04,7.5,6.13,11.94,7.95,4.44,1.82,9.72,2.23,13.92-.08,26.69-14.64,53.38-29.27,80.08-43.91M307.98,114.3c-2.87.68-3.88,4.17-4.38,7.07-.74,4.36-1.48,8.81-.77,13.17.71,4.36,3.14,8.7,7.18,10.51,6.65-2.84,13.29-5.68,19.94-8.52.86-.37,1.8-.81,2.19-1.66,5.21-11.38,10.43-22.75,15.64-34.13-12.79,5.78-26.14,10.32-39.79,13.55M130.05,250.47c5.22,3.46,10.64,6.63,16.21,9.49,2.24,1.15,4.6,2.28,7.12,2.36,2.48.08,4.86-.86,7.16-1.79,8.49-3.41,16.97-6.83,25.46-10.24.99-.4,2.09-.92,2.41-1.94.48-1.54-1.2-2.91-2.77-3.32-1.56-.41-3.36-.46-4.5-1.6-5.77-5.79-14.67-6.74-22.82-7.37-2.64-.2-5.51-.34-7.68,1.17-8.3,5.8-18.65,8.59-28.74,7.76.82,1.55,2.5,2.61,4.25,2.69,1.15.05,2.35-.28,3.41.16,1.06.43,1.55,2.22.48,2.63M364.02,151.34c1.79-1.61,2.89-3.84,3.93-6.01,2.97-6.15,5.94-12.31,8.9-18.46-9.11,4.25-18.67,7.53-28.47,9.78-4.36,1-9.05,1.95-12.16,5.16-2.8,2.89-3.75,7.04-4.58,10.97-.85,3.99-1.7,7.98-2.55,11.97-.1.48-.2,1-.02,1.46.5,1.3,2.42.94,3.68.35,8.87-4.15,17.73-8.29,26.6-12.44,1.64-.77,3.31-1.55,4.66-2.77M365.97,161.91c-2.48,8.46-4.95,16.93-7.43,25.39,1.78.55,3.54-.78,4.94-2,17.23-15.04,35.97-28.34,55.86-39.63,1.66-.94.77-3.8-1.03-4.44s-3.76.15-5.52.91c-13.49,5.84-27.36,10.79-41.5,14.81-1.45.41-3,.87-3.98,2.01-.71.83-1.03,1.91-1.34,2.95M355.45,97.79c-.83-.02-1.36.86-1.71,1.62-2.7,5.9-5.41,11.79-8.11,17.69-2.29,4.98-4.58,9.98-6.38,15.16-.43,1.22,1.59,1.66,2.85,1.34,14.06-3.59,27.74-8.65,40.74-15.09-8.73-6.71-17.46-13.43-26.18-20.14-.36-.28-.75-.56-1.2-.57M325.51,72.47c-3.48,12.48-12.11,22.75-18.43,34.06-.74,1.33-1.46,2.71-1.66,4.21,15.87-4.33,31.42-9.83,46.5-16.43-9.17-6.82-17.99-14.11-26.4-21.84M55.99,129.99c.23-3.28.46-6.62-.25-9.84-.79-3.58-2.71-6.8-4.69-9.89-12.99-20.2-30.08-37.56-42.47-58.13-.16,7.94,4.39,15.1,8.64,21.8,14.13,22.29,26.78,45.53,37.82,69.5.32-4.48.64-8.96.95-13.45M207.75,265.71c.49-.54.98-1.16,1.03-1.89.09-1.39-1.35-2.3-2.53-3.04-3.47-2.18-6.18-5.56-7.54-9.43-11.88,4.94-23.92,9.49-36.1,13.64-1.3.44-.25,2.39.88,3.16,4.37,2.95,8.73,5.9,13.1,8.85.86.58,1.77,1.18,2.8,1.32,2.68.35,4.85-2.47,7.55-2.62,7.88-.43,15.54-4.1,20.81-9.98M281.82,102.06c-.42,1.28-.76,2.91.26,3.8.48.42,1.14.53,1.77.64,4.65.76,9.3,1.51,13.94,2.27,1.03.17,2.32.21,2.83-.69,4.8-8.55,10.09-16.83,15.84-24.78.99-1.36-.17-3.42-1.76-3.96-1.59-.54-3.33-.06-4.94.43-6.55,1.98-13.09,3.97-19.64,5.95-2.95.89-4.3,4.22-5.27,7.14-1.01,3.07-2.03,6.14-3.04,9.21M113.09,154.66c2.99,1.08,7.09,1.99,8.7-.75,3.41-5.82,8.25-10.79,13.98-14.36-10.7-1.74-19.05,10.74-29.88,11.17-7.59.3-13.92-5.33-20.74-8.67-.78-.38-1.72-.73-2.47-.3-.79.44-.95,1.49-1.02,2.39-.52,6.53-1.05,13.06-1.57,19.59-.18,2.23.01,5.08,2.11,5.84,1,.36,2.11.08,3.14-.21,5.64-1.57,12.39-4.41,12.87-10.25.24-3,3.09-5.28,6.06-5.8s5.99.34,8.82,1.36M9.82,70.41c.8,4.3,2.59,8.34,4.37,12.34,13.91,31.31,27.81,62.62,41.72,93.92,1.37-16.78-5.94-32.94-13.54-47.97-10.05-19.86-20.91-39.32-32.55-58.3M272.54,262.31c-4.36,2.73-8.71,5.46-13.07,8.2,8.92,3.77,17.84,7.53,26.77,11.3.71.3,1.46.6,2.22.49.96-.15,1.68-.93,2.31-1.67,5.3-6.2,10.27-12.69,14.87-19.42-3.7-.23-7.39-.47-11.09-.7-5.07-.32-10.42-.6-14.98,1.65-1.19.59-2.33,1.34-3.64,1.59-1.3.25-2.87-.2-3.4-1.41M253.76,277.7c-7.12,6.15-13.48,13.17-18.9,20.85,16.23-.64,32.32-4.84,46.8-12.22-6.01-3.2-12.2-6.07-18.53-8.56-3.06-1.21-6.87-2.22-9.36-.07M342.58,204.58c-1.26-1.31-3.44-.47-5.02.43-18.09,10.23-37.65,17.83-57.89,22.51-1.31.3-3.01,1.26-2.49,2.5.28.66,1.06.91,1.76,1.08,7.08,1.77,14.17,3.53,21.25,5.3.78.2,1.72.36,2.31-.2,12.45-11.63,25.87-22.22,40.08-31.62M253.61,251.96c-1.33-1.29-3.51-.68-5.23,0-9.34,3.7-18.68,7.4-28.01,11.1,10.17,3.22,20.16,7.01,29.9,11.35,3.84-5.72,8.98-10.56,14.92-14.04-4.23-2.24-8.14-5.08-11.58-8.41M391.78,124.5c-1.8-1.64-4.79-1.23-6.72.25s-3.07,3.75-4.14,5.93c-2.43,4.95-4.85,9.9-7.28,14.86-.8,1.64-1.35,4.11.31,4.88.83.38,1.8.06,2.66-.27,11.53-4.42,23.06-8.83,34.59-13.25-7.1-3.01-13.69-7.22-19.41-12.4M144.8,123.92c-4.92-2.52-10.8-.18-15.98,1.75-5.18,1.93-11.77,3.15-15.62-.82-2.05-2.11-5.9-1.29-8.01-3.33-3.46-3.36-8.92-3.18-13.73-2.79-3.59.29-7.79.96-9.46,4.15-.9,1.72-.81,3.77-.69,5.71.12,2.04.4,4.36,2.09,5.51,1.79,1.22,4.2.46,6.22-.33,2.61-1.02,5.21-2.04,7.82-3.06,5.31-2.08,11.06-4.19,16.57-2.76,3.04.79,5.71,2.59,8.67,3.65,7.95,2.86,17.67-.52,22.12-7.7M338.07,241.09c-5.51-.26-11.03-.52-16.54-.78-3.03-.14-6.09-.28-9.05.36-3.36.74-6.53,2.47-9.97,2.58-9.67.29-19.09,5.2-24.86,12.97,4.6,1.87,9.45-4.17,14.22-2.77,7.88,2.31,16.44,1.3,24.21-1.34,7.77-2.64,14.91-6.84,21.99-11.01M260.69,170.11c-.96-1.07-2.57-1.19-4.01-1.2-4.26-.04-8.52.19-12.75.68-.9.11-1.83.23-2.61.69-2.23,1.31-2.21,4.62-1.15,6.97.94,2.1,2.44,3.88,3.97,5.61,2.61,2.95,5.4,5.85,8.92,7.61,3.52,1.76,7.92,2.19,11.32.2,3.39-1.99,5.14-6.8,3.04-10.13-1.45-2.3-4.34-3.56-5.3-6.1-.54-1.44-.41-3.19-1.43-4.33M336.08,234.69c3.16-1.44,4.73-4.92,6.39-7.96,2.7-4.94,6.28-9.39,10.52-13.08,1.37-1.19.8-3.6-.62-4.75-3.45-2.79-8.47,0-11.96,2.74-8.97,7.07-17.94,14.14-26.91,21.21,4.99.81,9.98,1.56,14.99,2.25,2.54.35,5.24.66,7.58-.4M341.98,197.18c6.23-1.77,9.22-8.67,11.4-14.77,2.42-6.78,4.84-13.56,7.27-20.34.45-1.27.62-3.14-.67-3.51-6.16,3.2-12.32,6.4-18.48,9.59-2.04,1.06-4.35,2.5-4.52,4.8-.09,1.25.51,2.44,1.04,3.58,3.01,6.41,4.38,13.59,3.96,20.66M424.53,150.06c-.32-.68-1.12-1.09-1.86-.98-9.62,6.44-19.25,12.88-28.87,19.32-4.95,3.31-10.37,7.36-11.08,13.27-.08.65.04,1.51.68,1.67,6.06-1.3,12.13-2.6,18.19-3.9,1.42-.31,3.01-.72,3.75-1.97,5.69-9.6,12.11-18.77,19.19-27.4M215.32,268.8c-3.44,1.32-5.6,5.49-9.28,5.69-1.54.09-2.12,2.32-1.26,3.6.85,1.29,2.46,1.8,3.94,2.23,7.19,2.09,14.38,4.19,21.58,6.28,4.51,1.31,8.37-3.28,10.82-7.28.34-.55.68-1.14.64-1.78-.08-1.19-1.39-1.83-2.5-2.24-4.98-1.83-9.96-3.66-14.93-5.48-2.9-1.06-6.11-2.13-9-1.03M123.13,238.11c2.55.73,5.25-.21,7.74-1.13,4.48-1.67,8.96-3.33,13.44-5-10.55-3.86-21.1-7.71-31.64-11.57-4.6-1.68-9.33-3.44-12.99-6.7-1.49.4-.62,2.67.49,3.73,6,5.75,11.99,11.49,17.98,17.24,1.47,1.41,3.02,2.87,4.98,3.43M82.89,177.67c3.73,4.7,7.47,9.39,11.2,14.09,1.85,2.33,5.15,3.09,8.09,2.67s5.63-1.85,8.25-3.25c.1-1.52-1.01-2.81-1.99-3.96-4.32-5.06-7.6-11.01-9.58-17.37-5.53,2.15-10.89,4.77-15.98,7.83M275.46,235.43c-1.1-.25-2.21.3-3.21.83-4.66,2.47-9.33,4.94-13.99,7.42-.73.39-1.56.92-1.58,1.75-.02.55.35,1.03.69,1.46,1.92,2.39,3.92,4.85,6.63,6.27,2.72,1.42,6.38,1.51,8.59-.61,5.62-5.4,12.03-9.97,18.97-13.53l-16.1-3.58M230.82,292.71c-10.48-2.15-20.7-5.52-30.41-10.02-2.48-1.15-4.97-2.38-7.67-2.77-2.7-.39-5.71.23-7.52,2.27,8.44,7.02,18.45,12.14,29.08,14.89,3.02.78,6.17,1.37,9.24.85,3.07-.52,6.08-2.34,7.28-5.23M19.5,61.23c11.11,12.55,23.93,23.58,37.99,32.69.59.38,1.36.77,1.96.4.21-.13.37-.35.5-.56,1.72-2.83.72-6.66-1.41-9.18s-5.19-4.06-8.11-5.62c-10.93-5.82-21.23-12.82-30.68-20.83-1.36-.38-1.18,2.05-.25,3.11M364.51,225.03c11.5-13.13,22.99-26.26,34.49-39.38-5.91.05-11.81,1.31-17.22,3.69-1.37.6-2.1,2.08-2.71,3.44-4.85,10.75-9.7,21.5-14.56,32.25M371.12,196.47c1.59-4.24,3.19-8.47,4.78-12.71-1.78-.23-3.35,1.1-4.7,2.28-7.44,6.49-16.33,11.31-25.82,14.01,3.22,1.68,6.45,3.35,9.67,5.03,1.95,1.01,4,2.05,6.19,1.99,5.14-.14,8.06-5.79,9.87-10.6M133.91,215.78c-.51-3.95-3.85-6.85-6.97-9.34-3.95-3.16-7.89-6.32-11.84-9.48-2.04.56-4.2,1.19-5.57,2.8-1.37,1.61-1.37,4.53.51,5.48,4.75,2.41,9.51,4.83,14.26,7.24,2.61,1.32,5.46,2.93,6.33,5.72,1.7,5.48,7.63,9.3,13.32,8.59-1.96-3.6-5.12-6.54-8.87-8.22-.97-.43-1.03-1.75-1.17-2.8M221.23,256.67c5.17-1.76,10.26-3.77,15.24-6.01-7.96-6.42-19.69-7.75-28.88-3.28-.35.17-.72.37-.92.71-.48.83.34,1.79,1.09,2.4,2.01,1.64,4.03,3.29,6.04,4.93.95.78,1.94,1.57,3.14,1.85,1.43.33,2.91-.13,4.29-.6M107.57,144.83c5.15-1.73,10.02-4.29,14.35-7.57-4.11-3.34-9.77-4.26-15.03-3.64-5.26.62-10.24,2.62-15.16,4.6-.46.19-.97.42-1.14.89,2.97,1.65,5.94,3.29,8.91,4.94,1.14.63,2.32,1.28,3.61,1.47,1.5.22,3.02-.21,4.46-.69M81.7,115.14c5.33-.49,10.65-.98,15.98-1.46,1.19-.11,2.43-.24,3.43-.88-4.18-7.57-11.55-13.32-19.91-15.53.17,5.96.34,11.92.51,17.87M320.12,70.43c-.3-.77-.95-1.34-1.59-1.88-1.86-1.57-3.72-3.14-5.59-4.72-.6-.51-1.27-1.04-2.06-1.05-.86,0-1.58.61-2.21,1.19-5.69,5.25-11.38,10.49-17.08,15.74,1.96,1.45,4.58-.3,6.72-1.46,4.96-2.69,10.96-2.14,16.56-2.88,2.75-.36,6.22-2.35,5.23-4.94M116.95,122.12c1.78.53,3.67-.02,5.45-.57l11.56-3.56c1.58-.49,3.55-1.89,2.7-3.3-11.31.77-22.86-2.41-32.18-8.87-.79,2.35.97,4.73,2.61,6.59,1.91,2.16,3.81,4.33,5.72,6.49,1.17,1.33,2.44,2.72,4.14,3.22M78.54,178.49c-1.01,3.48-2.02,6.95-3.03,10.43-.47,1.61-.94,3.28-.72,4.94.43,3.28,3.55,5.72,6.81,6.26,3.26.55,6.59-.44,9.62-1.75,1.61-.7.35-3.1-.97-4.26-4.92-4.33-8.93-9.68-11.71-15.62M79.18,206.55c.25.99.91,1.83,1.56,2.62,10.87,13.27,23.7,24.93,37.94,34.5-.63-3.41-3.48-5.92-6.17-8.11-7.52-6.12-15.39-12.28-20.15-20.72-2.66-4.71-7.78-7.93-13.18-8.28M264.99,232.83c-5.29,1.18-10.57,2.36-15.86,3.54-5.16,1.15-10.4,2.31-15.67,1.98-2.21-.14-4.68-.47-6.43.89,4.73,3.01,9.98,5.2,15.45,6.42,2.19.49,5.14.44,5.91-1.67,2.37-6.48,13.65-4.92,16.6-11.16M336.31,248.76c-3.86,2.1-7.72,4.2-11.57,6.31-3.43,1.87-6.89,3.75-9.97,6.16-5.07,3.94-8.98,9.14-12.83,14.28.76,1.05,2.4.32,3.43-.47,11.52-8.89,23.04-17.78,34.56-26.66-1-.82-2.48-.22-3.61.39M296.69,130.43c.58-4.04.84-8.12.78-12.2-.02-1.46-.17-3.11-1.3-4.04-.72-.59-1.69-.76-2.61-.9-4.44-.69-8.87-1.39-13.31-2.08-.1,1.05.66,1.96,1.37,2.73,5.02,5.5,10.04,11,15.06,16.49M123.23,219.49c-1.19-2.46-3.78-3.86-6.21-5.11-5.5-2.82-11-5.64-16.5-8.46-3.02-1.55-6.56-3.13-9.69-1.8-.34.15-.69.34-.88.66-.58,1,.68,2.04,1.74,2.51,10.31,4.57,20.84,8.64,31.54,12.2M320.46,157.96c.62.73,1.37,1.51,2.33,1.49,1.29-.03,2.01-1.46,2.42-2.68,1.53-4.64,2.49-9.47,2.84-14.34-4.03,1.54-7.9,3.49-11.53,5.83-.71.46-1.47,1.01-1.64,1.84-.21.98.49,1.9,1.14,2.66,1.48,1.73,2.96,3.46,4.44,5.19M267.91,93.05c-.73.28-1.49.59-1.97,1.21-1.24,1.59.18,3.85,1.63,5.26,1.74,1.69,3.6,3.25,5.57,4.67,3.76-4.77,6.49-10.36,7.93-16.27-4.39,1.71-8.78,3.42-13.16,5.13M345.93,233.09c-.77,1.62-.52,4.52,1.22,4.08,6.67-7.66,12.5-16.05,17.34-24.98-1.15-.53-2.44.31-3.41,1.13-6.36,5.43-11.56,12.21-15.15,19.77M58.13,111.45c1.63-4.58-.49-9.78-3.83-13.32-3.34-3.53-7.74-5.82-11.86-8.41,5.23,7.24,10.45,14.48,15.68,21.72M188.01,240.38c2.5,4.21,8.47,4.82,13.19,3.5,2.9-.81,5.64-2.16,8.06-3.95-7.33-.36-14.67-.72-22-1.08.23.52.46,1.04.75,1.53M148.02,116.73c-.53.54-1.07,1.07-1.6,1.61,1.16,1.97,2.66,3.74,4.4,5.23,1.69-1.25,3.01-3.36,2.45-5.38-.56-2.02-3.73-2.97-4.82-1.18l-.43-.27Z" style="fill: #565e73; stroke: #565e73; stroke-miterlimit: 10; stroke-width: 1.25px;"/>
    </g>
    <g id="hammock-2" data-name="hammock">
      <path d="M167.93,96.68c5.72,8.4,12.77,15.89,20.82,22.1-5.23-12.56-7.5-26.34-6.56-39.91.37-5.36,1.41-11.06,5.14-14.93,7.09-7.35,19.38-4.34,28.63,0,10.39,4.87,20.29,10.77,29.51,17.59,11.22,8.3,27.6,3.43,38.62-5.14,11.02-8.57,19.42-20.37,31.27-27.75,5.18-3.22,10.87-5.51,16.55-7.72,40.48-15.8,81.95-29.06,124.08-39.69,3.4-.86,7.94-1.22,9.49,1.93.68,1.38.48,3.02.27,4.54-4,28.72-8.05,57.64-17.38,85.09-3.37,9.92-7.49,20.06-6.54,30.5.32,3.57,1.16,7.5-.81,10.5-25.05,38.16-54.45,73.46-87.43,105.01-20.44,19.55-42.62,37.9-68.48,49.36-25.86,11.46-55.94,15.49-82.6,6.05-10.11-3.58-19.47-8.96-28.76-14.31-45.86-26.42-93.72-54.77-120.64-100.33-5.8-9.81-10.49-20.23-15.17-30.63-8.05-17.9-16.11-35.8-24.16-53.69C6.86,79.9-.19,63.81.7,47.01c8.72-1.81,17.14,3.51,24.57,8.41,25.14,16.55,51.7,30.93,79.3,42.93,10.39,4.52,21.16,8.76,32.47,9.47,11.31.71,23.41-2.62,30.88-11.14M109.9,177.42c9.12,14.82,22.77,26.79,38.65,33.9,16.72,7.49,36.64,9.38,53.29,1.72,16.65-7.66,28.73-26.07,25.9-44.17-1.03-6.58-3.86-12.77-7.46-18.36-6.17-9.59-14.69-17.66-24.6-23.29-10.58-6.01-24.15-10.96-26.98-22.79-10.18,5.85-9.2,22.99-19.68,28.3-9.66,4.89-17.76,12.79-22.9,22.31-1.8,3.34-6.17,4.58-9.89,3.89-3.73-.69-6.98-2.88-10.1-5.03-3.91,7.35-.58,16.43,3.79,23.52M334.92,186.6c-1.15-7.59-6.43-13.8-11.5-19.56-7.62-8.67-15.24-17.35-22.87-26.02-26.37-30-54.35-61.14-91.86-74.88-5.96-2.18-13.51-3.56-17.92,1-3.17,3.27-3.35,8.32-3.35,12.87,0,17.24,1.56,37.48,16.09,46.77,13.29,8.5,23.73,21.37,29.32,36.12,35.4-3.7,71.95,4.79,102.1,23.7M239.09,230.54c-1.48-1.58-1.89-4.09-.98-6.06,5.74.88,12.81,1.22,16.07-3.59,3.62-5.34-1.25-13.19-7.55-14.57-6.3-1.38-12.71,1.77-17.91,5.59-5.19,3.82-9.92,8.49-15.91,10.9,4.75-11.72,16.5-20.28,29.12-21.2,6.94-.51,14.58,1.55,18.6,7.23,4.02,5.68,2.31,15.23-4.27,17.47,24.33-5.6,48.11-13.61,70.87-23.86,2.27-1.02,4.76-2.31,5.55-4.68,1.24-3.74-2.46-7.16-5.8-9.25-18.84-11.79-40.49-19.06-62.63-21.05,4.61,3.84,9.23,8.85,9.01,14.85-.34,8.97-11.91,13.86-20.41,10.99-8.5-2.87-14.29-10.56-19.54-17.84.49,19.99-14.64,38.38-33.5,45.02-18.87,6.63-40.31,2.82-57.84-6.82,4.45,12.87,20.68,16.5,34.26,17.43,20.93,1.43,41.97,1.24,62.87-.57M436.07,126.83c-.6-3.76-4.21-6.18-7.48-8.13-36.58-21.72-73.16-43.45-109.74-65.17-2.53-.15-1.49,4.03.41,5.7,29.51,25.92,60.85,49.75,93.73,71.25,4.16,2.72,8.66,5.5,13.64,5.47s10.23-4.21,9.45-9.12M433.45,114.9c1.54-.55,2.25-2.28,2.78-3.82,11.09-32.19,18.96-65.48,23.47-99.22-2.21,2.13-3.26,5.16-4.23,8.07-9.25,27.55-19.2,54.87-29.82,81.92-.92,2.35-3.01,5.21-5.29,4.12-2.09-1-1.56-4.08-.7-6.24,12.64-31.71,25.28-63.42,37.92-95.14-3.32,2.35-5.34,6.06-7.25,9.65-14.93,28-29.86,56-44.79,84,7.5,5.65,15.33,10.85,23.43,15.59,1.37.8,2.99,1.62,4.49,1.08M370.67,80.26c9.5,5.67,19.3,10.84,29.34,15.48,14.12-24.97,28.23-49.93,42.35-74.9-4.96,2.62-8.54,7.17-12.49,11.14-3.62,3.64-7.63,6.86-11.63,10.07-15.86,12.73-31.71,25.47-47.57,38.2M369.08,74.87c27.2-20.98,54.47-42.01,79.06-65.98-33.94,18.59-67.88,37.19-101.82,55.78,4.81,4.3,10.21,7.93,16,10.77,1.26.62,2.64,1.21,4.02.94,1.03-.2,1.91-.86,2.74-1.51M65.92,186.11c4.95-7.04,6.15-15.98,7.02-24.54,1.77-17.44,2.73-34.96,2.87-52.49.08-9.66-.91-20.92-8.98-26.22-2.5,3.03-2.91,7.22-3.22,11.14-1.14,14.65-2.28,29.31-3.43,43.96-.81,10.4-1.62,20.93.18,31.21,1.03,5.87,2.9,11.6,5.55,16.94M429.97,13.81c-23.84,4.52-46.74,12.93-69.52,21.31-10.93,4.02-21.85,8.04-32.78,12.05-1.46.54-3.08,1.23-3.64,2.68,3.71,3.04,7.5,6.13,11.94,7.95,4.44,1.82,9.72,2.23,13.92-.08,26.69-14.64,53.38-29.27,80.08-43.91M306.98,111.3c-2.87.68-3.88,4.17-4.38,7.07-.74,4.36-1.48,8.81-.77,13.17.71,4.36,3.14,8.7,7.18,10.51,6.65-2.84,13.29-5.68,19.94-8.52.86-.37,1.8-.81,2.19-1.66,5.21-11.38,10.43-22.75,15.64-34.13-12.79,5.78-26.14,10.32-39.79,13.55M129.05,247.47c5.22,3.46,10.64,6.63,16.21,9.49,2.24,1.15,4.6,2.28,7.12,2.36,2.48.08,4.86-.86,7.16-1.79,8.49-3.41,16.97-6.83,25.46-10.24.99-.4,2.09-.92,2.41-1.94.48-1.54-1.2-2.91-2.77-3.32-1.56-.41-3.36-.46-4.5-1.6-5.77-5.79-14.67-6.74-22.82-7.37-2.64-.2-5.51-.34-7.68,1.17-8.3,5.8-18.65,8.59-28.74,7.76.82,1.55,2.5,2.61,4.25,2.69,1.15.05,2.35-.28,3.41.16,1.06.43,1.55,2.22.48,2.63M363.02,148.34c1.79-1.61,2.89-3.84,3.93-6.01,2.97-6.15,5.94-12.31,8.9-18.46-9.11,4.25-18.67,7.53-28.47,9.78-4.36,1-9.05,1.95-12.16,5.16-2.8,2.89-3.75,7.04-4.58,10.97-.85,3.99-1.7,7.98-2.55,11.97-.1.48-.2,1-.02,1.46.5,1.3,2.42.94,3.68.35,8.87-4.15,17.73-8.29,26.6-12.44,1.64-.77,3.31-1.55,4.66-2.77M364.97,158.91c-2.48,8.46-4.95,16.93-7.43,25.39,1.78.55,3.54-.78,4.94-2,17.23-15.04,35.97-28.34,55.86-39.63,1.66-.94.77-3.8-1.03-4.44s-3.76.15-5.52.91c-13.49,5.84-27.36,10.79-41.5,14.81-1.45.41-3,.87-3.98,2.01-.71.83-1.03,1.91-1.34,2.95M354.45,94.79c-.83-.02-1.36.86-1.71,1.62-2.7,5.9-5.41,11.79-8.11,17.69-2.29,4.98-4.58,9.98-6.38,15.16-.43,1.22,1.59,1.66,2.85,1.34,14.06-3.59,27.74-8.65,40.74-15.09-8.73-6.71-17.46-13.43-26.18-20.14-.36-.28-.75-.56-1.2-.57M324.51,69.47c-3.48,12.48-12.11,22.75-18.43,34.06-.74,1.33-1.46,2.71-1.66,4.21,15.87-4.33,31.42-9.83,46.5-16.43-9.17-6.82-17.99-14.11-26.4-21.84M54.99,126.99c.23-3.28.46-6.62-.25-9.84-.79-3.58-2.71-6.8-4.69-9.89-12.99-20.2-30.08-37.56-42.47-58.13-.16,7.94,4.39,15.1,8.64,21.8,14.13,22.29,26.78,45.53,37.82,69.5.32-4.48.64-8.96.95-13.45M206.75,262.71c.49-.54.98-1.16,1.03-1.89.09-1.39-1.35-2.3-2.53-3.04-3.47-2.18-6.18-5.56-7.54-9.43-11.88,4.94-23.92,9.49-36.1,13.64-1.3.44-.25,2.39.88,3.16,4.37,2.95,8.73,5.9,13.1,8.85.86.58,1.77,1.18,2.8,1.32,2.68.35,4.85-2.47,7.55-2.62,7.88-.43,15.54-4.1,20.81-9.98M280.82,99.06c-.42,1.28-.76,2.91.26,3.8.48.42,1.14.53,1.77.64,4.65.76,9.3,1.51,13.94,2.27,1.03.17,2.32.21,2.83-.69,4.8-8.55,10.09-16.83,15.84-24.78.99-1.36-.17-3.42-1.76-3.96-1.59-.54-3.33-.06-4.94.43-6.55,1.98-13.09,3.97-19.64,5.95-2.95.89-4.3,4.22-5.27,7.14-1.01,3.07-2.03,6.14-3.04,9.21M112.09,151.66c2.99,1.08,7.09,1.99,8.7-.75,3.41-5.82,8.25-10.79,13.98-14.36-10.7-1.74-19.05,10.74-29.88,11.17-7.59.3-13.92-5.33-20.74-8.67-.78-.38-1.72-.73-2.47-.3-.79.44-.95,1.49-1.02,2.39-.52,6.53-1.05,13.06-1.57,19.59-.18,2.23.01,5.08,2.11,5.84,1,.36,2.11.08,3.14-.21,5.64-1.57,12.39-4.41,12.87-10.25.24-3,3.09-5.28,6.06-5.8s5.99.34,8.82,1.36M8.82,67.41c.8,4.3,2.59,8.34,4.37,12.34,13.91,31.31,27.81,62.62,41.72,93.92,1.37-16.78-5.94-32.94-13.54-47.97-10.05-19.86-20.91-39.32-32.55-58.3M271.54,259.31c-4.36,2.73-8.71,5.46-13.07,8.2,8.92,3.77,17.84,7.53,26.77,11.3.71.3,1.46.6,2.22.49.96-.15,1.68-.93,2.31-1.67,5.3-6.2,10.27-12.69,14.87-19.42-3.7-.23-7.39-.47-11.09-.7-5.07-.32-10.42-.6-14.98,1.65-1.19.59-2.33,1.34-3.64,1.59-1.3.25-2.87-.2-3.4-1.41M252.76,274.7c-7.12,6.15-13.48,13.17-18.9,20.85,16.23-.64,32.32-4.84,46.8-12.22-6.01-3.2-12.2-6.07-18.53-8.56-3.06-1.21-6.87-2.22-9.36-.07M341.58,201.58c-1.26-1.31-3.44-.47-5.02.43-18.09,10.23-37.65,17.83-57.89,22.51-1.31.3-3.01,1.26-2.49,2.5.28.66,1.06.91,1.76,1.08,7.08,1.77,14.17,3.53,21.25,5.3.78.2,1.72.36,2.31-.2,12.45-11.63,25.87-22.22,40.08-31.62M252.61,248.96c-1.33-1.29-3.51-.68-5.23,0-9.34,3.7-18.68,7.4-28.01,11.1,10.17,3.22,20.16,7.01,29.9,11.35,3.84-5.72,8.98-10.56,14.92-14.04-4.23-2.24-8.14-5.08-11.58-8.41M390.78,121.5c-1.8-1.64-4.79-1.23-6.72.25s-3.07,3.75-4.14,5.93c-2.43,4.95-4.85,9.9-7.28,14.86-.8,1.64-1.35,4.11.31,4.88.83.38,1.8.06,2.66-.27,11.53-4.42,23.06-8.83,34.59-13.25-7.1-3.01-13.69-7.22-19.41-12.4M143.8,120.92c-4.92-2.52-10.8-.18-15.98,1.75-5.18,1.93-11.77,3.15-15.62-.82-2.05-2.11-5.9-1.29-8.01-3.33-3.46-3.36-8.92-3.18-13.73-2.79-3.59.29-7.79.96-9.46,4.15-.9,1.72-.81,3.77-.69,5.71.12,2.04.4,4.36,2.09,5.51,1.79,1.22,4.2.46,6.22-.33,2.61-1.02,5.21-2.04,7.82-3.06,5.31-2.08,11.06-4.19,16.57-2.76,3.04.79,5.71,2.59,8.67,3.65,7.95,2.86,17.67-.52,22.12-7.7M337.07,238.09c-5.51-.26-11.03-.52-16.54-.78-3.03-.14-6.09-.28-9.05.36-3.36.74-6.53,2.47-9.97,2.58-9.67.29-19.09,5.2-24.86,12.97,4.6,1.87,9.45-4.17,14.22-2.77,7.88,2.31,16.44,1.3,24.21-1.34,7.77-2.64,14.91-6.84,21.99-11.01M259.69,167.11c-.96-1.07-2.57-1.19-4.01-1.2-4.26-.04-8.52.19-12.75.68-.9.11-1.83.23-2.61.69-2.23,1.31-2.21,4.62-1.15,6.97.94,2.1,2.44,3.88,3.97,5.61,2.61,2.95,5.4,5.85,8.92,7.61,3.52,1.76,7.92,2.19,11.32.2,3.39-1.99,5.14-6.8,3.04-10.13-1.45-2.3-4.34-3.56-5.3-6.1-.54-1.44-.41-3.19-1.43-4.33M335.08,231.69c3.16-1.44,4.73-4.92,6.39-7.96,2.7-4.94,6.28-9.39,10.52-13.08,1.37-1.19.8-3.6-.62-4.75-3.45-2.79-8.47,0-11.96,2.74-8.97,7.07-17.94,14.14-26.91,21.21,4.99.81,9.98,1.56,14.99,2.25,2.54.35,5.24.66,7.58-.4M340.98,194.18c6.23-1.77,9.22-8.67,11.4-14.77,2.42-6.78,4.84-13.56,7.27-20.34.45-1.27.62-3.14-.67-3.51-6.16,3.2-12.32,6.4-18.48,9.59-2.04,1.06-4.35,2.5-4.52,4.8-.09,1.25.51,2.44,1.04,3.58,3.01,6.41,4.38,13.59,3.96,20.66M423.53,147.06c-.32-.68-1.12-1.09-1.86-.98-9.62,6.44-19.25,12.88-28.87,19.32-4.95,3.31-10.37,7.36-11.08,13.27-.08.65.04,1.51.68,1.67,6.06-1.3,12.13-2.6,18.19-3.9,1.42-.31,3.01-.72,3.75-1.97,5.69-9.6,12.11-18.77,19.19-27.4M214.32,265.8c-3.44,1.32-5.6,5.49-9.28,5.69-1.54.09-2.12,2.32-1.26,3.6.85,1.29,2.46,1.8,3.94,2.23,7.19,2.09,14.38,4.19,21.58,6.28,4.51,1.31,8.37-3.28,10.82-7.28.34-.55.68-1.14.64-1.78-.08-1.19-1.39-1.83-2.5-2.24-4.98-1.83-9.96-3.66-14.93-5.48-2.9-1.06-6.11-2.13-9-1.03M122.13,235.11c2.55.73,5.25-.21,7.74-1.13,4.48-1.67,8.96-3.33,13.44-5-10.55-3.86-21.1-7.71-31.64-11.57-4.6-1.68-9.33-3.44-12.99-6.7-1.49.4-.62,2.67.49,3.73,6,5.75,11.99,11.49,17.98,17.24,1.47,1.41,3.02,2.87,4.98,3.43M81.89,174.67c3.73,4.7,7.47,9.39,11.2,14.09,1.85,2.33,5.15,3.09,8.09,2.67s5.63-1.85,8.25-3.25c.1-1.52-1.01-2.81-1.99-3.96-4.32-5.06-7.6-11.01-9.58-17.37-5.53,2.15-10.89,4.77-15.98,7.83M274.46,232.43c-1.1-.25-2.21.3-3.21.83-4.66,2.47-9.33,4.94-13.99,7.42-.73.39-1.56.92-1.58,1.75-.02.55.35,1.03.69,1.46,1.92,2.39,3.92,4.85,6.63,6.27,2.72,1.42,6.38,1.51,8.59-.61,5.62-5.4,12.03-9.97,18.97-13.53l-16.1-3.58M229.82,289.71c-10.48-2.15-20.7-5.52-30.41-10.02-2.48-1.15-4.97-2.38-7.67-2.77-2.7-.39-5.71.23-7.52,2.27,8.44,7.02,18.45,12.14,29.08,14.89,3.02.78,6.17,1.37,9.24.85,3.07-.52,6.08-2.34,7.28-5.23M18.5,58.23c11.11,12.55,23.93,23.58,37.99,32.69.59.38,1.36.77,1.96.4.21-.13.37-.35.5-.56,1.72-2.83.72-6.66-1.41-9.18s-5.19-4.06-8.11-5.62c-10.93-5.82-21.23-12.82-30.68-20.83-1.36-.38-1.18,2.05-.25,3.11M363.51,222.03c11.5-13.13,22.99-26.26,34.49-39.38-5.91.05-11.81,1.31-17.22,3.69-1.37.6-2.1,2.08-2.71,3.44-4.85,10.75-9.7,21.5-14.56,32.25M370.12,193.47c1.59-4.24,3.19-8.47,4.78-12.71-1.78-.23-3.35,1.1-4.7,2.28-7.44,6.49-16.33,11.31-25.82,14.01,3.22,1.68,6.45,3.35,9.67,5.03,1.95,1.01,4,2.05,6.19,1.99,5.14-.14,8.06-5.79,9.87-10.6M132.91,212.78c-.51-3.95-3.85-6.85-6.97-9.34-3.95-3.16-7.89-6.32-11.84-9.48-2.04.56-4.2,1.19-5.57,2.8-1.37,1.61-1.37,4.53.51,5.48,4.75,2.41,9.51,4.83,14.26,7.24,2.61,1.32,5.46,2.93,6.33,5.72,1.7,5.48,7.63,9.3,13.32,8.59-1.96-3.6-5.12-6.54-8.87-8.22-.97-.43-1.03-1.75-1.17-2.8M220.23,253.67c5.17-1.76,10.26-3.77,15.24-6.01-7.96-6.42-19.69-7.75-28.88-3.28-.35.17-.72.37-.92.71-.48.83.34,1.79,1.09,2.4,2.01,1.64,4.03,3.29,6.04,4.93.95.78,1.94,1.57,3.14,1.85,1.43.33,2.91-.13,4.29-.6M106.57,141.83c5.15-1.73,10.02-4.29,14.35-7.57-4.11-3.34-9.77-4.26-15.03-3.64-5.26.62-10.24,2.62-15.16,4.6-.46.19-.97.42-1.14.89,2.97,1.65,5.94,3.29,8.91,4.94,1.14.63,2.32,1.28,3.61,1.47,1.5.22,3.02-.21,4.46-.69M80.7,112.14c5.33-.49,10.65-.98,15.98-1.46,1.19-.11,2.43-.24,3.43-.88-4.18-7.57-11.55-13.32-19.91-15.53.17,5.96.34,11.92.51,17.87M319.12,67.43c-.3-.77-.95-1.34-1.59-1.88-1.86-1.57-3.72-3.14-5.59-4.72-.6-.51-1.27-1.04-2.06-1.05-.86,0-1.58.61-2.21,1.19-5.69,5.25-11.38,10.49-17.08,15.74,1.96,1.45,4.58-.3,6.72-1.46,4.96-2.69,10.96-2.14,16.56-2.88,2.75-.36,6.22-2.35,5.23-4.94M115.95,119.12c1.78.53,3.67-.02,5.45-.57l11.56-3.56c1.58-.49,3.55-1.89,2.7-3.3-11.31.77-22.86-2.41-32.18-8.87-.79,2.35.97,4.73,2.61,6.59,1.91,2.16,3.81,4.33,5.72,6.49,1.17,1.33,2.44,2.72,4.14,3.22M77.54,175.49c-1.01,3.48-2.02,6.95-3.03,10.43-.47,1.61-.94,3.28-.72,4.94.43,3.28,3.55,5.72,6.81,6.26,3.26.55,6.59-.44,9.62-1.75,1.61-.7.35-3.1-.97-4.26-4.92-4.33-8.93-9.68-11.71-15.62M78.18,203.55c.25.99.91,1.83,1.56,2.62,10.87,13.27,23.7,24.93,37.94,34.5-.63-3.41-3.48-5.92-6.17-8.11-7.52-6.12-15.39-12.28-20.15-20.72-2.66-4.71-7.78-7.93-13.18-8.28M263.99,229.83c-5.29,1.18-10.57,2.36-15.86,3.54-5.16,1.15-10.4,2.31-15.67,1.98-2.21-.14-4.68-.47-6.43.89,4.73,3.01,9.98,5.2,15.45,6.42,2.19.49,5.14.44,5.91-1.67,2.37-6.48,13.65-4.92,16.6-11.16M335.31,245.76c-3.86,2.1-7.72,4.2-11.57,6.31-3.43,1.87-6.89,3.75-9.97,6.16-5.07,3.94-8.98,9.14-12.83,14.28.76,1.05,2.4.32,3.43-.47,11.52-8.89,23.04-17.78,34.56-26.66-1-.82-2.48-.22-3.61.39M295.69,127.43c.58-4.04.84-8.12.78-12.2-.02-1.46-.17-3.11-1.3-4.04-.72-.59-1.69-.76-2.61-.9-4.44-.69-8.87-1.39-13.31-2.08-.1,1.05.66,1.96,1.37,2.73,5.02,5.5,10.04,11,15.06,16.49M122.23,216.49c-1.19-2.46-3.78-3.86-6.21-5.11-5.5-2.82-11-5.64-16.5-8.46-3.02-1.55-6.56-3.13-9.69-1.8-.34.15-.69.34-.88.66-.58,1,.68,2.04,1.74,2.51,10.31,4.57,20.84,8.64,31.54,12.2M319.46,154.96c.62.73,1.37,1.51,2.33,1.49,1.29-.03,2.01-1.46,2.42-2.68,1.53-4.64,2.49-9.47,2.84-14.34-4.03,1.54-7.9,3.49-11.53,5.83-.71.46-1.47,1.01-1.64,1.84-.21.98.49,1.9,1.14,2.66,1.48,1.73,2.96,3.46,4.44,5.19M266.91,90.05c-.73.28-1.49.59-1.97,1.21-1.24,1.59.18,3.85,1.63,5.26,1.74,1.69,3.6,3.25,5.57,4.67,3.76-4.77,6.49-10.36,7.93-16.27-4.39,1.71-8.78,3.42-13.16,5.13M344.93,230.09c-.77,1.62-.52,4.52,1.22,4.08,6.67-7.66,12.5-16.05,17.34-24.98-1.15-.53-2.44.31-3.41,1.13-6.36,5.43-11.56,12.21-15.15,19.77M57.13,108.45c1.63-4.58-.49-9.78-3.83-13.32-3.34-3.53-7.74-5.82-11.86-8.41,5.23,7.24,10.45,14.48,15.68,21.72M187.01,237.38c2.5,4.21,8.47,4.82,13.19,3.5,2.9-.81,5.64-2.16,8.06-3.95-7.33-.36-14.67-.72-22-1.08.23.52.46,1.04.75,1.53M147.02,113.73c-.53.54-1.07,1.07-1.6,1.61,1.16,1.97,2.66,3.74,4.4,5.23,1.69-1.25,3.01-3.36,2.45-5.38-.56-2.02-3.73-2.97-4.82-1.18l-.43-.27Z" style="fill: #cc7d3c; stroke: #cc7d3c; stroke-miterlimit: 10; stroke-width: 1.25px;"/>
    </g>
  </g>
</svg>