<?xml version="1.0" encoding="UTF-8"?>
<svg id="Layer_2" data-name="Layer 2" xmlns="http://www.w3.org/2000/svg" viewBox="0 0 227.14 473.4">
  <g id="illustrations">
    <g>
      <g id="hourglass">
        <path d="M116.25,341.78c.8,1.75,1.51,6.44-1.27,6.7-.28-.03-.58-.09-.6-.44.08-1.97.44-3.98.93-5.91.09-.4.46-.63.83-.42l.11.08Z" style="fill: #565e73; stroke: #565e73; stroke-miterlimit: 10; stroke-width: 1.25px;"/>
        <path d="M116.85,289.35c.19,2.22.3,4.88.45,7.2-.12,1.28.83,3.34-.79,3.85-.83.24-1.5.22-1.69-.65-.37-3.23-3.26-9.4-.21-11.62.88-.39,2.05.07,2.2,1.05l.03.17Z" style="fill: #565e73; stroke: #565e73; stroke-miterlimit: 10; stroke-width: 1.25px;"/>
        <path d="M116.94,322.77c.79,3.86.5,8.06-.27,11.92-.17.74-.42,1.11-.85.58-3.16-4.27-3.29-21.35,1.06-12.68l.07.18Z" style="fill: #565e73; stroke: #565e73; stroke-miterlimit: 10; stroke-width: 1.25px;"/>
        <path d="M116.87,308.05c.48,3.59-.8,7.59-3.33,10.15-.23.16-.4.12-.52-.1-1.42-3.83,1.03-17.67,3.8-10.23l.05.18Z" style="fill: #565e73; stroke: #565e73; stroke-miterlimit: 10; stroke-width: 1.25px;"/>
        <path d="M113.79,272.98c4.73-2.65,4.54,10.86,1.05,12.9-.41.16-.65-.31-.76-.69-.84-3.82-1.87-8.37-.39-12.09l.1-.12Z" style="fill: #565e73; stroke: #565e73; stroke-miterlimit: 10; stroke-width: 1.25px;"/>
        <path d="M219.68,409.3c-6.33-6.58-6.6-16.09-6.73-24.74-1.15-60.67-45.21-109.7-91.47-143.67-1.92-1.36-4.24-2.58-6.42-3.12-3.23-.2-5.39,3.36-7.96,4.89-52.5,38.83-96.26,98.85-89.59,166.61-2.09,12.07-15.09,21.28-14.88,36.91-.04,5.15.96,10.47,3.68,14.78,4.42,7.24,12.51,11.74,21.48,11.59,3.04-.1,6.08-.18,9.1-.14,30.12-.34,48.67,1.17,82.02-.28,35.27-2.28,132.03-9.27,100.88-62.67l-.12-.16ZM46.03,313.22c16.79-26.53,39.89-49.76,65.78-67.37.62.18.44,1.28.4,1.93-.79,6.4-.43,13.08,1.1,19.31.27,1.11.76,2.15,1.26.49,1.59-6.09,2.17-12.5,1.98-18.79-.02-1.1-.1-2.91,1.5-2.35,44.97,22.06,99.32,98.25,88.32,149.65-.27,1.37-.89,2.53-2.35,2.89-11.78,1.3-24.19-1.1-36.22-1.39-2.05.1-3.62-1.06-4.31-2.95-8.17-18.05-41.02-2.4-46.12-21.66-.97-3.84-.56-7.79-1.4-11.63-.26-1.42-.59-3.08-1.11-3.31-.58-.16-.81.43-1.14,1.01-3.69,8.08,1.83,15.03-7.25,21.33-8.22,6.18-20.37,5.51-27.65,13.12-2.23,2.25-3.45,4.29-6.41,5.52-14.24,3.54-29.04,5.29-43.46,8.17-2.45.53-5.28.61-5.65-2.54-4.4-31.43,6.21-64.22,22.65-91.26l.1-.16ZM205.37,408.51c.14,3.46-1.05,7.87-2.67,11.12-.78,1.51-1.74,3.39-2.74,3.7-.31.1-.64.07-.99-.06-6.5-2.81-24.78-21.16-10.99-20.04,1.32.2,3.06.39,4.94.61,3.47.63,11.72.84,12.43,4.51l.02.15ZM96.81,399.75c-3.05.28-15.63,1.97-16.5-1.36,2.35-6.08,27.71-13.23,30.97-15.32,2.76-1.71,5.57-1.53,8.25.47,9.48,6.43,24.52,4.35,31.48,13.28.1.7-1.38.68-2.03.66-17.34-.43-34.74.33-51.98,2.24l-.19.02ZM139.9,413.48c-2.88,7.25-5.75,14.65-8.62,21.91-.27.63-.72,1.74-1.42,1.29-6.62-8.73-25.93-27.09-12.03-33.03,1.77-.78,3.85-.92,5.67-.86,2.24.01,4.76-.19,7.2-.28,8.81-.54,13.28,1.61,9.28,10.8l-.07.17ZM110.01,406.77c-.17.8-1.5.68-1.86.04-.49-.87.03-2.29.79-2.83,1.14-.24,1.51,1.58.97,2.33-.22.3-.08.34.07.39l.03.07ZM103.92,418.54c-3.74,6.88-6.32,14.91-10.78,21.32-.36.48-.91,1.15-1.46.98-.46-.14-.85-.94-1.12-1.45-5.03-9.82-18.26-23.24-10.3-32.6,2.26-2.36,5.43-1.73,8.62-2.07,2.12-.08,4.31-.06,6.39.15,8.88.73,12.98,5.22,8.74,13.48l-.09.2ZM149.14,404.39c5.94-4.54,14.87-1.13,22.07-1.49,5.42-.43,5.88,2.84,3.91,7.08-2.39,5.96-4.75,11.88-7.15,17.83-.52,1.41-1.65,3.08-3.29,2.2-.76-.37-1.42-1.05-2.01-1.67-4.15-4.75-17.69-16.15-13.63-23.84l.1-.12ZM75.15,406.87c-.82.38-2.3-.12-2.45-1.08.17-.28.66-.47.94-.7.32-.16.68-.56,1-.6.34.19.5.83.57,1.23.08.37-.07.94-.03,1.1l-.04.05ZM70.91,411.67c-1.46,5.71-6.29,13.08-9.71,18.25-1.55,1.86-2.98,4.7-4.57,3.1-4.44-5.11-11.39-15.49-8.83-21.89,2.55-4.04,8.37-4.11,12.64-5,5-1.36,10.49-1.19,10.47,5.38v.15ZM24.43,419.88c-.43-6.96,8.43-9.38,13.92-9.98,1.07-.05,2.51.03,3.06,1.08.4.82-.08,1.94-.52,2.76-3.78,6.82-7.56,13.59-11.35,20.38-.78,1.61-2.07,2.03-3.13.4-2.67-3.91-1.27-9.88-1.97-14.44v-.19ZM8.6,453.85c-3.82-1.7,4-35.42,9.01-30.85,1.36,1.86,1.48,4.39,2.54,6.52,2.47,6.29,5.77,13.05.48,16.82-3.6,2.69-7.26,7.22-11.92,7.53l-.11-.02ZM23.08,466.26c-2.25-.56-4.69-1.32-6.98-1.96-1.27-.4-2.78-.63-3.48-1.51-2.62-6.16,8.14-9.95,11.69-13.88,1.13-1.24,1.9-1.11,2.72.35,2.22,3.75,5.25,7.38,6.45,11.49.6,1.86-.41,3.44-2.14,4.35-2.37,1.45-5.41,1.84-8.06,1.19l-.19-.04ZM39.49,467.71c-.46,1.51-4.37,3.58-4.31.76.07-.46.48-.61.74-.93.24-.35.5-.82.91-1.06,1.02-.76,2.8-.45,2.7,1.07l-.03.16ZM39.05,457.28c-.97.08-1.86-.63-2.57-1.48-1.13-1.39-2.24-3.14-3.2-4.87-8.03-14.19,4.95-18.66,8.76-32.01.38-.91.79-1.34,1.21-1.24,2.72.89,4.39,11.96,10.14,18.17.69.77,1.48,1.67,1.59,2.63.1.71-.2,1.44-.55,2.08-3.29,5.94-7.59,11.74-13.1,15.7-.63.45-1.38.92-2.12,1.02l-.16.02ZM73.43,467.96c-8.12-.4-38.75,4.88-26.59-10.69,3.39-4.12,6.24-9.2,10.1-12.58,1.31-1.19,2.25-.52,2.83.98,3.15,7.44,8.55,13.91,15.27,18.29,3.08,1.82,1.41,3.71-1.45,3.99l-.17.02ZM70.24,454.48c-13.5-14.74-8.93-17.78,1.5-33.83.77-1.36,1.94-3.1,3-1.07,4.59,8.45,9.17,17,13.75,25.48.75,1.37,1.29,2.9.95,4.45-.89,3.62-3.85,7.22-5.98,10.48-3,3.04-10.85-2.96-13.1-5.39l-.12-.13ZM103.62,466.77c-8.26.4-18.66,1.39-15.09-6.95,1.1-2.38,2.21-5.54,4.44-6.9.78-.32,1.57.15,2.17.69,3.35,3.15,6.85,6.26,10.38,9.23,2.15,1.65.87,3.51-1.68,3.9l-.22.04ZM109.22,459.51c-3.88-1.57-6.42-5.54-9.35-8.45-1.1-1.21-2.27-2.15-2.86-3.54-2.26-6.17,7.83-19.98,11.21-27.55.64-1.6,1.25-1.74,2.36-.41,5.95,7.09,21.67,21.42,11.14,30.23-3.72,3.44-6.75,10.3-12.34,9.76l-.17-.04ZM141.48,466.43c-7.43,1.79-15.36.6-23.01.6-2,.04-2.44-.94-1.62-2.67,2.58-6.08,6.99-11.26,11.53-16.15,1.03-1.21,2.23-1.68,3.48-.5,5.46,4.57,22.96,13.67,9.83,18.66l-.2.07ZM137.74,446.18c-3-2.12-4.74-5.79-2.99-9.28,1.43-3.41,2.89-6.77,4.31-10.16,1.57-3.67,3.09-7.37,4.7-11.02.26-.52.64-1.15,1.22-1.05.52.08,1.14.86,1.54,1.37,4.82,6.18,9.63,12.33,14.45,18.53,1.49,1.73,1.91,4.1.78,6.11-.99,2-2.26,4.27-3.4,6.38-5,9.13-6.79,10.05-15.21,3.48-1.84-1.43-3.63-2.95-5.26-4.24l-.14-.12ZM150.64,465.13c-.19-.11-.58-.3-.45-.54,1.08-1.68,4.86-1.32,5.19.82-1.22.94-3.38.58-4.63-.21l-.12-.07ZM176.43,454.6c-2.69,4.36-8.37,9.14-13.41,5.96-1.65-.9-3.65-.21-5.36-.63-1.3-.33-1.46-1.67-.84-2.73,2.39-3.08,7.34-16.78,11.49-14.97,4.14,2.41,11.23,7.55,8.22,12.21l-.09.15ZM177.85,444.05c-2.41-2.88-6.51-5.34-7.47-9.23-.21-1.38.18-1.73.79-3.26.9-2.09,1.78-4.16,2.71-6.3,1.49-3.47,3.27-7.61,4.68-10.91.98-2.03.88-3.25,2.22-1.69,4.28,4.98,9.78,9.43,13.33,14.82,1.12,1.57,1.12,3.41.06,5.06-1.49,2.65-3.67,4.89-5.49,7.32-2.4,3.71-6.83,8.39-10.7,4.31l-.13-.13ZM184.7,458.22c-1.7.51-3.51,1.9-4.75,3.25-.36.38-.77.45-.95-.19-1.67-5.43,6.25-9.86,9.87-5.11.32.41.68,1.12-.05,1.2-1.24.07-2.81.4-3.96.79l-.16.05ZM193.2,451.17c-2,.07-5.15-.34-5.23-2.57.12-1.34,1.76-2.89,2.61-4.24,7.84-10.81,8.58-14.42,18.78-7.6,1.96,1.32,4.21,2.9,5.88,4.23.41.36.66.74.62,1.13-.03.57-.76,1.16-1.3,1.52-6.21,4.18-13.63,6.91-21.17,7.53h-.2ZM218.39,434.58c-.48.29-1.16.26-1.74.16-4-.76-7.83-2.99-10.54-6.06-3.01-3.46,3.71-8.65,4.6-16.07.08-.4.16-.78.28-1.1.35-1.31,1.48-1.4,2.54-.85,7.44,3.49,7.73,14.01,5.94,21.92-.15.7-.41,1.55-.95,1.93l-.12.08Z" style="fill: #565e73; stroke: #565e73; stroke-miterlimit: 10; stroke-width: 1.25px;"/>
      </g>
      <g>
        <g id="hourglass-2" data-name="hourglass">
          <path d="M226.49,30.25c.55-12.7-8.05-24.35-21.02-26.08-4.99-.61-9.93-.05-14.97-.17-27.88.24-50.26-1.11-79.36.23C77.62,6.48,18.66,10.93,5.3,38.05c-3.56,7.1-2.48,17.72,3.24,27.53,2.95,4.28,5.81,8.37,6.57,13.61.97,4.87.91,9.86,1.07,14.82,2.68,60.91,47.57,112.97,96.77,144.45,3.88,1.01,6.67-2.81,9.54-4.75,53.64-39.32,95.24-100.16,89.65-168.43,3-10.93,14.67-21.14,14.34-34.84v-.2ZM197.74,11.25c4.64-2.99,10.24-.7,15.06.69,1.87.5,4.1,1.32,4.15,3.53.18,4.69-6.92,8.03-10.77,11.28-.69.56-1.43,1.29-2.25,1.49-1.35.31-2.21-1.18-2.87-2.17-2.11-3.97-8.85-11.07-3.48-14.72l.16-.11ZM204.8,56.64c.25,4.71-3.91,7.68-8.06,8.96-3.48,1.23-11.56,2.93-8.35-3.3,3.78-6.72,7.32-13.6,11.35-20.15.99-1.43,2.56-1.16,3.36.25,2.27,3.99,1.25,9.58,1.7,14.05v.19ZM189.62,8.79c.44-1.51,4.62-3.56,4.25-.59-.14.42-.51.63-.74.96-.37.57-.94,1.16-1.77,1.28-.98.2-1.93-.54-1.78-1.52l.03-.14ZM190.01,19.22c3.37.13,5.62,5.65,7.08,8.47,5.42,12.25-6.29,18.51-10.15,30.07-.6.97-1.12,1.42-1.83.84-2.17-2.12-3.93-10.19-8.08-15.89-1.03-1.55-2.66-2.99-2.78-4.89.25-4.74,10.89-17.76,15.6-18.59h.17ZM181.19,65.57c-1.5,2.49-4.37,3.45-7.21,4.08-3.24.53-6.45,1.43-9.7,1.57-4.32.29-6.89-3.4-5.81-7.42,1.62-5.36,5.38-11.16,8.48-15.99,1.41-1.9,3.8-6.63,6.33-3.59,4.09,5.22,10.58,14.21,7.98,21.19l-.08.15ZM155.1,8.54c8.87-.1,39.14-4.89,27.47,10.67-3.29,4.15-5.99,8.98-9.86,12.42-1.57,1.32-3.01.36-3.77-1.32-1.76-3.67-3.87-7.11-6.52-10.16-2.26-2.65-4.86-4.96-7.68-6.99-2.25-1.53-3.52-3.71.18-4.6l.17-.03ZM158.95,21.85c11.33,12.15,10.43,17.31.59,31.21-1.89,2.71-3.83,7.41-6.3,2.22-4.12-7.7-8.26-15.45-12.34-23.17-.64-1.27-1.23-2.66-1.26-4.08,0-3.03,1.88-5.67,3.43-8.15,1.29-1.89,2.41-3.97,4.17-4.32,4.43-.34,8.59,3.36,11.57,6.16l.13.14ZM153.93,69.68c.66-.49,2.79.17,2.39,1.21-.45.4-1.15.87-1.69,1.13-.84.04-.81-1.74-.74-2.27l.03-.07ZM148.74,69.97c-2.04,2.04-5.07,1.95-8.05,2.11-3.15.14-6.35.09-9.49-.54-9.81-1.91-8.77-9.05-4.91-15.86,2.91-5.9,5.25-12.4,8.73-17.9,1.87-3.06,3.25-1.83,4.58.82,5.44,9.72,16.83,22.27,9.28,31.23l-.13.13ZM125.12,9.78c6.48-.68,17.51-1.38,16.2,4.88-.38,2.04-1.36,4.01-2.32,5.83-1.52,2.87-3.5,4.33-6.03,1.69-2.78-2.57-5.62-5.11-8.53-7.6-2.12-1.65-2.85-3.92.48-4.76l.2-.05ZM119.76,16.85c3.87,1.13,6.38,5.17,9.16,7.98,1.57,1.73,3.18,3.25,3.47,5.42.68,6.28-6.95,17.57-10.61,24.99-1.19,2.74-2.47,3.32-4.46.79-5.31-6.38-15.18-15.68-13.14-24.58.77-2.99,3.33-4.9,5.28-7.31,2.86-3.35,5.59-7.84,10.12-7.32l.17.03ZM119.15,69.78c-.05-.29.48-.63.82-.57.81,0,1.27.7,1.19,1.45-.18,2.34-2.38,2.65-2.16.1.1-.38.32-.79.18-.9l-.04-.07ZM67.96,41.88c-3.29-4.54,1.24-9.42,3.21-13.58,4.16-7.66,6.75-8.97,14.11-3.17,4.42,3.69,12.12,7.79,9.17,14.65-2.64,6.49-5.41,12.86-8.15,19.41-1.01,2.56-2.42,3.37-4.28.92-4.64-5.99-9.43-12.02-13.95-18.07l-.11-.16ZM79.91,72.1c-5.09,4.55-12.95,1.9-19.53,1.79-8.6.35-8.56-2.72-5.55-9.7,1.98-4.94,3.89-9.86,5.9-14.8.65-1.75,2.19-3.77,4.2-2.59.97.52,1.7,1.35,2.45,2.13,3.88,4.52,16.75,15.29,12.64,23.05l-.1.13ZM89.04,63.33c2.66-6.84,5.35-13.84,8.03-20.73.43-.98,1.01-2.89,2.31-2.49,8.19,8.88,26.25,28.68,10.63,33.44-3.38.84-6.53.42-10.04.73-2.49.13-5.75.24-7.91-.3-5.54-1.09-4.79-6.23-3.09-10.45l.08-.2ZM87.11,10.21c6.87-2.05,14.2-.98,21.34-.89,3.06-.04,5.16.57,3.47,4.03-2.75,5.69-6.8,10.81-11.35,15.28-1.67,1.54-3.62.35-5.07-.85-5.47-4.18-20.26-12.58-8.6-17.49l.2-.07ZM78.52,11.37c.96.51,0,1.26-.76,1.46-1.36.47-3.98,0-4.01-1.65,1.06-1.15,3.45-.53,4.63.11l.13.07ZM52.45,22.02c2.2-3.77,7.18-8.25,12.03-6.82,1.03.28,2.05.69,3.09.9,1.6.39,3.76-.01,4.69,1.33.63.94.08,2.11-.43,3.02-2.35,3.91-6.19,13.21-9.75,13.96-2.44.13-4.43-2.06-6.32-3.44-2.59-2.18-5.2-5.53-3.39-8.78l.08-.16ZM51.32,32.16c2.97,3.25,8.49,6.62,7.24,11.61-1.76,4.78-3.88,9.2-5.89,14.08-.81,1.81-1.59,3.91-2.47,5.62-.88,1.69-2.18.52-3.05-.46-3.94-4.35-8.55-8.35-11.81-13.1-1.36-1.88-1.61-4.26-.39-6.29,1.42-2.58,3.47-4.73,5.19-7.1,2.58-3.82,7.1-8.31,11.01-4.49l.15.13ZM41.27,73.42c-3.67-.34-6.93-.8-10.79-1.42-3-.52-7.21-1.65-6.77-5.46.02-2.89,2.82-15.01,7.07-13.07,7.64,3.94,23,20.75,10.68,19.96h-.19ZM40.29,19.25c2.78-.57,5.54-1.1,7.68-3.13.59-.39,1.34-1.69,2.08-1.03,2.17,5.14-5.71,10.02-9.47,5.82-.38-.39-.9-1.22-.4-1.58l.12-.07ZM14.24,32.91c5.64-3.91,12.57-6.38,19.48-7.34,2.41-.26,6.63-.75,7.46,2.16.19,1.42-1.27,3.04-2.22,4.35-1.05,1.41-2.2,3.02-3.3,4.51-5.25,7.7-8.27,8.36-15.59,3.62-1.79-1.49-9.11-4.62-5.98-7.18l.14-.12ZM17.91,65.28c-.86,1.44-2.66.8-3.77,0-5.77-4.04-6.18-13.19-4.71-20.56.3-1.98,1.68-3.52,3.78-2.98,3.98,1.01,8.61,3.41,10.42,7.3.82,2.99-2.84,6.98-4.43,12.21-.42,1.25-.62,2.75-1.2,3.87l-.09.15ZM183.13,163.29c-16.25,25.82-38.47,48.44-63.35,65.88-3.91,3.4-7.86,2.05-11.79-.48C63.9,204.5,10.72,130.38,23.34,79.34c1.4-2.32,4.52-2.08,7.03-2.22,13.57-.28,27.44,2.28,41.05,2.44,19.1-.94,38.43-.21,57.51-2.53,4.9-.48,10.02-1.24,15.05-.89,6.8.97,13.76.53,20.68-.48,12.22-2.35,24.61-4.52,36.91-6.52,3.3-.36,4.44,2.51,4.6,5.39,3.42,30.63-6.97,62.27-22.95,88.6l-.1.16ZM208.86,46.98c-5.12-12.74-4.86-14.04,6.2-22.29,1.44-.92,5.28-3.32,6.16-1.07,1.81,5.49-4.34,31.22-8.94,30.34-2.01-.95-2.38-4.8-3.35-6.8l-.07-.19Z" style="fill: #565e73; stroke: #565e73; stroke-miterlimit: 10; stroke-width: 1.25px;"/>
        </g>
        <path d="M58.74,187.93c36.2,5.12,75.91,6.48,111.3-2.68" style="fill: #565e73; stroke: #565e73; stroke-miterlimit: 10; stroke-width: 1.25px;"/>
      </g>
    </g>
    <g>
      <g id="hourglass-3" data-name="hourglass">
        <path d="M114.25,338.78c.8,1.75,1.51,6.44-1.27,6.7-.28-.03-.58-.09-.6-.44.08-1.97.44-3.98.93-5.91.09-.4.46-.63.83-.42l.11.08Z" style="fill: #cc7d3c; stroke: #cc7d3c; stroke-miterlimit: 10; stroke-width: 1.25px;"/>
        <path d="M114.85,286.35c.19,2.22.3,4.88.45,7.2-.12,1.28.83,3.34-.79,3.85-.83.24-1.5.22-1.69-.65-.37-3.23-3.26-9.4-.21-11.62.88-.39,2.05.07,2.2,1.05l.03.17Z" style="fill: #cc7d3c; stroke: #cc7d3c; stroke-miterlimit: 10; stroke-width: 1.25px;"/>
        <path d="M114.94,319.77c.79,3.86.5,8.06-.27,11.92-.17.74-.42,1.11-.85.58-3.16-4.27-3.29-21.35,1.06-12.68l.07.18Z" style="fill: #cc7d3c; stroke: #cc7d3c; stroke-miterlimit: 10; stroke-width: 1.25px;"/>
        <path d="M114.87,305.05c.48,3.59-.8,7.59-3.33,10.15-.23.16-.4.12-.52-.1-1.42-3.83,1.03-17.67,3.8-10.23l.05.18Z" style="fill: #cc7d3c; stroke: #cc7d3c; stroke-miterlimit: 10; stroke-width: 1.25px;"/>
        <path d="M111.79,269.98c4.73-2.65,4.54,10.86,1.05,12.9-.41.16-.65-.31-.76-.69-.84-3.82-1.87-8.37-.39-12.09l.1-.12Z" style="fill: #cc7d3c; stroke: #cc7d3c; stroke-miterlimit: 10; stroke-width: 1.25px;"/>
        <path d="M217.68,406.3c-6.33-6.58-6.6-16.09-6.73-24.74-1.15-60.67-45.21-109.7-91.47-143.67-1.92-1.36-4.24-2.58-6.42-3.12-3.23-.2-5.39,3.36-7.96,4.89-52.5,38.83-96.26,98.85-89.59,166.61-2.09,12.07-15.09,21.28-14.88,36.91-.04,5.15.96,10.47,3.68,14.78,4.42,7.24,12.51,11.74,21.48,11.59,3.04-.1,6.08-.18,9.1-.14,30.12-.34,48.67,1.17,82.02-.28,35.27-2.28,132.03-9.27,100.88-62.67l-.12-.16ZM44.03,310.22c16.79-26.53,39.89-49.76,65.78-67.37.62.18.44,1.28.4,1.93-.79,6.4-.43,13.08,1.1,19.31.27,1.11.76,2.15,1.26.49,1.59-6.09,2.17-12.5,1.98-18.79-.02-1.1-.1-2.91,1.5-2.35,44.97,22.06,99.32,98.25,88.32,149.65-.27,1.37-.89,2.53-2.35,2.89-11.78,1.3-24.19-1.1-36.22-1.39-2.05.1-3.62-1.06-4.31-2.95-8.17-18.05-41.02-2.4-46.12-21.66-.97-3.84-.56-7.79-1.4-11.63-.26-1.42-.59-3.08-1.11-3.31-.58-.16-.81.43-1.14,1.01-3.69,8.08,1.83,15.03-7.25,21.33-8.22,6.18-20.37,5.51-27.65,13.12-2.23,2.25-3.45,4.29-6.41,5.52-14.24,3.54-29.04,5.29-43.46,8.17-2.45.53-5.28.61-5.65-2.54-4.4-31.43,6.21-64.22,22.65-91.26l.1-.16ZM203.37,405.51c.14,3.46-1.05,7.87-2.67,11.12-.78,1.51-1.74,3.39-2.74,3.7-.31.1-.64.07-.99-.06-6.5-2.81-24.78-21.16-10.99-20.04,1.32.2,3.06.39,4.94.61,3.47.63,11.72.84,12.43,4.51l.02.15ZM94.81,396.75c-3.05.28-15.63,1.97-16.5-1.36,2.35-6.08,27.71-13.23,30.97-15.32,2.76-1.71,5.57-1.53,8.25.47,9.48,6.43,24.52,4.35,31.48,13.28.1.7-1.38.68-2.03.66-17.34-.43-34.74.33-51.98,2.24l-.19.02ZM137.9,410.48c-2.88,7.25-5.75,14.65-8.62,21.91-.27.63-.72,1.74-1.42,1.29-6.62-8.73-25.93-27.09-12.03-33.03,1.77-.78,3.85-.92,5.67-.86,2.24.01,4.76-.19,7.2-.28,8.81-.54,13.28,1.61,9.28,10.8l-.07.17ZM108.01,403.77c-.17.8-1.5.68-1.86.04-.49-.87.03-2.29.79-2.83,1.14-.24,1.51,1.58.97,2.33-.22.3-.08.34.07.39l.03.07ZM101.92,415.54c-3.74,6.88-6.32,14.91-10.78,21.32-.36.48-.91,1.15-1.46.98-.46-.14-.85-.94-1.12-1.45-5.03-9.82-18.26-23.24-10.3-32.6,2.26-2.36,5.43-1.73,8.62-2.07,2.12-.08,4.31-.06,6.39.15,8.88.73,12.98,5.22,8.74,13.48l-.09.2ZM147.14,401.39c5.94-4.54,14.87-1.13,22.07-1.49,5.42-.43,5.88,2.84,3.91,7.08-2.39,5.96-4.75,11.88-7.15,17.83-.52,1.41-1.65,3.08-3.29,2.2-.76-.37-1.42-1.05-2.01-1.67-4.15-4.75-17.69-16.15-13.63-23.84l.1-.12ZM73.15,403.87c-.82.38-2.3-.12-2.45-1.08.17-.28.66-.47.94-.7.32-.16.68-.56,1-.6.34.19.5.83.57,1.23.08.37-.07.94-.03,1.1l-.04.05ZM68.91,408.67c-1.46,5.71-6.29,13.08-9.71,18.25-1.55,1.86-2.98,4.7-4.57,3.1-4.44-5.11-11.39-15.49-8.83-21.89,2.55-4.04,8.37-4.11,12.64-5,5-1.36,10.49-1.19,10.47,5.38v.15ZM22.43,416.88c-.43-6.96,8.43-9.38,13.92-9.98,1.07-.05,2.51.03,3.06,1.08.4.82-.08,1.94-.52,2.76-3.78,6.82-7.56,13.59-11.35,20.38-.78,1.61-2.07,2.03-3.13.4-2.67-3.91-1.27-9.88-1.97-14.44v-.19ZM6.6,450.85c-3.82-1.7,4-35.42,9.01-30.85,1.36,1.86,1.48,4.39,2.54,6.52,2.47,6.29,5.77,13.05.48,16.82-3.6,2.69-7.26,7.22-11.92,7.53l-.11-.02ZM21.08,463.26c-2.25-.56-4.69-1.32-6.98-1.96-1.27-.4-2.78-.63-3.48-1.51-2.62-6.16,8.14-9.95,11.69-13.88,1.13-1.24,1.9-1.11,2.72.35,2.22,3.75,5.25,7.38,6.45,11.49.6,1.86-.41,3.44-2.14,4.35-2.37,1.45-5.41,1.84-8.06,1.19l-.19-.04ZM37.49,464.71c-.46,1.51-4.37,3.58-4.31.76.07-.46.48-.61.74-.93.24-.35.5-.82.91-1.06,1.02-.76,2.8-.45,2.7,1.07l-.03.16ZM37.05,454.28c-.97.08-1.86-.63-2.57-1.48-1.13-1.39-2.24-3.14-3.2-4.87-8.03-14.19,4.95-18.66,8.76-32.01.38-.91.79-1.34,1.21-1.24,2.72.89,4.39,11.96,10.14,18.17.69.77,1.48,1.67,1.59,2.63.1.71-.2,1.44-.55,2.08-3.29,5.94-7.59,11.74-13.1,15.7-.63.45-1.38.92-2.12,1.02l-.16.02ZM71.43,464.96c-8.12-.4-38.75,4.88-26.59-10.69,3.39-4.12,6.24-9.2,10.1-12.58,1.31-1.19,2.25-.52,2.83.98,3.15,7.44,8.55,13.91,15.27,18.29,3.08,1.82,1.41,3.71-1.45,3.99l-.17.02ZM68.24,451.48c-13.5-14.74-8.93-17.78,1.5-33.83.77-1.36,1.94-3.1,3-1.07,4.59,8.45,9.17,17,13.75,25.48.75,1.37,1.29,2.9.95,4.45-.89,3.62-3.85,7.22-5.98,10.48-3,3.04-10.85-2.96-13.1-5.39l-.12-.13ZM101.62,463.77c-8.26.4-18.66,1.39-15.09-6.95,1.1-2.38,2.21-5.54,4.44-6.9.78-.32,1.57.15,2.17.69,3.35,3.15,6.85,6.26,10.38,9.23,2.15,1.65.87,3.51-1.68,3.9l-.22.04ZM107.22,456.51c-3.88-1.57-6.42-5.54-9.35-8.45-1.1-1.21-2.27-2.15-2.86-3.54-2.26-6.17,7.83-19.98,11.21-27.55.64-1.6,1.25-1.74,2.36-.41,5.95,7.09,21.67,21.42,11.14,30.23-3.72,3.44-6.75,10.3-12.34,9.76l-.17-.04ZM139.48,463.43c-7.43,1.79-15.36.6-23.01.6-2,.04-2.44-.94-1.62-2.67,2.58-6.08,6.99-11.26,11.53-16.15,1.03-1.21,2.23-1.68,3.48-.5,5.46,4.57,22.96,13.67,9.83,18.66l-.2.07ZM135.74,443.18c-3-2.12-4.74-5.79-2.99-9.28,1.43-3.41,2.89-6.77,4.31-10.16,1.57-3.67,3.09-7.37,4.7-11.02.26-.52.64-1.15,1.22-1.05.52.08,1.14.86,1.54,1.37,4.82,6.18,9.63,12.33,14.45,18.53,1.49,1.73,1.91,4.1.78,6.11-.99,2-2.26,4.27-3.4,6.38-5,9.13-6.79,10.05-15.21,3.48-1.84-1.43-3.63-2.95-5.26-4.24l-.14-.12ZM148.64,462.13c-.19-.11-.58-.3-.45-.54,1.08-1.68,4.86-1.32,5.19.82-1.22.94-3.38.58-4.63-.21l-.12-.07ZM174.43,451.6c-2.69,4.36-8.37,9.14-13.41,5.96-1.65-.9-3.65-.21-5.36-.63-1.3-.33-1.46-1.67-.84-2.73,2.39-3.08,7.34-16.78,11.49-14.97,4.14,2.41,11.23,7.55,8.22,12.21l-.09.15ZM175.85,441.05c-2.41-2.88-6.51-5.34-7.47-9.23-.21-1.38.18-1.73.79-3.26.9-2.09,1.78-4.16,2.71-6.3,1.49-3.47,3.27-7.61,4.68-10.91.98-2.03.88-3.25,2.22-1.69,4.28,4.98,9.78,9.43,13.33,14.82,1.12,1.57,1.12,3.41.06,5.06-1.49,2.65-3.67,4.89-5.49,7.32-2.4,3.71-6.83,8.39-10.7,4.31l-.13-.13ZM182.7,455.22c-1.7.51-3.51,1.9-4.75,3.25-.36.38-.77.45-.95-.19-1.67-5.43,6.25-9.86,9.87-5.11.32.41.68,1.12-.05,1.2-1.24.07-2.81.4-3.96.79l-.16.05ZM191.2,448.17c-2,.07-5.15-.34-5.23-2.57.12-1.34,1.76-2.89,2.61-4.24,7.84-10.81,8.58-14.42,18.78-7.6,1.96,1.32,4.21,2.9,5.88,4.23.41.36.66.74.62,1.13-.03.57-.76,1.16-1.3,1.52-6.21,4.18-13.63,6.91-21.17,7.53h-.2ZM216.39,431.58c-.48.29-1.16.26-1.74.16-4-.76-7.83-2.99-10.54-6.06-3.01-3.46,3.71-8.65,4.6-16.07.08-.4.16-.78.28-1.1.35-1.31,1.48-1.4,2.54-.85,7.44,3.49,7.73,14.01,5.94,21.92-.15.7-.41,1.55-.95,1.93l-.12.08Z" style="fill: #cc7d3c; stroke: #cc7d3c; stroke-miterlimit: 10; stroke-width: 1.25px;"/>
      </g>
      <g>
        <g id="hourglass-4" data-name="hourglass">
          <path d="M224.49,27.25c.55-12.7-8.05-24.35-21.02-26.08-4.99-.61-9.93-.05-14.97-.17-27.88.24-50.26-1.11-79.36.23C75.62,3.48,16.66,7.93,3.3,35.05c-3.56,7.1-2.48,17.72,3.24,27.53,2.95,4.28,5.81,8.37,6.57,13.61.97,4.87.91,9.86,1.07,14.82,2.68,60.91,47.57,112.97,96.77,144.45,3.88,1.01,6.67-2.81,9.54-4.75,53.64-39.32,95.24-100.16,89.65-168.43,3-10.93,14.67-21.14,14.34-34.84v-.2ZM195.74,8.25c4.64-2.99,10.24-.7,15.06.69,1.87.5,4.1,1.32,4.15,3.53.18,4.69-6.92,8.03-10.77,11.28-.69.56-1.43,1.29-2.25,1.49-1.35.31-2.21-1.18-2.87-2.17-2.11-3.97-8.85-11.07-3.48-14.72l.16-.11ZM202.8,53.64c.25,4.71-3.91,7.68-8.06,8.96-3.48,1.23-11.56,2.93-8.35-3.3,3.78-6.72,7.32-13.6,11.35-20.15.99-1.43,2.56-1.16,3.36.25,2.27,3.99,1.25,9.58,1.7,14.05v.19ZM187.62,5.79c.44-1.51,4.62-3.56,4.25-.59-.14.42-.51.63-.74.96-.37.57-.94,1.16-1.77,1.28-.98.2-1.93-.54-1.78-1.52l.03-.14ZM188.01,16.22c3.37.13,5.62,5.65,7.08,8.47,5.42,12.25-6.29,18.51-10.15,30.07-.6.97-1.12,1.42-1.83.84-2.17-2.12-3.93-10.19-8.08-15.89-1.03-1.55-2.66-2.99-2.78-4.89.25-4.74,10.89-17.76,15.6-18.59h.17ZM179.19,62.57c-1.5,2.49-4.37,3.45-7.21,4.08-3.24.53-6.45,1.43-9.7,1.57-4.32.29-6.89-3.4-5.81-7.42,1.62-5.36,5.38-11.16,8.48-15.99,1.41-1.9,3.8-6.63,6.33-3.59,4.09,5.22,10.58,14.21,7.98,21.19l-.08.15ZM153.1,5.54c8.87-.1,39.14-4.89,27.47,10.67-3.29,4.15-5.99,8.98-9.86,12.42-1.57,1.32-3.01.36-3.77-1.32-1.76-3.67-3.87-7.11-6.52-10.16-2.26-2.65-4.86-4.96-7.68-6.99-2.25-1.53-3.52-3.71.18-4.6l.17-.03ZM156.95,18.85c11.33,12.15,10.43,17.31.59,31.21-1.89,2.71-3.83,7.41-6.3,2.22-4.12-7.7-8.26-15.45-12.34-23.17-.64-1.27-1.23-2.66-1.26-4.08,0-3.03,1.88-5.67,3.43-8.15,1.29-1.89,2.41-3.97,4.17-4.32,4.43-.34,8.59,3.36,11.57,6.16l.13.14ZM151.93,66.68c.66-.49,2.79.17,2.39,1.21-.45.4-1.15.87-1.69,1.13-.84.04-.81-1.74-.74-2.27l.03-.07ZM146.74,66.97c-2.04,2.04-5.07,1.95-8.05,2.11-3.15.14-6.35.09-9.49-.54-9.81-1.91-8.77-9.05-4.91-15.86,2.91-5.9,5.25-12.4,8.73-17.9,1.87-3.06,3.25-1.83,4.58.82,5.44,9.72,16.83,22.27,9.28,31.23l-.13.13ZM123.12,6.78c6.48-.68,17.51-1.38,16.2,4.88-.38,2.04-1.36,4.01-2.32,5.83-1.52,2.87-3.5,4.33-6.03,1.69-2.78-2.57-5.62-5.11-8.53-7.6-2.12-1.65-2.85-3.92.48-4.76l.2-.05ZM117.76,13.85c3.87,1.13,6.38,5.17,9.16,7.98,1.57,1.73,3.18,3.25,3.47,5.42.68,6.28-6.95,17.57-10.61,24.99-1.19,2.74-2.47,3.32-4.46.79-5.31-6.38-15.18-15.68-13.14-24.58.77-2.99,3.33-4.9,5.28-7.31,2.86-3.35,5.59-7.84,10.12-7.32l.17.03ZM117.15,66.78c-.05-.29.48-.63.82-.57.81,0,1.27.7,1.19,1.45-.18,2.34-2.38,2.65-2.16.1.1-.38.32-.79.18-.9l-.04-.07ZM65.96,38.88c-3.29-4.54,1.24-9.42,3.21-13.58,4.16-7.66,6.75-8.97,14.11-3.17,4.42,3.69,12.12,7.79,9.17,14.65-2.64,6.49-5.41,12.86-8.15,19.41-1.01,2.56-2.42,3.37-4.28.92-4.64-5.99-9.43-12.02-13.95-18.07l-.11-.16ZM77.91,69.1c-5.09,4.55-12.95,1.9-19.53,1.79-8.6.35-8.56-2.72-5.55-9.7,1.98-4.94,3.89-9.86,5.9-14.8.65-1.75,2.19-3.77,4.2-2.59.97.52,1.7,1.35,2.45,2.13,3.88,4.52,16.75,15.29,12.64,23.05l-.1.13ZM87.04,60.33c2.66-6.84,5.35-13.84,8.03-20.73.43-.98,1.01-2.89,2.31-2.49,8.19,8.88,26.25,28.68,10.63,33.44-3.38.84-6.53.42-10.04.73-2.49.13-5.75.24-7.91-.3-5.54-1.09-4.79-6.23-3.09-10.45l.08-.2ZM85.11,7.21c6.87-2.05,14.2-.98,21.34-.89,3.06-.04,5.16.57,3.47,4.03-2.75,5.69-6.8,10.81-11.35,15.28-1.67,1.54-3.62.35-5.07-.85-5.47-4.18-20.26-12.58-8.6-17.49l.2-.07ZM76.52,8.37c.96.51,0,1.26-.76,1.46-1.36.47-3.98,0-4.01-1.65,1.06-1.15,3.45-.53,4.63.11l.13.07ZM50.45,19.02c2.2-3.77,7.18-8.25,12.03-6.82,1.03.28,2.05.69,3.09.9,1.6.39,3.76-.01,4.69,1.33.63.94.08,2.11-.43,3.02-2.35,3.91-6.19,13.21-9.75,13.96-2.44.13-4.43-2.06-6.32-3.44-2.59-2.18-5.2-5.53-3.39-8.78l.08-.16ZM49.32,29.16c2.97,3.25,8.49,6.62,7.24,11.61-1.76,4.78-3.88,9.2-5.89,14.08-.81,1.81-1.59,3.91-2.47,5.62-.88,1.69-2.18.52-3.05-.46-3.94-4.35-8.55-8.35-11.81-13.1-1.36-1.88-1.61-4.26-.39-6.29,1.42-2.58,3.47-4.73,5.19-7.1,2.58-3.82,7.1-8.31,11.01-4.49l.15.13ZM39.27,70.42c-3.67-.34-6.93-.8-10.79-1.42-3-.52-7.21-1.65-6.77-5.46.02-2.89,2.82-15.01,7.07-13.07,7.64,3.94,23,20.75,10.68,19.96h-.19ZM38.29,16.25c2.78-.57,5.54-1.1,7.68-3.13.59-.39,1.34-1.69,2.08-1.03,2.17,5.14-5.71,10.02-9.47,5.82-.38-.39-.9-1.22-.4-1.58l.12-.07ZM12.24,29.91c5.64-3.91,12.57-6.38,19.48-7.34,2.41-.26,6.63-.75,7.46,2.16.19,1.42-1.27,3.04-2.22,4.35-1.05,1.41-2.2,3.02-3.3,4.51-5.25,7.7-8.27,8.36-15.59,3.62-1.79-1.49-9.11-4.62-5.98-7.18l.14-.12ZM15.91,62.28c-.86,1.44-2.66.8-3.77,0-5.77-4.04-6.18-13.19-4.71-20.56.3-1.98,1.68-3.52,3.78-2.98,3.98,1.01,8.61,3.41,10.42,7.3.82,2.99-2.84,6.98-4.43,12.21-.42,1.25-.62,2.75-1.2,3.87l-.09.15ZM181.13,160.29c-16.25,25.82-38.47,48.44-63.35,65.88-3.91,3.4-7.86,2.05-11.79-.48C61.9,201.5,8.72,127.38,21.34,76.34c1.4-2.32,4.52-2.08,7.03-2.22,13.57-.28,27.44,2.28,41.05,2.44,19.1-.94,38.43-.21,57.51-2.53,4.9-.48,10.02-1.24,15.05-.89,6.8.97,13.76.53,20.68-.48,12.22-2.35,24.61-4.52,36.91-6.52,3.3-.36,4.44,2.51,4.6,5.39,3.42,30.63-6.97,62.27-22.95,88.6l-.1.16ZM206.86,43.98c-5.12-12.74-4.86-14.04,6.2-22.29,1.44-.92,5.28-3.32,6.16-1.07,1.81,5.49-4.34,31.22-8.94,30.34-2.01-.95-2.38-4.8-3.35-6.8l-.07-.19Z" style="fill: #cc7d3c; stroke: #cc7d3c; stroke-miterlimit: 10; stroke-width: 1.25px;"/>
        </g>
        <path d="M56.74,184.93c36.2,5.12,75.91,6.48,111.3-2.68" style="fill: #cc7d3c; stroke: #cc7d3c; stroke-miterlimit: 10; stroke-width: 1.25px;"/>
      </g>
    </g>
  </g>
</svg>