<?xml version="1.0" encoding="UTF-8"?>
<svg id="Layer_2" data-name="Layer 2" xmlns="http://www.w3.org/2000/svg" viewBox="0 0 448.01 419.91">
  <defs>
    <style>
      .cls-1 {
        fill: #fa9902;
      }

      .cls-2 {
        fill: #f9bb04;
      }

      .cls-3 {
        fill: #fc5308;
      }

      .cls-4 {
        fill: #0246fe;
      }

      .cls-5 {
        fill: #0390cd;
      }

      .cls-6 {
        fill: #fffe33;
      }

      .cls-7 {
        fill: #fd2812;
      }

      .cls-8 {
        fill: #8701b0;
      }

      .cls-9 {
        fill: #b8cd28;
      }

      .cls-10 {
        fill: #a8184b;
      }

      .cls-11 {
        fill: #3f01a4;
      }

      .cls-12 {
        fill: #555e73;
      }

      .cls-13 {
        fill: #4e8528;
      }

      .cls-14 {
        stroke: #3f01a4;
      }

      .cls-14, .cls-15, .cls-16, .cls-17, .cls-18, .cls-19, .cls-20, .cls-21, .cls-22, .cls-23, .cls-24, .cls-25 {
        fill: none;
        stroke-miterlimit: 10;
      }

      .cls-15 {
        stroke: #0390cd;
      }

      .cls-16 {
        stroke: #0246fe;
      }

      .cls-17 {
        stroke: #b8cd28;
      }

      .cls-18 {
        stroke: #8701b0;
      }

      .cls-19 {
        stroke: #fd2812;
      }

      .cls-20 {
        stroke: #fffe33;
      }

      .cls-21 {
        stroke: #4e8528;
      }

      .cls-22 {
        stroke: #a8184b;
      }

      .cls-23 {
        stroke: #fa9902;
      }

      .cls-24 {
        stroke: #f9bb04;
      }

      .cls-25 {
        stroke: #fc5308;
      }
    </style>
  </defs>
  <g id="Layer_1-2" data-name="Layer 1">
    <g id="Layer_1-2" data-name="Layer 1-2">
      <path class="cls-18" d="M10.55,220.56c-.77-.46-1.85-.15-2.24,.69-.62,1.31-.93,2.78-.93,4.48,0,5.48-11.12,17.91-5.09,17.91,4.17,0,16.44-8.57,20.76-13.43,.62-.62,.46-1.7-.31-2.08,0-.15-12.2-7.56-12.2-7.56h0Z"/>
      <path class="cls-8" d="M100.48,191.93c-.31,3.16-2.78,5.25-3.86,6.18-1.31,1.16-2.32,1.54-3.86,2.32-3.78,1.93-7.1,4.25-8.49,5.48-3.16,2.78-3.24,6.41-4.55,13.12-1.7,8.65-5.02,16.52-8.8,21.23-6.18,7.72-8.72,9.26-16.52,12.81-9.88,4.48-14.67,5.48-25.86,7.41-.15,0-5.4,.77-6.95,0-.46-.23-1.62-.77-2.08-2.01-.08-.15-.31-.85-.23-1.85,.08-.77,.39-1.78,3.47-5.02,1.39-1.47,3.24-3.24,3.86-3.86,.08-.08,.46-.39,.93-.85,.31-.31,.54-.54,.62-.69-.62-1.16-1.08-2.39-1.54-3.86-2.01-6.33-1-12.12-.08-15.44l-1.24-.08-2.86-.31c-1.24-.15-2.32-1-2.78-2.16-.15-.39-.23-.85-.23-1.31,0-1.08,.46-2.08,1.31-2.78,.39-.23,.77-.62,1.24-1l.93-.62,7.56-4.86c.62-.39,1.39-1.16,1.54-1.54-.54-.39-2.08-.93-3.09-1.54-4.55-2.86-5.33-4.01-6.95-5.4-2.93-2.47-3.78-4.01-3.86-5.4-.69-6.18,8.49-15.98,24.47-19.3,1.78-3.24,4.25-5.09,6.18-4.63,1.54,.31,2.24,2.01,3.09,3.86,1.39,3.09,.69,4.55,.85,9.26,0,1,.77,3.32,.77,3.86,1.54,3.63,3.09,7.18,4.71,10.81,0-2.01,.23-5.09,1.54-8.49,.46-1.24,2.86-7.26,9.19-11.66,1.31-.85,9.49-6.33,19.3-3.94,1.7,.46,6.72,1.7,10.04,6.1,.93,1.31,2.47,3.4,2.24,6.18Z"/>
      <path class="cls-18" d="M25.29,226.82c-.08,.23-.15,.54-.31,.85-.31,.77-1.24,1-1.93,.62l-.08-.08-2.39-1.54-10.73-6.79c-.46-.31-.46-1,0-1.31,1.62-1.16,3.63-1.78,6.18-1.85,.62,0,1.16,0,1.7,.08,.93,.08,1.85-.46,2.16-1.39,.85-2.32,1.62-6.1,2.16-4.86,.31,.77,.31,3.47,.08,6.1-.08,.77,.15,1.47,.77,2.01l-.93,.62c-.46,.39-.85,.69-1.24,1-.85,.69-1.31,1.7-1.31,2.78,0,.46,.08,.85,.23,1.31,.46,1.16,1.54,2.01,2.78,2.16,0,0,2.86,.31,2.86,.31Z"/>
    </g>
    <g id="Layer_1-2-2" data-name="Layer 1-2">
      <path class="cls-20" d="M402.04,207.65c-.39-.24-.95-.08-1.14,.35-.32,.67-.47,1.42-.47,2.29,0,2.8-5.68,9.15-2.6,9.15,2.13,0,8.4-4.38,10.61-6.86,.32-.32,.24-.87-.16-1.06,0-.08-6.23-3.87-6.23-3.87h0Z"/>
      <path class="cls-6" d="M448,193.01c-.16,1.62-1.42,2.68-1.97,3.16-.67,.59-1.18,.79-1.97,1.18-1.93,.99-3.63,2.17-4.34,2.8-1.62,1.42-1.66,3.27-2.33,6.71-.87,4.42-2.56,8.44-4.5,10.85-3.16,3.94-4.46,4.73-8.44,6.55-5.05,2.29-7.49,2.8-13.21,3.79-.08,0-2.76,.39-3.55,0-.24-.12-.83-.39-1.06-1.03-.04-.08-.16-.43-.12-.95,.04-.39,.2-.91,1.77-2.56,.71-.75,1.66-1.66,1.97-1.97,.04-.04,.24-.2,.47-.43,.16-.16,.28-.28,.32-.35-.32-.59-.55-1.22-.79-1.97-1.03-3.23-.51-6.19-.04-7.89l-.63-.04-1.46-.16c-.63-.08-1.18-.51-1.42-1.1-.08-.2-.12-.43-.12-.67,0-.55,.24-1.06,.67-1.42,.2-.12,.39-.32,.63-.51l.47-.32,3.87-2.48c.32-.2,.71-.59,.79-.79-.28-.2-1.06-.47-1.58-.79-2.33-1.46-2.72-2.05-3.55-2.76-1.5-1.26-1.93-2.05-1.97-2.76-.35-3.16,4.34-8.16,12.5-9.86,.91-1.66,2.17-2.6,3.16-2.37,.79,.16,1.14,1.03,1.58,1.97,.71,1.58,.35,2.33,.43,4.73,0,.51,.39,1.7,.39,1.97,.79,1.85,1.58,3.67,2.41,5.52,0-1.03,.12-2.6,.79-4.34,.24-.63,1.46-3.71,4.69-5.96,.67-.43,4.85-3.23,9.86-2.01,.87,.24,3.43,.87,5.13,3.12,.47,.67,1.26,1.74,1.14,3.16Z"/>
      <path class="cls-20" d="M409.58,210.84c-.04,.12-.08,.28-.16,.43-.16,.39-.63,.51-.99,.32l-.04-.04-1.22-.79-5.48-3.47c-.24-.16-.24-.51,0-.67,.83-.59,1.85-.91,3.16-.95,.32,0,.59,0,.87,.04,.47,.04,.95-.24,1.1-.71,.43-1.18,.83-3.12,1.1-2.48,.16,.39,.16,1.77,.04,3.12-.04,.39,.08,.75,.39,1.03l-.47,.32c-.24,.2-.43,.35-.63,.51-.43,.35-.67,.87-.67,1.42,0,.24,.04,.43,.12,.67,.24,.59,.79,1.03,1.42,1.1,0,0,1.46,.16,1.46,.16Z"/>
    </g>
    <g id="Layer_1-2-3" data-name="Layer 1-2">
      <path class="cls-24" d="M384.29,121.26c-.39-.24-.95-.08-1.14,.35-.32,.67-.47,1.42-.47,2.29,0,2.8-5.68,9.15-2.6,9.15,2.13,0,8.4-4.38,10.61-6.86,.32-.32,.24-.87-.16-1.06,0-.08-6.23-3.87-6.23-3.87h0Z"/>
      <path class="cls-2" d="M430.25,106.63c-.16,1.62-1.42,2.68-1.97,3.16-.67,.59-1.18,.79-1.97,1.18-1.93,.99-3.63,2.17-4.34,2.8-1.62,1.42-1.66,3.27-2.33,6.71-.87,4.42-2.56,8.44-4.5,10.85-3.16,3.94-4.46,4.73-8.44,6.55-5.05,2.29-7.49,2.8-13.21,3.79-.08,0-2.76,.39-3.55,0-.24-.12-.83-.39-1.06-1.03-.04-.08-.16-.43-.12-.95,.04-.39,.2-.91,1.77-2.56,.71-.75,1.66-1.66,1.97-1.97,.04-.04,.24-.2,.47-.43,.16-.16,.28-.28,.32-.35-.32-.59-.55-1.22-.79-1.97-1.03-3.23-.51-6.19-.04-7.89l-.63-.04-1.46-.16c-.63-.08-1.18-.51-1.42-1.1-.08-.2-.12-.43-.12-.67,0-.55,.24-1.06,.67-1.42,.2-.12,.39-.32,.63-.51l.47-.32,3.87-2.48c.32-.2,.71-.59,.79-.79-.28-.2-1.06-.47-1.58-.79-2.33-1.46-2.72-2.05-3.55-2.76-1.5-1.26-1.93-2.05-1.97-2.76-.35-3.16,4.34-8.16,12.5-9.86,.91-1.66,2.17-2.6,3.16-2.37,.79,.16,1.14,1.03,1.58,1.97,.71,1.58,.35,2.33,.43,4.73,0,.51,.39,1.7,.39,1.97,.79,1.85,1.58,3.67,2.41,5.52,0-1.03,.12-2.6,.79-4.34,.24-.63,1.46-3.71,4.69-5.96,.67-.43,4.85-3.23,9.86-2.01,.87,.24,3.43,.87,5.13,3.12,.47,.67,1.26,1.74,1.14,3.16Z"/>
      <path class="cls-24" d="M391.83,124.46c-.04,.12-.08,.28-.16,.43-.16,.39-.63,.51-.99,.32l-.04-.04-1.22-.79-5.48-3.47c-.24-.16-.24-.51,0-.67,.83-.59,1.85-.91,3.16-.95,.32,0,.59,0,.87,.04,.47,.04,.95-.24,1.1-.71,.43-1.18,.83-3.12,1.1-2.48,.16,.39,.16,1.77,.04,3.12-.04,.39,.08,.75,.39,1.03l-.47,.32c-.24,.2-.43,.35-.63,.51-.43,.35-.67,.87-.67,1.42,0,.24,.04,.43,.12,.67,.24,.59,.79,1.03,1.42,1.1,0,0,1.46,.16,1.46,.16Z"/>
    </g>
    <g id="Layer_1-2-4" data-name="Layer 1-2">
      <path class="cls-23" d="M305.8,55c-.39-.24-.95-.08-1.14,.35-.32,.67-.47,1.42-.47,2.29,0,2.8-5.68,9.15-2.6,9.15,2.13,0,8.4-4.38,10.61-6.86,.32-.32,.24-.87-.16-1.06,0-.08-6.23-3.87-6.23-3.87h0Z"/>
      <path class="cls-1" d="M351.75,40.36c-.16,1.62-1.42,2.68-1.97,3.16-.67,.59-1.18,.79-1.97,1.18-1.93,.99-3.63,2.17-4.34,2.8-1.62,1.42-1.66,3.27-2.33,6.71-.87,4.42-2.56,8.44-4.5,10.85-3.16,3.94-4.46,4.73-8.44,6.55-5.05,2.29-7.49,2.8-13.21,3.79-.08,0-2.76,.39-3.55,0-.24-.12-.83-.39-1.06-1.03-.04-.08-.16-.43-.12-.95,.04-.39,.2-.91,1.77-2.56,.71-.75,1.66-1.66,1.97-1.97,.04-.04,.24-.2,.47-.43,.16-.16,.28-.28,.32-.35-.32-.59-.55-1.22-.79-1.97-1.03-3.23-.51-6.19-.04-7.89l-.63-.04-1.46-.16c-.63-.08-1.18-.51-1.42-1.1-.08-.2-.12-.43-.12-.67,0-.55,.24-1.06,.67-1.42,.2-.12,.39-.32,.63-.51l.47-.32,3.87-2.48c.32-.2,.71-.59,.79-.79-.28-.2-1.06-.47-1.58-.79-2.33-1.46-2.72-2.05-3.55-2.76-1.5-1.26-1.93-2.05-1.97-2.76-.35-3.16,4.34-8.16,12.5-9.86,.91-1.66,2.17-2.6,3.16-2.37,.79,.16,1.14,1.03,1.58,1.97,.71,1.58,.35,2.33,.43,4.73,0,.51,.39,1.7,.39,1.97,.79,1.85,1.58,3.67,2.41,5.52,0-1.03,.12-2.6,.79-4.34,.24-.63,1.46-3.71,4.69-5.96,.67-.43,4.85-3.23,9.86-2.01,.87,.24,3.43,.87,5.13,3.12,.47,.67,1.26,1.74,1.14,3.16Z"/>
      <path class="cls-23" d="M313.33,58.19c-.04,.12-.08,.28-.16,.43-.16,.39-.63,.51-.99,.32l-.04-.04-1.22-.79-5.48-3.47c-.24-.16-.24-.51,0-.67,.83-.59,1.85-.91,3.16-.95,.32,0,.59,0,.87,.04,.47,.04,.95-.24,1.1-.71,.43-1.18,.83-3.12,1.1-2.48,.16,.39,.16,1.77,.04,3.12-.04,.39,.08,.75,.39,1.03l-.47,.32c-.24,.2-.43,.35-.63,.51-.43,.35-.67,.87-.67,1.42,0,.24,.04,.43,.12,.67,.24,.59,.79,1.03,1.42,1.1,0,0,1.46,.16,1.46,.16Z"/>
    </g>
    <g id="Layer_1-2-5" data-name="Layer 1-2">
      <path class="cls-25" d="M213.5,29.75c-.39-.24-.95-.08-1.14,.35-.32,.67-.47,1.42-.47,2.29,0,2.8-5.68,9.15-2.6,9.15,2.13,0,8.4-4.38,10.61-6.86,.32-.32,.24-.87-.16-1.06,0-.08-6.23-3.86-6.23-3.86h0Z"/>
      <path class="cls-3" d="M259.45,15.12c-.16,1.62-1.42,2.68-1.97,3.16-.67,.59-1.18,.79-1.97,1.18-1.93,.99-3.63,2.17-4.34,2.8-1.62,1.42-1.66,3.27-2.33,6.7-.87,4.42-2.56,8.44-4.5,10.85-3.16,3.94-4.46,4.73-8.44,6.55-5.05,2.29-7.49,2.8-13.21,3.79-.08,0-2.76,.39-3.55,0-.24-.12-.83-.39-1.06-1.03-.04-.08-.16-.43-.12-.95,.04-.39,.2-.91,1.77-2.56,.71-.75,1.66-1.66,1.97-1.97,.04-.04,.24-.2,.47-.43,.16-.16,.28-.28,.32-.35-.32-.59-.55-1.22-.79-1.97-1.03-3.23-.51-6.19-.04-7.89l-.63-.04-1.46-.16c-.63-.08-1.18-.51-1.42-1.1-.08-.2-.12-.43-.12-.67,0-.55,.24-1.06,.67-1.42,.2-.12,.39-.32,.63-.51l.47-.32,3.86-2.48c.32-.2,.71-.59,.79-.79-.28-.2-1.06-.47-1.58-.79-2.33-1.46-2.72-2.05-3.55-2.76-1.5-1.26-1.93-2.05-1.97-2.76-.35-3.16,4.34-8.16,12.5-9.86,.91-1.66,2.17-2.6,3.16-2.37,.79,.16,1.14,1.03,1.58,1.97,.71,1.58,.35,2.33,.43,4.73,0,.51,.39,1.7,.39,1.97,.79,1.85,1.58,3.67,2.41,5.52,0-1.03,.12-2.6,.79-4.34,.24-.63,1.46-3.71,4.69-5.96,.67-.43,4.85-3.23,9.86-2.01,.87,.24,3.43,.87,5.13,3.12,.47,.67,1.26,1.74,1.14,3.16Z"/>
      <path class="cls-25" d="M221.04,32.95c-.04,.12-.08,.28-.16,.43-.16,.39-.63,.51-.99,.32l-.04-.04-1.22-.79-5.48-3.47c-.24-.16-.24-.51,0-.67,.83-.59,1.85-.91,3.16-.95,.32,0,.59,0,.87,.04,.47,.04,.95-.24,1.1-.71,.43-1.18,.83-3.12,1.1-2.48,.16,.39,.16,1.77,.04,3.12-.04,.39,.08,.75,.39,1.03l-.47,.32c-.24,.2-.43,.35-.63,.51-.43,.35-.67,.87-.67,1.42,0,.24,.04,.43,.12,.67,.24,.59,.79,1.03,1.42,1.1,0,0,1.46,.16,1.46,.16Z"/>
    </g>
    <g id="Layer_1-2-6" data-name="Layer 1-2">
      <path class="cls-19" d="M110.41,44.69c-.77-.46-1.85-.15-2.24,.69-.62,1.31-.93,2.78-.93,4.48,0,5.48-11.12,17.91-5.09,17.91,4.17,0,16.44-8.57,20.76-13.43,.62-.62,.46-1.7-.31-2.08,0-.15-12.2-7.56-12.2-7.56h0Z"/>
      <path class="cls-7" d="M200.34,16.05c-.31,3.16-2.78,5.25-3.86,6.18-1.31,1.16-2.32,1.54-3.86,2.32-3.78,1.93-7.1,4.25-8.49,5.48-3.16,2.78-3.24,6.41-4.55,13.12-1.7,8.65-5.02,16.52-8.8,21.23-6.18,7.72-8.72,9.26-16.52,12.81-9.88,4.48-14.67,5.48-25.86,7.41-.15,0-5.4,.77-6.95,0-.46-.23-1.62-.77-2.08-2.01-.08-.15-.31-.85-.23-1.85,.08-.77,.39-1.78,3.47-5.02,1.39-1.47,3.24-3.24,3.86-3.86,.08-.08,.46-.39,.93-.85,.31-.31,.54-.54,.62-.69-.62-1.16-1.08-2.39-1.54-3.86-2.01-6.33-1-12.12-.08-15.44l-1.24-.08-2.86-.31c-1.24-.15-2.32-1-2.78-2.16-.15-.39-.23-.85-.23-1.31,0-1.08,.46-2.08,1.31-2.78,.39-.23,.77-.62,1.24-1l.93-.62,7.56-4.86c.62-.39,1.39-1.16,1.54-1.54-.54-.39-2.08-.93-3.09-1.54-4.55-2.86-5.33-4.01-6.95-5.4-2.93-2.47-3.78-4.01-3.86-5.4-.69-6.18,8.49-15.98,24.47-19.3,1.78-3.24,4.25-5.09,6.18-4.63,1.54,.31,2.24,2.01,3.09,3.86,1.39,3.09,.69,4.55,.85,9.26,0,1,.77,3.32,.77,3.86,1.54,3.63,3.09,7.18,4.71,10.81,0-2.01,.23-5.09,1.54-8.49,.46-1.24,2.86-7.26,9.19-11.66,1.31-.85,9.49-6.33,19.3-3.94,1.7,.46,6.72,1.7,10.04,6.1,.93,1.31,2.47,3.4,2.24,6.18Z"/>
      <path class="cls-19" d="M125.15,50.94c-.08,.23-.15,.54-.31,.85-.31,.77-1.24,1-1.93,.62l-.08-.08-2.39-1.54-10.73-6.79c-.46-.31-.46-1,0-1.31,1.62-1.16,3.63-1.78,6.18-1.85,.62,0,1.16,0,1.7,.08,.93,.08,1.85-.46,2.16-1.39,.85-2.32,1.62-6.1,2.16-4.86,.31,.77,.31,3.47,.08,6.1-.08,.77,.15,1.47,.77,2.01l-.93,.62c-.46,.39-.85,.69-1.24,1-.85,.69-1.31,1.7-1.31,2.78,0,.46,.08,.85,.23,1.31,.46,1.16,1.54,2.01,2.78,2.16,0,0,2.86,.31,2.86,.31Z"/>
    </g>
    <g id="Layer_1-2-7" data-name="Layer 1-2">
      <path class="cls-22" d="M26.72,129.05c-.77-.46-1.85-.15-2.24,.69-.62,1.31-.93,2.78-.93,4.48,0,5.48-11.12,17.91-5.09,17.91,4.17,0,16.44-8.57,20.76-13.43,.62-.62,.46-1.7-.31-2.08,0-.15-12.2-7.56-12.2-7.56h0Z"/>
      <path class="cls-10" d="M116.65,100.42c-.31,3.16-2.78,5.25-3.86,6.18-1.31,1.16-2.32,1.54-3.86,2.32-3.78,1.93-7.1,4.25-8.49,5.48-3.16,2.78-3.24,6.41-4.55,13.12-1.7,8.65-5.02,16.52-8.8,21.23-6.18,7.72-8.72,9.26-16.52,12.81-9.88,4.48-14.67,5.48-25.86,7.41-.15,0-5.4,.77-6.95,0-.46-.23-1.62-.77-2.08-2.01-.08-.15-.31-.85-.23-1.85,.08-.77,.39-1.78,3.47-5.02,1.39-1.47,3.24-3.24,3.86-3.86,.08-.08,.46-.39,.93-.85,.31-.31,.54-.54,.62-.69-.62-1.16-1.08-2.39-1.54-3.86-2.01-6.33-1-12.12-.08-15.44l-1.24-.08-2.86-.31c-1.24-.15-2.32-1-2.78-2.16-.15-.39-.23-.85-.23-1.31,0-1.08,.46-2.08,1.31-2.78,.39-.23,.77-.62,1.24-1l.93-.62,7.56-4.86c.62-.39,1.39-1.16,1.54-1.54-.54-.39-2.08-.93-3.09-1.54-4.55-2.86-5.33-4.01-6.95-5.4-2.93-2.47-3.78-4.01-3.86-5.4-.69-6.18,8.49-15.98,24.47-19.3,1.78-3.24,4.25-5.09,6.18-4.63,1.54,.31,2.24,2.01,3.09,3.86,1.39,3.09,.69,4.55,.85,9.26,0,1,.77,3.32,.77,3.86,1.54,3.63,3.09,7.18,4.71,10.81,0-2.01,.23-5.09,1.54-8.49,.46-1.24,2.86-7.26,9.19-11.66,1.31-.85,9.49-6.33,19.3-3.94,1.7,.46,6.72,1.7,10.04,6.1,.93,1.31,2.47,3.4,2.24,6.18Z"/>
      <path class="cls-22" d="M41.46,135.31c-.08,.23-.15,.54-.31,.85-.31,.77-1.24,1-1.93,.62l-.08-.08-2.39-1.54-10.73-6.79c-.46-.31-.46-1,0-1.31,1.62-1.16,3.63-1.78,6.18-1.85,.62,0,1.16,0,1.7,.08,.93,.08,1.85-.46,2.16-1.39,.85-2.32,1.62-6.1,2.16-4.86,.31,.77,.31,3.47,.08,6.1-.08,.77,.15,1.47,.77,2.01l-.93,.62c-.46,.39-.85,.69-1.24,1-.85,.69-1.31,1.7-1.31,2.78,0,.46,.08,.85,.23,1.31,.46,1.16,1.54,2.01,2.78,2.16,0,0,2.86,.31,2.86,.31Z"/>
    </g>
    <g id="Layer_1-2-8" data-name="Layer 1-2">
      <path class="cls-14" d="M33.43,312.07c-.77-.46-1.85-.15-2.24,.69-.62,1.31-.93,2.78-.93,4.48,0,5.48-11.12,17.91-5.09,17.91,4.17,0,16.44-8.57,20.76-13.43,.62-.62,.46-1.7-.31-2.08,0-.15-12.2-7.56-12.2-7.56h0Z"/>
      <path class="cls-11" d="M123.35,283.44c-.31,3.16-2.78,5.25-3.86,6.18-1.31,1.16-2.32,1.54-3.86,2.32-3.78,1.93-7.1,4.25-8.49,5.48-3.16,2.78-3.24,6.41-4.55,13.12-1.7,8.65-5.02,16.52-8.8,21.23-6.18,7.72-8.72,9.26-16.52,12.81-9.88,4.48-14.67,5.48-25.86,7.41-.15,0-5.4,.77-6.95,0-.46-.23-1.62-.77-2.08-2.01-.08-.15-.31-.85-.23-1.85,.08-.77,.39-1.78,3.47-5.02,1.39-1.47,3.24-3.24,3.86-3.86,.08-.08,.46-.39,.93-.85,.31-.31,.54-.54,.62-.69-.62-1.16-1.08-2.39-1.54-3.86-2.01-6.33-1-12.12-.08-15.44l-1.24-.08-2.86-.31c-1.24-.15-2.32-1-2.78-2.16-.15-.39-.23-.85-.23-1.31,0-1.08,.46-2.08,1.31-2.78,.39-.23,.77-.62,1.24-1l.93-.62,7.56-4.86c.62-.39,1.39-1.16,1.54-1.54-.54-.39-2.08-.93-3.09-1.54-4.55-2.86-5.33-4.01-6.95-5.4-2.93-2.47-3.78-4.01-3.86-5.4-.69-6.18,8.49-15.98,24.47-19.3,1.78-3.24,4.25-5.09,6.18-4.63,1.54,.31,2.24,2.01,3.09,3.86,1.39,3.09,.69,4.55,.85,9.26,0,1,.77,3.32,.77,3.86,1.54,3.63,3.09,7.18,4.71,10.81,0-2.01,.23-5.09,1.54-8.49,.46-1.24,2.86-7.26,9.19-11.66,1.31-.85,9.49-6.33,19.3-3.94,1.7,.46,6.72,1.7,10.04,6.1,.93,1.31,2.47,3.4,2.24,6.18Z"/>
      <path class="cls-14" d="M48.17,318.33c-.08,.23-.15,.54-.31,.85-.31,.77-1.24,1-1.93,.62l-.08-.08-2.39-1.54-10.73-6.79c-.46-.31-.46-1,0-1.31,1.62-1.16,3.63-1.78,6.18-1.85,.62,0,1.16,0,1.7,.08,.93,.08,1.85-.46,2.16-1.39,.85-2.32,1.62-6.1,2.16-4.86,.31,.77,.31,3.47,.08,6.1-.08,.77,.15,1.47,.77,2.01l-.93,.62c-.46,.39-.85,.69-1.24,1-.85,.69-1.31,1.7-1.31,2.78,0,.46,.08,.85,.23,1.31,.46,1.16,1.54,2.01,2.78,2.16,0,0,2.86,.31,2.86,.31Z"/>
    </g>
    <g id="Layer_1-2-9" data-name="Layer 1-2">
      <path class="cls-16" d="M118.05,368.97c-.39-.24-.95-.08-1.14,.35-.32,.67-.47,1.42-.47,2.29,0,2.8-5.68,9.15-2.6,9.15,2.13,0,8.4-4.38,10.61-6.86,.32-.32,.24-.87-.16-1.06,0-.08-6.23-3.87-6.23-3.87h0Z"/>
      <path class="cls-4" d="M164,354.34c-.16,1.62-1.42,2.68-1.97,3.16-.67,.59-1.18,.79-1.97,1.18-1.93,.99-3.63,2.17-4.34,2.8-1.62,1.42-1.66,3.27-2.33,6.71-.87,4.42-2.56,8.44-4.5,10.85-3.16,3.94-4.46,4.73-8.44,6.55-5.05,2.29-7.49,2.8-13.21,3.79-.08,0-2.76,.39-3.55,0-.24-.12-.83-.39-1.06-1.03-.04-.08-.16-.43-.12-.95,.04-.39,.2-.91,1.77-2.56,.71-.75,1.66-1.66,1.97-1.97,.04-.04,.24-.2,.47-.43,.16-.16,.28-.28,.32-.35-.32-.59-.55-1.22-.79-1.97-1.03-3.23-.51-6.19-.04-7.89l-.63-.04-1.46-.16c-.63-.08-1.18-.51-1.42-1.1-.08-.2-.12-.43-.12-.67,0-.55,.24-1.06,.67-1.42,.2-.12,.39-.32,.63-.51l.47-.32,3.87-2.48c.32-.2,.71-.59,.79-.79-.28-.2-1.06-.47-1.58-.79-2.33-1.46-2.72-2.05-3.55-2.76-1.5-1.26-1.93-2.05-1.97-2.76-.35-3.16,4.34-8.16,12.5-9.86,.91-1.66,2.17-2.6,3.16-2.37,.79,.16,1.14,1.03,1.58,1.97,.71,1.58,.35,2.33,.43,4.73,0,.51,.39,1.7,.39,1.97,.79,1.85,1.58,3.67,2.41,5.52,0-1.03,.12-2.6,.79-4.34,.24-.63,1.46-3.71,4.69-5.96,.67-.43,4.85-3.23,9.86-2.01,.87,.24,3.43,.87,5.13,3.12,.47,.67,1.26,1.74,1.14,3.16Z"/>
      <path class="cls-16" d="M125.58,372.17c-.04,.12-.08,.28-.16,.43-.16,.39-.63,.51-.99,.32l-.04-.04-1.22-.79-5.48-3.47c-.24-.16-.24-.51,0-.67,.83-.59,1.85-.91,3.16-.95,.32,0,.59,0,.87,.04,.47,.04,.95-.24,1.1-.71,.43-1.18,.83-3.12,1.1-2.48,.16,.39,.16,1.77,.04,3.12-.04,.39,.08,.75,.39,1.03l-.47,.32c-.24,.2-.43,.35-.63,.51-.43,.35-.67,.87-.67,1.42,0,.24,.04,.43,.12,.67,.24,.59,.79,1.03,1.42,1.1,0,0,1.46,.16,1.46,.16Z"/>
    </g>
    <g id="Layer_1-2-10" data-name="Layer 1-2">
      <path class="cls-15" d="M210.74,399.34c-.39-.24-.95-.08-1.14,.35-.32,.67-.47,1.42-.47,2.29,0,2.8-5.68,9.15-2.6,9.15,2.13,0,8.4-4.38,10.61-6.86,.32-.32,.24-.87-.16-1.06,0-.08-6.23-3.86-6.23-3.86h0Z"/>
      <path class="cls-5" d="M256.69,384.71c-.16,1.62-1.42,2.68-1.97,3.16-.67,.59-1.18,.79-1.97,1.18-1.93,.99-3.63,2.17-4.34,2.8-1.62,1.42-1.66,3.27-2.33,6.7-.87,4.42-2.56,8.44-4.5,10.85-3.16,3.94-4.46,4.73-8.44,6.55-5.05,2.29-7.49,2.8-13.21,3.79-.08,0-2.76,.39-3.55,0-.24-.12-.83-.39-1.06-1.03-.04-.08-.16-.43-.12-.95,.04-.39,.2-.91,1.77-2.56,.71-.75,1.66-1.66,1.97-1.97,.04-.04,.24-.2,.47-.43,.16-.16,.28-.28,.32-.35-.32-.59-.55-1.22-.79-1.97-1.03-3.23-.51-6.19-.04-7.89l-.63-.04-1.46-.16c-.63-.08-1.18-.51-1.42-1.1-.08-.2-.12-.43-.12-.67,0-.55,.24-1.06,.67-1.42,.2-.12,.39-.32,.63-.51l.47-.32,3.86-2.48c.32-.2,.71-.59,.79-.79-.28-.2-1.06-.47-1.58-.79-2.33-1.46-2.72-2.05-3.55-2.76-1.5-1.26-1.93-2.05-1.97-2.76-.35-3.16,4.34-8.16,12.5-9.86,.91-1.66,2.17-2.6,3.16-2.37,.79,.16,1.14,1.03,1.58,1.97,.71,1.58,.35,2.33,.43,4.73,0,.51,.39,1.7,.39,1.97,.79,1.85,1.58,3.67,2.41,5.52,0-1.03,.12-2.6,.79-4.34,.24-.63,1.46-3.71,4.69-5.96,.67-.43,4.85-3.23,9.86-2.01,.87,.24,3.43,.87,5.13,3.12,.47,.67,1.26,1.74,1.14,3.16Z"/>
      <path class="cls-15" d="M218.28,402.54c-.04,.12-.08,.28-.16,.43-.16,.39-.63,.51-.99,.32l-.04-.04-1.22-.79-5.48-3.47c-.24-.16-.24-.51,0-.67,.83-.59,1.85-.91,3.16-.95,.32,0,.59,0,.87,.04,.47,.04,.95-.24,1.1-.71,.43-1.18,.83-3.12,1.1-2.48,.16,.39,.16,1.77,.04,3.12-.04,.39,.08,.75,.39,1.03l-.47,.32c-.24,.2-.43,.35-.63,.51-.43,.35-.67,.87-.67,1.42,0,.24,.04,.43,.12,.67,.24,.59,.79,1.03,1.42,1.1,0,0,1.46,.16,1.46,.16Z"/>
    </g>
    <g id="Layer_1-2-11" data-name="Layer 1-2">
      <path class="cls-21" d="M304.22,375.68c-.39-.24-.95-.08-1.14,.35-.32,.67-.47,1.42-.47,2.29,0,2.8-5.68,9.15-2.6,9.15,2.13,0,8.4-4.38,10.61-6.86,.32-.32,.24-.87-.16-1.06,0-.08-6.23-3.87-6.23-3.87h0Z"/>
      <path class="cls-13" d="M350.17,361.04c-.16,1.62-1.42,2.68-1.97,3.16-.67,.59-1.18,.79-1.97,1.18-1.93,.99-3.63,2.17-4.34,2.8-1.62,1.42-1.66,3.27-2.33,6.71-.87,4.42-2.56,8.44-4.5,10.85-3.16,3.94-4.46,4.73-8.44,6.55-5.05,2.29-7.49,2.8-13.21,3.79-.08,0-2.76,.39-3.55,0-.24-.12-.83-.39-1.06-1.03-.04-.08-.16-.43-.12-.95,.04-.39,.2-.91,1.77-2.56,.71-.75,1.66-1.66,1.97-1.97,.04-.04,.24-.2,.47-.43,.16-.16,.28-.28,.32-.35-.32-.59-.55-1.22-.79-1.97-1.03-3.23-.51-6.19-.04-7.89l-.63-.04-1.46-.16c-.63-.08-1.18-.51-1.42-1.1-.08-.2-.12-.43-.12-.67,0-.55,.24-1.06,.67-1.42,.2-.12,.39-.32,.63-.51l.47-.32,3.87-2.48c.32-.2,.71-.59,.79-.79-.28-.2-1.06-.47-1.58-.79-2.33-1.46-2.72-2.05-3.55-2.76-1.5-1.26-1.93-2.05-1.97-2.76-.35-3.16,4.34-8.16,12.5-9.86,.91-1.66,2.17-2.6,3.16-2.37,.79,.16,1.14,1.03,1.58,1.97,.71,1.58,.35,2.33,.43,4.73,0,.51,.39,1.7,.39,1.97,.79,1.85,1.58,3.67,2.41,5.52,0-1.03,.12-2.6,.79-4.34,.24-.63,1.46-3.71,4.69-5.96,.67-.43,4.85-3.23,9.86-2.01,.87,.24,3.43,.87,5.13,3.12,.47,.67,1.26,1.74,1.14,3.16Z"/>
      <path class="cls-21" d="M311.76,378.87c-.04,.12-.08,.28-.16,.43-.16,.39-.63,.51-.99,.32l-.04-.04-1.22-.79-5.48-3.47c-.24-.16-.24-.51,0-.67,.83-.59,1.85-.91,3.16-.95,.32,0,.59,0,.87,.04,.47,.04,.95-.24,1.1-.71,.43-1.18,.83-3.12,1.1-2.48,.16,.39,.16,1.77,.04,3.12-.04,.39,.08,.75,.39,1.03l-.47,.32c-.24,.2-.43,.35-.63,.51-.43,.35-.67,.87-.67,1.42,0,.24,.04,.43,.12,.67,.24,.59,.79,1.03,1.42,1.1,0,0,1.46,.16,1.46,.16Z"/>
    </g>
    <g id="Layer_1-2-12" data-name="Layer 1-2">
      <path class="cls-17" d="M376.4,309.81c-.39-.24-.95-.08-1.14,.35-.32,.67-.47,1.42-.47,2.29,0,2.8-5.68,9.15-2.6,9.15,2.13,0,8.4-4.38,10.61-6.86,.32-.32,.24-.87-.16-1.06,0-.08-6.23-3.87-6.23-3.87h0Z"/>
      <path class="cls-9" d="M422.36,295.17c-.16,1.62-1.42,2.68-1.97,3.16-.67,.59-1.18,.79-1.97,1.18-1.93,.99-3.63,2.17-4.34,2.8-1.62,1.42-1.66,3.27-2.33,6.71-.87,4.42-2.56,8.44-4.5,10.85-3.16,3.94-4.46,4.73-8.44,6.55-5.05,2.29-7.49,2.8-13.21,3.79-.08,0-2.76,.39-3.55,0-.24-.12-.83-.39-1.06-1.03-.04-.08-.16-.43-.12-.95,.04-.39,.2-.91,1.77-2.56,.71-.75,1.66-1.66,1.97-1.97,.04-.04,.24-.2,.47-.43,.16-.16,.28-.28,.32-.35-.32-.59-.55-1.22-.79-1.97-1.03-3.23-.51-6.19-.04-7.89l-.63-.04-1.46-.16c-.63-.08-1.18-.51-1.42-1.1-.08-.2-.12-.43-.12-.67,0-.55,.24-1.06,.67-1.42,.2-.12,.39-.32,.63-.51l.47-.32,3.87-2.48c.32-.2,.71-.59,.79-.79-.28-.2-1.06-.47-1.58-.79-2.33-1.46-2.72-2.05-3.55-2.76-1.5-1.26-1.93-2.05-1.97-2.76-.35-3.16,4.34-8.16,12.5-9.86,.91-1.66,2.17-2.6,3.16-2.37,.79,.16,1.14,1.03,1.58,1.97,.71,1.58,.35,2.33,.43,4.73,0,.51,.39,1.7,.39,1.97,.79,1.85,1.58,3.67,2.41,5.52,0-1.03,.12-2.6,.79-4.34,.24-.63,1.46-3.71,4.69-5.96,.67-.43,4.85-3.23,9.86-2.01,.87,.24,3.43,.87,5.13,3.12,.47,.67,1.26,1.74,1.14,3.16Z"/>
      <path class="cls-17" d="M383.94,313c-.04,.12-.08,.28-.16,.43-.16,.39-.63,.51-.99,.32l-.04-.04-1.22-.79-5.48-3.47c-.24-.16-.24-.51,0-.67,.83-.59,1.85-.91,3.16-.95,.32,0,.59,0,.87,.04,.47,.04,.95-.24,1.1-.71,.43-1.18,.83-3.12,1.1-2.48,.16,.39,.16,1.77,.04,3.12-.04,.39,.08,.75,.39,1.03l-.47,.32c-.24,.2-.43,.35-.63,.51-.43,.35-.67,.87-.67,1.42,0,.24,.04,.43,.12,.67,.24,.59,.79,1.03,1.42,1.1,0,0,1.46,.16,1.46,.16Z"/>
    </g>
    <g>
      <path class="cls-12" d="M150.16,208.32h-1.63c-.93,0-1.64,.15-2.14,.44s-.76,.73-.76,1.32c0,.46,.15,.84,.46,1.16,.31,.32,.76,.47,1.35,.47,.5,0,.94-.11,1.32-.32s.68-.47,.91-.78,.34-.61,.36-.9l.7,.78c-.04,.25-.15,.52-.33,.82s-.42,.58-.72,.86c-.3,.27-.66,.5-1.07,.68-.41,.18-.88,.27-1.39,.27-.64,0-1.21-.12-1.69-.37-.48-.25-.86-.59-1.12-1.02s-.4-.9-.4-1.42c0-1.03,.39-1.8,1.16-2.33,.77-.53,1.81-.79,3.12-.79h1.88l.02,1.14Zm-.3-1.9c0-.57-.17-1.02-.51-1.36s-.83-.51-1.49-.51c-.4,0-.76,.07-1.07,.21-.31,.14-.55,.33-.72,.55s-.25,.48-.25,.75h-1.64c0-.46,.16-.9,.47-1.33,.31-.43,.75-.78,1.31-1.06s1.23-.42,2-.42c.69,0,1.3,.12,1.84,.35s.95,.59,1.25,1.06c.3,.47,.45,1.06,.45,1.77v4.43c0,.32,.03,.65,.08,1.01s.14,.67,.25,.92v.14h-1.71c-.08-.19-.15-.44-.19-.75-.05-.31-.07-.6-.07-.87v-4.9Z"/>
      <path class="cls-12" d="M155.7,212.94h-1.64v-9.51h1.56l.09,2.03v7.48Zm-1.07-5.15c.01-.87,.18-1.64,.5-2.32s.77-1.22,1.35-1.62c.58-.4,1.25-.59,2.02-.59,.63,0,1.17,.12,1.62,.35,.45,.23,.8,.6,1.05,1.1,.25,.5,.37,1.17,.37,2v6.23h-1.64v-6.25c0-.5-.07-.9-.22-1.2s-.36-.53-.64-.66c-.28-.14-.63-.21-1.04-.21s-.77,.08-1.1,.25-.61,.4-.85,.7-.42,.64-.55,1.02c-.13,.38-.19,.79-.19,1.22l-.69-.03Z"/>
      <path class="cls-12" d="M169.91,208.32h-1.63c-.93,0-1.64,.15-2.14,.44s-.76,.73-.76,1.32c0,.46,.15,.84,.46,1.16,.31,.32,.76,.47,1.35,.47,.5,0,.94-.11,1.32-.32s.68-.47,.91-.78,.34-.61,.36-.9l.7,.78c-.04,.25-.15,.52-.33,.82s-.42,.58-.72,.86c-.3,.27-.66,.5-1.07,.68-.41,.18-.88,.27-1.39,.27-.64,0-1.21-.12-1.69-.37-.48-.25-.86-.59-1.12-1.02s-.4-.9-.4-1.42c0-1.03,.39-1.8,1.16-2.33,.77-.53,1.81-.79,3.12-.79h1.88l.02,1.14Zm-.3-1.9c0-.57-.17-1.02-.51-1.36s-.83-.51-1.49-.51c-.4,0-.76,.07-1.07,.21-.31,.14-.55,.33-.72,.55s-.25,.48-.25,.75h-1.64c0-.46,.16-.9,.47-1.33,.31-.43,.75-.78,1.31-1.06s1.23-.42,2-.42c.69,0,1.3,.12,1.84,.35s.95,.59,1.25,1.06c.3,.47,.45,1.06,.45,1.77v4.43c0,.32,.03,.65,.08,1.01s.14,.67,.25,.92v.14h-1.71c-.08-.19-.15-.44-.19-.75-.05-.31-.07-.6-.07-.87v-4.9Z"/>
      <path class="cls-12" d="M175.58,212.94h-1.64v-13.5h1.64v13.5Z"/>
      <path class="cls-12" d="M177.75,208.09c0-.92,.18-1.74,.53-2.47s.85-1.3,1.49-1.73c.64-.42,1.41-.64,2.29-.64s1.67,.21,2.32,.64c.65,.43,1.15,1,1.5,1.73,.35,.73,.52,1.55,.52,2.47v.2c0,.91-.17,1.74-.52,2.47-.35,.73-.85,1.3-1.49,1.73-.65,.42-1.42,.63-2.31,.63s-1.66-.21-2.31-.63-1.15-1-1.5-1.73c-.35-.73-.53-1.55-.53-2.47v-.2Zm1.64,.2c0,.63,.1,1.21,.3,1.74s.5,.96,.89,1.28c.4,.32,.9,.48,1.5,.48s1.09-.16,1.49-.48c.4-.32,.69-.75,.89-1.28s.3-1.11,.3-1.74v-.2c0-.63-.1-1.21-.3-1.74s-.5-.96-.9-1.29c-.4-.33-.9-.49-1.5-.49s-1.09,.16-1.49,.49c-.4,.32-.7,.75-.89,1.29s-.29,1.11-.29,1.74v.2Z"/>
      <path class="cls-12" d="M188.06,208.11c0-.97,.15-1.81,.46-2.54,.3-.73,.74-1.3,1.3-1.7s1.23-.61,2-.61c.6,0,1.12,.1,1.57,.31,.45,.21,.83,.51,1.14,.9s.56,.87,.75,1.42c.18,.56,.31,1.18,.38,1.88v.85c-.09,.92-.28,1.72-.58,2.39-.3,.67-.72,1.19-1.26,1.56s-1.21,.55-2.01,.55-1.42-.21-1.98-.63c-.56-.42-.99-.99-1.3-1.72-.31-.73-.46-1.55-.46-2.48v-.18Zm8.04-4.68v9.31c0,.84-.17,1.55-.51,2.14-.34,.59-.82,1.04-1.42,1.35-.61,.31-1.3,.46-2.1,.46-.33,0-.71-.05-1.16-.15-.44-.1-.88-.28-1.3-.52s-.78-.57-1.07-.98l.85-.96c.4,.48,.82,.82,1.25,1.01s.87,.29,1.3,.29c.77,0,1.38-.22,1.83-.66s.68-1.07,.68-1.9v-7.29l.15-2.09h1.49Zm-6.4,4.86c0,.63,.09,1.21,.26,1.73s.44,.94,.81,1.25c.37,.31,.85,.47,1.43,.47,.54,0,.98-.11,1.33-.34s.62-.53,.83-.91,.38-.78,.49-1.22v-2.14c-.07-.32-.17-.63-.3-.94s-.3-.57-.51-.81c-.21-.24-.47-.43-.77-.57s-.65-.21-1.06-.21c-.59,0-1.07,.16-1.45,.47-.37,.32-.65,.74-.82,1.27s-.26,1.11-.26,1.74v.18Z"/>
      <path class="cls-12" d="M198.14,208.09c0-.92,.18-1.74,.53-2.47s.85-1.3,1.49-1.73c.64-.42,1.41-.64,2.29-.64s1.67,.21,2.32,.64c.65,.43,1.15,1,1.5,1.73,.35,.73,.52,1.55,.52,2.47v.2c0,.91-.17,1.74-.52,2.47-.35,.73-.85,1.3-1.49,1.73-.65,.42-1.42,.63-2.31,.63s-1.66-.21-2.31-.63-1.15-1-1.5-1.73c-.35-.73-.53-1.55-.53-2.47v-.2Zm1.64,.2c0,.63,.1,1.21,.3,1.74s.5,.96,.89,1.28c.4,.32,.9,.48,1.5,.48s1.09-.16,1.49-.48c.4-.32,.69-.75,.89-1.28s.3-1.11,.3-1.74v-.2c0-.63-.1-1.21-.3-1.74s-.5-.96-.9-1.29c-.4-.33-.9-.49-1.5-.49s-1.09,.16-1.49,.49c-.4,.32-.7,.75-.89,1.29s-.29,1.11-.29,1.74v.2Z"/>
      <path class="cls-12" d="M215.64,208.72c0,.84-.12,1.6-.36,2.26s-.63,1.18-1.18,1.56-1.27,.57-2.19,.57-1.68-.28-2.26-.83-.86-1.46-.86-2.72v-6.13h1.64v6.15c0,.57,.08,1.02,.25,1.33,.17,.31,.38,.53,.65,.65,.27,.12,.55,.18,.84,.18,.69,0,1.24-.13,1.64-.4,.4-.27,.69-.63,.87-1.08s.26-.96,.26-1.52l.69-.02Zm-.99-5.29h1.64v9.51h-1.56l-.08-2.2v-7.31Z"/>
      <path class="cls-12" d="M224.29,210.42c0-.23-.05-.45-.15-.66-.1-.2-.31-.39-.62-.55-.31-.17-.78-.32-1.41-.44-.7-.15-1.31-.33-1.82-.56s-.91-.51-1.19-.87c-.28-.35-.42-.79-.42-1.31s.14-.96,.44-1.38c.29-.42,.7-.76,1.23-1.01,.53-.26,1.15-.38,1.86-.38,.76,0,1.41,.13,1.96,.4,.54,.27,.96,.62,1.24,1.07,.29,.45,.43,.94,.43,1.49h-1.64c0-.39-.17-.76-.51-1.12-.34-.35-.83-.53-1.47-.53-.45,0-.81,.07-1.08,.21-.28,.14-.48,.31-.61,.53s-.19,.44-.19,.67,.06,.44,.18,.61,.33,.33,.65,.46,.77,.27,1.37,.4c.78,.18,1.42,.39,1.92,.63s.88,.55,1.12,.91,.37,.79,.37,1.31c0,.55-.15,1.04-.46,1.46-.3,.43-.73,.76-1.28,.99-.55,.24-1.2,.36-1.94,.36-.84,0-1.55-.15-2.13-.45s-1.02-.68-1.32-1.16-.45-.97-.45-1.5h1.64c.03,.45,.16,.8,.39,1.06s.52,.45,.85,.56c.34,.11,.67,.17,1.01,.17,.45,0,.82-.06,1.12-.18,.3-.12,.53-.28,.69-.49,.15-.21,.23-.44,.23-.71Z"/>
      <path class="cls-12" d="M236.32,211.8c.39,0,.74-.08,1.07-.24,.33-.16,.6-.38,.81-.66s.33-.6,.36-.96h1.56c-.03,.56-.22,1.09-.57,1.57-.35,.48-.81,.87-1.37,1.17-.56,.29-1.18,.44-1.85,.44-.96,0-1.75-.22-2.37-.65s-1.09-1.02-1.4-1.74c-.31-.72-.46-1.51-.46-2.36v-.37c0-.86,.16-1.64,.47-2.36s.78-1.29,1.41-1.73c.63-.44,1.42-.65,2.36-.65,.74,0,1.4,.15,1.96,.45s1,.71,1.32,1.23c.32,.52,.49,1.11,.52,1.76h-1.56c-.03-.39-.14-.75-.33-1.07-.19-.32-.45-.58-.77-.77-.33-.19-.71-.29-1.14-.29-.66,0-1.18,.17-1.56,.51-.38,.34-.64,.77-.8,1.3-.16,.52-.23,1.06-.23,1.62v.37c0,.56,.08,1.1,.23,1.63s.42,.96,.8,1.3c.38,.34,.9,.51,1.57,.51Z"/>
      <path class="cls-12" d="M241.52,208.09c0-.92,.18-1.74,.53-2.47s.85-1.3,1.49-1.73c.64-.42,1.41-.64,2.29-.64s1.67,.21,2.32,.64c.65,.43,1.15,1,1.5,1.73,.35,.73,.52,1.55,.52,2.47v.2c0,.91-.17,1.74-.52,2.47-.35,.73-.85,1.3-1.49,1.73-.65,.42-1.42,.63-2.31,.63s-1.66-.21-2.31-.63-1.15-1-1.5-1.73c-.35-.73-.53-1.55-.53-2.47v-.2Zm1.64,.2c0,.63,.1,1.21,.3,1.74s.5,.96,.89,1.28c.4,.32,.9,.48,1.5,.48s1.09-.16,1.49-.48c.4-.32,.69-.75,.89-1.28s.3-1.11,.3-1.74v-.2c0-.63-.1-1.21-.3-1.74s-.5-.96-.9-1.29c-.4-.33-.9-.49-1.5-.49s-1.09,.16-1.49,.49c-.4,.32-.7,.75-.89,1.29s-.29,1.11-.29,1.74v.2Z"/>
      <path class="cls-12" d="M254,212.94h-1.64v-13.5h1.64v13.5Z"/>
      <path class="cls-12" d="M256.17,208.09c0-.92,.18-1.74,.53-2.47s.85-1.3,1.49-1.73c.64-.42,1.41-.64,2.29-.64s1.67,.21,2.32,.64c.65,.43,1.15,1,1.5,1.73,.35,.73,.52,1.55,.52,2.47v.2c0,.91-.17,1.74-.52,2.47-.35,.73-.85,1.3-1.49,1.73-.65,.42-1.42,.63-2.31,.63s-1.66-.21-2.31-.63-1.15-1-1.5-1.73c-.35-.73-.53-1.55-.53-2.47v-.2Zm1.64,.2c0,.63,.1,1.21,.3,1.74s.5,.96,.89,1.28c.4,.32,.9,.48,1.5,.48s1.09-.16,1.49-.48c.4-.32,.69-.75,.89-1.28s.3-1.11,.3-1.74v-.2c0-.63-.1-1.21-.3-1.74s-.5-.96-.9-1.29c-.4-.33-.9-.49-1.5-.49s-1.09,.16-1.49,.49c-.4,.32-.7,.75-.89,1.29s-.29,1.11-.29,1.74v.2Z"/>
      <path class="cls-12" d="M273.68,208.72c0,.84-.12,1.6-.36,2.26s-.63,1.18-1.18,1.56-1.27,.57-2.19,.57-1.68-.28-2.26-.83-.86-1.46-.86-2.72v-6.13h1.64v6.15c0,.57,.08,1.02,.25,1.33,.17,.31,.38,.53,.65,.65,.27,.12,.55,.18,.84,.18,.69,0,1.24-.13,1.64-.4,.4-.27,.69-.63,.87-1.08s.26-.96,.26-1.52l.69-.02Zm-.99-5.29h1.64v9.51h-1.56l-.08-2.2v-7.31Z"/>
      <path class="cls-12" d="M278.43,212.94h-1.64v-9.51h1.6l.04,1.49v8.02Zm2.96-8.06c-.14-.03-.27-.05-.39-.06-.12,0-.26-.01-.41-.01-.5,0-.92,.1-1.26,.31-.34,.21-.61,.49-.8,.85-.19,.36-.3,.77-.35,1.24l-.47,.26c0-.77,.1-1.47,.31-2.1s.53-1.15,.96-1.53,1-.58,1.68-.58c.11,0,.24,.01,.4,.04,.15,.03,.26,.05,.32,.08v1.5Z"/>
      <path class="cls-12" d="M292.89,210.42c0-.23-.05-.45-.15-.66-.1-.2-.31-.39-.62-.55-.31-.17-.78-.32-1.41-.44-.7-.15-1.31-.33-1.82-.56s-.91-.51-1.19-.87c-.28-.35-.42-.79-.42-1.31s.14-.96,.44-1.38c.29-.42,.7-.76,1.23-1.01,.53-.26,1.15-.38,1.86-.38,.76,0,1.41,.13,1.96,.4,.54,.27,.96,.62,1.24,1.07,.29,.45,.43,.94,.43,1.49h-1.64c0-.39-.17-.76-.51-1.12-.34-.35-.83-.53-1.47-.53-.45,0-.81,.07-1.08,.21-.28,.14-.48,.31-.61,.53s-.19,.44-.19,.67,.06,.44,.18,.61,.33,.33,.65,.46,.77,.27,1.37,.4c.78,.18,1.42,.39,1.92,.63s.88,.55,1.12,.91,.37,.79,.37,1.31c0,.55-.15,1.04-.46,1.46-.3,.43-.73,.76-1.28,.99-.55,.24-1.2,.36-1.94,.36-.84,0-1.55-.15-2.13-.45s-1.02-.68-1.32-1.16-.45-.97-.45-1.5h1.64c.03,.45,.16,.8,.39,1.06s.52,.45,.85,.56c.34,.11,.67,.17,1.01,.17,.45,0,.82-.06,1.12-.18,.3-.12,.53-.28,.69-.49,.15-.21,.23-.44,.23-.71Z"/>
      <path class="cls-12" d="M300.46,211.8c.39,0,.74-.08,1.07-.24,.33-.16,.6-.38,.81-.66s.33-.6,.36-.96h1.56c-.03,.56-.22,1.09-.57,1.57-.35,.48-.81,.87-1.37,1.17-.56,.29-1.18,.44-1.85,.44-.96,0-1.75-.22-2.37-.65s-1.09-1.02-1.4-1.74c-.31-.72-.46-1.51-.46-2.36v-.37c0-.86,.16-1.64,.47-2.36s.78-1.29,1.41-1.73c.63-.44,1.42-.65,2.36-.65,.74,0,1.4,.15,1.96,.45s1,.71,1.32,1.23c.32,.52,.49,1.11,.52,1.76h-1.56c-.03-.39-.14-.75-.33-1.07-.19-.32-.45-.58-.77-.77-.33-.19-.71-.29-1.14-.29-.66,0-1.18,.17-1.56,.51-.38,.34-.64,.77-.8,1.3-.16,.52-.23,1.06-.23,1.62v.37c0,.56,.08,1.1,.23,1.63s.42,.96,.8,1.3c.38,.34,.9,.51,1.57,.51Z"/>
      <path class="cls-12" d="M307.72,212.94h-1.64v-13.5h1.64v13.5Zm-1.07-5.15c.01-.87,.18-1.64,.5-2.32s.77-1.22,1.35-1.62c.58-.4,1.25-.59,2.02-.59,.63,0,1.17,.12,1.62,.35,.45,.23,.8,.6,1.05,1.1,.25,.5,.37,1.17,.37,2v6.23h-1.64v-6.25c0-.5-.07-.9-.22-1.2s-.36-.53-.64-.66c-.28-.14-.63-.21-1.04-.21s-.77,.08-1.1,.25-.61,.4-.85,.7-.42,.64-.55,1.02c-.13,.38-.19,.79-.19,1.22l-.69-.03Z"/>
      <path class="cls-12" d="M319.94,213.12c-.88,0-1.65-.2-2.31-.59-.65-.39-1.16-.94-1.52-1.63-.36-.69-.54-1.48-.54-2.37v-.38c0-1.03,.2-1.91,.59-2.64,.4-.73,.91-1.29,1.55-1.67s1.31-.58,2.02-.58c.91,0,1.66,.2,2.24,.61s1,.96,1.28,1.66c.27,.7,.41,1.49,.41,2.38v.73h-7.1v-1.32h5.46v-.12c-.02-.42-.11-.83-.25-1.23s-.38-.73-.7-.99c-.32-.26-.76-.39-1.32-.39-.49,0-.93,.14-1.3,.42-.38,.28-.67,.68-.89,1.21s-.32,1.18-.32,1.94v.38c0,.6,.11,1.15,.33,1.65,.22,.5,.54,.89,.97,1.19s.93,.44,1.51,.44,1.06-.12,1.46-.35,.75-.55,1.05-.94l.99,.77c-.3,.47-.74,.89-1.31,1.27-.57,.38-1.33,.57-2.27,.57Z"/>
      <path class="cls-12" d="M327.18,212.94h-1.64v-9.51h1.56l.09,1.89v7.62Zm-1.1-5.15c0-.87,.15-1.64,.44-2.32,.29-.68,.72-1.22,1.29-1.62,.57-.4,1.28-.59,2.13-.59s1.63,.26,2.21,.78,.87,1.38,.87,2.57v6.34h-1.64v-6.26c0-.5-.08-.9-.25-1.2-.17-.3-.4-.52-.71-.66-.3-.14-.66-.21-1.07-.21-.47,0-.87,.08-1.19,.25-.32,.17-.58,.4-.77,.7s-.33,.64-.42,1.02c-.08,.38-.13,.79-.13,1.22l-.76-.03Zm5.83-.54c0-.69,.15-1.34,.44-1.95,.29-.61,.72-1.1,1.28-1.48,.56-.38,1.25-.57,2.06-.57,.68,0,1.26,.12,1.73,.36s.83,.61,1.08,1.12,.37,1.16,.37,1.96v6.25h-1.64v-6.27c0-.53-.08-.95-.25-1.25-.17-.3-.4-.51-.7-.63s-.66-.18-1.07-.18c-.36,0-.67,.06-.94,.18-.27,.12-.5,.29-.69,.51-.19,.21-.33,.46-.42,.73-.1,.28-.15,.57-.15,.88l-1.1,.33Z"/>
      <path class="cls-12" d="M345.27,213.12c-.88,0-1.65-.2-2.31-.59-.65-.39-1.16-.94-1.52-1.63-.36-.69-.54-1.48-.54-2.37v-.38c0-1.03,.2-1.91,.59-2.64,.4-.73,.91-1.29,1.55-1.67s1.31-.58,2.02-.58c.91,0,1.66,.2,2.24,.61s1,.96,1.28,1.66c.27,.7,.41,1.49,.41,2.38v.73h-7.1v-1.32h5.46v-.12c-.02-.42-.11-.83-.25-1.23s-.38-.73-.7-.99c-.32-.26-.76-.39-1.32-.39-.49,0-.93,.14-1.3,.42-.38,.28-.67,.68-.89,1.21s-.32,1.18-.32,1.94v.38c0,.6,.11,1.15,.33,1.65,.22,.5,.54,.89,.97,1.19s.93,.44,1.51,.44,1.06-.12,1.46-.35,.75-.55,1.05-.94l.99,.77c-.3,.47-.74,.89-1.31,1.27-.57,.38-1.33,.57-2.27,.57Z"/>
    </g>
  </g>
</svg>