<svg width="16" height="16" viewBox="0 0 16 16" fill="none" xmlns="http://www.w3.org/2000/svg">
<path d="M1.20898 9.0002H12.379L7.49898 13.8802C7.10898 14.2702 7.10898 14.9102 7.49898 15.3002C7.88898 15.6902 8.51898 15.6902 8.90898 15.3002L15.499 8.7102C15.889 8.3202 15.889 7.6902 15.499 7.3002L8.91898 0.7002C8.73215 0.512948 8.4785 0.407715 8.21398 0.407715C7.94947 0.407715 7.69582 0.512948 7.50898 0.7002C7.11898 1.0902 7.11898 1.7202 7.50898 2.1102L12.379 7.0002H1.20898C0.658984 7.0002 0.208984 7.4502 0.208984 8.0002C0.208984 8.5502 0.658984 9.0002 1.20898 9.0002Z" fill="#6D7D8B"/>
</svg>
