<?xml version="1.0" encoding="UTF-8"?>
<svg id="Layer_2" data-name="Layer 2" xmlns="http://www.w3.org/2000/svg" viewBox="0 0 783.41 436.39">
  <defs>
    <style>
      .cls-1 {
        fill: #565e73;
      }
    </style>
  </defs>
  <g id="Layer_1-2" data-name="Layer 1">
    <g>
      <path class="cls-1" d="M0,3.21H94.35c68.7,0,106.49,32.06,106.49,75.57,0,51.75-53.36,76.26-97.56,80.38,62.06,2.52,108.55,29.54,108.55,81.75s-44.88,82.9-102.82,82.9H0V3.21ZM93.66,156.87c27.94-4.35,61.14-25.42,61.14-75.57,0-45.57-27.02-72.82-73.97-72.82H46.95V156.87h46.72Zm21.3,161.68c30.92-8.7,48.32-33.66,48.32-73.97,0-70.08-53.13-82.44-79.46-82.44H46.95v156.41H114.96Z"/>
      <path class="cls-1" d="M259.91,3.21l43.28-3.21V323.81h-43.28V3.21Z"/>
      <path class="cls-1" d="M351.51,218.24c0-63.66,51.53-110.15,104.65-110.15s104.65,46.49,104.65,110.15-51.53,110.15-104.65,110.15-104.65-46.26-104.65-110.15Zm109.23,104.88c32.75-5.04,54.5-38.24,54.5-95.04,0-62.29-25.19-107.63-65.72-114.73-33.21,4.81-52.44,38.93-52.44,96.41,0,60.92,20.38,107.17,63.66,113.36Z"/>
      <path class="cls-1" d="M728.22,298.85c25.19,0,55.19,10.53,55.19,50.15,0,47.17-41.91,84.27-108.32,84.27-49.69,0-86.11-20.61-86.11-54.73,0-18.32,10.53-28.4,31.37-38.24-12.6-13.51-20.15-27.71-23.13-35.72,0-5.73,10.99-29.31,31.37-58.17-16.49-13.97-27.71-34.12-27.71-58.4,0-47.4,43.05-79.92,85.42-79.92,13.28,0,26.79,3.21,38.7,9.16,7.56-15.34,17.63-34.58,27.25-51.07l28.17,30c-15.57,8.93-40.76,19.69-50.84,23.36,24.04,13.51,42.14,37.79,42.14,68.47,0,47.4-43.28,79.69-85.42,79.69-19.01,0-38.47-6.64-53.82-18.09-5.5,9.39-9.39,20.84-11.22,29.54,.92,11.91,7.56,19.69,27.48,19.69h79.46Zm-102.82,42.82c-2.75,6.41-6.18,16.95-7.56,26.33,1.6,40.08,22.67,58.85,63.89,58.85s67.33-18.32,76.95-30c.69-4.35,1.37-16.72,1.37-21.98,0-33.21-16.72-33.21-30.23-33.21h-104.43Zm65.5-79.01c23.13-3.43,38.01-28.85,38.01-68.01s-14.43-77.17-47.4-81.3c-23.13,3.66-37.56,30-37.56,68.93s14.43,76.49,46.95,80.38Z"/>
    </g>
    <g>
      <path class="cls-1" d="M3.75,380.72h-1.5v-17.77h1.5v17.77Zm-.67,0l.03-1.27H7.11c1.27,0,2.37-.29,3.29-.86,.93-.57,1.64-1.37,2.15-2.39,.5-1.02,.76-2.2,.76-3.55v-1.66c0-1.38-.25-2.57-.76-3.58-.5-1.01-1.21-1.79-2.13-2.35-.92-.56-1.98-.84-3.2-.84H3.01v-1.28H7.22c1.48,0,2.79,.33,3.93,1,1.14,.67,2.03,1.61,2.68,2.81,.65,1.21,.97,2.63,.97,4.25v1.64c0,1.63-.32,3.04-.97,4.25-.65,1.21-1.55,2.15-2.7,2.81-1.16,.67-2.49,1-4.02,1H3.08Z"/>
      <path class="cls-1" d="M32.63,380.72h-1.5v-17.77h1.5v17.77Zm9.48-16.49h-9.94v-1.28h9.94v1.28Zm-1.18,7.97h-8.75v-1.28h8.75v1.28Zm1.25,8.52h-10v-1.27h10v1.27Z"/>
      <path class="cls-1" d="M59.18,362.94l.16,10v7.78h-1.49v-17.77h1.33Zm.65,0l6.57,15.69,6.58-15.69h1.5l-7.51,17.77h-1.15l-7.51-17.77h1.51Zm15.14,0v17.77h-1.5v-7.78l.17-10h1.33Z"/>
      <path class="cls-1" d="M97.19,372.64l5.43-9.69h1.73l-6.41,11.07v6.7h-1.51v-6.7l-6.41-11.07h1.78l5.38,9.69Z"/>
      <path class="cls-1" d="M129.31,376.35c0-.66-.15-1.22-.45-1.68s-.8-.88-1.51-1.24c-.71-.36-1.68-.72-2.9-1.07-.9-.24-1.7-.52-2.41-.82-.71-.3-1.32-.65-1.83-1.04-.51-.39-.9-.85-1.17-1.37-.27-.52-.4-1.14-.4-1.84,0-.92,.25-1.72,.76-2.41,.51-.69,1.21-1.22,2.11-1.6s1.93-.57,3.09-.57c1.25,0,2.32,.24,3.23,.71,.91,.47,1.62,1.11,2.11,1.91,.5,.8,.75,1.7,.75,2.69h-1.5c0-.77-.18-1.46-.54-2.07-.36-.61-.88-1.08-1.57-1.43-.68-.35-1.51-.52-2.48-.52s-1.8,.15-2.46,.45-1.16,.69-1.5,1.19-.5,1.04-.5,1.64c0,.56,.15,1.07,.45,1.52,.3,.45,.79,.86,1.49,1.23,.7,.37,1.64,.71,2.83,1.04,1.26,.33,2.33,.73,3.21,1.18,.88,.46,1.55,1.01,2.01,1.67s.69,1.47,.69,2.43-.26,1.79-.79,2.48c-.53,.7-1.25,1.23-2.17,1.6-.92,.37-1.97,.56-3.15,.56-.79,0-1.57-.1-2.36-.3s-1.5-.52-2.14-.95c-.65-.43-1.16-.98-1.55-1.65-.39-.67-.58-1.48-.58-2.42h1.5c0,.75,.15,1.38,.45,1.9,.3,.52,.7,.93,1.2,1.25,.5,.32,1.05,.55,1.65,.69,.6,.14,1.21,.21,1.82,.21,.94,0,1.75-.14,2.43-.42,.68-.28,1.22-.67,1.6-1.17,.38-.5,.57-1.08,.57-1.75Z"/>
      <path class="cls-1" d="M158.61,364.23h-13.66v-1.28h13.66v1.28Zm-6.09,16.49h-1.49v-17.77h1.49v17.77Z"/>
      <path class="cls-1" d="M175.82,380.72h-1.5v-17.77h1.5v17.77Z"/>
      <path class="cls-1" d="M194.66,380.72h-1.5v-17.77h1.5v17.77Zm9.51-16.49h-10.01v-1.28h10.01v1.28Zm-1.23,8.19h-8.78v-1.29h8.78v1.29Z"/>
      <path class="cls-1" d="M224.92,372.64l5.43-9.69h1.73l-6.41,11.07v6.7h-1.51v-6.7l-6.41-11.07h1.78l5.38,9.69Z"/>
      <path class="cls-1" d="M249.02,380.72h-1.5v-17.77h1.5v17.77Z"/>
      <path class="cls-1" d="M279.58,380.72h-1.51l-10.22-15.21v15.21h-1.5v-17.77h1.5l10.24,15.21v-15.21h1.49v17.77Z"/>
      <path class="cls-1" d="M309.43,378.61c-.2,.29-.55,.62-1.05,.99-.5,.37-1.16,.69-2,.96-.84,.27-1.88,.41-3.12,.41-1.39,0-2.62-.33-3.7-1-1.07-.66-1.92-1.6-2.52-2.82-.61-1.22-.91-2.65-.91-4.3v-2.16c0-1.64,.28-3.05,.84-4.24,.56-1.19,1.35-2.11,2.39-2.76,1.03-.65,2.26-.98,3.67-.98,1.32,0,2.43,.23,3.33,.68,.9,.46,1.61,1.08,2.12,1.87,.51,.79,.82,1.69,.95,2.69h-1.5c-.11-.71-.35-1.36-.71-1.96-.36-.6-.88-1.09-1.56-1.45-.68-.37-1.56-.55-2.63-.55-1.16,0-2.13,.28-2.94,.84-.8,.56-1.41,1.34-1.83,2.34s-.62,2.17-.62,3.5v2.19c0,1.38,.23,2.58,.7,3.6s1.12,1.82,1.97,2.39c.84,.57,1.83,.85,2.96,.85,.9,0,1.67-.09,2.3-.26,.63-.17,1.14-.38,1.53-.62s.67-.46,.84-.67v-4.6h-4.77v-1.27h6.26v6.34Z"/>
      <path class="cls-1" d="M346.31,380.72h-1.5v-17.77h1.5v17.77Zm-.67,0l.03-1.27h4c1.27,0,2.37-.29,3.29-.86,.93-.57,1.64-1.37,2.15-2.39,.5-1.02,.76-2.2,.76-3.55v-1.66c0-1.38-.25-2.57-.76-3.58-.5-1.01-1.21-1.79-2.13-2.35-.92-.56-1.98-.84-3.2-.84h-4.21v-1.28h4.21c1.48,0,2.79,.33,3.93,1,1.14,.67,2.03,1.61,2.68,2.81,.65,1.21,.97,2.63,.97,4.25v1.64c0,1.63-.32,3.04-.97,4.25-.65,1.21-1.55,2.15-2.7,2.81-1.16,.67-2.49,1-4.02,1h-4.03Z"/>
      <path class="cls-1" d="M375.52,380.72h-1.5v-17.77h1.5v17.77Z"/>
      <path class="cls-1" d="M405.67,378.61c-.2,.29-.55,.62-1.05,.99-.5,.37-1.16,.69-2,.96-.84,.27-1.88,.41-3.12,.41-1.39,0-2.62-.33-3.7-1-1.07-.66-1.92-1.6-2.52-2.82-.61-1.22-.91-2.65-.91-4.3v-2.16c0-1.64,.28-3.05,.84-4.24,.56-1.19,1.35-2.11,2.39-2.76,1.03-.65,2.26-.98,3.67-.98,1.32,0,2.43,.23,3.33,.68,.9,.46,1.61,1.08,2.12,1.87,.51,.79,.82,1.69,.95,2.69h-1.5c-.11-.71-.35-1.36-.71-1.96-.36-.6-.88-1.09-1.56-1.45-.68-.37-1.56-.55-2.63-.55-1.16,0-2.13,.28-2.94,.84-.8,.56-1.41,1.34-1.83,2.34s-.62,2.17-.62,3.5v2.19c0,1.38,.23,2.58,.7,3.6s1.12,1.82,1.97,2.39c.84,.57,1.83,.85,2.96,.85,.9,0,1.67-.09,2.3-.26,.63-.17,1.14-.38,1.53-.62s.67-.46,.84-.67v-4.6h-4.77v-1.27h6.26v6.34Z"/>
      <path class="cls-1" d="M424.28,380.72h-1.5v-17.77h1.5v17.77Z"/>
      <path class="cls-1" d="M453.67,364.23h-13.66v-1.28h13.66v1.28Zm-6.09,16.49h-1.49v-17.77h1.49v17.77Z"/>
      <path class="cls-1" d="M467.55,380.72h-1.56l6.71-17.77h1.1l-.1,1.06-6.15,16.71Zm10.64-4.98h-9.44v-1.28h9.44v1.28Zm-5.07-11.73l-.07-1.06h1.07l6.73,17.77h-1.56l-6.16-16.71Z"/>
      <path class="cls-1" d="M497.49,380.72h-1.5v-17.77h1.5v17.77Zm8.78,0h-9.22v-1.27h9.22v1.27Z"/>
    </g>
    <g>
      <path class="cls-1" d="M12.31,428.9c0-.66-.15-1.22-.45-1.68s-.8-.88-1.51-1.24c-.71-.36-1.68-.72-2.9-1.07-.9-.24-1.7-.52-2.41-.82-.71-.3-1.32-.65-1.83-1.04-.51-.39-.9-.85-1.17-1.37-.27-.52-.4-1.14-.4-1.84,0-.92,.25-1.72,.76-2.41,.51-.69,1.21-1.22,2.11-1.6s1.93-.57,3.09-.57c1.25,0,2.32,.24,3.23,.71,.91,.47,1.62,1.11,2.11,1.91,.5,.8,.75,1.7,.75,2.69h-1.5c0-.77-.18-1.46-.54-2.07-.36-.61-.88-1.08-1.57-1.43-.68-.35-1.51-.52-2.48-.52s-1.8,.15-2.46,.45-1.16,.69-1.5,1.19-.5,1.04-.5,1.64c0,.56,.15,1.07,.45,1.52,.3,.45,.79,.86,1.49,1.23,.7,.37,1.64,.71,2.83,1.04,1.26,.33,2.33,.73,3.21,1.18,.88,.46,1.55,1.01,2.01,1.67s.69,1.47,.69,2.43-.26,1.79-.79,2.48c-.53,.7-1.25,1.23-2.17,1.6-.92,.37-1.97,.56-3.15,.56-.79,0-1.57-.1-2.36-.3s-1.5-.52-2.14-.95c-.65-.43-1.16-.98-1.55-1.65-.39-.67-.58-1.48-.58-2.42h1.5c0,.75,.15,1.38,.45,1.9,.3,.52,.7,.93,1.2,1.25,.5,.32,1.05,.55,1.65,.69,.6,.14,1.21,.21,1.82,.21,.94,0,1.75-.14,2.43-.42,.68-.28,1.22-.67,1.6-1.17,.38-.5,.57-1.08,.57-1.75Z"/>
      <path class="cls-1" d="M42.63,425.34c0,1.66-.28,3.1-.85,4.33-.57,1.23-1.37,2.17-2.4,2.84-1.03,.67-2.25,1.01-3.66,1.01s-2.6-.34-3.64-1.01c-1.04-.67-1.85-1.62-2.44-2.84-.58-1.22-.87-2.67-.87-4.33v-1.9c0-1.66,.29-3.1,.87-4.33s1.39-2.17,2.42-2.84c1.04-.67,2.25-1.01,3.63-1.01s2.63,.34,3.67,1.01c1.04,.67,1.84,1.62,2.41,2.84s.85,2.67,.85,4.33v1.9Zm-1.5-1.93c0-1.4-.21-2.61-.64-3.63-.43-1.02-1.05-1.81-1.86-2.37-.81-.56-1.79-.84-2.94-.84s-2.08,.28-2.89,.84c-.81,.56-1.43,1.35-1.87,2.37-.44,1.02-.65,2.23-.65,3.63v1.93c0,1.41,.22,2.62,.66,3.65s1.07,1.82,1.88,2.38c.81,.56,1.78,.84,2.89,.84s2.12-.28,2.93-.84,1.42-1.35,1.84-2.38c.42-1.03,.63-2.24,.63-3.65v-1.93Zm1.28,12.04l-1.03,.94-4.05-3.53,1.01-.98,4.07,3.56Z"/>
      <path class="cls-1" d="M71.22,415.5v12.04c0,1.33-.28,2.45-.84,3.33s-1.32,1.55-2.26,1.99-2,.66-3.14,.66-2.24-.22-3.19-.66-1.69-1.1-2.24-1.99c-.55-.89-.82-2-.82-3.33v-12.04h1.49v12.04c0,1.03,.21,1.9,.62,2.6,.41,.7,.97,1.23,1.68,1.58,.71,.35,1.53,.53,2.46,.53s1.74-.18,2.45-.53c.72-.35,1.28-.88,1.68-1.58s.61-1.57,.61-2.6v-12.04h1.5Z"/>
      <path class="cls-1" d="M89.76,433.27h-1.5v-17.77h1.5v17.77Z"/>
      <path class="cls-1" d="M112.84,415.5c1.23,0,2.29,.2,3.2,.6,.9,.4,1.6,.99,2.09,1.76s.74,1.73,.74,2.86c0,.84-.17,1.6-.52,2.28s-.84,1.25-1.46,1.71c-.62,.46-1.34,.78-2.15,.95l-.52,.2h-6.17l-.02-1.27h5.15c.94,0,1.71-.18,2.33-.54,.62-.36,1.08-.84,1.4-1.43,.31-.59,.47-1.22,.47-1.9,0-1.21-.39-2.17-1.17-2.88s-1.9-1.06-3.36-1.06h-4.27v16.49h-1.5v-17.77h5.77Zm.6,9.83h1.61s4.59,7.79,4.59,7.79v.16h-1.61l-4.59-7.95Z"/>
      <path class="cls-1" d="M141.22,415.5c1.23,0,2.29,.2,3.2,.6,.9,.4,1.6,.99,2.09,1.76s.74,1.73,.74,2.86c0,.84-.17,1.6-.52,2.28s-.84,1.25-1.46,1.71c-.62,.46-1.34,.78-2.15,.95l-.52,.2h-6.17l-.02-1.27h5.15c.94,0,1.71-.18,2.33-.54,.62-.36,1.08-.84,1.4-1.43,.31-.59,.47-1.22,.47-1.9,0-1.21-.39-2.17-1.17-2.88s-1.9-1.06-3.36-1.06h-4.27v16.49h-1.5v-17.77h5.77Zm.6,9.83h1.61s4.59,7.79,4.59,7.79v.16h-1.61l-4.59-7.95Z"/>
      <path class="cls-1" d="M165.36,433.27h-1.5v-17.77h1.5v17.77Zm9.48-16.49h-9.94v-1.28h9.94v1.28Zm-1.18,7.97h-8.75v-1.28h8.75v1.28Zm1.25,8.52h-10v-1.27h10v1.27Z"/>
      <path class="cls-1" d="M192.08,433.27h-1.5v-17.77h1.5v17.77Zm8.78,0h-9.22v-1.27h9.22v1.27Z"/>
      <path class="cls-1" d="M226.32,428.9c0-.66-.15-1.22-.45-1.68s-.8-.88-1.51-1.24c-.71-.36-1.68-.72-2.9-1.07-.9-.24-1.7-.52-2.41-.82-.71-.3-1.32-.65-1.83-1.04-.51-.39-.9-.85-1.17-1.37-.27-.52-.4-1.14-.4-1.84,0-.92,.25-1.72,.76-2.41,.51-.69,1.21-1.22,2.11-1.6s1.93-.57,3.09-.57c1.25,0,2.32,.24,3.23,.71,.91,.47,1.62,1.11,2.11,1.91,.5,.8,.75,1.7,.75,2.69h-1.5c0-.77-.18-1.46-.54-2.07-.36-.61-.88-1.08-1.57-1.43-.68-.35-1.51-.52-2.48-.52s-1.8,.15-2.46,.45-1.16,.69-1.5,1.19-.5,1.04-.5,1.64c0,.56,.15,1.07,.45,1.52,.3,.45,.79,.86,1.49,1.23,.7,.37,1.64,.71,2.83,1.04,1.26,.33,2.33,.73,3.21,1.18,.88,.46,1.55,1.01,2.01,1.67s.69,1.47,.69,2.43-.26,1.79-.79,2.48c-.53,.7-1.25,1.23-2.17,1.6-.92,.37-1.97,.56-3.15,.56-.79,0-1.57-.1-2.36-.3s-1.5-.52-2.14-.95c-.65-.43-1.16-.98-1.55-1.65-.39-.67-.58-1.48-.58-2.42h1.5c0,.75,.15,1.38,.45,1.9,.3,.52,.7,.93,1.2,1.25,.5,.32,1.05,.55,1.65,.69,.6,.14,1.21,.21,1.82,.21,.94,0,1.75-.14,2.43-.42,.68-.28,1.22-.67,1.6-1.17,.38-.5,.57-1.08,.57-1.75Z"/>
      <path class="cls-1" d="M244.55,426.03v-1.28h5.08c1.06,0,1.92-.17,2.58-.52s1.14-.82,1.45-1.41c.31-.59,.46-1.26,.46-2s-.15-1.39-.46-2c-.3-.61-.79-1.1-1.45-1.48s-1.52-.56-2.58-.56h-4.55v16.49h-1.5v-17.77h6.05c1.3,0,2.4,.22,3.28,.67s1.56,1.07,2.01,1.86c.46,.79,.68,1.71,.68,2.76s-.23,2.03-.68,2.81c-.45,.79-1.12,1.39-2.01,1.8-.89,.42-1.99,.62-3.29,.62h-5.08Z"/>
      <path class="cls-1" d="M272.97,433.27h-1.5v-17.77h1.5v17.77Zm8.78,0h-9.22v-1.27h9.22v1.27Z"/>
      <path class="cls-1" d="M297.06,433.27h-1.56l6.71-17.77h1.1l-.1,1.06-6.15,16.71Zm10.64-4.98h-9.44v-1.28h9.44v1.28Zm-5.07-11.73l-.07-1.06h1.07l6.73,17.77h-1.56l-6.16-16.71Z"/>
      <path class="cls-1" d="M327.34,433.27h-1.5v-17.77h1.5v17.77Z"/>
      <path class="cls-1" d="M357.9,433.27h-1.51l-10.22-15.21v15.21h-1.5v-17.77h1.5l10.24,15.21v-15.21h1.49v17.77Z"/>
      <path class="cls-1" d="M376.76,433.27h-1.5v-17.77h1.5v17.77Z"/>
      <path class="cls-1" d="M407.33,433.27h-1.51l-10.22-15.21v15.21h-1.5v-17.77h1.5l10.24,15.21v-15.21h1.49v17.77Z"/>
      <path class="cls-1" d="M437.18,431.16c-.2,.29-.55,.62-1.05,.99-.5,.37-1.16,.69-2,.96-.84,.27-1.88,.41-3.12,.41-1.39,0-2.62-.33-3.7-1-1.07-.66-1.92-1.6-2.52-2.82-.61-1.22-.91-2.65-.91-4.3v-2.16c0-1.64,.28-3.05,.84-4.24,.56-1.19,1.35-2.11,2.39-2.76,1.03-.65,2.26-.98,3.67-.98,1.32,0,2.43,.23,3.33,.68,.9,.46,1.61,1.08,2.12,1.87,.51,.79,.82,1.69,.95,2.69h-1.5c-.11-.71-.35-1.36-.71-1.96-.36-.6-.88-1.09-1.56-1.45-.68-.37-1.56-.55-2.63-.55-1.16,0-2.13,.28-2.94,.84-.8,.56-1.41,1.34-1.83,2.34s-.62,2.17-.62,3.5v2.19c0,1.38,.23,2.58,.7,3.6s1.12,1.82,1.97,2.39c.84,.57,1.83,.85,2.96,.85,.9,0,1.67-.09,2.3-.26,.63-.17,1.14-.38,1.53-.62s.67-.46,.84-.67v-4.6h-4.77v-1.27h6.26v6.34Z"/>
      <path class="cls-1" d="M482.61,428.9c0-.66-.15-1.22-.45-1.68s-.8-.88-1.51-1.24c-.71-.36-1.68-.72-2.9-1.07-.9-.24-1.7-.52-2.41-.82-.71-.3-1.32-.65-1.83-1.04-.51-.39-.9-.85-1.17-1.37-.27-.52-.4-1.14-.4-1.84,0-.92,.25-1.72,.76-2.41,.51-.69,1.21-1.22,2.11-1.6s1.93-.57,3.09-.57c1.25,0,2.32,.24,3.23,.71,.91,.47,1.62,1.11,2.11,1.91,.5,.8,.75,1.7,.75,2.69h-1.5c0-.77-.18-1.46-.54-2.07-.36-.61-.88-1.08-1.57-1.43-.68-.35-1.51-.52-2.48-.52s-1.8,.15-2.46,.45-1.16,.69-1.5,1.19-.5,1.04-.5,1.64c0,.56,.15,1.07,.45,1.52,.3,.45,.79,.86,1.49,1.23,.7,.37,1.64,.71,2.83,1.04,1.26,.33,2.33,.73,3.21,1.18,.88,.46,1.55,1.01,2.01,1.67s.69,1.47,.69,2.43-.26,1.79-.79,2.48c-.53,.7-1.25,1.23-2.17,1.6-.92,.37-1.97,.56-3.15,.56-.79,0-1.57-.1-2.36-.3s-1.5-.52-2.14-.95c-.65-.43-1.16-.98-1.55-1.65-.39-.67-.58-1.48-.58-2.42h1.5c0,.75,.15,1.38,.45,1.9,.3,.52,.7,.93,1.2,1.25,.5,.32,1.05,.55,1.65,.69,.6,.14,1.21,.21,1.82,.21,.94,0,1.75-.14,2.43-.42,.68-.28,1.22-.67,1.6-1.17,.38-.5,.57-1.08,.57-1.75Z"/>
      <path class="cls-1" d="M511.91,416.78h-13.66v-1.28h13.66v1.28Zm-6.09,16.49h-1.49v-17.77h1.49v17.77Z"/>
      <path class="cls-1" d="M528.79,433.27h-1.5v-17.77h1.5v17.77Zm9.48-16.49h-9.94v-1.28h9.94v1.28Zm-1.18,7.97h-8.75v-1.28h8.75v1.28Zm1.25,8.52h-10v-1.27h10v1.27Z"/>
      <path class="cls-1" d="M555.34,415.5l.16,10v7.78h-1.49v-17.77h1.33Zm.65,0l6.57,15.69,6.58-15.69h1.5l-7.51,17.77h-1.15l-7.51-17.77h1.51Zm15.14,0v17.77h-1.5v-7.78l.17-10h1.33Z"/>
    </g>
  </g>
</svg>