<?xml version="1.0" encoding="UTF-8"?>
<svg id="Layer_2" data-name="Layer 2" xmlns="http://www.w3.org/2000/svg" viewBox="0 0 581.18 137.45">
  <defs>
    <style>
      .cls-1 {
        fill: #fee9d9;
      }
    </style>
  </defs>
  <g id="Layer_1-2" data-name="Layer 1">
    <g>
      <path class="cls-1" d="M30.21,6.6C25.9,2.95,21.17,1,16.93,1,11.29,1,6.93,4.44,6.93,10.09s3.61,9.46,11.79,15.27c10.33,7.3,13.86,11.12,13.86,17.85,0,10.38-9.17,17.22-18.34,17.22-4.48,0-9.3-1.66-14.24-5.27l.79-1.25c4.23,3.69,8.3,5.44,12.7,5.44,6.89,0,12.29-4.48,12.29-11.5,0-5.77-3.65-9.42-11.87-15.27C5.44,26.6,1.33,21.79,1.33,14.78,1.33,5.23,9.01,0,16.44,0c5.73,0,10.92,2.78,14.57,5.4l-.79,1.2Z"/>
      <path class="cls-1" d="M41.91,21l6.18-.58,1.45,4.73c2.95-2.86,6.52-4.98,11.5-4.98,9.13,0,16.1,7.06,16.1,18.68,0,12.99-8.76,21.29-17.18,21.29-4.07,0-7.72-1.95-10.21-3.69v21.83h-7.84V21Zm7.84,34.37c2.2,1.29,4.81,2.16,7.35,2.41,6.39-1,11.75-6.85,11.75-18.22,0-9.71-3.94-16.39-11.54-16.39-2.86,0-5.6,1.04-7.55,3.03v29.18Z"/>
      <path class="cls-1" d="M89.89,4.36c2.41,0,4.44,1.74,4.44,4.44s-2.03,4.48-4.44,4.48-4.48-1.78-4.48-4.48,2.03-4.44,4.48-4.44Zm-3.94,16.64l7.93-.58V59.27h-7.93V21Z"/>
      <path class="cls-1" d="M136.7,51.88c-2.91,5.15-9.26,8.22-15.23,8.22-10.04,0-18.88-8.76-18.88-20s9.09-19.92,19.55-19.92c4.32,0,9.75,1.45,12.58,2.91l-2.32,6.85c-3.4-2.95-8.22-6.93-12-8.76-6.06,.33-9.59,6.77-9.59,15.98,0,11.29,5.23,20.92,14.07,20.92,3.61,0,8.01-1.49,10.62-6.93l1.2,.75Z"/>
      <path class="cls-1" d="M148.36,78.28c2.32-4.57,5.64-11.83,7.3-15.94l1.25-3.07h-2.66l-13.82-38.27h8.47l11,30.71,6.06-15.19c1.41-3.53,5.15-13.86,5.64-15.52h1.58l-16.31,40.88c-2.53,6.35-4.32,11.33-5.93,16.39h-2.57Z"/>
      <path class="cls-1" d="M229.45,6.6c-4.32-3.65-9.05-5.6-13.28-5.6-5.64,0-10,3.45-10,9.09s3.61,9.46,11.79,15.27c10.33,7.3,13.86,11.12,13.86,17.85,0,10.38-9.17,17.22-18.34,17.22-4.48,0-9.3-1.66-14.24-5.27l.79-1.25c4.23,3.69,8.3,5.44,12.7,5.44,6.89,0,12.29-4.48,12.29-11.5,0-5.77-3.65-9.42-11.87-15.27-8.47-5.98-12.58-10.79-12.58-17.81,0-9.55,7.68-14.78,15.11-14.78,5.73,0,10.92,2.78,14.57,5.4l-.79,1.2Z"/>
      <path class="cls-1" d="M265.81,55.86c-2.78,2.28-7.18,4.28-11.33,4.28-7.97,0-15.81-6.85-15.81-19.26s7.93-20.71,16.85-20.71c4.28,0,7.72,2.2,10.5,4.28l1.08-3.45h6.56v57.28h-7.84v-22.41Zm0-30.42c-3.28-1.87-5.85-2.7-8.43-3.03-6.18,1.08-10.42,7.6-10.42,17.64s4.32,17.1,11.66,17.1c2.78,0,5.27-1.04,7.18-2.49V25.44Z"/>
      <path class="cls-1" d="M307.76,55.45c-3.15,2.37-7.68,4.65-12.7,4.65-9.13,0-10.62-7.3-10.62-12.16V21l7.93-.58v28.97c0,4.11,1.16,8.26,6.97,8.26,3.07,0,5.81-1.33,8.3-3.24V21l7.93-.58V59.27h-6.64l-1.16-3.82Z"/>
      <path class="cls-1" d="M330.75,4.36c2.41,0,4.44,1.74,4.44,4.44s-2.03,4.48-4.44,4.48-4.48-1.78-4.48-4.48,2.03-4.44,4.48-4.44Zm-3.94,16.64l7.93-.58V59.27h-7.93V21Z"/>
      <path class="cls-1" d="M345.98,21l5.98-.58,1.87,7.35c2.86-4.07,7.51-7.01,13.53-7.6l-1.16,7.84c-1.58-.08-3.07-.17-4.44-.17-3.15,0-5.77,.29-7.84,.83v30.59h-7.93V21Z"/>
      <path class="cls-1" d="M374.53,21l5.98-.58,1.87,7.35c2.86-4.07,7.51-7.01,13.53-7.6l-1.16,7.84c-1.58-.08-3.07-.17-4.44-.17-3.15,0-5.77,.29-7.84,.83v30.59h-7.93V21Z"/>
      <path class="cls-1" d="M433.18,51.88c-2.95,5.19-9.26,8.22-15.27,8.22-10.25,0-18.84-8.92-18.84-19.96s8.76-19.96,19.26-19.96c11.41,0,14.32,9.55,14.32,15.61,0,.5,0,.96-.04,1.37h-25.32v.21c0,10.79,4.98,20.71,14.07,20.71,3.61,0,8.01-1.54,10.62-6.93l1.2,.75Zm-8.96-15.69c.29-6.6-2.49-13.86-7.47-15.07-5.11,0-9.13,5.93-9.46,15.07h16.93Z"/>
      <path class="cls-1" d="M441.93,1.16l7.84-.58V59.27h-7.84V1.16Z"/>
    </g>
    <g>
      <path class="cls-1" d="M181.01,97.17l.98,4.8h-1.21l-4.55-17.77h1.54l3.25,12.98Zm5.09-12.98h1.21l-.98,3.87-4.11,13.9h-1.16l1.18-4.69,3.86-13.09Zm5.15,13.09l1.17,4.69h-1.16l-4.04-13.9-.98-3.87h1.21l3.8,13.09Zm4.46-13.09h1.54l-4.54,17.77h-1.21l1-4.81,3.21-12.96Z"/>
      <path class="cls-1" d="M214.16,101.97h-1.5v-17.77h1.5v17.77Zm9.48-16.49h-9.94v-1.28h9.94v1.28Zm-1.18,7.97h-8.75v-1.28h8.75v1.28Zm1.25,8.52h-10v-1.27h10v1.27Z"/>
      <path class="cls-1" d="M240.49,93.41l-.02-1.26h4.31c1.32,0,2.34-.28,3.06-.85,.72-.57,1.08-1.4,1.08-2.51s-.36-1.96-1.07-2.5-1.79-.82-3.21-.82h-3.75v16.49h-1.5v-17.77h5.25c1.81,0,3.22,.37,4.25,1.11,1.03,.74,1.54,1.92,1.54,3.53,0,.73-.16,1.39-.48,1.98s-.78,1.07-1.38,1.44c-.6,.37-1.31,.6-2.13,.69l-.94,.46h-5Zm-.48,8.56l.77-1.27h4.6c1.31,0,2.33-.33,3.07-1s1.11-1.57,1.11-2.72c0-.68-.15-1.28-.44-1.83s-.74-.97-1.34-1.28c-.6-.31-1.36-.47-2.29-.47h-3.11l.02-1.26h4.41l.27,.46c.8,.08,1.5,.33,2.09,.73,.6,.41,1.06,.92,1.39,1.55,.33,.63,.49,1.31,.49,2.06,0,1.62-.52,2.86-1.57,3.72-1.05,.86-2.42,1.29-4.11,1.29h-5.37Z"/>
      <path class="cls-1" d="M287.29,101.97h-1.5v-17.77h1.5v17.77Zm-.67,0l.03-1.27h4c1.27,0,2.37-.29,3.29-.86,.93-.57,1.64-1.37,2.15-2.39,.5-1.02,.76-2.2,.76-3.55v-1.66c0-1.38-.25-2.57-.76-3.58-.5-1.01-1.21-1.79-2.13-2.35-.92-.56-1.98-.84-3.2-.84h-4.21v-1.28h4.21c1.48,0,2.79,.33,3.93,1s2.03,1.61,2.68,2.81c.65,1.21,.97,2.63,.97,4.25v1.64c0,1.63-.32,3.05-.97,4.25-.65,1.21-1.55,2.15-2.7,2.81s-2.49,1-4.02,1h-4.03Z"/>
      <path class="cls-1" d="M316.17,101.97h-1.5v-17.77h1.5v17.77Zm9.48-16.49h-9.94v-1.28h9.94v1.28Zm-1.18,7.97h-8.75v-1.28h8.75v1.28Zm1.25,8.52h-10v-1.27h10v1.27Z"/>
      <path class="cls-1" d="M351.45,97.6c0-.66-.15-1.22-.45-1.68s-.8-.88-1.51-1.24c-.71-.36-1.68-.72-2.9-1.07-.9-.24-1.7-.52-2.41-.82-.71-.3-1.32-.65-1.83-1.04-.51-.39-.9-.85-1.17-1.37-.27-.52-.4-1.14-.4-1.84,0-.92,.25-1.72,.76-2.41,.51-.69,1.21-1.22,2.11-1.61,.9-.38,1.93-.57,3.09-.57,1.25,0,2.32,.24,3.23,.71,.91,.47,1.62,1.11,2.11,1.91s.75,1.7,.75,2.69h-1.5c0-.77-.18-1.46-.54-2.07-.36-.61-.88-1.08-1.57-1.43s-1.51-.53-2.48-.53-1.8,.15-2.46,.45c-.66,.3-1.16,.69-1.5,1.19-.33,.5-.5,1.04-.5,1.64,0,.56,.15,1.07,.45,1.52,.3,.45,.79,.86,1.49,1.23,.7,.37,1.64,.71,2.83,1.04,1.26,.33,2.33,.73,3.21,1.18s1.55,1.01,2.01,1.67,.69,1.47,.69,2.43-.26,1.79-.79,2.48c-.53,.7-1.25,1.23-2.17,1.6s-1.97,.56-3.15,.56c-.79,0-1.57-.1-2.36-.31s-1.5-.52-2.14-.95c-.65-.43-1.16-.98-1.55-1.65s-.58-1.48-.58-2.42h1.5c0,.75,.15,1.38,.45,1.9,.3,.52,.7,.93,1.2,1.25,.5,.32,1.05,.55,1.65,.69,.6,.14,1.21,.21,1.82,.21,.94,0,1.75-.14,2.43-.42,.68-.28,1.22-.67,1.6-1.17,.38-.5,.57-1.08,.57-1.75Z"/>
      <path class="cls-1" d="M370.53,101.97h-1.5v-17.77h1.5v17.77Z"/>
      <path class="cls-1" d="M400.68,99.85c-.2,.29-.55,.62-1.05,.99-.5,.37-1.16,.69-2,.96-.84,.27-1.88,.41-3.12,.41-1.39,0-2.62-.33-3.7-1s-1.92-1.6-2.52-2.82c-.61-1.22-.91-2.65-.91-4.3v-2.16c0-1.64,.28-3.05,.84-4.24,.56-1.19,1.35-2.11,2.39-2.76,1.03-.65,2.26-.98,3.67-.98,1.32,0,2.43,.23,3.33,.68,.9,.46,1.61,1.08,2.12,1.87,.51,.79,.82,1.69,.95,2.69h-1.5c-.11-.71-.35-1.36-.71-1.97-.36-.6-.88-1.09-1.56-1.45-.68-.37-1.56-.55-2.63-.55-1.16,0-2.13,.28-2.94,.84-.8,.56-1.41,1.34-1.83,2.34s-.62,2.17-.62,3.5v2.18c0,1.38,.23,2.58,.7,3.6s1.12,1.82,1.97,2.39c.84,.57,1.83,.85,2.96,.85,.9,0,1.67-.09,2.3-.26s1.14-.38,1.53-.62c.39-.24,.67-.46,.84-.67v-4.6h-4.77v-1.27h6.26v6.33Z"/>
      <path class="cls-1" d="M430.7,101.97h-1.51l-10.22-15.21v15.21h-1.5v-17.77h1.5l10.24,15.21v-15.21h1.49v17.77Z"/>
      <path class="cls-1" d="M471.68,90.23c.52-.38,.95-.79,1.29-1.24,.34-.44,.51-.97,.51-1.57s-.21-1.1-.62-1.56c-.42-.46-1.01-.69-1.79-.69-.85,0-1.5,.27-1.95,.82-.44,.54-.67,1.19-.67,1.94,0,.59,.17,1.21,.52,1.86,.35,.65,.84,1.35,1.48,2.08l8.65,10.08h-1.77l-7.36-8.56c-.9-1.05-1.63-1.99-2.17-2.81s-.82-1.69-.82-2.61c0-.84,.17-1.56,.5-2.16s.81-1.07,1.42-1.4c.61-.33,1.33-.5,2.16-.5s1.48,.16,2.05,.48c.57,.32,1,.75,1.3,1.27,.3,.53,.45,1.1,.45,1.74,0,.53-.12,1.02-.35,1.48-.23,.46-.53,.87-.89,1.24-.36,.37-.74,.71-1.13,1.02l-3.26,2.49c-.69,.57-1.21,1.09-1.55,1.56-.34,.47-.57,.89-.67,1.26-.11,.37-.16,.69-.16,.96,0,.62,.15,1.2,.44,1.74,.29,.54,.74,.98,1.34,1.31,.6,.33,1.36,.49,2.28,.49,.76,0,1.49-.17,2.21-.51,.72-.34,1.35-.81,1.92-1.43,.56-.61,1.01-1.35,1.34-2.2,.33-.85,.5-1.8,.5-2.84h1.35c0,1.16-.17,2.2-.51,3.14-.34,.94-.83,1.76-1.48,2.48-.07,.08-.11,.14-.13,.19-.02,.04-.06,.1-.13,.18-.65,.68-1.42,1.22-2.29,1.62s-1.81,.6-2.78,.6c-1.14,0-2.12-.2-2.95-.6-.83-.4-1.46-.96-1.91-1.67-.45-.72-.67-1.55-.67-2.5,0-.72,.15-1.36,.46-1.93,.3-.57,.72-1.11,1.24-1.62,.52-.5,1.1-1,1.75-1.5l2.86-2.15Z"/>
    </g>
    <g>
      <path class="cls-1" d="M287.06,137.21h-1.5v-17.77h1.5v17.77Zm-.67,0l.03-1.27h4c1.27,0,2.37-.29,3.29-.86,.93-.57,1.64-1.37,2.15-2.39,.5-1.02,.76-2.2,.76-3.55v-1.66c0-1.38-.25-2.57-.76-3.58-.5-1.01-1.21-1.79-2.13-2.35-.92-.56-1.98-.84-3.2-.84h-4.21v-1.28h4.21c1.48,0,2.79,.33,3.93,1s2.03,1.61,2.68,2.81c.65,1.21,.97,2.63,.97,4.25v1.64c0,1.63-.32,3.04-.97,4.25-.65,1.21-1.55,2.15-2.7,2.81s-2.49,1-4.02,1h-4.03Z"/>
      <path class="cls-1" d="M315.94,137.21h-1.5v-17.77h1.5v17.77Zm9.48-16.49h-9.94v-1.28h9.94v1.28Zm-1.18,7.97h-8.75v-1.28h8.75v1.28Zm1.25,8.52h-10v-1.27h10v1.27Z"/>
      <path class="cls-1" d="M346.5,135l.61,2.21h-1.22l-6.6-17.77h1.64l5.58,15.56Zm5.81-15.56h1.63l-6.62,17.77h-1.21l.59-2.21,5.6-15.56Z"/>
      <path class="cls-1" d="M370.59,137.21h-1.5v-17.77h1.5v17.77Zm9.48-16.49h-9.94v-1.28h9.94v1.28Zm-1.18,7.97h-8.75v-1.28h8.75v1.28Zm1.25,8.52h-10v-1.27h10v1.27Z"/>
      <path class="cls-1" d="M397.31,137.21h-1.5v-17.77h1.5v17.77Zm8.78,0h-9.22v-1.27h9.22v1.27Z"/>
      <path class="cls-1" d="M433.82,129.28c0,1.66-.28,3.1-.85,4.33s-1.37,2.17-2.4,2.84c-1.03,.67-2.25,1.01-3.66,1.01s-2.58-.34-3.63-1.01c-1.04-.67-1.85-1.62-2.43-2.84-.58-1.22-.87-2.67-.87-4.33v-1.9c0-1.66,.29-3.1,.87-4.33,.58-1.22,1.39-2.17,2.42-2.84,1.04-.67,2.24-1.01,3.62-1.01s2.63,.34,3.67,1.01c1.04,.67,1.84,1.62,2.41,2.84s.85,2.67,.85,4.33v1.9Zm-1.49-1.93c0-1.4-.22-2.61-.65-3.63-.43-1.02-1.05-1.81-1.86-2.37-.81-.56-1.79-.84-2.94-.84s-2.08,.28-2.89,.84c-.81,.56-1.43,1.35-1.87,2.37-.44,1.02-.65,2.23-.65,3.63v1.93c0,1.41,.22,2.62,.66,3.65s1.07,1.82,1.88,2.38c.81,.56,1.78,.84,2.89,.84s2.14-.28,2.94-.84c.8-.56,1.42-1.36,1.84-2.38s.63-2.24,.63-3.65v-1.93Z"/>
      <path class="cls-1" d="M451.11,129.97v-1.28h5.08c1.06,0,1.92-.17,2.58-.52s1.14-.82,1.45-1.41c.31-.59,.46-1.26,.46-2s-.15-1.39-.46-2c-.3-.61-.79-1.1-1.45-1.48-.66-.38-1.52-.56-2.58-.56h-4.55v16.49h-1.5v-17.77h6.05c1.3,0,2.4,.22,3.28,.67s1.56,1.07,2.01,1.86c.46,.79,.68,1.71,.68,2.76s-.23,2.03-.68,2.81c-.45,.79-1.12,1.39-2.01,1.8-.89,.42-1.99,.62-3.29,.62h-5.08Z"/>
      <path class="cls-1" d="M479.35,119.44l.16,10v7.78h-1.49v-17.77h1.33Zm.65,0l6.57,15.69,6.58-15.69h1.5l-7.51,17.77h-1.15l-7.51-17.77h1.51Zm15.14,0v17.77h-1.5v-7.78l.17-10h1.33Z"/>
      <path class="cls-1" d="M513.66,137.21h-1.5v-17.77h1.5v17.77Zm9.48-16.49h-9.94v-1.28h9.94v1.28Zm-1.18,7.97h-8.75v-1.28h8.75v1.28Zm1.25,8.52h-10v-1.27h10v1.27Z"/>
      <path class="cls-1" d="M552.11,137.21h-1.51l-10.22-15.21v15.21h-1.5v-17.77h1.5l10.24,15.21v-15.21h1.49v17.77Z"/>
      <path class="cls-1" d="M581.18,120.72h-13.66v-1.28h13.66v1.28Zm-6.09,16.49h-1.49v-17.77h1.49v17.77Z"/>
    </g>
  </g>
</svg>