<?xml version="1.0" encoding="UTF-8"?>
<svg id="Layer_2" data-name="Layer 2" xmlns="http://www.w3.org/2000/svg" viewBox="0 0 246.93 257.42">
  <defs>
    <style>
      .cls-1 {
        fill: #cc7d3d;
      }

      .cls-2 {
        fill: #555e73;
      }
    </style>
  </defs>
  <g id="shadow">
    <g id="casual_1" data-name="casual 1">
      <path class="cls-2" d="M120.37,149.67c-3.25,.07-5.92,2.51-8.09,4.93-5.83,6.5-10.72,15.04-8.95,23.59,.62,3.02,2.62,6.24,5.7,6.43,1.82,.11,3.5-.89,5.04-1.85,4.94-3.09,9.9-6.34,13.67-10.78,3.77-4.44,6.24-10.32,5.36-16.08-.21-1.35,1.85-2.09,2.95-1.28s1.35,2.34,1.39,3.71c.24,7.8-3.45,15.32-8.63,21.16-2.87,3.24-6.29,6.12-10.32,7.7-4.03,1.59-8.74,1.77-12.62-.17-6.61-3.31-9.08-12.06-7.11-19.18,1.96-7.13,7.36-12.8,13.17-17.37,2.9-2.28,6.25-4.95,6.22-8.63-.01-1.65-.57-3.73,.81-4.63,1.75,2.63,2.87,5.69,3.23,8.83,.18,1.52-.29,3.59-1.82,3.62Z"/>
      <path class="cls-2" d="M54.13,184.19c-.76-4.41-1.69-8.87-3.81-12.82-3.08-5.72-8.7-10.01-15.02-11.48-.91-1.07,.02-2.87,1.36-3.27,1.34-.41,2.78,.13,4.04,.75,10.15,4.95,17.27,15.61,17.95,26.88,.21,3.43-.12,6.97,1.01,10.21,.16,.45-.34,.83-.74,1.1-1.6,1.06-2.57,2.81-3.75,4.33-1.18,1.52-2.85,2.93-4.77,2.8-9.49-.68-18.48-6.34-23.19-14.6-.57-1-1.09-2.18-.73-3.27,.37-1.09,2.09-1.63,2.67-.63,3.01,5.22,7.38,9.66,12.55,12.76,2.21,1.32,4.79,2.44,7.29,1.85,2.78-.65,4.74-3.31,5.39-6.09,.65-2.78,.23-5.69-.26-8.51Z"/>
      <path class="cls-2" d="M71.5,252.37c-2.67,.76-4.64,2.95-6.46,5.05,.06-3.1-2.86-5.66-5.93-6.11-3.07-.45-6.15,.76-8.83,2.32-1.2-3.2-2.41-6.4-3.61-9.59-2,1.18-4,2.37-6,3.55-1.51-3.54-1.44-7.76-3.73-10.85-2.29-3.09-8.67-2.95-8.7,.9-2.22-4.2-3.08-9.11-2.41-13.81-1.79,1.35-3.59,2.71-5.38,4.06,.35-5.95-.84-11.98-3.43-17.36-.38,2.49-4.67,1.62-5.39-.79-.73-2.41,.49-4.93,.84-7.42,.35-2.49-1.05-5.77-3.55-5.47-3.49,.41-3.53-5.13-2.09-8.34,1.44-3.21,1.12-8.81-2.33-8.15-2.99,.57-2.77-4.52-.89-6.91,1.87-2.39,3.21-7.01,.2-7.46-2.81-.42-1.98-4.8-.09-6.92,1.89-2.12,4.18-5.37,2.13-7.34-3.89-3.75-.5-10.2,2.94-14.37-1.96-2.02-3.91-4.04-5.87-6.07,7.53-.99,12.94-9.79,10.43-16.96,5.71,.75,10.8-6.24,8.33-11.45,3.56-.7,6.83-2.78,8.96-5.71-10.1-8.92-10.33-25.3-4.21-37.31,6.12-12.01,17.1-20.67,27.75-28.93,11.45-8.89,22.3-18.56,32.44-28.92,4.99,.71,4.48,7.92,5.5,12.86,1.18,5.7,5.99,9.82,10.5,13.49,3.16,2.57,6.87,5.3,10.89,4.62,3.48-.58,6.02-3.57,9.19-5.11,3.18-1.54,8.36-.29,8.12,3.24-.54,7.94-.63,15.92-.29,23.87,17.83-19.38,40.7-35.93,66.89-38.66,10.25-1.07,21.18,.21,29.65,6.09,4.76,3.3,8.5,7.88,11.8,12.65,4.81,6.97,8.94,15.15,7.86,23.55-1,7.76-6.34,14.35-12.57,19.07s-13.43,7.98-20.13,12c-27.41,16.45-45.47,45.26-56.17,75.39-1.64,4.62-2.93,10.34,.4,13.94-2.37,.96-4.39,2.74-5.65,4.97,1.85,1.55,3.2,3.69,3.78,6.04-5.72,1.98-8.77,9.43-6.1,14.85-6.42,1.09-10.87,8.64-8.71,14.79-7.33-.49-13.35,8.62-10.03,15.17m0,0c-6.05-2.95-14.29,2.85-13.56,9.55-1.52-2.82-5.8-3.04-8.42-1.18-2.61,1.86-3.89,5.04-4.82,8.11-.9-2.87-4.34-4.65-7.2-3.72-2.86,.92-4.61,4.38-3.66,7.24-2.14-2.16-10.55-4.07-13.58-4.34-48.89,14.41,43.82-19.82,48-18M41.11,105.72c-1.93-1.61-4.04-3.29-6.55-3.45-2.51-.16-5.27,2.05-4.65,4.48,1.11,4.29-7.26,6.03-6.98,10.45,.22,3.55-2.39,6.54-4.32,9.52-2.79,4.32-4.36,9.29-5.89,14.2-.78,2.5-1.39,5.68,.61,7.38,1.06,.9,2.72,2.53,1.44,3.07-5.01,2.13-4.71,10.87,.43,12.66-1.79,2.18-3.62,4.44-4.37,7.15-.75,2.71-.13,6.02,2.21,7.59,1.72,1.15,1.03,3.77,.33,5.71s-.77,4.83,1.24,5.33c3.63,.89,2.04,6.37,2.89,10.01,.34,1.45,1.01,1.42,1.84,2.66,1,4-.47,3.32,2,7,1,2,3,2,3,2,1,0,.13,4.14,1,5,1.99,1.95,4.01,1.05,6,3,0,3-2,5,0,6s6,0,8,1c-1,2,0,4,0,4,2,3,.27,.53,3,4,3,3,3,4,6,6,7,5,7.75,4.82,14.06,6.02,9.25,1.75,18.77-.4,27.78-3.15,5.92-1.81,11.78-3.89,17.29-6.71,5.21-2.66,10.08-5.98,14.47-9.84,12.79-11.26,21.23-27.22,23.88-44.05,3.9-24.83-4.38-49.79-12.85-73.45-1.91-5.33-3.87-10.73-7.13-15.37-1.43-2.04-.49-4.82,.33-7.18,3.38-9.72,3.84-20.43,1.3-30.4-2.05-8.04-1.91-16.62,.39-24.59-6.41-2.72-13.29,9.05-19,5.07-4.96-3.46-9.93-6.93-14.89-10.39-5.62-3.92-5.95-11.98-5.7-18.83-5.62,2.4-10.27,7-12.74,12.59-1.06,2.4-3.48,3.87-5.72,5.25-11.88,7.31-22.67,16.41-31.88,26.89-4.34,4.93-8.39,10.29-10.57,16.49-2.18,6.2-2.26,13.4,1.08,19.06,7.01,11.89,19.46,20.17,32.94,23.18s27.83,.98,40.47-4.59c1.4-.62,2.95,.43,4.08,1.47,4.62,4.28,8.26,9.61,10.58,15.46-5.11-1.18-10.55,.68-14.79,3.77s-7.5,7.31-10.69,11.47c-7.17,9.33-14.7,19.77-14.1,31.52,.14,2.76,.74,5.52,.41,8.27-.33,2.74-1.91,5.6-4.57,6.34-2.66,.74-5.95-1.9-5-4.5,3.58-9.88,1.13-21.19-4.3-30.19s-13.54-16.04-21.88-22.44c2.24-5.18,4.9-10.19,7.95-14.95-2.8-2.33-5.59-4.65-8.39-6.98m99.17,4.1c-.82,1.44-.23,3.36,.93,4.55,1.16,1.19,2.76,1.82,4.3,2.42-2.06,1.28-2.36,4.32-1.31,6.5,1.05,2.18,3.08,3.71,5.03,5.14-2.38,1.14-3.75,4.04-3.12,6.6,.63,2.56,3.19,4.5,5.82,4.4,1.68-.06,1.38,2.76,.06,3.8s-3.26,2.08-2.97,3.74c.12,1.72,2.41,2.09,4.1,2.42,1.69,.34,3.46,2.54,2.01,3.46-2.81,1.79-3.05,6.48-.44,8.55,10.1-32.54,32.83-60.98,62.34-78.01,5.85-3.38,12.01-6.36,17.15-10.75,5.14-4.39,9.25-10.53,9.37-17.29,.07-3.97-1.23-7.83-2.83-11.46-2.19-4.96-5-9.72-8.82-13.56-7.58-7.6-18.67-11.01-29.4-10.78-10.73,.22-21.15,3.78-30.78,8.5-12.95,6.34-24.9,14.93-34.3,25.86-1.53,1.78-3.02,3.67-3.79,5.89-.97,2.79-.72,5.82-.66,8.77,.16,7.51-.99,15.05-3.37,22.17-.58,1.73,1,3.43,2.6,4.32,1.6,.89,3.5,1.59,4.31,3.23-1.61,1.54-.13,4.21,1.46,5.78s3.43,3.78,2.33,5.72m-40.16,3.07c-.15-.34-.3-.69-.46-1.03-.06,.6-.77,.88-1.36,1.01-14.1,3.25-28.85,3.71-43.12,1.33,.84,1.91,1.74,3.91,3.42,5.16,.94,.7,2.06,1.12,3.18,1.48,11.82,3.78,25.29,2.01,35.74-4.68,1.22-.78,2.51-1.82,2.59-3.27m-35.74,17.46c-.37,1.76,.49,3.52,1.28,5.14,2.95,6.02,5.32,12.33,7.07,18.8,.2,.74,.51,1.6,1.25,1.77,3.96-8.56,8.55-16.84,13.72-24.73-1.29-.61-2.76,.15-4.05,.75-6.12,2.87-13.76,2.19-19.27-1.73m-16.47-4.8c-.38,.73-.71,1.72-.11,2.27,6.51,5.89,12.57,12.27,18.11,19.08-2.98-10.34-7.37-20.29-13.28-29.29-.53-.01-.88,.52-1.12,.99-1.2,2.32-2.4,4.64-3.61,6.96m12.42-1c.14,.29,.37,.53,.62,.74,2.74,2.42,6.5,3.39,10.16,3.49,4.04,.11,8.11-.76,11.76-2.52-.71-.55-1.72-.37-2.6-.21-6.69,1.25-13.77,.29-19.88-2.69-.21,.36-.23,.82-.05,1.19m45.75-9.99c-1.25,.03-2.16,1.19-2.71,2.32s-.96,2.4-1.97,3.15c-.46,.34-1.06,.58-1.31,1.1-.25,.52,.3,1.33,.78,1,1.69-1.83,3.99-3.09,6.45-3.51,.7-.12,1.54-.26,1.84-.91-1.4-.56-2.55-1.73-3.08-3.14m-32.06,61.23c1.06-1.75,1.4-3.92,.92-5.9-.24-.99-.67-1.93-1.09-2.86-1.6,1.84-2.56,4.22-2.69,6.66,.62,1.05,1.68,1.83,2.86,2.1m-3.42,2.5c-.49,1.54-.14,3.33,.89,4.57,1.27-.22,2.34-1.29,2.57-2.55l-3.46-2.02"/>
    </g>
  </g>
  <g id="fore">
    <g id="casual_1-2" data-name="casual 1">
      <path class="cls-1" d="M118.37,147.67c-3.25,.07-5.92,2.51-8.09,4.93-5.83,6.5-10.72,15.04-8.95,23.59,.62,3.02,2.62,6.24,5.7,6.43,1.82,.11,3.5-.89,5.04-1.85,4.94-3.09,9.9-6.34,13.67-10.78,3.77-4.44,6.24-10.32,5.36-16.08-.21-1.35,1.85-2.09,2.95-1.28s1.35,2.34,1.39,3.71c.24,7.8-3.45,15.32-8.63,21.16-2.87,3.24-6.29,6.12-10.32,7.7-4.03,1.59-8.74,1.77-12.62-.17-6.61-3.31-9.08-12.06-7.11-19.18,1.96-7.13,7.36-12.8,13.17-17.37,2.9-2.28,6.25-4.95,6.22-8.63-.01-1.65-.57-3.73,.81-4.63,1.75,2.63,2.87,5.69,3.23,8.83,.18,1.52-.29,3.59-1.82,3.62Z"/>
      <path class="cls-1" d="M52.13,182.19c-.76-4.41-1.69-8.87-3.81-12.82-3.08-5.72-8.7-10.01-15.02-11.48-.91-1.07,.02-2.87,1.36-3.27,1.34-.41,2.78,.13,4.04,.75,10.15,4.95,17.27,15.61,17.95,26.88,.21,3.43-.12,6.97,1.01,10.21,.16,.45-.34,.83-.74,1.1-1.6,1.06-2.57,2.81-3.75,4.33-1.18,1.52-2.85,2.93-4.77,2.8-9.49-.68-18.48-6.34-23.19-14.6-.57-1-1.09-2.18-.73-3.27,.37-1.09,2.09-1.63,2.67-.63,3.01,5.22,7.38,9.66,12.55,12.76,2.21,1.32,4.79,2.44,7.29,1.85,2.78-.65,4.74-3.31,5.39-6.09,.65-2.78,.23-5.69-.26-8.51Z"/>
      <path class="cls-1" d="M69.5,250.37c-2.67,.76-4.64,2.95-6.46,5.05,.06-3.1-2.86-5.66-5.93-6.11-3.07-.45-6.15,.76-8.83,2.32-1.2-3.2-2.41-6.4-3.61-9.59-2,1.18-4,2.37-6,3.55-1.51-3.54-1.44-7.76-3.73-10.85-2.29-3.09-8.67-2.95-8.7,.9-2.22-4.2-3.08-9.11-2.41-13.81-1.79,1.35-3.59,2.71-5.38,4.06,.35-5.95-.84-11.98-3.43-17.36-.38,2.49-4.67,1.62-5.39-.79-.73-2.41,.49-4.93,.84-7.42,.35-2.49-1.05-5.77-3.55-5.47-3.49,.41-3.53-5.13-2.09-8.34,1.44-3.21,1.12-8.81-2.33-8.15-2.99,.57-2.77-4.52-.89-6.91,1.87-2.39,3.21-7.01,.2-7.46-2.81-.42-1.98-4.8-.09-6.92,1.89-2.12,4.18-5.37,2.13-7.34-3.89-3.75-.5-10.2,2.94-14.37-1.96-2.02-3.91-4.04-5.87-6.07,7.53-.99,12.94-9.79,10.43-16.96,5.71,.75,10.8-6.24,8.33-11.45,3.56-.7,6.83-2.78,8.96-5.71-10.1-8.92-10.33-25.3-4.21-37.31,6.12-12.01,17.1-20.67,27.75-28.93C63.65,20.03,74.5,10.36,84.64,0c4.99,.71,4.48,7.92,5.5,12.86,1.18,5.7,5.99,9.82,10.5,13.49,3.16,2.57,6.87,5.3,10.89,4.62,3.48-.58,6.02-3.57,9.19-5.11,3.18-1.54,8.36-.29,8.12,3.24-.54,7.94-.63,15.92-.29,23.87,17.83-19.38,40.7-35.93,66.89-38.66,10.25-1.07,21.18,.21,29.65,6.09,4.76,3.3,8.5,7.88,11.8,12.65,4.81,6.97,8.94,15.15,7.86,23.55-1,7.76-6.34,14.35-12.57,19.07s-13.43,7.98-20.13,12c-27.41,16.45-45.47,45.26-56.17,75.39-1.64,4.62-2.93,10.34,.4,13.94-2.37,.96-4.39,2.74-5.65,4.97,1.85,1.55,3.2,3.69,3.78,6.04-5.72,1.98-8.77,9.43-6.1,14.85-6.42,1.09-10.87,8.64-8.71,14.79-7.33-.49-13.35,8.62-10.03,15.17m0,0c-6.05-2.95-14.29,2.85-13.56,9.55-1.52-2.82-5.8-3.04-8.42-1.18-2.61,1.86-3.89,5.04-4.82,8.11-.9-2.87-4.34-4.65-7.2-3.72-2.86,.92-4.61,4.38-3.66,7.24-2.14-2.16-10.55-4.07-13.58-4.34-48.89,14.41,43.82-19.82,48-18M39.11,103.72c-1.93-1.61-4.04-3.29-6.55-3.45-2.51-.16-5.27,2.05-4.65,4.48,1.11,4.29-7.26,6.03-6.98,10.45,.22,3.55-2.39,6.54-4.32,9.52-2.79,4.32-4.36,9.29-5.89,14.2-.78,2.5-1.39,5.68,.61,7.38,1.06,.9,2.72,2.53,1.44,3.07-5.01,2.13-4.71,10.87,.43,12.66-1.79,2.18-3.62,4.44-4.37,7.15-.75,2.71-.13,6.02,2.21,7.59,1.72,1.15,1.03,3.77,.33,5.71s-.77,4.83,1.24,5.33c3.63,.89,2.04,6.37,2.89,10.01,.34,1.45,1.01,1.42,1.84,2.66,1,4-.47,3.32,2,7,1,2,3,2,3,2,1,0,.13,4.14,1,5,1.99,1.95,4.01,1.05,6,3,0,3-2,5,0,6s6,0,8,1c-1,2,0,4,0,4,2,3,.27,.53,3,4,3,3,3,4,6,6,7,5,7.75,4.82,14.06,6.02,9.25,1.75,18.77-.4,27.78-3.15,5.92-1.81,11.78-3.89,17.29-6.71,5.21-2.66,10.08-5.98,14.47-9.84,12.79-11.26,21.23-27.22,23.88-44.05,3.9-24.83-4.38-49.79-12.85-73.45-1.91-5.33-3.87-10.73-7.13-15.37-1.43-2.04-.49-4.82,.33-7.18,3.38-9.72,3.84-20.43,1.3-30.4-2.05-8.04-1.91-16.62,.39-24.59-6.41-2.72-13.29,9.05-19,5.07-4.96-3.46-9.93-6.93-14.89-10.39-5.62-3.92-5.95-11.98-5.7-18.83-5.62,2.4-10.27,7-12.74,12.59-1.06,2.4-3.48,3.87-5.72,5.25-11.88,7.31-22.67,16.41-31.88,26.89-4.34,4.93-8.39,10.29-10.57,16.49-2.18,6.2-2.26,13.4,1.08,19.06,7.01,11.89,19.46,20.17,32.94,23.18s27.83,.98,40.47-4.59c1.4-.62,2.95,.43,4.08,1.47,4.62,4.28,8.26,9.61,10.58,15.46-5.11-1.18-10.55,.68-14.79,3.77s-7.5,7.31-10.69,11.47c-7.17,9.33-14.7,19.77-14.1,31.52,.14,2.76,.74,5.52,.41,8.27-.33,2.74-1.91,5.6-4.57,6.34-2.66,.74-5.95-1.9-5-4.5,3.58-9.88,1.13-21.19-4.3-30.19s-13.54-16.04-21.88-22.44c2.24-5.18,4.9-10.19,7.95-14.95-2.8-2.33-5.59-4.65-8.39-6.98m99.17,4.1c-.82,1.44-.23,3.36,.93,4.55,1.16,1.19,2.76,1.82,4.3,2.42-2.06,1.28-2.36,4.32-1.31,6.5,1.05,2.18,3.08,3.71,5.03,5.14-2.38,1.14-3.75,4.04-3.12,6.6,.63,2.56,3.19,4.5,5.82,4.4,1.68-.06,1.38,2.76,.06,3.8s-3.26,2.08-2.97,3.74c.12,1.72,2.41,2.09,4.1,2.42,1.69,.34,3.46,2.54,2.01,3.46-2.81,1.79-3.05,6.48-.44,8.55,10.1-32.54,32.83-60.98,62.34-78.01,5.85-3.38,12.01-6.36,17.15-10.75,5.14-4.39,9.25-10.53,9.37-17.29,.07-3.97-1.23-7.83-2.83-11.46-2.19-4.96-5-9.72-8.82-13.56-7.58-7.6-18.67-11.01-29.4-10.78-10.73,.22-21.15,3.78-30.78,8.5-12.95,6.34-24.9,14.93-34.3,25.86-1.53,1.78-3.02,3.67-3.79,5.89-.97,2.79-.72,5.82-.66,8.77,.16,7.51-.99,15.05-3.37,22.17-.58,1.73,1,3.43,2.6,4.32,1.6,.89,3.5,1.59,4.31,3.23-1.61,1.54-.13,4.21,1.46,5.78s3.43,3.78,2.33,5.72m-40.16,3.07c-.15-.34-.3-.69-.46-1.03-.06,.6-.77,.88-1.36,1.01-14.1,3.25-28.85,3.71-43.12,1.33,.84,1.91,1.74,3.91,3.42,5.16,.94,.7,2.06,1.12,3.18,1.48,11.82,3.78,25.29,2.01,35.74-4.68,1.22-.78,2.51-1.82,2.59-3.27m-35.74,17.46c-.37,1.76,.49,3.52,1.28,5.14,2.95,6.02,5.32,12.33,7.07,18.8,.2,.74,.51,1.6,1.25,1.77,3.96-8.56,8.55-16.84,13.72-24.73-1.29-.61-2.76,.15-4.05,.75-6.12,2.87-13.76,2.19-19.27-1.73m-16.47-4.8c-.38,.73-.71,1.72-.11,2.27,6.51,5.89,12.57,12.27,18.11,19.08-2.98-10.34-7.37-20.29-13.28-29.29-.53-.01-.88,.52-1.12,.99-1.2,2.32-2.4,4.64-3.61,6.96m12.42-1c.14,.29,.37,.53,.62,.74,2.74,2.42,6.5,3.39,10.16,3.49,4.04,.11,8.11-.76,11.76-2.52-.71-.55-1.72-.37-2.6-.21-6.69,1.25-13.77,.29-19.88-2.69-.21,.36-.23,.82-.05,1.19m45.75-9.99c-1.25,.03-2.16,1.19-2.71,2.32s-.96,2.4-1.97,3.15c-.46,.34-1.06,.58-1.31,1.1-.25,.52,.3,1.33,.78,1,1.69-1.83,3.99-3.09,6.45-3.51,.7-.12,1.54-.26,1.84-.91-1.4-.56-2.55-1.73-3.08-3.14m-32.06,61.23c1.06-1.75,1.4-3.92,.92-5.9-.24-.99-.67-1.93-1.09-2.86-1.6,1.84-2.56,4.22-2.69,6.66,.62,1.05,1.68,1.83,2.86,2.1m-3.42,2.5c-.49,1.54-.14,3.33,.89,4.57,1.27-.22,2.34-1.29,2.57-2.55l-3.46-2.02"/>
    </g>
  </g>
</svg>