<?xml version="1.0" encoding="UTF-8"?>
<svg id="Layer_2" data-name="Layer 2" xmlns="http://www.w3.org/2000/svg" viewBox="0 0 423.56 471.38">
  <defs>
    <style>
      .cls-1 {
        fill: #fa9902;
      }

      .cls-2 {
        fill: #f9bb04;
      }

      .cls-3 {
        fill: #fc5308;
      }

      .cls-4 {
        fill: #0246fe;
      }

      .cls-5 {
        fill: #0390cd;
      }

      .cls-6 {
        fill: #fffe33;
      }

      .cls-7 {
        fill: #fd2812;
      }

      .cls-8 {
        fill: #8701b0;
      }

      .cls-9 {
        fill: #b8cd28;
      }

      .cls-10 {
        fill: #a8184b;
      }

      .cls-11 {
        fill: #3f01a4;
      }

      .cls-12 {
        fill: #555e73;
      }

      .cls-13 {
        fill: #4e8528;
      }

      .cls-14 {
        stroke: #3f01a4;
      }

      .cls-14, .cls-15, .cls-16, .cls-17, .cls-18, .cls-19, .cls-20, .cls-21, .cls-22, .cls-23, .cls-24, .cls-25 {
        fill: none;
        stroke-miterlimit: 10;
      }

      .cls-15 {
        stroke: #0390cd;
      }

      .cls-16 {
        stroke: #0246fe;
      }

      .cls-17 {
        stroke: #b8cd28;
      }

      .cls-18 {
        stroke: #8701b0;
      }

      .cls-19 {
        stroke: #fd2812;
      }

      .cls-20 {
        stroke: #fffe33;
      }

      .cls-21 {
        stroke: #4e8528;
      }

      .cls-22 {
        stroke: #a8184b;
      }

      .cls-23 {
        stroke: #fa9902;
      }

      .cls-24 {
        stroke: #f9bb04;
      }

      .cls-25 {
        stroke: #fc5308;
      }
    </style>
  </defs>
  <g id="Layer_1-2" data-name="Layer 1">
    <g id="Layer_1-2" data-name="Layer 1-2">
      <path class="cls-18" d="M5.63,242.56c-.39-.24-.95-.08-1.14,.35-.32,.67-.47,1.42-.47,2.29,0,2.8-5.68,9.15-2.6,9.15,2.13,0,8.4-4.38,10.61-6.86,.32-.32,.24-.87-.16-1.06,0-.08-6.23-3.87-6.23-3.87h0Z"/>
      <path class="cls-8" d="M51.59,227.93c-.16,1.62-1.42,2.68-1.97,3.16-.67,.59-1.18,.79-1.97,1.18-1.93,.99-3.63,2.17-4.34,2.8-1.62,1.42-1.66,3.27-2.33,6.71-.87,4.42-2.56,8.44-4.5,10.85-3.16,3.94-4.46,4.73-8.44,6.55-5.05,2.29-7.49,2.8-13.21,3.79-.08,0-2.76,.39-3.55,0-.24-.12-.83-.39-1.06-1.03-.04-.08-.16-.43-.12-.95,.04-.39,.2-.91,1.77-2.56,.71-.75,1.66-1.66,1.97-1.97,.04-.04,.24-.2,.47-.43,.16-.16,.28-.28,.32-.35-.32-.59-.55-1.22-.79-1.97-1.03-3.23-.51-6.19-.04-7.89l-.63-.04-1.46-.16c-.63-.08-1.18-.51-1.42-1.1-.08-.2-.12-.43-.12-.67,0-.55,.24-1.06,.67-1.42,.2-.12,.39-.32,.63-.51l.47-.32,3.87-2.48c.32-.2,.71-.59,.79-.79-.28-.2-1.06-.47-1.58-.79-2.33-1.46-2.72-2.05-3.55-2.76-1.5-1.26-1.93-2.05-1.97-2.76-.35-3.16,4.34-8.16,12.5-9.86,.91-1.66,2.17-2.6,3.16-2.37,.79,.16,1.14,1.03,1.58,1.97,.71,1.58,.35,2.33,.43,4.73,0,.51,.39,1.7,.39,1.97,.79,1.85,1.58,3.67,2.41,5.52,0-1.03,.12-2.6,.79-4.34,.24-.63,1.46-3.71,4.69-5.96,.67-.43,4.85-3.23,9.86-2.01,.87,.24,3.43,.87,5.13,3.12,.47,.67,1.26,1.74,1.14,3.16Z"/>
      <path class="cls-18" d="M13.17,245.76c-.04,.12-.08,.28-.16,.43-.16,.39-.63,.51-.99,.32l-.04-.04-1.22-.79-5.48-3.47c-.24-.16-.24-.51,0-.67,.83-.59,1.85-.91,3.16-.95,.32,0,.59,0,.87,.04,.47,.04,.95-.24,1.1-.71,.43-1.18,.83-3.12,1.1-2.48,.16,.39,.16,1.77,.04,3.12-.04,.39,.08,.75,.39,1.03l-.47,.32c-.24,.2-.43,.35-.63,.51-.43,.35-.67,.87-.67,1.42,0,.24,.04,.43,.12,.67,.24,.59,.79,1.03,1.42,1.1,0,0,1.46,.16,1.46,.16Z"/>
    </g>
    <g id="Layer_1-2-2" data-name="Layer 1-2">
      <path class="cls-20" d="M377.59,230.73c-.39-.24-.95-.08-1.14,.35-.32,.67-.47,1.42-.47,2.29,0,2.8-5.68,9.15-2.6,9.15,2.13,0,8.4-4.38,10.61-6.86,.32-.32,.24-.87-.16-1.06,0-.08-6.23-3.87-6.23-3.87h0Z"/>
      <path class="cls-6" d="M423.55,216.09c-.16,1.62-1.42,2.68-1.97,3.16-.67,.59-1.18,.79-1.97,1.18-1.93,.99-3.63,2.17-4.34,2.8-1.62,1.42-1.66,3.27-2.33,6.71-.87,4.42-2.56,8.44-4.5,10.85-3.16,3.94-4.46,4.73-8.44,6.55-5.05,2.29-7.49,2.8-13.21,3.79-.08,0-2.76,.39-3.55,0-.24-.12-.83-.39-1.06-1.03-.04-.08-.16-.43-.12-.95,.04-.39,.2-.91,1.77-2.56,.71-.75,1.66-1.66,1.97-1.97,.04-.04,.24-.2,.47-.43,.16-.16,.28-.28,.32-.35-.32-.59-.55-1.22-.79-1.97-1.03-3.23-.51-6.19-.04-7.89l-.63-.04-1.46-.16c-.63-.08-1.18-.51-1.42-1.1-.08-.2-.12-.43-.12-.67,0-.55,.24-1.06,.67-1.42,.2-.12,.39-.32,.63-.51l.47-.32,3.87-2.48c.32-.2,.71-.59,.79-.79-.28-.2-1.06-.47-1.58-.79-2.33-1.46-2.72-2.05-3.55-2.76-1.5-1.26-1.93-2.05-1.97-2.76-.35-3.16,4.34-8.16,12.5-9.86,.91-1.66,2.17-2.6,3.16-2.37,.79,.16,1.14,1.03,1.58,1.97,.71,1.58,.35,2.33,.43,4.73,0,.51,.39,1.7,.39,1.97,.79,1.85,1.58,3.67,2.41,5.52,0-1.03,.12-2.6,.79-4.34,.24-.63,1.46-3.71,4.69-5.96,.67-.43,4.85-3.23,9.86-2.01,.87,.24,3.43,.87,5.13,3.12,.47,.67,1.26,1.74,1.14,3.16Z"/>
      <path class="cls-20" d="M385.13,233.92c-.04,.12-.08,.28-.16,.43-.16,.39-.63,.51-.99,.32l-.04-.04-1.22-.79-5.48-3.47c-.24-.16-.24-.51,0-.67,.83-.59,1.85-.91,3.16-.95,.32,0,.59,0,.87,.04,.47,.04,.95-.24,1.1-.71,.43-1.18,.83-3.12,1.1-2.48,.16,.39,.16,1.77,.04,3.12-.04,.39,.08,.75,.39,1.03l-.47,.32c-.24,.2-.43,.35-.63,.51-.43,.35-.67,.87-.67,1.42,0,.24,.04,.43,.12,.67,.24,.59,.79,1.03,1.42,1.1,0,0,1.46,.16,1.46,.16Z"/>
    </g>
    <g id="Layer_1-2-3" data-name="Layer 1-2">
      <path class="cls-24" d="M359.84,144.35c-.39-.24-.95-.08-1.14,.35-.32,.67-.47,1.42-.47,2.29,0,2.8-5.68,9.15-2.6,9.15,2.13,0,8.4-4.38,10.61-6.86,.32-.32,.24-.87-.16-1.06,0-.08-6.23-3.87-6.23-3.87h0Z"/>
      <path class="cls-2" d="M405.8,129.71c-.16,1.62-1.42,2.68-1.97,3.16-.67,.59-1.18,.79-1.97,1.18-1.93,.99-3.63,2.17-4.34,2.8-1.62,1.42-1.66,3.27-2.33,6.71-.87,4.42-2.56,8.44-4.5,10.85-3.16,3.94-4.46,4.73-8.44,6.55-5.05,2.29-7.49,2.8-13.21,3.79-.08,0-2.76,.39-3.55,0-.24-.12-.83-.39-1.06-1.03-.04-.08-.16-.43-.12-.95,.04-.39,.2-.91,1.77-2.56,.71-.75,1.66-1.66,1.97-1.97,.04-.04,.24-.2,.47-.43,.16-.16,.28-.28,.32-.35-.32-.59-.55-1.22-.79-1.97-1.03-3.23-.51-6.19-.04-7.89l-.63-.04-1.46-.16c-.63-.08-1.18-.51-1.42-1.1-.08-.2-.12-.43-.12-.67,0-.55,.24-1.06,.67-1.42,.2-.12,.39-.32,.63-.51l.47-.32,3.87-2.48c.32-.2,.71-.59,.79-.79-.28-.2-1.06-.47-1.58-.79-2.33-1.46-2.72-2.05-3.55-2.76-1.5-1.26-1.93-2.05-1.97-2.76-.35-3.16,4.34-8.16,12.5-9.86,.91-1.66,2.17-2.6,3.16-2.37,.79,.16,1.14,1.03,1.58,1.97,.71,1.58,.35,2.33,.43,4.73,0,.51,.39,1.7,.39,1.97,.79,1.85,1.58,3.67,2.41,5.52,0-1.03,.12-2.6,.79-4.34,.24-.63,1.46-3.71,4.69-5.96,.67-.43,4.85-3.23,9.86-2.01,.87,.24,3.43,.87,5.13,3.12,.47,.67,1.26,1.74,1.14,3.16Z"/>
      <path class="cls-24" d="M367.38,147.54c-.04,.12-.08,.28-.16,.43-.16,.39-.63,.51-.99,.32l-.04-.04-1.22-.79-5.48-3.47c-.24-.16-.24-.51,0-.67,.83-.59,1.85-.91,3.16-.95,.32,0,.59,0,.87,.04,.47,.04,.95-.24,1.1-.71,.43-1.18,.83-3.12,1.1-2.48,.16,.39,.16,1.77,.04,3.12-.04,.39,.08,.75,.39,1.03l-.47,.32c-.24,.2-.43,.35-.63,.51-.43,.35-.67,.87-.67,1.42,0,.24,.04,.43,.12,.67,.24,.59,.79,1.03,1.42,1.1,0,0,1.46,.16,1.46,.16Z"/>
    </g>
    <g id="Layer_1-2-4" data-name="Layer 1-2">
      <path class="cls-23" d="M281.35,78.08c-.39-.24-.95-.08-1.14,.35-.32,.67-.47,1.42-.47,2.29,0,2.8-5.68,9.15-2.6,9.15,2.13,0,8.4-4.38,10.61-6.86,.32-.32,.24-.87-.16-1.06,0-.08-6.23-3.87-6.23-3.87h0Z"/>
      <path class="cls-1" d="M327.3,63.45c-.16,1.62-1.42,2.68-1.97,3.16-.67,.59-1.18,.79-1.97,1.18-1.93,.99-3.63,2.17-4.34,2.8-1.62,1.42-1.66,3.27-2.33,6.71-.87,4.42-2.56,8.44-4.5,10.85-3.16,3.94-4.46,4.73-8.44,6.55-5.05,2.29-7.49,2.8-13.21,3.79-.08,0-2.76,.39-3.55,0-.24-.12-.83-.39-1.06-1.03-.04-.08-.16-.43-.12-.95,.04-.39,.2-.91,1.77-2.56,.71-.75,1.66-1.66,1.97-1.97,.04-.04,.24-.2,.47-.43,.16-.16,.28-.28,.32-.35-.32-.59-.55-1.22-.79-1.97-1.03-3.23-.51-6.19-.04-7.89l-.63-.04-1.46-.16c-.63-.08-1.18-.51-1.42-1.1-.08-.2-.12-.43-.12-.67,0-.55,.24-1.06,.67-1.42,.2-.12,.39-.32,.63-.51l.47-.32,3.87-2.48c.32-.2,.71-.59,.79-.79-.28-.2-1.06-.47-1.58-.79-2.33-1.46-2.72-2.05-3.55-2.76-1.5-1.26-1.93-2.05-1.97-2.76-.35-3.16,4.34-8.16,12.5-9.86,.91-1.66,2.17-2.6,3.16-2.37,.79,.16,1.14,1.03,1.58,1.97,.71,1.58,.35,2.33,.43,4.73,0,.51,.39,1.7,.39,1.97,.79,1.85,1.58,3.67,2.41,5.52,0-1.03,.12-2.6,.79-4.34,.24-.63,1.46-3.71,4.69-5.96,.67-.43,4.85-3.23,9.86-2.01,.87,.24,3.43,.87,5.13,3.12,.47,.67,1.26,1.74,1.14,3.16Z"/>
      <path class="cls-23" d="M288.88,81.27c-.04,.12-.08,.28-.16,.43-.16,.39-.63,.51-.99,.32l-.04-.04-1.22-.79-5.48-3.47c-.24-.16-.24-.51,0-.67,.83-.59,1.85-.91,3.16-.95,.32,0,.59,0,.87,.04,.47,.04,.95-.24,1.1-.71,.43-1.18,.83-3.12,1.1-2.48,.16,.39,.16,1.77,.04,3.12-.04,.39,.08,.75,.39,1.03l-.47,.32c-.24,.2-.43,.35-.63,.51-.43,.35-.67,.87-.67,1.42,0,.24,.04,.43,.12,.67,.24,.59,.79,1.03,1.42,1.1,0,0,1.46,.16,1.46,.16Z"/>
    </g>
    <g id="Layer_1-2-5" data-name="Layer 1-2">
      <path class="cls-25" d="M160.83,54.4c-.94-.56-2.26-.19-2.73,.85-.75,1.6-1.13,3.38-1.13,5.45,0,6.67-13.53,21.8-6.2,21.8,5.07,0,20.02-10.43,25.28-16.35,.75-.75,.56-2.07-.38-2.54,0-.19-14.85-9.21-14.85-9.21h0Z"/>
      <path class="cls-3" d="M270.3,19.54c-.38,3.85-3.38,6.39-4.7,7.52-1.6,1.41-2.82,1.88-4.7,2.82-4.6,2.35-8.65,5.17-10.34,6.67-3.85,3.38-3.95,7.8-5.54,15.98-2.07,10.52-6.11,20.11-10.71,25.84-7.52,9.4-10.62,11.28-20.11,15.6-12.03,5.45-17.85,6.67-31.48,9.02-.19,0-6.58,.94-8.46,0-.56-.28-1.97-.94-2.54-2.44-.09-.19-.38-1.03-.28-2.26,.09-.94,.47-2.16,4.23-6.11,1.69-1.79,3.95-3.95,4.7-4.7,.09-.09,.56-.47,1.13-1.03,.38-.38,.66-.66,.75-.85-.75-1.41-1.32-2.91-1.88-4.7-2.44-7.71-1.22-14.75-.09-18.79l-1.5-.09-3.48-.38c-1.5-.19-2.82-1.22-3.38-2.63-.19-.47-.28-1.03-.28-1.6,0-1.32,.56-2.54,1.6-3.38,.47-.28,.94-.75,1.5-1.22l1.13-.75,9.21-5.92c.75-.47,1.69-1.41,1.88-1.88-.66-.47-2.54-1.13-3.76-1.88-5.54-3.48-6.48-4.89-8.46-6.58-3.57-3.01-4.6-4.89-4.7-6.58-.85-7.52,10.34-19.45,29.79-23.49,2.16-3.95,5.17-6.2,7.52-5.64,1.88,.38,2.73,2.44,3.76,4.7,1.69,3.76,.85,5.54,1.03,11.28,0,1.22,.94,4.04,.94,4.7,1.88,4.42,3.76,8.74,5.73,13.16,0-2.44,.28-6.2,1.88-10.34,.56-1.5,3.48-8.83,11.18-14.19,1.6-1.03,11.56-7.71,23.49-4.79,2.07,.56,8.18,2.07,12.22,7.42,1.13,1.6,3.01,4.13,2.73,7.52Z"/>
      <path class="cls-25" d="M178.78,62.01c-.09,.28-.19,.66-.38,1.03-.38,.94-1.5,1.22-2.35,.75l-.09-.09-2.91-1.88-13.06-8.27c-.56-.38-.56-1.22,0-1.6,1.97-1.41,4.42-2.16,7.52-2.26,.75,0,1.41,0,2.07,.09,1.13,.09,2.26-.56,2.63-1.69,1.03-2.82,1.97-7.42,2.63-5.92,.38,.94,.38,4.23,.09,7.42-.09,.94,.19,1.79,.94,2.44l-1.13,.75c-.56,.47-1.03,.85-1.5,1.22-1.03,.85-1.6,2.07-1.6,3.38,0,.56,.09,1.03,.28,1.6,.56,1.41,1.88,2.44,3.38,2.63,0,0,3.48,.38,3.48,.38Z"/>
    </g>
    <g id="Layer_1-2-6" data-name="Layer 1-2">
      <path class="cls-19" d="M86.49,77.68c-.39-.24-.95-.08-1.14,.35-.32,.67-.47,1.42-.47,2.29,0,2.8-5.68,9.15-2.6,9.15,2.13,0,8.4-4.38,10.61-6.86,.32-.32,.24-.87-.16-1.06,0-.08-6.23-3.87-6.23-3.87h0Z"/>
      <path class="cls-7" d="M132.45,63.05c-.16,1.62-1.42,2.68-1.97,3.16-.67,.59-1.18,.79-1.97,1.18-1.93,.99-3.63,2.17-4.34,2.8-1.62,1.42-1.66,3.27-2.33,6.71-.87,4.42-2.56,8.44-4.5,10.85-3.16,3.94-4.46,4.73-8.44,6.55-5.05,2.29-7.49,2.8-13.21,3.79-.08,0-2.76,.39-3.55,0-.24-.12-.83-.39-1.06-1.03-.04-.08-.16-.43-.12-.95,.04-.39,.2-.91,1.77-2.56,.71-.75,1.66-1.66,1.97-1.97,.04-.04,.24-.2,.47-.43,.16-.16,.28-.28,.32-.35-.32-.59-.55-1.22-.79-1.97-1.03-3.23-.51-6.19-.04-7.89l-.63-.04-1.46-.16c-.63-.08-1.18-.51-1.42-1.1-.08-.2-.12-.43-.12-.67,0-.55,.24-1.06,.67-1.42,.2-.12,.39-.32,.63-.51l.47-.32,3.87-2.48c.32-.2,.71-.59,.79-.79-.28-.2-1.06-.47-1.58-.79-2.33-1.46-2.72-2.05-3.55-2.76-1.5-1.26-1.93-2.05-1.97-2.76-.35-3.16,4.34-8.16,12.5-9.86,.91-1.66,2.17-2.6,3.16-2.37,.79,.16,1.14,1.03,1.58,1.97,.71,1.58,.35,2.33,.43,4.73,0,.51,.39,1.7,.39,1.97,.79,1.85,1.58,3.67,2.41,5.52,0-1.03,.12-2.6,.79-4.34,.24-.63,1.46-3.71,4.69-5.96,.67-.43,4.85-3.23,9.86-2.01,.87,.24,3.43,.87,5.13,3.12,.47,.67,1.26,1.74,1.14,3.16Z"/>
      <path class="cls-19" d="M94.03,80.88c-.04,.12-.08,.28-.16,.43-.16,.39-.63,.51-.99,.32l-.04-.04-1.22-.79-5.48-3.47c-.24-.16-.24-.51,0-.67,.83-.59,1.85-.91,3.16-.95,.32,0,.59,0,.87,.04,.47,.04,.95-.24,1.1-.71,.43-1.18,.83-3.12,1.1-2.48,.16,.39,.16,1.77,.04,3.12-.04,.39,.08,.75,.39,1.03l-.47,.32c-.24,.2-.43,.35-.63,.51-.43,.35-.67,.87-.67,1.42,0,.24,.04,.43,.12,.67,.24,.59,.79,1.03,1.42,1.1,0,0,1.46,.16,1.46,.16Z"/>
    </g>
    <g id="Layer_1-2-7" data-name="Layer 1-2">
      <path class="cls-22" d="M21.81,151.05c-.39-.24-.95-.08-1.14,.35-.32,.67-.47,1.42-.47,2.29,0,2.8-5.68,9.15-2.6,9.15,2.13,0,8.4-4.38,10.61-6.86,.32-.32,.24-.87-.16-1.06,0-.08-6.23-3.87-6.23-3.87h0Z"/>
      <path class="cls-10" d="M67.76,136.42c-.16,1.62-1.42,2.68-1.97,3.16-.67,.59-1.18,.79-1.97,1.18-1.93,.99-3.63,2.17-4.34,2.8-1.62,1.42-1.66,3.27-2.33,6.71-.87,4.42-2.56,8.44-4.5,10.85-3.16,3.94-4.46,4.73-8.44,6.55-5.05,2.29-7.49,2.8-13.21,3.79-.08,0-2.76,.39-3.55,0-.24-.12-.83-.39-1.06-1.03-.04-.08-.16-.43-.12-.95,.04-.39,.2-.91,1.77-2.56,.71-.75,1.66-1.66,1.97-1.97,.04-.04,.24-.2,.47-.43,.16-.16,.28-.28,.32-.35-.32-.59-.55-1.22-.79-1.97-1.03-3.23-.51-6.19-.04-7.89l-.63-.04-1.46-.16c-.63-.08-1.18-.51-1.42-1.1-.08-.2-.12-.43-.12-.67,0-.55,.24-1.06,.67-1.42,.2-.12,.39-.32,.63-.51l.47-.32,3.87-2.48c.32-.2,.71-.59,.79-.79-.28-.2-1.06-.47-1.58-.79-2.33-1.46-2.72-2.05-3.55-2.76-1.5-1.26-1.93-2.05-1.97-2.76-.35-3.16,4.34-8.16,12.5-9.86,.91-1.66,2.17-2.6,3.16-2.37,.79,.16,1.14,1.03,1.58,1.97,.71,1.58,.35,2.33,.43,4.73,0,.51,.39,1.7,.39,1.97,.79,1.85,1.58,3.67,2.41,5.52,0-1.03,.12-2.6,.79-4.34,.24-.63,1.46-3.71,4.69-5.96,.67-.43,4.85-3.23,9.86-2.01,.87,.24,3.43,.87,5.13,3.12,.47,.67,1.26,1.74,1.14,3.16Z"/>
      <path class="cls-22" d="M29.34,154.25c-.04,.12-.08,.28-.16,.43-.16,.39-.63,.51-.99,.32l-.04-.04-1.22-.79-5.48-3.47c-.24-.16-.24-.51,0-.67,.83-.59,1.85-.91,3.16-.95,.32,0,.59,0,.87,.04,.47,.04,.95-.24,1.1-.71,.43-1.18,.83-3.12,1.1-2.48,.16,.39,.16,1.77,.04,3.12-.04,.39,.08,.75,.39,1.03l-.47,.32c-.24,.2-.43,.35-.63,.51-.43,.35-.67,.87-.67,1.42,0,.24,.04,.43,.12,.67,.24,.59,.79,1.03,1.42,1.1,0,0,1.46,.16,1.46,.16Z"/>
    </g>
    <g id="Layer_1-2-8" data-name="Layer 1-2">
      <path class="cls-14" d="M28.51,334.07c-.39-.24-.95-.08-1.14,.35-.32,.67-.47,1.42-.47,2.29,0,2.8-5.68,9.15-2.6,9.15,2.13,0,8.4-4.38,10.61-6.86,.32-.32,.24-.87-.16-1.06,0-.08-6.23-3.87-6.23-3.87h0Z"/>
      <path class="cls-11" d="M74.46,319.44c-.16,1.62-1.42,2.68-1.97,3.16-.67,.59-1.18,.79-1.97,1.18-1.93,.99-3.63,2.17-4.34,2.8-1.62,1.42-1.66,3.27-2.33,6.71-.87,4.42-2.56,8.44-4.5,10.85-3.16,3.94-4.46,4.73-8.44,6.55-5.05,2.29-7.49,2.8-13.21,3.79-.08,0-2.76,.39-3.55,0-.24-.12-.83-.39-1.06-1.03-.04-.08-.16-.43-.12-.95,.04-.39,.2-.91,1.77-2.56,.71-.75,1.66-1.66,1.97-1.97,.04-.04,.24-.2,.47-.43,.16-.16,.28-.28,.32-.35-.32-.59-.55-1.22-.79-1.97-1.03-3.23-.51-6.19-.04-7.89l-.63-.04-1.46-.16c-.63-.08-1.18-.51-1.42-1.1-.08-.2-.12-.43-.12-.67,0-.55,.24-1.06,.67-1.42,.2-.12,.39-.32,.63-.51l.47-.32,3.87-2.48c.32-.2,.71-.59,.79-.79-.28-.2-1.06-.47-1.58-.79-2.33-1.46-2.72-2.05-3.55-2.76-1.5-1.26-1.93-2.05-1.97-2.76-.35-3.16,4.34-8.16,12.5-9.86,.91-1.66,2.17-2.6,3.16-2.37,.79,.16,1.14,1.03,1.58,1.97,.71,1.58,.35,2.33,.43,4.73,0,.51,.39,1.7,.39,1.97,.79,1.85,1.58,3.67,2.41,5.52,0-1.03,.12-2.6,.79-4.34,.24-.63,1.46-3.71,4.69-5.96,.67-.43,4.85-3.23,9.86-2.01,.87,.24,3.43,.87,5.13,3.12,.47,.67,1.26,1.74,1.14,3.16Z"/>
      <path class="cls-14" d="M36.05,337.27c-.04,.12-.08,.28-.16,.43-.16,.39-.63,.51-.99,.32l-.04-.04-1.22-.79-5.48-3.47c-.24-.16-.24-.51,0-.67,.83-.59,1.85-.91,3.16-.95,.32,0,.59,0,.87,.04,.47,.04,.95-.24,1.1-.71,.43-1.18,.83-3.12,1.1-2.48,.16,.39,.16,1.77,.04,3.12-.04,.39,.08,.75,.39,1.03l-.47,.32c-.24,.2-.43,.35-.63,.51-.43,.35-.67,.87-.67,1.42,0,.24,.04,.43,.12,.67,.24,.59,.79,1.03,1.42,1.1,0,0,1.46,.16,1.46,.16Z"/>
    </g>
    <g id="Layer_1-2-9" data-name="Layer 1-2">
      <path class="cls-16" d="M93.59,392.05c-.39-.24-.95-.08-1.14,.35-.32,.67-.47,1.42-.47,2.29,0,2.8-5.68,9.15-2.6,9.15,2.13,0,8.4-4.38,10.61-6.86,.32-.32,.24-.87-.16-1.06,0-.08-6.23-3.87-6.23-3.87h0Z"/>
      <path class="cls-4" d="M139.55,377.42c-.16,1.62-1.42,2.68-1.97,3.16-.67,.59-1.18,.79-1.97,1.18-1.93,.99-3.63,2.17-4.34,2.8-1.62,1.42-1.66,3.27-2.33,6.71-.87,4.42-2.56,8.44-4.5,10.85-3.16,3.94-4.46,4.73-8.44,6.55-5.05,2.29-7.49,2.8-13.21,3.79-.08,0-2.76,.39-3.55,0-.24-.12-.83-.39-1.06-1.03-.04-.08-.16-.43-.12-.95,.04-.39,.2-.91,1.77-2.56,.71-.75,1.66-1.66,1.97-1.97,.04-.04,.24-.2,.47-.43,.16-.16,.28-.28,.32-.35-.32-.59-.55-1.22-.79-1.97-1.03-3.23-.51-6.19-.04-7.89l-.63-.04-1.46-.16c-.63-.08-1.18-.51-1.42-1.1-.08-.2-.12-.43-.12-.67,0-.55,.24-1.06,.67-1.42,.2-.12,.39-.32,.63-.51l.47-.32,3.87-2.48c.32-.2,.71-.59,.79-.79-.28-.2-1.06-.47-1.58-.79-2.33-1.46-2.72-2.05-3.55-2.76-1.5-1.26-1.93-2.05-1.97-2.76-.35-3.16,4.34-8.16,12.5-9.86,.91-1.66,2.17-2.6,3.16-2.37,.79,.16,1.14,1.03,1.58,1.97,.71,1.58,.35,2.33,.43,4.73,0,.51,.39,1.7,.39,1.97,.79,1.85,1.58,3.67,2.41,5.52,0-1.03,.12-2.6,.79-4.34,.24-.63,1.46-3.71,4.69-5.96,.67-.43,4.85-3.23,9.86-2.01,.87,.24,3.43,.87,5.13,3.12,.47,.67,1.26,1.74,1.14,3.16Z"/>
      <path class="cls-16" d="M101.13,395.25c-.04,.12-.08,.28-.16,.43-.16,.39-.63,.51-.99,.32l-.04-.04-1.22-.79-5.48-3.47c-.24-.16-.24-.51,0-.67,.83-.59,1.85-.91,3.16-.95,.32,0,.59,0,.87,.04,.47,.04,.95-.24,1.1-.71,.43-1.18,.83-3.12,1.1-2.48,.16,.39,.16,1.77,.04,3.12-.04,.39,.08,.75,.39,1.03l-.47,.32c-.24,.2-.43,.35-.63,.51-.43,.35-.67,.87-.67,1.42,0,.24,.04,.43,.12,.67,.24,.59,.79,1.03,1.42,1.1,0,0,1.46,.16,1.46,.16Z"/>
    </g>
    <g id="Layer_1-2-10" data-name="Layer 1-2">
      <path class="cls-15" d="M159.59,423.91c-.91-.55-2.18-.18-2.64,.82-.73,1.55-1.09,3.28-1.09,5.28,0,6.46-13.11,21.12-6.01,21.12,4.92,0,19.39-10.1,24.49-15.84,.73-.73,.55-2-.36-2.46,0-.18-14.38-8.92-14.38-8.92h0Z"/>
      <path class="cls-5" d="M265.64,390.14c-.36,3.73-3.28,6.19-4.55,7.28-1.55,1.37-2.73,1.82-4.55,2.73-4.46,2.28-8.37,5.01-10.01,6.46-3.73,3.28-3.82,7.56-5.37,15.48-2,10.2-5.92,19.48-10.38,25.03-7.28,9.1-10.29,10.92-19.48,15.11-11.65,5.28-17.3,6.46-30.49,8.74-.18,0-6.37,.91-8.19,0-.55-.27-1.91-.91-2.46-2.37-.09-.18-.36-1-.27-2.18,.09-.91,.46-2.09,4.1-5.92,1.64-1.73,3.82-3.82,4.55-4.55,.09-.09,.55-.46,1.09-1,.36-.36,.64-.64,.73-.82-.73-1.37-1.27-2.82-1.82-4.55-2.37-7.46-1.18-14.29-.09-18.21l-1.46-.09-3.37-.36c-1.46-.18-2.73-1.18-3.28-2.55-.18-.46-.27-1-.27-1.55,0-1.27,.55-2.46,1.55-3.28,.46-.27,.91-.73,1.46-1.18l1.09-.73,8.92-5.73c.73-.46,1.64-1.37,1.82-1.82-.64-.46-2.46-1.09-3.64-1.82-5.37-3.37-6.28-4.73-8.19-6.37-3.46-2.91-4.46-4.73-4.55-6.37-.82-7.28,10.01-18.84,28.86-22.76,2.09-3.82,5.01-6.01,7.28-5.46,1.82,.36,2.64,2.37,3.64,4.55,1.64,3.64,.82,5.37,1,10.92,0,1.18,.91,3.91,.91,4.55,1.82,4.28,3.64,8.47,5.55,12.74,0-2.37,.27-6.01,1.82-10.01,.55-1.46,3.37-8.56,10.83-13.75,1.55-1,11.2-7.46,22.76-4.64,2,.55,7.92,2,11.83,7.19,1.09,1.55,2.91,4.01,2.64,7.28Z"/>
      <path class="cls-15" d="M176.98,431.28c-.09,.27-.18,.64-.36,1-.36,.91-1.46,1.18-2.28,.73l-.09-.09-2.82-1.82-12.65-8.01c-.55-.36-.55-1.18,0-1.55,1.91-1.37,4.28-2.09,7.28-2.18,.73,0,1.37,0,2,.09,1.09,.09,2.18-.55,2.55-1.64,1-2.73,1.91-7.19,2.55-5.73,.36,.91,.36,4.1,.09,7.19-.09,.91,.18,1.73,.91,2.37l-1.09,.73c-.55,.46-1,.82-1.46,1.18-1,.82-1.55,2-1.55,3.28,0,.55,.09,1,.27,1.55,.55,1.37,1.82,2.37,3.28,2.55,0,0,3.37,.36,3.37,.36Z"/>
    </g>
    <g id="Layer_1-2-11" data-name="Layer 1-2">
      <path class="cls-21" d="M279.77,398.76c-.39-.24-.95-.08-1.14,.35-.32,.67-.47,1.42-.47,2.29,0,2.8-5.68,9.15-2.6,9.15,2.13,0,8.4-4.38,10.61-6.86,.32-.32,.24-.87-.16-1.06,0-.08-6.23-3.87-6.23-3.87h0Z"/>
      <path class="cls-13" d="M325.72,384.13c-.16,1.62-1.42,2.68-1.97,3.16-.67,.59-1.18,.79-1.97,1.18-1.93,.99-3.63,2.17-4.34,2.8-1.62,1.42-1.66,3.27-2.33,6.71-.87,4.42-2.56,8.44-4.5,10.85-3.16,3.94-4.46,4.73-8.44,6.55-5.05,2.29-7.49,2.8-13.21,3.79-.08,0-2.76,.39-3.55,0-.24-.12-.83-.39-1.06-1.03-.04-.08-.16-.43-.12-.95,.04-.39,.2-.91,1.77-2.56,.71-.75,1.66-1.66,1.97-1.97,.04-.04,.24-.2,.47-.43,.16-.16,.28-.28,.32-.35-.32-.59-.55-1.22-.79-1.97-1.03-3.23-.51-6.19-.04-7.89l-.63-.04-1.46-.16c-.63-.08-1.18-.51-1.42-1.1-.08-.2-.12-.43-.12-.67,0-.55,.24-1.06,.67-1.42,.2-.12,.39-.32,.63-.51l.47-.32,3.87-2.48c.32-.2,.71-.59,.79-.79-.28-.2-1.06-.47-1.58-.79-2.33-1.46-2.72-2.05-3.55-2.76-1.5-1.26-1.93-2.05-1.97-2.76-.35-3.16,4.34-8.16,12.5-9.86,.91-1.66,2.17-2.6,3.16-2.37,.79,.16,1.14,1.03,1.58,1.97,.71,1.58,.35,2.33,.43,4.73,0,.51,.39,1.7,.39,1.97,.79,1.85,1.58,3.67,2.41,5.52,0-1.03,.12-2.6,.79-4.34,.24-.63,1.46-3.71,4.69-5.96,.67-.43,4.85-3.23,9.86-2.01,.87,.24,3.43,.87,5.13,3.12,.47,.67,1.26,1.74,1.14,3.16Z"/>
      <path class="cls-21" d="M287.3,401.95c-.04,.12-.08,.28-.16,.43-.16,.39-.63,.51-.99,.32l-.04-.04-1.22-.79-5.48-3.47c-.24-.16-.24-.51,0-.67,.83-.59,1.85-.91,3.16-.95,.32,0,.59,0,.87,.04,.47,.04,.95-.24,1.1-.71,.43-1.18,.83-3.12,1.1-2.48,.16,.39,.16,1.77,.04,3.12-.04,.39,.08,.75,.39,1.03l-.47,.32c-.24,.2-.43,.35-.63,.51-.43,.35-.67,.87-.67,1.42,0,.24,.04,.43,.12,.67,.24,.59,.79,1.03,1.42,1.1,0,0,1.46,.16,1.46,.16Z"/>
    </g>
    <g id="Layer_1-2-12" data-name="Layer 1-2">
      <path class="cls-17" d="M351.95,332.89c-.39-.24-.95-.08-1.14,.35-.32,.67-.47,1.42-.47,2.29,0,2.8-5.68,9.15-2.6,9.15,2.13,0,8.4-4.38,10.61-6.86,.32-.32,.24-.87-.16-1.06,0-.08-6.23-3.87-6.23-3.87h0Z"/>
      <path class="cls-9" d="M397.91,318.25c-.16,1.62-1.42,2.68-1.97,3.16-.67,.59-1.18,.79-1.97,1.18-1.93,.99-3.63,2.17-4.34,2.8-1.62,1.42-1.66,3.27-2.33,6.71-.87,4.42-2.56,8.44-4.5,10.85-3.16,3.94-4.46,4.73-8.44,6.55-5.05,2.29-7.49,2.8-13.21,3.79-.08,0-2.76,.39-3.55,0-.24-.12-.83-.39-1.06-1.03-.04-.08-.16-.43-.12-.95,.04-.39,.2-.91,1.77-2.56,.71-.75,1.66-1.66,1.97-1.97,.04-.04,.24-.2,.47-.43,.16-.16,.28-.28,.32-.35-.32-.59-.55-1.22-.79-1.97-1.03-3.23-.51-6.19-.04-7.89l-.63-.04-1.46-.16c-.63-.08-1.18-.51-1.42-1.1-.08-.2-.12-.43-.12-.67,0-.55,.24-1.06,.67-1.42,.2-.12,.39-.32,.63-.51l.47-.32,3.87-2.48c.32-.2,.71-.59,.79-.79-.28-.2-1.06-.47-1.58-.79-2.33-1.46-2.72-2.05-3.55-2.76-1.5-1.26-1.93-2.05-1.97-2.76-.35-3.16,4.34-8.16,12.5-9.86,.91-1.66,2.17-2.6,3.16-2.37,.79,.16,1.14,1.03,1.58,1.97,.71,1.58,.35,2.33,.43,4.73,0,.51,.39,1.7,.39,1.97,.79,1.85,1.58,3.67,2.41,5.52,0-1.03,.12-2.6,.79-4.34,.24-.63,1.46-3.71,4.69-5.96,.67-.43,4.85-3.23,9.86-2.01,.87,.24,3.43,.87,5.13,3.12,.47,.67,1.26,1.74,1.14,3.16Z"/>
      <path class="cls-17" d="M359.49,336.08c-.04,.12-.08,.28-.16,.43-.16,.39-.63,.51-.99,.32l-.04-.04-1.22-.79-5.48-3.47c-.24-.16-.24-.51,0-.67,.83-.59,1.85-.91,3.16-.95,.32,0,.59,0,.87,.04,.47,.04,.95-.24,1.1-.71,.43-1.18,.83-3.12,1.1-2.48,.16,.39,.16,1.77,.04,3.12-.04,.39,.08,.75,.39,1.03l-.47,.32c-.24,.2-.43,.35-.63,.51-.43,.35-.67,.87-.67,1.42,0,.24,.04,.43,.12,.67,.24,.59,.79,1.03,1.42,1.1,0,0,1.46,.16,1.46,.16Z"/>
    </g>
    <g>
      <path class="cls-12" d="M93.62,234.88c.39,0,.74-.08,1.07-.24,.33-.16,.6-.38,.81-.66s.33-.6,.36-.96h1.56c-.03,.56-.22,1.09-.57,1.57-.35,.48-.81,.87-1.37,1.17-.56,.29-1.18,.44-1.85,.44-.96,0-1.75-.22-2.37-.65s-1.09-1.02-1.4-1.74c-.31-.72-.46-1.51-.46-2.36v-.37c0-.86,.16-1.64,.47-2.36s.78-1.29,1.41-1.73c.63-.44,1.42-.65,2.36-.65,.74,0,1.4,.15,1.96,.45s1,.71,1.32,1.23c.32,.52,.49,1.11,.52,1.76h-1.56c-.03-.39-.14-.75-.33-1.07-.19-.32-.45-.58-.77-.77-.33-.19-.71-.29-1.14-.29-.66,0-1.18,.17-1.56,.51-.38,.34-.64,.77-.8,1.3-.16,.52-.23,1.06-.23,1.62v.37c0,.56,.08,1.1,.23,1.63s.42,.96,.8,1.3c.38,.34,.9,.51,1.57,.51Z"/>
      <path class="cls-12" d="M98.82,231.17c0-.92,.18-1.74,.53-2.47s.85-1.3,1.49-1.73c.64-.42,1.41-.64,2.29-.64s1.67,.21,2.32,.64c.65,.43,1.15,1,1.5,1.73,.35,.73,.52,1.55,.52,2.47v.2c0,.91-.17,1.74-.52,2.47-.35,.73-.85,1.3-1.49,1.73-.65,.42-1.42,.63-2.31,.63s-1.66-.21-2.31-.63-1.15-1-1.5-1.73c-.35-.73-.53-1.55-.53-2.47v-.2Zm1.64,.2c0,.63,.1,1.21,.3,1.74s.5,.96,.89,1.28c.4,.32,.9,.48,1.5,.48s1.09-.16,1.49-.48c.4-.32,.69-.75,.89-1.28s.3-1.11,.3-1.74v-.2c0-.63-.1-1.21-.3-1.74s-.5-.96-.9-1.29c-.4-.33-.9-.49-1.5-.49s-1.09,.16-1.49,.49c-.4,.32-.7,.75-.89,1.29s-.29,1.11-.29,1.74v.2Z"/>
      <path class="cls-12" d="M111.15,236.02h-1.64v-9.51h1.56l.09,1.89v7.62Zm-1.1-5.15c0-.87,.15-1.64,.44-2.32,.29-.68,.72-1.22,1.29-1.62,.57-.4,1.28-.59,2.13-.59s1.63,.26,2.21,.78,.87,1.38,.87,2.57v6.34h-1.64v-6.26c0-.5-.08-.9-.25-1.2-.17-.3-.4-.52-.71-.66-.3-.14-.66-.21-1.07-.21-.47,0-.87,.08-1.19,.25-.32,.17-.58,.4-.77,.7s-.33,.64-.42,1.02c-.08,.38-.13,.79-.13,1.22l-.76-.03Zm5.83-.54c0-.69,.15-1.34,.44-1.95,.29-.61,.72-1.1,1.28-1.48,.56-.38,1.25-.57,2.06-.57,.68,0,1.26,.12,1.73,.36s.83,.61,1.08,1.12,.37,1.16,.37,1.96v6.25h-1.64v-6.27c0-.53-.08-.95-.25-1.25-.17-.3-.4-.51-.7-.63s-.66-.18-1.07-.18c-.36,0-.67,.06-.94,.18-.27,.12-.5,.29-.69,.51-.19,.21-.33,.46-.42,.73-.1,.28-.15,.57-.15,.88l-1.1,.33Z"/>
      <path class="cls-12" d="M126.93,239.68h-1.64v-13.17h1.49l.15,1.83v11.34Zm6.4-8.31c0,.93-.14,1.75-.43,2.48s-.71,1.3-1.25,1.72c-.55,.42-1.21,.63-2,.63s-1.5-.18-2.05-.53-.98-.85-1.29-1.5-.51-1.41-.61-2.3v-1.02c.09-.93,.3-1.73,.61-2.41s.74-1.19,1.29-1.56c.55-.37,1.22-.55,2.02-.55s1.47,.2,2.02,.61,.97,.97,1.26,1.7c.29,.73,.43,1.58,.43,2.54v.18Zm-1.64-.18c0-.63-.09-1.21-.27-1.74-.18-.53-.46-.95-.84-1.27-.38-.32-.86-.47-1.45-.47-.4,0-.76,.07-1.05,.21s-.55,.33-.76,.57c-.21,.24-.38,.51-.51,.81-.13,.3-.23,.61-.29,.94v2.29c.12,.41,.28,.8,.49,1.16,.21,.36,.49,.65,.83,.88s.79,.33,1.32,.33c.59,0,1.07-.16,1.44-.48s.65-.75,.83-1.28c.18-.53,.27-1.11,.27-1.75v-.18Z"/>
      <path class="cls-12" d="M137.18,236.02h-1.64v-13.5h1.64v13.5Z"/>
      <path class="cls-12" d="M143.73,236.2c-.88,0-1.65-.2-2.31-.59-.65-.39-1.16-.94-1.52-1.63-.36-.69-.54-1.48-.54-2.37v-.38c0-1.03,.2-1.91,.59-2.64,.4-.73,.91-1.29,1.55-1.67s1.31-.58,2.02-.58c.91,0,1.66,.2,2.24,.61s1,.96,1.28,1.66c.27,.7,.41,1.49,.41,2.38v.73h-7.1v-1.32h5.46v-.12c-.02-.42-.11-.83-.25-1.23s-.38-.73-.7-.99c-.32-.26-.76-.39-1.32-.39-.49,0-.93,.14-1.3,.42-.38,.28-.67,.68-.89,1.21s-.32,1.18-.32,1.94v.38c0,.6,.11,1.15,.33,1.65,.22,.5,.54,.89,.97,1.19s.93,.44,1.51,.44,1.06-.12,1.46-.35,.75-.55,1.05-.94l.99,.77c-.3,.47-.74,.89-1.31,1.27-.57,.38-1.33,.57-2.27,.57Z"/>
      <path class="cls-12" d="M150.96,236.02h-1.64v-9.51h1.56l.09,1.89v7.62Zm-1.1-5.15c0-.87,.15-1.64,.44-2.32,.29-.68,.72-1.22,1.29-1.62,.57-.4,1.28-.59,2.13-.59s1.63,.26,2.21,.78,.87,1.38,.87,2.57v6.34h-1.64v-6.26c0-.5-.08-.9-.25-1.2-.17-.3-.4-.52-.71-.66-.3-.14-.66-.21-1.07-.21-.47,0-.87,.08-1.19,.25-.32,.17-.58,.4-.77,.7s-.33,.64-.42,1.02c-.08,.38-.13,.79-.13,1.22l-.76-.03Zm5.83-.54c0-.69,.15-1.34,.44-1.95,.29-.61,.72-1.1,1.28-1.48,.56-.38,1.25-.57,2.06-.57,.68,0,1.26,.12,1.73,.36s.83,.61,1.08,1.12,.37,1.16,.37,1.96v6.25h-1.64v-6.27c0-.53-.08-.95-.25-1.25-.17-.3-.4-.51-.7-.63s-.66-.18-1.07-.18c-.36,0-.67,.06-.94,.18-.27,.12-.5,.29-.69,.51-.19,.21-.33,.46-.42,.73-.1,.28-.15,.57-.15,.88l-1.1,.33Z"/>
      <path class="cls-12" d="M169.06,236.2c-.88,0-1.65-.2-2.31-.59-.65-.39-1.16-.94-1.52-1.63-.36-.69-.54-1.48-.54-2.37v-.38c0-1.03,.2-1.91,.59-2.64,.4-.73,.91-1.29,1.55-1.67s1.31-.58,2.02-.58c.91,0,1.66,.2,2.24,.61s1,.96,1.28,1.66c.27,.7,.41,1.49,.41,2.38v.73h-7.1v-1.32h5.46v-.12c-.02-.42-.11-.83-.25-1.23s-.38-.73-.7-.99c-.32-.26-.76-.39-1.32-.39-.49,0-.93,.14-1.3,.42-.38,.28-.67,.68-.89,1.21s-.32,1.18-.32,1.94v.38c0,.6,.11,1.15,.33,1.65,.22,.5,.54,.89,.97,1.19s.93,.44,1.51,.44,1.06-.12,1.46-.35,.75-.55,1.05-.94l.99,.77c-.3,.47-.74,.89-1.31,1.27-.57,.38-1.33,.57-2.27,.57Z"/>
      <path class="cls-12" d="M176.3,236.02h-1.64v-9.51h1.56l.09,2.03v7.48Zm-1.07-5.15c.01-.87,.18-1.64,.5-2.32s.77-1.22,1.35-1.62c.58-.4,1.25-.59,2.02-.59,.63,0,1.17,.12,1.62,.35,.45,.23,.8,.6,1.05,1.1,.25,.5,.37,1.17,.37,2v6.23h-1.64v-6.25c0-.5-.07-.9-.22-1.2s-.36-.53-.64-.66c-.28-.14-.63-.21-1.04-.21s-.77,.08-1.1,.25-.61,.4-.85,.7-.42,.64-.55,1.02c-.13,.38-.19,.79-.19,1.22l-.69-.03Z"/>
      <path class="cls-12" d="M188.6,227.75h-5.15v-1.24h5.15v1.24Zm-1.78-3.55v9.47c0,.33,.05,.57,.15,.74s.23,.27,.39,.33,.33,.08,.51,.08c.13,0,.28-.01,.43-.04,.15-.02,.26-.04,.33-.06v1.31c-.12,.04-.29,.08-.5,.12-.21,.04-.46,.06-.75,.06-.4,0-.76-.08-1.1-.24s-.6-.42-.8-.8c-.2-.37-.3-.87-.3-1.51v-9.46h1.64Z"/>
      <path class="cls-12" d="M196.39,231.4h-1.63c-.93,0-1.64,.15-2.14,.44s-.76,.73-.76,1.32c0,.46,.15,.84,.46,1.16,.31,.32,.76,.47,1.35,.47,.5,0,.94-.11,1.32-.32s.68-.47,.91-.78,.34-.61,.36-.9l.7,.78c-.04,.25-.15,.52-.33,.82s-.42,.58-.72,.86c-.3,.27-.66,.5-1.07,.68-.41,.18-.88,.27-1.39,.27-.64,0-1.21-.12-1.69-.37-.48-.25-.86-.59-1.12-1.02s-.4-.9-.4-1.42c0-1.03,.39-1.8,1.16-2.33,.77-.53,1.81-.79,3.12-.79h1.88l.02,1.14Zm-.3-1.9c0-.57-.17-1.02-.51-1.36s-.83-.51-1.49-.51c-.4,0-.76,.07-1.07,.21-.31,.14-.55,.33-.72,.55s-.25,.48-.25,.75h-1.64c0-.46,.16-.9,.47-1.33,.31-.43,.75-.78,1.31-1.06s1.23-.42,2-.42c.69,0,1.3,.12,1.84,.35s.95,.59,1.25,1.06c.3,.47,.45,1.06,.45,1.77v4.43c0,.32,.03,.65,.08,1.01s.14,.67,.25,.92v.14h-1.71c-.08-.19-.15-.44-.19-.75-.05-.31-.07-.6-.07-.87v-4.9Z"/>
      <path class="cls-12" d="M201.93,236.02h-1.64v-9.51h1.6l.04,1.49v8.02Zm2.96-8.06c-.14-.03-.27-.05-.39-.06-.12,0-.26-.01-.41-.01-.5,0-.92,.1-1.26,.31-.34,.21-.61,.49-.8,.85-.19,.36-.3,.77-.35,1.24l-.47,.26c0-.77,.1-1.47,.31-2.1s.53-1.15,.96-1.53,1-.58,1.68-.58c.11,0,.24,.01,.4,.04,.15,.03,.26,.05,.32,.08v1.5Z"/>
      <path class="cls-12" d="M209.59,233.91l.42,1.71-1.18,.59-3.49-9.69h1.79l2.45,7.39Zm2.11-7.39h1.75l-3.81,10.98c-.09,.23-.2,.49-.35,.76-.14,.27-.32,.53-.54,.78-.22,.25-.49,.45-.8,.6s-.69,.23-1.12,.23c-.09,0-.19,0-.32-.03s-.24-.04-.35-.06c-.11-.02-.2-.04-.25-.06v-1.31s.12,.01,.22,.03c.1,.01,.17,.02,.21,.02,.55,0,.98-.11,1.29-.34s.56-.64,.76-1.22l.68-1.85,2.65-8.53Z"/>
      <path class="cls-12" d="M223.18,234.88c.39,0,.74-.08,1.07-.24,.33-.16,.6-.38,.81-.66s.33-.6,.36-.96h1.56c-.03,.56-.22,1.09-.57,1.57-.35,.48-.81,.87-1.37,1.17-.56,.29-1.18,.44-1.85,.44-.96,0-1.75-.22-2.37-.65s-1.09-1.02-1.4-1.74c-.31-.72-.46-1.51-.46-2.36v-.37c0-.86,.16-1.64,.47-2.36s.78-1.29,1.41-1.73c.63-.44,1.42-.65,2.36-.65,.74,0,1.4,.15,1.96,.45s1,.71,1.32,1.23c.32,.52,.49,1.11,.52,1.76h-1.56c-.03-.39-.14-.75-.33-1.07-.19-.32-.45-.58-.77-.77-.33-.19-.71-.29-1.14-.29-.66,0-1.18,.17-1.56,.51-.38,.34-.64,.77-.8,1.3-.16,.52-.23,1.06-.23,1.62v.37c0,.56,.08,1.1,.23,1.63s.42,.96,.8,1.3c.38,.34,.9,.51,1.57,.51Z"/>
      <path class="cls-12" d="M228.38,231.17c0-.92,.18-1.74,.53-2.47s.85-1.3,1.49-1.73c.64-.42,1.41-.64,2.29-.64s1.67,.21,2.32,.64c.65,.43,1.15,1,1.5,1.73,.35,.73,.52,1.55,.52,2.47v.2c0,.91-.17,1.74-.52,2.47-.35,.73-.85,1.3-1.49,1.73-.65,.42-1.42,.63-2.31,.63s-1.66-.21-2.31-.63-1.15-1-1.5-1.73c-.35-.73-.53-1.55-.53-2.47v-.2Zm1.64,.2c0,.63,.1,1.21,.3,1.74s.5,.96,.89,1.28c.4,.32,.9,.48,1.5,.48s1.09-.16,1.49-.48c.4-.32,.69-.75,.89-1.28s.3-1.11,.3-1.74v-.2c0-.63-.1-1.21-.3-1.74s-.5-.96-.9-1.29c-.4-.33-.9-.49-1.5-.49s-1.09,.16-1.49,.49c-.4,.32-.7,.75-.89,1.29s-.29,1.11-.29,1.74v.2Z"/>
      <path class="cls-12" d="M240.86,236.02h-1.64v-13.5h1.64v13.5Z"/>
      <path class="cls-12" d="M243.03,231.17c0-.92,.18-1.74,.53-2.47s.85-1.3,1.49-1.73c.64-.42,1.41-.64,2.29-.64s1.67,.21,2.32,.64c.65,.43,1.15,1,1.5,1.73,.35,.73,.52,1.55,.52,2.47v.2c0,.91-.17,1.74-.52,2.47-.35,.73-.85,1.3-1.49,1.73-.65,.42-1.42,.63-2.31,.63s-1.66-.21-2.31-.63-1.15-1-1.5-1.73c-.35-.73-.53-1.55-.53-2.47v-.2Zm1.64,.2c0,.63,.1,1.21,.3,1.74s.5,.96,.89,1.28c.4,.32,.9,.48,1.5,.48s1.09-.16,1.49-.48c.4-.32,.69-.75,.89-1.28s.3-1.11,.3-1.74v-.2c0-.63-.1-1.21-.3-1.74s-.5-.96-.9-1.29c-.4-.33-.9-.49-1.5-.49s-1.09,.16-1.49,.49c-.4,.32-.7,.75-.89,1.29s-.29,1.11-.29,1.74v.2Z"/>
      <path class="cls-12" d="M260.54,231.8c0,.84-.12,1.6-.36,2.26s-.63,1.18-1.18,1.56-1.27,.57-2.19,.57-1.68-.28-2.26-.83-.86-1.46-.86-2.72v-6.13h1.64v6.15c0,.57,.08,1.02,.25,1.33,.17,.31,.38,.53,.65,.65,.27,.12,.55,.18,.84,.18,.69,0,1.24-.13,1.64-.4,.4-.27,.69-.63,.87-1.08s.26-.96,.26-1.52l.69-.02Zm-.99-5.29h1.64v9.51h-1.56l-.08-2.2v-7.31Z"/>
      <path class="cls-12" d="M265.29,236.02h-1.64v-9.51h1.6l.04,1.49v8.02Zm2.96-8.06c-.14-.03-.27-.05-.39-.06-.12,0-.26-.01-.41-.01-.5,0-.92,.1-1.26,.31-.34,.21-.61,.49-.8,.85-.19,.36-.3,.77-.35,1.24l-.47,.26c0-.77,.1-1.47,.31-2.1s.53-1.15,.96-1.53,1-.58,1.68-.58c.11,0,.24,.01,.4,.04,.15,.03,.26,.05,.32,.08v1.5Z"/>
      <path class="cls-12" d="M279.75,233.5c0-.23-.05-.45-.15-.66-.1-.2-.31-.39-.62-.55-.31-.17-.78-.32-1.41-.44-.7-.15-1.31-.33-1.82-.56s-.91-.51-1.19-.87c-.28-.35-.42-.79-.42-1.31s.14-.96,.44-1.38c.29-.42,.7-.76,1.23-1.01,.53-.26,1.15-.38,1.86-.38,.76,0,1.41,.13,1.96,.4,.54,.27,.96,.62,1.24,1.07,.29,.45,.43,.94,.43,1.49h-1.64c0-.39-.17-.76-.51-1.12-.34-.35-.83-.53-1.47-.53-.45,0-.81,.07-1.08,.21-.28,.14-.48,.31-.61,.53s-.19,.44-.19,.67,.06,.44,.18,.61,.33,.33,.65,.46,.77,.27,1.37,.4c.78,.18,1.42,.39,1.92,.63s.88,.55,1.12,.91,.37,.79,.37,1.31c0,.55-.15,1.04-.46,1.46-.3,.43-.73,.76-1.28,.99-.55,.24-1.2,.36-1.94,.36-.84,0-1.55-.15-2.13-.45s-1.02-.68-1.32-1.16-.45-.97-.45-1.5h1.64c.03,.45,.16,.8,.39,1.06s.52,.45,.85,.56c.34,.11,.67,.17,1.01,.17,.45,0,.82-.06,1.12-.18,.3-.12,.53-.28,.69-.49,.15-.21,.23-.44,.23-.71Z"/>
      <path class="cls-12" d="M287.32,234.88c.39,0,.74-.08,1.07-.24,.33-.16,.6-.38,.81-.66s.33-.6,.36-.96h1.56c-.03,.56-.22,1.09-.57,1.57-.35,.48-.81,.87-1.37,1.17-.56,.29-1.18,.44-1.85,.44-.96,0-1.75-.22-2.37-.65s-1.09-1.02-1.4-1.74c-.31-.72-.46-1.51-.46-2.36v-.37c0-.86,.16-1.64,.47-2.36s.78-1.29,1.41-1.73c.63-.44,1.42-.65,2.36-.65,.74,0,1.4,.15,1.96,.45s1,.71,1.32,1.23c.32,.52,.49,1.11,.52,1.76h-1.56c-.03-.39-.14-.75-.33-1.07-.19-.32-.45-.58-.77-.77-.33-.19-.71-.29-1.14-.29-.66,0-1.18,.17-1.56,.51-.38,.34-.64,.77-.8,1.3-.16,.52-.23,1.06-.23,1.62v.37c0,.56,.08,1.1,.23,1.63s.42,.96,.8,1.3c.38,.34,.9,.51,1.57,.51Z"/>
      <path class="cls-12" d="M294.58,236.02h-1.64v-13.5h1.64v13.5Zm-1.07-5.15c.01-.87,.18-1.64,.5-2.32s.77-1.22,1.35-1.62c.58-.4,1.25-.59,2.02-.59,.63,0,1.17,.12,1.62,.35,.45,.23,.8,.6,1.05,1.1,.25,.5,.37,1.17,.37,2v6.23h-1.64v-6.25c0-.5-.07-.9-.22-1.2s-.36-.53-.64-.66c-.28-.14-.63-.21-1.04-.21s-.77,.08-1.1,.25-.61,.4-.85,.7-.42,.64-.55,1.02c-.13,.38-.19,.79-.19,1.22l-.69-.03Z"/>
      <path class="cls-12" d="M306.8,236.2c-.88,0-1.65-.2-2.31-.59-.65-.39-1.16-.94-1.52-1.63-.36-.69-.54-1.48-.54-2.37v-.38c0-1.03,.2-1.91,.59-2.64,.4-.73,.91-1.29,1.55-1.67s1.31-.58,2.02-.58c.91,0,1.66,.2,2.24,.61s1,.96,1.28,1.66c.27,.7,.41,1.49,.41,2.38v.73h-7.1v-1.32h5.46v-.12c-.02-.42-.11-.83-.25-1.23s-.38-.73-.7-.99c-.32-.26-.76-.39-1.32-.39-.49,0-.93,.14-1.3,.42-.38,.28-.67,.68-.89,1.21s-.32,1.18-.32,1.94v.38c0,.6,.11,1.15,.33,1.65,.22,.5,.54,.89,.97,1.19s.93,.44,1.51,.44,1.06-.12,1.46-.35,.75-.55,1.05-.94l.99,.77c-.3,.47-.74,.89-1.31,1.27-.57,.38-1.33,.57-2.27,.57Z"/>
      <path class="cls-12" d="M314.03,236.02h-1.64v-9.51h1.56l.09,1.89v7.62Zm-1.1-5.15c0-.87,.15-1.64,.44-2.32,.29-.68,.72-1.22,1.29-1.62,.57-.4,1.28-.59,2.13-.59s1.63,.26,2.21,.78,.87,1.38,.87,2.57v6.34h-1.64v-6.26c0-.5-.08-.9-.25-1.2-.17-.3-.4-.52-.71-.66-.3-.14-.66-.21-1.07-.21-.47,0-.87,.08-1.19,.25-.32,.17-.58,.4-.77,.7s-.33,.64-.42,1.02c-.08,.38-.13,.79-.13,1.22l-.76-.03Zm5.83-.54c0-.69,.15-1.34,.44-1.95,.29-.61,.72-1.1,1.28-1.48,.56-.38,1.25-.57,2.06-.57,.68,0,1.26,.12,1.73,.36s.83,.61,1.08,1.12,.37,1.16,.37,1.96v6.25h-1.64v-6.27c0-.53-.08-.95-.25-1.25-.17-.3-.4-.51-.7-.63s-.66-.18-1.07-.18c-.36,0-.67,.06-.94,.18-.27,.12-.5,.29-.69,.51-.19,.21-.33,.46-.42,.73-.1,.28-.15,.57-.15,.88l-1.1,.33Z"/>
      <path class="cls-12" d="M332.13,236.2c-.88,0-1.65-.2-2.31-.59-.65-.39-1.16-.94-1.52-1.63-.36-.69-.54-1.48-.54-2.37v-.38c0-1.03,.2-1.91,.59-2.64,.4-.73,.91-1.29,1.55-1.67s1.31-.58,2.02-.58c.91,0,1.66,.2,2.24,.61s1,.96,1.28,1.66c.27,.7,.41,1.49,.41,2.38v.73h-7.1v-1.32h5.46v-.12c-.02-.42-.11-.83-.25-1.23s-.38-.73-.7-.99c-.32-.26-.76-.39-1.32-.39-.49,0-.93,.14-1.3,.42-.38,.28-.67,.68-.89,1.21s-.32,1.18-.32,1.94v.38c0,.6,.11,1.15,.33,1.65,.22,.5,.54,.89,.97,1.19s.93,.44,1.51,.44,1.06-.12,1.46-.35,.75-.55,1.05-.94l.99,.77c-.3,.47-.74,.89-1.31,1.27-.57,.38-1.33,.57-2.27,.57Z"/>
    </g>
  </g>
</svg>