<?xml version="1.0" encoding="UTF-8"?>
<svg id="Layer_2" data-name="Layer 2" xmlns="http://www.w3.org/2000/svg" viewBox="0 0 386.95 328">
  <defs>
    <style>
      .cls-1 {
        fill: #cc7d3d;
      }

      .cls-2 {
        fill: #555e73;
      }
    </style>
  </defs>
  <g id="background">
    <g id="feet_through_the_door" data-name="feet through the door">
      <g>
        <path class="cls-2" d="M200.36,58.49c-5.38,1.07-10.77,2.13-16.15,3.2-.43-1.96,2.17-3.04,4.15-3.32,3.59-.51,7.18-1.01,10.76-1.52,10.33-1.46,6.97-24.41,22.61-17.68,1.51,.65,2.69,1.87,3.46,3.32,4.36,8.16,15.21,11.15,23.28,7.24,1.33-.64,2.9,.18,3.18,1.63,1.37,7.1,2.74,14.21,4.11,21.31,.17,.91,.35,1.85,.11,2.74-.61,2.3-3.43,3.05-5.78,3.39-20.35,2.94-40.88,4.64-61.44,5.07,2.99-2.75,7.45-2.93,11.51-3.04,17.61-.44,35.2-2.15,52.57-5.09,.4-.07,.85-.17,1.07-.51,.21-.32,.15-.73,.08-1.1-1.17-6.39-2.34-12.77-3.52-19.16-.15-.79-.33-1.65-.96-2.15-.67-.53-1.63-.47-2.48-.38-12.36,1.26-24.71,2.52-37.07,3.79,5.03-2.06,10.35-3.4,15.75-3.98,1.69-.18,2.6-2.12,1.63-3.51-1.76-2.53-3.83-4.86-6.13-6.91-.68-.6-1.62-.86-2.52-.71-8.53,1.43-7.11,11.82-12.96,15.62-1.56,1.01-3.43,1.39-5.25,1.75Z"/>
        <path class="cls-2" d="M242.26,59.55c2.1,1.58,2.08,4.68,1.85,7.3-.09,1-.34,2.22-1.3,2.5-.55,.16-1.13-.06-1.64-.3-1.38-.62-2.71-1.34-3.97-2.16-1.63-1.05-3.73,.26-3.5,2.19s.6,3.71,1.11,5.52c-.63,.83-2.06,.53-2.68-.31-.62-.84-.66-1.96-.68-3.01-.03-1.9-.06-3.79-.1-5.69,0-.45,.01-.92,.07-1.4,.23-1.83,2.5-2.69,3.82-1.39,.87,.85,1.84,1.59,2.88,2.21,1.38,.81,3.16-.12,3.33-1.71,.14-1.27,.42-2.53,.82-3.75Z"/>
        <path class="cls-2" d="M193.12,75.02c2.38,.49,3.93-2.75,1.87-4.05-.15-.09-.3-.17-.47-.23-1.63-.62-3.53,.08-4.78,1.29-.96-1.41,.02-3.54,1.62-4.13s3.44,.06,4.71,1.2c1.29,1.16,2.11,2.75,2.9,4.3,.49,.94,.26,2.11-.54,2.79-1.97,1.67-4.28,1.02-6.39,.37-.67-.2-1.37-.43-1.81-.97-.44-.54-.44-1.49,.17-1.82,.8,.62,1.74,1.04,2.72,1.24Z"/>
        <path class="cls-2" d="M183.51,69.3c.08-1.72,.38-3.77,1.95-4.47-.23,6.9-.17,13.82,.17,20.72-.58,.7-1.82,.37-2.32-.4-.5-.77-.47-1.75-.43-2.66,.21-4.4,.42-8.79,.63-13.19Z"/>
        <path class="cls-2" d="M218,65.67c-.32,.98-1,7,0,6,2-5,2.33-6.67,5-6,0-2-2.75-.23-4,0h-1Z"/>
        <path class="cls-2" d="M218.8,75.55c-.23-.34-.46-.69-.69-1.03,1.07-1.33,3.35-1.42,4.51-.17-.88,.94-2.33,1.3-3.55,.88l-.27,.31Z"/>
        <path class="cls-2" d="M204.17,65.37c1.88-.16,3.75-.31,5.63-.47,.3-.02,.61-.05,.89,.06,.93,.35,2.13,2.14,1.32,2.71,.04,1.85-2.96,3.1-4,3-.99-.03-3-1-3-1-1.61,1.94,1.51,4.85-.7,6.06-1.94-2.42-2.71-5.74-2.01-8.76,.11-.48,.28-.98,.68-1.27,.34-.25,.78-.29,1.2-.33Z"/>
        <path class="cls-2" d="M223.88,70.08c.32,.68-.62,1.29-1.37,1.27-.75-.02-1.59-.27-2.18,.19-.57,.44-.57,1.28-.71,1.99-.14,.71-.78,1.51-1.44,1.21-.9-1.44-.65-3.5,.58-4.68,1.23-1.18,3.29-1.35,4.7-.4,.16,.11,.33,.24,.41,.42Z"/>
      </g>
      <path class="cls-2" d="M72.07,132.65c1.86,1.04,3.8,2.17,4.78,3.89,.75,1.31,.85,2.82,.93,4.28,.98,16.58,1.97,33.15,2.95,49.73,.2,3.43-4.76,5-8.67,5.52-3.71,.49-7.43,.99-11.14,1.48-.96,.13-1.99,.25-2.87-.12-.88-.37-1.43-1.43-.81-2.09,2.22-2.39,1.89-5.81,1.45-8.85-3.23-22.27-6.47-44.54-9.7-66.81,7.69,4.33,15.38,8.65,23.07,12.98m-2.85,2.09c-5.92-3.82-11.83-7.64-17.75-11.45,5.27,23.1,8.68,46.53,10.2,70.04,.06,.96,1.64,1.07,2.72,.87,3.43-.62,6.86-1.24,10.29-1.86,1.1-.2,2.33-.48,2.85-1.35,.31-.52,.28-1.13,.25-1.71-.87-14.97-1.75-29.95-2.62-44.92-.11-1.91-.24-3.89-1.28-5.58-1.04-1.69-2.87-2.89-4.65-4.04Z"/>
    </g>
    <g id="feet_through_the_door_2" data-name="feet through the door 2">
      <path class="cls-2" d="M61.51,210.66c6.25-3.98,13.26-6.77,20.54-8.15,.81-.15,1.67-.29,2.45,0,1.59,.58,2.1,2.54,2.38,4.21,2.83,16.83,5.67,33.72,6.41,50.77,.21,4.92-4.47,8.47-8.63,11.09-6.84,4.31-13.68,8.62-20.52,12.93-.44,.28-.91,.57-1.43,.6-1.63,.11-2.32-2.03-2.46-3.66-1.88-22.02-3.75-44.03-5.63-66.05,2.22,1.12,4.79-.4,6.88-1.74m21.66,53.98c2.32-1.73,4.81-4,4.64-6.88-.95-16.16-2.84-32.26-5.67-48.2-.14-.79-.36-1.69-1.08-2.06-.59-.3-1.31-.12-1.94,.08-5.49,1.72-10.73,4.24-15.49,7.45-1.14,.77-2.39,1.84-2.27,3.21,1.2,14.11,2.39,28.23,3.59,42.35,.49,5.74,.86,11.94-2.23,16.8,7.15-3.68,14-7.95,20.45-12.75"/>
      <path class="cls-2" d="M134.29,72.9c-.06,1.34-.17,2.82-1.12,3.77-.86,.85-2.16,1.03-3.36,1.15-26.48,2.7-53.39,.34-79.68,4.51-2.7,.43-6.06,.66-7.57-1.62-.53-.8-.7-1.77-.87-2.72-1.43-8.14-1.27-13.18-2.69-21.32-.45-2.56-1-3-1-6,0-2-1-5-1-7,0-6,.31-9.92,0-14,5.13,1.83,4.8,12.33,4.98,17.77,.28,8.66,1.5,17.28,3.63,25.68,.27,1.07,.64,2.24,1.59,2.79,.68,.39,1.51,.37,2.29,.34,25.24-.95,50.48-1.9,75.72-2.85,1.25-.05,2.64-.16,3.48-1.09,.69-.77,.8-1.89,.86-2.93,.8-12.71,1.25-25.43,1.34-38.16,0-.84-.28-1.99-1.12-1.95-22.59,1.08-45.18,2.15-67.76,3.23-7.93,.38-13.16,1.34-21.01,.18-.74-.11-2.54,3.58-3,3-.46-.58-1.99-6.14-1.25-6.18,23.24-1.17,46.48-2.33,69.73-3.5,8.6-.43,19.01-1.05,27.52-2.32"/>
      <path class="cls-2" d="M50.19,102.14c28.57-1.5,57.13-2.99,85.7-4.49,3.15,22.46,4.15,45.21,2.97,67.86,1,.72,1.05,2.16,1.01,3.39-.52,15.82,.54,31.65,1.6,47.45,1.43,21.38,2.87,42.76,4.3,64.14,.16,2.41,.32,4.9-.44,7.19s-2.66,4.39-5.06,4.62c-28.53,2.74-57.31,5.54-84.61,14.26-2.4,.77-5.03-.89-6.22-3.11-1.19-2.22-1.3-4.84-1.38-7.35-1.97-62.78-3.93-125.56-5.9-188.34-.05-1.49-.08-3.07,.63-4.39,.71-1.32,2.43-2.21,3.74-1.5m55.07,160.29c-.6,1.51-.24,2.91-1.38,3.95-12.83,11.75-26.38,22.7-40.56,32.77,23.06-5,46.5-8.21,70.05-9.58,1.02-.06,2.07-.12,3.09-.28,2.02-.31,3.86-1.32,5.27-2.8h0c1.8-1.9,2.73-4.46,2.57-7.07-1.05-16.67-2.11-33.35-3.16-50.02-.45-7.17-.91-14.33-1.17-21.51-1.26-34.94,2.06-70.18-3.26-104.73-27.03-.47-53.69,10.16-80.57,7.2,8.83,2.83,17.66,5.67,26.5,8.5,1.58,.51,3.24,1.06,4.36,2.3,1.12,1.24,1.51,2.96,1.84,4.6,6.89,33.99,7.37,69.03,14.17,103.04m-1.02,24.43c-6.22-35.77-11.1-71.76-14.64-107.89-.35-3.61-.69-7.28-.09-10.85,.41-1.54-.59-5.54-.59-6.54,0-3-1-5-2-6-3.31-2.95-11.68-2.22-15.85-3.74-6.43-2.35-12.86-4.69-19.29-7.04,.95,28.82,1.9,57.64,2.85,86.46,.69,20.82,1.37,41.64,2.06,62.46,.22,6.73,.44,13.45,.66,20.18,.2,6.19,.55,12.8,4.23,17.78,12.53-10.43,25.05-20.86,37.58-31.28,2.08-1.73,4.25-3.59,5.13-6.15,.81-2.36,.38-4.93-.05-7.39"/>
      <path class="cls-2" d="M8.86,310.41C6.13,208.72,3.72,108.36,1,6.67c2.31,.32,3,0,6,0l23-1h6l26-1c98.26-.66,187.84-3.87,286.1-2.19,3.62,.06,7.4,.16,10.59,1.88,3.19,1.71,5.55,5.57,4.32,8.98,.41,24.09,.95,48.17,1.64,72.25,.19,6.8,.84,14.52,6.18,18.74,10.28,8.12,16.43,21.21,16.12,34.31-.31,13.09-7.08,25.88-17.74,33.5,7.46,21.16,7.76,44.07,7.98,66.5,.23,23.38,.45,46.77,.68,70.15-122.68,20.06-247.67,19.59-371.98,19.07,3.19-5.07,3.13-11.45,2.97-17.43M346,17.67c0,19,0,42,2,61-.5,4.91,1.29,9.99,3.08,14.59,1.79,4.6,7.27,8.2,11.71,6.03-1.08-29.84-2.16-59.68-3.24-89.52C240.89,3.76,121.94,3.42,3.25,8.75l.38,15.96q.37,1.96,.37,2.96c2.48,101.41,7.13,185.68,9.61,287.09,.05,2.17,.2,4.58,1.74,6.11,1.58,1.58,4.07,1.67,6.31,1.66,82.94-.31,165.87-1.86,248.76-4.65-2.05-6.32-5.22-12.27-9.32-17.5-8.85,.6-17.85-1.11-25.87-4.91-19.37-9.18-43.29,2.07-63.44-5.23-2.1-.76-4.25-1.82-5.41-3.72-1-1.63-1.13-3.63-1.23-5.54-4.35-82.89-8.7-165.78-13.05-248.67-.37-7.05,9.05-9.66,16.11-9.89,48.99-1.58,97.98-3.15,146.97-4.73m-111.62,167.32c-3.18-4.44-1.96-10.62,.16-15.65,5.66-13.4,17.02-24.28,30.65-29.35,5.54-2.06,11.77-3.43,15.64-7.9,2.4-2.78,3.68-6.56,6.68-8.68,3-2.12,8.68-.43,7.96,3.17-1.28,6.35,5.04,11.28,9.51,15.97,4.06,4.27,7.02,9.58,8.52,15.28,9.2-27.77,32.28-50.56,60.17-59.39,1.38-.44,1.54-2.3,1.44-3.74-1.39-19.8-2.78-39.6-4.17-59.4-.24-3.45-.55-8.82-2.57-11.63l-10.66,.04c-17.59-2.76-35.52-.31-53.31,.43-36.8,1.53-73.6,3.07-110.4,4.6l-3.17,.92c-1.85,2.38-2.32,4-2.55,7-1.46,18.99,.47,38.05,2.2,57.01,5.72,62.94,9.09,126.09,10.09,189.27,.05,3.04,4.01,4.12,7.05,4.28,14.91,.76,29.86,.83,44.78,.23-18.07-25.21-21.34-60.27-8.25-88.38,1.3-2.78-.52-6.07-2.82-8.1-2.3-2.03-5.16-3.49-6.95-5.98m77.98-10.6c1.87-10.48-2.02-21.81-9.94-28.92-5.52-4.96-9.36-11.75-10.76-19.04-7.65,2.77-10.52,13.66-18.51,15.22-7.89,1.55-14.87,6.29-20.43,12.1-5.56,5.81-9.87,12.67-14.14,19.49-.7,1.12-1.41,2.27-1.67,3.56-.63,3.23,1.73,6.25,4.21,8.4,8.83,7.64,20.67,10.6,32.02,13.31,2.35,.56,3.06,3.57,2.88,5.97s-.74,5.07,.65,7.04c1.51-3.96,4.91-7.15,8.96-8.39,.79-.24,1.63-.41,2.42-.19,1.99,.57,2.48,3.4,1.44,5.2-1.04,1.8-3,2.81-4.81,3.82-4.97,2.8-9.52,6.34-13.46,10.47-3.61,3.79-6.81,9.56-3.99,13.97,1.67,2.6,4.94,3.71,8.03,3.95,9.71,.76,18.6-5.07,26.42-10.88,1.32-.98,3.45-.52,4.25,.9,.8,1.43,.08,3.49-1.43,4.1-1.86,1.31-3.72,2.63-5.58,3.94-6.06,4.28-12.71,8.75-20.13,8.48-6.02-.21-11.79-3.86-14.56-9.2-2.78-5.34-2.44-12.16,.84-17.21,1.58-2.43,3.76-4.43,5.35-6.86,1.59-2.43,2.53-5.59,1.31-8.23-2.62-5.65-11.45-3.72-16.55-7.29-1.84-1.28-4.53-.45-6.01,1.24-1.48,1.68-2.04,3.96-2.52,6.15-3.99,17.86-6.51,36.68-1.63,54.32,4.88,17.64,18.7,33.84,36.79,36.66,2,.31,4.12,.44,5.98-.37,1.85-.81,3.32-2.83,2.88-4.81-2.77-12.61-4.15-25.54-4.08-38.45,0-1.72,.2-3.73,1.65-4.64,6.07-3.81,12.14-7.62,18.21-11.44,1.37-.86,2.88-1.76,4.5-1.6,1.28,.12,2.4,.9,3.44,1.65,3.1,2.21,6.2,4.42,9.3,6.63,.44-16.31-2.07-32.7-7.37-48.14-2.33-6.79-5.25-13.85-3.98-20.92m4.57-5.94c.22,2.5,.74,5.04,.25,7.5-1.64,8.22,2.14,16.4,4.71,24.37,3.88,12.03,5.08,24.73,6.26,37.31,.48,5.14,.97,10.28,1.45,15.42,.62,6.64,4.99,12.8,11.05,15.58,5.07-12.37,6.95-25.76,9.91-38.8,2.96-13.04,7.27-26.25,16.17-36.22,11.63-13.03,29.92-19.2,40.06-33.42,8.25-11.57,9.54-27.95,2.5-40.29-7.04-12.34-22.35-19.62-36.23-16.53-5.24,1.17-10.1,3.64-14.7,6.42-9.92,6-18.9,13.54-26.52,22.28-8.86,10.16-16.12,22.96-14.92,36.38m84.9,136.22c.81-1.25,.53-1.11,.66-2.59,1.06-12.06,.87-24.2,.68-36.31-.16-10.18-.33-20.37-.49-30.55-.32-19.82-.66-39.86-5.69-59.04-1.68,2.76-5.02,3.88-7.93,5.28-2.91,1.39-5.93,3.85-5.72,7.07,2.07,31.98,2.42,64.07,1.04,96.09-.08,1.82-.73,4.22-2.55,4.21-9.85-.07-19.7-.15-29.54-.22-.67,0-1.41,.02-1.87,.5-.44,.46-.45,1.17-.51,1.8-.51,6.29-6.72,10.3-12.26,13.32-1.03,.56-2.15,1.14-3.31,.96-.95-.15-1.73-.78-2.57-1.25-3.97-2.22-8.9-.69-13.17,.88-2.46,.9-5.02,1.88-6.76,3.83s-2.34,5.2-.58,7.14c28.61-3.48,57.21-6.96,85.82-10.45m0,0c.68-.08,1.43-.14,1.97,.27,.54,.42,.5,1.5-.18,1.6m-20.27-27.67c.9-29.86,1.8-59.84-1.63-89.51-10.99,7.97-17.14,21.05-20.77,34.13-3.63,13.08-5.2,26.7-9.42,39.6-1,3.05-2.15,6.1-2.28,9.31-.13,3.2,.97,6.66,3.63,8.46,2.27,1.53,5.19,1.58,7.93,1.58,6.29,0,12.57,0,18.86,0,1.01,0,2.14-.04,2.86-.75,.72-.7,.79-1.81,.82-2.81m-65.62-4.22c-.48-1.27-.87-2.66-1.88-3.58-1.01-.91-2.91-.98-3.52,.24-.83,1.67-3.19,2.03-4.88,1.27-1.69-.77-2.87-2.33-3.97-3.82-2.57-3.49-5.14-6.99-7.71-10.48-.97,2.79-.63,5.85-.25,8.79,1.41,10.81,3.27,21.56,5.57,32.22,.25,1.18,.55,2.43,1.38,3.31,1.71,1.8,4.66,1.2,7.02,.46,4.14-1.29,8.27-2.57,12.41-3.86,2.04-.63,4.35-1.53,5.02-3.55,.48-1.45-.08-3.02-.62-4.45l-4.36-11.38c-.54-1.42-1.08-2.83-1.74-4.2m14.57-12.65c-1.34-1.32-3.02-2.68-4.87-2.37-.81,.13-1.53,.58-2.22,1.01-2.3,1.44-4.6,2.87-6.89,4.31-.9,.56-1.92,1.64-1.29,2.5,5,6.8,8.96,14.35,11.71,22.33,.32,.92,1.39,1.39,2.36,1.32,.97-.07,1.85-.55,2.69-1.02,3.78-2.11,7.55-4.21,11.33-6.32,.46-.25,.93-.53,1.2-.98,.51-.86,.04-1.95-.44-2.83-3.62-6.6-8.21-12.66-13.58-17.94m-6.44-10.73c.9,.16,1.46-1.15,1.02-1.96-.44-.81-1.37-1.18-2.21-1.54-3.38-1.47-6.38-3.81-8.61-6.73-1.06-1.39-3.25-.68-4.79,.14-4.99,2.67-9.98,5.33-14.97,8-1.06,.57-2.27,1.39-2.2,2.59,.03,.56,.35,1.05,.66,1.51,2.82,4.16,6.01,8.06,9.54,11.64,.44,.45,.97,.93,1.6,.9,.42-.02,.79-.26,1.14-.49,3.64-2.4,7.28-4.8,10.92-7.21,2.08-1.37,4.23-2.81,5.55-4.93,.57-.92,1.29-2.13,2.36-1.94m21.23,37.78c-1.45,.23-5,1-6,2-.58,.09,0,0-2,1-2.63,2.78-2.38,1.76-3.79,2.68-1.41,.92-2.62,3.01-1.37,4.14,2.71-1.2,4.12-1.67,6.16-3.82"/>
    </g>
  </g>
  <g id="Layer_1-2" data-name="Layer 1">
    <g id="feet_through_the_door-2" data-name="feet through the door">
      <g>
        <path class="cls-1" d="M199.36,56.49c-5.38,1.07-10.77,2.13-16.15,3.2-.43-1.96,2.17-3.04,4.15-3.32,3.59-.51,7.18-1.01,10.76-1.52,10.33-1.46,6.97-24.41,22.61-17.68,1.51,.65,2.69,1.87,3.46,3.32,4.36,8.16,15.21,11.15,23.28,7.24,1.33-.64,2.9,.18,3.18,1.63,1.37,7.1,2.74,14.21,4.11,21.31,.17,.91,.35,1.85,.11,2.74-.61,2.3-3.43,3.05-5.78,3.39-20.35,2.94-40.88,4.64-61.44,5.07,2.99-2.75,7.45-2.93,11.51-3.04,17.61-.44,35.2-2.15,52.57-5.09,.4-.07,.85-.17,1.07-.51,.21-.32,.15-.73,.08-1.1-1.17-6.39-2.34-12.77-3.52-19.16-.15-.79-.33-1.65-.96-2.15-.67-.53-1.63-.47-2.48-.38-12.36,1.26-24.71,2.52-37.07,3.79,5.03-2.06,10.35-3.4,15.75-3.98,1.69-.18,2.6-2.12,1.63-3.51-1.76-2.53-3.83-4.86-6.13-6.91-.68-.6-1.62-.86-2.52-.71-8.53,1.43-7.11,11.82-12.96,15.62-1.56,1.01-3.43,1.39-5.25,1.75Z"/>
        <path class="cls-1" d="M241.26,57.55c2.1,1.58,2.08,4.68,1.85,7.3-.09,1-.34,2.22-1.3,2.5-.55,.16-1.13-.06-1.64-.3-1.38-.62-2.71-1.34-3.97-2.16-1.63-1.05-3.73,.26-3.5,2.19s.6,3.71,1.11,5.52c-.63,.83-2.06,.53-2.68-.31-.62-.84-.66-1.96-.68-3.01-.03-1.9-.06-3.79-.1-5.69,0-.45,.01-.92,.07-1.4,.23-1.83,2.5-2.69,3.82-1.39,.87,.85,1.84,1.59,2.88,2.21,1.38,.81,3.16-.12,3.33-1.71,.14-1.27,.42-2.53,.82-3.75Z"/>
        <path class="cls-1" d="M192.12,73.02c2.38,.49,3.93-2.75,1.87-4.05-.15-.09-.3-.17-.47-.23-1.63-.62-3.53,.08-4.78,1.29-.96-1.41,.02-3.54,1.62-4.13s3.44,.06,4.71,1.2c1.29,1.16,2.11,2.75,2.9,4.3,.49,.94,.26,2.11-.54,2.79-1.97,1.67-4.28,1.02-6.39,.37-.67-.2-1.37-.43-1.81-.97-.44-.54-.44-1.49,.17-1.82,.8,.62,1.74,1.04,2.72,1.24Z"/>
        <path class="cls-1" d="M182.51,67.3c.08-1.72,.38-3.77,1.95-4.47-.23,6.9-.17,13.82,.17,20.72-.58,.7-1.82,.37-2.32-.4-.5-.77-.47-1.75-.43-2.66,.21-4.4,.42-8.79,.63-13.19Z"/>
        <path class="cls-1" d="M217,63.67c-.32,.98-1,7,0,6,2-5,2.33-6.67,5-6,0-2-2.75-.23-4,0h-1Z"/>
        <path class="cls-1" d="M217.8,73.55c-.23-.34-.46-.69-.69-1.03,1.07-1.33,3.35-1.42,4.51-.17-.88,.94-2.33,1.3-3.55,.88l-.27,.31Z"/>
        <path class="cls-1" d="M203.17,63.37c1.88-.16,3.75-.31,5.63-.47,.3-.02,.61-.05,.89,.06,.93,.35,2.13,2.14,1.32,2.71,.04,1.85-2.96,3.1-4,3-.99-.03-3-1-3-1-1.61,1.94,1.51,4.85-.7,6.06-1.94-2.42-2.71-5.74-2.01-8.76,.11-.48,.28-.98,.68-1.27,.34-.25,.78-.29,1.2-.33Z"/>
        <path class="cls-1" d="M222.88,68.08c.32,.68-.62,1.29-1.37,1.27-.75-.02-1.59-.27-2.18,.19-.57,.44-.57,1.28-.71,1.99-.14,.71-.78,1.51-1.44,1.21-.9-1.44-.65-3.5,.58-4.68,1.23-1.18,3.29-1.35,4.7-.4,.16,.11,.33,.24,.41,.42Z"/>
      </g>
      <path class="cls-1" d="M71.07,130.65c1.86,1.04,3.8,2.17,4.78,3.89,.75,1.31,.85,2.82,.93,4.28,.98,16.58,1.97,33.15,2.95,49.73,.2,3.43-4.76,5-8.67,5.52-3.71,.49-7.43,.99-11.14,1.48-.96,.13-1.99,.25-2.87-.12-.88-.37-1.43-1.43-.81-2.09,2.22-2.39,1.89-5.81,1.45-8.85-3.23-22.27-6.47-44.54-9.7-66.81,7.69,4.33,15.38,8.65,23.07,12.98m-2.85,2.09c-5.92-3.82-11.83-7.64-17.75-11.45,5.27,23.1,8.68,46.53,10.2,70.04,.06,.96,1.64,1.07,2.72,.87,3.43-.62,6.86-1.24,10.29-1.86,1.1-.2,2.33-.48,2.85-1.35,.31-.52,.28-1.13,.25-1.71-.87-14.97-1.75-29.95-2.62-44.92-.11-1.91-.24-3.89-1.28-5.58-1.04-1.69-2.87-2.89-4.65-4.04Z"/>
    </g>
    <g id="feet_through_the_door_2-2" data-name="feet through the door 2">
      <path class="cls-1" d="M60.51,208.66c6.25-3.98,13.26-6.77,20.54-8.15,.81-.15,1.67-.29,2.45,0,1.59,.58,2.1,2.54,2.38,4.21,2.83,16.83,5.67,33.72,6.41,50.77,.21,4.92-4.47,8.47-8.63,11.09-6.84,4.31-13.68,8.62-20.52,12.93-.44,.28-.91,.57-1.43,.6-1.63,.11-2.32-2.03-2.46-3.66-1.88-22.02-3.75-44.03-5.63-66.05,2.22,1.12,4.79-.4,6.88-1.74m21.66,53.98c2.32-1.73,4.81-4,4.64-6.88-.95-16.16-2.84-32.26-5.67-48.2-.14-.79-.36-1.69-1.08-2.06-.59-.3-1.31-.12-1.94,.08-5.49,1.72-10.73,4.24-15.49,7.45-1.14,.77-2.39,1.84-2.27,3.21,1.2,14.11,2.39,28.23,3.59,42.35,.49,5.74,.86,11.94-2.23,16.8,7.15-3.68,14-7.95,20.45-12.75"/>
      <path class="cls-1" d="M133.29,70.9c-.06,1.34-.17,2.82-1.12,3.77-.86,.85-2.16,1.03-3.36,1.15-26.48,2.7-53.39,.34-79.68,4.51-2.7,.43-6.06,.66-7.57-1.62-.53-.8-.7-1.77-.87-2.72-1.43-8.14-1.27-13.18-2.69-21.32-.45-2.56-1-3-1-6,0-2-1-5-1-7,0-6,.31-9.92,0-14,5.13,1.83,4.8,12.33,4.98,17.77,.28,8.66,1.5,17.28,3.63,25.68,.27,1.07,.64,2.24,1.59,2.79,.68,.39,1.51,.37,2.29,.34,25.24-.95,50.48-1.9,75.72-2.85,1.25-.05,2.64-.16,3.48-1.09,.69-.77,.8-1.89,.86-2.93,.8-12.71,1.25-25.43,1.34-38.16,0-.84-.28-1.99-1.12-1.95-22.59,1.08-45.18,2.15-67.76,3.23-7.93,.38-13.16,1.34-21.01,.18-.74-.11-2.54,3.58-3,3-.46-.58-1.99-6.14-1.25-6.18,23.24-1.17,46.48-2.33,69.73-3.5,8.6-.43,19.01-1.05,27.52-2.32"/>
      <path class="cls-1" d="M49.19,100.14c28.57-1.5,57.13-2.99,85.7-4.49,3.15,22.46,4.15,45.21,2.97,67.86,1,.72,1.05,2.16,1.01,3.39-.52,15.82,.54,31.65,1.6,47.45,1.43,21.38,2.87,42.76,4.3,64.14,.16,2.41,.32,4.9-.44,7.19s-2.66,4.39-5.06,4.62c-28.53,2.74-57.31,5.54-84.61,14.26-2.4,.77-5.03-.89-6.22-3.11-1.19-2.22-1.3-4.84-1.38-7.35-1.97-62.78-3.93-125.56-5.9-188.34-.05-1.49-.08-3.07,.63-4.39,.71-1.32,2.43-2.21,3.74-1.5m55.07,160.29c-.6,1.51-.24,2.91-1.38,3.95-12.83,11.75-26.38,22.7-40.56,32.77,23.06-5,46.5-8.21,70.05-9.58,1.02-.06,2.07-.12,3.09-.28,2.02-.31,3.86-1.32,5.27-2.8h0c1.8-1.9,2.73-4.46,2.57-7.07-1.05-16.67-2.11-33.35-3.16-50.02-.45-7.17-.91-14.33-1.17-21.51-1.26-34.94,2.06-70.18-3.26-104.73-27.03-.47-53.69,10.16-80.57,7.2,8.83,2.83,17.66,5.67,26.5,8.5,1.58,.51,3.24,1.06,4.36,2.3,1.12,1.24,1.51,2.96,1.84,4.6,6.89,33.99,7.37,69.03,14.17,103.04m-1.02,24.43c-6.22-35.77-11.1-71.76-14.64-107.89-.35-3.61-.69-7.28-.09-10.85,.41-1.54-.59-5.54-.59-6.54,0-3-1-5-2-6-3.31-2.95-11.68-2.22-15.85-3.74-6.43-2.35-12.86-4.69-19.29-7.04,.95,28.82,1.9,57.64,2.85,86.46,.69,20.82,1.37,41.64,2.06,62.46,.22,6.73,.44,13.45,.66,20.18,.2,6.19,.55,12.8,4.23,17.78,12.53-10.43,25.05-20.86,37.58-31.28,2.08-1.73,4.25-3.59,5.13-6.15,.81-2.36,.38-4.93-.05-7.39"/>
      <path class="cls-1" d="M7.86,308.41C5.13,206.72,2.72,106.36,0,4.67c2.31,.32,3,0,6,0l23-1h6l26-1C159.26,2.01,248.84-1.2,347.1,.48c3.62,.06,7.4,.16,10.59,1.88,3.19,1.71,5.55,5.57,4.32,8.98,.41,24.09,.95,48.17,1.64,72.25,.19,6.8,.84,14.52,6.18,18.74,10.28,8.12,17.43,23.21,17.12,36.31-.31,13.09-8.08,23.88-18.74,31.5,7.46,21.16,7.76,44.07,7.98,66.5,.23,23.38,.45,46.77,.68,70.15-122.68,20.06-247.67,19.59-371.98,19.07,3.19-5.07,3.13-11.45,2.97-17.43M345,15.67c0,19,0,42,2,61-.5,4.91,1.29,9.99,3.08,14.59,1.79,4.6,7.27,8.2,11.71,6.03-1.08-29.84-2.16-59.68-3.24-89.52C239.89,1.76,120.94,1.42,2.25,6.75l.38,15.96q.37,1.96,.37,2.96c2.48,101.41,7.13,185.68,9.61,287.09,.05,2.17,.2,4.58,1.74,6.11,1.58,1.58,4.07,1.67,6.31,1.66,82.94-.31,165.87-1.86,248.76-4.65-2.05-6.32-5.22-12.27-9.32-17.5-8.85,.6-17.85-1.11-25.87-4.91-19.37-9.18-43.29,2.07-63.44-5.23-2.1-.76-4.25-1.82-5.41-3.72-1-1.63-1.13-3.63-1.23-5.54-4.35-82.89-8.7-165.78-13.05-248.67-.37-7.05,9.05-9.66,16.11-9.89,48.99-1.58,97.98-3.15,146.97-4.73m-111.62,167.32c-3.18-4.44-1.96-10.62,.16-15.65,5.66-13.4,17.02-24.28,30.65-29.35,5.54-2.06,11.77-3.43,15.64-7.9,2.4-2.78,3.68-6.56,6.68-8.68,3-2.12,8.68-.43,7.96,3.17-1.28,6.35,5.04,11.28,9.51,15.97,4.06,4.27,7.02,9.58,8.52,15.28,9.2-27.77,32.28-50.56,60.17-59.39,1.38-.44,1.54-2.3,1.44-3.74-1.39-19.8-2.78-39.6-4.17-59.4-.24-3.45-.55-8.82-2.57-11.63l-10.66,.04c-17.59-2.76-35.52-.31-53.31,.43-36.8,1.53-73.6,3.07-110.4,4.6l-3.17,.92c-1.85,2.38-2.32,4-2.55,7-1.46,18.99,.47,38.05,2.2,57.01,5.72,62.94,9.09,126.09,10.09,189.27,.05,3.04,4.01,4.12,7.05,4.28,14.91,.76,29.86,.83,44.78,.23-18.07-25.21-21.34-60.27-8.25-88.38,1.3-2.78-.52-6.07-2.82-8.1-2.3-2.03-5.16-3.49-6.95-5.98m77.98-10.6c1.87-10.48-2.02-21.81-9.94-28.92-5.52-4.96-9.36-11.75-10.76-19.04-7.65,2.77-10.52,13.66-18.51,15.22-7.89,1.55-14.87,6.29-20.43,12.1-5.56,5.81-9.87,12.67-14.14,19.49-.7,1.12-1.41,2.27-1.67,3.56-.63,3.23,1.73,6.25,4.21,8.4,8.83,7.64,20.67,10.6,32.02,13.31,2.35,.56,3.06,3.57,2.88,5.97s-.74,5.07,.65,7.04c1.51-3.96,4.91-7.15,8.96-8.39,.79-.24,1.63-.41,2.42-.19,1.99,.57,2.48,3.4,1.44,5.2-1.04,1.8-3,2.81-4.81,3.82-4.97,2.8-9.52,6.34-13.46,10.47-3.61,3.79-6.81,9.56-3.99,13.97,1.67,2.6,4.94,3.71,8.03,3.95,9.71,.76,18.6-5.07,26.42-10.88,1.32-.98,3.45-.52,4.25,.9,.8,1.43,.08,3.49-1.43,4.1-1.86,1.31-3.72,2.63-5.58,3.94-6.06,4.28-12.71,8.75-20.13,8.48-6.02-.21-11.79-3.86-14.56-9.2-2.78-5.34-2.44-12.16,.84-17.21,1.58-2.43,3.76-4.43,5.35-6.86,1.59-2.43,2.53-5.59,1.31-8.23-2.62-5.65-11.45-3.72-16.55-7.29-1.84-1.28-4.53-.45-6.01,1.24-1.48,1.68-2.04,3.96-2.52,6.15-3.99,17.86-6.51,36.68-1.63,54.32,4.88,17.64,18.7,33.84,36.79,36.66,2,.31,4.12,.44,5.98-.37,1.85-.81,3.32-2.83,2.88-4.81-2.77-12.61-4.15-25.54-4.08-38.45,0-1.72,.2-3.73,1.65-4.64,6.07-3.81,12.14-7.62,18.21-11.44,1.37-.86,2.88-1.76,4.5-1.6,1.28,.12,2.4,.9,3.44,1.65,3.1,2.21,6.2,4.42,9.3,6.63,.44-16.31-2.07-32.7-7.37-48.14-2.33-6.79-5.25-13.85-3.98-20.92m4.57-5.94c.22,2.5,.74,5.04,.25,7.5-1.64,8.22,2.14,16.4,4.71,24.37,3.88,12.03,5.08,24.73,6.26,37.31,.48,5.14,.97,10.28,1.45,15.42,.62,6.64,4.99,12.8,11.05,15.58,5.07-12.37,6.95-25.76,9.91-38.8,2.96-13.04,7.27-26.25,16.17-36.22,11.63-13.03,29.92-19.2,40.06-33.42,8.25-11.57,9.54-27.95,2.5-40.29-7.04-12.34-22.35-19.62-36.23-16.53-5.24,1.17-10.1,3.64-14.7,6.42-9.92,6-18.9,13.54-26.52,22.28-8.86,10.16-16.12,22.96-14.92,36.38m84.9,136.22c.81-1.25,.53-1.11,.66-2.59,1.06-12.06,.87-24.2,.68-36.31-.16-10.18-.33-20.37-.49-30.55-.32-19.82-.66-39.86-5.69-59.04-1.68,2.76-5.02,3.88-7.93,5.28-2.91,1.39-5.93,3.85-5.72,7.07,2.07,31.98,2.42,64.07,1.04,96.09-.08,1.82-.73,4.22-2.55,4.21-9.85-.07-19.7-.15-29.54-.22-.67,0-1.41,.02-1.87,.5-.44,.46-.45,1.17-.51,1.8-.51,6.29-6.72,10.3-12.26,13.32-1.03,.56-2.15,1.14-3.31,.96-.95-.15-1.73-.78-2.57-1.25-3.97-2.22-8.9-.69-13.17,.88-2.46,.9-5.02,1.88-6.76,3.83s-2.34,5.2-.58,7.14c28.61-3.48,57.21-6.96,85.82-10.45m0,0c.68-.08,1.43-.14,1.97,.27,.54,.42,.5,1.5-.18,1.6m-20.27-27.67c.9-29.86,1.8-59.84-1.63-89.51-10.99,7.97-17.14,21.05-20.77,34.13-3.63,13.08-5.2,26.7-9.42,39.6-1,3.05-2.15,6.1-2.28,9.31-.13,3.2,.97,6.66,3.63,8.46,2.27,1.53,5.19,1.58,7.93,1.58,6.29,0,12.57,0,18.86,0,1.01,0,2.14-.04,2.86-.75,.72-.7,.79-1.81,.82-2.81m-65.62-4.22c-.48-1.27-.87-2.66-1.88-3.58-1.01-.91-2.91-.98-3.52,.24-.83,1.67-3.19,2.03-4.88,1.27-1.69-.77-2.87-2.33-3.97-3.82-2.57-3.49-5.14-6.99-7.71-10.48-.97,2.79-.63,5.85-.25,8.79,1.41,10.81,3.27,21.56,5.57,32.22,.25,1.18,.55,2.43,1.38,3.31,1.71,1.8,4.66,1.2,7.02,.46,4.14-1.29,8.27-2.57,12.41-3.86,2.04-.63,4.35-1.53,5.02-3.55,.48-1.45-.08-3.02-.62-4.45l-4.36-11.38c-.54-1.42-1.08-2.83-1.74-4.2m14.57-12.65c-1.34-1.32-3.02-2.68-4.87-2.37-.81,.13-1.53,.58-2.22,1.01-2.3,1.44-4.6,2.87-6.89,4.31-.9,.56-1.92,1.64-1.29,2.5,5,6.8,8.96,14.35,11.71,22.33,.32,.92,1.39,1.39,2.36,1.32,.97-.07,1.85-.55,2.69-1.02,3.78-2.11,7.55-4.21,11.33-6.32,.46-.25,.93-.53,1.2-.98,.51-.86,.04-1.95-.44-2.83-3.62-6.6-8.21-12.66-13.58-17.94m-6.44-10.73c.9,.16,1.46-1.15,1.02-1.96-.44-.81-1.37-1.18-2.21-1.54-3.38-1.47-6.38-3.81-8.61-6.73-1.06-1.39-3.25-.68-4.79,.14-4.99,2.67-9.98,5.33-14.97,8-1.06,.57-2.27,1.39-2.2,2.59,.03,.56,.35,1.05,.66,1.51,2.82,4.16,6.01,8.06,9.54,11.64,.44,.45,.97,.93,1.6,.9,.42-.02,.79-.26,1.14-.49,3.64-2.4,7.28-4.8,10.92-7.21,2.08-1.37,4.23-2.81,5.55-4.93,.57-.92,1.29-2.13,2.36-1.94m21.23,37.78c-1.45,.23-5,1-6,2-.58,.09,0,0-2,1-2.63,2.78-2.38,1.76-3.79,2.68-1.41,.92-2.62,3.01-1.37,4.14,2.71-1.2,4.12-1.67,6.16-3.82"/>
    </g>
  </g>
</svg>