<?xml version="1.0" encoding="UTF-8"?>
<svg id="Layer_2" data-name="Layer 2" xmlns="http://www.w3.org/2000/svg" viewBox="0 0 376.77 377.68">
  <defs>
    <style>
      .cls-1 {
        fill: #ffead9;
      }
    </style>
  </defs>
  <g id="Layer_1-2" data-name="Layer 1">
    <path class="cls-1" d="M376.2,188.44c0,27.76,1.46,55.61-.29,83.25-4.3,67.82-47.05,100.72-99.91,103.65-57.77,3.2-115.51,3.02-173.28,.05-50.16-2.58-95.41-34.19-99.49-100.11C-.43,216.42-1.97,157.18,4.01,98.51,9.89,40.81,41.6,9.22,99.06,4.04c59.88-5.39,120.4-5.37,180.28-.05,60.13,5.33,93.42,43.34,96.68,104.66,1.41,26.53,.24,53.19,.24,79.79-.02,0-.04,0-.06,0Zm-34.02-.18s-.07,0-.1,0c0-26.01,.8-52.05-.18-78.03-1.75-46.37-26.61-71.46-72.63-73.4-53.17-2.24-106.39-2.25-159.56-.01-46.28,1.95-71.84,26.8-72.96,72.99-1.27,52.57-1.36,105.22-.08,157.8,1.16,47.62,25.69,72.91,73.48,74.5,52.58,1.75,105.3,1.72,157.88,.02,48.68-1.58,72.12-26.7,73.97-75.84,.98-25.97,.17-52.01,.17-78.02Z"/>
    <path class="cls-1" d="M189.55,92.86c52.31,.08,96.06,43.71,96.22,95.93,.16,53.45-43.39,97.2-96.72,97.17-53.16-.03-96.51-44.03-96.2-97.63,.31-52.07,44.36-95.55,96.7-95.47Zm62.26,96.15c-.21-34.72-28.2-61.98-63.38-61.73-34.74,.25-62.31,28.57-61.72,63.4,.57,33.77,28.66,61.29,62.54,61.27,34.74-.03,62.77-28.23,62.57-62.94Z"/>
    <path class="cls-1" d="M311.92,89.22c-1.52,13.21-8.08,21.26-22.01,21.49-13.38,.22-22.91-9.65-21.95-22.96,.99-13.75,9.31-21,22.56-20.67,13.5,.33,20.41,8.77,21.39,22.14Z"/>
  </g>
</svg>