<?xml version="1.0" encoding="UTF-8"?>
<svg id="Layer_2" data-name="Layer 2" xmlns="http://www.w3.org/2000/svg" viewBox="0 0 226 249.06">
  <defs>
    <style>
      .cls-1 {
        fill: #cc7d3d;
      }

      .cls-2 {
        fill: #555e73;
      }
    </style>
  </defs>
  <g id="background">
    <g id="link_building" data-name="link building">
      <path class="cls-2" d="M24.77,127.3c-2.61-1.62-5.22-3.24-7.83-4.86-.63-.39-.24-1.39,.33-1.87,4.11,2.99,8.51,5.6,13.12,7.76-1.69,1.09-3.9,.02-5.61-1.04Z"/>
      <path class="cls-2" d="M42.12,164.38c-4.27-.36-8.54-.72-12.81-1.07-.57-.05-1.34-.48-1.02-.95,5.22-.6,10.54-.25,15.63,1.02,.15,.79-1,1.08-1.8,1.01Z"/>
      <path class="cls-2" d="M153.15,216.45c-1.61,5.01-6.62,8.02-11.37,10.28-13.4,6.39-27.85,10.55-42.59,12.28-5.37,.63-11.39,.74-15.47-2.79-.82,1.21-2.69,.7-4,.05-1.25-.62-2.62-1.37-3.02-2.7-.4-1.34,1.13-3.04,2.27-2.24,6.88,4.81,16,4.75,24.31,3.64,17.72-2.37,34.89-8.74,49.87-18.51Z"/>
      <path class="cls-2" d="M44.09,185.4c.5-.12,1.08-.23,1.49,.08,.62,.46,.34,1.52-.3,1.95-.64,.42-1.47,.41-2.24,.47-2.63,.17-5.2,1.23-7.19,2.95-.84-.47-.21-1.77,.54-2.36,2.2-1.71,4.99-2.41,7.69-3.08Z"/>
      <path class="cls-2" d="M9.6,168.5c-2.29,1.21-4.68,2.23-7.13,3.05-.51,.17-1.22,.24-1.43-.25-.21-.51,.39-.97,.89-1.2,2.42-1.08,4.91-2.01,7.45-2.77,.07,.39,.14,.78,.21,1.17Z"/>
      <path class="cls-2" d="M102.41,151.2c1.62-1.8,3.64-3.24,5.88-4.16,.89-.37,1.88-.65,2.81-.39-2.22,2.35-4.53,4.6-6.93,6.75-.59-.74-1.17-1.47-1.76-2.21Z"/>
      <path class="cls-2" d="M17.94,165.93c1.71-.43,3.5-.55,5.25-.36,.26,.03,.53,.07,.72,.25,.22,.21,.26,.58,.08,.82-2.12,.25-4.25,.51-6.37,.76-.18,.02-.36,.04-.52-.04-.66-.32,.14-1.26,.85-1.44Z"/>
      <path class="cls-2" d="M42.36,208.04c-2.18-.11-4.06,1.41-5.82,2.7-3.15,2.3-6.61,4.13-10.06,5.95-.43,.23-.98-.24-1-.73-.03-.49,.28-.93,.6-1.3,1.76-2.05,4.24-3.33,6.65-4.56,2.58-1.32,5.18-2.64,7.93-3.54,.64-.21,1.39-.38,1.94,0s.43,1.51-.25,1.47Z"/>
      <path class="cls-2" d="M145.42,173.42c-.65,.06-.92-.96-.49-1.45s1.16-.56,1.81-.58c5.79-.15,11.61,1.1,16.82,3.63-1.47,1.06-3.5,.4-5.22-.15-4.16-1.33-8.57-1.82-12.92-1.46Z"/>
      <path class="cls-2" d="M158.55,160.39c1.95,.22,4.38,1.07,4.45,3.03-4.63-1.54-9.67-1.85-14.46-.88-.67-.35-.58-1.43,0-1.92s1.39-.55,2.14-.57c2.63-.07,5.26,.04,7.87,.34Z"/>
      <path class="cls-2" d="M152.23,135.05c.45,.47,.91,.93,1.36,1.4-.81,.32-1.56,.79-2.2,1.37-.67-.82-1.14-1.94-.78-2.94,.36-1,1.83-1.53,2.54-.74-.27,.26-.53,.53-.8,.79l-.13,.12Z"/>
      <path class="cls-2" d="M107.34,42.67c.82,2.76,1.64,5.52,2.45,8.28,.56,1.91,.71,4.65-1.21,5.19-10.65,3-21.2,6.37-31.62,10.1-1.86,.67-4.28,1.2-5.51-.34-.57-.72-.68-1.69-.77-2.6-.43-4.56-.87-9.12-1.3-13.69-.05-.54-.09-1.12,.18-1.58,.31-.51,.92-.74,1.48-.93,9.15-3.09,18.54-5.47,28.06-7.1,1.56-.27,3.17-.51,4.72-.19,1.55,.32,3.05,1.34,3.5,2.86m-7.26,1c.76,.17,1.52,.34,2.29,.52"/>
      <path class="cls-2" d="M82.33,134.94c2.55-.47,5.1-.95,7.66-1.42,.58-.11,1.24-.27,1.51-.79,.23-.43,.12-.96,0-1.44-.9-3.53-1.8-7.07-2.71-10.6-.3-1.17-1.14-2.66-2.27-2.25-3.71,1.32-7.42,2.65-11.13,3.97-.57,.2-1.32,.36-1.7-.12-.52-.67,.35-1.53,1.1-1.93,13.9-7.22,28.87-12.38,44.27-15.25,1.58-.29,3.68-.29,4.26,1.21,1.69,4.46,3.39,8.92,5.08,13.38,.96,2.53,1.64,6-.65,7.44-13.84,8.65-31.45,7.78-46.96,12.85-.65,.21-1.35,.44-2,.23-1.07-.35-1.45-1.64-1.64-2.75-.64-3.67-.95-7.4-.95-11.13,0-.79,.09-1.71,.75-2.13,1.39-.88,2.59,1.38,2.72,3.01,.17,2.29,.35,4.59,.52,6.88,.07,.87,1.3,.98,2.16,.82m14.26-2.83c3.47-.62,6.95-1.25,10.42-1.87,.39-.07,.8-.15,1.07-.44,.36-.38,.33-.97,.28-1.49-.51-5.17-1.47-10.3-2.86-15.31-.32-1.16-2.01-1-3.14-.59-3.54,1.3-7.07,2.61-10.61,3.91-.56,.21-1.23,.62-1.09,1.19,1.01,4.21,2.01,8.41,3.02,12.62,.17,.71,.4,1.51,1.03,1.88,.55,.32,1.25,.22,1.88,.11m25.37-22.29c-.47-1.3-2.29-1.28-3.65-1.03-3.91,.74-7.82,1.49-11.72,2.23,2.21,4.56,3.51,9.55,3.81,14.61,.05,.82,.09,1.69,.52,2.38s1.43,1.12,2.11,.65c3.88-2.7,9.86-1.56,13.01-5.08,.18-.2,.35-.43,.42-.7,.09-.37-.04-.75-.17-1.1-1.44-3.99-2.88-7.98-4.33-11.97Z"/>
      <path class="cls-2" d="M77.32,178.05c-1.52,3.48-6.36,4.39-9.84,2.86-3.48-1.53-5.87-4.75-8.06-7.85-2.19-3.11-4.47-6.37-7.86-8.08-1.83,6.59-1.81,13.69,.06,20.28,2.4-1.2,5.52-.78,7.52,1.01-2.5,.11-5,.21-7.5,.32,1.06,12.66,4.73,25.09,10.73,36.28-1.53,2.43-5.06-.5-6.15-3.15-3.02-7.32-5.53-14.86-7.5-22.53-5.36,1.33-10.73,2.66-16.09,3.98,4.48-3.61,10.14-5.72,15.89-5.95-1.92-7.51-2.48-15.36-1.67-23.07,.55-5.17,1.69-10.55-.05-15.45-1.77-4.98-6.26-8.65-7.94-13.67-2.09-6.25-.19-14.86-5.9-18.16,1.28-.39,2.7-.36,3.96,.1,3.7-13.33,8.51-28.1,20.76-34.5,1.01-.53,2.72-.63,2.81,.5-10.3,7.91-17.21,20.09-18.74,32.98-.14,1.16-.2,2.43,.47,3.37,.59,.83,1.61,1.21,2.57,1.54,4.3,1.5,8.59,2.99,12.89,4.49-5.61,.64-11.43-.77-16.12-3.91-.57,5.91,.06,11.94,1.83,17.6,2.33-3.55,6.76-4.92,10.55-6.84,3.79-1.92,7.59-5.6,6.67-9.75-2.72-12.33,2.91-24.81,8.38-36.19-4.48,.54-7.26-4.68-8.48-9.03-5.28-18.93-6.35-39.02-3.11-58.41,.71-4.24,2.7-9.42,6.99-9.58,4.56-.17,7.18,5.64,11.62,6.7,1.7,.4,3.47,.06,5.18-.29,8.08-1.64,17.61-4.54,19.85-12.48,1.03-3.63,6.32-4.38,9.42-2.23s4.5,5.96,5.73,9.53c2.49,7.25,4.98,14.49,7.47,21.74,6.9-17.48,24.05-29.16,41.99-34.72,12.96-4.02,27.39-5.3,39.87,.04,12.48,5.34,22.15,18.59,20.2,32.02-1.33,9.17-7.56,16.86-14.34,23.17-6.78,6.31-14.42,11.82-20.03,19.19-14.22,18.68-12.46,44.58-10.04,67.93l2.81,18.16c5.44,16.87-3.37,37.11-19.43,44.62-.93,3.94,4.25,6.6,8.28,6.25,4.03-.36,8.23-2.1,11.96-.53,3.64,1.52,7.68-.4,11.51-1.32,3.83-.92,9.13,.19,9.59,4.11-4.01,6.01-13.37,7.54-19.08,3.1-6.04,2.32-12.51,3.51-18.97,3.49-3.36,0-6.95-.42-9.56-2.55-6.17-5.01-3.46-16.14-9.48-21.33-.13,1.67-.27,3.35-.4,5.02-1-3.35-4.12-5.96-7.6-6.33-3.48-.38-4.41-4.87-6.27-7.83-4.44-7.05-16.9-7.14-18.98-15.21-.66-2.57-4.48-3.01-6.56-1.36s-2.82,4.42-3.44,7c-1.23,.22-2.09-1.28-2.08-2.53s.43-2.55,0-3.72c-.96-2.56-5.24-1.85-6.44,.61-1.2,2.46-.36,5.38,.5,7.98-1.7,.16-3.45-.5-4.61-1.76-3.06,5.64-6.12,11.28-9.18,16.93-1.25,2.31-2.53,4.68-2.98,7.26-1.76,9.92-4.16,20.88-12.41,26.65-3.2,2.24-7.02,3.46-10.25,5.66-4.03,2.74-7.15,7-11.79,8.52-4.63,1.52-11.19-2.53-9.24-7,1.2-2.73,4.6-3.51,7.48-4.28,8.39-2.25,15.97-7.43,21.11-14.42,1.05-1.43,2.05-3.17,1.6-4.89-1.65-6.36,8.34-12.21,5.4-18.09-1.81-3.61,.95-7.72,3.28-11.02,2.33-3.3,4.19-8.26,1.21-10.99m43.84,2.04c.51,.61,1.16,1.27,1.95,1.18,.84-.1,1.34-1.08,1.24-1.92-.11-.84-.64-1.56-1.16-2.23-.37-.49-.75-.98-1.12-1.47,1.9-.26,3.88,.19,5.49,1.22,1.04,.67,2.49,1.56,3.32,.64-1.13-1.35-2.32-2.75-3.94-3.42-1.63-.67-3.81-.33-4.66,1.21-.85-.99-2.63,.06-2.74,1.35s.78,2.44,1.62,3.43m58.65-86.1c4.84-16.98,20.46-28.11,33.4-40.11,2.12-1.96,4.2-4,5.87-6.35,7.15-10.05,4.84-25.58-4.91-33.13-3.57-2.76-7.84-4.47-12.18-5.71-13.29-3.78-27.76-3.3-40.77,1.36-13.01,4.66-24.5,13.47-32.36,24.83-4.05,5.85-2.78,13.75-1.02,20.64,1.76,6.89,3.81,14.39,.94,20.9,16.06,13.02,29.2,29.62,38.19,48.23,.02-.99,.03-1.98,.05-2.97,2.29,4.37,4.58,8.75,6.87,13.12,.3,.57,.65,1.19,1.24,1.44s1.47-.16,1.39-.8c-1.21-9.95,.03-20.02,1.26-29.97,.48-3.86,.96-7.73,2.02-11.47m-52.89-30.08c-2.06-13.02-5.79-25.77-11.06-37.85-.82-1.88-1.76-3.84-3.44-5.01-2.64-1.83-6.21-1.19-9.33-.44-13.74,3.34-27.28,7.53-40.51,12.53-1.06,.4-2.16,.84-2.88,1.7-.96,1.14-1.05,2.76-1.08,4.25-.29,16.64,1.98,33.32,6.71,49.27,.19,.66,.42,1.35,.95,1.78,.82,.67,2.02,.47,3.06,.24,15.43-3.52,30.86-7.04,46.29-10.56,3.84-.88,8.05-2,10.22-5.28,2.02-3.05,1.65-7.03,1.08-10.64m-33.79,91.93c.09,1.09,2,.79,2.29-.26,.3-1.05-.32-2.11-.68-3.14-1.63-4.6,1.77-9.32,4.95-13.03,0,2.69-.84,5.37-2.36,7.59,2.64,1.73,2.18,6.04,4.57,8.1,1.89,1.62,4.92,1.13,6.87-.43,1.94-1.55,3.06-3.89,4.11-6.15,1.45-3.12,2.9-6.25,4.35-9.37-1.02,.35-1.95,.95-2.71,1.72,2.81-5.15,8.29-8.16,13.48-10.89,1.99-1.05,3.97-2.09,5.96-3.14-3.72,6.13-13.89,7.27-15.39,14.28,6.17-5.07,12.94-9.41,20.13-12.89,3.64-1.76,4.88-6.63,3.73-10.51s-4.08-6.95-7.05-9.7c-.61-.57-1.28-1.28-1.14-2.1,.14-.82,1.67-.99,1.64-.16,2.06-2.9,4.95-5.21,8.24-6.58,1.52-.64,.75-2.94-.28-4.23-3.9-4.87-8.37-9.27-13.3-13.09-1.61-1.25-3.62-2.5-5.56-1.87-2.77,.9-3.04,4.87-1.76,7.48,1.28,2.61,3.54,4.76,4.24,7.59,.44,1.79-.26,4.21-2.1,4.4-15.36,1.53-30.54,4.91-45.1,10.04-3.36,1.18-7.39,2.38-10.23,.23-2.39-1.8-2.69-5.77-.59-7.91-2.76,5.67-4.55,11.81-5.27,18.08-.53,4.64-.45,9.43,1.08,13.84,1.53,4.41,4.68,8.4,8.99,10.2-1.73-.3-3.46-.6-5.19-.9,.47,1.41,1.23,2.69,1.99,3.97,3.84,6.44,7.68,12.89,11.53,19.33,.74,1.23,2.18,2.64,3.35,1.81,.52-.37,.69-1.06,.73-1.7,.23-3.42-2.7-6.73-6.12-6.93,.11-.95,1.62-1.32,2.15-.52,1-.38,.3-2.12-.77-2.15-1.07-.03-1.9,.87-2.58,1.69-.58-1.28-1.15-2.56-1.73-3.83,2.26-2.16,6.99,2.09,8.76-.49,1.45-2.12-2.12-4.43-2.14-7,4.51,.2,8.55,4.1,8.91,8.6m75.79-22.69c-.84-.06-1.18,1.03-1.33,1.85-1.27,7.36-8.13,12.22-14.42,16.26-10.35,6.64-20.73,13.3-31.75,18.75,5.47-.96,11.36,2.74,12.87,8.09,.32,1.15,1.2,2.04,2.03,2.89,4.33,4.36,8.67,8.71,13,13.07,2.16,2.17,5.12,3.31,7.68,4.98,2.56,1.67,4.93,4.33,4.68,7.38-.11,1.38,1.51,2.38,2.87,2.17s2.45-1.23,3.39-2.23c9.59-10.21,14.22-24.88,12.22-38.75-.11-.8-.26-1.62-.75-2.26-1.57-2.06-5.32-.81-7.07-2.72,.67-1.56,2.9,.26,4.59,.36,2.5,.14,2.97-3.54,2.35-5.97-2.13-8.44-5.78-16.46-10.37-23.86m-33.43,2.13c-5.46,2.48-10.52,5.85-14.9,9.95-2.65,2.48-5.15,5.39-5.91,8.94-.76,3.55,.78,7.81,4.19,9.06,3.35,1.23,6.96-.72,10-2.6,3.35-2.07,6.69-4.14,10.04-6.21-4.05-.68-8.19-.84-12.28-.49-.15-1.01,.75-1.93,1.74-2.19,.99-.27,2.03-.06,3.04,.09,8.78,1.35,18.12-1.52,24.63-7.56,.57-.53,1.12-1.09,1.45-1.79,1.26-2.66-1.17-5.47-2.46-8.12-.46-.95-.78-1.97-1.42-2.81-1.37-1.8-3.95-2.33-6.17-1.87s-4.18,1.72-6.08,2.96c-.87,.57-1.74,1.13-2.6,1.7-1.32,.86-2.7,1.79-3.41,3.2-.32-.72-.27-1.59,.13-2.27m-58.61-28.1c14.68-5.04,29.81-8.74,45.16-11.05,1.39-.21,1.22-2.26,.67-3.55-1.14-2.68-2.28-5.35-3.42-8.03-.18-.43-.38-.87-.76-1.14-.57-.41-1.36-.28-2.05-.13-11.64,2.52-23.29,5.05-34.93,7.57-1.37,.3-2.79,.61-3.92,1.45-1.77,1.31-2.47,3.59-3.06,5.71-1,3.63-1.99,7.27-2.95,10.92m-22.41,38.87c-.52,.38-1.07,.8-1.3,1.4-.28,.72-.03,1.53,.21,2.26,.89,2.68,2.45,5.87,5.28,5.88,4.55,.02,9.06,2.03,12.13,5.39-4.7,.14-8.8-4.89-13.35-3.67,4.59,5.55,9.17,11.1,13.76,16.65,.48,.58,.99,1.19,1.7,1.47,1.1,.43,2.33-.05,3.42-.53,3.36-1.49,7.16-3.6,7.65-7.24,.31-2.32-.87-4.56-2.01-6.6-3.99-7.14-7.98-14.29-11.97-21.43-.36-.65-.76-1.33-1.4-1.71-1.41-.82-3.15,.17-4.46,1.13-3.21,2.34-6.43,4.68-9.64,7.02m106.69-18.72c-.19,1.28,.44,2.63,1.52,3.33,1.06-1.28,2.78-2,4.44-1.86,1.69,.15,3.04-1.63,3.08-3.32,.04-1.69-.83-3.26-1.69-4.71-4.74-8.03-10-15.75-15.72-23.11-.17-.22-.37-.45-.65-.48-.25-.02-.48,.14-.68,.29-2.15,1.64-4.3,3.28-6.46,4.91-.48,.37-.98,.76-1.23,1.31-.24,.55-.12,1.32,.42,1.59,5.42,2.73,8.92,8.86,8.52,14.91-.08,1.26,1.44,1.94,2.69,2.15s2.78,.51,3.14,1.72c.34,1.15,1.82,1.56,2.99,1.3M61.99,30.26c2.4-.86,4.8-1.72,7.2-2.58,.99-.35,2.17-.98,2.1-2.03-.03-.39-.24-.75-.47-1.08-1.06-1.54-2.45-2.84-4.05-3.8-.3-.18-.63-.36-.98-.37-.81-.04-1.41,.74-1.79,1.45-1.39,2.56-2.09,5.5-2.01,8.41m98.91,182.74c-2-.09-3.36,2.32-2.98,4.29,.14,.73,.44,1.42,.85,2.03,1.7,2.57,5.4,3.57,8.17,2.21-1.55-.98-1.99-2.99-2.53-4.75-.54-1.75-1.67-3.7-3.5-3.78m-74.6-25.05c-.06-.04-.14-.06-.22-.07-2.44-.37-4.78,1.47-5.8,3.71-1.03,2.24-1.04,4.8-1.03,7.26,0,.2,0,.41,.1,.58,.41,.74,1.5-.07,1.88-.82,1.69-3.32,3.38-6.64,5.07-9.96,.12-.23,.21-.56,0-.7M102.73,17.79c2.85-.44,5.76-.51,8.64-.23,.08-1.86-1-3.55-2.03-5.09-.3-.45-.7-.95-1.24-.94-.22,0-.43,.1-.62,.21-2.34,1.22-4.12,3.48-4.74,6.05m52.11,188.56c.43,.64,.94,1.26,1.63,1.59,.7,.32,1.62,.27,2.12-.32,.68-.8,.25-2.04-.29-2.94-.68-1.13-1.49-2.17-2.42-3.1-.43-.43-.91-.85-1.51-.98-.6-.13-1.32,.15-1.49,.74-.09,.31-.01,.64,.07,.95,.4,1.45,1.04,2.83,1.88,4.08m-82.83,19.59c.16-.26,.32-.56,.26-.86-.15-.92-1.64-.52-2.15,.26-.51,.78-1.03,1.88-1.95,1.77-2.03-.24-3.42,1.93-4.28,3.78-.18,.38-.36,.8-.29,1.21,.07,.42,.53,.79,.92,.61,3.09-1.46,5.72-3.85,7.49-6.77m88.9-84.5c.95-2.59,1.9-5.17,2.84-7.76,.14-.39,.24-.91-.11-1.12-1.65,1.08-3.78,1.39-5.66,.81,1.57,2.24,2.2,5.12,1.71,7.81,.41,.09,.81,.17,1.22,.26m-47.23,29.21c1.04,.75,2.87,1.16,3.31-.05,.32-.87,1.33-1.42,2.23-1.2,.2-.77-.59-1.41-1.27-1.82-1.04-.62-2.16-1.25-3.38-1.23-1.21,.02-2.5,.97-2.42,2.18,.06,.9,.8,1.59,1.53,2.12m-42.94,47.55c.18,.99,.7,2.02,1.64,2.38,.94,.35,2.24-.4,2.07-1.39-.45-2.7-.89-5.41-1.34-8.11-1.63,2.01-2.84,4.59-2.38,7.13m70.66-24.54c1.02,1.51,2.24,2.88,3.63,4.07,.41,.35,.92,.71,1.45,.6,1.15-.23,.85-1.99,.17-2.94-.75-1.05-1.62-2.01-2.59-2.86-.48-.42-1.02-.83-1.66-.89s-1.36,.35-1.4,.99c-.02,.38,.19,.73,.4,1.04m41.24,25.12c-3.11,.61-6.21,1.22-9.32,1.82-.31,.06-.69,.18-.75,.49-.09,.43,.49,.67,.93,.72,2.93,.28,5.93-.21,8.62-1.41,.36-.16,.73-.35,.9-.7s0-.88-.38-.92m-85.97-64.39c.62,.72,1,1.61,1.38,2.48,.64,1.5,1.29,3,1.93,4.5,.67-.07,1.12-.76,1.16-1.43,.04-.67-.23-1.31-.5-1.92-.9-2.06-1.8-4.13-2.7-6.19-.43,.86-.85,1.72-1.28,2.57m-48.89,88.13c1.09-.25,2.04-1.07,2.43-2.13-1.51-.13-3.06,.33-4.25,1.26-.64,.5-1.22,1.23-1.18,2.05,.04,.9,.86,1.64,1.75,1.77s1.8-.29,2.45-.91c-.4-.68-.79-1.36-1.19-2.04m60.68-84.16c-.27-.64-1.12-.78-1.82-.71-1.29,.12-2.54,.63-3.55,1.43,.21,1.25,1.38,2.26,2.65,2.29,1.26,.03,2.48-.92,2.76-2.16,.06-.28,.08-.58-.03-.85M41.76,241.45c-1.17,.21-2.02,1.43-1.93,2.62,.09,1.19,1.04,2.22,2.19,2.53,.93,.25,1.98,.06,2.75-.51-1.26-.65-2.1-2.03-2.1-3.44,0-.65-.45-1.66-.91-1.2m49.38-81.36c-.46-.79-1.75-.79-2.33-.09-.58,.7-.43,1.83,.2,2.49,.63,.66,1.62,.88,2.52,.73,.92-.15,1.85-.78,1.97-1.7,.12-.92-1.03-1.85-1.78-1.29m42.43,24.49c-.72-.34-1.52-.69-2.28-.47-.76,.23-1.23,1.35-.6,1.83,1.85,1.42,4.78,2.01,6.36,.29-1.16-.55-2.32-1.11-3.48-1.66m63.45,33.73c-1.76,.4-3.49,.96-5.15,1.66-.36,.15-.36,.65-.31,1.04,2.06,1.3,5.25-.28,5.46-2.71m-143.51,18.94c2.16-.9,4.18-2.13,5.97-3.64-2.51-.47-5.24,1.19-5.97,3.64m32.97-55.31c-.14,.33-.24,.71-.08,1.02,.41,.81,1.65,.08,2.08-.72,.61-1.13,.98-2.38,1.08-3.65-1.37,.71-2.48,1.92-3.08,3.35m6.51-14.05c.82-.99,1.58-2.02,2.3-3.09-.8-.7-2.19-.56-2.82,.3-.64,.85-.38,2.23,.52,2.79m-9.82,13.29c-.18-.99-.37-1.97-.55-2.96-.97,.05-1.76,1.09-1.56,2.04,.2,.95,1.35,1.57,2.26,1.22m6.02-24.46c.36,.27,.97,.05,1.07-.39-.15-1.23-.9-2.38-1.97-3-.64,1.12-.19,2.72,.94,3.34m5.58,20.08c.4-.32-.52-.64-.9-.29-1.08,1.01-1.13,2.93-.09,4,.35-1.22,.69-2.44,1.04-3.67m.59-18.07c-.47,.71-.29,1.78,.4,2.28,.69,.51,1.76,.37,2.3-.3-1.07-.13-2.04-.89-2.43-1.89m11.88,9.97c.21,1.08,.85,2.07,1.76,2.7,.29-1.21-.53-2.57-1.72-2.88m28.83,23.57c.44,.5,1.41,.31,1.63-.32s-.44-1.38-1.09-1.25c-.66,.13-.97,1.07-.53,1.57m-31.42-15.44c.49,.31,1.21-.38,.9-.87-.49-.51-1.39-.54-1.92-.07,.33,.33,.67,.67,1,1m93.62,41.37c-.32-.1-.69-.04-.95,.16-.21,.62,.31,1.38,.96,1.4,.28-.48,.28-1.11,0-1.59m-98.12-52.08c-.26,.26-.51,.51-.77,.77,.23,.47,1,.52,1.3,.09,.3-.43-.02-1.13-.54-1.19m101.31,53.58c.05-.33,.11-.66,.16-.99-.52-.31-1.3,.25-1.17,.84,.31,.07,.62,.13,.92,.2m-105.86-70.39c-.16,.22-.32,.45-.48,.67,.25,.32,.63,.55,1.03,.62,.25-.39,.02-.99-.42-1.11m27.01,17.53c.3-.55-.73-1.13-1.04-.59-.04,.44,.58,.76,.92,.48"/>
    </g>
  </g>
  <g id="Layer_1-2" data-name="Layer 1">
    <g id="link_building-2" data-name="link building">
      <path class="cls-1" d="M23.77,125.3c-2.61-1.62-5.22-3.24-7.83-4.86-.63-.39-.24-1.39,.33-1.87,4.11,2.99,8.51,5.6,13.12,7.76-1.69,1.09-3.9,.02-5.61-1.04Z"/>
      <path class="cls-1" d="M41.12,162.38c-4.27-.36-8.54-.72-12.81-1.07-.57-.05-1.34-.48-1.02-.95,5.22-.6,10.54-.25,15.63,1.02,.15,.79-1,1.08-1.8,1.01Z"/>
      <path class="cls-1" d="M152.15,214.45c-1.61,5.01-6.62,8.02-11.37,10.28-13.4,6.39-27.85,10.55-42.59,12.28-5.37,.63-11.39,.74-15.47-2.79-.82,1.21-2.69,.7-4,.05-1.25-.62-2.62-1.37-3.02-2.7-.4-1.34,1.13-3.04,2.27-2.24,6.88,4.81,16,4.75,24.31,3.64,17.72-2.37,34.89-8.74,49.87-18.51Z"/>
      <path class="cls-1" d="M43.09,183.4c.5-.12,1.08-.23,1.49,.08,.62,.46,.34,1.52-.3,1.95-.64,.42-1.47,.41-2.24,.47-2.63,.17-5.2,1.23-7.19,2.95-.84-.47-.21-1.77,.54-2.36,2.2-1.71,4.99-2.41,7.69-3.08Z"/>
      <path class="cls-1" d="M8.6,166.5c-2.29,1.21-4.68,2.23-7.13,3.05-.51,.17-1.22,.24-1.43-.25-.21-.51,.39-.97,.89-1.2,2.42-1.08,4.91-2.01,7.45-2.77,.07,.39,.14,.78,.21,1.17Z"/>
      <path class="cls-1" d="M101.41,149.2c1.62-1.8,3.64-3.24,5.88-4.16,.89-.37,1.88-.65,2.81-.39-2.22,2.35-4.53,4.6-6.93,6.75-.59-.74-1.17-1.47-1.76-2.21Z"/>
      <path class="cls-1" d="M16.94,163.93c1.71-.43,3.5-.55,5.25-.36,.26,.03,.53,.07,.72,.25,.22,.21,.26,.58,.08,.82-2.12,.25-4.25,.51-6.37,.76-.18,.02-.36,.04-.52-.04-.66-.32,.14-1.26,.85-1.44Z"/>
      <path class="cls-1" d="M41.36,206.04c-2.18-.11-4.06,1.41-5.82,2.7-3.15,2.3-6.61,4.13-10.06,5.95-.43,.23-.98-.24-1-.73-.03-.49,.28-.93,.6-1.3,1.76-2.05,4.24-3.33,6.65-4.56,2.58-1.32,5.18-2.64,7.93-3.54,.64-.21,1.39-.38,1.94,0s.43,1.51-.25,1.47Z"/>
      <path class="cls-1" d="M144.42,171.42c-.65,.06-.92-.96-.49-1.45s1.16-.56,1.81-.58c5.79-.15,11.61,1.1,16.82,3.63-1.47,1.06-3.5,.4-5.22-.15-4.16-1.33-8.57-1.82-12.92-1.46Z"/>
      <path class="cls-1" d="M157.55,158.39c1.95,.22,4.38,1.07,4.45,3.03-4.63-1.54-9.67-1.85-14.46-.88-.67-.35-.58-1.43,0-1.92s1.39-.55,2.14-.57c2.63-.07,5.26,.04,7.87,.34Z"/>
      <path class="cls-1" d="M151.23,133.05c.45,.47,.91,.93,1.36,1.4-.81,.32-1.56,.79-2.2,1.37-.67-.82-1.14-1.94-.78-2.94,.36-1,1.83-1.53,2.54-.74-.27,.26-.53,.53-.8,.79l-.13,.12Z"/>
      <path class="cls-1" d="M106.34,40.67c.82,2.76,1.64,5.52,2.45,8.28,.56,1.91,.71,4.65-1.21,5.19-10.65,3-21.2,6.37-31.62,10.1-1.86,.67-4.28,1.2-5.51-.34-.57-.72-.68-1.69-.77-2.6-.43-4.56-.87-9.12-1.3-13.69-.05-.54-.09-1.12,.18-1.58,.31-.51,.92-.74,1.48-.93,9.15-3.09,18.54-5.47,28.06-7.1,1.56-.27,3.17-.51,4.72-.19,1.55,.32,3.05,1.34,3.5,2.86m-7.26,1c.76,.17,1.52,.34,2.29,.52"/>
      <path class="cls-1" d="M81.33,132.94c2.55-.47,5.1-.95,7.66-1.42,.58-.11,1.24-.27,1.51-.79,.23-.43,.12-.96,0-1.44-.9-3.53-1.8-7.07-2.71-10.6-.3-1.17-1.14-2.66-2.27-2.25-3.71,1.32-7.42,2.65-11.13,3.97-.57,.2-1.32,.36-1.7-.12-.52-.67,.35-1.53,1.1-1.93,13.9-7.22,28.87-12.38,44.27-15.25,1.58-.29,3.68-.29,4.26,1.21,1.69,4.46,3.39,8.92,5.08,13.38,.96,2.53,1.64,6-.65,7.44-13.84,8.65-31.45,7.78-46.96,12.85-.65,.21-1.35,.44-2,.23-1.07-.35-1.45-1.64-1.64-2.75-.64-3.67-.95-7.4-.95-11.13,0-.79,.09-1.71,.75-2.13,1.39-.88,2.59,1.38,2.72,3.01,.17,2.29,.35,4.59,.52,6.88,.07,.87,1.3,.98,2.16,.82m14.26-2.83c3.47-.62,6.95-1.25,10.42-1.87,.39-.07,.8-.15,1.07-.44,.36-.38,.33-.97,.28-1.49-.51-5.17-1.47-10.3-2.86-15.31-.32-1.16-2.01-1-3.14-.59-3.54,1.3-7.07,2.61-10.61,3.91-.56,.21-1.23,.62-1.09,1.19,1.01,4.21,2.01,8.41,3.02,12.62,.17,.71,.4,1.51,1.03,1.88,.55,.32,1.25,.22,1.88,.11m25.37-22.29c-.47-1.3-2.29-1.28-3.65-1.03-3.91,.74-7.82,1.49-11.72,2.23,2.21,4.56,3.51,9.55,3.81,14.61,.05,.82,.09,1.69,.52,2.38s1.43,1.12,2.11,.65c3.88-2.7,9.86-1.56,13.01-5.08,.18-.2,.35-.43,.42-.7,.09-.37-.04-.75-.17-1.1-1.44-3.99-2.88-7.98-4.33-11.97Z"/>
      <path class="cls-1" d="M76.32,176.05c-1.52,3.48-6.36,4.39-9.84,2.86-3.48-1.53-5.87-4.75-8.06-7.85-2.19-3.11-4.47-6.37-7.86-8.08-1.83,6.59-1.81,13.69,.06,20.28,2.4-1.2,5.52-.78,7.52,1.01-2.5,.11-5,.21-7.5,.32,1.06,12.66,4.73,25.09,10.73,36.28-1.53,2.43-5.06-.5-6.15-3.15-3.02-7.32-5.53-14.86-7.5-22.53-5.36,1.33-10.73,2.66-16.09,3.98,4.48-3.61,10.14-5.72,15.89-5.95-1.92-7.51-2.48-15.36-1.67-23.07,.55-5.17,1.69-10.55-.05-15.45-1.77-4.98-6.26-8.65-7.94-13.67-2.09-6.25-.19-14.86-5.9-18.16,1.28-.39,2.7-.36,3.96,.1,3.7-13.33,8.51-28.1,20.76-34.5,1.01-.53,2.72-.63,2.81,.5-10.3,7.91-17.21,20.09-18.74,32.98-.14,1.16-.2,2.43,.47,3.37,.59,.83,1.61,1.21,2.57,1.54,4.3,1.5,8.59,2.99,12.89,4.49-5.61,.64-11.43-.77-16.12-3.91-.57,5.91,.06,11.94,1.83,17.6,2.33-3.55,6.76-4.92,10.55-6.84,3.79-1.92,7.59-5.6,6.67-9.75-2.72-12.33,2.91-24.81,8.38-36.19-4.48,.54-7.26-4.68-8.48-9.03-5.28-18.93-6.35-39.02-3.11-58.41,.71-4.24,2.7-9.42,6.99-9.58,4.56-.17,7.18,5.64,11.62,6.7,1.7,.4,3.47,.06,5.18-.29,8.08-1.64,17.61-4.54,19.85-12.48,1.03-3.63,6.32-4.38,9.42-2.23s4.5,5.96,5.73,9.53c2.49,7.25,4.98,14.49,7.47,21.74,6.9-17.48,24.05-29.16,41.99-34.72,12.96-4.02,27.39-5.3,39.87,.04,12.48,5.34,22.15,18.59,20.2,32.02-1.33,9.17-7.56,16.86-14.34,23.17-6.78,6.31-14.42,11.82-20.03,19.19-14.22,18.68-12.46,44.58-10.04,67.93l2.81,18.16c5.44,16.87-3.37,37.11-19.43,44.62-.93,3.94,4.25,6.6,8.28,6.25,4.03-.36,8.23-2.1,11.96-.53,3.64,1.52,7.68-.4,11.51-1.32,3.83-.92,9.13,.19,9.59,4.11-4.01,6.01-13.37,7.54-19.08,3.1-6.04,2.32-12.51,3.51-18.97,3.49-3.36,0-6.95-.42-9.56-2.55-6.17-5.01-3.46-16.14-9.48-21.33-.13,1.67-.27,3.35-.4,5.02-1-3.35-4.12-5.96-7.6-6.33-3.48-.38-4.41-4.87-6.27-7.83-4.44-7.05-16.9-7.14-18.98-15.21-.66-2.57-4.48-3.01-6.56-1.36s-2.82,4.42-3.44,7c-1.23,.22-2.09-1.28-2.08-2.53s.43-2.55,0-3.72c-.96-2.56-5.24-1.85-6.44,.61-1.2,2.46-.36,5.38,.5,7.98-1.7,.16-3.45-.5-4.61-1.76-3.06,5.64-6.12,11.28-9.18,16.93-1.25,2.31-2.53,4.68-2.98,7.26-1.76,9.92-4.16,20.88-12.41,26.65-3.2,2.24-7.02,3.46-10.25,5.66-4.03,2.74-7.15,8-11.79,9.52-4.63,1.52-11.19-3.53-9.24-8,1.2-2.73,4.6-3.51,7.48-4.28,8.39-2.25,15.97-7.43,21.11-14.42,1.05-1.43,2.05-3.17,1.6-4.89-1.65-6.36,8.34-12.21,5.4-18.09-1.81-3.61,.95-7.72,3.28-11.02,2.33-3.3,4.19-8.26,1.21-10.99m43.84,2.04c.51,.61,1.16,1.27,1.95,1.18,.84-.1,1.34-1.08,1.24-1.92-.11-.84-.64-1.56-1.16-2.23-.37-.49-.75-.98-1.12-1.47,1.9-.26,3.88,.19,5.49,1.22,1.04,.67,2.49,1.56,3.32,.64-1.13-1.35-2.32-2.75-3.94-3.42-1.63-.67-3.81-.33-4.66,1.21-.85-.99-2.63,.06-2.74,1.35s.78,2.44,1.62,3.43m58.65-86.1c4.84-16.98,20.46-28.11,33.4-40.11,2.12-1.96,4.2-4,5.87-6.35,7.15-10.05,4.84-25.58-4.91-33.13-3.57-2.76-7.84-4.47-12.18-5.71-13.29-3.78-27.76-3.3-40.77,1.36-13.01,4.66-24.5,13.47-32.36,24.83-4.05,5.85-2.78,13.75-1.02,20.64,1.76,6.89,3.81,14.39,.94,20.9,16.06,13.02,29.2,29.62,38.19,48.23,.02-.99,.03-1.98,.05-2.97,2.29,4.37,4.58,8.75,6.87,13.12,.3,.57,.65,1.19,1.24,1.44s1.47-.16,1.39-.8c-1.21-9.95,.03-20.02,1.26-29.97,.48-3.86,.96-7.73,2.02-11.47m-52.89-30.08c-2.06-13.02-5.79-25.77-11.06-37.85-.82-1.88-1.76-3.84-3.44-5.01-2.64-1.83-6.21-1.19-9.33-.44-13.74,3.34-27.28,7.53-40.51,12.53-1.06,.4-2.16,.84-2.88,1.7-.96,1.14-1.05,2.76-1.08,4.25-.29,16.64,1.98,33.32,6.71,49.27,.19,.66,.42,1.35,.95,1.78,.82,.67,2.02,.47,3.06,.24,15.43-3.52,30.86-7.04,46.29-10.56,3.84-.88,8.05-2,10.22-5.28,2.02-3.05,1.65-7.03,1.08-10.64m-33.79,91.93c.09,1.09,2,.79,2.29-.26,.3-1.05-.32-2.11-.68-3.14-1.63-4.6,1.77-9.32,4.95-13.03,0,2.69-.84,5.37-2.36,7.59,2.64,1.73,2.18,6.04,4.57,8.1,1.89,1.62,4.92,1.13,6.87-.43,1.94-1.55,3.06-3.89,4.11-6.15,1.45-3.12,2.9-6.25,4.35-9.37-1.02,.35-1.95,.95-2.71,1.72,2.81-5.15,8.29-8.16,13.48-10.89,1.99-1.05,3.97-2.09,5.96-3.14-3.72,6.13-13.89,7.27-15.39,14.28,6.17-5.07,12.94-9.41,20.13-12.89,3.64-1.76,4.88-6.63,3.73-10.51s-4.08-6.95-7.05-9.7c-.61-.57-1.28-1.28-1.14-2.1,.14-.82,1.67-.99,1.64-.16,2.06-2.9,4.95-5.21,8.24-6.58,1.52-.64,.75-2.94-.28-4.23-3.9-4.87-8.37-9.27-13.3-13.09-1.61-1.25-3.62-2.5-5.56-1.87-2.77,.9-3.04,4.87-1.76,7.48,1.28,2.61,3.54,4.76,4.24,7.59,.44,1.79-.26,4.21-2.1,4.4-15.36,1.53-30.54,4.91-45.1,10.04-3.36,1.18-7.39,2.38-10.23,.23-2.39-1.8-2.69-5.77-.59-7.91-2.76,5.67-4.55,11.81-5.27,18.08-.53,4.64-.45,9.43,1.08,13.84,1.53,4.41,4.68,8.4,8.99,10.2-1.73-.3-3.46-.6-5.19-.9,.47,1.41,1.23,2.69,1.99,3.97,3.84,6.44,7.68,12.89,11.53,19.33,.74,1.23,2.18,2.64,3.35,1.81,.52-.37,.69-1.06,.73-1.7,.23-3.42-2.7-6.73-6.12-6.93,.11-.95,1.62-1.32,2.15-.52,1-.38,.3-2.12-.77-2.15-1.07-.03-1.9,.87-2.58,1.69-.58-1.28-1.15-2.56-1.73-3.83,2.26-2.16,6.99,2.09,8.76-.49,1.45-2.12-2.12-4.43-2.14-7,4.51,.2,8.55,4.1,8.91,8.6m75.79-22.69c-.84-.06-1.18,1.03-1.33,1.85-1.27,7.36-8.13,12.22-14.42,16.26-10.35,6.64-20.73,13.3-31.75,18.75,5.47-.96,11.36,2.74,12.87,8.09,.32,1.15,1.2,2.04,2.03,2.89,4.33,4.36,8.67,8.71,13,13.07,2.16,2.17,5.12,3.31,7.68,4.98,2.56,1.67,4.93,4.33,4.68,7.38-.11,1.38,1.51,2.38,2.87,2.17s2.45-1.23,3.39-2.23c9.59-10.21,14.22-24.88,12.22-38.75-.11-.8-.26-1.62-.75-2.26-1.57-2.06-5.32-.81-7.07-2.72,.67-1.56,2.9,.26,4.59,.36,2.5,.14,2.97-3.54,2.35-5.97-2.13-8.44-5.78-16.46-10.37-23.86m-33.43,2.13c-5.46,2.48-10.52,5.85-14.9,9.95-2.65,2.48-5.15,5.39-5.91,8.94-.76,3.55,.78,7.81,4.19,9.06,3.35,1.23,6.96-.72,10-2.6,3.35-2.07,6.69-4.14,10.04-6.21-4.05-.68-8.19-.84-12.28-.49-.15-1.01,.75-1.93,1.74-2.19,.99-.27,2.03-.06,3.04,.09,8.78,1.35,18.12-1.52,24.63-7.56,.57-.53,1.12-1.09,1.45-1.79,1.26-2.66-1.17-5.47-2.46-8.12-.46-.95-.78-1.97-1.42-2.81-1.37-1.8-3.95-2.33-6.17-1.87s-4.18,1.72-6.08,2.96c-.87,.57-1.74,1.13-2.6,1.7-1.32,.86-2.7,1.79-3.41,3.2-.32-.72-.27-1.59,.13-2.27m-58.61-28.1c14.68-5.04,29.81-8.74,45.16-11.05,1.39-.21,1.22-2.26,.67-3.55-1.14-2.68-2.28-5.35-3.42-8.03-.18-.43-.38-.87-.76-1.14-.57-.41-1.36-.28-2.05-.13-11.64,2.52-23.29,5.05-34.93,7.57-1.37,.3-2.79,.61-3.92,1.45-1.77,1.31-2.47,3.59-3.06,5.71-1,3.63-1.99,7.27-2.95,10.92m-22.41,38.87c-.52,.38-1.07,.8-1.3,1.4-.28,.72-.03,1.53,.21,2.26,.89,2.68,2.45,5.87,5.28,5.88,4.55,.02,9.06,2.03,12.13,5.39-4.7,.14-8.8-4.89-13.35-3.67,4.59,5.55,9.17,11.1,13.76,16.65,.48,.58,.99,1.19,1.7,1.47,1.1,.43,2.33-.05,3.42-.53,3.36-1.49,7.16-3.6,7.65-7.24,.31-2.32-.87-4.56-2.01-6.6-3.99-7.14-7.98-14.29-11.97-21.43-.36-.65-.76-1.33-1.4-1.71-1.41-.82-3.15,.17-4.46,1.13-3.21,2.34-6.43,4.68-9.64,7.02m106.69-18.72c-.19,1.28,.44,2.63,1.52,3.33,1.06-1.28,2.78-2,4.44-1.86,1.69,.15,3.04-1.63,3.08-3.32,.04-1.69-.83-3.26-1.69-4.71-4.74-8.03-10-15.75-15.72-23.11-.17-.22-.37-.45-.65-.48-.25-.02-.48,.14-.68,.29-2.15,1.64-4.3,3.28-6.46,4.91-.48,.37-.98,.76-1.23,1.31-.24,.55-.12,1.32,.42,1.59,5.42,2.73,8.92,8.86,8.52,14.91-.08,1.26,1.44,1.94,2.69,2.15s2.78,.51,3.14,1.72c.34,1.15,1.82,1.56,2.99,1.3M60.99,28.26c2.4-.86,4.8-1.72,7.2-2.58,.99-.35,2.17-.98,2.1-2.03-.03-.39-.24-.75-.47-1.08-1.06-1.54-2.45-2.84-4.05-3.8-.3-.18-.63-.36-.98-.37-.81-.04-1.41,.74-1.79,1.45-1.39,2.56-2.09,5.5-2.01,8.41m98.91,182.74c-2-.09-3.36,2.32-2.98,4.29,.14,.73,.44,1.42,.85,2.03,1.7,2.57,5.4,3.57,8.17,2.21-1.55-.98-1.99-2.99-2.53-4.75-.54-1.75-1.67-3.7-3.5-3.78m-74.6-25.05c-.06-.04-.14-.06-.22-.07-2.44-.37-4.78,1.47-5.8,3.71-1.03,2.24-1.04,4.8-1.03,7.26,0,.2,0,.41,.1,.58,.41,.74,1.5-.07,1.88-.82,1.69-3.32,3.38-6.64,5.07-9.96,.12-.23,.21-.56,0-.7M101.73,15.79c2.85-.44,5.76-.51,8.64-.23,.08-1.86-1-3.55-2.03-5.09-.3-.45-.7-.95-1.24-.94-.22,0-.43,.1-.62,.21-2.34,1.22-4.12,3.48-4.74,6.05m52.11,188.56c.43,.64,.94,1.26,1.63,1.59,.7,.32,1.62,.27,2.12-.32,.68-.8,.25-2.04-.29-2.94-.68-1.13-1.49-2.17-2.42-3.1-.43-.43-.91-.85-1.51-.98-.6-.13-1.32,.15-1.49,.74-.09,.31-.01,.64,.07,.95,.4,1.45,1.04,2.83,1.88,4.08m-82.83,19.59c.16-.26,.32-.56,.26-.86-.15-.92-1.64-.52-2.15,.26-.51,.78-1.03,1.88-1.95,1.77-2.03-.24-3.42,1.93-4.28,3.78-.18,.38-.36,.8-.29,1.21,.07,.42,.53,.79,.92,.61,3.09-1.46,5.72-3.85,7.49-6.77m88.9-84.5c.95-2.59,1.9-5.17,2.84-7.76,.14-.39,.24-.91-.11-1.12-1.65,1.08-3.78,1.39-5.66,.81,1.57,2.24,2.2,5.12,1.71,7.81,.41,.09,.81,.17,1.22,.26m-47.23,29.21c1.04,.75,2.87,1.16,3.31-.05,.32-.87,1.33-1.42,2.23-1.2,.2-.77-.59-1.41-1.27-1.82-1.04-.62-2.16-1.25-3.38-1.23-1.21,.02-2.5,.97-2.42,2.18,.06,.9,.8,1.59,1.53,2.12m-42.94,47.55c.18,.99,.7,2.02,1.64,2.38,.94,.35,2.24-.4,2.07-1.39-.45-2.7-.89-5.41-1.34-8.11-1.63,2.01-2.84,4.59-2.38,7.13m70.66-24.54c1.02,1.51,2.24,2.88,3.63,4.07,.41,.35,.92,.71,1.45,.6,1.15-.23,.85-1.99,.17-2.94-.75-1.05-1.62-2.01-2.59-2.86-.48-.42-1.02-.83-1.66-.89s-1.36,.35-1.4,.99c-.02,.38,.19,.73,.4,1.04m41.24,25.12c-3.11,.61-6.21,1.22-9.32,1.82-.31,.06-.69,.18-.75,.49-.09,.43,.49,.67,.93,.72,2.93,.28,5.93-.21,8.62-1.41,.36-.16,.73-.35,.9-.7s0-.88-.38-.92m-85.97-64.39c.62,.72,1,1.61,1.38,2.48,.64,1.5,1.29,3,1.93,4.5,.67-.07,1.12-.76,1.16-1.43,.04-.67-.23-1.31-.5-1.92-.9-2.06-1.8-4.13-2.7-6.19-.43,.86-.85,1.72-1.28,2.57m-48.89,88.13c1.09-.25,2.04-1.07,2.43-2.13-1.51-.13-3.06,.33-4.25,1.26-.64,.5-1.22,1.23-1.18,2.05,.04,.9,.86,1.64,1.75,1.77s1.8-.29,2.45-.91c-.4-.68-.79-1.36-1.19-2.04m60.68-84.16c-.27-.64-1.12-.78-1.82-.71-1.29,.12-2.54,.63-3.55,1.43,.21,1.25,1.38,2.26,2.65,2.29,1.26,.03,2.48-.92,2.76-2.16,.06-.28,.08-.58-.03-.85M40.76,239.45c-1.17,.21-2.02,1.43-1.93,2.62,.09,1.19,1.04,2.22,2.19,2.53,.93,.25,1.98,.06,2.75-.51-1.26-.65-2.1-2.03-2.1-3.44,0-.65-.45-1.66-.91-1.2m49.38-81.36c-.46-.79-1.75-.79-2.33-.09-.58,.7-.43,1.83,.2,2.49,.63,.66,1.62,.88,2.52,.73,.92-.15,1.85-.78,1.97-1.7,.12-.92-1.03-1.85-1.78-1.29m42.43,24.49c-.72-.34-1.52-.69-2.28-.47-.76,.23-1.23,1.35-.6,1.83,1.85,1.42,4.78,2.01,6.36,.29-1.16-.55-2.32-1.11-3.48-1.66m63.45,33.73c-1.76,.4-3.49,.96-5.15,1.66-.36,.15-.36,.65-.31,1.04,2.06,1.3,5.25-.28,5.46-2.71m-143.51,18.94c2.16-.9,4.18-2.13,5.97-3.64-2.51-.47-5.24,1.19-5.97,3.64m32.97-55.31c-.14,.33-.24,.71-.08,1.02,.41,.81,1.65,.08,2.08-.72,.61-1.13,.98-2.38,1.08-3.65-1.37,.71-2.48,1.92-3.08,3.35m6.51-14.05c.82-.99,1.58-2.02,2.3-3.09-.8-.7-2.19-.56-2.82,.3-.64,.85-.38,2.23,.52,2.79m-9.82,13.29c-.18-.99-.37-1.97-.55-2.96-.97,.05-1.76,1.09-1.56,2.04,.2,.95,1.35,1.57,2.26,1.22m6.02-24.46c.36,.27,.97,.05,1.07-.39-.15-1.23-.9-2.38-1.97-3-.64,1.12-.19,2.72,.94,3.34m5.58,20.08c.4-.32-.52-.64-.9-.29-1.08,1.01-1.13,2.93-.09,4,.35-1.22,.69-2.44,1.04-3.67m.59-18.07c-.47,.71-.29,1.78,.4,2.28,.69,.51,1.76,.37,2.3-.3-1.07-.13-2.04-.89-2.43-1.89m11.88,9.97c.21,1.08,.85,2.07,1.76,2.7,.29-1.21-.53-2.57-1.72-2.88m28.83,23.57c.44,.5,1.41,.31,1.63-.32s-.44-1.38-1.09-1.25c-.66,.13-.97,1.07-.53,1.57m-31.42-15.44c.49,.31,1.21-.38,.9-.87-.49-.51-1.39-.54-1.92-.07,.33,.33,.67,.67,1,1m93.62,41.37c-.32-.1-.69-.04-.95,.16-.21,.62,.31,1.38,.96,1.4,.28-.48,.28-1.11,0-1.59m-98.12-52.08c-.26,.26-.51,.51-.77,.77,.23,.47,1,.52,1.3,.09,.3-.43-.02-1.13-.54-1.19m101.31,53.58c.05-.33,.11-.66,.16-.99-.52-.31-1.3,.25-1.17,.84,.31,.07,.62,.13,.92,.2m-105.86-70.39c-.16,.22-.32,.45-.48,.67,.25,.32,.63,.55,1.03,.62,.25-.39,.02-.99-.42-1.11m27.01,17.53c.3-.55-.73-1.13-1.04-.59-.04,.44,.58,.76,.92,.48"/>
    </g>
  </g>
</svg>