<?xml version="1.0" encoding="UTF-8"?>
<svg id="Layer_2" data-name="Layer 2" xmlns="http://www.w3.org/2000/svg" viewBox="0 0 292.52 246.28">
  <defs>
    <style>
      .cls-1 {
        fill: #cc7d3d;
      }

      .cls-2 {
        fill: #555e73;
      }
    </style>
  </defs>
  <g id="background">
    <g id="analytics">
      <path class="cls-2" d="M273.92,5.45c14.3,6.88,22.04,25.01,17.13,40.1-3.13,9.61-10.4,17.19-16.64,25.15-16.72,21.31-27.07,47.55-29.42,74.54-2.48,28.43-7.82,58.63-27.51,79.29-17.32,18.17-44.8,25.95-69.07,19.57-24.28-6.38-44.37-26.67-50.52-51.01-3.4,16.68-12.56,32.14-25.58,43.12-2.93,2.48-6.34,4.83-10.18,4.83-3.42,0-6.53-1.88-9.3-3.89-16.65-12.06-27.99-31.2-30.56-51.6-.56-4.46-.92-9.4-4.15-12.52-2.62-2.53-1.75-6.81-1.12-10.4,.63-3.59,.11-8.34-3.4-9.34-2.32-.66-3.08-3.51-3.46-5.89-2.94-18.74-5.88-37.48-8.81-56.22-.32-2.04-.63-4.19,.17-6.1,.59-1.42,1.72-2.52,2.83-3.58,15.42-14.79,31.21-29.21,47.34-43.22,1.9-1.65,4.52-3.39,6.73-2.19,1.59,.87,2.1,2.87,2.46,4.65,3.62,18.2,6.92,36.46,9.91,54.77,12.08-2.26,24.96,.03,35.52,6.31-2.42,3.75-4.83,7.5-7.25,11.25,5.74-2.49,11.48-4.98,17.22-7.47-7.03-2.78-13.85-6.53-18.94-12.13-5.09-5.59-8.27-13.25-7.24-20.74,.66-4.77,2.94-9.16,5.52-13.22,9.79-15.46,24.51-27.75,41.46-34.63,3.34-1.36,5.34-4.75,6.96-7.98,1.61-3.23,3.24-6.71,6.31-8.62,3.06-1.91,8.03-1.19,9.1,2.26,4.1,13.11,15.13,23.07,19.77,36,3.12,8.7,3.14,18.16,3.13,27.4,5.78-25.68,22.4-48.74,44.94-62.34,14.01-8.46,31.92-13.22,46.67-6.12M117.32,100.05c5.81,1.12,12.56,.8,16.63,5.1-14.36,3.72-28.08,9.89-40.4,18.17-4.04,2.72-8.28,6.16-7.47,11.78,.39,2.73,2.02,5.15,4.27,6.75,5.38,3.82,12.01,3.16,18.05,1.72,7.5-1.79,14.72-4.71,21.35-8.64,1.65-.98,3.35-2.04,5.27-2.13,1.91-.08,4.04,1.27,4.01,3.19-2.36,1.84-5.31,2.7-7.98,4.04-8.26,4.15-13.46,12.88-15.53,21.89s-1.41,18.39-.61,27.6c1.24,14.33,3.47,30.01,14.14,39.65,2.69,2.43,5.81,4.35,9.06,5.95,22.41,11.03,50.9,5.98,70.21-9.86,19.31-15.84,29.71-41.01,30.46-65.97,.2-6.54-.21-13.11,.39-19.62,.55-5.94,1.93-11.77,3.59-17.5,6.66-23,17.89-44.67,32.84-63.38,4.64-5.8,9.78-11.61,11.57-18.82,2.57-10.33-2.83-21.69-11.68-27.6-8.85-5.91-20.45-6.8-30.71-3.95-10.26,2.85-19.29,9.12-26.97,16.5-8.03,7.71-14.78,16.74-19.92,26.61-3.28,6.3-5.89,12.92-8.28,19.61-9.71,27.22-15.78,56.4-11.89,85.04,1.25,9.21,3.93,18.94,10.9,24.99,.2,.17,.13,.49-.13,.55l-5.5,1.2c-1.36-.27-2.29-1.5-3.04-2.66-9.47-14.69-10.85-33.21-9.3-50.62,1.54-17.41,5.71-34.56,6.27-52.03,.55-17.47-3.05-36.03-14.87-48.91-4.13-4.5-6.51-10.58-6.53-16.69-8.51,2.86-8.72,17-17.31,19.62-17.82,5.44-33.15,18.58-41.23,35.38-1.43,2.97-2.66,6.14-2.66,9.43,0,3.07,1.07,6.05,2.55,8.73,4.2,7.63,11.91,13.23,20.46,14.89M15.86,149.8c12.39,3.63,25.12,5.96,37.82,8.28,3.85,.7,8.73,.98,10.74-2.38,6.37-10.66,12.86-21.27,20.4-31.13,5.78-7.56,12.18-14.7,16.9-22.96-7.5-1.07-15.04-1.9-22.6-2.5-3.52-.28-7.18-.48-10.47,.82-2.4,.95-4.42,2.63-6.39,4.3-16.53,14.06-32.05,29.3-46.39,45.58m49.7,84.24c14.56-13.62,27.6-30.92,28.56-50.83,.05-1.09,.02-2.32-.77-3.08-.97-.95-2.55-.69-3.87-.39-19.84,4.51-40.52,5.32-60.66,2.4-2.56-.37-3.25,3.45-2.64,5.96,4.86,20.2,21.09,36.07,39.37,45.95M16.43,112.19c-1.04-2.23,.33-4.79,1.66-6.86,2.73-4.25,5.46-8.5,8.19-12.76,1.66-2.59,3.48-5.32,6.29-6.58,4.62-2.07,6.8-8.31,4.48-12.81-2.24-4.32,.91-9.38,3.91-13.21,.44-.56,.95-1.16,1.65-1.26,1.14-.15,1.94,1.07,2.44,2.11,.97,2.02,1.96,4.17,1.77,6.41-.19,2.24-2.03,4.5-4.26,4.28-1.26,4.33-1.82,8.86-1.65,13.37,5.31,4.66,8.52,11.63,8.6,18.69,.02,2.11,2.74,3.44,4.69,2.63,1.95-.81,2.98-3.06,3.02-5.17,.04-2.11-.72-4.15-1.43-6.14-2.76-7.75-4.95-15.7-6.53-23.77-.32-1.62-.54-3.52,.6-4.72,1.28-1.36,3.68-.94,5.01,.37,1.33,1.31,1.88,3.2,2.37,5,2.29,8.39,4.58,16.77,6.86,25.16,1.62,.04,1.9-2.3,1.6-3.89-3.12-16.59-6.23-33.18-9.35-49.78-15.85,13.17-31.7,26.35-47.55,39.52-1.09,.91-2.23,1.89-2.63,3.25-.3,1.02-.13,2.11,.04,3.15,3.05,18.67,6.09,37.34,9.14,56.01,3.59-4.15,6.93-8.52,9.99-13.07-.98,.33-1.95,.65-2.93,.98-2.48-2-3.48-5.35-3.64-8.53-.1-1.96,.13-4.09,1.43-5.56,1.3-1.48,3.95-1.84,5.14-.28,.58,.76,.7,1.77,.78,2.72,.28,3.38,.33,6.77,.16,10.16,1.95-1.03,3.97-2.12,5.27-3.9,1.3-1.78,1.63-4.48,.14-6.11-2.38-2.61-2.96-6.35-3.43-9.86-.34-2.52-.35-5.72,1.92-6.86,2.84-1.43,5.78,2,6.45,5.11,.67,3.11,.67,6.79,3.19,8.73,3.53-1.84,6.51-4.72,8.47-8.18-.8,1.5-3.11,1.48-4.42,.4-1.3-1.08-1.85-2.8-2.33-4.43-1.16-3.89-2.31-7.79-3.47-11.68-.41-1.37-.76-3.01,.15-4.1,.45-.54,1.14-.84,1.53-1.43,.39-.58,.12-1.65-.58-1.57-6.32,3.76-11.54,9.34-14.87,15.89-1.84,3.63-3.87,8.13-7.91,8.56m87.45,85.02c1.38,7.75,5.18,15.05,10.74,20.61-9.94-21.73-10.13-47.72-.5-69.59-2.76,.18-5.52,.36-8.28,.54-1.88,.12-3.41,1.73-4.03,3.51-.62,1.78-.53,3.72-.43,5.6,.53,9.96,1.06,19.92,1.59,29.88,.17,3.16,.34,6.33,.89,9.44m-13.89-27.24c.9,1.41,2.21,2.96,3.85,2.71,1.87-.28,2.57-2.58,2.81-4.46,.5-3.89,.8-7.81,.89-11.73,.04-1.68,.02-3.43-.71-4.94-.74-1.51-2.41-2.69-4.05-2.32-.64,.14-1.3,.79-1,1.36,.34,.63-.3,1.33-.87,1.77-2.39,1.84-4.78,3.67-7.18,5.51,1.71,4.21,3.8,8.27,6.24,12.1m-17.33,2.2c.6,.9,1.2,1.8,1.8,2.7,.31,.46,.63,.94,1.1,1.24,.83,.55,1.92,.43,2.91,.26,2.74-.45,5.46-1.06,8.13-1.83,.34-.1,.7-.21,.96-.45,.91-.84,.06-2.3-.72-3.26-1.99-2.45-3.49-5.29-4.38-8.32-.27-.93-1.42-1.36-2.38-1.17-.95,.19-1.74,.83-2.49,1.44-1.46,1.21-2.93,2.41-4.39,3.62-.69,.57-1.42,1.2-1.68,2.06-.38,1.28,.39,2.59,1.14,3.7m-51.87-15.42c.35,.28,.55,.73,.54,1.17,2.35,1.71,4.38,3.85,5.97,6.27,1.28,1.96,2.7,4.38,5.04,4.46,2.91,.1,4.52-3.48,7.23-4.54-1.55-2.76-4.33-4.66-7.3-5.77-2.97-1.11-6.14-1.5-9.28-1.89-.75-.09-1.59-.17-2.19,.29m42.34,8.95c-1.73-.68-3.46-1.33-5.21-1.96-1.45-.52-2.95-1.02-4.49-1.03-1.54,0-3.17,.58-4.05,1.85-1.54,2.24-.17,5.3,1.48,7.46,.63,.83,1.75,1.69,2.58,1.08,2.86-2.11,5.79-4.13,8.78-6.05,.3-.45,.6-.9,.9-1.35m-20.1,2.31c-2.46,2.22-5.22,4.11-8.17,5.6,.74,2.49,2.88,4.52,5.4,5.12,.67,.16,1.51,.17,1.91-.4,1.24-1.77,3.37-2.87,5.53-2.84-1.14-2.72-2.73-5.26-4.67-7.48m33.59-20.87c1.41,1.89,2.81,3.78,4.22,5.66,1.96-1.91,4-3.87,6.58-4.8-1.67-.36-2.65-2.04-3.62-3.45-.97-1.41-2.54-2.84-4.18-2.33-1.46,1.29-2.52,3.03-3,4.92m-19.85,29.84c.01,.5,.03,1,.04,1.5,3.72-.19,7.43-.37,11.15-.56,1.03-.05,2.25-.22,2.71-1.15-.98-2.14-2.35-4.11-4.03-5.77-3.29,1.99-6.58,3.99-9.87,5.98m-33.55-3.06c1.5,.29,3.13-.72,3.54-2.19,.54-1.92-.84-3.8-2.12-5.33-1.5-1.79-3.02-3.65-3.75-5.87-.7,2.38-1.04,4.86-1.03,7.33,.02,2.51,.9,5.58,3.36,6.05m44.49-13.55c.21,.71,.42,1.42,.63,2.13,2.85-2.23,5.71-4.46,8.56-6.69,1.39-1.08,.35-3.28-.74-4.65-.31-.39-.66-.8-1.14-.93-.97-.25-1.77,.74-2.28,1.61-1.68,2.84-3.35,5.69-5.03,8.53m-39.33,14.87c.52,1.42,2.01,2.42,3.52,2.38-.12-1.64-1.9-2.94-3.49-2.56m13.35-14.03c.8,.6,1.94,.7,2.83,.24-.21-.37-.42-.74-.63-1.12-.67,.22-1.35,.44-2.02,.66l-.18,.21Z"/>
    </g>
    <g id="analytics-2" data-name="analytics">
      <path class="cls-2" d="M273.92,5.45c14.3,6.88,22.04,25.01,17.13,40.1-3.13,9.61-10.4,17.19-16.64,25.15-16.72,21.31-27.07,47.55-29.42,74.54-2.48,28.43-7.82,58.63-27.51,79.29-17.32,18.17-44.8,25.95-69.07,19.57-24.28-6.38-44.37-26.67-50.52-51.01-3.4,16.68-12.56,32.14-25.58,43.12-2.93,2.48-6.34,4.83-10.18,4.83-3.42,0-6.53-1.88-9.3-3.89-16.65-12.06-27.99-31.2-30.56-51.6-.56-4.46-.92-9.4-4.15-12.52-2.62-2.53-1.75-6.81-1.12-10.4,.63-3.59,.11-8.34-3.4-9.34-2.32-.66-3.08-3.51-3.46-5.89-2.94-18.74-5.88-37.48-8.81-56.22-.32-2.04-.63-4.19,.17-6.1,.59-1.42,1.72-2.52,2.83-3.58,15.42-14.79,31.21-29.21,47.34-43.22,1.9-1.65,4.52-3.39,6.73-2.19,1.59,.87,2.1,2.87,2.46,4.65,3.62,18.2,6.92,36.46,9.91,54.77,12.08-2.26,24.96,.03,35.52,6.31-2.42,3.75-4.83,7.5-7.25,11.25,5.74-2.49,11.48-4.98,17.22-7.47-7.03-2.78-13.85-6.53-18.94-12.13-5.09-5.59-8.27-13.25-7.24-20.74,.66-4.77,2.94-9.16,5.52-13.22,9.79-15.46,24.51-27.75,41.46-34.63,3.34-1.36,5.34-4.75,6.96-7.98,1.61-3.23,3.24-6.71,6.31-8.62,3.06-1.91,8.03-1.19,9.1,2.26,4.1,13.11,15.13,23.07,19.77,36,3.12,8.7,3.14,18.16,3.13,27.4,5.78-25.68,22.4-48.74,44.94-62.34,14.01-8.46,31.92-13.22,46.67-6.12M117.32,100.05c5.81,1.12,12.56,.8,16.63,5.1-14.36,3.72-28.08,9.89-40.4,18.17-4.04,2.72-8.28,6.16-7.47,11.78,.39,2.73,2.02,5.15,4.27,6.75,5.38,3.82,12.01,3.16,18.05,1.72,7.5-1.79,14.72-4.71,21.35-8.64,1.65-.98,3.35-2.04,5.27-2.13,1.91-.08,4.04,1.27,4.01,3.19-2.36,1.84-5.31,2.7-7.98,4.04-8.26,4.15-13.46,12.88-15.53,21.89s-1.41,18.39-.61,27.6c1.24,14.33,3.47,30.01,14.14,39.65,2.69,2.43,5.81,4.35,9.06,5.95,22.41,11.03,50.9,5.98,70.21-9.86,19.31-15.84,29.71-41.01,30.46-65.97,.2-6.54-.21-13.11,.39-19.62,.55-5.94,1.93-11.77,3.59-17.5,6.66-23,17.89-44.67,32.84-63.38,4.64-5.8,9.78-11.61,11.57-18.82,2.57-10.33-2.83-21.69-11.68-27.6-8.85-5.91-20.45-6.8-30.71-3.95-10.26,2.85-19.29,9.12-26.97,16.5-8.03,7.71-14.78,16.74-19.92,26.61-3.28,6.3-5.89,12.92-8.28,19.61-9.71,27.22-15.78,56.4-11.89,85.04,1.25,9.21,3.93,18.94,10.9,24.99,.2,.17,.13,.49-.13,.55l-5.5,1.2c-1.36-.27-2.29-1.5-3.04-2.66-9.47-14.69-10.85-33.21-9.3-50.62,1.54-17.41,5.71-34.56,6.27-52.03,.55-17.47-3.05-36.03-14.87-48.91-4.13-4.5-6.51-10.58-6.53-16.69-8.51,2.86-8.72,17-17.31,19.62-17.82,5.44-33.15,18.58-41.23,35.38-1.43,2.97-2.66,6.14-2.66,9.43,0,3.07,1.07,6.05,2.55,8.73,4.2,7.63,11.91,13.23,20.46,14.89M15.86,149.8c12.39,3.63,25.12,5.96,37.82,8.28,3.85,.7,8.73,.98,10.74-2.38,6.37-10.66,12.86-21.27,20.4-31.13,5.78-7.56,12.18-14.7,16.9-22.96-7.5-1.07-15.04-1.9-22.6-2.5-3.52-.28-7.18-.48-10.47,.82-2.4,.95-4.42,2.63-6.39,4.3-16.53,14.06-32.05,29.3-46.39,45.58m49.7,84.24c14.56-13.62,27.6-30.92,28.56-50.83,.05-1.09,.02-2.32-.77-3.08-.97-.95-2.55-.69-3.87-.39-19.84,4.51-40.52,5.32-60.66,2.4-2.56-.37-3.25,3.45-2.64,5.96,4.86,20.2,21.09,36.07,39.37,45.95M16.43,112.19c-1.04-2.23,.33-4.79,1.66-6.86,2.73-4.25,5.46-8.5,8.19-12.76,1.66-2.59,3.48-5.32,6.29-6.58,4.62-2.07,6.8-8.31,4.48-12.81-2.24-4.32,.91-9.38,3.91-13.21,.44-.56,.95-1.16,1.65-1.26,1.14-.15,1.94,1.07,2.44,2.11,.97,2.02,1.96,4.17,1.77,6.41-.19,2.24-2.03,4.5-4.26,4.28-1.26,4.33-1.82,8.86-1.65,13.37,5.31,4.66,8.52,11.63,8.6,18.69,.02,2.11,2.74,3.44,4.69,2.63,1.95-.81,2.98-3.06,3.02-5.17,.04-2.11-.72-4.15-1.43-6.14-2.76-7.75-4.95-15.7-6.53-23.77-.32-1.62-.54-3.52,.6-4.72,1.28-1.36,3.68-.94,5.01,.37,1.33,1.31,1.88,3.2,2.37,5,2.29,8.39,4.58,16.77,6.86,25.16,1.62,.04,1.9-2.3,1.6-3.89-3.12-16.59-6.23-33.18-9.35-49.78-15.85,13.17-31.7,26.35-47.55,39.52-1.09,.91-2.23,1.89-2.63,3.25-.3,1.02-.13,2.11,.04,3.15,3.05,18.67,6.09,37.34,9.14,56.01,3.59-4.15,6.93-8.52,9.99-13.07-.98,.33-1.95,.65-2.93,.98-2.48-2-3.48-5.35-3.64-8.53-.1-1.96,.13-4.09,1.43-5.56,1.3-1.48,3.95-1.84,5.14-.28,.58,.76,.7,1.77,.78,2.72,.28,3.38,.33,6.77,.16,10.16,1.95-1.03,3.97-2.12,5.27-3.9,1.3-1.78,1.63-4.48,.14-6.11-2.38-2.61-2.96-6.35-3.43-9.86-.34-2.52-.35-5.72,1.92-6.86,2.84-1.43,5.78,2,6.45,5.11,.67,3.11,.67,6.79,3.19,8.73,3.53-1.84,6.51-4.72,8.47-8.18-.8,1.5-3.11,1.48-4.42,.4-1.3-1.08-1.85-2.8-2.33-4.43-1.16-3.89-2.31-7.79-3.47-11.68-.41-1.37-.76-3.01,.15-4.1,.45-.54,1.14-.84,1.53-1.43,.39-.58,.12-1.65-.58-1.57-6.32,3.76-11.54,9.34-14.87,15.89-1.84,3.63-3.87,8.13-7.91,8.56m87.45,85.02c1.38,7.75,5.18,15.05,10.74,20.61-9.94-21.73-10.13-47.72-.5-69.59-2.76,.18-5.52,.36-8.28,.54-1.88,.12-3.41,1.73-4.03,3.51-.62,1.78-.53,3.72-.43,5.6,.53,9.96,1.06,19.92,1.59,29.88,.17,3.16,.34,6.33,.89,9.44m-13.89-27.24c.9,1.41,2.21,2.96,3.85,2.71,1.87-.28,2.57-2.58,2.81-4.46,.5-3.89,.8-7.81,.89-11.73,.04-1.68,.02-3.43-.71-4.94-.74-1.51-2.41-2.69-4.05-2.32-.64,.14-1.3,.79-1,1.36,.34,.63-.3,1.33-.87,1.77-2.39,1.84-4.78,3.67-7.18,5.51,1.71,4.21,3.8,8.27,6.24,12.1m-17.33,2.2c.6,.9,1.2,1.8,1.8,2.7,.31,.46,.63,.94,1.1,1.24,.83,.55,1.92,.43,2.91,.26,2.74-.45,5.46-1.06,8.13-1.83,.34-.1,.7-.21,.96-.45,.91-.84,.06-2.3-.72-3.26-1.99-2.45-3.49-5.29-4.38-8.32-.27-.93-1.42-1.36-2.38-1.17-.95,.19-1.74,.83-2.49,1.44-1.46,1.21-2.93,2.41-4.39,3.62-.69,.57-1.42,1.2-1.68,2.06-.38,1.28,.39,2.59,1.14,3.7m-51.87-15.42c.35,.28,.55,.73,.54,1.17,2.35,1.71,4.38,3.85,5.97,6.27,1.28,1.96,2.7,4.38,5.04,4.46,2.91,.1,4.52-3.48,7.23-4.54-1.55-2.76-4.33-4.66-7.3-5.77-2.97-1.11-6.14-1.5-9.28-1.89-.75-.09-1.59-.17-2.19,.29m42.34,8.95c-1.73-.68-3.46-1.33-5.21-1.96-1.45-.52-2.95-1.02-4.49-1.03-1.54,0-3.17,.58-4.05,1.85-1.54,2.24-.17,5.3,1.48,7.46,.63,.83,1.75,1.69,2.58,1.08,2.86-2.11,5.79-4.13,8.78-6.05,.3-.45,.6-.9,.9-1.35m-20.1,2.31c-2.46,2.22-5.22,4.11-8.17,5.6,.74,2.49,2.88,4.52,5.4,5.12,.67,.16,1.51,.17,1.91-.4,1.24-1.77,3.37-2.87,5.53-2.84-1.14-2.72-2.73-5.26-4.67-7.48m33.59-20.87c1.41,1.89,2.81,3.78,4.22,5.66,1.96-1.91,4-3.87,6.58-4.8-1.67-.36-2.65-2.04-3.62-3.45-.97-1.41-2.54-2.84-4.18-2.33-1.46,1.29-2.52,3.03-3,4.92m-19.85,29.84c.01,.5,.03,1,.04,1.5,3.72-.19,7.43-.37,11.15-.56,1.03-.05,2.25-.22,2.71-1.15-.98-2.14-2.35-4.11-4.03-5.77-3.29,1.99-6.58,3.99-9.87,5.98m-33.55-3.06c1.5,.29,3.13-.72,3.54-2.19,.54-1.92-.84-3.8-2.12-5.33-1.5-1.79-3.02-3.65-3.75-5.87-.7,2.38-1.04,4.86-1.03,7.33,.02,2.51,.9,5.58,3.36,6.05m44.49-13.55c.21,.71,.42,1.42,.63,2.13,2.85-2.23,5.71-4.46,8.56-6.69,1.39-1.08,.35-3.28-.74-4.65-.31-.39-.66-.8-1.14-.93-.97-.25-1.77,.74-2.28,1.61-1.68,2.84-3.35,5.69-5.03,8.53m-39.33,14.87c.52,1.42,2.01,2.42,3.52,2.38-.12-1.64-1.9-2.94-3.49-2.56m13.35-14.03c.8,.6,1.94,.7,2.83,.24-.21-.37-.42-.74-.63-1.12-.67,.22-1.35,.44-2.02,.66l-.18,.21Z"/>
    </g>
  </g>
  <g id="Layer_1-2" data-name="Layer 1">
    <g id="analytics-3" data-name="analytics">
      <path class="cls-1" d="M272.92,3.45c14.3,6.88,22.04,25.01,17.13,40.1-3.13,9.61-10.4,17.19-16.64,25.15-16.72,21.31-27.07,47.55-29.42,74.54-2.48,28.43-7.82,58.63-27.51,79.29-17.32,18.17-44.8,25.95-69.07,19.57-24.28-6.38-44.37-26.67-50.52-51.01-3.4,16.68-12.56,32.14-25.58,43.12-2.93,2.48-6.34,4.83-10.18,4.83-3.42,0-6.53-1.88-9.3-3.89-16.65-12.06-27.99-31.2-30.56-51.6-.56-4.46-.92-9.4-4.15-12.52-2.62-2.53-1.75-6.81-1.12-10.4,.63-3.59,.11-8.34-3.4-9.34-2.32-.66-3.08-3.51-3.46-5.89C6.21,126.63,3.27,107.89,.33,89.15c-.32-2.04-.63-4.19,.17-6.1,.59-1.42,1.72-2.52,2.83-3.58,15.42-14.79,31.21-29.21,47.34-43.22,1.9-1.65,4.52-3.39,6.73-2.19,1.59,.87,2.1,2.87,2.46,4.65,3.62,18.2,6.92,36.46,9.91,54.77,12.08-2.26,24.96,.03,35.52,6.31-2.42,3.75-4.83,7.5-7.25,11.25,5.74-2.49,11.48-4.98,17.22-7.47-7.03-2.78-13.85-6.53-18.94-12.13-5.09-5.59-8.27-13.25-7.24-20.74,.66-4.77,2.94-9.16,5.52-13.22,9.79-15.46,24.51-27.75,41.46-34.63,3.34-1.36,5.34-4.75,6.96-7.98,1.61-3.23,3.24-6.71,6.31-8.62,3.06-1.91,8.03-1.19,9.1,2.26,4.1,13.11,15.13,23.07,19.77,36,3.12,8.7,3.14,18.16,3.13,27.4,5.78-25.68,22.4-48.74,44.94-62.34,14.01-8.46,31.92-13.22,46.67-6.12M116.32,98.05c5.81,1.12,12.56,.8,16.63,5.1-14.36,3.72-28.08,9.89-40.4,18.17-4.04,2.72-8.28,6.16-7.47,11.78,.39,2.73,2.02,5.15,4.27,6.75,5.38,3.82,12.01,3.16,18.05,1.72,7.5-1.79,14.72-4.71,21.35-8.64,1.65-.98,3.35-2.04,5.27-2.13,1.91-.08,4.04,1.27,4.01,3.19-2.36,1.84-5.31,2.7-7.98,4.04-8.26,4.15-13.46,12.88-15.53,21.89s-1.41,18.39-.61,27.6c1.24,14.33,3.47,30.01,14.14,39.65,2.69,2.43,5.81,4.35,9.06,5.95,22.41,11.03,50.9,5.98,70.21-9.86,19.31-15.84,29.71-41.01,30.46-65.97,.2-6.54-.21-13.11,.39-19.62,.55-5.94,1.93-11.77,3.59-17.5,6.66-23,17.89-44.67,32.84-63.38,4.64-5.8,9.78-11.61,11.57-18.82,2.57-10.33-2.83-21.69-11.68-27.6-8.85-5.91-20.45-6.8-30.71-3.95-10.26,2.85-19.29,9.12-26.97,16.5-8.03,7.71-14.78,16.74-19.92,26.61-3.28,6.3-5.89,12.92-8.28,19.61-9.71,27.22-15.78,56.4-11.89,85.04,1.25,9.21,3.93,18.94,10.9,24.99,.2,.17,.13,.49-.13,.55l-5.5,1.2c-1.36-.27-2.29-1.5-3.04-2.66-9.47-14.69-10.85-33.21-9.3-50.62,1.54-17.41,5.71-34.56,6.27-52.03,.55-17.47-3.05-36.03-14.87-48.91-4.13-4.5-6.51-10.58-6.53-16.69-8.51,2.86-8.72,17-17.31,19.62-17.82,5.44-33.15,18.58-41.23,35.38-1.43,2.97-2.66,6.14-2.66,9.43,0,3.07,1.07,6.05,2.55,8.73,4.2,7.63,11.91,13.23,20.46,14.89M14.86,147.8c12.39,3.63,25.12,5.96,37.82,8.28,3.85,.7,8.73,.98,10.74-2.38,6.37-10.66,12.86-21.27,20.4-31.13,5.78-7.56,12.18-14.7,16.9-22.96-7.5-1.07-15.04-1.9-22.6-2.5-3.52-.28-7.18-.48-10.47,.82-2.4,.95-4.42,2.63-6.39,4.3-16.53,14.06-32.05,29.3-46.39,45.58m49.7,84.24c14.56-13.62,27.6-30.92,28.56-50.83,.05-1.09,.02-2.32-.77-3.08-.97-.95-2.55-.69-3.87-.39-19.84,4.51-40.52,5.32-60.66,2.4-2.56-.37-3.25,3.45-2.64,5.96,4.86,20.2,21.09,36.07,39.37,45.95M15.43,110.19c-1.04-2.23,.33-4.79,1.66-6.86,2.73-4.25,5.46-8.5,8.19-12.76,1.66-2.59,3.48-5.32,6.29-6.58,4.62-2.07,6.8-8.31,4.48-12.81-2.24-4.32,.91-9.38,3.91-13.21,.44-.56,.95-1.16,1.65-1.26,1.14-.15,1.94,1.07,2.44,2.11,.97,2.02,1.96,4.17,1.77,6.41-.19,2.24-2.03,4.5-4.26,4.28-1.26,4.33-1.82,8.86-1.65,13.37,5.31,4.66,8.52,11.63,8.6,18.69,.02,2.11,2.74,3.44,4.69,2.63,1.95-.81,2.98-3.06,3.02-5.17,.04-2.11-.72-4.15-1.43-6.14-2.76-7.75-4.95-15.7-6.53-23.77-.32-1.62-.54-3.52,.6-4.72,1.28-1.36,3.68-.94,5.01,.37,1.33,1.31,1.88,3.2,2.37,5,2.29,8.39,4.58,16.77,6.86,25.16,1.62,.04,1.9-2.3,1.6-3.89-3.12-16.59-6.23-33.18-9.35-49.78-15.85,13.17-31.7,26.35-47.55,39.52-1.09,.91-2.23,1.89-2.63,3.25-.3,1.02-.13,2.11,.04,3.15,3.05,18.67,6.09,37.34,9.14,56.01,3.59-4.15,6.93-8.52,9.99-13.07-.98,.33-1.95,.65-2.93,.98-2.48-2-3.48-5.35-3.64-8.53-.1-1.96,.13-4.09,1.43-5.56,1.3-1.48,3.95-1.84,5.14-.28,.58,.76,.7,1.77,.78,2.72,.28,3.38,.33,6.77,.16,10.16,1.95-1.03,3.97-2.12,5.27-3.9,1.3-1.78,1.63-4.48,.14-6.11-2.38-2.61-2.96-6.35-3.43-9.86-.34-2.52-.35-5.72,1.92-6.86,2.84-1.43,5.78,2,6.45,5.11,.67,3.11,.67,6.79,3.19,8.73,3.53-1.84,6.51-4.72,8.47-8.18-.8,1.5-3.11,1.48-4.42,.4-1.3-1.08-1.85-2.8-2.33-4.43-1.16-3.89-2.31-7.79-3.47-11.68-.41-1.37-.76-3.01,.15-4.1,.45-.54,1.14-.84,1.53-1.43,.39-.58,.12-1.65-.58-1.57-6.32,3.76-11.54,9.34-14.87,15.89-1.84,3.63-3.87,8.13-7.91,8.56m87.45,85.02c1.38,7.75,5.18,15.05,10.74,20.61-9.94-21.73-10.13-47.72-.5-69.59-2.76,.18-5.52,.36-8.28,.54-1.88,.12-3.41,1.73-4.03,3.51-.62,1.78-.53,3.72-.43,5.6,.53,9.96,1.06,19.92,1.59,29.88,.17,3.16,.34,6.33,.89,9.44m-13.89-27.24c.9,1.41,2.21,2.96,3.85,2.71,1.87-.28,2.57-2.58,2.81-4.46,.5-3.89,.8-7.81,.89-11.73,.04-1.68,.02-3.43-.71-4.94-.74-1.51-2.41-2.69-4.05-2.32-.64,.14-1.3,.79-1,1.36,.34,.63-.3,1.33-.87,1.77-2.39,1.84-4.78,3.67-7.18,5.51,1.71,4.21,3.8,8.27,6.24,12.1m-17.33,2.2c.6,.9,1.2,1.8,1.8,2.7,.31,.46,.63,.94,1.1,1.24,.83,.55,1.92,.43,2.91,.26,2.74-.45,5.46-1.06,8.13-1.83,.34-.1,.7-.21,.96-.45,.91-.84,.06-2.3-.72-3.26-1.99-2.45-3.49-5.29-4.38-8.32-.27-.93-1.42-1.36-2.38-1.17-.95,.19-1.74,.83-2.49,1.44-1.46,1.21-2.93,2.41-4.39,3.62-.69,.57-1.42,1.2-1.68,2.06-.38,1.28,.39,2.59,1.14,3.7m-51.87-15.42c.35,.28,.55,.73,.54,1.17,2.35,1.71,4.38,3.85,5.97,6.27,1.28,1.96,2.7,4.38,5.04,4.46,2.91,.1,4.52-3.48,7.23-4.54-1.55-2.76-4.33-4.66-7.3-5.77-2.97-1.11-6.14-1.5-9.28-1.89-.75-.09-1.59-.17-2.19,.29m42.34,8.95c-1.73-.68-3.46-1.33-5.21-1.96-1.45-.52-2.95-1.02-4.49-1.03-1.54,0-3.17,.58-4.05,1.85-1.54,2.24-.17,5.3,1.48,7.46,.63,.83,1.75,1.69,2.58,1.08,2.86-2.11,5.79-4.13,8.78-6.05,.3-.45,.6-.9,.9-1.35m-20.1,2.31c-2.46,2.22-5.22,4.11-8.17,5.6,.74,2.49,2.88,4.52,5.4,5.12,.67,.16,1.51,.17,1.91-.4,1.24-1.77,3.37-2.87,5.53-2.84-1.14-2.72-2.73-5.26-4.67-7.48m33.59-20.87c1.41,1.89,2.81,3.78,4.22,5.66,1.96-1.91,4-3.87,6.58-4.8-1.67-.36-2.65-2.04-3.62-3.45-.97-1.41-2.54-2.84-4.18-2.33-1.46,1.29-2.52,3.03-3,4.92m-19.85,29.84c.01,.5,.03,1,.04,1.5,3.72-.19,7.43-.37,11.15-.56,1.03-.05,2.25-.22,2.71-1.15-.98-2.14-2.35-4.11-4.03-5.77-3.29,1.99-6.58,3.99-9.87,5.98m-33.55-3.06c1.5,.29,3.13-.72,3.54-2.19,.54-1.92-.84-3.8-2.12-5.33-1.5-1.79-3.02-3.65-3.75-5.87-.7,2.38-1.04,4.86-1.03,7.33,.02,2.51,.9,5.58,3.36,6.05m44.49-13.55c.21,.71,.42,1.42,.63,2.13,2.85-2.23,5.71-4.46,8.56-6.69,1.39-1.08,.35-3.28-.74-4.65-.31-.39-.66-.8-1.14-.93-.97-.25-1.77,.74-2.28,1.61-1.68,2.84-3.35,5.69-5.03,8.53m-39.33,14.87c.52,1.42,2.01,2.42,3.52,2.38-.12-1.64-1.9-2.94-3.49-2.56m13.35-14.03c.8,.6,1.94,.7,2.83,.24-.21-.37-.42-.74-.63-1.12-.67,.22-1.35,.44-2.02,.66l-.18,.21Z"/>
    </g>
    <g id="analytics-4" data-name="analytics">
      <path class="cls-1" d="M272.92,3.45c14.3,6.88,22.04,25.01,17.13,40.1-3.13,9.61-10.4,17.19-16.64,25.15-16.72,21.31-27.07,47.55-29.42,74.54-2.48,28.43-7.82,58.63-27.51,79.29-17.32,18.17-44.8,25.95-69.07,19.57-24.28-6.38-44.37-26.67-50.52-51.01-3.4,16.68-12.56,32.14-25.58,43.12-2.93,2.48-6.34,4.83-10.18,4.83-3.42,0-6.53-1.88-9.3-3.89-16.65-12.06-27.99-31.2-30.56-51.6-.56-4.46-.92-9.4-4.15-12.52-2.62-2.53-1.75-6.81-1.12-10.4,.63-3.59,.11-8.34-3.4-9.34-2.32-.66-3.08-3.51-3.46-5.89C6.21,126.63,3.27,107.89,.33,89.15c-.32-2.04-.63-4.19,.17-6.1,.59-1.42,1.72-2.52,2.83-3.58,15.42-14.79,31.21-29.21,47.34-43.22,1.9-1.65,4.52-3.39,6.73-2.19,1.59,.87,2.1,2.87,2.46,4.65,3.62,18.2,6.92,36.46,9.91,54.77,12.08-2.26,24.96,.03,35.52,6.31-2.42,3.75-4.83,7.5-7.25,11.25,5.74-2.49,11.48-4.98,17.22-7.47-7.03-2.78-13.85-6.53-18.94-12.13-5.09-5.59-8.27-13.25-7.24-20.74,.66-4.77,2.94-9.16,5.52-13.22,9.79-15.46,24.51-27.75,41.46-34.63,3.34-1.36,5.34-4.75,6.96-7.98,1.61-3.23,3.24-6.71,6.31-8.62,3.06-1.91,8.03-1.19,9.1,2.26,4.1,13.11,15.13,23.07,19.77,36,3.12,8.7,3.14,18.16,3.13,27.4,5.78-25.68,22.4-48.74,44.94-62.34,14.01-8.46,31.92-13.22,46.67-6.12M116.32,98.05c5.81,1.12,12.56,.8,16.63,5.1-14.36,3.72-28.08,9.89-40.4,18.17-4.04,2.72-8.28,6.16-7.47,11.78,.39,2.73,2.02,5.15,4.27,6.75,5.38,3.82,12.01,3.16,18.05,1.72,7.5-1.79,14.72-4.71,21.35-8.64,1.65-.98,3.35-2.04,5.27-2.13,1.91-.08,4.04,1.27,4.01,3.19-2.36,1.84-5.31,2.7-7.98,4.04-8.26,4.15-13.46,12.88-15.53,21.89s-1.41,18.39-.61,27.6c1.24,14.33,3.47,30.01,14.14,39.65,2.69,2.43,5.81,4.35,9.06,5.95,22.41,11.03,50.9,5.98,70.21-9.86,19.31-15.84,29.71-41.01,30.46-65.97,.2-6.54-.21-13.11,.39-19.62,.55-5.94,1.93-11.77,3.59-17.5,6.66-23,17.89-44.67,32.84-63.38,4.64-5.8,9.78-11.61,11.57-18.82,3.71-14.91-3.97-22.45-11.68-27.6-8.85-5.91-20.45-6.8-30.71-3.95-10.26,2.85-19.29,9.12-26.97,16.5-8.03,7.71-14.78,16.74-19.92,26.61-3.28,6.3-5.89,12.92-8.28,19.61-9.71,27.22-15.78,56.4-11.89,85.04,1.25,9.21,3.93,18.94,10.9,24.99,.2,.17,.13,.49-.13,.55l-5.5,1.2c-1.36-.27-2.29-1.5-3.04-2.66-9.47-14.69-10.85-33.21-9.3-50.62,1.54-17.41,5.71-34.56,6.27-52.03,.55-17.47-3.05-36.03-14.87-48.91-4.13-4.5-6.51-10.58-6.53-16.69-8.51,2.86-8.72,17-17.31,19.62-17.82,5.44-33.15,18.58-41.23,35.38-1.43,2.97-2.66,6.14-2.66,9.43,0,3.07,1.07,6.05,2.55,8.73,4.2,7.63,11.91,13.23,20.46,14.89M14.86,147.8c12.39,3.63,25.12,5.96,37.82,8.28,3.85,.7,8.73,.98,10.74-2.38,6.37-10.66,12.86-21.27,20.4-31.13,5.78-7.56,12.18-14.7,16.9-22.96-7.5-1.07-15.04-1.9-22.6-2.5-3.52-.28-7.18-.48-10.47,.82-2.4,.95-4.42,2.63-6.39,4.3-16.53,14.06-32.05,29.3-46.39,45.58m49.7,84.24c14.56-13.62,27.6-30.92,28.56-50.83,.05-1.09,.02-2.32-.77-3.08-.97-.95-2.55-.69-3.87-.39-19.84,4.51-40.52,5.32-60.66,2.4-2.56-.37-3.25,3.45-2.64,5.96,4.86,20.2,21.09,36.07,39.37,45.95M15.43,110.19c-1.04-2.23,.33-4.79,1.66-6.86,2.73-4.25,5.46-8.5,8.19-12.76,1.66-2.59,3.48-5.32,6.29-6.58,4.62-2.07,6.8-8.31,4.48-12.81-2.24-4.32,.91-9.38,3.91-13.21,.44-.56,.95-1.16,1.65-1.26,1.14-.15,1.94,1.07,2.44,2.11,.97,2.02,1.96,4.17,1.77,6.41-.19,2.24-2.03,4.5-4.26,4.28-1.26,4.33-1.82,8.86-1.65,13.37,5.31,4.66,8.52,11.63,8.6,18.69,.02,2.11,2.74,3.44,4.69,2.63,1.95-.81,2.98-3.06,3.02-5.17,.04-2.11-.72-4.15-1.43-6.14-2.76-7.75-4.95-15.7-6.53-23.77-.32-1.62-.54-3.52,.6-4.72,1.28-1.36,3.68-.94,5.01,.37,1.33,1.31,1.88,3.2,2.37,5,2.29,8.39,4.58,16.77,6.86,25.16,1.62,.04,1.9-2.3,1.6-3.89-3.12-16.59-6.23-33.18-9.35-49.78-15.85,13.17-31.7,26.35-47.55,39.52-1.09,.91-2.23,1.89-2.63,3.25-.3,1.02-.13,2.11,.04,3.15,3.05,18.67,6.09,37.34,9.14,56.01,3.59-4.15,6.93-8.52,9.99-13.07-.98,.33-1.95,.65-2.93,.98-2.48-2-3.48-5.35-3.64-8.53-.1-1.96,.13-4.09,1.43-5.56,1.3-1.48,3.95-1.84,5.14-.28,.58,.76,.7,1.77,.78,2.72,.28,3.38,.33,6.77,.16,10.16,1.95-1.03,3.97-2.12,5.27-3.9,1.3-1.78,1.63-4.48,.14-6.11-2.38-2.61-2.96-6.35-3.43-9.86-.34-2.52-.35-5.72,1.92-6.86,2.84-1.43,5.78,2,6.45,5.11,.67,3.11,.67,6.79,3.19,8.73,3.53-1.84,6.51-4.72,8.47-8.18-.8,1.5-3.11,1.48-4.42,.4-1.3-1.08-1.85-2.8-2.33-4.43-1.16-3.89-2.31-7.79-3.47-11.68-.41-1.37-.76-3.01,.15-4.1,.45-.54,1.14-.84,1.53-1.43,.39-.58,.12-1.65-.58-1.57-6.32,3.76-11.54,9.34-14.87,15.89-1.84,3.63-3.87,8.13-7.91,8.56m87.45,85.02c1.38,7.75,5.18,15.05,10.74,20.61-9.94-21.73-10.13-47.72-.5-69.59-2.76,.18-5.52,.36-8.28,.54-1.88,.12-3.41,1.73-4.03,3.51-.62,1.78-.53,3.72-.43,5.6,.53,9.96,1.06,19.92,1.59,29.88,.17,3.16,.34,6.33,.89,9.44m-13.89-27.24c.9,1.41,2.21,2.96,3.85,2.71,1.87-.28,2.57-2.58,2.81-4.46,.5-3.89,.8-7.81,.89-11.73,.04-1.68,.02-3.43-.71-4.94-.74-1.51-2.41-2.69-4.05-2.32-.64,.14-1.3,.79-1,1.36,.34,.63-.3,1.33-.87,1.77-2.39,1.84-4.78,3.67-7.18,5.51,1.71,4.21,3.8,8.27,6.24,12.1m-17.33,2.2c.6,.9,1.2,1.8,1.8,2.7,.31,.46,.63,.94,1.1,1.24,.83,.55,1.92,.43,2.91,.26,2.74-.45,5.46-1.06,8.13-1.83,.34-.1,.7-.21,.96-.45,.91-.84,.06-2.3-.72-3.26-1.99-2.45-3.49-5.29-4.38-8.32-.27-.93-1.42-1.36-2.38-1.17-.95,.19-1.74,.83-2.49,1.44-1.46,1.21-2.93,2.41-4.39,3.62-.69,.57-1.42,1.2-1.68,2.06-.38,1.28,.39,2.59,1.14,3.7m-51.87-15.42c.35,.28,.55,.73,.54,1.17,2.35,1.71,4.38,3.85,5.97,6.27,1.28,1.96,2.7,4.38,5.04,4.46,2.91,.1,4.52-3.48,7.23-4.54-1.55-2.76-4.33-4.66-7.3-5.77-2.97-1.11-6.14-1.5-9.28-1.89-.75-.09-1.59-.17-2.19,.29m42.34,8.95c-1.73-.68-3.46-1.33-5.21-1.96-1.45-.52-2.95-1.02-4.49-1.03-1.54,0-3.17,.58-4.05,1.85-1.54,2.24-.17,5.3,1.48,7.46,.63,.83,1.75,1.69,2.58,1.08,2.86-2.11,5.79-4.13,8.78-6.05,.3-.45,.6-.9,.9-1.35m-20.1,2.31c-2.46,2.22-5.22,4.11-8.17,5.6,.74,2.49,2.88,4.52,5.4,5.12,.67,.16,1.51,.17,1.91-.4,1.24-1.77,3.37-2.87,5.53-2.84-1.14-2.72-2.73-5.26-4.67-7.48m33.59-20.87c1.41,1.89,2.81,3.78,4.22,5.66,1.96-1.91,4-3.87,6.58-4.8-1.67-.36-2.65-2.04-3.62-3.45-.97-1.41-2.54-2.84-4.18-2.33-1.46,1.29-2.52,3.03-3,4.92m-19.85,29.84c.01,.5,.03,1,.04,1.5,3.72-.19,7.43-.37,11.15-.56,1.03-.05,2.25-.22,2.71-1.15-.98-2.14-2.35-4.11-4.03-5.77-3.29,1.99-6.58,3.99-9.87,5.98m-33.55-3.06c1.5,.29,3.13-.72,3.54-2.19,.54-1.92-.84-3.8-2.12-5.33-1.5-1.79-3.02-3.65-3.75-5.87-.7,2.38-1.04,4.86-1.03,7.33,.02,2.51,.9,5.58,3.36,6.05m44.49-13.55c.21,.71,.42,1.42,.63,2.13,2.85-2.23,5.71-4.46,8.56-6.69,1.39-1.08,.35-3.28-.74-4.65-.31-.39-.66-.8-1.14-.93-.97-.25-1.77,.74-2.28,1.61-1.68,2.84-3.35,5.69-5.03,8.53m-39.33,14.87c.52,1.42,2.01,2.42,3.52,2.38-.12-1.64-1.9-2.94-3.49-2.56m13.35-14.03c.8,.6,1.94,.7,2.83,.24-.21-.37-.42-.74-.63-1.12-.67,.22-1.35,.44-2.02,.66l-.18,.21Z"/>
    </g>
  </g>
</svg>