<?xml version="1.0" encoding="UTF-8"?>
<svg id="Layer_2" data-name="Layer 2" xmlns="http://www.w3.org/2000/svg" viewBox="0 0 362.8 185.63">
  <defs>
    <style>
      .cls-1, .cls-2 {
        font-family: Heebo-Regular, Heebo;
        font-size: 31px;
      }

      .cls-1, .cls-3 {
        fill: #fee9d9;
      }

      .cls-2, .cls-4 {
        fill: #252933;
      }
    </style>
  </defs>
  <g id="illustrations">
    <g>
      <g>
        <g id="next_button_1" data-name="next button 1">
          <path class="cls-4" d="M.64,82.21c2.91-15.9,7.13-27.61,10.7-41.42,2.4-9.29,4.68-19.65,.06-28.06-2.07-3.75,2.05-8.38,6.3-8.85,4.26-.47,8.33,1.56,12.44,2.76,12.81,3.74,26.37-.55,39.54-2.75,13.16-2.2,28.82-1.31,36.85,9.35,34.27,45.41,84.78,78.3,140.18,91.28,31.79,7.45,65.93,8.33,96.45-3.28,2.71-1.03,5.77,1.34,6.5,4.15s-.22,5.76-1.31,8.45c-14.03,34.5-51.79,52.91-87.91,61.97-47.1,11.82-96.84,12.98-144.44,3.4-12.76-2.57-25.44-5.93-37.29-11.3-12.29-5.57-23.52-13.21-34.58-20.94C24.88,133.55,4.33,117.28,.83,94.09M113.89,36.67c-3.29-3.83-9.37,.02-12.73,3.8-22.95,25.74-45.89,51.49-68.84,77.23-1.76,1.98-3.52,5.12-1.61,6.96,24.74,23.71,56.4,40.1,90.04,46.63,12.04,2.33,24.28,3.43,36.52,4.2,32.77,2.05,66.1,1.7,97.85-6.67,31.75-8.37,62.04-25.38,81.63-51.74-5.4-.27-10.8,.51-16.17,1.1-76.59,8.49-156.51-23.02-206.69-81.51m-10.32-10.94c-2.69-8.47-12.01-13.34-20.88-13.82-8.87-.48-17.52,2.45-26.04,4.96-8.52,2.51-17.58,4.63-26.21,2.52-4.14-1.01-6.76,4.27-7.71,8.43-3.16,13.9-6.32,27.8-9.48,41.71-2.76,12.14-5.24,25.93,1.82,36.19,3.35,4.86,11.01,8.1,14.87,3.63,15.4-17.8,30.8-35.61,46.2-53.41,8.9-10.29,17.81-20.59,27.43-30.21"/>
        </g>
        <text class="cls-2" transform="translate(80.54 103.56)"><tspan x="0" y="0">next </tspan><tspan x="0" y="37.2" xml:space="preserve">   stage</tspan></text>
      </g>
      <g>
        <g id="next_button_1-2" data-name="next button 1">
          <path class="cls-3" d="M0,79.29c2.91-15.9,7.13-27.61,10.7-41.42,2.4-9.29,4.68-19.65,.06-28.06C8.69,6.06,12.8,1.43,17.06,.97c4.26-.47,8.33,1.56,12.44,2.76,12.81,3.74,26.37-.55,39.54-2.75,13.16-2.2,28.82-1.31,36.85,9.35,34.27,45.41,84.78,78.3,140.18,91.28,31.79,7.45,65.93,8.33,96.45-3.28,2.71-1.03,5.77,1.34,6.5,4.15s-.22,5.76-1.31,8.45c-14.03,34.5-51.79,52.91-87.91,61.97-47.1,11.82-96.84,12.98-144.44,3.4-12.76-2.57-25.44-5.93-37.29-11.3-12.29-5.57-23.52-13.21-34.58-20.94C24.24,130.62,3.7,114.36,.19,91.17M113.25,33.74c-3.29-3.83-9.37,.02-12.73,3.8-22.95,25.74-45.89,51.49-68.84,77.23-1.76,1.98-3.52,5.12-1.61,6.96,24.74,23.71,56.4,40.1,90.04,46.63,12.04,2.33,24.28,3.43,36.52,4.2,32.77,2.05,66.1,1.7,97.85-6.67,31.75-8.37,62.04-25.38,81.63-51.74-5.4-.27-10.8,.51-16.17,1.1-76.59,8.49-156.51-23.02-206.69-81.51m-10.32-10.94c-2.69-8.47-12.01-13.34-20.88-13.82-8.87-.48-17.52,2.45-26.04,4.96-8.52,2.51-17.58,4.63-26.21,2.52-4.14-1.01-6.76,4.27-7.71,8.43-3.16,13.9-6.32,27.8-9.48,41.71-2.76,12.14-5.24,25.93,1.82,36.19,3.35,4.86,11.01,8.1,14.87,3.63,15.4-17.8,30.8-35.61,46.2-53.41,8.9-10.29,17.81-20.59,27.43-30.21"/>
        </g>
        <text class="cls-1" transform="translate(79.91 100.63)"><tspan x="0" y="0">next </tspan><tspan x="0" y="37.2" xml:space="preserve">   stage</tspan></text>
      </g>
    </g>
  </g>
</svg>