<?xml version="1.0" encoding="UTF-8"?>
<svg id="Layer_2" data-name="Layer 2" xmlns="http://www.w3.org/2000/svg" viewBox="0 0 133.1 152.02">
  <defs>
    <style>
      .cls-1 {
        fill: #fbeadb;
      }

      .cls-2 {
        fill: none;
        stroke: #fbeadb;
        stroke-miterlimit: 10;
        stroke-width: .25px;
      }
    </style>
  </defs>
  <g id="Layer_1-2" data-name="Layer 1">
    <g id="brief_4" data-name="brief 4">
      <g>
        <path class="cls-1" d="M10.76,132.98C5.52,124.1,1.09,115.46,.28,104.97c-.44-5.77,.1-11.55,.89-17.26s1.42-11.42,3.3-16.83,5.21-9.46,8.89-13.76c.59-.69,.83-1.22,.05-2.01-2.34-2.35-3.97-5.25-4.97-8.32-1.24-3.82,.03-7.42,1.27-11.04,.67-1.96,1.42-3.9,2.36-5.75s2.17-3.42,3.49-5.05c2.56-3.16,5.51-5.95,8.74-8.38,2.88-2.17,5.83-4.42,9.1-5.85,2.15-.94,2.9-2.32,3.83-4.11,.87-1.66,3.53-5.54,5.35-2.66,.92,1.45,1.5,3.1,2.29,4.64,.27,.52,.62,1.12,1.11,1.38,2.78,1.51,5.63,2.91,8.42,4.4,.74,.4,1.34,1.06,2.08,1.46,.35,.19,1.1,.24,1.3,.01,1.76-1.9,3.99-2.97,6.36-3.84,.76-.28,1.99,.36,2.21,1.51,.69,3.53,2.33,6.95,1.46,10.7-.05,.22,.21,.52,.33,.78,.17-.12,.44-.19,.51-.35,1.43-3.22,3.62-5.87,6.13-8.29,3.13-3.03,6.24-6.11,10.16-8.14,2.79-1.45,5.6-2.88,8.48-4.12,2.66-1.15,5.38-2.27,8.18-2.98,2.42-.62,4.99-.78,7.5-.92,3.47-.19,6.96-.08,10.3,.97,2.74,.86,5.35,1.99,7.83,3.56,1.98,1.26,3.42,2.76,4.35,4.74,1.32,2.82,1.34,5.71,1.39,8.97,.02,1.78-.04,3.39-.72,5.43-.8,2.41-1.67,4.26-3.21,5.94-3.01,3.29-6.97,5.49-10.13,8.62-1.9,1.88-3.72,3.86-5.48,5.87-2.27,2.59-4.42,5.27-6.57,7.96-1.52,1.91-3.11,3.77-4.49,5.78-2.07,3.01-4.02,6.1-5.99,9.18-2.13,3.32-3.4,7-4.71,10.7-1.93,5.48-1.81,11.17-2.37,16.81-.34,3.36-.45,6.77-1.77,10.06-1,2.48-1.11,5.31-1.68,7.97-.93,4.33-2.75,8.35-4.29,12.47-1.56,4.18-4.32,7.53-7.11,10.84-5.24,6.23-12.5,10.58-20.13,13.24-7.08,2.47-15.75,3.91-23.41,.81-4.67-1.89-8.64-5.4-12.53-8.6-2.89-2.38-5.07-5.63-7.64-8.55M51.05,60.59c.11-.06,.23-.12,.34-.18,2.07-1.15,2.44-1.53,3.65,.4,2.23,3.53,4.36,7.12,6.48,10.72,.46,.78,.8,1.73-.33,2.29-3.36,1.66-6.75,3.28-10.13,4.9-3.05,1.46-5.82,3.22-6.97,6.65-1.21,3.59-.06,6.5,3.43,6.79,3.49,.28,7.07-.09,10.25-1.73,1.75-.9,3.85-1.54,4.78-3.63,.11-.25,.55-.36,.84-.53,.09,.43,.4,1.01,.23,1.26-1.3,1.96-1.61,4.26-1.78,6.43-.15,1.91-1.28,4.23,.93,5.88,.17,.13,.16,.52,.2,.79,.22,1.76,.46,3.52,.65,5.28,.33,2.98,.65,5.96,.92,8.94,.21,2.3,.18,4.64,.51,6.92,.5,3.45,2.37,6.33,4.27,9.15,.95,1.41,2.03,2.73,3.14,4.02,.37,.43,.86,.68,1.45-.03,2.52-3.08,4.83-6.3,6.4-9.97,1.31-3.07,2.49-6.21,3.58-9.37,.53-1.53,.91-3.1,1.18-4.7,.41-2.42,.84-4.87,.9-7.32,.05-2-.3-4.02-.46-6.03-.19-2.4-.13-4.85-.62-7.19-.64-3.07-1.69-6.06-2.6-9.07-1.08-3.55-2.14-7.11-3.32-10.63-.65-1.94-1.49-3.83-2.29-5.72-.63-1.47-1.37-2.89-1.99-4.37-.55-1.3-.99-2.64-1.49-3.95-1.15-2.98-2.32-5.96-3.48-8.95-.22-.57-.69-1.16-.64-1.71,.37-4.53,.7-9.05-.05-13.57-.17-1.05-.25-2.12-.5-3.15-.45-1.85-1.54-3.71-1.38-5.49,.28-3.22-1.18-5.97-1.65-8.96-.13-.84-.71-1.25-1.77-1.02-2.23,.49-3.98,1.71-5.46,3.33-.73,.8-1.39,.95-2.26,.38-.42-.28-.86-.54-1.29-.81-1.32-.82-2.6-1.71-3.97-2.46-1.71-.93-3.51-1.7-5.23-2.63-.55-.3-1.12-.79-1.39-1.34-.74-1.53-1.31-3.14-1.98-4.7-.52-1.23-1.61-1.48-2.38-.45-.93,1.24-1.6,2.67-2.52,3.92-.71,.97-1.47,2.23-2.48,2.61-4.02,1.51-7.35,4.07-10.59,6.7-1.64,1.33-3.12,2.84-4.57,4.36-1.3,1.37-2.73,2.57-3.95,4.03-3.68,4.39-5.82,9.93-6.17,15.64-.12,2-.41,3.77,.5,5.76,2.85,6.18,7.71,10.15,13.7,12.85,2.73,1.23,5.66,2.05,8.56,2.84,2.66,.73,5,.5,7.65,.09,1.9-.3,3.84-.44,5.69-.98s3.63-1.55,5.45-2.28m35.67,39.77c.19,.48,.37,.95,.56,1.43,.17-.44,.46-.87,.46-1.32,0-1.54-.07-3.08,.16-4.6,.67-4.46,.54-9.09,1.41-13.53,.95-4.85,2.56-9.54,4.96-13.89,1.83-3.31,3.71-6.63,5.88-9.72,2.17-3.1,4.68-5.97,7.11-8.88,3.06-3.66,5.99-7.46,9.34-10.84,1.95-1.97,4.22-3.57,6.21-5.47,1.88-1.79,4.13-3.16,5.86-5.15,1.92-2.2,2.79-4.58,3.05-7.44,.18-1.94,.58-3.75,.34-5.71-.86-6.89-6.46-10.62-12.65-12.63-2.8-.91-7.49-1.4-10.42-1.09-2.5,.26-4.99,.64-7.48,1-4.31,.63-8.09,2.77-11.97,4.51-4.17,1.87-7.98,4.38-11.36,7.55-3.6,3.38-6.82,7.03-9.31,11.3-.16,.28-.29,.68-.23,.98,.41,1.95,.8,3.91,1.34,5.82,.76,2.68,.67,5.43,.31,8.07-.47,3.48,.27,6.64,1.54,9.77,.76,1.89,1.61,3.75,2.42,5.63,.99,2.27,2.02,4.51,2.97,6.8,.96,2.3,1.88,4.62,2.73,6.97,.52,1.43,.85,2.94,1.32,4.39,1.2,3.67,2.47,7.33,3.66,11,1.57,4.85,1.49,9.91,1.79,15.08m-68.26,30.06c-.26-.7-.52-1.4-.79-2.1-.78-2-1.77-3.94-2.31-6-1.06-3.99-2.06-8.01-2.04-12.21,.01-2.47-.4-4.96-.27-7.42,.17-3.18,.69-6.34,1.06-9.51,.09-.77,.34-1.19,1.3-.89,.88,.28,1.84,.32,2.76,.44,2.19,.3,4.37,.69,6.57,.85,1.26,.09,2.54-.31,3.81-.32,2.56-.02,5.22-1.68,5.97-4.08,.72-2.28-.38-4.34-1.75-5.85-2.05-2.25-4.42-4.3-6.97-5.96-1.87-1.22-4.23-1.73-6.39-2.49-2.62-.91-3.56-1.34-3.01-3.15,.96-3.17,2.04-6.31,3.21-9.41,.63-1.67,.69-1.83-.9-2.85-.6-.39-1.12-.88-1.71-1.28-.86-.6-1.75-1.09-2.73-.17-.94,.88-2.03,1.64-2.79,2.66-1.63,2.18-3.24,4.41-4.58,6.78-2.01,3.55-2.47,7.66-3.34,11.57-1.17,5.25-1.74,10.58-2.21,15.91-.34,3.9-.95,7.83-.14,11.73,.73,3.53,1.37,7.1,2.49,10.51,2.92,8.91,9.07,17.19,15.68,23.69,1.1,1.08,2.45,1.93,3.73,2.82,1.79,1.24,3.62,2.44,5.45,3.62,.17,.11,.5-.03,.75-.06-.05-.15-.07-.34-.17-.46-1.7-2.07-3.39-4.17-5.14-6.2-2.55-2.96-3.88-6.57-5.58-10.17m34.58,17.92c.64-.2,1.34-.3,1.92-.6,5.69-2.98,10.99-6.64,16.39-10.12,.25-.16,.51-.34,.59-.63,.09-.34-.11-.68-.3-.97-2.08-3.11-4.16-6.22-6.25-9.33-.65,1.32-2.32,1.71-3.78,1.93-13.5,2.04-27.14,3.16-40.8,3.35,.08,0,1.73,4.46,1.94,4.9,.86,1.75,1.88,3.43,3.04,5,2.16,2.94,4.49,6.54,8.01,7.58,3.83,1.12,6.54,1.17,9.85,.67,1.42-.22,2.85-.25,4.27-.43,1.72-.22,3.45-.85,5.11-1.34m-8.61-66.12c2.19-3.42,6.01-4.47,9.31-6.23,2.09-1.11,4.26-2.06,6.4-3.06,.6-.28,.57-.5,.19-1.1-2.08-3.32-4.07-6.71-6.04-10.1-.46-.79-1.01-1.01-1.75-.59-3.13,1.76-6.4,3.02-9.96,3.71-4.1,.79-8.08,1.42-12.11-.34-2.69-1.17-5.51-2.05-8.26-3.08-.72-.27-1.25-.19-1.53,.61-1.01,2.85-2.05,5.68-3.02,8.54-.58,1.71-.33,1.86,1.32,2.45,2.58,.93,5.26,1.78,7.58,3.19,2.33,1.42,4.33,3.42,6.37,5.28,2.86,2.59,3.56,6.53,1.88,9.86-.09,.19-.11,.41-.17,.62,.21,0,.43,.02,.64,0,2.24-.23,4.47-.62,6.71-.62,1.05,0,.98-.32,.77-.95-.98-2.97-.02-5.55,1.66-8.18m-30.12,16.16c-.07,.5-.21,1.01-.21,1.51,0,2.03-.03,4.06,.08,6.08,.17,3.19,.33,6.38,.73,9.54,.28,2.18,.89,4.32,1.47,6.45,.28,1.04,.8,2.02,1.25,3.01,.08,.18,.33,.28,.51,.42,.09-.24,.26-.49,.24-.73-.13-1.49-.3-2.98-.45-4.47-.2-2.07-.51-4.14-.55-6.21-.05-2.48,.21-4.96,.21-7.45,0-2.71,.85-3.87,3.16-3.82,2.96,.06,5.88,.25,8.82-.58,2.25-.63,2.2-.42,2.54-2.87,.24-1.71-.37-3.72,1.35-5.07,.04-.03-.19-.56-.3-.56-.36,0-.81,.03-1.05,.24-2.16,1.94-4.97,1.32-7.36,1.43-2.88,.12-5.82-1.03-8.74-1.6-.37-.07-.88-.43-1,.4-.2,1.34-.5,2.67-.7,4.27m46.56-3.64c.42-1.55,.17-2.99,.28-4.6-3.21,1.94-6.85,3.16-10.58,3.56-.66,.07-1.47,.23-1.65,.88-.06,.23-.02,.47,.03,.71,.29,1.54,.58,3.09,.87,4.63,.03,.18,.07,.37,.2,.51,.18,.19,.47,.21,.73,.21,2.71,.03,5.64-.17,8.24-.97,2.02-.62,2.02-1.02,1.83-2.57l.04-2.35Zm-17.76,1.38c-1.27,.1-2.53,.25-3.8,.3-2.63,.1-2.63,.08-3.09,2.62-.43,2.4-.11,2.74,2.27,2.4,.21-.03,.43,.04,.64,.02,1.72-.16,3.44-.3,5.14-.54,.4-.06,.71-.44,.7-.83-.02-.97-.11-1.97-.39-2.89-.14-.46-.79-.76-1.47-1.07m-2.34,21.78c.97-.32,1.97-.57,2.91-.98,.66-.29,1.04-.8,.35-1.51-.53-.55-1.11-1.09-1.5-1.74-.49-.81-1.04-.67-1.51-.18-1.5,1.56-2.85,2.54-4.3,4.15-.13,.14-2.87,2.01-2.47,2.03,.6,.14,2.66-.61,2.88-.67,1.19-.29,2.36-.62,3.65-1.11m4.17-2.14c.06-.01,1.29-1.28,.62-2.35-.34-.63,.42-.94,.05-1.06-.68-.21-.49,.13-1.28,.3-.04,0-.44-.47-1.09-.54-.98,.1-.95,.4-.33,1.24,.7,.95,1.95,2.4,1.78,2.21l.25,.21Z"/>
        <path class="cls-2" d="M10.76,132.98C5.52,124.1,1.09,115.46,.28,104.97c-.44-5.77,.1-11.55,.89-17.26s1.42-11.42,3.3-16.83,5.21-9.46,8.89-13.76c.59-.69,.83-1.22,.05-2.01-2.34-2.35-3.97-5.25-4.97-8.32-1.24-3.82,.03-7.42,1.27-11.04,.67-1.96,1.42-3.9,2.36-5.75s2.17-3.42,3.49-5.05c2.56-3.16,5.51-5.95,8.74-8.38,2.88-2.17,5.83-4.42,9.1-5.85,2.15-.94,2.9-2.32,3.83-4.11,.87-1.66,3.53-5.54,5.35-2.66,.92,1.45,1.5,3.1,2.29,4.64,.27,.52,.62,1.12,1.11,1.38,2.78,1.51,5.63,2.91,8.42,4.4,.74,.4,1.34,1.06,2.08,1.46,.35,.19,1.1,.24,1.3,.01,1.76-1.9,3.99-2.97,6.36-3.84,.76-.28,1.99,.36,2.21,1.51,.69,3.53,2.33,6.95,1.46,10.7-.05,.22,.21,.52,.33,.78,.17-.12,.44-.19,.51-.35,1.43-3.22,3.62-5.87,6.13-8.29,3.13-3.03,6.24-6.11,10.16-8.14,2.79-1.45,5.6-2.88,8.48-4.12,2.66-1.15,5.38-2.27,8.18-2.98,2.42-.62,4.99-.78,7.5-.92,3.47-.19,6.96-.08,10.3,.97,2.74,.86,5.35,1.99,7.83,3.56,1.98,1.26,3.42,2.76,4.35,4.74,1.32,2.82,1.34,5.71,1.39,8.97,.02,1.78-.04,3.39-.72,5.43-.8,2.41-1.67,4.26-3.21,5.94-3.01,3.29-6.97,5.49-10.13,8.62-1.9,1.88-3.72,3.86-5.48,5.87-2.27,2.59-4.42,5.27-6.57,7.96-1.52,1.91-3.11,3.77-4.49,5.78-2.07,3.01-4.02,6.1-5.99,9.18-2.13,3.32-3.4,7-4.71,10.7-1.93,5.48-1.81,11.17-2.37,16.81-.34,3.36-.45,6.77-1.77,10.06-1,2.48-1.11,5.31-1.68,7.97-.93,4.33-2.75,8.35-4.29,12.47-1.56,4.18-4.32,7.53-7.11,10.84-5.24,6.23-12.5,10.58-20.13,13.24-7.08,2.47-15.75,3.91-23.41,.81-4.67-1.89-8.64-5.4-12.53-8.6-2.89-2.38-5.07-5.63-7.64-8.55M51.05,60.59c.11-.06,.23-.12,.34-.18,2.07-1.15,2.44-1.53,3.65,.4,2.23,3.53,4.36,7.12,6.48,10.72,.46,.78,.8,1.73-.33,2.29-3.36,1.66-6.75,3.28-10.13,4.9-3.05,1.46-5.82,3.22-6.97,6.65-1.21,3.59-.06,6.5,3.43,6.79,3.49,.28,7.07-.09,10.25-1.73,1.75-.9,3.85-1.54,4.78-3.63,.11-.25,.55-.36,.84-.53,.09,.43,.4,1.01,.23,1.26-1.3,1.96-1.61,4.26-1.78,6.43-.15,1.91-1.28,4.23,.93,5.88,.17,.13,.16,.52,.2,.79,.22,1.76,.46,3.52,.65,5.28,.33,2.98,.65,5.96,.92,8.94,.21,2.3,.18,4.64,.51,6.92,.5,3.45,2.37,6.33,4.27,9.15,.95,1.41,2.03,2.73,3.14,4.02,.37,.43,.86,.68,1.45-.03,2.52-3.08,4.83-6.3,6.4-9.97,1.31-3.07,2.49-6.21,3.58-9.37,.53-1.53,.91-3.1,1.18-4.7,.41-2.42,.84-4.87,.9-7.32,.05-2-.3-4.02-.46-6.03-.19-2.4-.13-4.85-.62-7.19-.64-3.07-1.69-6.06-2.6-9.07-1.08-3.55-2.14-7.11-3.32-10.63-.65-1.94-1.49-3.83-2.29-5.72-.63-1.47-1.37-2.89-1.99-4.37-.55-1.3-.99-2.64-1.49-3.95-1.15-2.98-2.32-5.96-3.48-8.95-.22-.57-.69-1.16-.64-1.71,.37-4.53,.7-9.05-.05-13.57-.17-1.05-.25-2.12-.5-3.15-.45-1.85-1.54-3.71-1.38-5.49,.28-3.22-1.18-5.97-1.65-8.96-.13-.84-.71-1.25-1.77-1.02-2.23,.49-3.98,1.71-5.46,3.33-.73,.8-1.39,.95-2.26,.38-.42-.28-.86-.54-1.29-.81-1.32-.82-2.6-1.71-3.97-2.46-1.71-.93-3.51-1.7-5.23-2.63-.55-.3-1.12-.79-1.39-1.34-.74-1.53-1.31-3.14-1.98-4.7-.52-1.23-1.61-1.48-2.38-.45-.93,1.24-1.6,2.67-2.52,3.92-.71,.97-1.47,2.23-2.48,2.61-4.02,1.51-7.35,4.07-10.59,6.7-1.64,1.33-3.12,2.84-4.57,4.36-1.3,1.37-2.73,2.57-3.95,4.03-3.68,4.39-5.82,9.93-6.17,15.64-.12,2-.41,3.77,.5,5.76,2.85,6.18,7.71,10.15,13.7,12.85,2.73,1.23,5.66,2.05,8.56,2.84,2.66,.73,5,.5,7.65,.09,1.9-.3,3.84-.44,5.69-.98s3.63-1.55,5.45-2.28m35.67,39.77c.19,.48,.37,.95,.56,1.43,.17-.44,.46-.87,.46-1.32,0-1.54-.07-3.08,.16-4.6,.67-4.46,.54-9.09,1.41-13.53,.95-4.85,2.56-9.54,4.96-13.89,1.83-3.31,3.71-6.63,5.88-9.72,2.17-3.1,4.68-5.97,7.11-8.88,3.06-3.66,5.99-7.46,9.34-10.84,1.95-1.97,4.22-3.57,6.21-5.47,1.88-1.79,4.13-3.16,5.86-5.15,1.92-2.2,2.79-4.58,3.05-7.44,.18-1.94,.58-3.75,.34-5.71-.86-6.89-6.46-10.62-12.65-12.63-2.8-.91-7.49-1.4-10.42-1.09-2.5,.26-4.99,.64-7.48,1-4.31,.63-8.09,2.77-11.97,4.51-4.17,1.87-7.98,4.38-11.36,7.55-3.6,3.38-6.82,7.03-9.31,11.3-.16,.28-.29,.68-.23,.98,.41,1.95,.8,3.91,1.34,5.82,.76,2.68,.67,5.43,.31,8.07-.47,3.48,.27,6.64,1.54,9.77,.76,1.89,1.61,3.75,2.42,5.63,.99,2.27,2.02,4.51,2.97,6.8,.96,2.3,1.88,4.62,2.73,6.97,.52,1.43,.85,2.94,1.32,4.39,1.2,3.67,2.47,7.33,3.66,11,1.57,4.85,1.49,9.91,1.79,15.08m-68.26,30.06c-.26-.7-.52-1.4-.79-2.1-.78-2-1.77-3.94-2.31-6-1.06-3.99-2.06-8.01-2.04-12.21,.01-2.47-.4-4.96-.27-7.42,.17-3.18,.69-6.34,1.06-9.51,.09-.77,.34-1.19,1.3-.89,.88,.28,1.84,.32,2.76,.44,2.19,.3,4.37,.69,6.57,.85,1.26,.09,2.54-.31,3.81-.32,2.56-.02,5.22-1.68,5.97-4.08,.72-2.28-.38-4.34-1.75-5.85-2.05-2.25-4.42-4.3-6.97-5.96-1.87-1.22-4.23-1.73-6.39-2.49-2.62-.91-3.56-1.34-3.01-3.15,.96-3.17,2.04-6.31,3.21-9.41,.63-1.67,.69-1.83-.9-2.85-.6-.39-1.12-.88-1.71-1.28-.86-.6-1.75-1.09-2.73-.17-.94,.88-2.03,1.64-2.79,2.66-1.63,2.18-3.24,4.41-4.58,6.78-2.01,3.55-2.47,7.66-3.34,11.57-1.17,5.25-1.74,10.58-2.21,15.91-.34,3.9-.95,7.83-.14,11.73,.73,3.53,1.37,7.1,2.49,10.51,2.92,8.91,9.07,17.19,15.68,23.69,1.1,1.08,2.45,1.93,3.73,2.82,1.79,1.24,3.62,2.44,5.45,3.62,.17,.11,.5-.03,.75-.06-.05-.15-.07-.34-.17-.46-1.7-2.07-3.39-4.17-5.14-6.2-2.55-2.96-3.88-6.57-5.58-10.17m34.58,17.92c.64-.2,1.34-.3,1.92-.6,5.69-2.98,10.99-6.64,16.39-10.12,.25-.16,.51-.34,.59-.63,.09-.34-.11-.68-.3-.97-2.08-3.11-4.16-6.22-6.25-9.33-.65,1.32-2.32,1.71-3.78,1.93-13.5,2.04-27.14,3.16-40.8,3.35,.08,0,1.73,4.46,1.94,4.9,.86,1.75,1.88,3.43,3.04,5,2.16,2.94,4.49,6.54,8.01,7.58,3.83,1.12,6.54,1.17,9.85,.67,1.42-.22,2.85-.25,4.27-.43,1.72-.22,3.45-.85,5.11-1.34m-8.61-66.12c2.19-3.42,6.01-4.47,9.31-6.23,2.09-1.11,4.26-2.06,6.4-3.06,.6-.28,.57-.5,.19-1.1-2.08-3.32-4.07-6.71-6.04-10.1-.46-.79-1.01-1.01-1.75-.59-3.13,1.76-6.4,3.02-9.96,3.71-4.1,.79-8.08,1.42-12.11-.34-2.69-1.17-5.51-2.05-8.26-3.08-.72-.27-1.25-.19-1.53,.61-1.01,2.85-2.05,5.68-3.02,8.54-.58,1.71-.33,1.86,1.32,2.45,2.58,.93,5.26,1.78,7.58,3.19,2.33,1.42,4.33,3.42,6.37,5.28,2.86,2.59,3.56,6.53,1.88,9.86-.09,.19-.11,.41-.17,.62,.21,0,.43,.02,.64,0,2.24-.23,4.47-.62,6.71-.62,1.05,0,.98-.32,.77-.95-.98-2.97-.02-5.55,1.66-8.18m-30.12,16.16c-.07,.5-.21,1.01-.21,1.51,0,2.03-.03,4.06,.08,6.08,.17,3.19,.33,6.38,.73,9.54,.28,2.18,.89,4.32,1.47,6.45,.28,1.04,.8,2.02,1.25,3.01,.08,.18,.33,.28,.51,.42,.09-.24,.26-.49,.24-.73-.13-1.49-.3-2.98-.45-4.47-.2-2.07-.51-4.14-.55-6.21-.05-2.48,.21-4.96,.21-7.45,0-2.71,.85-3.87,3.16-3.82,2.96,.06,5.88,.25,8.82-.58,2.25-.63,2.2-.42,2.54-2.87,.24-1.71-.37-3.72,1.35-5.07,.04-.03-.19-.56-.3-.56-.36,0-.81,.03-1.05,.24-2.16,1.94-4.97,1.32-7.36,1.43-2.88,.12-5.82-1.03-8.74-1.6-.37-.07-.88-.43-1,.4-.2,1.34-.5,2.67-.7,4.27m46.56-3.64c.42-1.55,.17-2.99,.28-4.6-3.21,1.94-6.85,3.16-10.58,3.56-.66,.07-1.47,.23-1.65,.88-.06,.23-.02,.47,.03,.71,.29,1.54,.58,3.09,.87,4.63,.03,.18,.07,.37,.2,.51,.18,.19,.47,.21,.73,.21,2.71,.03,5.64-.17,8.24-.97,2.02-.62,2.02-1.02,1.83-2.57l.04-2.35Zm-17.76,1.38c-1.27,.1-2.53,.25-3.8,.3-2.63,.1-2.63,.08-3.09,2.62-.43,2.4-.11,2.74,2.27,2.4,.21-.03,.43,.04,.64,.02,1.72-.16,3.44-.3,5.14-.54,.4-.06,.71-.44,.7-.83-.02-.97-.11-1.97-.39-2.89-.14-.46-.79-.76-1.47-1.07m-2.34,21.78c.97-.32,1.97-.57,2.91-.98,.66-.29,1.04-.8,.35-1.51-.53-.55-1.11-1.09-1.5-1.74-.49-.81-1.04-.67-1.51-.18-1.5,1.56-2.85,2.54-4.3,4.15-.13,.14-2.87,2.01-2.47,2.03,.6,.14,2.66-.61,2.88-.67,1.19-.29,2.36-.62,3.65-1.11m4.17-2.14c.06-.01,1.29-1.28,.62-2.35-.34-.63,.42-.94,.05-1.06-.68-.21-.49,.13-1.28,.3-.04,0-.44-.47-1.09-.54-.98,.1-.95,.4-.33,1.24,.7,.95,1.95,2.4,1.78,2.21l.25,.21Z"/>
      </g>
    </g>
  </g>
</svg>