<?xml version="1.0" encoding="UTF-8"?>
<svg id="Layer_2" data-name="Layer 2" xmlns="http://www.w3.org/2000/svg" viewBox="0 0 519.92 378">
  <g id="illustrations">
    <g id="headphones">
      <path d="M515.48,61.93c8.95-12.19.85-26.3-10.58-33.64-4.79-3.25-10.15-5.78-15.58-7.21-58.8-11.77-118.45,30.72-145.67,81.71-3.36,6.04-4.91,2.5-6.19-2.12-4.73-16.28-24.04-92-36.88-95.93-3.36-.73-6.81,1.81-9.39,4.19-3.09,2.76-5.91,6.12-9.49,8.24-4.44,2.84-10.28,1.58-14.52,4.62-2.41,1.82-3.84,4.64-6.05,6.68-2.43,2.37-5.53,3.4-8.99,4.33-75.64,19.05-114.74,85.15-35.13,117.85,1.73.78,3.27,1.44,4.33,1.98,1.23.62,1.82,1.07,1.72,1.44-.7,1.07-3.82,1.25-5.51,1.7-24.51,5.07-71.11,27.77-57.56,52.04,3.11,5.47,10.44,8.7,13.02,14.01,2.1,4.69.57,9.52-.29,14.58-27.9,140.31,141.64,192.05,218.77,80.21,24.04-35.52,35.44-77.07,48.07-117.49,14.8-47.86,30.75-94.54,68.85-129.63,2.46-2.29,4.97-4.68,6.93-7.39l.12-.17ZM218.66,354.51c-1.64.73-4.17-1.29-5.65-2.61-27.23-24.4-44.81-75.95-35.89-111.88.55-1.69,1.29-2.84,2.27-3.16,1.73-.64,4.16,1.73,5.52,3.24,24.69,27.41,40.66,73.51,35.78,110.75-.37,1.86-.99,3.17-1.94,3.62l-.09.04ZM246.79,163.56c10.87,3.94,10.9,1.04,3.42-4.95-7.68-6.02-17.6-9.42-27.51-12.95-13.11-4.65-25.7-9.43-34.14-20.85-33.82-42.12,28.95-78.87,69.4-87.43,3.81-.49,6.83.93,8.16,4.55,1.89,5.91,1.11,13.37-1.76,18.63-3.12,5.4-8.67,9.25-11.35,14.93-7.51,15.42,7.96,35.14,24.76,31.22,6.69-1.56,13.08-6.96,15.81-13.36,5.41-12.86-7.53-24.4-11.68-37.41-4.04-13.61-.72-30.57,9.75-40.42,7.17-6.44,12.94-4.62,14.53,4.6,1.65,7.12,3.93,14.11,6.52,21.01,2.49,6.65,5.23,13.24,7.87,19.85,32.25,62.9-23.1,125.76-10.87,192.07.58,2.49,1.78,8.72,4.34,6.99,2.1-2.27,1.83-9.91,1.52-13.79C296.16,17.65,550.8-18.07,505.88,65.28c-2.4,4.21-5.48,7.82-9.74,11.85-45.46,39.46-63.37,100.37-72.07,158.3-14.78,65.59-70.52,129.6-140.15,137.14-10.67,1.63-56.18-.81-57.49-15.72,1.27-25.76-1.5-51.96-11.87-75.87-6.89-16.73-16.79-32.08-28.88-45.46-2.29-2.83-5.48-6.47-3.76-10,3.81-10.99,62.75-2.62,66.44-16.42-1.08-.79-4.98.18-6.87.62-6.62,1.65-12.78,2.96-18.55,3.95-98.2,15.45-64.86-53.31,20.21-52.45" style="fill: #565e73; stroke: #565e73; stroke-miterlimit: 10; stroke-width: 1.25px;"/>
    </g>
    <g id="mic">
      <path d="M39.27,189.84c1.5,1.83,3.9,2.93,6.27,3.57,16.8,4.49,36.93-3.69,47.6-18.07,4.66-6.46,9.53-16.62,6.24-24.18-1.62-3.27-5.16-4.71-8.35-6.09-3.59-1.5-6.87-3.63-8.94-6.96-9.07-15.49-6.08-38.83,5.91-52.25,5.2-5.57,13.59-9.29,20.66-6.94,17.06,6.25,21.87,39.32,13.59,55.25-3.44,6.52-9.83,11.1-12.99,17.75-1.16,2.44-1.82,5.21-2.26,8.19-.84,32.25-29.67,39.9-59.13,39.76-4.28-.01-8.56,1.26-9.69,5.79-1.26,5.27-1.6,12.34-1.41,18.1-.4,22.36,23.15,20.07,37.16,37.76,11.17,13.94-51.48,6.34-61.66,7.65-11.63.61-16.36-7.84-5.63-15.84,6.47-5.42,17.43-10.26,23.35-15.8,9.68-9.55-4.69-73.57.63-94.49,2.24-14.93,10.79-6.36,8.96-18.54-3.13-16.3-12.21-35.94,8.52-34.63,18.45.99,9.36,28.28,17.38,37.37,7.72,7.66,3.16,6.16,1.61,14.67-.41,3.62-.02,7.66-3.21,9.94-4.47,2.97-11.6,4.25-16.15,1.28-3.58-2.69-4.2-8.08-6.11-11.76-6.94-14.85-6.37,22.65-4.85,41.01.25,2.62.84,5.4,2.42,7.33l.1.12Z" style="fill: #565e73; stroke: #565e73; stroke-miterlimit: 10; stroke-width: 1.25px;"/>
    </g>
    <g id="headphones-2" data-name="headphones">
      <path d="M515.48,57.93c8.95-12.19.85-26.3-10.58-33.64-4.79-3.25-10.15-5.78-15.58-7.21-58.8-11.77-118.45,30.72-145.67,81.71-3.36,6.04-4.91,2.5-6.19-2.12-4.73-16.28-24.04-92-36.88-95.93-3.36-.73-6.81,1.81-9.39,4.19-3.09,2.76-5.91,6.12-9.49,8.24-4.44,2.84-10.28,1.58-14.52,4.62-2.41,1.82-3.84,4.64-6.05,6.68-2.43,2.37-5.53,3.4-8.99,4.33-75.64,19.05-114.74,85.15-35.13,117.85,1.73.78,3.27,1.44,4.33,1.98,1.23.62,1.82,1.07,1.72,1.44-.7,1.07-3.82,1.25-5.51,1.7-24.51,5.07-71.11,27.77-57.56,52.04,3.11,5.47,10.44,8.7,13.02,14.01,2.1,4.69.57,9.52-.29,14.58-27.9,140.31,141.64,192.05,218.77,80.21,24.04-35.52,35.44-77.07,48.07-117.49,14.8-47.86,30.75-94.54,68.85-129.63,2.46-2.29,4.97-4.68,6.93-7.39l.12-.17ZM218.66,350.51c-1.64.73-4.17-1.29-5.65-2.61-27.23-24.4-44.81-75.95-35.89-111.88.55-1.69,1.29-2.84,2.27-3.16,1.73-.64,4.16,1.73,5.52,3.24,24.69,27.41,40.66,73.51,35.78,110.75-.37,1.86-.99,3.17-1.94,3.62l-.09.04ZM246.79,159.56c10.87,3.94,10.9,1.04,3.42-4.95-7.68-6.02-17.6-9.42-27.51-12.95-13.11-4.65-25.7-9.43-34.14-20.85-33.82-42.12,28.95-78.87,69.4-87.43,3.81-.49,6.83.93,8.16,4.55,1.89,5.91,1.11,13.37-1.76,18.63-3.12,5.4-8.67,9.25-11.35,14.93-7.51,15.42,7.96,35.14,24.76,31.22,6.69-1.56,13.08-6.96,15.81-13.36,5.41-12.86-7.53-24.4-11.68-37.41-4.04-13.61-.72-30.57,9.75-40.42,7.17-6.44,12.94-4.62,14.53,4.6,1.65,7.12,3.93,14.11,6.52,21.01,2.49,6.65,5.23,13.24,7.87,19.85,32.25,62.9-23.1,125.76-10.87,192.07.58,2.49,1.78,8.72,4.34,6.99,2.1-2.27,1.83-9.91,1.52-13.79C296.16,13.65,550.8-22.07,505.88,61.28c-2.4,4.21-5.48,7.82-9.74,11.85-45.46,39.46-63.37,100.37-72.07,158.3-14.78,65.59-70.52,129.6-140.15,137.14-10.67,1.63-56.18-.81-57.49-15.72,1.27-25.76-1.5-51.96-11.87-75.87-6.89-16.73-16.79-32.08-28.88-45.46-2.29-2.83-5.48-6.47-3.76-10,3.81-10.99,62.75-2.62,66.44-16.42-1.08-.79-4.98.18-6.87.62-6.62,1.65-12.78,2.96-18.55,3.95-98.2,15.45-64.86-53.31,20.21-52.45" style="fill: #cc7d3c; stroke: #cc7d3c; stroke-miterlimit: 10; stroke-width: 1.25px;"/>
    </g>
    <g id="mic-2" data-name="mic">
      <path d="M39.27,185.84c1.5,1.83,3.9,2.93,6.27,3.57,16.8,4.49,36.93-3.69,47.6-18.07,4.66-6.46,9.53-16.62,6.24-24.18-1.62-3.27-5.16-4.71-8.35-6.09-3.59-1.5-6.87-3.63-8.94-6.96-9.07-15.49-6.08-38.83,5.91-52.25,5.2-5.57,13.59-9.29,20.66-6.94,17.06,6.25,21.87,39.32,13.59,55.25-3.44,6.52-9.83,11.1-12.99,17.75-1.16,2.44-1.82,5.21-2.26,8.19-.84,32.25-29.67,39.9-59.13,39.76-4.28-.01-8.56,1.26-9.69,5.79-1.26,5.27-1.6,12.34-1.41,18.1-.4,22.36,23.15,20.07,37.16,37.76,11.17,13.94-51.48,6.34-61.66,7.65-11.63.61-16.36-7.84-5.63-15.84,6.47-5.42,17.43-10.26,23.35-15.8,9.68-9.55-4.69-73.57.63-94.49,2.24-14.93,10.79-6.36,8.96-18.54-3.13-16.3-12.21-35.94,8.52-34.63,18.45.99,9.36,28.28,17.38,37.37,7.72,7.66,3.16,6.16,1.61,14.67-.41,3.62-.02,7.66-3.21,9.94-4.47,2.97-11.6,4.25-16.15,1.28-3.58-2.69-4.2-8.08-6.11-11.76-6.94-14.85-6.37,22.65-4.85,41.01.25,2.62.84,5.4,2.42,7.33l.1.12Z" style="fill: #cc7d3c; stroke: #cc7d3c; stroke-miterlimit: 10; stroke-width: 1.25px;"/>
    </g>
  </g>
</svg>