<?xml version="1.0" encoding="UTF-8"?>
<svg id="Layer_2" data-name="Layer 2" xmlns="http://www.w3.org/2000/svg" version="1.1" viewBox="0 0 373.2 431.8">
  <defs>
    <style>
      .cls-1 {
        fill: #555e73;
      }

      .cls-1, .cls-2 {
        stroke-width: 0px;
      }

      .cls-2 {
        fill: #cc7d3d;
      }
    </style>
  </defs>
  <g id="illustrations">
    <g id="Squirrel_cam" data-name="Squirrel cam">
      <g>
        <path class="cls-1" d="M65.9,191.7c.4.3.7.9,0,.6-.2-.2,0-.5,0-.6Z"/>
        <path class="cls-1" d="M249.2,348.1c-.3.5-.3-.4,0,0h0Z"/>
        <path class="cls-1" d="M373.1,177.4c.3-.4-.1-1.7-.5-2.3-8.7-13-28.6-10.7-24.2-31,.9-12.1,1.4-24.5.7-36.6-.9-19-6-36.8-16.3-52.5-8.6-15.1-14.3-31.8-16.9-49-.6-8.9-9.2-4.8-12.8-.2-3.7,4.3-16.4,19-19.8,23-1.3,1.7-4.3,0-6.4-.7-36.5-12.7-76.7,20.8-89.9-2-1.8-2.6-4.4-5.8-6.7-7.6-2.7-2.2-5.7-2.9-7.8-1.3-9.7,10-9.7,33.5-14.9,47.4-16.5,31.8-23.1,68.5-16.6,104,.3,1.7.5,4-.7,5.1-13.9,8.8-35.4-8.3-55.1,3.2-1.8,1.1-3.4,1.5-2.6-1.1,3.4-13.6-5.5-17.9-16.7-13.3-18.2,5.3-40.1,4.7-55.6,15.3-2,1.9-2.2,4.9-2.1,7.6.9,24.5,34.9,4.2,52.2-.2,2.8-1.1,3.9,1.3,4.2,3.8,3.1,17.2,29.2,7,43.6,3.3.9-.2,3.1-.8,3,.4-5.1,13.6-43.8,28.7-59.2,29.9-3.6,0-5.5-1.6-9.3-3-3.8-1.5-8.6-3.1-12.8-3.8-32.6-7.1-32.6,35-21.3,65.1,1.4,1.6,3.5,2.5,5.6,3.2,14.9,5.2,26.5,9.3,35.5,12.6,50.3,17.9,20.7,9.3,65.4-19.7,1.6-.6,5.4-4.3,5.8-1.5-5.5,39.6,40.4,71,77.1,73.4,2.3.1,3.9,1.2,4.8,3.4,10.2,28.3,25.4,54.9,44.9,77.8.6.8,1.2,1.3,1.4,1.5.3.2,0-.3-.6-1.2-.2-.4-.5-.8-.8-1.2-15.6-24-31-48.3-41.5-74.9-.5-1.3-1-3.1,0-4,51.8-12.5,73.5,25.2,83.3,72.6.8,3,2,6.9,4.9,7.2,3.9-1.2-11.5-39.8-17.5-51.7-6.5-13.7-13.5-25.7-18.3-29.5-5.5-3.1,17.1-12,19.4-14.5,6.9-4.9-1-5.7-4.4-2.8-47,28.9-130.1,16.8-150.2-40.2-7.1-26.2,17.5-24,35.4-21,10.8,1.7,21.4,4.7,32.1,5.4,33.9-2.6,93.4-6.4,98.4-49.6,4.4-38.7-22.9-25.9-61.9-13.5-11.5,3.4-23.6,6-35,5.7-14.4-.3-28-5.2-38.4-19.1-1.9-2.3-2.8-5.3,0-7.1,9.3-7.6,24.9-23.8,30.4-13.7,1.2,1.2,3.1.7,4.5-.3,11.9-8,7.8-17.7-.3-29.8-2.8-4.8-8.6-9.8-13.9-8.9-5.2.6-9.2,5.3-8.2,12.2.2,1.7.6,3.7-.3,5.3-4.6,4.6-11.5,6.8-17,10.4-2.2,1.4-4,1.2-3.9-1.9-.5-41.9.6-72.4,20.4-108.2,2.4-4.8,8-36.5,16.5-29.8,8.1,9.6,4,18.8,22.1,13.4,16.6-5,42.6-19.6,70.5-7.4,3,1.3,6.1,2.9,8.5,4.5,2.3,2,4.1.8,5-1.8,3.8-8,14.5-40.2,22.7-20.6,3.4,7.8,6.4,21.7,11.2,33.8,1.6,4,3.3,7.8,5.4,11.2,31.4,42.8,11.7,102.3,10.5,151.8,13.6-15.3-.2-57.8,23.2-43,3.6,2.1,7,4.8,10.1,7.2.7.5,1.2.8,1.5.6h0s0,0,0,0ZM67.3,178.9c-10.5,2.8-25.1,10.4-36.6,13.2-7.4,1.7-15.7,3.3-19.3-3.9-.6-1.3-.7-3,0-4.4,7-13.1,28.8-9.1,42.3-13.7,2-.7,4-1.2,6.1-1.8,5.2-1.4,10.7-5.3,16.2-3.8,1.9.6,3.4,2.5,3.9,4.4,1.9,6.1-7.3,8.1-12.5,10h-.2q0,0,0,0ZM111.3,186.9c-.6.7-1.6.7-2.4.7-13.1,0-35.6,17.4-39.8.3-.4-1.5-.4-3.4.3-4.8,2.4-4.1,6.9-.1,10.4,0,10.1,0,31.4-12.7,32.2.5,0,1-.1,2.4-.7,3h0c0,.1,0,.1,0,.1ZM117.7,177.7c1.7-.3,3.7.4,5.4.8,23.1,5.9,24.5,13.7,25.5,37.6,0,1.2.1,3.4-.8,3.9-.6.3-1.6,0-2.2-.4-8-4.1-30.1-11.6-28.9-21.6.2-6.2-4.3-17.2.8-20.1h.2s0,0,0,0ZM25.6,219.5c18.6,5.2,38.7,8.9,57.2,14.1.8.2,2.6.8,1.8,1.6-4.5,2.7-10,1.9-14.7.3-3.3-1.1-6.5-3.1-9.7-4.3-14-4.3-28.8-6.2-43.4-9.4-1.3-.3-3.5-.8-1-1.3,3.1-.6,6.5-1.2,9.6-.9h.2s0,0,0,0ZM75,248c19.3,37.1-35.8,45.4-45.9,11.1-2.1-6.9-.8-14.9,3.6-20.4,3.7-4.7,10.5-8,16.5-5.6,7,2.7,17.9,3.5,22.4,10.2,1,1.6,2.1,2.8,3.2,4.5v.2c.1,0,.1,0,.1,0ZM75.9,242.1c1.7-.1,2.9,2.2,2.4,3.7-1-.8-1.9-2.5-2.5-3.6h0c0,0,0,0,0,0ZM75.9,279.6c2.5-3.1,4.5-13.5,5.4-4.7.3,1.8.6,4.1.7,6,.6,8.4-2,8.5-11,6-1.8-.6-4.1-1-5.7-1.8.1-.3.8-.3,1.2-.5,3.5-.7,6.9-2.3,9.2-4.9h.1c0-.1,0-.1,0-.1ZM15.2,276c-3.6,22.9-13.8-44.5-7.6-50.5.7-.8,1.6-1,2.8-.9,3.2.5,4.5,3.1,5.5,6.3,3.1,13.4-.7,31.8-.7,44.9v.2s0,0,0,0ZM18,225.4c.3-.4.9-.4,1.8-.4,1.8.2,3.9.5,5.9.9,25.7,4-11.8,11.5,2.1,37.7,2.1,4,4.6,7.7,8.6,12.2.8.9,1.2,1.7.9,2.2-.4.6-2.3.6-3.2.5-25.1-2.1-11.4-31.1-15.9-50.3-.2-.8-.5-2.1-.1-2.7h0c0,0,0,0,0,0ZM82.1,301.5c-.3.5-.8.4-1.2.2-2.6-1.1-7.5-2.6-13.4-4.2-10.7-3.3-48.1-11.1-46.5-18.1.5-1.3,2-1,3.1-.7,5.9,1.5,18.4,4.8,24,6.3,2.9.9,5.5,2.2,8.8,2.7,11.4,2.1,27.9,1.3,25.3,13.6h0c0,0,0,.1,0,.1ZM92.3,292.9c-.4,1-.9,2-1.5,2.9-1.8,2.7-4.9,3.9-4.8.6.2-2.1,1.2-4.2.7-6.3-2.9-12.7-4.1-29.1-4.2-42.4,0-3.4.3-8.2,2.2-10.7,5.2-2.6,11,49.3,7.7,55.8v.2q0,0,0,0ZM105.7,277.6c-17.9,14.1-5.3-37-18.7-47.1-4.6-3.8-11.8-3.6-17.6-4.4-1.6-.3-5.5-.5-5.6-1.8.1-.6,1.8-1.2,2.7-1.4,25.6-7.6,44.6,32.5,39.2,54.4h0c0,.1,0,.1,0,.1ZM120.9,269c-22.4,19,.3-30.2-37.7-47.9-.8-.4-1.9-1-1.8-1.8,16.1-18,45.1,32.1,39.5,49.6,0,0,0,.1,0,.1ZM121.4,245.8c-1-.9-1.3-2.6-1.9-3.9-8-21-33.9-29.5-15-37.8,1.2-.6,2.7-1.2,3.9-1.6,1.7-.6,2.9-1.1,3.9,0,.5.4.8,1.1,1.2,1.6,6.4,10.3,15.5,4.5,23,25.3,2.2,5.4,5.1,8.5-1.4,10.9-3.2,1.6-6.7,2.4-9.7,4.3-1.2.5-2.7,1.7-4,1.3h0ZM132.2,263.7c-9.7,4.8-6.6-2.6-8.1-8.9-.3-1.9-.5-3.4.6-4.8,3-3.4,9.7-4.7,14.4-6.8,2.2-1.2,2.9.1,3.2,2.3,1.3,8.2,5.9,10.6-.5,14.1-3,1.7-6.3,2.7-9.4,3.9h-.2q0,0,0,0ZM186.5,233.1c8.8-17.2,47.4-13.6,63.4-21.1,1.7-.7,3.3-1.4,5-1.9,6.5-2.1,13.1-6,19.4-7.4,5.5-1.4,8.5,4.7,9.9,9.2,2.5,9,1.1,20.3-2.3,28.5-21,26.3-60.3,32.2-92.5,31.7-2.4,0-3.6-1.6-3.7-3.9-1.1-11.5-1.5-23.5.6-34.8v-.2h0ZM180.7,224.8c6.7,4.6.5,16.2,1.5,24,6.2,37-13.6,16.2-40.4,16.1-4.2.2,2-1.5,2.9-1.9,2.4-.8,5.3-1.8,7.9-2.7,22.1-7.5,22.6-7,15.9-29.9-1.2-4-2.2-7.6-3.3-11.3-.8-2.7.9-1.5,2.1-.7,4,2.9,8.8,4.3,13.3,6.2h.1c0,0,0,0,0,0ZM164.4,231.6c6.6,11.6,1.6,20.6-10.8,24.5-.9.3-2.2.7-2.9.2-.7-.4-.9-1.5-1.1-2.3-1.9-9-6.8-15,2.9-19.1,1.3-.6,2.4-.9,3.5-1.5,2.4-1,5.7-4.9,8.2-2v.2c.1,0,.1,0,.1,0ZM162.1,223.4c.1,4.4-5.2,5.1-8.5,7.3-.7.4-1.3.9-2,1.2-5.6,3.3-10.1,2.3-12.5-4-.6-1.3-1.2-2.8-1.8-4.3-.6-1.5-1.5-3.2-1.2-3.8,2-2.1,12,7.5,15.8,5.6,2.8-1.2.6-5.7.8-8.3-.4-6.8,3-9,6.8-1.5,1.1,2.4,2.4,5.3,2.6,7.7v.2h0ZM151.2,200.4c.5,1.8,3.1,2.7,4.4,4,.7.9-.4.9-1.2,1-1,.1-2.1.7-2.8,1.4-1,1.1-.5-5.9-.4-6.3h0ZM172.6,149.7c.6-1.6,2.1-4.2,3.6-4.4,1.4,0,2.4,1.2,3.4,2.1,4.9,5.7,15.8,12.8,12.9,20-1.9,4.2-4.8,6.1-7.6,1.2-1.4-2.2-2.6-4.7-4.4-6.8-2.6-3.6-8.3-7.3-7.9-12v-.2h0ZM153.2,172.4c3.6-1.7,7-3.8,10.6-6.3,6.4-4.6,13.3-7.2,16.5.9.6,1.7-.4,3.1-1.9,3.8-8.7,5.5-18,9.9-25.7,17.1-2.9,3-2.3,0-3.6-2.5-.6-1.1-1.7-1.8-2.9-2.2-3-1.1-6.1-.6-3.7-3.1,3-2.8,6.7-5.4,10.5-7.6h.2Z"/>
      </g>
    </g>
    <g id="Squirrel_cam-2" data-name="Squirrel cam-2">
      <g>
        <path class="cls-2" d="M63.9,190.9c.4.3.7.9,0,.6-.2-.2,0-.5,0-.6Z"/>
        <path class="cls-2" d="M247.2,347.3c-.3.5-.3-.4,0,0h0Z"/>
        <path class="cls-2" d="M371.1,176.6c.3-.4-.1-1.7-.5-2.3-8.7-13-28.6-10.7-24.2-31,.9-12.1,1.4-24.5.7-36.6-.9-19-6-36.8-16.3-52.5-8.6-15.1-14.3-31.8-16.9-49-.6-8.9-9.2-4.8-12.8-.2-3.7,4.3-16.4,19-19.8,23-1.3,1.7-4.3,0-6.4-.7-36.5-12.7-76.7,20.8-89.9-2-1.8-2.6-4.4-5.8-6.7-7.6-2.7-2.2-5.7-2.9-7.8-1.3-9.7,10-9.7,33.5-14.9,47.4-16.5,31.8-23.1,68.5-16.6,104,.3,1.7.5,4-.7,5.1-13.9,8.8-35.4-8.3-55.1,3.2-1.8,1.1-3.4,1.5-2.6-1.1,3.4-13.6-5.5-17.9-16.7-13.3-18.2,5.3-40.1,4.7-55.6,15.3-2,1.9-2.2,4.9-2.1,7.6.9,24.5,34.9,4.2,52.2-.2,2.8-1.1,3.9,1.3,4.2,3.8,3.1,17.2,29.3,7,43.6,3.3.9-.2,3.1-.8,3,.4-5.1,13.6-43.8,28.7-59.2,29.9-3.6,0-5.5-1.6-9.3-3-3.8-1.5-8.6-3.1-12.8-3.8-32.6-7.1-32.6,35-21.3,65.1,1.4,1.6,3.5,2.5,5.6,3.2,14.9,5.2,26.5,9.3,35.5,12.6,50.3,17.9,20.7,9.3,65.4-19.7,1.6-.6,5.4-4.3,5.8-1.5-5.5,39.6,40.4,71,77.1,73.4,2.3.1,3.9,1.2,4.8,3.4,10.2,28.3,25.4,54.9,44.9,77.8.6.8,1.2,1.3,1.4,1.5.3.2,0-.3-.6-1.2-.2-.4-.5-.8-.8-1.2-15.6-24-31-48.3-41.5-74.9-.5-1.3-1-3.1,0-4,51.8-12.5,73.5,25.2,83.3,72.6.8,3,2,6.9,4.9,7.2,3.9-1.2-11.5-39.8-17.5-51.7-6.5-13.7-13.5-25.7-18.3-29.5-5.5-3.1,17.1-12,19.4-14.5,6.9-4.9-1-5.7-4.4-2.8-47,28.9-130.1,16.8-150.2-40.2-7.1-26.2,17.5-24,35.4-21,10.8,1.7,21.4,4.7,32.1,5.4,33.9-2.6,93.4-6.4,98.4-49.6,4.4-38.7-22.9-25.9-61.9-13.5-11.5,3.4-23.6,6-35,5.7-14.4-.3-28-5.2-38.4-19.1-1.9-2.3-2.8-5.3,0-7.1,9.3-7.6,24.9-23.8,30.4-13.7,1.2,1.2,3.1.7,4.5-.3,11.9-8,7.8-17.7-.3-29.8-2.8-4.8-8.6-9.8-13.9-8.9-5.2.6-9.2,5.3-8.2,12.2.2,1.7.6,3.7-.3,5.3-4.6,4.6-11.5,6.8-17,10.4-2.2,1.4-4,1.2-3.9-1.9-.5-41.9.6-72.4,20.4-108.2,2.4-4.8,8-36.5,16.5-29.8,8.1,9.6,4,18.8,22.1,13.4,16.6-5,42.6-19.6,70.5-7.4,3,1.3,6.1,2.9,8.5,4.5,2.3,2,4.1.8,5-1.8,3.8-8,14.5-40.2,22.7-20.6,3.4,7.8,6.4,21.7,11.2,33.8,1.6,4,3.3,7.8,5.4,11.2,31.4,42.8,11.7,102.3,10.5,151.8,13.6-15.3-.2-57.8,23.2-43,3.6,2.1,7,4.8,10.1,7.2.7.5,1.2.8,1.5.6h0s0,0,0,0ZM65.3,178.1c-10.5,2.8-25.1,10.4-36.6,13.2-7.4,1.7-15.7,3.3-19.3-3.9-.6-1.3-.7-3,0-4.4,7-13.1,28.8-9.1,42.3-13.7,2-.7,4-1.2,6.1-1.8,5.2-1.4,10.7-5.3,16.2-3.8,1.9.6,3.4,2.5,3.9,4.4,1.9,6.1-7.3,8.1-12.5,10h-.2q0,0,0,0ZM109.4,186.1c-.6.7-1.6.7-2.4.7-13.1,0-35.6,17.4-39.8.3-.4-1.5-.4-3.4.3-4.8,2.4-4.1,6.9-.1,10.4,0,10.1,0,31.4-12.7,32.2.5,0,1-.1,2.4-.7,3h0c0,.1,0,.1,0,.1ZM115.7,176.9c1.7-.3,3.7.4,5.4.8,23.2,5.9,24.5,13.7,25.5,37.6,0,1.2.1,3.4-.8,3.9-.6.3-1.6,0-2.2-.4-8-4.1-30.1-11.6-28.9-21.6.2-6.2-4.3-17.2.8-20.1h.2s0,0,0,0ZM23.6,218.6c18.6,5.2,38.7,8.9,57.2,14.1.8.2,2.6.8,1.8,1.6-4.5,2.7-10,1.9-14.7.3-3.3-1.1-6.5-3.1-9.7-4.3-14-4.3-28.8-6.2-43.4-9.4-1.3-.3-3.5-.8-1-1.3,3.1-.6,6.5-1.2,9.6-.9h.2s0,0,0,0ZM73,247.2c19.3,37.1-35.8,45.4-45.9,11.1-2.1-6.9-.8-14.9,3.6-20.4,3.7-4.7,10.5-8,16.5-5.6,7,2.7,17.9,3.5,22.4,10.2,1,1.6,2.1,2.8,3.2,4.5v.2c.1,0,.1,0,.1,0ZM73.9,241.2c1.7-.1,2.9,2.2,2.4,3.7-1-.8-1.9-2.5-2.5-3.6h0c0,0,0,0,0,0ZM73.9,278.8c2.5-3.1,4.5-13.5,5.4-4.7.3,1.8.6,4.1.7,6,.6,8.4-2,8.5-11,6-1.8-.6-4.1-1-5.7-1.8.1-.3.8-.3,1.2-.5,3.5-.7,6.9-2.3,9.2-4.9h.1c0-.1,0-.1,0-.1ZM13.2,275.2c-3.6,22.9-13.8-44.5-7.6-50.5.7-.8,1.6-1,2.8-.9,3.2.5,4.5,3.1,5.5,6.3,3.1,13.4-.7,31.8-.7,44.9v.2s0,0,0,0ZM16,224.5c.3-.4.9-.4,1.8-.4,1.8.2,3.9.5,5.9.9,25.7,4-11.8,11.5,2.1,37.7,2.1,4,4.6,7.7,8.6,12.2.8.9,1.2,1.7.9,2.2-.4.6-2.3.6-3.2.5-25.1-2.1-11.4-31.1-15.9-50.3-.2-.8-.5-2.1-.1-2.7h0c0,0,0,0,0,0ZM80.1,300.6c-.3.5-.8.4-1.2.2-2.6-1.1-7.5-2.6-13.4-4.2-10.7-3.3-48.1-11.1-46.5-18.1.5-1.3,2-1,3.1-.7,5.9,1.5,18.4,4.8,24,6.3,2.9.9,5.5,2.2,8.8,2.7,11.4,2.1,27.9,1.3,25.3,13.6h0c0,0,0,.1,0,.1ZM90.3,292.1c-.4,1-.9,2-1.5,2.9-1.8,2.7-4.9,3.9-4.8.6.2-2.1,1.2-4.2.7-6.3-2.9-12.7-4.1-29.1-4.2-42.4,0-3.4.3-8.2,2.2-10.7,5.2-2.6,11,49.3,7.7,55.8v.2ZM103.7,276.8c-17.9,14.1-5.3-37-18.7-47.1-4.6-3.8-11.8-3.6-17.6-4.4-1.6-.3-5.5-.5-5.6-1.8.1-.6,1.8-1.2,2.7-1.4,25.6-7.6,44.6,32.5,39.2,54.4h0c0,.1,0,.1,0,.1ZM118.9,268.2c-22.4,19,.3-30.2-37.7-47.9-.8-.4-1.9-1-1.8-1.8,16.1-18,45.1,32.1,39.5,49.6,0,0,0,.1,0,.1ZM119.4,245c-1-.9-1.3-2.6-1.9-3.9-8-21-34-29.5-15-37.8,1.2-.6,2.7-1.2,3.9-1.6,1.7-.6,2.9-1.1,3.9,0,.5.4.8,1.1,1.2,1.6,6.4,10.3,15.5,4.5,23,25.3,2.2,5.4,5.1,8.5-1.4,10.9-3.2,1.6-6.7,2.4-9.7,4.3-1.2.5-2.7,1.7-4,1.3,0,0,0,0,0,0ZM130.2,262.9c-9.7,4.8-6.6-2.6-8.1-8.9-.3-1.9-.5-3.4.6-4.8,3-3.4,9.7-4.7,14.4-6.8,2.2-1.2,2.9.1,3.2,2.3,1.3,8.2,5.9,10.6-.5,14.1-3,1.7-6.3,2.7-9.4,3.9h-.2q0,0,0,0ZM184.5,232.3c8.8-17.2,47.4-13.6,63.4-21.1,1.7-.7,3.3-1.4,5-1.9,6.5-2.1,13.1-6,19.4-7.4,5.5-1.4,8.5,4.7,9.9,9.2,2.5,9,1.1,20.3-2.3,28.5-21,26.3-60.3,32.2-92.5,31.7-2.4,0-3.6-1.6-3.7-3.9-1.1-11.5-1.5-23.5.6-34.8v-.2h0ZM178.8,223.9c6.7,4.6.5,16.2,1.5,24,6.2,37-13.6,16.2-40.4,16.1-4.2.2,2-1.5,2.9-1.9,2.4-.8,5.3-1.8,7.9-2.7,22.1-7.5,22.6-7,15.9-29.9-1.2-4-2.2-7.6-3.3-11.3-.8-2.7.9-1.5,2.1-.7,4,2.9,8.8,4.3,13.3,6.2h.1c0,0,0,0,0,0ZM162.4,230.8c6.6,11.6,1.6,20.6-10.8,24.5-.9.3-2.2.7-2.9.2-.7-.4-.9-1.5-1.1-2.3-1.9-9-6.8-15,2.9-19.1,1.3-.6,2.4-.9,3.5-1.5,2.4-1,5.7-4.9,8.2-2v.2c.1,0,.1,0,.1,0ZM160.1,222.6c.1,4.4-5.2,5.1-8.5,7.3-.7.4-1.3.9-2,1.2-5.6,3.3-10.1,2.3-12.5-4-.6-1.3-1.2-2.8-1.8-4.3-.6-1.5-1.5-3.2-1.2-3.8,2-2.1,12,7.5,15.8,5.6,2.8-1.2.6-5.7.8-8.3-.4-6.8,3-9,6.8-1.5,1.1,2.4,2.4,5.3,2.6,7.7v.2h0ZM149.2,199.6c.5,1.8,3.1,2.7,4.4,4,.7.9-.4.9-1.2,1-1,.1-2.1.7-2.8,1.4-1,1.1-.5-5.9-.4-6.3h0ZM170.6,148.9c.6-1.6,2.1-4.2,3.6-4.4,1.4,0,2.4,1.2,3.4,2.1,4.9,5.7,15.8,12.8,12.9,20-1.9,4.2-4.8,6.1-7.6,1.2-1.4-2.2-2.6-4.7-4.4-6.8-2.6-3.6-8.3-7.3-7.9-12v-.2h0ZM151.2,171.6c3.6-1.7,7-3.8,10.6-6.3,6.4-4.6,13.3-7.2,16.5.9.6,1.7-.4,3.1-1.9,3.8-8.7,5.5-18,9.9-25.7,17.1-2.9,3-2.3,0-3.6-2.5-.6-1.1-1.7-1.8-2.9-2.2-3-1.1-6.1-.6-3.7-3.1,3-2.8,6.7-5.4,10.5-7.6h.2Z"/>
      </g>
    </g>
  </g>
</svg>