<?xml version="1.0" encoding="UTF-8"?>
<svg id="Layer_2" data-name="Layer 2" xmlns="http://www.w3.org/2000/svg" viewBox="0 0 480.43 176.87">
  <defs>
    <style>
      .cls-1 {
        fill: #cc7d3d;
      }

      .cls-2 {
        fill: #555e73;
      }
    </style>
  </defs>
  <g id="background">
    <g id="site_speed" data-name="site speed">
      <path class="cls-2" d="M432.33,89.52c6.02-.1,12.04-.19,18.06-.29,7.47-.12,14.94-.24,22.4,.14,3.31,.17,7.6,1.4,7.64,4.71-24.2-1.77-48.56-1.18-72.64,1.75-4.76,.58-9.8,1.21-14.19-.73-.08-1.65,1.93-2.48,3.54-2.83,.63-.14,1.35-.26,1.89,.11"/>
      <path class="cls-2" d="M417.85,104.09c6.26-1,12.64-.76,18.98-.52m0,0c2.57,.1,5.14,.2,7.67,.63,3.46,.59,6.79,1.8,10.09,3.01,.69,.39,1.03,1.31,.75,2.05-19.24,1.3-38.83-3.11-57.7,.86-2.27,.48-4.67,1.07-6.87,.33-2.2-.74-3.88-3.49-2.63-5.44,6.83-.95,13.7-1.61,20.58-1.98,1.98-.11,4.13-.14,5.76,.99"/>
      <path class="cls-2" d="M382.29,125.97c-2.23-1.45-1.94-5.14,.06-6.9,2-1.76,4.96-1.95,7.57-1.45,1.68,.32,3.37-.3,5.02-.78,6.7-1.93,13.82-1.44,20.78-.94,8.06,.59,16.13,1.17,24.19,1.76,1.58,.12,3.24,.26,4.56,1.14s2.11,2.76,1.27,4.1c-.92,1.47-3.03,1.44-4.75,1.24-4.5-.52-9.01-1.05-13.51-1.57"/>
      <path class="cls-2" d="M380.72,136.17c-.6-.51-1.48-.69-2.23-.45,.07-1.09-.72-2.17-1.78-2.43,0-.71,0-1.43-.01-2.14,.92-.64,2.12-.67,3.24-.67,5.31-.02,10.62-.03,15.93-.05,.96,0,1.91,0,2.87,0,6.48-.02,12.97-.04,19.45-.06,2.27,0,5.27,.64,5.4,2.9,.12,2.3-2.91,3.24-5.21,3.31-5.14,.15-10.29-.26-15.34-1.21-1.63-.31-3.25,.37-4.87,.71s-3.61,.18-4.49-1.22c.34-.88,1.66-.27,2.29,.43"/>
      <path class="cls-2" d="M284.95,176.27c1.48-2.57,5.01-2.85,7.98-2.82,34.57,.34,69.13,.67,103.7,1.01-3.89,1.26-8.05,1.34-12.14,1.39-30.04,.41-60.08,.35-90.11-.18-3.14,.2-6.28,.4-9.42,.6Z"/>
      <path class="cls-2" d="M446.96,79.01c8.77-.68,17.66,.42,26,3.21,.52,.17,1.11,.44,1.23,.97,.21,.99-1.25,1.35-2.26,1.25-25.42-2.6-51.1-2.63-76.53-.08,.44-1.01,.87-2.02,1.31-3.04"/>
      <path class="cls-2" d="M291.15,17.93c3.02-3.19,7.63-4.25,11.99-4.8,8.41-1.06,17-.78,25.33,.82,2.61,.5,5.68,1.62,6.16,4.23-1.25-.12-2.46-.51-3.66-.87-12.44-3.65-26.09-3.04-38.16,1.68,.07,.53-.76,.77-1.16,.42-.4-.35-.46-.95-.48-1.48Z"/>
      <path class="cls-2" d="M293.49,26.55c2.57,.21,5.15-.01,7.71-.24,7.05-.61,14.1-1.22,21.15-1.83,2.62-.23,5.28,0,7.83,.68,.57,.15,1.19,.36,1.5,.86,.51,.8-.07,1.94-.93,2.35-.86,.41-1.86,.32-2.81,.22-13.62-1.33-27.48-.16-40.68,3.45,.13-3.09,3.15-5.75,6.23-5.5Z"/>
      <path class="cls-2" d="M312.4,7.3c-2.67-.13-5.33-.26-8-.25-2.44,0-4.89,.11-7.32,.33-5.64,.5-11.25,1.6-16.56,3.57-.68,.25-1.27-.73-.98-1.39,.29-.66,1.03-.98,1.71-1.22,10.98-3.96,23.12-4.66,34.48-1.99,.27,.39,.54,.78,.81,1.16-1.38-.07-2.76-.13-4.14-.2Z"/>
      <path class="cls-2" d="M226.51,174.44c-3.19,1.31-6.74,1.35-10.19,1.37-63.4,.35-126.8,.69-190.2,1.04-8.74,.05-17.53,.09-26.13-1.48,91.25-1.37,182.52-2.11,273.78-2.24-.17,1.24,22.12,.99,11.36,3.38-5.12-.57-22.12-.79-27.24-1.36"/>
      <path class="cls-2" d="M232.57,95.26c-.13,4.88-.43,18.74-.56,23.62-.04,1.51-.09,3.04-.61,4.46-1.57,4.25-6.8,5.9-11.32,5.71-4.52-.19-8.99-1.64-13.49-1.16-13.73,1.46-27.61,1.55-41.37,.27-1.87-.17-4.4-1.83-3.15-3.24,20.43-2.72,41.11-3.6,61.7-2.62,1.66,.08,2.22-2.17,2.21-3.84-.02-3.74-.05-7.48-.07-11.22-.02-2.7,.66-5.87-1.71-7.19-1.86-1.04-5.16-.43-7.25-.84s-3.9-3.34-2.12-4.49"/>
      <path class="cls-2" d="M363.96,62.62c.83-2.93,3.58-5.21,6.61-5.48,3.57,14.8,4.95,30.12,4.11,45.32-.28,4.98-2.88,11.61-7.75,10.54-5.17-1.14-8.55,5.25-9.62,10.43s-3.09,11.72-8.36,12.09c-9.66,.68-19.31,1.36-28.97,2.03-2.08,.15-4.59,.6-5.32,2.55-3.3,8.84-13.36,14.58-22.65,12.93-9.29-1.65-16.76-10.5-16.82-19.94,.33,6.77-8.32,9.73-15.06,10.46-36.83,3.96-73.96,4.54-111,3.88-4.86-.09-10.44,.13-13.48,3.91-5.8,7.22-15.07,11.52-24.33,11.28-9.26-.24-18.3-5.01-23.72-12.51-15.47,2.36-31.32,2.22-46.74-.42-4.45-.76-9.28-1.99-11.94-5.64-2.83-3.89-2.25-9.21-1.54-13.97,1.24-8.4,2.48-16.8,3.73-25.2,.92-6.23,2.97-13.76,9.1-15.21,33.15-7.86,64.95-21.4,93.6-39.86,3.77-2.43,7.63-5,12.04-5.77,4.14-.73,6.59-4.87,8.95-8.34,8.08-11.87,21.43-20,35.69-21.74,2.61-3.98,5.21-7.96,7.82-11.94,6.6,7.94,9.79,18.63,8.6,28.89,11.94-12.25,26.39-23.57,43.4-25.35,6.56-.69,13.84,.39,18.35,5.2,6.6,7.04,4.22,18.95-1.85,26.46-6.07,7.51-14.87,12.2-22.31,18.35-7.44,6.15-13.96,15.15-12.49,24.69,8.36-2.32,16.17-6.62,22.59-12.46,2.69-2.45,5.23-5.31,6.18-8.83,.95-3.52-.11-7.79-3.26-9.62,8.74-4.57,19.24-3.36,29.01-2.02,23.78,3.25,47.56,6.5,71.34,9.75,3.2,.44,7.46,2.63,6.11,5.56m-29.64,55.55c-.24-6.62-.48-13.24-.72-19.86-.04-1.15-.28-2.57-1.38-2.9-2.48-.75-3.75-4.08-2.4-6.29-6.18-.8-12.55-.02-18.35,2.27-1.45,.57-2.96,1.25-4.5,1.04-1.55-.21-3.02-1.76-2.5-3.23-17.52-1.64-35.03-3.28-52.55-4.92-3.08-.29-7.38,.43-7.41,3.53-3.51-1.51-7.01-3.03-10.52-4.54-1.72,.8-3.44,1.61-5.15,2.41,.1-.84,.19-1.68,.29-2.52-23.7,9.46-49.5,13.62-74.97,12.08,2.5,11.5,3.06,23.41,1.66,35.09-2.09,1.44-3.95-2.14-4.01-4.68-.21-8.91-.43-17.81-.64-26.72-.04-1.47-1.76-2.2-3.19-2.52-18.71-4.24-38.26-.52-56.81,4.36-18.55,4.88-37.06,10.98-56.23,11.54-.48,8.19-.96,16.38-1.44,24.56-.12,2-.13,4.29,1.35,5.65,.86,.79,2.05,1.08,3.19,1.34,12.84,2.83,26.08,3.84,39.21,2.99,1.58-.1,3.25-.26,4.55-1.16,1.78-1.22,2.44-3.48,3.2-5.5,5.32-14.33,21.5-23.73,36.58-21.26,9.83,1.61,19.67,9.69,18.75,19.62-.23,2.47,3.12,3.43,5.6,3.48,38.09,.78,76.23-.58,114.18-4.05,4.25-.39,9.35-1.43,10.77-5.46,3.66-10.34,11.95-19.6,22.7-21.78,10.75-2.18,23.29,4.73,24.98,15.56,.82,5.26,8.25,8.05,12.33,4.61,3.49-2.94,3.61-8.18,3.44-12.74m-173.32-27.66c1.68,1.34,4.05,1.27,6.19,1.11,16.21-1.22,32.31-3.81,48.08-7.74,5.31-1.32,11.43-3.62,12.78-8.92,4.12-16.13,18.98-26.72,32.02-37.07,4.85-3.85,9.98-8.64,10.11-14.83,.1-5.05-3.44-9.7-7.97-11.92-4.53-2.23-9.85-2.34-14.81-1.43-15.9,2.9-28.22,15.12-39.32,26.86-.78,.83-2.28,.43-2.97-.48s-.79-2.12-.88-3.26c-.69-8.23-2.3-16.38-4.79-24.25-2.98,1.84-4.78,5.42-4.5,8.91-14.2-.08-28.13,8.33-34.67,20.94-2.96,5.7,2.51,12.38,8.4,14.93,5.89,2.56,12.79,3.27,17.58,7.53-5.21,1.68-11.16,.87-15.73-2.13-2.07-1.36-4.97-.85-6.93,.66-1.96,1.51-3.15,3.81-4.02,6.13-2.46,6.61-2.78,14-.88,20.79,.43,1.55,1.04,3.16,2.3,4.17m93.4-16.72c-1.69,1.35-3.61,2.88-3.76,5.04,18.04,2.07,36.08,4.15,54.12,6.22,1.74,.2,3.62,.37,5.14-.49,1.05-.6,1.78-1.62,2.48-2.6,5.37-7.59,10.74-15.19,16.12-22.78,.75-.45-.36-1.45-1.23-1.56-17.36-2.23-34.72-4.45-52.08-6.68-1.37-.18-3.13-.16-3.71,1.1-3.91,8.44-9.81,15.95-17.08,21.75m-136.22-4.47c-4.45,.13-8.73,1.66-12.92,3.18-20.13,7.29-40.26,14.58-60.39,21.87-2.27,.82-4.61,1.68-6.41,3.3-2.61,2.34-3.73,6.21-2.77,9.59,23.24-5.64,46.48-11.28,69.73-16.92,2.07-.5,4.17-1.02,5.99-2.12,5.98-3.64,6.71-11.88,6.77-18.89m219.68,62.17c1.65-.21,2.4-2.28,2.12-3.92-.28-1.64-1.2-3.12-1.44-4.76-.64-4.35,4.97-8.16,8.78-5.96,3.03,1.75,7.12,.53,9.52-2.03,2.39-2.55,3.4-6.11,3.89-9.58,.56-3.97,1.51-9.12,5.48-9.68,1.79-.26,2.38-2.51,2.52-4.31,.72-9.35,.36-18.79-1.09-28.06-9.21,11.08-19.87,20.96-31.61,29.32,.62,13,1.23,25.99,1.85,38.99m-22.03-45.43c-.1,.49,.35,1.02,.85,.99,5.32-2.8,11.89-3.11,17.44-.81,1.5,.62,3.16-.36,4.47-1.32,8.1-5.97,15.33-13.12,21.37-21.17-2.29-.66-4.57-1.31-6.86-1.97-5.23-1.5-10.51-3.01-15.94-3.36-1.22-.08-2.58-.05-3.49,.76-.52,.47-.82,1.13-1.11,1.77-4.17,9.2-9.84,17.72-16.74,25.11M147.43,51.08c-3.15,1.07-6.31,2.15-9.46,3.22-1.53,.52-3.09,1.06-4.41,1.99-1.62,1.15-2.79,2.82-3.84,4.51-4.53,7.32-7.41,15.65-8.36,24.2,6.9-3.76,13.8-7.53,20.7-11.29,2.38-1.3,4.9-2.74,6.09-5.17,.74-1.52,.87-3.26,.89-4.95,.05-4.21-.49-8.43-1.59-12.5m7.19,38.27c-.52-3.56-1.05-7.12-1.57-10.68-.12-.84-.38-1.84-1.2-2.07-9.19,3.83-18.1,8.34-26.62,13.49,9.32,1.16,18.75,1.45,28.13,.87,.4-.02,.84-.07,1.1-.37,.28-.32,.23-.81,.17-1.23m-35.15,45.9c-1.54-1.63-3.31-3.36-5.54-3.48-1.62-.08-3.18,.74-4.39,1.82-2.67,2.38-4,6.18-3.4,9.7,.36,2.31,2.82,3.82,5.16,3.93,2.34,.1,4.58-.86,6.72-1.8,1.81-.79,3.62-1.59,5.42-2.38,.33-3-1.89-5.6-3.96-7.79m183.87-3.91c-.92-2.47-3.21-4.37-5.8-4.84-2.59-.47-5.39,.52-7.12,2.51-1.68,1.93-2.21,5.04-.65,7.06,.64,.82,1.54,1.39,2.47,1.87,3.24,1.67,7.98,1.96,9.82-1.19-.34-.97,.82-1.74,1.31-2.64,.45-.84,.3-1.88-.03-2.78M162.16,54.12c-2.51-1.97-5.03-3.95-7.54-5.92-.52,.77-1.34,1.33-2.25,1.53,.81,6.51,.84,13.12,.11,19.65,.26,.51,1.07,.45,1.46,.04,.4-.41,.5-1.01,.61-1.57,.76-3.87,2.7-7.51,5.5-10.29,.98-.98,2.16-2.05,2.11-3.44Z"/>
    </g>
    <g id="site_speed-2" data-name="site speed">
      <path class="cls-2" d="M432.33,89.52c6.02-.1,12.04-.19,18.06-.29,7.47-.12,14.94-.24,22.4,.14,3.31,.17,7.6,1.4,7.64,4.71-24.2-1.77-48.56-1.18-72.64,1.75-4.76,.58-9.8,1.21-14.19-.73-.08-1.65,1.93-2.48,3.54-2.83,.63-.14,1.35-.26,1.89,.11"/>
      <path class="cls-2" d="M417.85,104.09c6.26-1,12.64-.76,18.98-.52m0,0c2.57,.1,5.14,.2,7.67,.63,3.46,.59,6.79,1.8,10.09,3.01,.69,.39,1.03,1.31,.75,2.05-19.24,1.3-38.83-3.11-57.7,.86-2.27,.48-4.67,1.07-6.87,.33-2.2-.74-3.88-3.49-2.63-5.44,6.83-.95,13.7-1.61,20.58-1.98,1.98-.11,4.13-.14,5.76,.99"/>
      <path class="cls-2" d="M382.29,125.97c-2.23-1.45-1.94-5.14,.06-6.9,2-1.76,4.96-1.95,7.57-1.45,1.68,.32,3.37-.3,5.02-.78,6.7-1.93,13.82-1.44,20.78-.94,8.06,.59,16.13,1.17,24.19,1.76,1.58,.12,3.24,.26,4.56,1.14s2.11,2.76,1.27,4.1c-.92,1.47-3.03,1.44-4.75,1.24-4.5-.52-9.01-1.05-13.51-1.57"/>
      <path class="cls-2" d="M380.72,136.17c-.6-.51-1.48-.69-2.23-.45,.07-1.09-.72-2.17-1.78-2.43,0-.71,0-1.43-.01-2.14,.92-.64,2.12-.67,3.24-.67,5.31-.02,10.62-.03,15.93-.05,.96,0,1.91,0,2.87,0,6.48-.02,12.97-.04,19.45-.06,2.27,0,5.27,.64,5.4,2.9,.12,2.3-2.91,3.24-5.21,3.31-5.14,.15-10.29-.26-15.34-1.21-1.63-.31-3.25,.37-4.87,.71s-3.61,.18-4.49-1.22c.34-.88,1.66-.27,2.29,.43"/>
      <path class="cls-2" d="M284.95,176.27c1.48-2.57,5.01-2.85,7.98-2.82,34.57,.34,69.13,.67,103.7,1.01-3.89,1.26-8.05,1.34-12.14,1.39-30.04,.41-60.08,.35-90.11-.18-3.14,.2-6.28,.4-9.42,.6Z"/>
      <path class="cls-2" d="M446.96,79.01c8.77-.68,17.66,.42,26,3.21,.52,.17,1.11,.44,1.23,.97,.21,.99-1.25,1.35-2.26,1.25-25.42-2.6-51.1-2.63-76.53-.08,.44-1.01,.87-2.02,1.31-3.04"/>
      <path class="cls-2" d="M291.15,17.93c3.02-3.19,7.63-4.25,11.99-4.8,8.41-1.06,17-.78,25.33,.82,2.61,.5,5.68,1.62,6.16,4.23-1.25-.12-2.46-.51-3.66-.87-12.44-3.65-26.09-3.04-38.16,1.68,.07,.53-.76,.77-1.16,.42-.4-.35-.46-.95-.48-1.48Z"/>
      <path class="cls-2" d="M293.49,26.55c2.57,.21,5.15-.01,7.71-.24,7.05-.61,14.1-1.22,21.15-1.83,2.62-.23,5.28,0,7.83,.68,.57,.15,1.19,.36,1.5,.86,.51,.8-.07,1.94-.93,2.35-.86,.41-1.86,.32-2.81,.22-13.62-1.33-27.48-.16-40.68,3.45,.13-3.09,3.15-5.75,6.23-5.5Z"/>
      <path class="cls-2" d="M312.4,7.3c-2.67-.13-5.33-.26-8-.25-2.44,0-4.89,.11-7.32,.33-5.64,.5-11.25,1.6-16.56,3.57-.68,.25-1.27-.73-.98-1.39,.29-.66,1.03-.98,1.71-1.22,10.98-3.96,23.12-4.66,34.48-1.99,.27,.39,.54,.78,.81,1.16-1.38-.07-2.76-.13-4.14-.2Z"/>
      <path class="cls-2" d="M226.51,174.44c-3.19,1.31-6.74,1.35-10.19,1.37-63.4,.35-126.8,.69-190.2,1.04-8.74,.05-17.53,.09-26.13-1.48,91.25-1.37,182.52-2.11,273.78-2.24-.17,1.24,22.12,.99,11.36,3.38-5.12-.57-22.12-.79-27.24-1.36"/>
      <path class="cls-2" d="M232.57,95.26c-.13,4.88-.43,18.74-.56,23.62-.04,1.51-.09,3.04-.61,4.46-1.57,4.25-6.8,5.9-11.32,5.71-4.52-.19-8.99-1.64-13.49-1.16-13.73,1.46-27.61,1.55-41.37,.27-1.87-.17-4.4-1.83-3.15-3.24,20.43-2.72,41.11-3.6,61.7-2.62,1.66,.08,2.22-2.17,2.21-3.84-.02-3.74-.05-7.48-.07-11.22-.02-2.7,.66-5.87-1.71-7.19-1.86-1.04-5.16-.43-7.25-.84s-3.9-3.34-2.12-4.49"/>
      <path class="cls-2" d="M363.96,62.62c.83-2.93,3.58-5.21,6.61-5.48,3.57,14.8,4.95,30.12,4.11,45.32-.28,4.98-2.88,11.61-7.75,10.54-5.17-1.14-8.55,5.25-9.62,10.43s-3.09,11.72-8.36,12.09c-9.66,.68-19.31,1.36-28.97,2.03-2.08,.15-4.59,.6-5.32,2.55-3.3,8.84-13.36,14.58-22.65,12.93-9.29-1.65-16.76-10.5-16.82-19.94,.33,6.77-8.32,9.73-15.06,10.46-36.83,3.96-73.96,4.54-111,3.88-4.86-.09-10.44,.13-13.48,3.91-5.8,7.22-15.07,11.52-24.33,11.28-9.26-.24-18.3-5.01-23.72-12.51-15.47,2.36-31.32,2.22-46.74-.42-4.45-.76-9.28-1.99-11.94-5.64-2.83-3.89-2.25-9.21-1.54-13.97,1.24-8.4,2.48-16.8,3.73-25.2,.92-6.23,2.97-13.76,9.1-15.21,33.15-7.86,64.95-21.4,93.6-39.86,3.77-2.43,7.63-5,12.04-5.77,4.14-.73,6.59-4.87,8.95-8.34,8.08-11.87,21.43-20,35.69-21.74,2.61-3.98,5.21-7.96,7.82-11.94,6.6,7.94,9.79,18.63,8.6,28.89,11.94-12.25,26.39-23.57,43.4-25.35,6.56-.69,13.84,.39,18.35,5.2,6.6,7.04,4.22,18.95-1.85,26.46-6.07,7.51-14.87,12.2-22.31,18.35-7.44,6.15-13.96,15.15-12.49,24.69,8.36-2.32,16.17-6.62,22.59-12.46,2.69-2.45,5.23-5.31,6.18-8.83,.95-3.52-.11-7.79-3.26-9.62,8.74-4.57,19.24-3.36,29.01-2.02,23.78,3.25,47.56,6.5,71.34,9.75,3.2,.44,7.46,2.63,6.11,5.56m-29.64,55.55c-.24-6.62-.48-13.24-.72-19.86-.04-1.15-.28-2.57-1.38-2.9-2.48-.75-3.75-4.08-2.4-6.29-6.18-.8-12.55-.02-18.35,2.27-1.45,.57-2.96,1.25-4.5,1.04-1.55-.21-3.02-1.76-2.5-3.23-17.52-1.64-35.03-3.28-52.55-4.92-3.08-.29-7.38,.43-7.41,3.53-3.51-1.51-7.01-3.03-10.52-4.54-1.72,.8-3.44,1.61-5.15,2.41,.1-.84,.19-1.68,.29-2.52-23.7,9.46-49.5,13.62-74.97,12.08,2.5,11.5,3.06,23.41,1.66,35.09-2.09,1.44-3.95-2.14-4.01-4.68-.21-8.91-.43-17.81-.64-26.72-.04-1.47-1.76-2.2-3.19-2.52-18.71-4.24-38.26-.52-56.81,4.36-18.55,4.88-37.06,10.98-56.23,11.54-.48,8.19-.96,16.38-1.44,24.56-.12,2-.13,4.29,1.35,5.65,.86,.79,2.05,1.08,3.19,1.34,12.84,2.83,26.08,3.84,39.21,2.99,1.58-.1,3.25-.26,4.55-1.16,1.78-1.22,2.44-3.48,3.2-5.5,5.32-14.33,21.5-23.73,36.58-21.26,9.83,1.61,19.67,9.69,18.75,19.62-.23,2.47,3.12,3.43,5.6,3.48,38.09,.78,76.23-.58,114.18-4.05,4.25-.39,9.35-1.43,10.77-5.46,3.66-10.34,11.95-19.6,22.7-21.78,10.75-2.18,23.29,4.73,24.98,15.56,.82,5.26,8.25,8.05,12.33,4.61,3.49-2.94,3.61-8.18,3.44-12.74m-173.32-27.66c1.68,1.34,4.05,1.27,6.19,1.11,16.21-1.22,32.31-3.81,48.08-7.74,5.31-1.32,11.43-3.62,12.78-8.92,4.12-16.13,18.98-26.72,32.02-37.07,4.85-3.85,9.98-8.64,10.11-14.83,.1-5.05-3.44-9.7-7.97-11.92-4.53-2.23-9.85-2.34-14.81-1.43-15.9,2.9-28.22,15.12-39.32,26.86-.78,.83-2.28,.43-2.97-.48s-.79-2.12-.88-3.26c-.69-8.23-2.3-16.38-4.79-24.25-2.98,1.84-4.78,5.42-4.5,8.91-14.2-.08-28.13,8.33-34.67,20.94-2.96,5.7,2.51,12.38,8.4,14.93,5.89,2.56,12.79,3.27,17.58,7.53-5.21,1.68-11.16,.87-15.73-2.13-2.07-1.36-4.97-.85-6.93,.66-1.96,1.51-3.15,3.81-4.02,6.13-2.46,6.61-2.78,14-.88,20.79,.43,1.55,1.04,3.16,2.3,4.17m93.4-16.72c-1.69,1.35-3.61,2.88-3.76,5.04,18.04,2.07,36.08,4.15,54.12,6.22,1.74,.2,3.62,.37,5.14-.49,1.05-.6,1.78-1.62,2.48-2.6,5.37-7.59,10.74-15.19,16.12-22.78,.75-.45-.36-1.45-1.23-1.56-17.36-2.23-34.72-4.45-52.08-6.68-1.37-.18-3.13-.16-3.71,1.1-3.91,8.44-9.81,15.95-17.08,21.75m-136.22-4.47c-4.45,.13-8.73,1.66-12.92,3.18-20.13,7.29-40.26,14.58-60.39,21.87-2.27,.82-4.61,1.68-6.41,3.3-2.61,2.34-3.73,6.21-2.77,9.59,23.24-5.64,46.48-11.28,69.73-16.92,2.07-.5,4.17-1.02,5.99-2.12,5.98-3.64,6.71-11.88,6.77-18.89m219.68,62.17c1.65-.21,2.4-2.28,2.12-3.92-.28-1.64-1.2-3.12-1.44-4.76-.64-4.35,4.97-8.16,8.78-5.96,3.03,1.75,7.12,.53,9.52-2.03,2.39-2.55,3.4-6.11,3.89-9.58,.56-3.97,1.51-9.12,5.48-9.68,1.79-.26,2.38-2.51,2.52-4.31,.72-9.35,.36-18.79-1.09-28.06-9.21,11.08-19.87,20.96-31.61,29.32,.62,13,1.23,25.99,1.85,38.99m-22.03-45.43c-.1,.49,.35,1.02,.85,.99,5.32-2.8,11.89-3.11,17.44-.81,1.5,.62,3.16-.36,4.47-1.32,8.1-5.97,15.33-13.12,21.37-21.17-2.29-.66-4.57-1.31-6.86-1.97-5.23-1.5-10.51-3.01-15.94-3.36-1.22-.08-2.58-.05-3.49,.76-.52,.47-.82,1.13-1.11,1.77-4.17,9.2-9.84,17.72-16.74,25.11M147.43,51.08c-3.15,1.07-6.31,2.15-9.46,3.22-1.53,.52-3.09,1.06-4.41,1.99-1.62,1.15-2.79,2.82-3.84,4.51-4.53,7.32-7.41,15.65-8.36,24.2,6.9-3.76,13.8-7.53,20.7-11.29,2.38-1.3,4.9-2.74,6.09-5.17,.74-1.52,.87-3.26,.89-4.95,.05-4.21-.49-8.43-1.59-12.5m7.19,38.27c-.52-3.56-1.05-7.12-1.57-10.68-.12-.84-.38-1.84-1.2-2.07-9.19,3.83-18.1,8.34-26.62,13.49,9.32,1.16,18.75,1.45,28.13,.87,.4-.02,.84-.07,1.1-.37,.28-.32,.23-.81,.17-1.23m-35.15,45.9c-1.54-1.63-3.31-3.36-5.54-3.48-1.62-.08-3.18,.74-4.39,1.82-2.67,2.38-4,6.18-3.4,9.7,.36,2.31,2.82,3.82,5.16,3.93,2.34,.1,4.58-.86,6.72-1.8,1.81-.79,3.62-1.59,5.42-2.38,.33-3-1.89-5.6-3.96-7.79m183.87-3.91c-.92-2.47-3.21-4.37-5.8-4.84-2.59-.47-5.39,.52-7.12,2.51-1.68,1.93-2.21,5.04-.65,7.06,.64,.82,1.54,1.39,2.47,1.87,3.24,1.67,7.98,1.96,9.82-1.19-.34-.97,.82-1.74,1.31-2.64,.45-.84,.3-1.88-.03-2.78M162.16,54.12c-2.51-1.97-5.03-3.95-7.54-5.92-.52,.77-1.34,1.33-2.25,1.53,.81,6.51,.84,13.12,.11,19.65,.26,.51,1.07,.45,1.46,.04,.4-.41,.5-1.01,.61-1.57,.76-3.87,2.7-7.51,5.5-10.29,.98-.98,2.16-2.05,2.11-3.44Z"/>
    </g>
  </g>
  <g id="Layer_1-2" data-name="Layer 1">
    <g id="site_speed-3" data-name="site speed">
      <path class="cls-1" d="M432.33,87.52c6.02-.1,12.04-.19,18.06-.29,7.47-.12,14.94-.24,22.4,.14,3.31,.17,7.6,1.4,7.64,4.71-24.2-1.77-48.56-1.18-72.64,1.75-4.76,.58-9.8,1.21-14.19-.73-.08-1.65,1.93-2.48,3.54-2.83,.63-.14,1.35-.26,1.89,.11"/>
      <path class="cls-1" d="M417.85,102.09c6.26-1,12.64-.76,18.98-.52m0,0c2.57,.1,5.14,.2,7.67,.63,3.46,.59,6.79,1.8,10.09,3.01,.69,.39,1.03,1.31,.75,2.05-19.24,1.3-38.83-3.11-57.7,.86-2.27,.48-4.67,1.07-6.87,.33-2.2-.74-3.88-3.49-2.63-5.44,6.83-.95,13.7-1.61,20.58-1.98,1.98-.11,4.13-.14,5.76,.99"/>
      <path class="cls-1" d="M382.29,123.97c-2.23-1.45-1.94-5.14,.06-6.9,2-1.76,4.96-1.95,7.57-1.45,1.68,.32,3.37-.3,5.02-.78,6.7-1.93,13.82-1.44,20.78-.94,8.06,.59,16.13,1.17,24.19,1.76,1.58,.12,3.24,.26,4.56,1.14s2.11,2.76,1.27,4.1c-.92,1.47-3.03,1.44-4.75,1.24-4.5-.52-9.01-1.05-13.51-1.57"/>
      <path class="cls-1" d="M380.72,134.17c-.6-.51-1.48-.69-2.23-.45,.07-1.09-.72-2.17-1.78-2.43,0-.71,0-1.43-.01-2.14,.92-.64,2.12-.67,3.24-.67,5.31-.02,10.62-.03,15.93-.05,.96,0,1.91,0,2.87,0,6.48-.02,12.97-.04,19.45-.06,2.27,0,5.27,.64,5.4,2.9,.12,2.3-2.91,3.24-5.21,3.31-5.14,.15-10.29-.26-15.34-1.21-1.63-.31-3.25,.37-4.87,.71s-3.61,.18-4.49-1.22c.34-.88,1.66-.27,2.29,.43"/>
      <path class="cls-1" d="M284.95,174.27c1.48-2.57,5.01-2.85,7.98-2.82,34.57,.34,69.13,.67,103.7,1.01-3.89,1.26-8.05,1.34-12.14,1.39-30.04,.41-60.08,.35-90.11-.18-3.14,.2-6.28,.4-9.42,.6Z"/>
      <path class="cls-1" d="M446.96,77.01c8.77-.68,17.66,.42,26,3.21,.52,.17,1.11,.44,1.23,.97,.21,.99-1.25,1.35-2.26,1.25-25.42-2.6-51.1-2.63-76.53-.08,.44-1.01,.87-2.02,1.31-3.04"/>
      <path class="cls-1" d="M291.15,15.93c3.02-3.19,7.63-4.25,11.99-4.8,8.41-1.06,17-.78,25.33,.82,2.61,.5,5.68,1.62,6.16,4.23-1.25-.12-2.46-.51-3.66-.87-12.44-3.65-26.09-3.04-38.16,1.68,.07,.53-.76,.77-1.16,.42-.4-.35-.46-.95-.48-1.48Z"/>
      <path class="cls-1" d="M293.49,24.55c2.57,.21,5.15-.01,7.71-.24,7.05-.61,14.1-1.22,21.15-1.83,2.62-.23,5.28,0,7.83,.68,.57,.15,1.19,.36,1.5,.86,.51,.8-.07,1.94-.93,2.35-.86,.41-1.86,.32-2.81,.22-13.62-1.33-27.48-.16-40.68,3.45,.13-3.09,3.15-5.75,6.23-5.5Z"/>
      <path class="cls-1" d="M312.4,5.3c-2.67-.13-5.33-.26-8-.25-2.44,0-4.89,.11-7.32,.33-5.64,.5-11.25,1.6-16.56,3.57-.68,.25-1.27-.73-.98-1.39,.29-.66,1.03-.98,1.71-1.22,10.98-3.96,23.12-4.66,34.48-1.99,.27,.39,.54,.78,.81,1.16-1.38-.07-2.76-.13-4.14-.2Z"/>
      <path class="cls-1" d="M226.51,172.44c-3.19,1.31-6.74,1.35-10.19,1.37-63.4,.35-126.8,.69-190.2,1.04-8.74,.05-17.53,.09-26.13-1.48,91.25-1.37,182.52-2.11,273.78-2.24-.17,1.24,22.12,.99,11.36,3.38-5.12-.57-22.12-.79-27.24-1.36"/>
      <path class="cls-1" d="M232.57,93.26c-.13,4.88-.43,18.74-.56,23.62-.04,1.51-.09,3.04-.61,4.46-1.57,4.25-6.8,5.9-11.32,5.71-4.52-.19-8.99-1.64-13.49-1.16-13.73,1.46-27.61,1.55-41.37,.27-1.87-.17-4.4-1.83-3.15-3.24,20.43-2.72,41.11-3.6,61.7-2.62,1.66,.08,2.22-2.17,2.21-3.84-.02-3.74-.05-7.48-.07-11.22-.02-2.7,.66-5.87-1.71-7.19-1.86-1.04-5.16-.43-7.25-.84s-3.9-3.34-2.12-4.49"/>
      <path class="cls-1" d="M363.96,60.62c.83-2.93,3.58-5.21,6.61-5.48,3.57,14.8,4.95,30.12,4.11,45.32-.28,4.98-2.88,11.61-7.75,10.54-5.17-1.14-8.55,5.25-9.62,10.43s-3.09,11.72-8.36,12.09c-9.66,.68-19.31,1.36-28.97,2.03-2.08,.15-4.59,.6-5.32,2.55-3.3,8.84-13.36,14.58-22.65,12.93-9.29-1.65-16.76-10.5-16.82-19.94,.33,6.77-8.32,9.73-15.06,10.46-36.83,3.96-73.96,4.54-111,3.88-4.86-.09-10.44,.13-13.48,3.91-5.8,7.22-15.07,11.52-24.33,11.28-9.26-.24-18.3-5.01-23.72-12.51-15.47,2.36-31.32,2.22-46.74-.42-4.45-.76-9.28-1.99-11.94-5.64-2.83-3.89-2.25-9.21-1.54-13.97,1.24-8.4,2.48-16.8,3.73-25.2,.92-6.23,2.97-13.76,9.1-15.21,33.15-7.86,64.95-21.4,93.6-39.86,3.77-2.43,7.63-5,12.04-5.77,4.14-.73,6.59-4.87,8.95-8.34,8.08-11.87,21.43-20,35.69-21.74,2.61-3.98,5.21-7.96,7.82-11.94,6.6,7.94,9.79,18.63,8.6,28.89,11.94-12.25,26.39-23.57,43.4-25.35,6.56-.69,13.84,.39,18.35,5.2,6.6,7.04,4.22,18.95-1.85,26.46-6.07,7.51-14.87,12.2-22.31,18.35-7.44,6.15-13.96,15.15-12.49,24.69,8.36-2.32,16.17-6.62,22.59-12.46,2.69-2.45,5.23-5.31,6.18-8.83,.95-3.52-.11-7.79-3.26-9.62,8.74-4.57,19.24-3.36,29.01-2.02,23.78,3.25,47.56,6.5,71.34,9.75,3.2,.44,7.46,2.63,6.11,5.56m-29.64,55.55c-.24-6.62-.48-13.24-.72-19.86-.04-1.15-.28-2.57-1.38-2.9-2.48-.75-3.75-4.08-2.4-6.29-6.18-.8-12.55-.02-18.35,2.27-1.45,.57-2.96,1.25-4.5,1.04-1.55-.21-3.02-1.76-2.5-3.23-17.52-1.64-35.03-3.28-52.55-4.92-3.08-.29-7.38,.43-7.41,3.53-3.51-1.51-7.01-3.03-10.52-4.54-1.72,.8-3.44,1.61-5.15,2.41,.1-.84,.19-1.68,.29-2.52-23.7,9.46-49.5,13.62-74.97,12.08,2.5,11.5,3.06,23.41,1.66,35.09-2.09,1.44-3.95-2.14-4.01-4.68-.21-8.91-.43-17.81-.64-26.72-.04-1.47-1.76-2.2-3.19-2.52-18.71-4.24-38.26-.52-56.81,4.36-18.55,4.88-37.06,10.98-56.23,11.54-.48,8.19-.96,16.38-1.44,24.56-.12,2-.13,4.29,1.35,5.65,.86,.79,2.05,1.08,3.19,1.34,12.84,2.83,26.08,3.84,39.21,2.99,1.58-.1,3.25-.26,4.55-1.16,1.78-1.22,2.44-3.48,3.2-5.5,5.32-14.33,21.5-23.73,36.58-21.26,9.83,1.61,19.67,9.69,18.75,19.62-.23,2.47,3.12,3.43,5.6,3.48,38.09,.78,76.23-.58,114.18-4.05,4.25-.39,9.35-1.43,10.77-5.46,3.66-10.34,11.95-19.6,22.7-21.78,10.75-2.18,23.29,4.73,24.98,15.56,.82,5.26,8.25,8.05,12.33,4.61,3.49-2.94,3.61-8.18,3.44-12.74m-173.32-27.66c1.68,1.34,4.05,1.27,6.19,1.11,16.21-1.22,32.31-3.81,48.08-7.74,5.31-1.32,11.43-3.62,12.78-8.92,4.12-16.13,18.98-26.72,32.02-37.07,4.85-3.85,9.98-8.64,10.11-14.83,.1-5.05-3.44-9.7-7.97-11.92-4.53-2.23-9.85-2.34-14.81-1.43-15.9,2.9-28.22,15.12-39.32,26.86-.78,.83-2.28,.43-2.97-.48s-.79-2.12-.88-3.26c-.69-8.23-2.3-16.38-4.79-24.25-2.98,1.84-4.78,5.42-4.5,8.91-14.2-.08-28.13,8.33-34.67,20.94-2.96,5.7,2.51,12.38,8.4,14.93,5.89,2.56,12.79,3.27,17.58,7.53-5.21,1.68-11.16,.87-15.73-2.13-2.07-1.36-4.97-.85-6.93,.66-1.96,1.51-3.15,3.81-4.02,6.13-2.46,6.61-2.78,14-.88,20.79,.43,1.55,1.04,3.16,2.3,4.17m93.4-16.72c-1.69,1.35-3.61,2.88-3.76,5.04,18.04,2.07,36.08,4.15,54.12,6.22,1.74,.2,3.62,.37,5.14-.49,1.05-.6,1.78-1.62,2.48-2.6,5.37-7.59,10.74-15.19,16.12-22.78,.75-.45-.36-1.45-1.23-1.56-17.36-2.23-34.72-4.45-52.08-6.68-1.37-.18-3.13-.16-3.71,1.1-3.91,8.44-9.81,15.95-17.08,21.75m-136.22-4.47c-4.45,.13-8.73,1.66-12.92,3.18-20.13,7.29-40.26,14.58-60.39,21.87-2.27,.82-4.61,1.68-6.41,3.3-2.61,2.34-3.73,6.21-2.77,9.59,23.24-5.64,46.48-11.28,69.73-16.92,2.07-.5,4.17-1.02,5.99-2.12,5.98-3.64,6.71-11.88,6.77-18.89m219.68,62.17c1.65-.21,2.4-2.28,2.12-3.92-.28-1.64-1.2-3.12-1.44-4.76-.64-4.35,4.97-8.16,8.78-5.96,3.03,1.75,7.12,.53,9.52-2.03,2.39-2.55,3.4-6.11,3.89-9.58,.56-3.97,1.51-9.12,5.48-9.68,1.79-.26,2.38-2.51,2.52-4.31,.72-9.35,.36-18.79-1.09-28.06-9.21,11.08-19.87,20.96-31.61,29.32,.62,13,1.23,25.99,1.85,38.99m-22.03-45.43c-.1,.49,.35,1.02,.85,.99,5.32-2.8,11.89-3.11,17.44-.81,1.5,.62,3.16-.36,4.47-1.32,8.1-5.97,15.33-13.12,21.37-21.17-2.29-.66-4.57-1.31-6.86-1.97-5.23-1.5-10.51-3.01-15.94-3.36-1.22-.08-2.58-.05-3.49,.76-.52,.47-.82,1.13-1.11,1.77-4.17,9.2-9.84,17.72-16.74,25.11M147.43,49.08c-3.15,1.07-6.31,2.15-9.46,3.22-1.53,.52-3.09,1.06-4.41,1.99-1.62,1.15-2.79,2.82-3.84,4.51-4.53,7.32-7.41,15.65-8.36,24.2,6.9-3.76,13.8-7.53,20.7-11.29,2.38-1.3,4.9-2.74,6.09-5.17,.74-1.52,.87-3.26,.89-4.95,.05-4.21-.49-8.43-1.59-12.5m7.19,38.27c-.52-3.56-1.05-7.12-1.57-10.68-.12-.84-.38-1.84-1.2-2.07-9.19,3.83-18.1,8.34-26.62,13.49,9.32,1.16,18.75,1.45,28.13,.87,.4-.02,.84-.07,1.1-.37,.28-.32,.23-.81,.17-1.23m-35.15,45.9c-1.54-1.63-3.31-3.36-5.54-3.48-1.62-.08-3.18,.74-4.39,1.82-2.67,2.38-4,6.18-3.4,9.7,.36,2.31,2.82,3.82,5.16,3.93,2.34,.1,4.58-.86,6.72-1.8,1.81-.79,3.62-1.59,5.42-2.38,.33-3-1.89-5.6-3.96-7.79m183.87-3.91c-.92-2.47-3.21-4.37-5.8-4.84-2.59-.47-5.39,.52-7.12,2.51-1.68,1.93-2.21,5.04-.65,7.06,.64,.82,1.54,1.39,2.47,1.87,3.24,1.67,7.98,1.96,9.82-1.19-.34-.97,.82-1.74,1.31-2.64,.45-.84,.3-1.88-.03-2.78M162.16,52.12c-2.51-1.97-5.03-3.95-7.54-5.92-.52,.77-1.34,1.33-2.25,1.53,.81,6.51,.84,13.12,.11,19.65,.26,.51,1.07,.45,1.46,.04,.4-.41,.5-1.01,.61-1.57,.76-3.87,2.7-7.51,5.5-10.29,.98-.98,2.16-2.05,2.11-3.44Z"/>
    </g>
    <g id="site_speed-4" data-name="site speed">
      <path class="cls-1" d="M432.33,87.52c6.02-.1,12.04-.19,18.06-.29,7.47-.12,14.94-.24,22.4,.14,3.31,.17,7.6,1.4,7.64,4.71-24.2-1.77-48.56-1.18-72.64,1.75-4.76,.58-9.8,1.21-14.19-.73-.08-1.65,1.93-2.48,3.54-2.83,.63-.14,1.35-.26,1.89,.11"/>
      <path class="cls-1" d="M417.85,102.09c6.26-1,12.64-.76,18.98-.52m0,0c2.57,.1,5.14,.2,7.67,.63,3.46,.59,6.79,1.8,10.09,3.01,.69,.39,1.03,1.31,.75,2.05-19.24,1.3-38.83-3.11-57.7,.86-2.27,.48-4.67,1.07-6.87,.33-2.2-.74-3.88-3.49-2.63-5.44,6.83-.95,13.7-1.61,20.58-1.98,1.98-.11,4.13-.14,5.76,.99"/>
      <path class="cls-1" d="M382.29,123.97c-2.23-1.45-1.94-5.14,.06-6.9,2-1.76,4.96-1.95,7.57-1.45,1.68,.32,3.37-.3,5.02-.78,6.7-1.93,13.82-1.44,20.78-.94,8.06,.59,16.13,1.17,24.19,1.76,1.58,.12,3.24,.26,4.56,1.14s2.11,2.76,1.27,4.1c-.92,1.47-3.03,1.44-4.75,1.24-4.5-.52-9.01-1.05-13.51-1.57"/>
      <path class="cls-1" d="M380.72,134.17c-.6-.51-1.48-.69-2.23-.45,.07-1.09-.72-2.17-1.78-2.43,0-.71,0-1.43-.01-2.14,.92-.64,2.12-.67,3.24-.67,5.31-.02,10.62-.03,15.93-.05,.96,0,1.91,0,2.87,0,6.48-.02,12.97-.04,19.45-.06,2.27,0,5.27,.64,5.4,2.9,.12,2.3-2.91,3.24-5.21,3.31-5.14,.15-10.29-.26-15.34-1.21-1.63-.31-3.25,.37-4.87,.71s-3.61,.18-4.49-1.22c.34-.88,1.66-.27,2.29,.43"/>
      <path class="cls-1" d="M284.95,174.27c1.48-2.57,5.01-2.85,7.98-2.82,34.57,.34,69.13,.67,103.7,1.01-3.89,1.26-8.05,1.34-12.14,1.39-30.04,.41-60.08,.35-90.11-.18-3.14,.2-6.28,.4-9.42,.6Z"/>
      <path class="cls-1" d="M446.96,77.01c8.77-.68,17.66,.42,26,3.21,.52,.17,1.11,.44,1.23,.97,.21,.99-1.25,1.35-2.26,1.25-25.42-2.6-51.1-2.63-76.53-.08,.44-1.01,.87-2.02,1.31-3.04"/>
      <path class="cls-1" d="M291.15,15.93c3.02-3.19,7.63-4.25,11.99-4.8,8.41-1.06,17-.78,25.33,.82,2.61,.5,5.68,1.62,6.16,4.23-1.25-.12-2.46-.51-3.66-.87-12.44-3.65-26.09-3.04-38.16,1.68,.07,.53-.76,.77-1.16,.42-.4-.35-.46-.95-.48-1.48Z"/>
      <path class="cls-1" d="M293.49,24.55c2.57,.21,5.15-.01,7.71-.24,7.05-.61,14.1-1.22,21.15-1.83,2.62-.23,5.28,0,7.83,.68,.57,.15,1.19,.36,1.5,.86,.51,.8-.07,1.94-.93,2.35-.86,.41-1.86,.32-2.81,.22-13.62-1.33-27.48-.16-40.68,3.45,.13-3.09,3.15-5.75,6.23-5.5Z"/>
      <path class="cls-1" d="M312.4,5.3c-2.67-.13-5.33-.26-8-.25-2.44,0-4.89,.11-7.32,.33-5.64,.5-11.25,1.6-16.56,3.57-.68,.25-1.27-.73-.98-1.39,.29-.66,1.03-.98,1.71-1.22,10.98-3.96,23.12-4.66,34.48-1.99,.27,.39,.54,.78,.81,1.16-1.38-.07-2.76-.13-4.14-.2Z"/>
      <path class="cls-1" d="M226.51,172.44c-3.19,1.31-6.74,1.35-10.19,1.37-63.4,.35-126.8,.69-190.2,1.04-8.74,.05-17.53,.09-26.13-1.48,91.25-1.37,182.52-2.11,273.78-2.24-.17,1.24,22.12,.99,11.36,3.38-5.12-.57-22.12-.79-27.24-1.36"/>
      <path class="cls-1" d="M232.57,93.26c-.13,4.88-.43,18.74-.56,23.62-.04,1.51-.09,3.04-.61,4.46-1.57,4.25-6.8,5.9-11.32,5.71-4.52-.19-8.99-1.64-13.49-1.16-13.73,1.46-27.61,1.55-41.37,.27-1.87-.17-4.4-1.83-3.15-3.24,20.43-2.72,41.11-3.6,61.7-2.62,1.66,.08,2.22-2.17,2.21-3.84-.02-3.74-.05-7.48-.07-11.22-.02-2.7,.66-5.87-1.71-7.19-1.86-1.04-5.16-.43-7.25-.84s-3.9-3.34-2.12-4.49"/>
      <path class="cls-1" d="M363.96,60.62c.83-2.93,3.58-5.21,6.61-5.48,3.57,14.8,4.95,30.12,4.11,45.32-.28,4.98-2.88,11.61-7.75,10.54-5.17-1.14-8.55,5.25-9.62,10.43s-3.09,11.72-8.36,12.09c-9.66,.68-19.31,1.36-28.97,2.03-2.08,.15-4.59,.6-5.32,2.55-3.3,8.84-13.36,14.58-22.65,12.93-9.29-1.65-16.76-10.5-16.82-19.94,.33,6.77-8.32,9.73-15.06,10.46-36.83,3.96-73.96,4.54-111,3.88-4.86-.09-10.44,.13-13.48,3.91-5.8,7.22-15.07,11.52-24.33,11.28-9.26-.24-18.3-5.01-23.72-12.51-15.47,2.36-31.32,2.22-46.74-.42-4.45-.76-9.28-1.99-11.94-5.64-2.83-3.89-2.25-9.21-1.54-13.97,1.24-8.4,2.48-16.8,3.73-25.2,.92-6.23,2.97-13.76,9.1-15.21,33.15-7.86,64.95-21.4,93.6-39.86,3.77-2.43,7.63-5,12.04-5.77,4.14-.73,6.59-4.87,8.95-8.34,8.08-11.87,21.43-20,35.69-21.74,2.61-3.98,5.21-7.96,7.82-11.94,6.6,7.94,9.79,18.63,8.6,28.89,11.94-12.25,26.39-23.57,43.4-25.35,6.56-.69,13.84,.39,18.35,5.2,6.6,7.04,4.22,18.95-1.85,26.46-6.07,7.51-14.87,12.2-22.31,18.35-7.44,6.15-13.96,15.15-12.49,24.69,8.36-2.32,16.17-6.62,22.59-12.46,2.69-2.45,5.23-5.31,6.18-8.83,.95-3.52-.11-7.79-3.26-9.62,8.74-4.57,19.24-3.36,29.01-2.02,23.78,3.25,47.56,6.5,71.34,9.75,3.2,.44,7.46,2.63,6.11,5.56m-29.64,55.55c-.24-6.62-.48-13.24-.72-19.86-.04-1.15-.28-2.57-1.38-2.9-2.48-.75-3.75-4.08-2.4-6.29-6.18-.8-12.55-.02-18.35,2.27-1.45,.57-2.96,1.25-4.5,1.04-1.55-.21-3.02-1.76-2.5-3.23-17.52-1.64-35.03-3.28-52.55-4.92-3.08-.29-7.38,.43-7.41,3.53-3.51-1.51-7.01-3.03-10.52-4.54-1.72,.8-3.44,1.61-5.15,2.41,.1-.84,.19-1.68,.29-2.52-23.7,9.46-49.5,13.62-74.97,12.08,2.5,11.5,3.06,23.41,1.66,35.09-2.09,1.44-3.95-2.14-4.01-4.68-.21-8.91-.43-17.81-.64-26.72-.04-1.47-1.76-2.2-3.19-2.52-18.71-4.24-38.26-.52-56.81,4.36-18.55,4.88-37.06,10.98-56.23,11.54-.48,8.19-.96,16.38-1.44,24.56-.12,2-.13,4.29,1.35,5.65,.86,.79,2.05,1.08,3.19,1.34,12.84,2.83,26.08,3.84,39.21,2.99,1.58-.1,3.25-.26,4.55-1.16,1.78-1.22,2.44-3.48,3.2-5.5,5.32-14.33,21.5-23.73,36.58-21.26,9.83,1.61,19.67,9.69,18.75,19.62-.23,2.47,3.12,3.43,5.6,3.48,38.09,.78,76.23-.58,114.18-4.05,4.25-.39,9.35-1.43,10.77-5.46,3.66-10.34,11.95-19.6,22.7-21.78,10.75-2.18,23.29,4.73,24.98,15.56,.82,5.26,8.25,8.05,12.33,4.61,3.49-2.94,3.61-8.18,3.44-12.74m-173.32-27.66c1.68,1.34,4.05,1.27,6.19,1.11,16.21-1.22,32.31-3.81,48.08-7.74,5.31-1.32,11.43-3.62,12.78-8.92,4.12-16.13,18.98-26.72,32.02-37.07,4.85-3.85,9.98-8.64,10.11-14.83,.1-5.05-3.44-9.7-7.97-11.92-4.53-2.23-9.85-2.34-14.81-1.43-15.9,2.9-28.22,15.12-39.32,26.86-.78,.83-2.28,.43-2.97-.48s-.79-2.12-.88-3.26c-.69-8.23-2.3-16.38-4.79-24.25-2.98,1.84-4.78,5.42-4.5,8.91-14.2-.08-28.13,8.33-34.67,20.94-2.96,5.7,2.51,12.38,8.4,14.93,5.89,2.56,12.79,3.27,17.58,7.53-5.21,1.68-11.16,.87-15.73-2.13-2.07-1.36-4.97-.85-6.93,.66-1.96,1.51-3.15,3.81-4.02,6.13-2.46,6.61-2.78,14-.88,20.79,.43,1.55,1.04,3.16,2.3,4.17m93.4-16.72c-1.69,1.35-3.61,2.88-3.76,5.04,18.04,2.07,36.08,4.15,54.12,6.22,1.74,.2,3.62,.37,5.14-.49,1.05-.6,1.78-1.62,2.48-2.6,5.37-7.59,10.74-15.19,16.12-22.78,.75-.45-.36-1.45-1.23-1.56-17.36-2.23-34.72-4.45-52.08-6.68-1.37-.18-3.13-.16-3.71,1.1-3.91,8.44-9.81,15.95-17.08,21.75m-136.22-4.47c-4.45,.13-8.73,1.66-12.92,3.18-20.13,7.29-40.26,14.58-60.39,21.87-2.27,.82-4.61,1.68-6.41,3.3-2.61,2.34-3.73,6.21-2.77,9.59,23.24-5.64,46.48-11.28,69.73-16.92,2.07-.5,4.17-1.02,5.99-2.12,5.98-3.64,6.71-11.88,6.77-18.89m219.68,62.17c1.65-.21,2.4-2.28,2.12-3.92-.28-1.64-1.2-3.12-1.44-4.76-.64-4.35,4.97-8.16,8.78-5.96,3.03,1.75,7.12,.53,9.52-2.03,2.39-2.55,3.4-6.11,3.89-9.58,.56-3.97,1.51-9.12,5.48-9.68,1.79-.26,2.38-2.51,2.52-4.31,.72-9.35,.36-18.79-1.09-28.06-9.21,11.08-19.87,20.96-31.61,29.32,.62,13,1.23,25.99,1.85,38.99m-22.03-45.43c-.1,.49,.35,1.02,.85,.99,5.32-2.8,11.89-3.11,17.44-.81,1.5,.62,3.16-.36,4.47-1.32,8.1-5.97,15.33-13.12,21.37-21.17-2.29-.66-4.57-1.31-6.86-1.97-5.23-1.5-10.51-3.01-15.94-3.36-1.22-.08-2.58-.05-3.49,.76-.52,.47-.82,1.13-1.11,1.77-4.17,9.2-9.84,17.72-16.74,25.11M147.43,49.08c-3.15,1.07-6.31,2.15-9.46,3.22-1.53,.52-3.09,1.06-4.41,1.99-1.62,1.15-2.79,2.82-3.84,4.51-4.53,7.32-7.41,15.65-8.36,24.2,6.9-3.76,13.8-7.53,20.7-11.29,2.38-1.3,4.9-2.74,6.09-5.17,.74-1.52,.87-3.26,.89-4.95,.05-4.21-.49-8.43-1.59-12.5m7.19,38.27c-.52-3.56-1.05-7.12-1.57-10.68-.12-.84-.38-1.84-1.2-2.07-9.19,3.83-18.1,8.34-26.62,13.49,9.32,1.16,18.75,1.45,28.13,.87,.4-.02,.84-.07,1.1-.37,.28-.32,.23-.81,.17-1.23m-35.15,45.9c-1.54-1.63-3.31-3.36-5.54-3.48-1.62-.08-3.18,.74-4.39,1.82-2.67,2.38-4,6.18-3.4,9.7,.36,2.31,2.82,3.82,5.16,3.93,2.34,.1,4.58-.86,6.72-1.8,1.81-.79,3.62-1.59,5.42-2.38,.33-3-1.89-5.6-3.96-7.79m183.87-3.91c-.92-2.47-3.21-4.37-5.8-4.84-2.59-.47-5.39,.52-7.12,2.51-1.68,1.93-2.21,5.04-.65,7.06,.64,.82,1.54,1.39,2.47,1.87,3.24,1.67,7.98,1.96,9.82-1.19-.34-.97,.82-1.74,1.31-2.64,.45-.84,.3-1.88-.03-2.78M162.16,52.12c-2.51-1.97-5.03-3.95-7.54-5.92-.52,.77-1.34,1.33-2.25,1.53,.81,6.51,.84,13.12,.11,19.65,.26,.51,1.07,.45,1.46,.04,.4-.41,.5-1.01,.61-1.57,.76-3.87,2.7-7.51,5.5-10.29,.98-.98,2.16-2.05,2.11-3.44Z"/>
    </g>
  </g>
</svg>