<?xml version="1.0" encoding="UTF-8"?>
<svg id="Layer_2" data-name="Layer 2" xmlns="http://www.w3.org/2000/svg" viewBox="0 0 260.07 314.92">
  <defs>
    <style>
      .cls-1 {
        fill: #cc7d3d;
      }

      .cls-2 {
        fill: #555e73;
      }
    </style>
  </defs>
  <g id="shadow">
    <g id="smart_2" data-name="smart 2">
      <path class="cls-2" d="M101.98,223.26c-1,.69-2.35,.61-3.52,.29-1.09-.29-2.27-.92-2.47-2.03-.11-.62,.12-1.25,.46-1.78,1.07-1.66,3.46-2.45,5.16-1.45,1.7,1.01,2,3.85,.37,4.96Z"/>
      <path class="cls-2" d="M107.22,235.82c-.17,.39-.43,.75-.74,1.04-.82,.78-2.06,1.08-3.15,.77-1.7-.48-2.77-2.52-2.2-4.19,.56-1.67,2.65-2.65,4.29-2,1.64,.64,2.52,2.77,1.8,4.38Z"/>
      <path class="cls-2" d="M111.03,260.73c.58-.49,1.39-.55,2.14-.57,.72-.02,1.49,0,2.12,.34,1.36,.74,1.47,2.93,.32,3.97s-3.09,.9-4.25-.14c-1.02-.91-1.38-2.72-.34-3.6Z"/>
      <path class="cls-2" d="M115.25,274.89c1.25-.65,2.87-.65,3.99,.2,1.12,.85,1.51,2.61,.68,3.74-1.05,1.42-3.37,1.21-4.71,.07-.94-.8-1.57-2.25-.86-3.27,.23-.32,.56-.56,.91-.74Z"/>
      <path class="cls-2" d="M107.37,251.38c-.39-.4-.67-.9-.8-1.45-.13-.52-.13-1.07,.01-1.58,.47-1.79,2.74-2.86,4.42-2.07,1.68,.79,2.32,3.21,1.24,4.72-1.08,1.51-3.58,1.7-4.87,.37Z"/>
      <path class="cls-2" d="M49.27,303.06c-23.1-20.16-39.92-47.84-45.38-78.01-5.46-30.17,.9-62.65,18.82-87.52-7.15-6.56-14.61-13.6-17.35-22.91-1.61-5.45-1.45-11.27-.66-16.9,2.65-18.93,12.51-36.76,27.14-49.07,10.69-8.99,24.37-15.85,29.81-28.71,1.54-3.63,7.5-1.87,9.26,1.66,1.76,3.53,1.41,7.83,3.16,11.36,4.33,8.73,18.52,8.31,23.06,16.93,3.92-4.3,7.85-8.6,11.77-12.9,3.47-3.81,10.2-.07,11.89,4.8,1.7,4.87,.74,10.32,2.21,15.26,.38,1.28,1.33,2.75,2.64,2.48,.54-.11,.97-.51,1.37-.89,15.84-15.28,29.81-32.88,48.34-44.77,18.53-11.88,43.69-16.95,62.29-5.19,7.65,4.84,13.56,12.13,17.62,20.22,3.95,7.86,6.27,17.06,3.73,25.48-3.23,10.71-13.25,17.61-21.96,24.63-32.99,26.6-54.68,66.78-58.83,108.95-1.7,17.3-.6,34.97-4.71,51.86-9.23,37.94-44.71,65.98-83.01,73.58-8.67,1.72-17.89,2.5-26.18-.56-5.64-2.09-10.51-5.83-15.04-9.78m94.9-140.68c-10.37,7.17-18.78,17.15-24.06,28.6-2.61,5.66-4.49,11.96-3.37,18.1,1.13,6.13,5.99,11.91,12.21,12.37,7.03,.53,12.76-5.38,16.84-11.12,4.07-5.72,7.64-11.8,10.66-18.14,.94-1.97,3.43-4.24,4.79-2.53-4.1,10.06-9.83,19.46-16.9,27.71-3.57,4.17-2.23,10.43-2.71,15.9-.36,4.15-1.88,8.1-2.59,12.21-1.82,10.63,2.3,22.08,10.48,29.1,14.34-12.96,21.57-32.57,22.22-51.89,.65-19.32-4.73-38.42-12.41-56.17-7.68-17.74-17.63-34.39-26.74-51.44-6.1-11.43-1.75-25.61-4.44-38.29-2.46-11.58-10.8-21.88-10.37-33.71,.11-2.89-3.78-4.52-6.45-3.41s-4.29,3.79-5.75,6.29c-1.46,2.5-3.17,5.15-5.9,6.11-7.9,2.78-13.21-10.25-21.57-10.69-4.24-.22-6.63-4.93-7.7-9.03s-2.11-8.89-5.88-10.84c-4,12.42-17.07,18.97-27.3,27.07-16.56,13.1-27.4,33.25-29.23,54.28-.3,3.46-.36,6.99,.4,10.38,1.13,4.99,4,9.43,7.41,13.23,22.27,24.83,59.82,21.33,86.52,6.46,3.11-1.73,6.67-3.68,10.05-2.53,2.84,3.59,7.5,5.66,12.07,5.36,2.91-.19,4.97,3.25,4.52,6.13s-2.53,5.2-4.52,7.33c.66,1.77,3.12,1.98,4.95,1.48,1.83-.5,3.75-1.4,5.52-.75,2.83,1.04,2.98,4.86,3.4,7.84s3.47,6.46,5.83,4.59M197.62,8.03c-6.47,2.39-12.91,4.9-18.98,8.17-19.39,10.44-33.86,27.89-47.82,44.91-.69,.84-1.4,1.72-1.72,2.76-.55,1.79,.13,3.7,.72,5.48,2.9,8.6,4.03,17.78,3.32,26.82-.23,2.98-.66,5.99-.16,8.94,.48,2.83,1.8,5.43,3.12,7.98,14.06,27.09,30.73,53.37,38.15,82.98-.2-10.09,.98-20.2,3.5-29.97,4.56-17.7,13.39-33.97,22.21-49.98,2.13-3.87,4.27-7.74,6.73-11.4,8.16-12.13,19.63-21.61,31.19-30.55,8.58-6.64,18.05-14.32,19.22-25.11,.39-3.58-.21-7.21-1.2-10.68-3.89-13.6-14.1-25.25-27.07-30.9-5.35-2.33-11.22-3.68-17.04-3.21-4.89,.4-9.58,2.05-14.19,3.76M21.91,261.33c10.89,18.13,23.23,37.22,42.75,45.35,4.59-21.41,.55-44.54-11-63.13-1.25-2.02-3.17-4.24-5.5-3.79-4.74,.93-9.77,.26-14.11-1.86-1-.49-2.1-1.3-1.98-2.41,.17-1.7,2.65-1.72,4.3-1.24,7.48,2.16,15.41,3.96,22.98,2.17,7.58-1.79,14.59-8.2,14.58-15.98-.01-7.11-5.84-13.16-12.49-15.72-6.64-2.55-13.98-2.35-21.09-2.11-2.09,.07-4.18,.14-6.27,.21-1.22,.04-2.75-.11-3.18-1.25-.63-1.66,1.78-2.79,3.56-2.74s4.16-.06,4.55-1.79c.19-.85-.26-1.7-.7-2.46-5.54-9.61-11.09-19.23-16.63-28.84,3.26-1.26,6.75-1.9,10.25-1.9-2.03-2.67-4.06-5.35-6.09-8.02-.67-.88-1.36-2.06-.77-3,.29-.47,.83-.72,1.34-.94,4.3-1.87,8.61-3.74,12.91-5.6-5.31-.49-10.37-3.28-13.62-7.51-12.24,17.79-19.24,39.14-19.91,60.72-.67,21.58,5,43.33,16.12,61.84m53.8-50.12c1.1,4.19,2.07,8.53,1.52,12.83s-2.89,8.61-6.84,10.4c-2.92,1.32-2.88,5.41-2.42,8.58,3.02,21.21,3.51,42.79,1.45,64.12-.24,2.44,3.08,3.39,5.53,3.36,8.36-.11,16.71-1.25,24.79-3.4,1.97-.52,3.21-2.42,4.25-4.18,3.29-5.51,6.69-11.98,4.56-18.03-7.62-21.61-15.24-43.22-22.86-64.83-.62-1.75-1.06-4.08,.46-5.13l-10.44-3.73m42.98,8.58c-4.3-3.59-5.99-9.59-5.66-15.18,.33-5.59,2.39-10.92,4.49-16.12,1.77-4.4,3.2-10.33-.62-13.15-6.31,16.42-13.48,33.93-28.24,43.51,7.98,18.05,15.99,36.22,20.55,55.42,1,4.19,1.89,8.56,4.43,12.04,2.5,3.41,6.53,5.65,10.75,5.97,8.32,.63,15.49-5.74,20.48-12.42,.8-1.08,1.58-2.62,.72-3.65-10.62-12.72-16.57-29.26-16.49-45.83,.02-5.17-6.44-7.27-10.4-10.58m-55.09-55.42c-5.34-2.88-10.42-6.26-15.14-10.08-.95,.94-.64,2.51-.27,3.79,3.71,12.68,7.41,25.36,11.12,38.03,.21,.72,.43,1.46,.86,2.07,.6,.85,1.56,1.37,2.48,1.86,3.49,1.86,6.98,3.72,10.47,5.57,2.79,1.49,5.71,3.01,8.87,3.09-1.44-13.03-2.88-26.06-4.33-39.1-.23-2.05-.5-4.21-1.76-5.83-1.27-1.62-3.9-2.36-5.4-.96-.65,.61-1,1.51-1.69,2.07-1.45,1.16-3.58,.36-5.21-.52m49.87,7.66c1.32-5.28-.26-10.8-1.83-16.01-1.49-4.96-3.09-10.11-6.62-13.9-2.94,4.16-5.87,8.31-8.81,12.47-1.02,1.45-2.08,2.93-3.56,3.91-1.15,.76-2.68,1.41-2.84,2.78-.07,.58,.15,1.15,.36,1.69,4.19,10.67,8.39,21.34,12.58,32.01,2.78-5.68,5.56-11.36,8.33-17.04,.93-1.91,1.87-3.84,2.39-5.9m-84.41-5.11c-1.11-.02-.95,1.73-.39,2.68,5.23,8.81,10.46,17.63,15.7,26.44,.29,.48,.58,.98,1.03,1.33,.66,.51,1.54,.63,2.37,.72l5.93,.66c.32,.04,.67,.06,.94-.12,.45-.3,.39-.98,.28-1.51-2.31-10.73-5.41-21.29-9.29-31.57-5.46,1.03-11.02,1.49-16.57,1.37m105.01-12.45c-.08-.49-.19-1.03-.58-1.35-.4-.33-.97-.32-1.49-.3-5.05,.23-10.11,.47-15.16,.7-.57,.03-1.18,.07-1.6,.45-.64,.58-.51,1.6-.31,2.44,1.8,7.74,4.5,15.27,8.03,22.38,2.79-3.73,5.83-7.27,9.1-10.59,3.38-3.43,2.81-8.99,2.01-13.74m-42.44-1.53c3.89-4.76,7.78-9.52,11.67-14.28,.53-.64,1.08-1.31,1.86-1.62s1.81-.1,2.16,.65c1.1,2.4,2.19,4.79,3.29,7.19,1.26,2.74,3.04,5.88,6.05,6.12,3.23,.26,5.52-2.97,7.1-5.79,.55-.99,1.11-1.97,1.66-2.96,.41-.73,.08-1.69-.54-2.25-.61-.56-1.44-.83-2.23-1.07-4.59-1.41-9.17-2.82-13.76-4.23-.49-.15-1.03-.29-1.48-.05-6.7,3.57-13.39,7.14-20.09,10.71-.7,.37-1.43,.77-1.86,1.43,2.06,2.05,4.12,4.1,6.18,6.15m-43.24-4.2c5.18,4.63,11.05,8.51,17.35,11.45,.36,.17,.75,.33,1.13,.23,.35-.1,.6-.4,.83-.69,3.19-4.12,6.38-8.25,9.57-12.37-7.04-.34-14.12,.06-21.08,1.19-1.69,.27-3.45,.59-5.09,.09-.94-.29-2.2-.73-2.7,.12m-6.19,3.31c-.27-.88-.67-1.89-1.56-2.1-.54-.13-1.1,.09-1.62,.31-3.12,1.33-6.24,2.65-9.36,3.98,1.56,1.73,3.12,3.46,4.68,5.18,1.48,1.64,3.1,3.37,5.25,3.89,2.15,.52,4.89-.83,4.91-3.05,0-.57-.16-1.12-.32-1.66-.66-2.19-1.32-4.37-1.99-6.56m93.39,96.12c.78-5.82,1.56-11.64,2.33-17.46,.3-2.24,.6-4.52,.2-6.74-2.7-1.08-6.1,1.52-5.77,4.41,.77,6.64,1.85,13.24,3.24,19.78m-22.73,44.22c.65,3.06-2.11,5.63-3.67,8.35-.81,1.42-1.32,3.02-1.48,4.64,5.56-2.77,10.93-5.93,16.05-9.45-3.78-.64-7.47-1.83-10.91-3.54m-49.02-52c-.09-.53-.21-1.1-.6-1.48-.71-.69-1.88-.38-2.81-.03-.9,.34-1.81,.69-2.71,1.03,2.54,5.96,5.09,11.93,7.63,17.89,0-5.83-.5-11.66-1.51-17.41Z"/>
    </g>
  </g>
  <g id="fore">
    <g id="smart_2-2" data-name="smart 2">
      <path class="cls-1" d="M99.98,221.26c-1,.69-2.35,.61-3.52,.29-1.09-.29-2.27-.92-2.47-2.03-.11-.62,.12-1.25,.46-1.78,1.07-1.66,3.46-2.45,5.16-1.45,1.7,1.01,2,3.85,.37,4.96Z"/>
      <path class="cls-1" d="M105.22,233.82c-.17,.39-.43,.75-.74,1.04-.82,.78-2.06,1.08-3.15,.77-1.7-.48-2.77-2.52-2.2-4.19,.56-1.67,2.65-2.65,4.29-2,1.64,.64,2.52,2.77,1.8,4.38Z"/>
      <path class="cls-1" d="M109.03,258.73c.58-.49,1.39-.55,2.14-.57,.72-.02,1.49,0,2.12,.34,1.36,.74,1.47,2.93,.32,3.97s-3.09,.9-4.25-.14c-1.02-.91-1.38-2.72-.34-3.6Z"/>
      <path class="cls-1" d="M113.25,272.89c1.25-.65,2.87-.65,3.99,.2,1.12,.85,1.51,2.61,.68,3.74-1.05,1.42-3.37,1.21-4.71,.07-.94-.8-1.57-2.25-.86-3.27,.23-.32,.56-.56,.91-.74Z"/>
      <path class="cls-1" d="M105.37,249.38c-.39-.4-.67-.9-.8-1.45-.13-.52-.13-1.07,.01-1.58,.47-1.79,2.74-2.86,4.42-2.07,1.68,.79,2.32,3.21,1.24,4.72-1.08,1.51-3.58,1.7-4.87,.37Z"/>
      <path class="cls-1" d="M47.27,301.06C24.17,280.89,7.35,253.22,1.89,223.05c-5.46-30.17,.9-62.65,18.82-87.52-7.15-6.56-14.61-13.6-17.35-22.91-1.61-5.45-1.45-11.27-.66-16.9,2.65-18.93,12.51-36.76,27.14-49.07,10.69-8.99,24.37-15.85,29.81-28.71,1.54-3.63,7.5-1.87,9.26,1.66,1.76,3.53,1.41,7.83,3.16,11.36,4.33,8.73,18.52,8.31,23.06,16.93,3.92-4.3,7.85-8.6,11.77-12.9,3.47-3.81,10.2-.07,11.89,4.8,1.7,4.87,.74,10.32,2.21,15.26,.38,1.28,1.33,2.75,2.64,2.48,.54-.11,.97-.51,1.37-.89,15.84-15.28,29.81-32.88,48.34-44.77C191.88-.02,217.05-5.08,235.65,6.68c7.65,4.84,13.56,12.13,17.62,20.22,3.95,7.86,6.27,17.06,3.73,25.48-3.23,10.71-13.25,17.61-21.96,24.63-32.99,26.6-54.68,66.78-58.83,108.95-1.7,17.3-.6,34.97-4.71,51.86-9.23,37.94-44.71,65.98-83.01,73.58-8.67,1.72-17.89,2.5-26.18-.56-5.64-2.09-10.51-5.83-15.04-9.78m94.9-140.68c-10.37,7.17-18.78,17.15-24.06,28.6-2.61,5.66-4.49,11.96-3.37,18.1,1.13,6.13,5.99,11.91,12.21,12.37,7.03,.53,12.76-5.38,16.84-11.12,4.07-5.72,7.64-11.8,10.66-18.14,.94-1.97,3.43-4.24,4.79-2.53-4.1,10.06-9.83,19.46-16.9,27.71-3.57,4.17-2.23,10.43-2.71,15.9-.36,4.15-1.88,8.1-2.59,12.21-1.82,10.63,2.3,22.08,10.48,29.1,14.34-12.96,21.57-32.57,22.22-51.89,.65-19.32-4.73-38.42-12.41-56.17-7.68-17.74-17.63-34.39-26.74-51.44-6.1-11.43-1.75-25.61-4.44-38.29-2.46-11.58-10.8-21.88-10.37-33.71,.11-2.89-3.78-4.52-6.45-3.41s-4.29,3.79-5.75,6.29c-1.46,2.5-3.17,5.15-5.9,6.11-7.9,2.78-13.21-10.25-21.57-10.69-4.24-.22-6.63-4.93-7.7-9.03s-2.11-8.89-5.88-10.84c-4,12.42-17.07,18.97-27.3,27.07C18.69,59.67,7.84,79.82,6.02,100.85c-.3,3.46-.36,6.99,.4,10.38,1.13,4.99,4,9.43,7.41,13.23,22.27,24.83,59.82,21.33,86.52,6.46,3.11-1.73,6.67-3.68,10.05-2.53,2.84,3.59,7.5,5.66,12.07,5.36,2.91-.19,4.97,3.25,4.52,6.13s-2.53,5.2-4.52,7.33c.66,1.77,3.12,1.98,4.95,1.48,1.83-.5,3.75-1.4,5.52-.75,2.83,1.04,2.98,4.86,3.4,7.84s3.47,6.46,5.83,4.59M195.62,6.03c-6.47,2.39-12.91,4.9-18.98,8.17-19.39,10.44-33.86,27.89-47.82,44.91-.69,.84-1.4,1.72-1.72,2.76-.55,1.79,.13,3.7,.72,5.48,2.9,8.6,4.03,17.78,3.32,26.82-.23,2.98-.66,5.99-.16,8.94,.48,2.83,1.8,5.43,3.12,7.98,14.06,27.09,30.73,53.37,38.15,82.98-.2-10.09,.98-20.2,3.5-29.97,4.56-17.7,13.39-33.97,22.21-49.98,2.13-3.87,4.27-7.74,6.73-11.4,8.16-12.13,19.63-21.61,31.19-30.55,8.58-6.64,18.05-14.32,19.22-25.11,.39-3.58-.21-7.21-1.2-10.68-3.89-13.6-14.1-25.25-27.07-30.9-5.35-2.33-11.22-3.68-17.04-3.21-4.89,.4-9.58,2.05-14.19,3.76M19.91,259.33c10.89,18.13,23.23,37.22,42.75,45.35,4.59-21.41,.55-44.54-11-63.13-1.25-2.02-3.17-4.24-5.5-3.79-4.74,.93-9.77,.26-14.11-1.86-1-.49-2.1-1.3-1.98-2.41,.17-1.7,2.65-1.72,4.3-1.24,7.48,2.16,15.41,3.96,22.98,2.17,7.58-1.79,14.59-8.2,14.58-15.98-.01-7.11-5.84-13.16-12.49-15.72-6.64-2.55-13.98-2.35-21.09-2.11-2.09,.07-4.18,.14-6.27,.21-1.22,.04-2.75-.11-3.18-1.25-.63-1.66,1.78-2.79,3.56-2.74s4.16-.06,4.55-1.79c.19-.85-.26-1.7-.7-2.46-5.54-9.61-11.09-19.23-16.63-28.84,3.26-1.26,6.75-1.9,10.25-1.9-2.03-2.67-4.06-5.35-6.09-8.02-.67-.88-1.36-2.06-.77-3,.29-.47,.83-.72,1.34-.94,4.3-1.87,8.61-3.74,12.91-5.6-5.31-.49-10.37-3.28-13.62-7.51-12.24,17.79-19.24,39.14-19.91,60.72-.67,21.58,5,43.33,16.12,61.84m53.8-50.12c1.1,4.19,2.07,8.53,1.52,12.83s-2.89,8.61-6.84,10.4c-2.92,1.32-2.88,5.41-2.42,8.58,3.02,21.21,3.51,42.79,1.45,64.12-.24,2.44,3.08,3.39,5.53,3.36,8.36-.11,16.71-1.25,24.79-3.4,1.97-.52,3.21-2.42,4.25-4.18,3.29-5.51,6.69-11.98,4.56-18.03-7.62-21.61-15.24-43.22-22.86-64.83-.62-1.75-1.06-4.08,.46-5.13l-10.44-3.73m42.98,8.58c-4.3-3.59-5.99-9.59-5.66-15.18,.33-5.59,2.39-10.92,4.49-16.12,1.77-4.4,3.2-10.33-.62-13.15-6.31,16.42-13.48,33.93-28.24,43.51,7.98,18.05,15.99,36.22,20.55,55.42,1,4.19,1.89,8.56,4.43,12.04,2.5,3.41,6.53,5.65,10.75,5.97,8.32,.63,15.49-5.74,20.48-12.42,.8-1.08,1.58-2.62,.72-3.65-10.62-12.72-16.57-29.26-16.49-45.83,.02-5.17-6.44-7.27-10.4-10.58m-55.09-55.42c-5.34-2.88-10.42-6.26-15.14-10.08-.95,.94-.64,2.51-.27,3.79,3.71,12.68,7.41,25.36,11.12,38.03,.21,.72,.43,1.46,.86,2.07,.6,.85,1.56,1.37,2.48,1.86,3.49,1.86,6.98,3.72,10.47,5.57,2.79,1.49,5.71,3.01,8.87,3.09-1.44-13.03-2.88-26.06-4.33-39.1-.23-2.05-.5-4.21-1.76-5.83-1.27-1.62-3.9-2.36-5.4-.96-.65,.61-1,1.51-1.69,2.07-1.45,1.16-3.58,.36-5.21-.52m49.87,7.66c1.32-5.28-.26-10.8-1.83-16.01-1.49-4.96-3.09-10.11-6.62-13.9-2.94,4.16-5.87,8.31-8.81,12.47-1.02,1.45-2.08,2.93-3.56,3.91-1.15,.76-2.68,1.41-2.84,2.78-.07,.58,.15,1.15,.36,1.69,4.19,10.67,8.39,21.34,12.58,32.01,2.78-5.68,5.56-11.36,8.33-17.04,.93-1.91,1.87-3.84,2.39-5.9m-84.41-5.11c-1.11-.02-.95,1.73-.39,2.68,5.23,8.81,10.46,17.63,15.7,26.44,.29,.48,.58,.98,1.03,1.33,.66,.51,1.54,.63,2.37,.72l5.93,.66c.32,.04,.67,.06,.94-.12,.45-.3,.39-.98,.28-1.51-2.31-10.73-5.41-21.29-9.29-31.57-5.46,1.03-11.02,1.49-16.57,1.37m105.01-12.45c-.08-.49-.19-1.03-.58-1.35-.4-.33-.97-.32-1.49-.3-5.05,.23-10.11,.47-15.16,.7-.57,.03-1.18,.07-1.6,.45-.64,.58-.51,1.6-.31,2.44,1.8,7.74,4.5,15.27,8.03,22.38,2.79-3.73,5.83-7.27,9.1-10.59,3.38-3.43,2.81-8.99,2.01-13.74m-42.44-1.53c3.89-4.76,7.78-9.52,11.67-14.28,.53-.64,1.08-1.31,1.86-1.62s1.81-.1,2.16,.65c1.1,2.4,2.19,4.79,3.29,7.19,1.26,2.74,3.04,5.88,6.05,6.12,3.23,.26,5.52-2.97,7.1-5.79,.55-.99,1.11-1.97,1.66-2.96,.41-.73,.08-1.69-.54-2.25-.61-.56-1.44-.83-2.23-1.07-4.59-1.41-9.17-2.82-13.76-4.23-.49-.15-1.03-.29-1.48-.05-6.7,3.57-13.39,7.14-20.09,10.71-.7,.37-1.43,.77-1.86,1.43,2.06,2.05,4.12,4.1,6.18,6.15m-43.24-4.2c5.18,4.63,11.05,8.51,17.35,11.45,.36,.17,.75,.33,1.13,.23,.35-.1,.6-.4,.83-.69,3.19-4.12,6.38-8.25,9.57-12.37-7.04-.34-14.12,.06-21.08,1.19-1.69,.27-3.45,.59-5.09,.09-.94-.29-2.2-.73-2.7,.12m-6.19,3.31c-.27-.88-.67-1.89-1.56-2.1-.54-.13-1.1,.09-1.62,.31-3.12,1.33-6.24,2.65-9.36,3.98,1.56,1.73,3.12,3.46,4.68,5.18,1.48,1.64,3.1,3.37,5.25,3.89,2.15,.52,4.89-.83,4.91-3.05,0-.57-.16-1.12-.32-1.66-.66-2.19-1.32-4.37-1.99-6.56m93.39,96.12c.78-5.82,1.56-11.64,2.33-17.46,.3-2.24,.6-4.52,.2-6.74-2.7-1.08-6.1,1.52-5.77,4.41,.77,6.64,1.85,13.24,3.24,19.78m-22.73,44.22c.65,3.06-2.11,5.63-3.67,8.35-.81,1.42-1.32,3.02-1.48,4.64,5.56-2.77,10.93-5.93,16.05-9.45-3.78-.64-7.47-1.83-10.91-3.54m-49.02-52c-.09-.53-.21-1.1-.6-1.48-.71-.69-1.88-.38-2.81-.03-.9,.34-1.81,.69-2.71,1.03,2.54,5.96,5.09,11.93,7.63,17.89,0-5.83-.5-11.66-1.51-17.41Z"/>
    </g>
  </g>
</svg>