<?xml version="1.0" encoding="UTF-8"?>
<svg id="Layer_2" data-name="Layer 2" xmlns="http://www.w3.org/2000/svg" viewBox="0 0 261 197.63">
  <defs>
    <style>
      .cls-1 {
        fill: #cc7d3d;
      }

      .cls-2 {
        fill: #555e73;
      }
    </style>
  </defs>
  <g id="shadow">
    <g id="socials_1" data-name="socials 1">
      <path class="cls-2" d="M23.48,102.3c-.8-.19-1.32-.92-1.78-1.6-2.51-3.75-5.02-7.51-7.53-11.26-.42-.62-.85-1.3-.86-2.05-.02-1.3,1.19-2.25,2.28-2.97,4.82-3.19,9.63-6.38,14.45-9.57,1.61-1.07,3.37-2.18,5.3-2.05,2.17,.14,3.91,1.79,5.3,3.47,1.25,1.52,2.38,3.14,3.37,4.84,.95,1.64,1.8,3.62,1.07,5.37-.71,1.73-2.66,2.54-4.11,3.72-3.16,2.59-3.96,7.01-4.54,11.05-.15,1.02-1.5,1.5-2.45,1.08-.95-.41-1.51-1.39-1.86-2.37-.35-.97-.56-2.01-1.11-2.88-1.61,1.36-3.23,2.73-4.84,4.09-.77,.65-1.71,1.35-2.69,1.12m-1.41-4.02c.54,1.08,2.11,1.23,3.18,.66,1.07-.57,1.77-1.62,2.51-2.57,.74-.95,1.67-1.89,2.86-2.07,1.58-.23,3.18,1.24,3.07,2.83-.03,.5-.21,1-.13,1.5,.08,.5,.58,.99,1.04,.8,.43-3.32,.97-6.9,3.35-9.27,1.48-1.47,2.95-2.94,4.43-4.41,.45-.45,.93-.94,1.04-1.57,.14-.79-.33-1.55-.78-2.22-.64-.96-1.29-1.91-1.93-2.87-1.38-2.05-3.25-4.34-5.71-4.12-1.11,.1-2.1,.72-3.04,1.33-4.51,2.91-9.02,5.81-13.53,8.72-1.23,.79-2.52,1.65-3.18,2.96,2.68,3.14,4.97,6.6,6.82,10.28Z"/>
      <path class="cls-2" d="M28.74,43.05c-2.03-1.25-3.83-2.86-5.32-4.72-1.78,1.9-3.55,3.8-5.33,5.7-.76,.81-1.62,1.67-2.72,1.76-1.28,.11-2.37-.84-3.3-1.73-1.34-1.28-2.67-2.56-4.01-3.84-2.41-2.31-4.88-4.7-6.21-7.76-1.33-3.06-1.24-6.99,1.11-9.35,7.24-7.3,15.39-13.69,24.2-18.99,1.64-.98,3.55,.7,4.71,2.21,1.93,2.51,3.87,5.03,5.8,7.54,1.47,1.92,2.99,3.91,3.55,6.26,.56,2.35-.09,5.18-2.16,6.42-5.77,3.47-9.72,9.78-10.34,16.49m9.11-25.51c-1.09-1.44-2.18-2.88-3.27-4.33-1.72-2.28-3.77-4.76-6.62-5.07-2.82-.31-5.34,1.64-7.5,3.47-4.99,4.22-9.99,8.44-14.98,12.65-1.12,.94-2.3,2-2.57,3.44-.22,1.15,.2,2.32,.71,3.37,2.13,4.48,5.74,8.06,9.28,11.54,1.36,1.34,3.73,.29,4.93-1.19,1.2-1.49,1.99-3.42,3.66-4.34,2.27-1.26,5.57,.36,5.97,2.93,1.06-6.61,5.22-12.65,11.02-15.99,1.07-.62,1.43-2.06,1.16-3.27-.27-1.21-1.04-2.23-1.78-3.22Z"/>
      <path class="cls-2" d="M46.79,100.68c4.09-3.36,8.18-6.72,12.28-10.08,1.09-.9,2.22-1.82,3.57-2.25,2.4-.78,5.1,.17,7.02,1.81,1.92,1.64,3.2,3.9,4.36,6.14,1.08,2.08,2.12,4.48,1.36,6.7-.64,1.88-2.4,3.11-3.66,4.65-2.41,2.94-2.92,7.32-1.25,10.74,.55,1.11-1.31,2.02-2.41,1.45-1.1-.56-1.77-1.77-2.88-2.33-1.78-.9-3.9,.15-5.5,1.34-1.6,1.19-3.3,2.61-5.29,2.46-2.11-.15-3.64-2-4.9-3.7-1.71-2.3-3.42-4.59-5.12-6.89-.7-.95-1.43-1.94-1.65-3.1-.54-2.77,1.88-5.16,4.06-6.95m.7,10.2c1.39,1.88,2.78,3.76,4.17,5.64,.49,.67,1.01,1.35,1.73,1.77,.72,.42,1.7,.5,2.34-.04,1.58-1.33,3.19-2.67,5.11-3.43,1.92-.76,4.22-.83,5.94,.31-.69-3.44,.53-7.19,3.09-9.57,1.12-1.04,2.51-1.88,3.16-3.26,1.23-2.59-.69-5.5-2.54-7.69-1.82-2.15-4.36-4.48-7.05-3.65-.76,.24-1.42,.71-2.06,1.19-5.17,3.86-9.95,8.24-14.23,13.06-.41,.46-.83,.94-1.02,1.53-.48,1.44,.47,2.92,1.37,4.14Z"/>
      <path class="cls-2" d="M59.43,50.25c-1.71-1.83-4.63-1.62-7.1-1.2-2.47,.42-5.31,.83-7.22-.79-1.05-.89-1.59-2.22-2.08-3.5-.96-2.48-1.91-5.01-2.05-7.66-.14-2.65,.67-5.49,2.7-7.2,2.49-2.09,6.06-2.01,9.31-2.24,3.81-.27,7.56-1.1,11.26-2.06,1.93-.5,4.04-1.02,5.84-.19,2.28,1.06,3.13,3.8,3.67,6.25,.37,1.68,.69,3.37,.99,5.06,.34,1.94,.55,4.17-.73,5.67-1.17,1.37-3.14,1.62-4.82,2.27-3,1.16-5.33,3.9-5.97,7.05-.17,.84-1.41,.97-2.12,.49s-1.09-1.31-1.68-1.94m-13.09-3.96c2.12,1.5,5,.28,7.59,.11,2.92-.19,5.9,1.18,7.67,3.52,1.04-1.96,1.18-4.56,2.99-5.83,1.37-.97,3.24-.81,4.78-1.49,2.11-.94,3.24-3.37,3.31-5.69,.07-2.31-.73-4.55-1.51-6.73-.24-.68-.51-1.39-1.06-1.85-1.07-.9-2.67-.51-4.01-.12-5.01,1.46-10.22,2.24-15.44,2.3-2.01,.03-4.36,.11-5.51,1.76-.7,.99-.73,2.29-.74,3.5-.01,1.46-.02,2.92-.03,4.38-.02,2.24,.14,4.84,1.97,6.14Z"/>
      <path class="cls-2" d="M70.09,74.97c-1.07-.08-1.61,1.3-1.53,2.36,.09,1.06,.44,2.23-.13,3.14-.67,1.06-2.31,1.09-3.34,.37-1.03-.72-1.58-1.93-2.05-3.09-.69-1.73-3.1-1.87-4.89-1.34-1.78,.53-3.66,1.43-5.41,.79-2.47-.91-2.92-4.14-2.97-6.77-.05-2.6-.1-5.2-.15-7.8-.06-3.35,3.47-5.72,6.79-6.19,3.32-.47,6.72,.27,10.04-.22,1.95-.29,3.83-1,5.8-1.17,1.97-.17,4.17,.32,5.31,1.94,.77,1.09,.93,2.49,1.06,3.82,.2,2.05,.4,4.1,.6,6.15,.19,1.91,.34,3.98-.7,5.59-1.66,2.6-5.37,2.67-8.45,2.44m-6.78-.55c1.44,1.23,1.22,4.05,3.03,4.6,.65-1.56-.55-3.66,.58-4.92,.54-.6,1.42-.74,2.22-.85,1.56-.2,3.11-.4,4.67-.6,1.02-.13,2.11-.3,2.83-1.04,.89-.92,.85-2.36,.76-3.64-.16-2.12-.31-4.25-.47-6.37-.12-1.66-.47-3.64-2.01-4.27-.56-.23-1.19-.22-1.8-.17-3.67,.32-7.19,2.08-10.87,1.83-2.39-.16-4.89-1.16-7.09-.2-2.78,1.21-3.47,4.8-3.47,7.83,0,2.22,.17,4.45,.51,6.65,.06,.42,.14,.85,.4,1.19,.6,.78,1.79,.65,2.75,.44,1.3-.29,2.6-.57,3.9-.86,1.38-.3,2.99-.55,4.06,.37Z"/>
      <path class="cls-2" d="M32.92,67.99c-2.72,1.34-5.27,3.87-8.25,3.31-2.43-.45-3.98-2.81-5.01-5.06-.81-1.79-1.48-3.64-2-5.53-.36-1.32-.49-3.04,.69-3.73,4.41-2.61,8.46-5.83,12-9.53,1.97-2.06,5.39-2.11,7.93-.81,2.53,1.3,4.34,3.66,5.89,6.05,.92,1.42,1.81,3.02,1.59,4.7-.34,2.58-3.03,4.05-4.68,6.06-1.58,1.93-2.24,4.59-1.73,7.04,.14,.68,.1,1.72-.6,1.69-1.67-.45-1.21-3.2-2.55-4.29-.9-.74-2.25-.43-3.3,.09m-9.46,.8c.39,.29,.9,.33,1.39,.3,3.75-.22,6.79-3.79,10.54-3.6,.51,.03,1.06,.12,1.51-.12,.29-.15,.5-.41,.7-.66,1.81-2.29,3.61-4.58,5.42-6.87,.49-.62,1.01-1.43,.66-2.15-1.17-2.39-2.41-4.87-4.54-6.46-2.13-1.59-5.44-1.93-7.31-.04-3.56,3.62-7.6,6.79-11.97,9.38-.61,.36-.46,1.27-.23,1.94,.89,2.53,1.96,4.99,3.18,7.38,.17,.34,.36,.68,.66,.9Z"/>
      <path class="cls-2" d="M238.25,57.77c-12.48,7.73-24.38,16.94-32.6,29.11-10.22,15.13-13.95,33.56-18.95,51.12-5,17.56-12.17,35.69-26.78,46.65-5.4,4.05-11.6,6.93-17.91,9.33-4.69,1.78-9.54,3.33-14.54,3.6-15.27,.83-28.78-10.3-37.28-23.01-9.09-13.59-14.4-29.81-14.27-46.16,.13-16.35,5.85-32.73,16.56-45.08-6.19-3.69-10.38-10.54-10.82-17.74-.27-4.42,.78-8.84,2.28-13,4.18-11.6,11.97-21.87,22-29.02,7.12-5.08,15.74-9.05,19.71-16.85,.78-1.53,3.3-1.04,4.25,.4,.95,1.44,.91,3.28,1.19,4.98,1.32,7.93,9.51,12.5,16.78,15.93,1.69-2.05,3.52-4.19,6.05-4.97,2.53-.78,5.88,.55,6.2,3.18,1.81,14.97,7.74,30.03,4.26,44.71-.66,2.78,.85,5.56,2.26,8.04,8.33,14.71,15,30.36,19.84,46.56,6.52-31.61,28.35-59.69,57.38-73.8,8.65-4.2,14.49-13.64,14.39-23.25-.1-9.62-6.13-18.93-14.86-22.95-11.36-5.24-24.77-1.54-36.18,3.58-16.65,7.47-31.98,17.88-45.06,30.6,8.97-13.7,23.64-22.52,38.34-29.75,12.24-6.02,26.06-11.37,39.22-7.8,8.15,2.21,15.36,7.99,18.89,15.66,3.53,7.67,3.18,17.11-1.29,24.28-4.4,7.05-12,11.3-19.07,15.68m-59.94,66.95c-5.68,7.3-12.78,13.48-20.79,18.1,2.47,10.22,5.57,20.29,9.28,30.12,4.81-3.21,7.14-8.96,9.14-14.38,3.34-9.05,6.55-18.45,6.06-28.08-.26-5.19-1.6-10.26-3.02-15.25-3.16-11.06-6.87-22.05-12.56-32.05-2.55-4.48-5.6-9.36-4.49-14.39,2.05-9.28,1.41-19.14-1.81-28.08-1.94-5.39-1.03-11.49-3.01-16.87-2.33,2.07-4.66,4.14-6.98,6.2-.48,.42-1.01,.87-1.64,.89-.57,.02-1.09-.3-1.56-.62-4.27-2.8-8.53-5.6-12.8-8.4-1.51-.99-3.1-2.08-3.81-3.74-.65-1.52-.44-3.24-.57-4.89-.14-1.64-.85-3.49-2.43-3.98-3.85,8.03-12.61,12.18-19.77,17.47-10,7.4-17.58,18.02-21.34,29.88-1,3.16-1.74,6.45-1.5,9.76,.58,7.95,6.9,14.6,14.25,17.68,7.35,3.08,15.58,3.18,23.54,2.71,4.8-.29,9.68-.79,14.09-2.7,2.86-1.24,5.88-3.1,8.87-2.2-1.08,1.36-2.65,2.31-4.36,2.65,5.9,8.81,5.1,21.32,12.44,28.98,2.48-3.29,6.42-6.98,10.1-5.14-4.83,4.23-9.02,9.19-12.38,14.66-2.12,3.45-3.97,7.51-2.97,11.43,1,3.92,6.19,6.76,9.28,4.15,5.42-4.57,10.84-9.14,16.26-13.71,1.39-1.17,4.07-1.97,4.49-.21m-33.72-23.68c-.84-4.51-2.02-8.96-3.52-13.3-.25-.72-.58-1.51-1.29-1.78-.53-.2-1.11-.04-1.65,.11-9.4,2.61-19.27,3.57-29,2.82,1.73,2,3.52,4.12,4.11,6.7,.59,2.58-.48,5.75-2.98,6.61-1.69,.58-1.78,2.88-1.74,4.67,.04,1.79-.74,4.17-2.52,3.99,3.32,4.43,.37,12.42,5.14,15.22,3.09,1.81,5.25,5.11,5.68,8.67,.43,3.55-.89,7.28-3.46,9.77-1.67,1.62-1.48,4.3-1.24,6.62,1.19,11.67,.37,23.53-2.4,34.93-.82,3.36,2.92,6.02,6.24,6.96,7.56,2.14,15.75,1.03,23.13-1.66,7.39-2.69,14.12-6.87,20.79-11.03,1.56-.97,3.27-2.15,3.59-3.97,.18-1.01-.12-2.04-.42-3.02-2.8-9.23-5.61-18.46-8.41-27.68-.26-.86-.75-1.9-1.65-1.89-4.37,.08-8.37-4-8.21-8.36,.16-4.28-3.82-7.37-7.1-10.13-3.28-2.76-6.45-7.25-4.34-10.98,1.03-1.82-.26-4.28-2.18-5.11-1.91-.83-4.14-.43-6.1,.3-1.1,.41-2.26,.92-3.41,.67-1.35-.3-2.22-1.56-2.96-2.72-1.14-1.78-2.3-3.61-2.7-5.68s.13-4.47,1.84-5.7c1.5-1.08,3.49-1.06,5.28-1.51,3.76-.94,7.66-4.05,11.02-2.12,1.23,.71,2.01,1.96,2.75,3.17,.91,1.49,1.85,3.03,2.12,4.76,.27,1.73-.29,3.71-1.8,4.61-1.4,.84-3.57,.81-4.13,2.34,.41,1.26,1.25,2.37,2.36,3.1,2.51-1.82,5.01-3.64,7.52-5.46,.66-.48,1.35-1,1.63-1.75,.25-.68,.13-1.44,0-2.16m-32.33,40.32c2.26-2.02,2.74-5.54,1.72-8.4-1.02-2.86-3.3-5.11-5.82-6.79-3.27-2.19-7.06-3.6-10.96-4.08-1.66-.2-3.67-.46-4.32-2,4.41-.31,8.89,.42,12.96,2.13,.59-4.21-.02-8.57-1.73-12.46-.82-1.85-3.63-1.27-5.26-.07-1.63,1.2-3.55,2.8-5.41,2.01-1.05-.44-1.66-1.52-2.19-2.53-1.15-2.19-2.31-4.38-3.46-6.57-.61-1.16-1.23-2.52-.71-3.72,.34-.77,1.08-1.28,1.78-1.75,4.63-3.03,9.34-5.93,14.14-8.68-1.83-1.35-3.73-2.74-5.95-3.25-2.22-.51-4.86,.09-6.08,2.02-9.72,15.39-13.74,34.3-11.1,52.32,2.64,18.01,11.9,34.98,25.63,46.94,3.67-12.82,4.46-26.46,2.29-39.63-.06-.36-.19-.79-.55-.86-4.49-.81-8.99-1.62-13.48-2.42-2.21-.4-4.93-1.34-5.09-3.57,3.12,.71,6.23,1.42,9.35,2.14,2.69,.62,5.42,1.23,8.18,1.19,2.18-.03,4.46-.54,6.08-1.99m-3.63-42.81c1.18-.7,1.59-2.27,1.32-3.61-.27-1.34-1.07-2.51-1.86-3.62-.22-.32-.48-.66-.85-.76-.31-.09-.63,0-.93,.09-2.11,.66-4.04,1.78-5.95,2.89-2.69,1.56-5.37,3.12-8.06,4.67-1.01,.58-2.13,1.35-2.21,2.51-.13,1.85,2.45,2.91,2.61,4.75,.12,1.34,1.89,1.9,3.18,1.51,1.29-.39,2.33-1.35,3.59-1.82,1.27-.48,2.73-.43,3.96,.13,.25,.11,.51,.25,.78,.19,.48-.11,.59-.72,.66-1.2,.31-2.35,1.74-4.52,3.78-5.73m27.78-.41c-.43-1.13-.9-2.32-1.82-3.11-1.09-.94-2.65-1.16-4.07-.92-1.42,.24-2.73,.88-4.01,1.52-2.36,1.17-4.72,2.33-7.08,3.5-.31,.15-.62,.31-.84,.57-.6,.72-.2,1.8,.22,2.63,.47,.94,.94,1.88,1.41,2.82,.43,.86,.92,1.78,1.8,2.15,1.68,.72,3.43-.94,5.25-1.1,.82-.07,1.64,.17,2.45,.04,2.15-.35,3.35-3.13,5.53-3.29,.96-.07,1.66-1.05,1.76-2.01,.1-.96-.25-1.91-.6-2.81Z"/>
    </g>
  </g>
  <g id="fore">
    <g id="socials_1-2" data-name="socials 1">
      <path class="cls-1" d="M22.48,101.3c-.8-.19-1.32-.92-1.78-1.6-2.51-3.75-5.02-7.51-7.53-11.26-.42-.62-.85-1.3-.86-2.05-.02-1.3,1.19-2.25,2.28-2.97,4.82-3.19,9.63-6.38,14.45-9.57,1.61-1.07,3.37-2.18,5.3-2.05,2.17,.14,3.91,1.79,5.3,3.47,1.25,1.52,2.38,3.14,3.37,4.84,.95,1.64,1.8,3.62,1.07,5.37-.71,1.73-2.66,2.54-4.11,3.72-3.16,2.59-3.96,7.01-4.54,11.05-.15,1.02-1.5,1.5-2.45,1.08-.95-.41-1.51-1.39-1.86-2.37-.35-.97-.56-2.01-1.11-2.88-1.61,1.36-3.23,2.73-4.84,4.09-.77,.65-1.71,1.35-2.69,1.12m-1.41-4.02c.54,1.08,2.11,1.23,3.18,.66,1.07-.57,1.77-1.62,2.51-2.57,.74-.95,1.67-1.89,2.86-2.07,1.58-.23,3.18,1.24,3.07,2.83-.03,.5-.21,1-.13,1.5,.08,.5,.58,.99,1.04,.8,.43-3.32,.97-6.9,3.35-9.27,1.48-1.47,2.95-2.94,4.43-4.41,.45-.45,.93-.94,1.04-1.57,.14-.79-.33-1.55-.78-2.22-.64-.96-1.29-1.91-1.93-2.87-1.38-2.05-3.25-4.34-5.71-4.12-1.11,.1-2.1,.72-3.04,1.33-4.51,2.91-9.02,5.81-13.53,8.72-1.23,.79-2.52,1.65-3.18,2.96,2.68,3.14,4.97,6.6,6.82,10.28Z"/>
      <path class="cls-1" d="M27.74,42.05c-2.03-1.25-3.83-2.86-5.32-4.72-1.78,1.9-3.55,3.8-5.33,5.7-.76,.81-1.62,1.67-2.72,1.76-1.28,.11-2.37-.84-3.3-1.73-1.34-1.28-2.67-2.56-4.01-3.84-2.41-2.31-4.88-4.7-6.21-7.76-1.33-3.06-1.24-6.99,1.11-9.35C9.21,14.82,17.36,8.43,26.18,3.13c1.64-.98,3.55,.7,4.71,2.21,1.93,2.51,3.87,5.03,5.8,7.54,1.47,1.92,2.99,3.91,3.55,6.26,.56,2.35-.09,5.18-2.16,6.42-5.77,3.47-9.72,9.78-10.34,16.49m9.11-25.51c-1.09-1.44-2.18-2.88-3.27-4.33-1.72-2.28-3.77-4.76-6.62-5.07-2.82-.31-5.34,1.64-7.5,3.47-4.99,4.22-9.99,8.44-14.98,12.65-1.12,.94-2.3,2-2.57,3.44-.22,1.15,.2,2.32,.71,3.37,2.13,4.48,5.74,8.06,9.28,11.54,1.36,1.34,3.73,.29,4.93-1.19,1.2-1.49,1.99-3.42,3.66-4.34,2.27-1.26,5.57,.36,5.97,2.93,1.06-6.61,5.22-12.65,11.02-15.99,1.07-.62,1.43-2.06,1.16-3.27-.27-1.21-1.04-2.23-1.78-3.22Z"/>
      <path class="cls-1" d="M45.79,99.68c4.09-3.36,8.18-6.72,12.28-10.08,1.09-.9,2.22-1.82,3.57-2.25,2.4-.78,5.1,.17,7.02,1.81,1.92,1.64,3.2,3.9,4.36,6.14,1.08,2.08,2.12,4.48,1.36,6.7-.64,1.88-2.4,3.11-3.66,4.65-2.41,2.94-2.92,7.32-1.25,10.74,.55,1.11-1.31,2.02-2.41,1.45-1.1-.56-1.77-1.77-2.88-2.33-1.78-.9-3.9,.15-5.5,1.34-1.6,1.19-3.3,2.61-5.29,2.46-2.11-.15-3.64-2-4.9-3.7-1.71-2.3-3.42-4.59-5.12-6.89-.7-.95-1.43-1.94-1.65-3.1-.54-2.77,1.88-5.16,4.06-6.95m.7,10.2c1.39,1.88,2.78,3.76,4.17,5.64,.49,.67,1.01,1.35,1.73,1.77,.72,.42,1.7,.5,2.34-.04,1.58-1.33,3.19-2.67,5.11-3.43,1.92-.76,4.22-.83,5.94,.31-.69-3.44,.53-7.19,3.09-9.57,1.12-1.04,2.51-1.88,3.16-3.26,1.23-2.59-.69-5.5-2.54-7.69-1.82-2.15-4.36-4.48-7.05-3.65-.76,.24-1.42,.71-2.06,1.19-5.17,3.86-9.95,8.24-14.23,13.06-.41,.46-.83,.94-1.02,1.53-.48,1.44,.47,2.92,1.37,4.14Z"/>
      <path class="cls-1" d="M58.43,49.25c-1.71-1.83-4.63-1.62-7.1-1.2-2.47,.42-5.31,.83-7.22-.79-1.05-.89-1.59-2.22-2.08-3.5-.96-2.48-1.91-5.01-2.05-7.66-.14-2.65,.67-5.49,2.7-7.2,2.49-2.09,6.06-2.01,9.31-2.24,3.81-.27,7.56-1.1,11.26-2.06,1.93-.5,4.04-1.02,5.84-.19,2.28,1.06,3.13,3.8,3.67,6.25,.37,1.68,.69,3.37,.99,5.06,.34,1.94,.55,4.17-.73,5.67-1.17,1.37-3.14,1.62-4.82,2.27-3,1.16-5.33,3.9-5.97,7.05-.17,.84-1.41,.97-2.12,.49s-1.09-1.31-1.68-1.94m-13.09-3.96c2.12,1.5,5,.28,7.59,.11,2.92-.19,5.9,1.18,7.67,3.52,1.04-1.96,1.18-4.56,2.99-5.83,1.37-.97,3.24-.81,4.78-1.49,2.11-.94,3.24-3.37,3.31-5.69,.07-2.31-.73-4.55-1.51-6.73-.24-.68-.51-1.39-1.06-1.85-1.07-.9-2.67-.51-4.01-.12-5.01,1.46-10.22,2.24-15.44,2.3-2.01,.03-4.36,.11-5.51,1.76-.7,.99-.73,2.29-.74,3.5-.01,1.46-.02,2.92-.03,4.38-.02,2.24,.14,4.84,1.97,6.14Z"/>
      <path class="cls-1" d="M69.09,73.97c-1.07-.08-1.61,1.3-1.53,2.36,.09,1.06,.44,2.23-.13,3.14-.67,1.06-2.31,1.09-3.34,.37-1.03-.72-1.58-1.93-2.05-3.09-.69-1.73-3.1-1.87-4.89-1.34-1.78,.53-3.66,1.43-5.41,.79-2.47-.91-2.92-4.14-2.97-6.77-.05-2.6-.1-5.2-.15-7.8-.06-3.35,3.47-5.72,6.79-6.19,3.32-.47,6.72,.27,10.04-.22,1.95-.29,3.83-1,5.8-1.17,1.97-.17,4.17,.32,5.31,1.94,.77,1.09,.93,2.49,1.06,3.82,.2,2.05,.4,4.1,.6,6.15,.19,1.91,.34,3.98-.7,5.59-1.66,2.6-5.37,2.67-8.45,2.44m-6.78-.55c1.44,1.23,1.22,4.05,3.03,4.6,.65-1.56-.55-3.66,.58-4.92,.54-.6,1.42-.74,2.22-.85,1.56-.2,3.11-.4,4.67-.6,1.02-.13,2.11-.3,2.83-1.04,.89-.92,.85-2.36,.76-3.64-.16-2.12-.31-4.25-.47-6.37-.12-1.66-.47-3.64-2.01-4.27-.56-.23-1.19-.22-1.8-.17-3.67,.32-7.19,2.08-10.87,1.83-2.39-.16-4.89-1.16-7.09-.2-2.78,1.21-3.47,4.8-3.47,7.83,0,2.22,.17,4.45,.51,6.65,.06,.42,.14,.85,.4,1.19,.6,.78,1.79,.65,2.75,.44,1.3-.29,2.6-.57,3.9-.86,1.38-.3,2.99-.55,4.06,.37Z"/>
      <path class="cls-1" d="M31.92,66.99c-2.72,1.34-5.27,3.87-8.25,3.31-2.43-.45-3.98-2.81-5.01-5.06-.81-1.79-1.48-3.64-2-5.53-.36-1.32-.49-3.04,.69-3.73,4.41-2.61,8.46-5.83,12-9.53,1.97-2.06,5.39-2.11,7.93-.81,2.53,1.3,4.34,3.66,5.89,6.05,.92,1.42,1.81,3.02,1.59,4.7-.34,2.58-3.03,4.05-4.68,6.06-1.58,1.93-2.24,4.59-1.73,7.04,.14,.68,.1,1.72-.6,1.69-1.67-.45-1.21-3.2-2.55-4.29-.9-.74-2.25-.43-3.3,.09m-9.46,.8c.39,.29,.9,.33,1.39,.3,3.75-.22,6.79-3.79,10.54-3.6,.51,.03,1.06,.12,1.51-.12,.29-.15,.5-.41,.7-.66,1.81-2.29,3.61-4.58,5.42-6.87,.49-.62,1.01-1.43,.66-2.15-1.17-2.39-2.41-4.87-4.54-6.46-2.13-1.59-5.44-1.93-7.31-.04-3.56,3.62-7.6,6.79-11.97,9.38-.61,.36-.46,1.27-.23,1.94,.89,2.53,1.96,4.99,3.18,7.38,.17,.34,.36,.68,.66,.9Z"/>
      <path class="cls-1" d="M237.25,56.77c-12.48,7.73-24.38,16.94-32.6,29.11-10.22,15.13-13.95,33.56-18.95,51.12-5,17.56-12.17,35.69-26.78,46.65-5.4,4.05-11.6,6.93-17.91,9.33-4.69,1.78-9.54,3.33-14.54,3.6-15.27,.83-28.78-10.3-37.28-23.01-9.09-13.59-14.4-29.81-14.27-46.16,.13-16.35,5.85-32.73,16.56-45.08-6.19-3.69-10.38-10.54-10.82-17.74-.27-4.42,.78-8.84,2.28-13,4.18-11.6,11.97-21.87,22-29.02,7.12-5.08,15.74-9.05,19.71-16.85,.78-1.53,3.3-1.04,4.25,.4,.95,1.44,.91,3.28,1.19,4.98,1.32,7.93,9.51,12.5,16.78,15.93,1.69-2.05,3.52-4.19,6.05-4.97,2.53-.78,5.88,.55,6.2,3.18,1.81,14.97,7.74,30.03,4.26,44.71-.66,2.78,.85,5.56,2.26,8.04,8.33,14.71,15,30.36,19.84,46.56,6.52-31.61,28.35-59.69,57.38-73.8,8.65-4.2,14.49-13.64,14.39-23.25-.1-9.62-6.13-18.93-14.86-22.95-11.36-5.24-24.77-1.54-36.18,3.58-16.65,7.47-31.98,17.88-45.06,30.6,8.97-13.7,23.64-22.52,38.34-29.75,12.24-6.02,26.06-11.37,39.22-7.8,8.15,2.21,15.36,7.99,18.89,15.66,3.53,7.67,3.18,17.11-1.29,24.28-4.4,7.05-12,11.3-19.07,15.68m-59.94,66.95c-5.68,7.3-12.78,13.48-20.79,18.1,2.47,10.22,5.57,20.29,9.28,30.12,4.81-3.21,7.14-8.96,9.14-14.38,3.34-9.05,6.55-18.45,6.06-28.08-.26-5.19-1.6-10.26-3.02-15.25-3.16-11.06-6.87-22.05-12.56-32.05-2.55-4.48-5.6-9.36-4.49-14.39,2.05-9.28,1.41-19.14-1.81-28.08-1.94-5.39-1.03-11.49-3.01-16.87-2.33,2.07-4.66,4.14-6.98,6.2-.48,.42-1.01,.87-1.64,.89-.57,.02-1.09-.3-1.56-.62-4.27-2.8-8.53-5.6-12.8-8.4-1.51-.99-3.1-2.08-3.81-3.74-.65-1.52-.44-3.24-.57-4.89-.14-1.64-.85-3.49-2.43-3.98-3.85,8.03-12.61,12.18-19.77,17.47-10,7.4-17.58,18.02-21.34,29.88-1,3.16-1.74,6.45-1.5,9.76,.58,7.95,6.9,14.6,14.25,17.68,7.35,3.08,15.58,3.18,23.54,2.71,4.8-.29,9.68-.79,14.09-2.7,2.86-1.24,5.88-3.1,8.87-2.2-1.08,1.36-2.65,2.31-4.36,2.65,5.9,8.81,5.1,21.32,12.44,28.98,2.48-3.29,6.42-6.98,10.1-5.14-4.83,4.23-9.02,9.19-12.38,14.66-2.12,3.45-3.97,7.51-2.97,11.43,1,3.92,6.19,6.76,9.28,4.15,5.42-4.57,10.84-9.14,16.26-13.71,1.39-1.17,4.07-1.97,4.49-.21m-33.72-23.68c-.84-4.51-2.02-8.96-3.52-13.3-.25-.72-.58-1.51-1.29-1.78-.53-.2-1.11-.04-1.65,.11-9.4,2.61-19.27,3.57-29,2.82,1.73,2,3.52,4.12,4.11,6.7,.59,2.58-.48,5.75-2.98,6.61-1.69,.58-1.78,2.88-1.74,4.67,.04,1.79-.74,4.17-2.52,3.99,3.32,4.43,.37,12.42,5.14,15.22,3.09,1.81,5.25,5.11,5.68,8.67,.43,3.55-.89,7.28-3.46,9.77-1.67,1.62-1.48,4.3-1.24,6.62,1.19,11.67,.37,23.53-2.4,34.93-.82,3.36,2.92,6.02,6.24,6.96,7.56,2.14,15.75,1.03,23.13-1.66,7.39-2.69,14.12-6.87,20.79-11.03,1.56-.97,3.27-2.15,3.59-3.97,.18-1.01-.12-2.04-.42-3.02-2.8-9.23-5.61-18.46-8.41-27.68-.26-.86-.75-1.9-1.65-1.89-4.37,.08-8.37-4-8.21-8.36,.16-4.28-3.82-7.37-7.1-10.13-3.28-2.76-6.45-7.25-4.34-10.98,1.03-1.82-.26-4.28-2.18-5.11-1.91-.83-4.14-.43-6.1,.3-1.1,.41-2.26,.92-3.41,.67-1.35-.3-2.22-1.56-2.96-2.72-1.14-1.78-2.3-3.61-2.7-5.68s.13-4.47,1.84-5.7c1.5-1.08,3.49-1.06,5.28-1.51,3.76-.94,7.66-4.05,11.02-2.12,1.23,.71,2.01,1.96,2.75,3.17,.91,1.49,1.85,3.03,2.12,4.76,.27,1.73-.29,3.71-1.8,4.61-1.4,.84-3.57,.81-4.13,2.34,.41,1.26,1.25,2.37,2.36,3.1,2.51-1.82,5.01-3.64,7.52-5.46,.66-.48,1.35-1,1.63-1.75,.25-.68,.13-1.44,0-2.16m-32.33,40.32c2.26-2.02,2.74-5.54,1.72-8.4-1.02-2.86-3.3-5.11-5.82-6.79-3.27-2.19-7.06-3.6-10.96-4.08-1.66-.2-3.67-.46-4.32-2,4.41-.31,8.89,.42,12.96,2.13,.59-4.21-.02-8.57-1.73-12.46-.82-1.85-3.63-1.27-5.26-.07-1.63,1.2-3.55,2.8-5.41,2.01-1.05-.44-1.66-1.52-2.19-2.53-1.15-2.19-2.31-4.38-3.46-6.57-.61-1.16-1.23-2.52-.71-3.72,.34-.77,1.08-1.28,1.78-1.75,4.63-3.03,9.34-5.93,14.14-8.68-1.83-1.35-3.73-2.74-5.95-3.25-2.22-.51-4.86,.09-6.08,2.02-9.72,15.39-13.74,34.3-11.1,52.32,2.64,18.01,11.9,34.98,25.63,46.94,3.67-12.82,4.46-26.46,2.29-39.63-.06-.36-.19-.79-.55-.86-4.49-.81-8.99-1.62-13.48-2.42-2.21-.4-4.93-1.34-5.09-3.57,3.12,.71,6.23,1.42,9.35,2.14,2.69,.62,5.42,1.23,8.18,1.19,2.18-.03,4.46-.54,6.08-1.99m-3.63-42.81c1.18-.7,1.59-2.27,1.32-3.61-.27-1.34-1.07-2.51-1.86-3.62-.22-.32-.48-.66-.85-.76-.31-.09-.63,0-.93,.09-2.11,.66-4.04,1.78-5.95,2.89-2.69,1.56-5.37,3.12-8.06,4.67-1.01,.58-2.13,1.35-2.21,2.51-.13,1.85,2.45,2.91,2.61,4.75,.12,1.34,1.89,1.9,3.18,1.51,1.29-.39,2.33-1.35,3.59-1.82,1.27-.48,2.73-.43,3.96,.13,.25,.11,.51,.25,.78,.19,.48-.11,.59-.72,.66-1.2,.31-2.35,1.74-4.52,3.78-5.73m27.78-.41c-.43-1.13-.9-2.32-1.82-3.11-1.09-.94-2.65-1.16-4.07-.92-1.42,.24-2.73,.88-4.01,1.52-2.36,1.17-4.72,2.33-7.08,3.5-.31,.15-.62,.31-.84,.57-.6,.72-.2,1.8,.22,2.63,.47,.94,.94,1.88,1.41,2.82,.43,.86,.92,1.78,1.8,2.15,1.68,.72,3.43-.94,5.25-1.1,.82-.07,1.64,.17,2.45,.04,2.15-.35,3.35-3.13,5.53-3.29,.96-.07,1.66-1.05,1.76-2.01,.1-.96-.25-1.91-.6-2.81Z"/>
    </g>
  </g>
</svg>