<?xml version="1.0" encoding="utf-8"?>
<!-- Generator: Adobe Illustrator 27.0.0, SVG Export Plug-In . SVG Version: 6.00 Build 0)  -->
<svg version="1.1" id="Layer_1" xmlns="http://www.w3.org/2000/svg" xmlns:xlink="http://www.w3.org/1999/xlink" x="0px" y="0px"
	 viewBox="0 0 130.1 110.2" style="enable-background:new 0 0 130.1 110.2;" xml:space="preserve">
<style type="text/css">
	.st0{fill:none;stroke:#2F3440;stroke-miterlimit:10;}
	.st1{fill:#2F3440;}
</style>
<path class="st0" d="M13.5,57.9c-1-0.6-2.4-0.2-2.9,0.9c-0.8,1.7-1.2,3.6-1.2,5.8c0,7.1-14.4,23.2-6.6,23.2
	c5.4,0,21.3-11.1,26.9-17.4c0.8-0.8,0.6-2.2-0.4-2.7C29.3,67.5,13.5,57.9,13.5,57.9z"/>
<path class="st1" d="M130,20.8c-0.4,4.1-3.6,6.8-5,8c-1.7,1.5-3,2-5,3c-4.9,2.5-9.2,5.5-11,7.1c-4.1,3.6-4.2,8.3-5.9,17
	c-2.2,11.2-6.5,21.4-11.4,27.5c-8,10-11.3,12-21.4,16.6c-12.8,5.8-19,7.1-33.5,9.6c-0.2,0-7,1-9,0c-0.6-0.3-2.1-1-2.7-2.6
	c-0.1-0.2-0.4-1.1-0.3-2.4c0.1-1,0.5-2.3,4.5-6.5c1.8-1.9,4.2-4.2,5-5c0.1-0.1,0.6-0.5,1.2-1.1c0.4-0.4,0.7-0.7,0.8-0.9
	c-0.8-1.5-1.4-3.1-2-5c-2.6-8.2-1.3-15.7-0.1-20L32.6,66l-3.7-0.4c-1.6-0.2-3-1.3-3.6-2.8c-0.2-0.5-0.3-1.1-0.3-1.7
	c0-1.4,0.6-2.7,1.7-3.6c0.5-0.3,1-0.8,1.6-1.3l1.2-0.8l9.8-6.3c0.8-0.5,1.8-1.5,2-2c-0.7-0.5-2.7-1.2-4-2c-5.9-3.7-6.9-5.2-9-7
	c-3.8-3.2-4.9-5.2-5-7C22.4,23.1,34.3,10.4,55,6.1c2.3-4.2,5.5-6.6,8-6c2,0.4,2.9,2.6,4,5c1.8,4,0.9,5.9,1.1,12c0,1.3,1,4.3,1,5
	c2,4.7,4,9.3,6.1,14c0-2.6,0.3-6.6,2-11c0.6-1.6,3.7-9.4,11.9-15.1c1.7-1.1,12.3-8.2,25-5.1c2.2,0.6,8.7,2.2,13,7.9
	C128.3,14.5,130.3,17.2,130,20.8z"/>
<path class="st0" d="M32.6,66c-0.1,0.3-0.2,0.7-0.4,1.1c-0.4,1-1.6,1.3-2.5,0.8l-0.1-0.1l-3.1-2l-13.9-8.8c-0.6-0.4-0.6-1.3,0-1.7
	c2.1-1.5,4.7-2.3,8-2.4c0.8,0,1.5,0,2.2,0.1c1.2,0.1,2.4-0.6,2.8-1.8c1.1-3,2.1-7.9,2.8-6.3c0.4,1,0.4,4.5,0.1,7.9
	c-0.1,1,0.2,1.9,1,2.6l-1.2,0.8c-0.6,0.5-1.1,0.9-1.6,1.3c-1.1,0.9-1.7,2.2-1.7,3.6c0,0.6,0.1,1.1,0.3,1.7c0.6,1.5,2,2.6,3.6,2.8
	L32.6,66z"/>
</svg>
