<?xml version="1.0" encoding="UTF-8"?>
<svg id="Layer_2" data-name="Layer 2" xmlns="http://www.w3.org/2000/svg" viewBox="0 0 130.05 110.04">
  <defs>
    <style>
      .cls-1 {
        fill: #555e73;
      }

      .cls-2 {
        fill: none;
        stroke: #555e73;
        stroke-miterlimit: 10;
      }
    </style>
  </defs>
  <g id="Layer_1-2" data-name="Layer 1">
    <path class="cls-2" d="M13.52,57.89c-1-.6-2.4-.2-2.9,.9-.8,1.7-1.2,3.6-1.2,5.8,0,7.1-14.4,23.2-6.6,23.2,5.4,0,21.3-11.1,26.9-17.4,.8-.8,.6-2.2-.4-2.7,0-.2-15.8-9.8-15.8-9.8Z"/>
    <path class="cls-1" d="M130.02,20.79c-.4,4.1-3.6,6.8-5,8-1.7,1.5-3,2-5,3-4.9,2.5-9.2,5.5-11,7.1-4.1,3.6-4.2,8.3-5.9,17-2.2,11.2-6.5,21.4-11.4,27.5-8,10-11.3,12-21.4,16.6-12.8,5.8-19,7.1-33.5,9.6-.2,0-7,1-9,0-.6-.3-2.1-1-2.7-2.6-.1-.2-.4-1.1-.3-2.4,.1-1,.5-2.3,4.5-6.5,1.8-1.9,4.2-4.2,5-5,.1-.1,.6-.5,1.2-1.1,.4-.4,.7-.7,.8-.9-.8-1.5-1.4-3.1-2-5-2.6-8.2-1.3-15.7-.1-20l-1.6-.1-3.7-.4c-1.6-.2-3-1.3-3.6-2.8-.2-.5-.3-1.1-.3-1.7,0-1.4,.6-2.7,1.7-3.6,.5-.3,1-.8,1.6-1.3l1.2-.8,9.8-6.3c.8-.5,1.8-1.5,2-2-.7-.5-2.7-1.2-4-2-5.9-3.7-6.9-5.2-9-7-3.8-3.2-4.9-5.2-5-7-.9-8,11-20.7,31.7-25C57.32,1.89,60.52-.51,63.02,.09c2,.4,2.9,2.6,4,5,1.8,4,.9,5.9,1.1,12,0,1.3,1,4.3,1,5,2,4.7,4,9.3,6.1,14,0-2.6,.3-6.6,2-11,.6-1.6,3.7-9.4,11.9-15.1,1.7-1.1,12.3-8.2,25-5.1,2.2,.6,8.7,2.2,13,7.9,1.2,1.7,3.2,4.4,2.9,8Z"/>
    <path class="cls-2" d="M32.62,65.99c-.1,.3-.2,.7-.4,1.1-.4,1-1.6,1.3-2.5,.8l-.1-.1-3.1-2-13.9-8.8c-.6-.4-.6-1.3,0-1.7,2.1-1.5,4.7-2.3,8-2.4,.8,0,1.5,0,2.2,.1,1.2,.1,2.4-.6,2.8-1.8,1.1-3,2.1-7.9,2.8-6.3,.4,1,.4,4.5,.1,7.9-.1,1,.2,1.9,1,2.6l-1.2,.8c-.6,.5-1.1,.9-1.6,1.3-1.1,.9-1.7,2.2-1.7,3.6,0,.6,.1,1.1,.3,1.7,.6,1.5,2,2.6,3.6,2.8l3.7,.4Z"/>
  </g>
</svg>