<svg width="80" height="18" viewBox="0 0 80 18" fill="none" xmlns="http://www.w3.org/2000/svg">
<g clip-path="url(#clip0_4278_530)">
<path d="M7.90761 12.8622L10.6424 14.7049C11.1432 15.0427 11.756 14.5434 11.6242 13.9121L10.8994 10.4468L13.3178 8.11218C13.7593 7.68637 13.5221 6.87879 12.9422 6.8274L9.75933 6.52639L8.51387 3.25203C8.28982 2.65736 7.52541 2.65736 7.30136 3.25203L6.0559 6.51905L2.87305 6.82006C2.29315 6.87145 2.05592 7.67902 2.49743 8.10484L4.91587 10.4395L4.191 13.9047C4.0592 14.5361 4.67205 15.0353 5.17287 14.6976L7.90761 12.8622Z" fill="#FFEAD9"/>
<path d="M55.3537 12.8622L58.0884 14.7049C58.5892 15.0427 59.2021 14.5434 59.0703 13.9121L58.3454 10.4468L60.7638 8.11218C61.2054 7.68637 60.9681 6.87879 60.3882 6.8274L57.2054 6.52639L55.9599 3.25203C55.7359 2.65736 54.9715 2.65736 54.7474 3.25203L53.5019 6.51905L50.3191 6.82006C49.7392 6.87145 49.502 7.67902 49.9435 8.10484L52.3619 10.4395L51.637 13.9047C51.5052 14.5361 52.1181 15.0353 52.6189 14.6976L55.3537 12.8622Z" fill="#FFEAD9"/>
<path d="M39.5385 12.8622L42.2732 14.7049C42.774 15.0427 43.3869 14.5434 43.2551 13.9121L42.5302 10.4468L44.9487 8.11218C45.3902 7.68637 45.1529 6.87879 44.573 6.8274L41.3902 6.52639L40.1447 3.25203C39.9207 2.65736 39.1563 2.65736 38.9322 3.25203L37.6868 6.51905L34.5039 6.82006C33.924 6.87145 33.6868 7.67902 34.1283 8.10484L36.5467 10.4395L35.8219 13.9047C35.6901 14.5361 36.3029 15.0353 36.8037 14.6976L39.5385 12.8622Z" fill="#FFEAD9"/>
<path d="M23.723 12.8622L26.4578 14.7049C26.9586 15.0427 27.5715 14.5434 27.4397 13.9121L26.7148 10.4468L29.1332 8.11218C29.5747 7.68637 29.3375 6.87879 28.7576 6.8274L25.5748 6.52639L24.3293 3.25203C24.1052 2.65736 23.3408 2.65736 23.1168 3.25203L21.8713 6.51905L18.6885 6.82006C18.1086 6.87145 17.8714 7.67902 18.3129 8.10484L20.7313 10.4395L20.0064 13.9047C19.8746 14.5361 20.4875 15.0353 20.9883 14.6976L23.723 12.8622Z" fill="#FFEAD9"/>
<path d="M71.1691 12.8622L73.9038 14.7049C74.4047 15.0427 75.0175 14.5434 74.8857 13.9121L74.1608 10.4468L76.5793 8.11218C77.0208 7.68637 76.7835 6.87879 76.2037 6.8274L73.0208 6.52639L71.7753 3.25203C71.5513 2.65736 70.7869 2.65736 70.5628 3.25203L69.3174 6.51905L66.1345 6.82006C65.5546 6.87145 65.3174 7.67902 65.7589 8.10484L68.1773 10.4395L67.4525 13.9047C67.3207 14.5361 67.9335 15.0353 68.4343 14.6976L71.1691 12.8622Z" fill="#FFEAD9"/>
</g>
<defs>
<clipPath id="clip0_4278_530">
<rect width="79.0769" height="17.6199" fill="white"/>
</clipPath>
</defs>
</svg>
