<?xml version="1.0" encoding="UTF-8"?>
<svg id="Layer_2" data-name="Layer 2" xmlns="http://www.w3.org/2000/svg" viewBox="0 0 453.01 419.15">
  <defs>
    <style>
      .cls-1 {
        fill: #fa9902;
      }

      .cls-2 {
        fill: #f9bb04;
      }

      .cls-3 {
        fill: #fc5308;
      }

      .cls-4 {
        fill: #0246fe;
      }

      .cls-5 {
        fill: #0390cd;
      }

      .cls-6 {
        fill: #fffe33;
      }

      .cls-7 {
        fill: #fd2812;
      }

      .cls-8 {
        fill: #8701b0;
      }

      .cls-9 {
        fill: #b8cd28;
      }

      .cls-10 {
        fill: #a8184b;
      }

      .cls-11 {
        fill: #3f01a4;
      }

      .cls-12 {
        fill: #555e73;
      }

      .cls-13 {
        fill: #4e8528;
      }

      .cls-14 {
        stroke: #3f01a4;
      }

      .cls-14, .cls-15, .cls-16, .cls-17, .cls-18, .cls-19, .cls-20, .cls-21, .cls-22, .cls-23, .cls-24, .cls-25 {
        fill: none;
        stroke-miterlimit: 10;
      }

      .cls-15 {
        stroke: #0390cd;
      }

      .cls-16 {
        stroke: #0246fe;
      }

      .cls-17 {
        stroke: #b8cd28;
      }

      .cls-18 {
        stroke: #8701b0;
      }

      .cls-19 {
        stroke: #fd2812;
      }

      .cls-20 {
        stroke: #fffe33;
      }

      .cls-21 {
        stroke: #4e8528;
      }

      .cls-22 {
        stroke: #a8184b;
      }

      .cls-23 {
        stroke: #fa9902;
      }

      .cls-24 {
        stroke: #f9bb04;
      }

      .cls-25 {
        stroke: #fc5308;
      }
    </style>
  </defs>
  <g id="Layer_1-2" data-name="Layer 1">
    <g id="Layer_1-2" data-name="Layer 1-2">
      <path class="cls-18" d="M11.55,213.86c-.85-.51-2.04-.17-2.46,.76-.68,1.44-1.02,3.06-1.02,4.92,0,6.03-12.23,19.7-5.6,19.7,4.59,0,18.09-9.43,22.84-14.77,.68-.68,.51-1.87-.34-2.29,0-.17-13.42-8.32-13.42-8.32h0Z"/>
      <path class="cls-8" d="M110.47,182.36c-.34,3.48-3.06,5.77-4.25,6.79-1.44,1.27-2.55,1.7-4.25,2.55-4.16,2.12-7.81,4.67-9.34,6.03-3.48,3.06-3.57,7.05-5.01,14.43-1.87,9.51-5.52,18.17-9.68,23.35-6.79,8.49-9.6,10.19-18.17,14.1-10.87,4.92-16.13,6.03-28.45,8.15-.17,0-5.94,.85-7.64,0-.51-.25-1.78-.85-2.29-2.21-.08-.17-.34-.93-.25-2.04,.08-.85,.42-1.95,3.82-5.52,1.53-1.61,3.57-3.57,4.25-4.25,.08-.08,.51-.42,1.02-.93,.34-.34,.59-.59,.68-.76-.68-1.27-1.19-2.63-1.7-4.25-2.21-6.96-1.1-13.33-.08-16.98l-1.36-.08-3.14-.34c-1.36-.17-2.55-1.1-3.06-2.38-.17-.42-.25-.93-.25-1.44,0-1.19,.51-2.29,1.44-3.06,.42-.25,.85-.68,1.36-1.1l1.02-.68,8.32-5.35c.68-.42,1.53-1.27,1.7-1.7-.59-.42-2.29-1.02-3.4-1.7-5.01-3.14-5.86-4.42-7.64-5.94-3.23-2.72-4.16-4.42-4.25-5.94-.76-6.79,9.34-17.58,26.92-21.23,1.95-3.57,4.67-5.6,6.79-5.09,1.7,.34,2.46,2.21,3.4,4.25,1.53,3.4,.76,5.01,.93,10.19,0,1.1,.85,3.65,.85,4.25,1.7,3.99,3.4,7.9,5.18,11.89,0-2.21,.25-5.6,1.7-9.34,.51-1.36,3.14-7.98,10.1-12.82,1.44-.93,10.44-6.96,21.23-4.33,1.87,.51,7.39,1.87,11.04,6.71,1.02,1.44,2.72,3.74,2.46,6.79Z"/>
      <path class="cls-18" d="M27.77,220.74c-.08,.25-.17,.59-.34,.93-.34,.85-1.36,1.1-2.12,.68l-.08-.08-2.63-1.7-11.8-7.47c-.51-.34-.51-1.1,0-1.44,1.78-1.27,3.99-1.95,6.79-2.04,.68,0,1.27,0,1.87,.08,1.02,.08,2.04-.51,2.38-1.53,.93-2.55,1.78-6.71,2.38-5.35,.34,.85,.34,3.82,.08,6.71-.08,.85,.17,1.61,.85,2.21l-1.02,.68c-.51,.42-.93,.76-1.36,1.1-.93,.76-1.44,1.87-1.44,3.06,0,.51,.08,.93,.25,1.44,.51,1.27,1.7,2.21,3.06,2.38,0,0,3.14,.34,3.14,.34Z"/>
    </g>
    <g id="Layer_1-2-2" data-name="Layer 1-2">
      <path class="cls-20" d="M407.04,200.72c-.39-.24-.95-.08-1.14,.35-.32,.67-.47,1.42-.47,2.29,0,2.8-5.68,9.15-2.6,9.15,2.13,0,8.4-4.38,10.61-6.86,.32-.32,.24-.87-.16-1.06,0-.08-6.23-3.87-6.23-3.87h0Z"/>
      <path class="cls-6" d="M453,186.09c-.16,1.62-1.42,2.68-1.97,3.16-.67,.59-1.18,.79-1.97,1.18-1.93,.99-3.63,2.17-4.34,2.8-1.62,1.42-1.66,3.27-2.33,6.71-.87,4.42-2.56,8.44-4.5,10.85-3.16,3.94-4.46,4.73-8.44,6.55-5.05,2.29-7.49,2.8-13.21,3.79-.08,0-2.76,.39-3.55,0-.24-.12-.83-.39-1.06-1.03-.04-.08-.16-.43-.12-.95,.04-.39,.2-.91,1.77-2.56,.71-.75,1.66-1.66,1.97-1.97,.04-.04,.24-.2,.47-.43,.16-.16,.28-.28,.32-.35-.32-.59-.55-1.22-.79-1.97-1.03-3.23-.51-6.19-.04-7.89l-.63-.04-1.46-.16c-.63-.08-1.18-.51-1.42-1.1-.08-.2-.12-.43-.12-.67,0-.55,.24-1.06,.67-1.42,.2-.12,.39-.32,.63-.51l.47-.32,3.87-2.48c.32-.2,.71-.59,.79-.79-.28-.2-1.06-.47-1.58-.79-2.33-1.46-2.72-2.05-3.55-2.76-1.5-1.26-1.93-2.05-1.97-2.76-.35-3.16,4.34-8.16,12.5-9.86,.91-1.66,2.17-2.6,3.16-2.37,.79,.16,1.14,1.03,1.58,1.97,.71,1.58,.35,2.33,.43,4.73,0,.51,.39,1.7,.39,1.97,.79,1.85,1.58,3.67,2.41,5.52,0-1.03,.12-2.6,.79-4.34,.24-.63,1.46-3.71,4.69-5.96,.67-.43,4.85-3.23,9.86-2.01,.87,.24,3.43,.87,5.13,3.12,.47,.67,1.26,1.74,1.14,3.16Z"/>
      <path class="cls-20" d="M414.58,203.92c-.04,.12-.08,.28-.16,.43-.16,.39-.63,.51-.99,.32l-.04-.04-1.22-.79-5.48-3.47c-.24-.16-.24-.51,0-.67,.83-.59,1.85-.91,3.16-.95,.32,0,.59,0,.87,.04,.47,.04,.95-.24,1.1-.71,.43-1.18,.83-3.12,1.1-2.48,.16,.39,.16,1.77,.04,3.12-.04,.39,.08,.75,.39,1.03l-.47,.32c-.24,.2-.43,.35-.63,.51-.43,.35-.67,.87-.67,1.42,0,.24,.04,.43,.12,.67,.24,.59,.79,1.03,1.42,1.1,0,0,1.46,.16,1.46,.16Z"/>
    </g>
    <g id="Layer_1-2-3" data-name="Layer 1-2">
      <path class="cls-24" d="M389.29,114.34c-.39-.24-.95-.08-1.14,.35-.32,.67-.47,1.42-.47,2.29,0,2.8-5.68,9.15-2.6,9.15,2.13,0,8.4-4.38,10.61-6.86,.32-.32,.24-.87-.16-1.06,0-.08-6.23-3.87-6.23-3.87h0Z"/>
      <path class="cls-2" d="M435.25,99.71c-.16,1.62-1.42,2.68-1.97,3.16-.67,.59-1.18,.79-1.97,1.18-1.93,.99-3.63,2.17-4.34,2.8-1.62,1.42-1.66,3.27-2.33,6.71-.87,4.42-2.56,8.44-4.5,10.85-3.16,3.94-4.46,4.73-8.44,6.55-5.05,2.29-7.49,2.8-13.21,3.79-.08,0-2.76,.39-3.55,0-.24-.12-.83-.39-1.06-1.03-.04-.08-.16-.43-.12-.95,.04-.39,.2-.91,1.77-2.56,.71-.75,1.66-1.66,1.97-1.97,.04-.04,.24-.2,.47-.43,.16-.16,.28-.28,.32-.35-.32-.59-.55-1.22-.79-1.97-1.03-3.23-.51-6.19-.04-7.89l-.63-.04-1.46-.16c-.63-.08-1.18-.51-1.42-1.1-.08-.2-.12-.43-.12-.67,0-.55,.24-1.06,.67-1.42,.2-.12,.39-.32,.63-.51l.47-.32,3.87-2.48c.32-.2,.71-.59,.79-.79-.28-.2-1.06-.47-1.58-.79-2.33-1.46-2.72-2.05-3.55-2.76-1.5-1.26-1.93-2.05-1.97-2.76-.35-3.16,4.34-8.16,12.5-9.86,.91-1.66,2.17-2.6,3.16-2.37,.79,.16,1.14,1.03,1.58,1.97,.71,1.58,.35,2.33,.43,4.73,0,.51,.39,1.7,.39,1.97,.79,1.85,1.58,3.67,2.41,5.52,0-1.03,.12-2.6,.79-4.34,.24-.63,1.46-3.71,4.69-5.96,.67-.43,4.85-3.23,9.86-2.01,.87,.24,3.43,.87,5.13,3.12,.47,.67,1.26,1.74,1.14,3.16Z"/>
      <path class="cls-24" d="M396.83,117.54c-.04,.12-.08,.28-.16,.43-.16,.39-.63,.51-.99,.32l-.04-.04-1.22-.79-5.48-3.47c-.24-.16-.24-.51,0-.67,.83-.59,1.85-.91,3.16-.95,.32,0,.59,0,.87,.04,.47,.04,.95-.24,1.1-.71,.43-1.18,.83-3.12,1.1-2.48,.16,.39,.16,1.77,.04,3.12-.04,.39,.08,.75,.39,1.03l-.47,.32c-.24,.2-.43,.35-.63,.51-.43,.35-.67,.87-.67,1.42,0,.24,.04,.43,.12,.67,.24,.59,.79,1.03,1.42,1.1,0,0,1.46,.16,1.46,.16Z"/>
    </g>
    <g id="Layer_1-2-4" data-name="Layer 1-2">
      <path class="cls-23" d="M287.27,49.38c-.85-.51-2.04-.17-2.46,.76-.68,1.44-1.02,3.06-1.02,4.92,0,6.03-12.23,19.7-5.6,19.7,4.59,0,18.09-9.43,22.84-14.77,.68-.68,.51-1.87-.34-2.29,0-.17-13.42-8.32-13.42-8.32h0Z"/>
      <path class="cls-1" d="M386.19,17.88c-.34,3.48-3.06,5.77-4.25,6.79-1.44,1.27-2.55,1.7-4.25,2.55-4.16,2.12-7.81,4.67-9.34,6.03-3.48,3.06-3.57,7.05-5.01,14.43-1.87,9.51-5.52,18.17-9.68,23.35-6.79,8.49-9.6,10.19-18.17,14.1-10.87,4.92-16.13,6.03-28.45,8.15-.17,0-5.94,.85-7.64,0-.51-.25-1.78-.85-2.29-2.21-.08-.17-.34-.93-.25-2.04,.08-.85,.42-1.95,3.82-5.52,1.53-1.61,3.57-3.57,4.25-4.25,.08-.08,.51-.42,1.02-.93,.34-.34,.59-.59,.68-.76-.68-1.27-1.19-2.63-1.7-4.25-2.21-6.96-1.1-13.33-.08-16.98l-1.36-.08-3.14-.34c-1.36-.17-2.55-1.1-3.06-2.38-.17-.42-.25-.93-.25-1.44,0-1.19,.51-2.29,1.44-3.06,.42-.25,.85-.68,1.36-1.1l1.02-.68,8.32-5.35c.68-.42,1.53-1.27,1.7-1.7-.59-.42-2.29-1.02-3.4-1.7-5.01-3.14-5.86-4.42-7.64-5.94-3.23-2.72-4.16-4.42-4.25-5.94-.76-6.79,9.34-17.58,26.92-21.23,1.95-3.57,4.67-5.6,6.79-5.09,1.7,.34,2.46,2.21,3.4,4.25,1.53,3.4,.76,5.01,.93,10.19,0,1.1,.85,3.65,.85,4.25,1.7,3.99,3.4,7.9,5.18,11.89,0-2.21,.25-5.6,1.7-9.34,.51-1.36,3.14-7.98,10.1-12.82,1.44-.93,10.44-6.96,21.23-4.33,1.87,.51,7.39,1.87,11.04,6.71,1.02,1.44,2.72,3.74,2.46,6.79Z"/>
      <path class="cls-23" d="M303.49,56.26c-.08,.25-.17,.59-.34,.93-.34,.85-1.36,1.1-2.12,.68l-.08-.08-2.63-1.7-11.8-7.47c-.51-.34-.51-1.1,0-1.44,1.78-1.27,3.99-1.95,6.79-2.04,.68,0,1.27,0,1.87,.08,1.02,.08,2.04-.51,2.38-1.53,.93-2.55,1.78-6.71,2.38-5.35,.34,.85,.34,3.82,.08,6.71-.08,.85,.17,1.61,.85,2.21l-1.02,.68c-.51,.42-.93,.76-1.36,1.1-.93,.76-1.44,1.87-1.44,3.06,0,.51,.08,.93,.25,1.44,.51,1.27,1.7,2.21,3.06,2.38,0,0,3.14,.34,3.14,.34Z"/>
    </g>
    <g id="Layer_1-2-5" data-name="Layer 1-2">
      <path class="cls-25" d="M218.5,22.83c-.39-.24-.95-.08-1.14,.35-.32,.67-.47,1.42-.47,2.29,0,2.8-5.68,9.15-2.6,9.15,2.13,0,8.4-4.38,10.61-6.86,.32-.32,.24-.87-.16-1.06,0-.08-6.23-3.86-6.23-3.86h0Z"/>
      <path class="cls-3" d="M264.45,8.2c-.16,1.62-1.42,2.68-1.97,3.16-.67,.59-1.18,.79-1.97,1.18-1.93,.99-3.63,2.17-4.34,2.8-1.62,1.42-1.66,3.27-2.33,6.7-.87,4.42-2.56,8.44-4.5,10.85-3.16,3.94-4.46,4.73-8.44,6.55-5.05,2.29-7.49,2.8-13.21,3.79-.08,0-2.76,.39-3.55,0-.24-.12-.83-.39-1.06-1.03-.04-.08-.16-.43-.12-.95,.04-.39,.2-.91,1.77-2.56,.71-.75,1.66-1.66,1.97-1.97,.04-.04,.24-.2,.47-.43,.16-.16,.28-.28,.32-.35-.32-.59-.55-1.22-.79-1.97-1.03-3.23-.51-6.19-.04-7.89l-.63-.04-1.46-.16c-.63-.08-1.18-.51-1.42-1.1-.08-.2-.12-.43-.12-.67,0-.55,.24-1.06,.67-1.42,.2-.12,.39-.32,.63-.51l.47-.32,3.86-2.48c.32-.2,.71-.59,.79-.79-.28-.2-1.06-.47-1.58-.79-2.33-1.46-2.72-2.05-3.55-2.76-1.5-1.26-1.93-2.05-1.97-2.76-.35-3.16,4.34-8.16,12.5-9.86,.91-1.66,2.17-2.6,3.16-2.37,.79,.16,1.14,1.03,1.58,1.97,.71,1.58,.35,2.33,.43,4.73,0,.51,.39,1.7,.39,1.97,.79,1.85,1.58,3.67,2.41,5.52,0-1.03,.12-2.6,.79-4.34,.24-.63,1.46-3.71,4.69-5.96,.67-.43,4.85-3.23,9.86-2.01,.87,.24,3.43,.87,5.13,3.12,.47,.67,1.26,1.74,1.14,3.16Z"/>
      <path class="cls-25" d="M226.04,26.03c-.04,.12-.08,.28-.16,.43-.16,.39-.63,.51-.99,.32l-.04-.04-1.22-.79-5.48-3.47c-.24-.16-.24-.51,0-.67,.83-.59,1.85-.91,3.16-.95,.32,0,.59,0,.87,.04,.47,.04,.95-.24,1.1-.71,.43-1.18,.83-3.12,1.1-2.48,.16,.39,.16,1.77,.04,3.12-.04,.39,.08,.75,.39,1.03l-.47,.32c-.24,.2-.43,.35-.63,.51-.43,.35-.67,.87-.67,1.42,0,.24,.04,.43,.12,.67,.24,.59,.79,1.03,1.42,1.1,0,0,1.46,.16,1.46,.16Z"/>
    </g>
    <g id="Layer_1-2-6" data-name="Layer 1-2">
      <path class="cls-19" d="M115.95,47.68c-.39-.24-.95-.08-1.14,.35-.32,.67-.47,1.42-.47,2.29,0,2.8-5.68,9.15-2.6,9.15,2.13,0,8.4-4.38,10.61-6.86,.32-.32,.24-.87-.16-1.06,0-.08-6.23-3.87-6.23-3.87h0Z"/>
      <path class="cls-7" d="M161.9,33.05c-.16,1.62-1.42,2.68-1.97,3.16-.67,.59-1.18,.79-1.97,1.18-1.93,.99-3.63,2.17-4.34,2.8-1.62,1.42-1.66,3.27-2.33,6.71-.87,4.42-2.56,8.44-4.5,10.85-3.16,3.94-4.46,4.73-8.44,6.55-5.05,2.29-7.49,2.8-13.21,3.79-.08,0-2.76,.39-3.55,0-.24-.12-.83-.39-1.06-1.03-.04-.08-.16-.43-.12-.95,.04-.39,.2-.91,1.77-2.56,.71-.75,1.66-1.66,1.97-1.97,.04-.04,.24-.2,.47-.43,.16-.16,.28-.28,.32-.35-.32-.59-.55-1.22-.79-1.97-1.03-3.23-.51-6.19-.04-7.89l-.63-.04-1.46-.16c-.63-.08-1.18-.51-1.42-1.1-.08-.2-.12-.43-.12-.67,0-.55,.24-1.06,.67-1.42,.2-.12,.39-.32,.63-.51l.47-.32,3.87-2.48c.32-.2,.71-.59,.79-.79-.28-.2-1.06-.47-1.58-.79-2.33-1.46-2.72-2.05-3.55-2.76-1.5-1.26-1.93-2.05-1.97-2.76-.35-3.16,4.34-8.16,12.5-9.86,.91-1.66,2.17-2.6,3.16-2.37,.79,.16,1.14,1.03,1.58,1.97,.71,1.58,.35,2.33,.43,4.73,0,.51,.39,1.7,.39,1.97,.79,1.85,1.58,3.67,2.41,5.52,0-1.03,.12-2.6,.79-4.34,.24-.63,1.46-3.71,4.69-5.96,.67-.43,4.85-3.23,9.86-2.01,.87,.24,3.43,.87,5.13,3.12,.47,.67,1.26,1.74,1.14,3.16Z"/>
      <path class="cls-19" d="M123.48,50.88c-.04,.12-.08,.28-.16,.43-.16,.39-.63,.51-.99,.32l-.04-.04-1.22-.79-5.48-3.47c-.24-.16-.24-.51,0-.67,.83-.59,1.85-.91,3.16-.95,.32,0,.59,0,.87,.04,.47,.04,.95-.24,1.1-.71,.43-1.18,.83-3.12,1.1-2.48,.16,.39,.16,1.77,.04,3.12-.04,.39,.08,.75,.39,1.03l-.47,.32c-.24,.2-.43,.35-.63,.51-.43,.35-.67,.87-.67,1.42,0,.24,.04,.43,.12,.67,.24,.59,.79,1.03,1.42,1.1,0,0,1.46,.16,1.46,.16Z"/>
    </g>
    <g id="Layer_1-2-7" data-name="Layer 1-2">
      <path class="cls-22" d="M51.26,121.05c-.39-.24-.95-.08-1.14,.35-.32,.67-.47,1.42-.47,2.29,0,2.8-5.68,9.15-2.6,9.15,2.13,0,8.4-4.38,10.61-6.86,.32-.32,.24-.87-.16-1.06,0-.08-6.23-3.87-6.23-3.87h0Z"/>
      <path class="cls-10" d="M97.21,106.41c-.16,1.62-1.42,2.68-1.97,3.16-.67,.59-1.18,.79-1.97,1.18-1.93,.99-3.63,2.17-4.34,2.8-1.62,1.42-1.66,3.27-2.33,6.71-.87,4.42-2.56,8.44-4.5,10.85-3.16,3.94-4.46,4.73-8.44,6.55-5.05,2.29-7.49,2.8-13.21,3.79-.08,0-2.76,.39-3.55,0-.24-.12-.83-.39-1.06-1.03-.04-.08-.16-.43-.12-.95,.04-.39,.2-.91,1.77-2.56,.71-.75,1.66-1.66,1.97-1.97,.04-.04,.24-.2,.47-.43,.16-.16,.28-.28,.32-.35-.32-.59-.55-1.22-.79-1.97-1.03-3.23-.51-6.19-.04-7.89l-.63-.04-1.46-.16c-.63-.08-1.18-.51-1.42-1.1-.08-.2-.12-.43-.12-.67,0-.55,.24-1.06,.67-1.42,.2-.12,.39-.32,.63-.51l.47-.32,3.87-2.48c.32-.2,.71-.59,.79-.79-.28-.2-1.06-.47-1.58-.79-2.33-1.46-2.72-2.05-3.55-2.76-1.5-1.26-1.93-2.05-1.97-2.76-.35-3.16,4.34-8.16,12.5-9.86,.91-1.66,2.17-2.6,3.16-2.37,.79,.16,1.14,1.03,1.58,1.97,.71,1.58,.35,2.33,.43,4.73,0,.51,.39,1.7,.39,1.97,.79,1.85,1.58,3.67,2.41,5.52,0-1.03,.12-2.6,.79-4.34,.24-.63,1.46-3.71,4.69-5.96,.67-.43,4.85-3.23,9.86-2.01,.87,.24,3.43,.87,5.13,3.12,.47,.67,1.26,1.74,1.14,3.16Z"/>
      <path class="cls-22" d="M58.79,124.24c-.04,.12-.08,.28-.16,.43-.16,.39-.63,.51-.99,.32l-.04-.04-1.22-.79-5.48-3.47c-.24-.16-.24-.51,0-.67,.83-.59,1.85-.91,3.16-.95,.32,0,.59,0,.87,.04,.47,.04,.95-.24,1.1-.71,.43-1.18,.83-3.12,1.1-2.48,.16,.39,.16,1.77,.04,3.12-.04,.39,.08,.75,.39,1.03l-.47,.32c-.24,.2-.43,.35-.63,.51-.43,.35-.67,.87-.67,1.42,0,.24,.04,.43,.12,.67,.24,.59,.79,1.03,1.42,1.1,0,0,1.46,.16,1.46,.16Z"/>
    </g>
    <g id="Layer_1-2-8" data-name="Layer 1-2">
      <path class="cls-14" d="M57.96,304.07c-.39-.24-.95-.08-1.14,.35-.32,.67-.47,1.42-.47,2.29,0,2.8-5.68,9.15-2.6,9.15,2.13,0,8.4-4.38,10.61-6.86,.32-.32,.24-.87-.16-1.06,0-.08-6.23-3.87-6.23-3.87h0Z"/>
      <path class="cls-11" d="M103.91,289.43c-.16,1.62-1.42,2.68-1.97,3.16-.67,.59-1.18,.79-1.97,1.18-1.93,.99-3.63,2.17-4.34,2.8-1.62,1.42-1.66,3.27-2.33,6.71-.87,4.42-2.56,8.44-4.5,10.85-3.16,3.94-4.46,4.73-8.44,6.55-5.05,2.29-7.49,2.8-13.21,3.79-.08,0-2.76,.39-3.55,0-.24-.12-.83-.39-1.06-1.03-.04-.08-.16-.43-.12-.95,.04-.39,.2-.91,1.77-2.56,.71-.75,1.66-1.66,1.97-1.97,.04-.04,.24-.2,.47-.43,.16-.16,.28-.28,.32-.35-.32-.59-.55-1.22-.79-1.97-1.03-3.23-.51-6.19-.04-7.89l-.63-.04-1.46-.16c-.63-.08-1.18-.51-1.42-1.1-.08-.2-.12-.43-.12-.67,0-.55,.24-1.06,.67-1.42,.2-.12,.39-.32,.63-.51l.47-.32,3.87-2.48c.32-.2,.71-.59,.79-.79-.28-.2-1.06-.47-1.58-.79-2.33-1.46-2.72-2.05-3.55-2.76-1.5-1.26-1.93-2.05-1.97-2.76-.35-3.16,4.34-8.16,12.5-9.86,.91-1.66,2.17-2.6,3.16-2.37,.79,.16,1.14,1.03,1.58,1.97,.71,1.58,.35,2.33,.43,4.73,0,.51,.39,1.7,.39,1.97,.79,1.85,1.58,3.67,2.41,5.52,0-1.03,.12-2.6,.79-4.34,.24-.63,1.46-3.71,4.69-5.96,.67-.43,4.85-3.23,9.86-2.01,.87,.24,3.43,.87,5.13,3.12,.47,.67,1.26,1.74,1.14,3.16Z"/>
      <path class="cls-14" d="M65.5,307.26c-.04,.12-.08,.28-.16,.43-.16,.39-.63,.51-.99,.32l-.04-.04-1.22-.79-5.48-3.47c-.24-.16-.24-.51,0-.67,.83-.59,1.85-.91,3.16-.95,.32,0,.59,0,.87,.04,.47,.04,.95-.24,1.1-.71,.43-1.18,.83-3.12,1.1-2.48,.16,.39,.16,1.77,.04,3.12-.04,.39,.08,.75,.39,1.03l-.47,.32c-.24,.2-.43,.35-.63,.51-.43,.35-.67,.87-.67,1.42,0,.24,.04,.43,.12,.67,.24,.59,.79,1.03,1.42,1.1,0,0,1.46,.16,1.46,.16Z"/>
    </g>
    <g id="Layer_1-2-9" data-name="Layer 1-2">
      <path class="cls-16" d="M123.05,362.05c-.39-.24-.95-.08-1.14,.35-.32,.67-.47,1.42-.47,2.29,0,2.8-5.68,9.15-2.6,9.15,2.13,0,8.4-4.38,10.61-6.86,.32-.32,.24-.87-.16-1.06,0-.08-6.23-3.87-6.23-3.87h0Z"/>
      <path class="cls-4" d="M169,347.42c-.16,1.62-1.42,2.68-1.97,3.16-.67,.59-1.18,.79-1.97,1.18-1.93,.99-3.63,2.17-4.34,2.8-1.62,1.42-1.66,3.27-2.33,6.71-.87,4.42-2.56,8.44-4.5,10.85-3.16,3.94-4.46,4.73-8.44,6.55-5.05,2.29-7.49,2.8-13.21,3.79-.08,0-2.76,.39-3.55,0-.24-.12-.83-.39-1.06-1.03-.04-.08-.16-.43-.12-.95,.04-.39,.2-.91,1.77-2.56,.71-.75,1.66-1.66,1.97-1.97,.04-.04,.24-.2,.47-.43,.16-.16,.28-.28,.32-.35-.32-.59-.55-1.22-.79-1.97-1.03-3.23-.51-6.19-.04-7.89l-.63-.04-1.46-.16c-.63-.08-1.18-.51-1.42-1.1-.08-.2-.12-.43-.12-.67,0-.55,.24-1.06,.67-1.42,.2-.12,.39-.32,.63-.51l.47-.32,3.87-2.48c.32-.2,.71-.59,.79-.79-.28-.2-1.06-.47-1.58-.79-2.33-1.46-2.72-2.05-3.55-2.76-1.5-1.26-1.93-2.05-1.97-2.76-.35-3.16,4.34-8.16,12.5-9.86,.91-1.66,2.17-2.6,3.16-2.37,.79,.16,1.14,1.03,1.58,1.97,.71,1.58,.35,2.33,.43,4.73,0,.51,.39,1.7,.39,1.97,.79,1.85,1.58,3.67,2.41,5.52,0-1.03,.12-2.6,.79-4.34,.24-.63,1.46-3.71,4.69-5.96,.67-.43,4.85-3.23,9.86-2.01,.87,.24,3.43,.87,5.13,3.12,.47,.67,1.26,1.74,1.14,3.16Z"/>
      <path class="cls-16" d="M130.58,365.25c-.04,.12-.08,.28-.16,.43-.16,.39-.63,.51-.99,.32l-.04-.04-1.22-.79-5.48-3.47c-.24-.16-.24-.51,0-.67,.83-.59,1.85-.91,3.16-.95,.32,0,.59,0,.87,.04,.47,.04,.95-.24,1.1-.71,.43-1.18,.83-3.12,1.1-2.48,.16,.39,.16,1.77,.04,3.12-.04,.39,.08,.75,.39,1.03l-.47,.32c-.24,.2-.43,.35-.63,.51-.43,.35-.67,.87-.67,1.42,0,.24,.04,.43,.12,.67,.24,.59,.79,1.03,1.42,1.1,0,0,1.46,.16,1.46,.16Z"/>
    </g>
    <g id="Layer_1-2-10" data-name="Layer 1-2">
      <path class="cls-15" d="M215.74,392.42c-.39-.24-.95-.08-1.14,.35-.32,.67-.47,1.42-.47,2.29,0,2.8-5.68,9.15-2.6,9.15,2.13,0,8.4-4.38,10.61-6.86,.32-.32,.24-.87-.16-1.06,0-.08-6.23-3.86-6.23-3.86h0Z"/>
      <path class="cls-5" d="M261.69,377.79c-.16,1.62-1.42,2.68-1.97,3.16-.67,.59-1.18,.79-1.97,1.18-1.93,.99-3.63,2.17-4.34,2.8-1.62,1.42-1.66,3.27-2.33,6.7-.87,4.42-2.56,8.44-4.5,10.85-3.16,3.94-4.46,4.73-8.44,6.55-5.05,2.29-7.49,2.8-13.21,3.79-.08,0-2.76,.39-3.55,0-.24-.12-.83-.39-1.06-1.03-.04-.08-.16-.43-.12-.95,.04-.39,.2-.91,1.77-2.56,.71-.75,1.66-1.66,1.97-1.97,.04-.04,.24-.2,.47-.43,.16-.16,.28-.28,.32-.35-.32-.59-.55-1.22-.79-1.97-1.03-3.23-.51-6.19-.04-7.89l-.63-.04-1.46-.16c-.63-.08-1.18-.51-1.42-1.1-.08-.2-.12-.43-.12-.67,0-.55,.24-1.06,.67-1.42,.2-.12,.39-.32,.63-.51l.47-.32,3.86-2.48c.32-.2,.71-.59,.79-.79-.28-.2-1.06-.47-1.58-.79-2.33-1.46-2.72-2.05-3.55-2.76-1.5-1.26-1.93-2.05-1.97-2.76-.35-3.16,4.34-8.16,12.5-9.86,.91-1.66,2.17-2.6,3.16-2.37,.79,.16,1.14,1.03,1.58,1.97,.71,1.58,.35,2.33,.43,4.73,0,.51,.39,1.7,.39,1.97,.79,1.85,1.58,3.67,2.41,5.52,0-1.03,.12-2.6,.79-4.34,.24-.63,1.46-3.71,4.69-5.96,.67-.43,4.85-3.23,9.86-2.01,.87,.24,3.43,.87,5.13,3.12,.47,.67,1.26,1.74,1.14,3.16Z"/>
      <path class="cls-15" d="M223.28,395.62c-.04,.12-.08,.28-.16,.43-.16,.39-.63,.51-.99,.32l-.04-.04-1.22-.79-5.48-3.47c-.24-.16-.24-.51,0-.67,.83-.59,1.85-.91,3.16-.95,.32,0,.59,0,.87,.04,.47,.04,.95-.24,1.1-.71,.43-1.18,.83-3.12,1.1-2.48,.16,.39,.16,1.77,.04,3.12-.04,.39,.08,.75,.39,1.03l-.47,.32c-.24,.2-.43,.35-.63,.51-.43,.35-.67,.87-.67,1.42,0,.24,.04,.43,.12,.67,.24,.59,.79,1.03,1.42,1.1,0,0,1.46,.16,1.46,.16Z"/>
    </g>
    <g id="Layer_1-2-11" data-name="Layer 1-2">
      <path class="cls-21" d="M309.22,368.76c-.39-.24-.95-.08-1.14,.35-.32,.67-.47,1.42-.47,2.29,0,2.8-5.68,9.15-2.6,9.15,2.13,0,8.4-4.38,10.61-6.86,.32-.32,.24-.87-.16-1.06,0-.08-6.23-3.87-6.23-3.87h0Z"/>
      <path class="cls-13" d="M384.1,335.57c-.37,3.84-3.37,6.37-4.68,7.49-1.59,1.4-2.81,1.87-4.68,2.81-4.59,2.34-8.62,5.15-10.3,6.65-3.84,3.37-3.93,7.77-5.53,15.92-2.06,10.49-6.09,20.04-10.68,25.75-7.49,9.37-10.58,11.24-20.04,15.55-11.99,5.43-17.79,6.65-31.37,8.99-.19,0-6.56,.94-8.43,0-.56-.28-1.97-.94-2.53-2.43-.09-.19-.37-1.03-.28-2.25,.09-.94,.47-2.15,4.21-6.09,1.69-1.78,3.93-3.93,4.68-4.68,.09-.09,.56-.47,1.12-1.03,.37-.37,.66-.66,.75-.84-.75-1.4-1.31-2.9-1.87-4.68-2.43-7.68-1.22-14.7-.09-18.73l-1.5-.09-3.47-.37c-1.5-.19-2.81-1.22-3.37-2.62-.19-.47-.28-1.03-.28-1.59,0-1.31,.56-2.53,1.59-3.37,.47-.28,.94-.75,1.5-1.22l1.12-.75,9.18-5.9c.75-.47,1.69-1.4,1.87-1.87-.66-.47-2.53-1.12-3.75-1.87-5.53-3.47-6.46-4.87-8.43-6.56-3.56-3-4.59-4.87-4.68-6.56-.84-7.49,10.3-19.39,29.69-23.41,2.15-3.93,5.15-6.18,7.49-5.62,1.87,.37,2.72,2.43,3.75,4.68,1.69,3.75,.84,5.53,1.03,11.24,0,1.22,.94,4.03,.94,4.68,1.87,4.4,3.75,8.71,5.71,13.11,0-2.43,.28-6.18,1.87-10.3,.56-1.5,3.47-8.8,11.14-14.14,1.59-1.03,11.52-7.68,23.41-4.78,2.06,.56,8.15,2.06,12.17,7.4,1.12,1.59,3,4.12,2.72,7.49Z"/>
      <path class="cls-21" d="M316.76,371.95c-.04,.12-.08,.28-.16,.43-.16,.39-.63,.51-.99,.32l-.04-.04-1.22-.79-5.48-3.47c-.24-.16-.24-.51,0-.67,.83-.59,1.85-.91,3.16-.95,.32,0,.59,0,.87,.04,.47,.04,.95-.24,1.1-.71,.43-1.18,.83-3.12,1.1-2.48,.16,.39,.16,1.77,.04,3.12-.04,.39,.08,.75,.39,1.03l-.47,.32c-.24,.2-.43,.35-.63,.51-.43,.35-.67,.87-.67,1.42,0,.24,.04,.43,.12,.67,.24,.59,.79,1.03,1.42,1.1,0,0,1.46,.16,1.46,.16Z"/>
    </g>
    <g id="Layer_1-2-12" data-name="Layer 1-2">
      <path class="cls-17" d="M381.4,302.88c-.39-.24-.95-.08-1.14,.35-.32,.67-.47,1.42-.47,2.29,0,2.8-5.68,9.15-2.6,9.15,2.13,0,8.4-4.38,10.61-6.86,.32-.32,.24-.87-.16-1.06,0-.08-6.23-3.87-6.23-3.87h0Z"/>
      <path class="cls-9" d="M427.36,288.25c-.16,1.62-1.42,2.68-1.97,3.16-.67,.59-1.18,.79-1.97,1.18-1.93,.99-3.63,2.17-4.34,2.8-1.62,1.42-1.66,3.27-2.33,6.71-.87,4.42-2.56,8.44-4.5,10.85-3.16,3.94-4.46,4.73-8.44,6.55-5.05,2.29-7.49,2.8-13.21,3.79-.08,0-2.76,.39-3.55,0-.24-.12-.83-.39-1.06-1.03-.04-.08-.16-.43-.12-.95,.04-.39,.2-.91,1.77-2.56,.71-.75,1.66-1.66,1.97-1.97,.04-.04,.24-.2,.47-.43,.16-.16,.28-.28,.32-.35-.32-.59-.55-1.22-.79-1.97-1.03-3.23-.51-6.19-.04-7.89l-.63-.04-1.46-.16c-.63-.08-1.18-.51-1.42-1.1-.08-.2-.12-.43-.12-.67,0-.55,.24-1.06,.67-1.42,.2-.12,.39-.32,.63-.51l.47-.32,3.87-2.48c.32-.2,.71-.59,.79-.79-.28-.2-1.06-.47-1.58-.79-2.33-1.46-2.72-2.05-3.55-2.76-1.5-1.26-1.93-2.05-1.97-2.76-.35-3.16,4.34-8.16,12.5-9.86,.91-1.66,2.17-2.6,3.16-2.37,.79,.16,1.14,1.03,1.58,1.97,.71,1.58,.35,2.33,.43,4.73,0,.51,.39,1.7,.39,1.97,.79,1.85,1.58,3.67,2.41,5.52,0-1.03,.12-2.6,.79-4.34,.24-.63,1.46-3.71,4.69-5.96,.67-.43,4.85-3.23,9.86-2.01,.87,.24,3.43,.87,5.13,3.12,.47,.67,1.26,1.74,1.14,3.16Z"/>
      <path class="cls-17" d="M388.94,306.08c-.04,.12-.08,.28-.16,.43-.16,.39-.63,.51-.99,.32l-.04-.04-1.22-.79-5.48-3.47c-.24-.16-.24-.51,0-.67,.83-.59,1.85-.91,3.16-.95,.32,0,.59,0,.87,.04,.47,.04,.95-.24,1.1-.71,.43-1.18,.83-3.12,1.1-2.48,.16,.39,.16,1.77,.04,3.12-.04,.39,.08,.75,.39,1.03l-.47,.32c-.24,.2-.43,.35-.63,.51-.43,.35-.67,.87-.67,1.42,0,.24,.04,.43,.12,.67,.24,.59,.79,1.03,1.42,1.1,0,0,1.46,.16,1.46,.16Z"/>
    </g>
    <g>
      <path class="cls-12" d="M168.26,200.75h-5.15v-1.24h5.15v1.24Zm-1.78-3.55v9.47c0,.33,.05,.57,.15,.74s.23,.27,.39,.33,.33,.08,.51,.08c.13,0,.28-.01,.43-.04,.15-.02,.26-.04,.33-.06v1.31c-.12,.04-.29,.08-.5,.12-.21,.04-.46,.06-.75,.06-.4,0-.76-.08-1.1-.24s-.6-.42-.8-.8c-.2-.37-.3-.87-.3-1.51v-9.46h1.64Z"/>
      <path class="cls-12" d="M171.79,209.02h-1.64v-9.51h1.6l.04,1.49v8.02Zm2.96-8.06c-.14-.03-.27-.05-.39-.06-.12,0-.26-.01-.41-.01-.5,0-.92,.1-1.26,.31-.34,.21-.61,.49-.8,.85-.19,.36-.3,.77-.35,1.24l-.47,.26c0-.77,.1-1.47,.31-2.1s.53-1.15,.96-1.53,1-.58,1.68-.58c.11,0,.24,.01,.4,.04,.15,.03,.26,.05,.32,.08v1.5Z"/>
      <path class="cls-12" d="M176.26,196.98c0-.26,.08-.48,.24-.66,.16-.18,.4-.27,.72-.27s.56,.09,.73,.27c.17,.18,.25,.4,.25,.66s-.08,.47-.25,.65c-.17,.18-.41,.27-.73,.27s-.56-.09-.72-.27c-.16-.18-.24-.39-.24-.65Zm1.77,12.04h-1.64v-9.51h1.64v9.51Z"/>
      <path class="cls-12" d="M186.53,204.4h-1.63c-.93,0-1.64,.15-2.14,.44s-.76,.73-.76,1.32c0,.46,.15,.84,.46,1.16,.31,.32,.76,.47,1.35,.47,.5,0,.94-.11,1.32-.32s.68-.47,.91-.78,.34-.61,.36-.9l.7,.78c-.04,.25-.15,.52-.33,.82s-.42,.58-.72,.86c-.3,.27-.66,.5-1.07,.68-.41,.18-.88,.27-1.39,.27-.64,0-1.21-.12-1.69-.37-.48-.25-.86-.59-1.12-1.02s-.4-.9-.4-1.42c0-1.03,.39-1.8,1.16-2.33,.77-.53,1.81-.79,3.12-.79h1.88l.02,1.14Zm-.3-1.9c0-.57-.17-1.02-.51-1.36s-.83-.51-1.49-.51c-.4,0-.76,.07-1.07,.21-.31,.14-.55,.33-.72,.55s-.25,.48-.25,.75h-1.64c0-.46,.16-.9,.47-1.33,.31-.43,.75-.78,1.31-1.06s1.23-.42,2-.42c.69,0,1.3,.12,1.84,.35s.95,.59,1.25,1.06c.3,.47,.45,1.06,.45,1.77v4.43c0,.32,.03,.65,.08,1.01s.14,.67,.25,.92v.14h-1.71c-.08-.19-.15-.44-.19-.75-.05-.31-.07-.6-.07-.87v-4.9Z"/>
      <path class="cls-12" d="M190.03,204.19c0-.97,.16-1.81,.47-2.54,.31-.73,.75-1.3,1.31-1.7s1.22-.61,1.98-.61c.8,0,1.46,.18,2,.55,.53,.37,.95,.89,1.25,1.56s.5,1.48,.58,2.41v.85c-.09,.92-.28,1.72-.58,2.39-.3,.67-.72,1.19-1.25,1.56-.54,.37-1.21,.55-2.02,.55-.74,0-1.4-.21-1.96-.63-.56-.42-1-.99-1.31-1.72s-.47-1.55-.47-2.48v-.18Zm1.64,.18c0,.63,.09,1.21,.26,1.73,.17,.52,.44,.94,.81,1.25,.37,.31,.85,.47,1.43,.47,.54,0,.98-.11,1.33-.34s.63-.53,.84-.91,.38-.78,.49-1.22v-2.14c-.07-.32-.17-.63-.3-.94-.13-.3-.3-.57-.51-.81-.21-.24-.46-.43-.77-.57s-.66-.21-1.07-.21c-.59,0-1.07,.16-1.45,.47s-.64,.74-.82,1.27c-.17,.53-.26,1.11-.26,1.74v.18Zm4.75-8.85h1.64v13.5h-1.5l-.14-1.85v-11.65Z"/>
      <path class="cls-12" d="M200.6,196.98c0-.26,.08-.48,.24-.66,.16-.18,.4-.27,.72-.27s.56,.09,.73,.27c.17,.18,.25,.4,.25,.66s-.08,.47-.25,.65c-.17,.18-.41,.27-.73,.27s-.56-.09-.72-.27c-.16-.18-.24-.39-.24-.65Zm1.77,12.04h-1.64v-9.51h1.64v9.51Z"/>
      <path class="cls-12" d="M208.78,207.88c.39,0,.74-.08,1.07-.24,.33-.16,.6-.38,.81-.66s.33-.6,.36-.96h1.56c-.03,.56-.22,1.09-.57,1.57-.35,.48-.81,.87-1.37,1.17-.56,.29-1.18,.44-1.85,.44-.96,0-1.75-.22-2.37-.65s-1.09-1.02-1.4-1.74c-.31-.72-.46-1.51-.46-2.36v-.37c0-.86,.16-1.64,.47-2.36s.78-1.29,1.41-1.73c.63-.44,1.42-.65,2.36-.65,.74,0,1.4,.15,1.96,.45s1,.71,1.32,1.23c.32,.52,.49,1.11,.52,1.76h-1.56c-.03-.39-.14-.75-.33-1.07-.19-.32-.45-.58-.77-.77-.33-.19-.71-.29-1.14-.29-.66,0-1.18,.17-1.56,.51-.38,.34-.64,.77-.8,1.3-.16,.52-.23,1.06-.23,1.62v.37c0,.56,.08,1.1,.23,1.63s.42,.96,.8,1.3c.38,.34,.9,.51,1.57,.51Z"/>
      <path class="cls-12" d="M222.67,207.88c.39,0,.74-.08,1.07-.24,.33-.16,.6-.38,.81-.66s.33-.6,.36-.96h1.56c-.03,.56-.22,1.09-.57,1.57-.35,.48-.81,.87-1.37,1.17-.56,.29-1.18,.44-1.85,.44-.96,0-1.75-.22-2.37-.65s-1.09-1.02-1.4-1.74c-.31-.72-.46-1.51-.46-2.36v-.37c0-.86,.16-1.64,.47-2.36s.78-1.29,1.41-1.73c.63-.44,1.42-.65,2.36-.65,.74,0,1.4,.15,1.96,.45s1,.71,1.32,1.23c.32,.52,.49,1.11,.52,1.76h-1.56c-.03-.39-.14-.75-.33-1.07-.19-.32-.45-.58-.77-.77-.33-.19-.71-.29-1.14-.29-.66,0-1.18,.17-1.56,.51-.38,.34-.64,.77-.8,1.3-.16,.52-.23,1.06-.23,1.62v.37c0,.56,.08,1.1,.23,1.63s.42,.96,.8,1.3c.38,.34,.9,.51,1.57,.51Z"/>
      <path class="cls-12" d="M227.87,204.17c0-.92,.18-1.74,.53-2.47s.85-1.3,1.49-1.73c.64-.42,1.41-.64,2.29-.64s1.67,.21,2.32,.64c.65,.43,1.15,1,1.5,1.73,.35,.73,.52,1.55,.52,2.47v.2c0,.91-.17,1.74-.52,2.47-.35,.73-.85,1.3-1.49,1.73-.65,.42-1.42,.63-2.31,.63s-1.66-.21-2.31-.63-1.15-1-1.5-1.73c-.35-.73-.53-1.55-.53-2.47v-.2Zm1.64,.2c0,.63,.1,1.21,.3,1.74s.5,.96,.89,1.28c.4,.32,.9,.48,1.5,.48s1.09-.16,1.49-.48c.4-.32,.69-.75,.89-1.28s.3-1.11,.3-1.74v-.2c0-.63-.1-1.21-.3-1.74s-.5-.96-.9-1.29c-.4-.33-.9-.49-1.5-.49s-1.09,.16-1.49,.49c-.4,.32-.7,.75-.89,1.29s-.29,1.11-.29,1.74v.2Z"/>
      <path class="cls-12" d="M240.35,209.02h-1.64v-13.5h1.64v13.5Z"/>
      <path class="cls-12" d="M242.52,204.17c0-.92,.18-1.74,.53-2.47s.85-1.3,1.49-1.73c.64-.42,1.41-.64,2.29-.64s1.67,.21,2.32,.64c.65,.43,1.15,1,1.5,1.73,.35,.73,.52,1.55,.52,2.47v.2c0,.91-.17,1.74-.52,2.47-.35,.73-.85,1.3-1.49,1.73-.65,.42-1.42,.63-2.31,.63s-1.66-.21-2.31-.63-1.15-1-1.5-1.73c-.35-.73-.53-1.55-.53-2.47v-.2Zm1.64,.2c0,.63,.1,1.21,.3,1.74s.5,.96,.89,1.28c.4,.32,.9,.48,1.5,.48s1.09-.16,1.49-.48c.4-.32,.69-.75,.89-1.28s.3-1.11,.3-1.74v-.2c0-.63-.1-1.21-.3-1.74s-.5-.96-.9-1.29c-.4-.33-.9-.49-1.5-.49s-1.09,.16-1.49,.49c-.4,.32-.7,.75-.89,1.29s-.29,1.11-.29,1.74v.2Z"/>
      <path class="cls-12" d="M260.02,204.8c0,.84-.12,1.6-.36,2.26s-.63,1.18-1.18,1.56-1.27,.57-2.19,.57-1.68-.28-2.26-.83-.86-1.46-.86-2.72v-6.13h1.64v6.15c0,.57,.08,1.02,.25,1.33,.17,.31,.38,.53,.65,.65,.27,.12,.55,.18,.84,.18,.69,0,1.24-.13,1.64-.4,.4-.27,.69-.63,.87-1.08s.26-.96,.26-1.52l.69-.02Zm-.99-5.29h1.64v9.51h-1.56l-.08-2.2v-7.31Z"/>
      <path class="cls-12" d="M264.78,209.02h-1.64v-9.51h1.6l.04,1.49v8.02Zm2.96-8.06c-.14-.03-.27-.05-.39-.06-.12,0-.26-.01-.41-.01-.5,0-.92,.1-1.26,.31-.34,.21-.61,.49-.8,.85-.19,.36-.3,.77-.35,1.24l-.47,.26c0-.77,.1-1.47,.31-2.1s.53-1.15,.96-1.53,1-.58,1.68-.58c.11,0,.24,.01,.4,.04,.15,.03,.26,.05,.32,.08v1.5Z"/>
      <path class="cls-12" d="M279.24,206.5c0-.23-.05-.45-.15-.66-.1-.2-.31-.39-.62-.55-.31-.17-.78-.32-1.41-.44-.7-.15-1.31-.33-1.82-.56s-.91-.51-1.19-.87c-.28-.35-.42-.79-.42-1.31s.14-.96,.44-1.38c.29-.42,.7-.76,1.23-1.01,.53-.26,1.15-.38,1.86-.38,.76,0,1.41,.13,1.96,.4,.54,.27,.96,.62,1.24,1.07,.29,.45,.43,.94,.43,1.49h-1.64c0-.39-.17-.76-.51-1.12-.34-.35-.83-.53-1.47-.53-.45,0-.81,.07-1.08,.21-.28,.14-.48,.31-.61,.53s-.19,.44-.19,.67,.06,.44,.18,.61,.33,.33,.65,.46,.77,.27,1.37,.4c.78,.18,1.42,.39,1.92,.63s.88,.55,1.12,.91,.37,.79,.37,1.31c0,.55-.15,1.04-.46,1.46-.3,.43-.73,.76-1.28,.99-.55,.24-1.2,.36-1.94,.36-.84,0-1.55-.15-2.13-.45s-1.02-.68-1.32-1.16-.45-.97-.45-1.5h1.64c.03,.45,.16,.8,.39,1.06s.52,.45,.85,.56c.34,.11,.67,.17,1.01,.17,.45,0,.82-.06,1.12-.18,.3-.12,.53-.28,.69-.49,.15-.21,.23-.44,.23-.71Z"/>
      <path class="cls-12" d="M286.8,207.88c.39,0,.74-.08,1.07-.24,.33-.16,.6-.38,.81-.66s.33-.6,.36-.96h1.56c-.03,.56-.22,1.09-.57,1.57-.35,.48-.81,.87-1.37,1.17-.56,.29-1.18,.44-1.85,.44-.96,0-1.75-.22-2.37-.65s-1.09-1.02-1.4-1.74c-.31-.72-.46-1.51-.46-2.36v-.37c0-.86,.16-1.64,.47-2.36s.78-1.29,1.41-1.73c.63-.44,1.42-.65,2.36-.65,.74,0,1.4,.15,1.96,.45s1,.71,1.32,1.23c.32,.52,.49,1.11,.52,1.76h-1.56c-.03-.39-.14-.75-.33-1.07-.19-.32-.45-.58-.77-.77-.33-.19-.71-.29-1.14-.29-.66,0-1.18,.17-1.56,.51-.38,.34-.64,.77-.8,1.3-.16,.52-.23,1.06-.23,1.62v.37c0,.56,.08,1.1,.23,1.63s.42,.96,.8,1.3c.38,.34,.9,.51,1.57,.51Z"/>
      <path class="cls-12" d="M294.06,209.02h-1.64v-13.5h1.64v13.5Zm-1.07-5.15c.01-.87,.18-1.64,.5-2.32s.77-1.22,1.35-1.62c.58-.4,1.25-.59,2.02-.59,.63,0,1.17,.12,1.62,.35,.45,.23,.8,.6,1.05,1.1,.25,.5,.37,1.17,.37,2v6.23h-1.64v-6.25c0-.5-.07-.9-.22-1.2s-.36-.53-.64-.66c-.28-.14-.63-.21-1.04-.21s-.77,.08-1.1,.25-.61,.4-.85,.7-.42,.64-.55,1.02c-.13,.38-.19,.79-.19,1.22l-.69-.03Z"/>
      <path class="cls-12" d="M306.29,209.2c-.88,0-1.65-.2-2.31-.59-.65-.39-1.16-.94-1.52-1.63-.36-.69-.54-1.48-.54-2.37v-.38c0-1.03,.2-1.91,.59-2.64,.4-.73,.91-1.29,1.55-1.67s1.31-.58,2.02-.58c.91,0,1.66,.2,2.24,.61s1,.96,1.28,1.66c.27,.7,.41,1.49,.41,2.38v.73h-7.1v-1.32h5.46v-.12c-.02-.42-.11-.83-.25-1.23s-.38-.73-.7-.99c-.32-.26-.76-.39-1.32-.39-.49,0-.93,.14-1.3,.42-.38,.28-.67,.68-.89,1.21s-.32,1.18-.32,1.94v.38c0,.6,.11,1.15,.33,1.65,.22,.5,.54,.89,.97,1.19s.93,.44,1.51,.44,1.06-.12,1.46-.35,.75-.55,1.05-.94l.99,.77c-.3,.47-.74,.89-1.31,1.27-.57,.38-1.33,.57-2.27,.57Z"/>
      <path class="cls-12" d="M313.52,209.02h-1.64v-9.51h1.56l.09,1.89v7.62Zm-1.1-5.15c0-.87,.15-1.64,.44-2.32,.29-.68,.72-1.22,1.29-1.62,.57-.4,1.28-.59,2.13-.59s1.63,.26,2.21,.78,.87,1.38,.87,2.57v6.34h-1.64v-6.26c0-.5-.08-.9-.25-1.2-.17-.3-.4-.52-.71-.66-.3-.14-.66-.21-1.07-.21-.47,0-.87,.08-1.19,.25-.32,.17-.58,.4-.77,.7s-.33,.64-.42,1.02c-.08,.38-.13,.79-.13,1.22l-.76-.03Zm5.83-.54c0-.69,.15-1.34,.44-1.95,.29-.61,.72-1.1,1.28-1.48,.56-.38,1.25-.57,2.06-.57,.68,0,1.26,.12,1.73,.36s.83,.61,1.08,1.12,.37,1.16,.37,1.96v6.25h-1.64v-6.27c0-.53-.08-.95-.25-1.25-.17-.3-.4-.51-.7-.63s-.66-.18-1.07-.18c-.36,0-.67,.06-.94,.18-.27,.12-.5,.29-.69,.51-.19,.21-.33,.46-.42,.73-.1,.28-.15,.57-.15,.88l-1.1,.33Z"/>
      <path class="cls-12" d="M331.62,209.2c-.88,0-1.65-.2-2.31-.59-.65-.39-1.16-.94-1.52-1.63-.36-.69-.54-1.48-.54-2.37v-.38c0-1.03,.2-1.91,.59-2.64,.4-.73,.91-1.29,1.55-1.67s1.31-.58,2.02-.58c.91,0,1.66,.2,2.24,.61s1,.96,1.28,1.66c.27,.7,.41,1.49,.41,2.38v.73h-7.1v-1.32h5.46v-.12c-.02-.42-.11-.83-.25-1.23s-.38-.73-.7-.99c-.32-.26-.76-.39-1.32-.39-.49,0-.93,.14-1.3,.42-.38,.28-.67,.68-.89,1.21s-.32,1.18-.32,1.94v.38c0,.6,.11,1.15,.33,1.65,.22,.5,.54,.89,.97,1.19s.93,.44,1.51,.44,1.06-.12,1.46-.35,.75-.55,1.05-.94l.99,.77c-.3,.47-.74,.89-1.31,1.27-.57,.38-1.33,.57-2.27,.57Z"/>
    </g>
  </g>
</svg>