<?xml version="1.0" encoding="UTF-8"?>
<svg id="Layer_2" data-name="Layer 2" xmlns="http://www.w3.org/2000/svg" viewBox="0 0 246.36 297.6">
  <defs>
    <style>
      .cls-1, .cls-2, .cls-3, .cls-4 {
        stroke-miterlimit: 10;
      }

      .cls-1, .cls-3 {
        fill: none;
      }

      .cls-1, .cls-4 {
        stroke: #252933;
        stroke-width: .75px;
      }

      .cls-2 {
        fill: #fee9d9;
      }

      .cls-2, .cls-3 {
        stroke: #fee9d9;
      }

      .cls-4 {
        fill: #252933;
      }
    </style>
  </defs>
  <g id="shadows">
    <g id="Consultation">
      <path class="cls-4" d="M220.25,6.46c-14.45-4.65-30.32-1.85-44.57,3.36-22.98,8.4-44.44,24-54.32,46.4l-9.95,.69c4.61-5.09,1.67-14.73-4.99-16.45-6.66-1.72-13.89,5.21-12.51,11.95,1.57-2.89,3.22-5.87,5.82-7.89,2.61-2,6.45-2.79,9.19-.98,4.2,2.78,3.14,9.52-.13,13.36-3.29,3.84-8.07,6.17-11.31,10.02-4.07,4.83-5.24,11.34-6.79,17.46-6.79,26.45-26.05,51.41-52.75,57.16-13.26,2.86-26.85-7.27-31.29-20.07-4.43-12.79-1.42-27.13,4.33-39.39,6.08-12.94,15.16-24.47,26.33-33.39,2.79-2.23,5.79-4.38,7.8-7.34,2.2-3.24,3.06-7.22,4.88-10.7,1.82-3.47,5.29-6.68,9.17-6.13,.63,7.51,5.27,14.58,11.94,18.12,7.27,3.88,14.55,7.75,21.84,11.64-3.69-6-10.91-8.53-17.26-11.56-6.36-3.03-12.99-8.15-12.96-15.18,0-3.87-5.04-6.12-8.65-4.74-3.62,1.36-5.87,4.94-7.54,8.41-1.69,3.49-3.14,7.24-6.07,9.77-10.79,9.29-21.18,19.31-28.63,31.44C4.39,84.55,.08,99.07,2.29,113.12c1.59,10.08,6.98,19.74,14.91,26-1.37-.25-3.74,1.11-4.61,2.74-19.67,36.85-13.6,83.8,8.18,119.44,10.61,17.36,26.63,33.61,46.88,35.56,19.56,1.88,39.74-3.59,55.66-15.09,15.67-11.32,27.08-28.42,31.57-47.23,.08,1.72,3.34,2.63,5.52,2.2,3.03-.6,6.05-1.19,9.08-1.77,2.65,.31,4.65-3.5,2.86-5.5,1.75,1.82,2.31,4.71,1.36,7.06,3.06-1.8,6.12-3.6,9.17-5.42,.98,1.31,1.95,2.61,2.93,3.9,2.2-1.88-1.65-4.73-4.53-5.03-5.8-.61-11.62-1.21-17.44-1.82-2.31-.08-4.65-.18-6.96-.26,8.5-24.63,5.87-52.01,14.22-76.69,11.51-33.95,41.64-57.54,63.3-86.11,5.65-7.44,10.91-15.75,11.54-25.08,1.01-15.14-11.22-28.9-25.67-33.56Zm-49.16,226.47l.02,.02c.21-.1,.45-.2,.66-.3,.17,.2,.18,.53,0,.71h-.91c-.15-.18,.03-.58,.23-.43Zm-2.76-2.98l.05-.03c.17,.05,.35,.08,.53,.12,.08,.35-.38,.68-.68,.5,.03-.2,.07-.38,.1-.58Zm-1.11,1.77c.13,.18,.28,.38,.41,.56l-.08,.07c.05,.25-.07,.68-.3,.55-.3-.31-.31-.84-.03-1.17Zm-2.26,.74c.5-.1,1.04,.38,.98,.89-.38-.23-.74-.51-1.04-.83l.07-.07ZM98.89,70.48c.93-1.4,1.7-2.68,2.98-3.8s2.63-2.02,4.09-2.81c2.86-1.56,6.09-2.83,9.26-3.62,5.56-1.68,11.38-3.17,15.95-6.76-.69,2.7,.48,5.49,1.46,8.09,2.17,5.75,3.58,11.79,4.03,17.92,.28,3.76,.11,7.82-2.1,10.88-8.39-3.27-17.5-4.87-25.25-9.46-4.02-2.38-7.58-5.54-10.44-9.25-.13-.17-.26-.36-.26-.57,0-.19,.11-.36,.22-.52,.02-.03,.05-.07,.07-.1Zm-31.62,59.51c2.37-1.91,4.59-4,6.62-6.28,9.94-11.18,14.69-25.9,19.49-40.07,1.27-3.75,2.56-7.49,4.17-11.1,2.3,4.1,5.69,7.59,9.73,10,3.25,1.94,6.87,3.18,10.45,4.41,4.73,1.62,9.47,3.23,14.2,4.85,.52,.18,1.12,.44,1.25,.98,.09,.38-.1,.77-.28,1.12-4.52,8.49-10.47,16.21-17.53,22.74-1.82,1.68-3.81,3.34-6.22,3.91-4.52,1.08-9.61-1.85-13.76,.25-3.95,2-4.64,7.32-4.24,11.73,.12,1.31,.28,2.7-.27,3.9-.36,.79-.98,1.41-1.62,2-7.23,6.65-17.05,10.06-26.85,10.73-9.31,.64-18.63-1.04-27.54-3.66-.46-.13-.98-.23-1.39-.45,.78-.39,1.92-.46,2.8-.67,.96-.23,1.92-.47,2.88-.73,1.91-.51,3.81-1.09,5.69-1.72,3.75-1.26,7.41-2.77,10.94-4.56,4.06-2.06,7.94-4.52,11.48-7.37Zm64.73,4.8c-3.05-2.53-6.75-4.13-10.15-6.18-2.37-1.43-4.61-3.08-7.14-4.19-.63-.28-1.3-.54-1.73-1.08-1.41-1.76,1.98-3.5,3.08-4.28,1.83-1.3,3.7-2.61,5.07-4.41,4.11,6.44,7.75,13.18,10.87,20.15Zm-19.97,83.91c.3,2.35,.61,4.69,.91,7.04-1.85,.31-3.77,.23-5.59-.23,.48-.28,.81-.83,.84-1.41-1.75,.41-3.52,.81-5.27,1.21,.33-.4,.68-.81,1.01-1.21-2.17,.43-4.45,.38-6.58-.2-1.52-.4-3.01-1.04-4.58-1.12-.99-.05-2,.15-3.01,.08-4.13-.25-7.62-4.56-11.64-3.6-1.17-2.03-3.57-3.27-5.89-3.06-2.56,.23-4.22-3.6-6.74-3.16-1.42,.26-2.38,1.85-3.82,1.9-.96,.03-1.79-.64-2.5-1.29-2.56-2.28-5.14-4.6-7.08-7.42-.23-.35-.45-.84-.17-1.12,3.84-3.77,5.04-12.17,1.64-16.43-.98-1.24-1.75-3.12-.68-4.28,2.1-2.26,1.19-6.02,2.63-8.73,.83-1.59,2.35-2.66,3.37-4.1,1.04-1.45,1.41-3.74,0-4.83-.74-.58-.17-1.79,.5-2.48,.64-.68,1.41-1.69,.86-2.46-1.21-1.72,1.11-4.17,.3-6.12-.33-.79-1.14-1.31-1.57-2.05-.43-.76-.15-2.05,.73-2,11.92,.78,24.09-4.13,32.15-12.96,5.01,12.5,14,22.91,22.85,33.08-2.98,8.63-4.48,17.79-4.43,26.91,.03,6.71,.89,13.39,1.75,20.04Zm4.25,10.03c-.33-.38-.69-.81-.64-1.31,.05-.51,.78-.88,1.06-.45,.17,.23,.07,.55-.03,.81l-.02,.05c.25,.31,.02,.84-.36,.89Zm-.46,4.96c-.13,.46-.76,.96-.96,.53l-.08-.1c-.48,.07-.98-.08-1.34-.4,.78-.2,1.6-.21,2.38-.03Zm-3.21-2.96c.31-.51,.96-.78,1.54-.66l.02,.13c-.2,.61-1.02,.88-1.55,.53Zm-1.24-2.66c-.26,0-.36-.4-.21-.61,.15-.21,.43-.3,.69-.36l-.02-.12c.36,.05,.73,.08,1.09,.13-.33,.53-.93,.89-1.55,.96Zm1.24,3.82c-.38,.6-1.24,.81-1.85,.48,.31-.25,.61-.5,.93-.74l.02,.02c.3-.18,.74-.07,.91,.25Zm-2.61-1.98v.07c-.25-.36,.07-.96,.51-.93,.08,.35-.15,.76-.51,.86Zm-1.02,.81l-.21,.03c-.36,.31-1.04,.07-1.12-.41,.4-.36,1.19-.15,1.34,.38Zm-2.61-3.98l-.07-.07c-.18,.18-.5,.17-.66-.02-.1-.25,.15-.56,.41-.53,.28,.02,.45,.38,.31,.61Zm-8.91,3.36c-.08,.28-.41,.48-.71,.43-.03-.33,.4-.63,.69-.46l.02,.03Zm-3.19,.21l-.02,.07c-.2,.02-.38,.05-.58,.07-.12-.17-.15-.38-.1-.58,.31,.02,.73,.15,.69,.45Zm-1.95-4.45c-.56,.45-1.31,.68-2.03,.61-.23-.69-.46-1.41-.71-2.1-.02-.23,.33-.33,.51-.2s.26,.36,.35,.58c.33,.69,1.11,1.16,1.88,1.11Zm-16.12-5.46l-.03-.02c-.2,.17-.55-.02-.55-.26,.41-.3,.83-.6,1.22-.89,.33,.5-.08,1.41-.64,1.17Zm-20.51-68.69c.68,.61,.88,1.7,.46,2.51s-1.42,1.29-2.31,1.09c-.88-.18-1.09,1.26-.63,2.03,.48,.78,1.19,1.72,.68,2.46-2.17,3.17-3.39,6.96-3.47,10.79-.05,2.15-.84,4.28-2.22,5.93-.91,1.09-1.06,2.73-.4,3.97,.84,1.55,2.78,2.46,3.09,4.18-2.31-2.78-5.22-5.06-8.46-6.66-3.07-1.52-6.45-2.43-9.52-3.98-3.07-1.54-5.98-3.92-7.03-7.19-.55-1.75-.53-3.6-.41-5.44,.35-5.44,1.59-10.83,3.64-15.9,8.38,3.67,17.44,5.79,26.58,6.2ZM13.35,238.64C1.37,206.77-.68,168.75,18.21,140.41c0-.23-.05-.41-.12-.6,2.88,2.15,6.08,3.84,9.54,4.94-3.6,8.25-7.12,18.18-2.33,25.8,3.59,5.67,10.55,7.93,16.56,10.89,6.02,2.96,12.18,8.38,11.29,15.03-.81,6.17-7.7,10-13.9,9.69-6.2-.33-11.79-3.67-17.08-6.93,1.44,7.62,2.88,15.26,4.31,22.9,2.43,12.84,4.88,25.8,9.9,37.87,5.03,12.07,12.88,23.34,24,30.2-23.31-6.38-38.55-28.95-47.05-51.58Zm117.82,30.65c-.17,.45-.55,.79-.91,1.09-.02,.02-.05,.03-.07,.05-15.42,12.83-35.66,23.82-56.44,21.84-20.05-1.93-32.5-25.67-38.27-42.68-4.83-14.22-6.88-29.19-8.91-44.07,6.31,3.29,13.99,3.9,20.73,1.64,.55-.17,1.09-.36,1.64-.25,.6,.12,1.06,.58,1.47,1.01,2.76,2.91,5.54,5.8,8.32,8.71,.94,.99,1.93,2.07,2.23,3.42,.2,.89,.08,1.9,.55,2.69,.84,1.41,2.86,1.26,4.45,1.62,3.67,.81,6.46,4.99,10.17,4.31,.15-.56,.99-.6,1.44-.23,.46,.38,.64,.96,.98,1.45,1.04,1.57,3.19,1.87,5.08,2.02,.83,.05,1.7,.1,2.43-.28,.73-.4,1.17-1.42,.66-2.08,.66-.05,1.32-.08,1.98-.13,.79,1.36,2.31,2.25,3.88,2.33,.13-.12,.31-.15,.43,.02-.15,0-.3,0-.43-.02-.18,.15-.3,.45-.17,.66,.25,.38,.79,.38,1.24,.33,1.77-.2,3.49-.73,5.06-1.55,.6,.98,1.9,1.45,2.99,1.11-.48-.56-.98-1.11-1.47-1.67,1.01-.17,1.98-.55,2.84-1.07-1.59,1.54,.25,4.33,2.4,4.88,2.13,.55,4.45-.07,6.58,.5,2.26,.58,4.03,2.43,5.12,4.5,1.11,2.07,1.67,4.36,2.33,6.61,2.23,7.41,5.89,14.4,10.68,20.47,.64,.81,1.36,1.82,.99,2.79Zm-10.96-39.1c-.93,.28-1.85,.55-2.78,.81-.43-.31,.13-1.12,.58-.84l-.05,.02c.76,0,1.5,.02,2.25,.02Zm-2.48,2.25c-.26-.15-.41-.48-.33-.78,.17-.12,.36-.15,.56-.1l.03-.03c.18,.31,.05,.76-.26,.91Zm32.08,7.44c-.03,.26-.09,.53-.15,.79-2.41,10.05-8.13,19.27-16.07,25.88-3.74-3.32-6.2-7.84-8.2-12.42-1.97-4.5-3.6-9.17-4.78-13.93-.7-2.82-.74-2.9,1.53-4.27,1.98-1.19,3.66-2.3,4.77-4.43-.62,1.66,.49,3.74,2.21,4.15,1.72,.41,3.65-.94,3.86-2.7,.36,1.72,1.95,3.1,3.7,3.21-.82-.97-.53-2.65,.56-3.29-.1,.62-.19,1.24-.29,1.87,1.23,.58,2.47,1.16,3.7,1.75,.61,.29,1.34,.57,1.92,.24,1.32-.76-.06-3.18,1.06-4.2-.36,1.7,1.04,3.54,2.77,3.66-.44,.43-.87,.85-1.31,1.28,1.78-.32,4.21-.26,4.67,1.48,.08,.3,.08,.61,.04,.93Zm-26.82-7.84c.13,.2,.12,.48-.03,.64l-.07-.02c-.15,.48-.73,.78-1.21,.63,.3-.53,.76-.98,1.31-1.26Zm-.38-1.45c.03-.26,.17-.51,.4-.61,.23-.1,.56,.08,.55,.33l-.03-.02c-.25,.21-.58,.31-.91,.3Zm8.79-2.88c-.38,.84-1.74,.98-2.26,.21,.58-.36,1.26-.6,1.95-.63,.25-.02,.5,.38,.25,.35l.07,.07Zm-1.5,4.56l-.03-.15c.03-.33,.07-.68,.1-1.01,.5,.15,.45,1.06-.07,1.16Zm1.83-1.72c.51-.3,1.09-.48,1.67-.55l.08,.15c.1,.36-.28,.73-.68,.76-.38,.02-.74-.18-1.07-.36Zm5.8-.63c-.3-.18-.6-.35-.89-.53l-.07,.13c-.28-.21-.56-.41-.84-.61,.63-.45,1.57-.33,2.07,.26-.17,.21-.26,.48-.26,.74Zm.96,1.97c-.28,.1-.55,.2-.83,.3-.03-.17-.07-.35-.08-.53v-.02c.31-.18,.74-.07,.91,.25Zm.25-1.59c.41-.5,.93-.93,1.49-1.24,.12,.15,.15,.36,.08,.56l-.03-.02c-.12,.48-.38,.93-.74,1.27-.31-.1-.6-.31-.79-.58Zm6.74,0c-.68,.13-1.39-.12-2.08-.07-.69,.07-1.44,.71-1.17,1.36-.05,.23-.43,.18-.53-.02-.1-.21,0-.46,.1-.68,.21-.4,.46-.79,.74-1.16,.13-.17,.28-.33,.48-.4,.17-.05,.35-.02,.51,.02,.71,.17,1.39,.5,1.95,.94Zm-1.09-1.82l.05,.02c.08-.26,.43-.4,.64-.25-.02,.21-.15,.43-.33,.56-.18,.03-.38-.15-.36-.33Zm6.61,2.96c-.12,.33-.33,.61-.61,.81-.3-.35-.13-.99,.31-1.14,.12,.08,.25,.17,.36,.23l-.07,.1Zm.49-4.34c-1.42,.14-2.84,.29-4.25,.43,.28,.51,.05,1.23-.47,1.49-.23-.51-.45-1.02-.68-1.53-6.08-.51-12.16-1.03-18.24-1.54-1.49-.13-3.32-.09-4.07,1.21-1.56-1.54-3.8-2.37-5.99-2.21-.7,.05-1.48,.17-2.02-.28-.4-.33-.52-.88-.62-1.39-3.38-17.37-2.73-35.51,1.91-52.58-6.81-7.02-12.82-14.82-17.86-23.19-2.16-3.59-4.17-7.34-5.13-11.42-.86-3.61-.87-7.62,.63-11.07,1.38-3.19,4.78-3.28,7.78-2.58,7.9,1.84,15.25,5.55,22.2,9.75,3.05,1.84,6.09,3.84,8.28,6.64,2.51,3.21,3.72,7.23,4.88,11.14,7.47,25.18,15.41,50.93,13.72,77.14h-.06Zm7.57,5.29l.08,.15c-.55,.63-1.7,.53-2.12-.18,.66-.21,1.39-.2,2.03,.03ZM239.53,49.77c-3.64,8.18-9.54,15.13-15.36,21.95-6.99,8.17-13.97,16.35-20.96,24.52-13.72,16.07-27.76,32.67-34.53,52.67-8.61,25.37-4.73,53.87-14.43,78.84-.02-39.91-10.76-79.75-30.8-114.26,3.87-7.75,8.79-14.99,14.6-21.42,2.36-2.63,2.28-6.58,1.9-10.08-1.11-10.4-3.57-20.63-7.34-30.38-.5-1.29-2.25-1.69-3.54-1.17-1.29,.51-2.2,1.65-3.06,2.73,1.17-.23,2.36-.48,3.54-.71-.94,1.59-3.27,2.17-4.84,1.17C140.72,25.92,171.77,7.54,203.76,6.81c7.11-.17,14.37,.51,20.98,3.14,6.63,2.63,12.6,7.36,15.69,13.77,3.88,8.08,2.76,17.85-.89,26.05Z"/>
      <path class="cls-1" d="M239.53,49.77c-3.64,8.18-9.54,15.13-15.36,21.95-6.99,8.17-13.97,16.35-20.96,24.52-13.72,16.07-27.76,32.67-34.53,52.67-8.61,25.37-4.73,53.87-14.43,78.84-.02-39.91-10.76-79.75-30.8-114.26,3.87-7.75,8.79-14.99,14.6-21.42,2.36-2.63,2.28-6.58,1.9-10.08-1.11-10.4-3.57-20.63-7.34-30.38-.5-1.29-2.25-1.69-3.54-1.17-1.29,.51-2.2,1.65-3.06,2.73,1.17-.23,2.36-.48,3.54-.71-.94,1.59-3.27,2.17-4.84,1.17C140.72,25.92,171.77,7.54,203.76,6.81c7.11-.17,14.37,.51,20.98,3.14,6.63,2.63,12.6,7.36,15.69,13.77,3.88,8.08,2.76,17.85-.89,26.05Z"/>
      <path class="cls-4" d="M157.13,229.39c-.3-.03-.6,.4-.35,.57,.24,.12,.37-.3,.33-.56h.02Z"/>
      <path class="cls-4" d="M210.13,91.22c-.14,.23-.01,.57,.24,.66,.24-.18,.07-.66-.23-.64v-.02Z"/>
      <path class="cls-4" d="M11.48,76.93c-.14,.29,.51,.43,.51,.11-.04-.22-.4-.3-.53-.11h.02Z"/>
      <path class="cls-4" d="M36.23,45.37c-.16,.18-.18,.48-.03,.67,.14-.1,.3-.21,.33-.38,.03-.17-.15-.37-.3-.27v-.02Z"/>
      <path class="cls-4" d="M88.04,226.22c0,.19,.23,.34,.41,.27s.22-.35,.08-.48c-.15-.1-.38,.04-.37,.22h-.11Z"/>
      <path class="cls-4" d="M150.87,191.34c.25-.18,.09-.67-.22-.66-.14,.23,0,.58,.25,.65h-.03Z"/>
    </g>
  </g>
  <g id="illustrations">
    <g id="Consultation-2" data-name="Consultation">
      <path class="cls-2" d="M220.07,2.86c-14.45-4.65-30.32-1.85-44.57,3.36-22.98,8.4-44.44,24-54.32,46.4l-9.95,.69c4.61-5.09,1.67-14.73-4.99-16.45-6.66-1.72-13.89,5.21-12.51,11.95,1.57-2.89,3.22-5.87,5.82-7.89,2.61-2,6.45-2.79,9.19-.98,4.2,2.78,3.14,9.52-.13,13.36-3.29,3.84-8.07,6.17-11.31,10.02-4.07,4.83-5.24,11.34-6.79,17.46-6.79,26.45-26.05,51.41-52.75,57.16-13.26,2.86-26.85-7.27-31.29-20.07-4.43-12.79-1.42-27.13,4.33-39.39,6.08-12.94,15.16-24.47,26.33-33.39,2.79-2.23,5.79-4.38,7.8-7.34,2.2-3.24,3.06-7.22,4.88-10.7,1.82-3.47,5.29-6.68,9.17-6.13,.63,7.51,5.27,14.58,11.94,18.12,7.27,3.88,14.55,7.75,21.84,11.64-3.69-6-10.91-8.53-17.26-11.56-6.36-3.03-12.99-8.15-12.96-15.18,0-3.87-5.04-6.12-8.65-4.74-3.62,1.36-5.87,4.94-7.54,8.41-1.69,3.49-3.14,7.24-6.07,9.77-10.79,9.29-21.18,19.31-28.63,31.44C4.21,80.95-.11,95.47,2.11,109.52c1.59,10.08,6.98,19.74,14.91,26-1.37-.25-3.74,1.11-4.61,2.74-19.67,36.85-13.6,83.8,8.18,119.44,10.61,17.36,26.63,33.61,46.88,35.56,19.56,1.88,39.74-3.59,55.66-15.09,15.67-11.32,27.08-28.42,31.57-47.23,.08,1.72,3.34,2.63,5.52,2.2,3.03-.6,6.05-1.19,9.08-1.77,2.65,.31,4.65-3.5,2.86-5.5,1.75,1.82,2.31,4.71,1.36,7.06,3.06-1.8,6.12-3.6,9.17-5.42,.98,1.31,1.95,2.61,2.93,3.9,2.2-1.88-1.65-4.73-4.53-5.03-5.8-.61-11.62-1.21-17.44-1.82-2.31-.08-4.65-.18-6.96-.26,8.5-24.63,5.87-52.01,14.22-76.69,11.51-33.95,41.64-57.54,63.3-86.11,5.65-7.44,10.91-15.75,11.54-25.08,1.01-15.14-11.22-28.9-25.67-33.56Zm-49.16,226.47l.02,.02c.21-.1,.45-.2,.66-.3,.17,.2,.18,.53,0,.71h-.91c-.15-.18,.03-.58,.23-.43Zm-2.76-2.98l.05-.03c.17,.05,.35,.08,.53,.12,.08,.35-.38,.68-.68,.5,.03-.2,.07-.38,.1-.58Zm-1.11,1.77c.13,.18,.28,.38,.41,.56l-.08,.07c.05,.25-.07,.68-.3,.55-.3-.31-.31-.84-.03-1.17Zm-2.26,.74c.5-.1,1.04,.38,.98,.89-.38-.23-.74-.51-1.04-.83l.07-.07ZM98.71,66.87c.93-1.4,1.7-2.68,2.98-3.8s2.63-2.02,4.09-2.81c2.86-1.56,6.09-2.83,9.26-3.62,5.56-1.68,11.38-3.17,15.95-6.76-.69,2.7,.48,5.49,1.46,8.09,2.17,5.75,3.58,11.79,4.03,17.92,.28,3.76,.11,7.82-2.1,10.88-8.39-3.27-17.5-4.87-25.25-9.46-4.02-2.38-7.58-5.54-10.44-9.25-.13-.17-.26-.36-.26-.57,0-.19,.11-.36,.22-.52,.02-.03,.05-.07,.07-.1Zm-31.62,59.51c2.37-1.91,4.59-4,6.62-6.28,9.94-11.18,14.69-25.9,19.49-40.07,1.27-3.75,2.56-7.49,4.17-11.1,2.3,4.1,5.69,7.59,9.73,10,3.25,1.94,6.87,3.18,10.45,4.41,4.73,1.62,9.47,3.23,14.2,4.85,.52,.18,1.12,.44,1.25,.98,.09,.38-.1,.77-.28,1.12-4.52,8.49-10.47,16.21-17.53,22.74-1.82,1.68-3.81,3.34-6.22,3.91-4.52,1.08-9.61-1.85-13.76,.25-3.95,2-4.64,7.32-4.24,11.73,.12,1.31,.28,2.7-.27,3.9-.36,.79-.98,1.41-1.62,2-7.23,6.65-17.05,10.06-26.85,10.73-9.31,.64-18.63-1.04-27.54-3.66-.46-.13-.98-.23-1.39-.45,.78-.39,1.92-.46,2.8-.67,.96-.23,1.92-.47,2.88-.73,1.91-.51,3.81-1.09,5.69-1.72,3.75-1.26,7.41-2.77,10.94-4.56,4.06-2.06,7.94-4.52,11.48-7.37Zm64.73,4.8c-3.05-2.53-6.75-4.13-10.15-6.18-2.37-1.43-4.61-3.08-7.14-4.19-.63-.28-1.3-.54-1.73-1.08-1.41-1.76,1.98-3.5,3.08-4.28,1.83-1.3,3.7-2.61,5.07-4.41,4.11,6.44,7.75,13.18,10.87,20.15Zm-19.97,83.91c.3,2.35,.61,4.69,.91,7.04-1.85,.31-3.77,.23-5.59-.23,.48-.28,.81-.83,.84-1.41-1.75,.41-3.52,.81-5.27,1.21,.33-.4,.68-.81,1.01-1.21-2.17,.43-4.45,.38-6.58-.2-1.52-.4-3.01-1.04-4.58-1.12-.99-.05-2,.15-3.01,.08-4.13-.25-7.62-4.56-11.64-3.6-1.17-2.03-3.57-3.27-5.89-3.06-2.56,.23-4.22-3.6-6.74-3.16-1.42,.26-2.38,1.85-3.82,1.9-.96,.03-1.79-.64-2.5-1.29-2.56-2.28-5.14-4.6-7.08-7.42-.23-.35-.45-.84-.17-1.12,3.84-3.77,5.04-12.17,1.64-16.43-.98-1.24-1.75-3.12-.68-4.28,2.1-2.26,1.19-6.02,2.63-8.73,.83-1.59,2.35-2.66,3.37-4.1,1.04-1.45,1.41-3.74,0-4.83-.74-.58-.17-1.79,.5-2.48,.64-.68,1.41-1.69,.86-2.46-1.21-1.72,1.11-4.17,.3-6.12-.33-.79-1.14-1.31-1.57-2.05-.43-.76-.15-2.05,.73-2,11.92,.78,24.09-4.13,32.15-12.96,5.01,12.5,14,22.91,22.85,33.08-2.98,8.63-4.48,17.79-4.43,26.91,.03,6.71,.89,13.39,1.75,20.04Zm4.25,10.03c-.33-.38-.69-.81-.64-1.31,.05-.51,.78-.88,1.06-.45,.17,.23,.07,.55-.03,.81l-.02,.05c.25,.31,.02,.84-.36,.89Zm-.46,4.96c-.13,.46-.76,.96-.96,.53l-.08-.1c-.48,.07-.98-.08-1.34-.4,.78-.2,1.6-.21,2.38-.03Zm-3.21-2.96c.31-.51,.96-.78,1.54-.66l.02,.13c-.2,.61-1.02,.88-1.55,.53Zm-1.24-2.66c-.26,0-.36-.4-.21-.61,.15-.21,.43-.3,.69-.36l-.02-.12c.36,.05,.73,.08,1.09,.13-.33,.53-.93,.89-1.55,.96Zm1.24,3.82c-.38,.6-1.24,.81-1.85,.48,.31-.25,.61-.5,.93-.74l.02,.02c.3-.18,.74-.07,.91,.25Zm-2.61-1.98v.07c-.25-.36,.07-.96,.51-.93,.08,.35-.15,.76-.51,.86Zm-1.02,.81l-.21,.03c-.36,.31-1.04,.07-1.12-.41,.4-.36,1.19-.15,1.34,.38Zm-2.61-3.98l-.07-.07c-.18,.18-.5,.17-.66-.02-.1-.25,.15-.56,.41-.53,.28,.02,.45,.38,.31,.61Zm-8.91,3.36c-.08,.28-.41,.48-.71,.43-.03-.33,.4-.63,.69-.46l.02,.03Zm-3.19,.21l-.02,.07c-.2,.02-.38,.05-.58,.07-.12-.17-.15-.38-.1-.58,.31,.02,.73,.15,.69,.45Zm-1.95-4.45c-.56,.45-1.31,.68-2.03,.61-.23-.69-.46-1.41-.71-2.1-.02-.23,.33-.33,.51-.2s.26,.36,.35,.58c.33,.69,1.11,1.16,1.88,1.11Zm-16.12-5.46l-.03-.02c-.2,.17-.55-.02-.55-.26,.41-.3,.83-.6,1.22-.89,.33,.5-.08,1.41-.64,1.17Zm-20.51-68.69c.68,.61,.88,1.7,.46,2.51s-1.42,1.29-2.31,1.09c-.88-.18-1.09,1.26-.63,2.03,.48,.78,1.19,1.72,.68,2.46-2.17,3.17-3.39,6.96-3.47,10.79-.05,2.15-.84,4.28-2.22,5.93-.91,1.09-1.06,2.73-.4,3.97,.84,1.55,2.78,2.46,3.09,4.18-2.31-2.78-5.22-5.06-8.46-6.66-3.07-1.52-6.45-2.43-9.52-3.98-3.07-1.54-5.98-3.92-7.03-7.19-.55-1.75-.53-3.6-.41-5.44,.35-5.44,1.59-10.83,3.64-15.9,8.38,3.67,17.44,5.79,26.58,6.2ZM13.17,235.04C1.18,203.17-.87,165.14,18.03,136.81c0-.23-.05-.41-.12-.6,2.88,2.15,6.08,3.84,9.54,4.94-3.6,8.25-7.12,18.18-2.33,25.8,3.59,5.67,10.55,7.93,16.56,10.89,6.02,2.96,12.18,8.38,11.29,15.03-.81,6.17-7.7,10-13.9,9.69-6.2-.33-11.79-3.67-17.08-6.93,1.44,7.62,2.88,15.26,4.31,22.9,2.43,12.84,4.88,25.8,9.9,37.87,5.03,12.07,12.88,23.34,24,30.2-23.31-6.38-38.55-28.95-47.05-51.58Zm117.82,30.65c-.17,.45-.55,.79-.91,1.09-.02,.02-.05,.03-.07,.05-15.42,12.83-35.66,23.82-56.44,21.84-20.05-1.93-32.5-25.67-38.27-42.68-4.83-14.22-6.88-29.19-8.91-44.07,6.31,3.29,13.99,3.9,20.73,1.64,.55-.17,1.09-.36,1.64-.25,.6,.12,1.06,.58,1.47,1.01,2.76,2.91,5.54,5.8,8.32,8.71,.94,.99,1.93,2.07,2.23,3.42,.2,.89,.08,1.9,.55,2.69,.84,1.41,2.86,1.26,4.45,1.62,3.67,.81,6.46,4.99,10.17,4.31,.15-.56,.99-.6,1.44-.23,.46,.38,.64,.96,.98,1.45,1.04,1.57,3.19,1.87,5.08,2.02,.83,.05,1.7,.1,2.43-.28,.73-.4,1.17-1.42,.66-2.08,.66-.05,1.32-.08,1.98-.13,.79,1.36,2.31,2.25,3.88,2.33,.13-.12,.31-.15,.43,.02-.15,0-.3,0-.43-.02-.18,.15-.3,.45-.17,.66,.25,.38,.79,.38,1.24,.33,1.77-.2,3.49-.73,5.06-1.55,.6,.98,1.9,1.45,2.99,1.11-.48-.56-.98-1.11-1.47-1.67,1.01-.17,1.98-.55,2.84-1.07-1.59,1.54,.25,4.33,2.4,4.88,2.13,.55,4.45-.07,6.58,.5,2.26,.58,4.03,2.43,5.12,4.5,1.11,2.07,1.67,4.36,2.33,6.61,2.23,7.41,5.89,14.4,10.68,20.47,.64,.81,1.36,1.82,.99,2.79Zm-10.96-39.1c-.93,.28-1.85,.55-2.78,.81-.43-.31,.13-1.12,.58-.84l-.05,.02c.76,0,1.5,.02,2.25,.02Zm-2.48,2.25c-.26-.15-.41-.48-.33-.78,.17-.12,.36-.15,.56-.1l.03-.03c.18,.31,.05,.76-.26,.91Zm32.08,7.44c-.03,.26-.09,.53-.15,.79-2.41,10.05-8.13,19.27-16.07,25.88-3.74-3.32-6.2-7.84-8.2-12.42-1.97-4.5-3.6-9.17-4.78-13.93-.7-2.82-.74-2.9,1.53-4.27,1.98-1.19,3.66-2.3,4.77-4.43-.62,1.66,.49,3.74,2.21,4.15,1.72,.41,3.65-.94,3.86-2.7,.36,1.72,1.95,3.1,3.7,3.21-.82-.97-.53-2.65,.56-3.29-.1,.62-.19,1.24-.29,1.87,1.23,.58,2.47,1.16,3.7,1.75,.61,.29,1.34,.57,1.92,.24,1.32-.76-.06-3.18,1.06-4.2-.36,1.7,1.04,3.54,2.77,3.66-.44,.43-.87,.85-1.31,1.28,1.78-.32,4.21-.26,4.67,1.48,.08,.3,.08,.61,.04,.93Zm-26.82-7.84c.13,.2,.12,.48-.03,.64l-.07-.02c-.15,.48-.73,.78-1.21,.63,.3-.53,.76-.98,1.31-1.26Zm-.38-1.45c.03-.26,.17-.51,.4-.61,.23-.1,.56,.08,.55,.33l-.03-.02c-.25,.21-.58,.31-.91,.3Zm8.79-2.88c-.38,.84-1.74,.98-2.26,.21,.58-.36,1.26-.6,1.95-.63,.25-.02,.5,.38,.25,.35l.07,.07Zm-1.5,4.56l-.03-.15c.03-.33,.07-.68,.1-1.01,.5,.15,.45,1.06-.07,1.16Zm1.83-1.72c.51-.3,1.09-.48,1.67-.55l.08,.15c.1,.36-.28,.73-.68,.76-.38,.02-.74-.18-1.07-.36Zm5.8-.63c-.3-.18-.6-.35-.89-.53l-.07,.13c-.28-.21-.56-.41-.84-.61,.63-.45,1.57-.33,2.07,.26-.17,.21-.26,.48-.26,.74Zm.96,1.97c-.28,.1-.55,.2-.83,.3-.03-.17-.07-.35-.08-.53v-.02c.31-.18,.74-.07,.91,.25Zm.25-1.59c.41-.5,.93-.93,1.49-1.24,.12,.15,.15,.36,.08,.56l-.03-.02c-.12,.48-.38,.93-.74,1.27-.31-.1-.6-.31-.79-.58Zm6.74,0c-.68,.13-1.39-.12-2.08-.07-.69,.07-1.44,.71-1.17,1.36-.05,.23-.43,.18-.53-.02-.1-.21,0-.46,.1-.68,.21-.4,.46-.79,.74-1.16,.13-.17,.28-.33,.48-.4,.17-.05,.35-.02,.51,.02,.71,.17,1.39,.5,1.95,.94Zm-1.09-1.82l.05,.02c.08-.26,.43-.4,.64-.25-.02,.21-.15,.43-.33,.56-.18,.03-.38-.15-.36-.33Zm6.61,2.96c-.12,.33-.33,.61-.61,.81-.3-.35-.13-.99,.31-1.14,.12,.08,.25,.17,.36,.23l-.07,.1Zm.49-4.34c-1.42,.14-2.84,.29-4.25,.43,.28,.51,.05,1.23-.47,1.49-.23-.51-.45-1.02-.68-1.53-6.08-.51-12.16-1.03-18.24-1.54-1.49-.13-3.32-.09-4.07,1.21-1.56-1.54-3.8-2.37-5.99-2.21-.7,.05-1.48,.17-2.02-.28-.4-.33-.52-.88-.62-1.39-3.38-17.37-2.73-35.51,1.91-52.58-6.81-7.02-12.82-14.82-17.86-23.19-2.16-3.59-4.17-7.34-5.13-11.42-.86-3.61-.87-7.62,.63-11.07,1.38-3.19,4.78-3.28,7.78-2.58,7.9,1.84,15.25,5.55,22.2,9.75,3.05,1.84,6.09,3.84,8.28,6.64,2.51,3.21,3.72,7.23,4.88,11.14,7.47,25.18,15.41,50.93,13.72,77.14h-.06Zm7.57,5.29l.08,.15c-.55,.63-1.7,.53-2.12-.18,.66-.21,1.39-.2,2.03,.03ZM239.35,46.17c-3.64,8.18-9.54,15.13-15.36,21.95-6.99,8.17-13.97,16.35-20.96,24.52-13.72,16.07-27.76,32.67-34.53,52.67-8.61,25.37-4.73,53.87-14.43,78.84-.02-39.91-10.76-79.75-30.8-114.26,3.87-7.75,8.79-14.99,14.6-21.42,2.36-2.63,2.28-6.58,1.9-10.08-1.11-10.4-3.57-20.63-7.34-30.38-.5-1.29-2.25-1.69-3.54-1.17-1.29,.51-2.2,1.65-3.06,2.73,1.17-.23,2.36-.48,3.54-.71-.94,1.59-3.27,2.17-4.84,1.17C140.54,22.32,171.59,3.93,203.57,3.21c7.11-.17,14.37,.51,20.98,3.14,6.63,2.63,12.6,7.36,15.69,13.77,3.88,8.08,2.76,17.85-.89,26.05Z"/>
      <path class="cls-3" d="M239.35,46.17c-3.64,8.18-9.54,15.13-15.36,21.95-6.99,8.17-13.97,16.35-20.96,24.52-13.72,16.07-27.76,32.67-34.53,52.67-8.61,25.37-4.73,53.87-14.43,78.84-.02-39.91-10.76-79.75-30.8-114.26,3.87-7.75,8.79-14.99,14.6-21.42,2.36-2.63,2.28-6.58,1.9-10.08-1.11-10.4-3.57-20.63-7.34-30.38-.5-1.29-2.25-1.69-3.54-1.17-1.29,.51-2.2,1.65-3.06,2.73,1.17-.23,2.36-.48,3.54-.71-.94,1.59-3.27,2.17-4.84,1.17C140.54,22.32,171.59,3.93,203.57,3.21c7.11-.17,14.37,.51,20.98,3.14,6.63,2.63,12.6,7.36,15.69,13.77,3.88,8.08,2.76,17.85-.89,26.05Z"/>
      <path class="cls-3" d="M156.95,225.79c-.3-.03-.6,.4-.35,.57,.24,.12,.37-.3,.33-.56h.02Z"/>
      <path class="cls-3" d="M209.95,87.62c-.14,.23-.01,.57,.24,.66,.24-.18,.07-.66-.23-.64v-.02Z"/>
      <path class="cls-3" d="M11.3,73.33c-.14,.29,.51,.43,.51,.11-.04-.22-.4-.3-.53-.11h.02Z"/>
      <path class="cls-3" d="M36.04,41.77c-.16,.18-.18,.48-.03,.67,.14-.1,.3-.21,.33-.38,.03-.17-.15-.37-.3-.27v-.02Z"/>
      <path class="cls-3" d="M87.86,222.62c0,.19,.23,.34,.41,.27s.22-.35,.08-.48c-.15-.1-.38,.04-.37,.22h-.11Z"/>
      <path class="cls-3" d="M150.69,187.74c.25-.18,.09-.67-.22-.66-.14,.23,0,.58,.25,.65h-.03Z"/>
    </g>
  </g>
</svg>