<?xml version="1.0" encoding="UTF-8"?>
<svg id="Layer_2" data-name="Layer 2" xmlns="http://www.w3.org/2000/svg" viewBox="0 0 248.38 289.31">
  <defs>
    <style>
      .cls-1 {
        fill: #252933;
        stroke: #252933;
        stroke-width: .75px;
      }

      .cls-1, .cls-2 {
        stroke-miterlimit: 10;
      }

      .cls-2 {
        fill: #fee9d9;
        stroke: #fee9d9;
        stroke-width: 1.25px;
      }
    </style>
  </defs>
  <g id="shadows">
    <g id="support_1" data-name="support 1">
      <path class="cls-1" d="M129.4,71.58l.75-5.23c.1-.73,.77-1.69,1.31-1.2-.05,2.14-.44,4.26-1.14,6.28-.22,.25-.63,.32-.92,.15Z"/>
      <path class="cls-1" d="M117.47,19.81c-2.88-.32-5.81-.08-8.67,.42-11.37,1.99-21.94,8.23-29.18,17.21-.59,.73-1.57,1.56-2.34,1.02,9.38-13.57,26.36-21.51,42.79-20,2.39,.22,5.41,1.36,5.27,3.76-2.44-1.28-5.13-2.1-7.87-2.41Z"/>
      <path class="cls-1" d="M132.52,192.69c5.19-2.87,10.64-5.27,16.27-7.15,.61-.2,1.47-.31,1.75,.27,.31,.65-.48,1.26-1.14,1.55-6.65,2.94-13.3,5.87-19.95,8.81-.76,.34-1.55-.71-1.27-1.5s1.13-1.19,1.94-1.37c.81-.18,1.67-.22,2.4-.62Z"/>
      <path class="cls-1" d="M48.12,212.5c.69,0,1.5,.04,1.9,.6,.36,.52,.21,1.22,.04,1.82-.4,1.46-.8,2.92-1.21,4.37,.89-.2,1.26,1.1,1.21,2.01-.11,2.07-.23,4.13-.34,6.2-.02,.36-.04,.73-.22,1.05-.27,.48-.84,.7-1.37,.87-1.8,.56-3.68,.85-5.56,.87-.52,0-1.08-.03-1.46-.37-.44-.4-.48-1.06-.5-1.65-.05-2.01-.1-4.02-.15-6.04-.06-2.56-.12-5.11-.19-7.67-.01-.53,0-1.11,.34-1.5,.39-.44,1.05-.48,1.63-.49,1.96-.03,3.91-.06,5.87-.08m-1.54,1.83c-.73,.09-1.46,.17-2.19,.26-.39,.05-.83,.12-1.05,.45-.15,.23-.15,.52-.15,.79,.03,3.71,.06,7.42,.09,11.14,0,.44,.02,.93,.32,1.26,.37,.41,1,.42,1.55,.34,1.22-.16,2.58-.73,2.93-1.92,.18-.61,.04-1.27-.07-1.9-.58-3.18-.57-6.47,.05-9.65,.12-.64-.82-.85-1.47-.78Z"/>
      <path class="cls-1" d="M134.66,64.17c12.53-15.59,28.91-28.81,48.22-34.01,19.32-5.19,41.74-1.21,55.71,13.1,5.14,5.27,9.12,12.1,9.34,19.46,.26,9.15-5.19,17.43-10.98,24.52-13.59,16.65-30.16,30.61-44.47,46.64s-26.67,35.01-29.13,56.36c-3.13,27.1-7.43,56.02-25.79,76.2-19.74,21.7-53.6,28.08-80.94,17.44-27.34-10.64-47.44-36.6-53.64-65.27-6.68-30.91,2.35-64.81,23.53-88.3,1.75-1.94,6-3.01,6.01-.4-9.68,5.35-15.77,15.46-19.94,25.7-9.8,24.05-11.24,51.41-4.03,76.36,1.74,6.01,5.05,12.82,11.25,13.67,27.31,3.78,56.27,7.35,81.5-3.75,3.73-1.64,8.15,1.49,9.42,5.35,1.27,3.87,.31,8.07-.65,12.02,8.41,.43,16.89-.45,25.03-2.6,1.37-.36,2.85-.84,3.62-2.03,.81-1.24,.59-2.86,.35-4.33-.89-5.32-1.79-10.64-2.68-15.96,4.26-3.98,10.43-5.81,16.17-4.81-6.14,.93-14.09,4.21-13,10.32,.87,4.87,1.75,9.73,2.62,14.6,8.58-11.95,13.08-26.78,12.58-41.48-28.75,11.06-59.76,14.52-90.38,17.89-18.23,2.01-36.93,3.98-54.7-.54,2.38-.37,4.76-.74,7.14-1.11-2.81-5.36,1.52-12.86,7.54-13.36,6.56-.55,12.18,7.31,9.57,13.35-4.8,.53-9.6,1.05-14.4,1.58,45.83,.65,91.75-5.99,135.52-19.6-.77-31.51-9.11-62.82-24.13-90.53-1.66-3.07-3.46-6.38-2.96-9.83,1.87-12.75,1.86-25.78-.03-38.52,3.51,11.25,4.14,23.38,1.8,34.93-1.14,5.66,1.89,11.21,4.6,16.31,14.33,27.02,22.08,57.33,23.88,87.86,.92-34.27,17.27-67.84,43.68-89.69,9.15-9.58,18.29-19.16,27.44-28.75,8.28-8.67,17.13-18.83,16.4-30.8-.44-7.22-4.48-13.83-9.67-18.88-14.69-14.32-38.19-16.95-57.53-10.12-19.34,6.83-34.91,21.75-46.78,38.48,.68-2.18,1.36-4.36,2.03-6.54-26.02-1.15-51.82-7.07-75.73-17.39-4.44-1.92-9.31,1.36-12.9,4.6-10.57,9.56-20.07,21.07-23.71,34.84-3.64,13.78-.2,30.11,11.16,38.72,10.71,8.11,25.37,7.79,38.78,7.11,.03-4.76,3.25-9.33,7.71-10.97-1.58,3.19-1.24,7.42,1.32,9.88,2.56,2.47,7.34,2.39,9.38-.52,2.05-2.91-.11-7.86-3.67-7.86-2.72,0-2.44-4.89,.17-5.62,2.62-.73,5.2,1.25,6.93,3.34,2.75,3.33,4.56,8.54,1.65,11.72,4.61-1.91,9.23-3.82,13.84-5.72-1.05,10.01-.87,20.15,.54,30.11-2.31-8.41-3.26-17.19-2.81-25.9-4.81,1.55-9.63,3.09-14.44,4.64,5.67,7.35,9.85,15.86,12.2,24.84,4.51-2.53,9.9-3.46,15.01-2.59-9.08,1.8-17.84,5.24-25.71,10.12-6.06,3.75-12.19,11.16-8.42,17.21,1.94,3.11,5.85,4.35,9.5,4.71,12.03,1.19,23.56-4.58,34.05-10.57-2,3.38-5.21,6.03-8.9,7.35,3.22,4.67,5.35,10.09,6.17,15.7-2.02,.41-4.04,.83-6.07,1.24-2.95-4.4-5.89-8.81-8.84-13.21-7.29,2.12-15.51,3.68-22.19,.07-6.68-3.61-9.27-14.59-2.86-18.65-6.98,1.69-14.38,1.62-21.33-.22,10.58,.85,21.39-1.38,30.77-6.35-.62-7.41-8.1-12.75-15.49-13.55-7.4-.81-14.69,1.79-21.68,4.35-4.31,1.58-9.1-2.06-10.49-6.43s-.34-9.1,.7-13.57c.83,6.07,1.65,12.14,2.48,18.2,11.54-1.67,23.09-3.34,34.63-5.01-1.74-8.85-11.89-13.24-20.86-14.21-8.97-.96-18.59-.13-26.42-4.61-.04,7.76-.07,15.53-.11,23.29,0,1.8,.28,4.05,1.99,4.63,7.59,2.59,15.5,5.39,20.94,11.27,5.44,5.88,7.35,15.87,1.94,21.79-6.24,6.84-17.37,4.51-26.06,1.31-.52,5.99-1.04,11.99-1.56,17.98-10.45-.11-20.89-1.72-30.89-4.77,9.76,1.01,19.52,2.03,29.27,3.04,3.66-8.46-.42-19.45-8.72-23.46,7.5,4.16,15.8,6.89,24.31,7.99,2.98,.39,6.14,.55,8.88-.67,6.72-2.99,7.43-13,3.22-19.02-4.21-6.03-11.45-9.02-18.3-11.7-5.46-2.14-10.92-4.28-16.37-6.42,3.28,.32,6.56,.64,9.83,.96,.12-6.67,.24-13.33,.36-20,.07-3.84-.32-8.49-3.74-10.23-9.27-4.71-14.72-15.19-15.27-25.58-.55-10.39,3.21-20.61,8.58-29.52,6.17-10.24,14.52-19.15,24.35-25.95-4.07-2.37-8.15-4.75-12.22-7.12,8.34,.64,16.87-3.7,21.25-10.82,8.85-14.37,25.42-23.65,42.3-23.68,4.98,0,10.06,.77,14.48,3.07,4.46,2.32,8.02,6.08,10.91,10.2,9.38,13.35,12.04,31.17,6.97,46.68m-10.47-48.46c-1.92-2.2-4.07-4.23-6.56-5.74-3.94-2.38-8.59-3.36-13.19-3.64-18.85-1.14-37.88,9.98-46.15,26.96-1.6,3.29-5.68,4.35-9.27,5.06-2.54,.5-5.07,.99-7.61,1.49,28.56,10.96,57.75,22.05,88.31,23.28,1.16,.05,2.44,.04,3.3-.74,.86-.77,.73-2.57-.42-2.74-25.78-4.02-50.89-12.28-74.02-24.36,.11-.77,1.24-.74,1.98-.49,10,3.46,19.35,8.57,29.28,12.21,7.92,2.9,16.15,4.85,24.35,6.79,6.49,1.53,12.97,3.07,19.46,4.6,4.2-14.6,.51-31.22-9.47-42.68M42.54,250.94c-4.01-.59-8.02-1.17-12.03-1.76-.49-.07-1.02-.13-1.43,.14-.64,.43-.57,1.37-.43,2.13,.3,1.66,.61,3.32,.91,4.99-1.07,1.48-3.44-.41-3.54-2.24-.1-1.83,.67-3.84-.3-5.39-2.79-.5-5.65-.6-8.46-.3,11.82,16.17,27.19,31.3,46.77,35.52,5.77,1.24,11.7,1.49,17.59,1.73,5.99,.24,12.02,.49,17.97-.28,17.13-2.21,32.86-13.32,40.67-28.73-8.98,3.95-18.99,4.74-28.78,5.47-.69,.05-1.42,.1-2.03-.22-1.33-.68-1.38-2.53-1.29-4.03,.29-5.01-.01-10.06-.91-15-18.43,6.85-38.29,9.81-57.92,8.65,1.1,4.63,1.46,9.43,1.05,14.17-.05,.55-.12,1.15-.51,1.55-.67,.7-1.93,.38-2.53-.38-.6-.76-.7-1.79-.79-2.75-.34-3.77-.68-7.53-1.02-11.3-.12-1.29-1.71-1.79-2.99-1.97m-24.32-29.64c.19,2.01,.38,4.03,.58,6.04,.03,.36,.11,.79,.44,.94,.14,.06,.3,.06,.46,.06,3.67-.04,7.33-.09,11-.13,.31,0,.64-.01,.88-.2,.39-.29,.39-.87,.35-1.36-.17-2.16-.35-4.32-.52-6.49-.05-.61-.15-1.31-.68-1.63-.36-.22-.81-.17-1.23-.12-3.37,.4-6.74,.79-10.11,1.19-.29,.03-.6,.08-.83,.26-.39,.32-.38,.92-.33,1.43m77.58-60.8c.3,.09,.65,.02,.89-.19"/>
    </g>
  </g>
  <g id="illustrations">
    <g id="support_1-2" data-name="support 1">
      <path class="cls-2" d="M129.22,67.97l.75-5.23c.1-.73,.77-1.69,1.31-1.2-.05,2.14-.44,4.26-1.14,6.28-.22,.25-.63,.32-.92,.15Z"/>
      <path class="cls-2" d="M117.29,16.21c-2.88-.32-5.81-.08-8.67,.42-11.37,1.99-21.94,8.23-29.18,17.21-.59,.73-1.57,1.56-2.34,1.02,9.38-13.57,26.36-21.51,42.79-20,2.39,.22,5.41,1.36,5.27,3.76-2.44-1.28-5.13-2.1-7.87-2.41Z"/>
      <path class="cls-2" d="M132.34,189.09c5.19-2.87,10.64-5.27,16.27-7.15,.61-.2,1.47-.31,1.75,.27,.31,.65-.48,1.26-1.14,1.55-6.65,2.94-13.3,5.87-19.95,8.81-.76,.34-1.55-.71-1.27-1.5s1.13-1.19,1.94-1.37c.81-.18,1.67-.22,2.4-.62Z"/>
      <path class="cls-2" d="M47.94,208.9c.69,0,1.5,.04,1.9,.6,.36,.52,.21,1.22,.04,1.82-.4,1.46-.8,2.92-1.21,4.37,.89-.2,1.26,1.1,1.21,2.01-.11,2.07-.23,4.13-.34,6.2-.02,.36-.04,.73-.22,1.05-.27,.48-.84,.7-1.37,.87-1.8,.56-3.68,.85-5.56,.87-.52,0-1.08-.03-1.46-.37-.44-.4-.48-1.06-.5-1.65-.05-2.01-.1-4.02-.15-6.04-.06-2.56-.12-5.11-.19-7.67-.01-.53,0-1.11,.34-1.5,.39-.44,1.05-.48,1.63-.49,1.96-.03,3.91-.06,5.87-.08m-1.54,1.83c-.73,.09-1.46,.17-2.19,.26-.39,.05-.83,.12-1.05,.45-.15,.23-.15,.52-.15,.79,.03,3.71,.06,7.42,.09,11.14,0,.44,.02,.93,.32,1.26,.37,.41,1,.42,1.55,.34,1.22-.16,2.58-.73,2.93-1.92,.18-.61,.04-1.27-.07-1.9-.58-3.18-.57-6.47,.05-9.65,.12-.64-.82-.85-1.47-.78Z"/>
      <path class="cls-2" d="M134.48,60.57c12.53-15.59,28.91-28.81,48.22-34.01,19.32-5.19,41.74-1.21,55.71,13.1,5.14,5.27,9.12,12.1,9.34,19.46,.26,9.15-5.19,17.43-10.98,24.52-13.59,16.65-30.16,30.61-44.47,46.64s-26.67,35.01-29.13,56.36c-3.13,27.1-7.43,56.02-25.79,76.2-19.74,21.7-53.6,28.08-80.94,17.44-27.34-10.64-47.44-36.6-53.64-65.27-6.68-30.91,2.35-64.81,23.53-88.3,1.75-1.94,6-3.01,6.01-.4-9.68,5.35-15.77,15.46-19.94,25.7-9.8,24.05-11.24,51.41-4.03,76.36,1.74,6.01,5.05,12.82,11.25,13.67,27.31,3.78,56.27,7.35,81.5-3.75,3.73-1.64,8.15,1.49,9.42,5.35,1.27,3.87,.31,8.07-.65,12.02,8.41,.43,16.89-.45,25.03-2.6,1.37-.36,2.85-.84,3.62-2.03,.81-1.24,.59-2.86,.35-4.33-.89-5.32-1.79-10.64-2.68-15.96,4.26-3.98,10.43-5.81,16.17-4.81-6.14,.93-14.09,4.21-13,10.32,.87,4.87,1.75,9.73,2.62,14.6,8.58-11.95,13.08-26.78,12.58-41.48-28.75,11.06-59.76,14.52-90.38,17.89-18.23,2.01-36.93,3.98-54.7-.54,2.38-.37,4.76-.74,7.14-1.11-2.81-5.36,1.52-12.86,7.54-13.36,6.56-.55,12.18,7.31,9.57,13.35-4.8,.53-9.6,1.05-14.4,1.58,45.83,.65,91.75-5.99,135.52-19.6-.77-31.51-9.11-62.82-24.13-90.53-1.66-3.07-3.46-6.38-2.96-9.83,1.87-12.75,1.86-25.78-.03-38.52,3.51,11.25,4.14,23.38,1.8,34.93-1.14,5.66,1.89,11.21,4.6,16.31,14.33,27.02,22.08,57.33,23.88,87.86,.92-34.27,17.27-67.84,43.68-89.69,9.15-9.58,18.29-19.16,27.44-28.75,8.28-8.67,17.13-18.83,16.4-30.8-.44-7.22-4.48-13.83-9.67-18.88-14.69-14.32-38.19-16.95-57.53-10.12-19.34,6.83-34.91,21.75-46.78,38.48,.68-2.18,1.36-4.36,2.03-6.54-26.02-1.15-51.82-7.07-75.73-17.39-4.44-1.92-9.31,1.36-12.9,4.6-10.57,9.56-20.07,21.07-23.71,34.84-3.64,13.78-.2,30.11,11.16,38.72,10.71,8.11,25.37,7.79,38.78,7.11,.03-4.76,3.25-9.33,7.71-10.97-1.58,3.19-1.24,7.42,1.32,9.88,2.56,2.47,7.34,2.39,9.38-.52,2.05-2.91-.11-7.86-3.67-7.86-2.72,0-2.44-4.89,.17-5.62,2.62-.73,5.2,1.25,6.93,3.34,2.75,3.33,4.56,8.54,1.65,11.72,4.61-1.91,9.23-3.82,13.84-5.72-1.05,10.01-.87,20.15,.54,30.11-2.31-8.41-3.26-17.19-2.81-25.9-4.81,1.55-9.63,3.09-14.44,4.64,5.67,7.35,9.85,15.86,12.2,24.84,4.51-2.53,9.9-3.46,15.01-2.59-9.08,1.8-17.84,5.24-25.71,10.12-6.06,3.75-12.19,11.16-8.42,17.21,1.94,3.11,5.85,4.35,9.5,4.71,12.03,1.19,23.56-4.58,34.05-10.57-2,3.38-5.21,6.03-8.9,7.35,3.22,4.67,5.35,10.09,6.17,15.7-2.02,.41-4.04,.83-6.07,1.24-2.95-4.4-5.89-8.81-8.84-13.21-7.29,2.12-15.51,3.68-22.19,.07-6.68-3.61-9.27-14.59-2.86-18.65-6.98,1.69-14.38,1.62-21.33-.22,10.58,.85,21.39-1.38,30.77-6.35-.62-7.41-8.1-12.75-15.49-13.55-7.4-.81-14.69,1.79-21.68,4.35-4.31,1.58-9.1-2.06-10.49-6.43s-.34-9.1,.7-13.57c.83,6.07,1.65,12.14,2.48,18.2,11.54-1.67,23.09-3.34,34.63-5.01-1.74-8.85-11.89-13.24-20.86-14.21-8.97-.96-18.59-.13-26.42-4.61-.04,7.76-.07,15.53-.11,23.29,0,1.8,.28,4.05,1.99,4.63,7.59,2.59,15.5,5.39,20.94,11.27,5.44,5.88,7.35,15.87,1.94,21.79-6.24,6.84-17.37,4.51-26.06,1.31-.52,5.99-1.04,11.99-1.56,17.98-10.45-.11-20.89-1.72-30.89-4.77,9.76,1.01,19.52,2.03,29.27,3.04,3.66-8.46-.42-19.45-8.72-23.46,7.5,4.16,15.8,6.89,24.31,7.99,2.98,.39,6.14,.55,8.88-.67,6.72-2.99,7.43-13,3.22-19.02-4.21-6.03-11.45-9.02-18.3-11.7-5.46-2.14-10.92-4.28-16.37-6.42,3.28,.32,6.56,.64,9.83,.96,.12-6.67,.24-13.33,.36-20,.07-3.84-.32-8.49-3.74-10.23-9.27-4.71-14.72-15.19-15.27-25.58-.55-10.39,3.21-20.61,8.58-29.52,6.17-10.24,14.52-19.15,24.35-25.95-4.07-2.37-8.15-4.75-12.22-7.12,8.34,.64,16.87-3.7,21.25-10.82C68.66,9.93,85.23,.65,102.11,.63c4.98,0,10.06,.77,14.48,3.07,4.46,2.32,8.02,6.08,10.91,10.2,9.38,13.35,12.04,31.17,6.97,46.68m-10.47-48.46c-1.92-2.2-4.07-4.23-6.56-5.74-3.94-2.38-8.59-3.36-13.19-3.64-18.85-1.14-37.88,9.98-46.15,26.96-1.6,3.29-5.68,4.35-9.27,5.06-2.54,.5-5.07,.99-7.61,1.49,28.56,10.96,57.75,22.05,88.31,23.28,1.16,.05,2.44,.04,3.3-.74,.86-.77,.73-2.57-.42-2.74-25.78-4.02-50.89-12.28-74.02-24.36,.11-.77,1.24-.74,1.98-.49,10,3.46,19.35,8.57,29.28,12.21,7.92,2.9,16.15,4.85,24.35,6.79,6.49,1.53,12.97,3.07,19.46,4.6,4.2-14.6,.51-31.22-9.47-42.68M42.36,247.34c-4.01-.59-8.02-1.17-12.03-1.76-.49-.07-1.02-.13-1.43,.14-.64,.43-.57,1.37-.43,2.13,.3,1.66,.61,3.32,.91,4.99-1.07,1.48-3.44-.41-3.54-2.24-.1-1.83,.67-3.84-.3-5.39-2.79-.5-5.65-.6-8.46-.3,11.82,16.17,27.19,31.3,46.77,35.52,5.77,1.24,11.7,1.49,17.59,1.73,5.99,.24,12.02,.49,17.97-.28,17.13-2.21,32.86-13.32,40.67-28.73-8.98,3.95-18.99,4.74-28.78,5.47-.69,.05-1.42,.1-2.03-.22-1.33-.68-1.38-2.53-1.29-4.03,.29-5.01-.01-10.06-.91-15-18.43,6.85-38.29,9.81-57.92,8.65,1.1,4.63,1.46,9.43,1.05,14.17-.05,.55-.12,1.15-.51,1.55-.67,.7-1.93,.38-2.53-.38-.6-.76-.7-1.79-.79-2.75-.34-3.77-.68-7.53-1.02-11.3-.12-1.29-1.71-1.79-2.99-1.97m-24.32-29.64c.19,2.01,.38,4.03,.58,6.04,.03,.36,.11,.79,.44,.94,.14,.06,.3,.06,.46,.06,3.67-.04,7.33-.09,11-.13,.31,0,.64-.01,.88-.2,.39-.29,.39-.87,.35-1.36-.17-2.16-.35-4.32-.52-6.49-.05-.61-.15-1.31-.68-1.63-.36-.22-.81-.17-1.23-.12-3.37,.4-6.74,.79-10.11,1.19-.29,.03-.6,.08-.83,.26-.39,.32-.38,.92-.33,1.43m77.58-60.8c.3,.09,.65,.02,.89-.19"/>
    </g>
  </g>
</svg>