<?xml version="1.0" encoding="utf-8"?>
<!-- Generator: Adobe Illustrator 27.0.0, SVG Export Plug-In . SVG Version: 6.00 Build 0)  -->
<svg version="1.1" id="Layer_2_00000005236607323705633330000008758131211591281594_"
	 xmlns="http://www.w3.org/2000/svg" xmlns:xlink="http://www.w3.org/1999/xlink" x="0px" y="0px" viewBox="0 0 623.8 248.5"
	 style="enable-background:new 0 0 623.8 248.5;" xml:space="preserve">
<style type="text/css">
	.st0{fill:#252933;}
	.st1{enable-background:new    ;}
	.st2{fill:#FEE9D9;}
	.st3{fill:none;}
</style>
<g id="illustrations">
	<g>
		<g>
			<g id="arrow_forward">
				<path class="st0" d="M120.4,130c6.2-7.6,12.3-15.2,18.4-22.8c1.4-1.7,3-3.5,5.1-3.8c4.5-0.5,6.5,5.3,6.8,9.8
					c0.3,4.5,1.8,10.4,6.3,10.5c10.4,0.2,20.8,0.5,31.2,0.7c5.2,0.1,10.4,0.3,15.2,2.1c4.8,1.9,9.1,5.9,9.9,10.9
					c0.3,2.1-0.2,4.6-2.1,5.4c-1.3,0.6-2.8,0.3-4.2,0c-15.1-3.3-30.7-2.6-46.1-2c-2.1,0.1-4.6,0.4-5.6,2.2c-1,1.7-0.2,3.8,0.4,5.6
					c1.9,5.7,2.4,12,1.3,17.9c-12.6-9.9-25.3-19.8-37.9-29.7C117.2,135.4,118.8,132.1,120.4,130L120.4,130z"/>
			</g>
			<g>
				<g>
					<g id="prev_button_1">
						<path class="st0" d="M533.9,136.2c-0.3,7.7-2,11.6-4.8,18.2c-2.2,5.3-4.8,10.5-7.5,15.6c-3.3,6.1-7,12.2-14,14.9
							c-2.6,1-5.5,1-8.1,0.2c-5.7-1.7-9.5,5.4-13.4,9.9c-2.2,2.5-4.9,4.4-7.7,6.2c-47.1,30.3-105.9,41.8-160.9,31.4
							c-4.4-0.8-9.2-2-12-5.5c-8.1-10.4-5.1-24.3-3.8-45.7c0.1-1.6,0.5-3.3,0.6-4.9c0.6-5.8,1.5-11.5,3-17.1c0.3-1,0.5-2.1,0.6-3.1
							l7.4-27c3.5-13,8.5-25.6,14.9-37.5c8.7-16.3,17.5-30.6,32.2-41.3c3.1-2.3,5.2-5.6,6.1-9.4c2.2-9.4,10.1-14.6,17.7-19.4
							c6.3-4,12.9-8.1,20.2-9.3c9.6-1.5,19.2,2.1,28,6.1c19.5,9,37.7,20.6,54.1,34.5c2.8,2.4,6.6,3.1,10.1,2.1
							c9.9-2.7,20.9,0,28.7,6.6c1.1,1,1,2.8-0.4,3.5c-3.5,1.9-6.5,4.8-8.6,8.2c-1.2,1.9,0.7,3.8,1.7,5.8c6.1,12,4.8,8.8,9.8,22
							c0.3,4.1,6.5,16.2,6,24.7 M306.3,192c-2,19.2-0.7,22.2,6.3,30.1c7.1,8.1,21.6,7.1,32.4,7.5c51.6,2.1,95.5-7.6,133.8-41.9
							c2.3-2,1.2-9-1.1-10.9c-41.3-33.2-73.4-62.9-100.5-108.4c-1-1.6-3.6-5.3-5.1-6.5c-5.8-4.6-9.5-5-17.4,2.2
							C345.2,76.7,341,85.7,337,92.4C316.8,124,313.3,156.4,306.3,192 M387.9,28.8c-12.2,8.3-15.5,13.8-14.1,20.3l1.4,3.5
							c10.3,13.7,16.9,24.5,27.2,38.3c6.2,8.3,12.5,16.7,19.4,24.4c10.8,12,23.1,22.5,35.4,33c10.7,9.1,15,12.8,25.7,21.9
							c3.6,3.1,10.3,7.1,15.1,6.8c6.6-0.3,12.2-1.9,15.3-7.7c3.4-6.7,7.3-14,9.2-21.3c5.3-20.3-0.3-41.4-8.8-60.6
							c-2-4.5-4.1-9.3-3.5-14.2s5.3-9.6,10.1-8.4c-3.3-5.9-11.5-6.6-18.2-5.9s-15.4,3.1-20.4-1.4c-17-15.4-30.6-24.7-52-33.1
							c-4.3-1.7-13.9-4.6-18.5-4.6c-5.4,0-7.3,0.8-12.1,3.1"/>
					</g>
					<g class="st1">
						<path class="st0" d="M330.3,181.3h-2.8v-22.7h2.6l0.3,3.1V181.3z M341.4,167c0,1.6-0.2,3-0.7,4.3c-0.5,1.3-1.2,2.2-2.2,3
							s-2.1,1.1-3.4,1.1c-1.4,0-2.6-0.3-3.5-0.9s-1.7-1.5-2.2-2.6c-0.5-1.1-0.9-2.4-1-4v-1.8c0.2-1.6,0.5-3,1.1-4.1
							c0.5-1.2,1.3-2.1,2.2-2.7s2.1-0.9,3.5-0.9s2.5,0.3,3.5,1c0.9,0.7,1.7,1.7,2.2,2.9c0.5,1.3,0.7,2.7,0.7,4.4V167z M338.5,166.7
							c0-1.1-0.2-2.1-0.5-3c-0.3-0.9-0.8-1.6-1.4-2.2c-0.7-0.5-1.5-0.8-2.5-0.8c-0.7,0-1.3,0.1-1.8,0.4s-1,0.6-1.3,1
							c-0.4,0.4-0.7,0.9-0.9,1.4c-0.2,0.5-0.4,1.1-0.5,1.6v4c0.2,0.7,0.5,1.4,0.8,2c0.4,0.6,0.8,1.1,1.4,1.5
							c0.6,0.4,1.4,0.6,2.3,0.6c1,0,1.8-0.3,2.5-0.8c0.6-0.6,1.1-1.3,1.4-2.2c0.3-0.9,0.5-1.9,0.5-3V166.7z"/>
						<path class="st0" d="M347.7,175h-2.8v-16.4h2.8l0.1,2.6V175z M352.8,161.1c-0.2,0-0.5-0.1-0.7-0.1c-0.2,0-0.4,0-0.7,0
							c-0.9,0-1.6,0.2-2.2,0.5c-0.6,0.4-1,0.8-1.4,1.5c-0.3,0.6-0.5,1.3-0.6,2.1l-0.8,0.5c0-1.3,0.2-2.5,0.5-3.6
							c0.4-1.1,0.9-2,1.7-2.6c0.8-0.7,1.7-1,2.9-1c0.2,0,0.4,0,0.7,0.1c0.3,0,0.5,0.1,0.6,0.1V161.1z"/>
					</g>
					<g class="st1">
						<path class="st0" d="M362.2,175.3c-1.5,0-2.8-0.3-4-1c-1.1-0.7-2-1.6-2.6-2.8c-0.6-1.2-0.9-2.6-0.9-4.1v-0.7
							c0-1.8,0.3-3.3,1-4.5c0.7-1.3,1.6-2.2,2.7-2.9c1.1-0.7,2.3-1,3.5-1c1.6,0,2.9,0.4,3.9,1.1c1,0.7,1.7,1.7,2.2,2.9
							c0.5,1.2,0.7,2.6,0.7,4.1v1.3h-12.2v-2.3h9.4v-0.2c0-0.7-0.2-1.4-0.4-2.1c-0.3-0.7-0.7-1.3-1.2-1.7s-1.3-0.7-2.3-0.7
							c-0.8,0-1.6,0.2-2.2,0.7c-0.7,0.5-1.2,1.2-1.5,2.1c-0.4,0.9-0.6,2-0.6,3.3v0.7c0,1,0.2,2,0.6,2.8s0.9,1.5,1.7,2
							c0.7,0.5,1.6,0.8,2.6,0.8c1,0,1.8-0.2,2.5-0.6s1.3-0.9,1.8-1.6l1.7,1.3c-0.5,0.8-1.3,1.5-2.3,2.2
							C365.2,175,363.9,175.3,362.2,175.3z"/>
					</g>
					<g class="st1">
						<path class="st0" d="M377.6,172.6l0.3,2.4H376l-5.9-16.4h2.9L377.6,172.6z M381.1,158.6h2.9l-5.9,16.4h-1.9l0.4-2.5
							L381.1,158.6z"/>
						<path class="st0" d="M386.7,154.3c0-0.4,0.1-0.8,0.4-1.1c0.3-0.3,0.7-0.5,1.2-0.5s1,0.2,1.2,0.5c0.3,0.3,0.4,0.7,0.4,1.1
							c0,0.4-0.1,0.8-0.4,1.1c-0.3,0.3-0.7,0.5-1.2,0.5s-1-0.2-1.2-0.5C386.9,155.1,386.7,154.7,386.7,154.3z M389.8,175H387v-16.4
							h2.8V175z"/>
						<path class="st0" d="M393.5,166.6c0-1.6,0.3-3,0.9-4.3c0.6-1.3,1.5-2.2,2.6-3c1.1-0.7,2.4-1.1,4-1.1c1.5,0,2.9,0.4,4,1.1
							s2,1.7,2.6,3c0.6,1.3,0.9,2.7,0.9,4.3v0.3c0,1.6-0.3,3-0.9,4.2c-0.6,1.3-1.5,2.2-2.6,3s-2.4,1.1-4,1.1s-2.9-0.4-4-1.1
							c-1.1-0.7-2-1.7-2.6-3c-0.6-1.3-0.9-2.7-0.9-4.2V166.6z M396.4,167c0,1.1,0.2,2.1,0.5,3c0.3,0.9,0.9,1.7,1.5,2.2
							c0.7,0.6,1.5,0.8,2.6,0.8c1,0,1.9-0.3,2.6-0.8c0.7-0.6,1.2-1.3,1.5-2.2c0.3-0.9,0.5-1.9,0.5-3v-0.3c0-1.1-0.2-2.1-0.5-3
							c-0.3-0.9-0.9-1.7-1.5-2.2c-0.7-0.6-1.5-0.8-2.6-0.8c-1,0-1.9,0.3-2.6,0.8c-0.7,0.6-1.2,1.3-1.5,2.2c-0.3,0.9-0.5,1.9-0.5,3
							V167z"/>
						<path class="st0" d="M423.7,167.7c0,1.5-0.2,2.8-0.6,3.9c-0.4,1.1-1.1,2-2,2.7c-0.9,0.7-2.2,1-3.8,1c-1.6,0-2.9-0.5-3.9-1.4
							s-1.5-2.5-1.5-4.7v-10.6h2.8v10.6c0,1,0.1,1.8,0.4,2.3c0.3,0.5,0.7,0.9,1.1,1.1c0.5,0.2,0.9,0.3,1.4,0.3
							c1.2,0,2.1-0.2,2.8-0.7s1.2-1.1,1.5-1.9s0.5-1.7,0.5-2.6L423.7,167.7z M422,158.6h2.8V175h-2.7l-0.1-3.8V158.6z"/>
						<path class="st0" d="M438.6,170.6c0-0.4-0.1-0.8-0.3-1.1c-0.2-0.3-0.5-0.7-1.1-1c-0.5-0.3-1.3-0.5-2.4-0.8
							c-1.2-0.3-2.3-0.6-3.1-1c-0.9-0.4-1.6-0.9-2-1.5s-0.7-1.4-0.7-2.3c0-0.9,0.2-1.7,0.7-2.4c0.5-0.7,1.2-1.3,2.1-1.7
							c0.9-0.4,2-0.7,3.2-0.7c1.3,0,2.4,0.2,3.4,0.7c0.9,0.5,1.6,1.1,2.1,1.8c0.5,0.8,0.7,1.6,0.7,2.6h-2.8c0-0.7-0.3-1.3-0.9-1.9
							c-0.6-0.6-1.4-0.9-2.5-0.9c-0.8,0-1.4,0.1-1.9,0.4c-0.5,0.2-0.8,0.5-1,0.9c-0.2,0.4-0.3,0.8-0.3,1.2s0.1,0.8,0.3,1.1
							c0.2,0.3,0.6,0.6,1.1,0.8c0.5,0.2,1.3,0.5,2.4,0.7c1.3,0.3,2.4,0.7,3.3,1.1s1.5,0.9,1.9,1.6c0.4,0.6,0.6,1.4,0.6,2.3
							c0,0.9-0.3,1.8-0.8,2.5s-1.3,1.3-2.2,1.7c-0.9,0.4-2.1,0.6-3.3,0.6c-1.4,0-2.7-0.3-3.7-0.8c-1-0.5-1.8-1.2-2.3-2
							c-0.5-0.8-0.8-1.7-0.8-2.6h2.8c0,0.8,0.3,1.4,0.7,1.8c0.4,0.4,0.9,0.8,1.5,1c0.6,0.2,1.2,0.3,1.7,0.3c0.8,0,1.4-0.1,1.9-0.3
							c0.5-0.2,0.9-0.5,1.2-0.8C438.4,171.5,438.6,171.1,438.6,170.6z"/>
					</g>
					<g class="st1">
						<path class="st0" d="M329.4,207.8c0-0.4-0.1-0.8-0.3-1.1c-0.2-0.3-0.5-0.7-1.1-1c-0.5-0.3-1.3-0.5-2.4-0.8
							c-1.2-0.3-2.3-0.6-3.1-1c-0.9-0.4-1.6-0.9-2-1.5s-0.7-1.4-0.7-2.3c0-0.9,0.2-1.7,0.7-2.4c0.5-0.7,1.2-1.3,2.1-1.7
							c0.9-0.4,2-0.7,3.2-0.7c1.3,0,2.4,0.2,3.4,0.7c0.9,0.5,1.6,1.1,2.1,1.8c0.5,0.8,0.7,1.6,0.7,2.6h-2.8c0-0.7-0.3-1.3-0.9-1.9
							c-0.6-0.6-1.4-0.9-2.5-0.9c-0.8,0-1.4,0.1-1.9,0.4c-0.5,0.2-0.8,0.5-1,0.9c-0.2,0.4-0.3,0.8-0.3,1.2s0.1,0.8,0.3,1.1
							c0.2,0.3,0.6,0.6,1.1,0.8c0.5,0.2,1.3,0.5,2.4,0.7c1.3,0.3,2.4,0.7,3.3,1.1s1.5,0.9,1.9,1.6c0.4,0.6,0.6,1.4,0.6,2.3
							c0,0.9-0.3,1.8-0.8,2.5s-1.3,1.3-2.2,1.7c-0.9,0.4-2.1,0.6-3.3,0.6c-1.4,0-2.7-0.3-3.7-0.8c-1-0.5-1.8-1.2-2.3-2
							c-0.5-0.8-0.8-1.7-0.8-2.6h2.8c0,0.8,0.3,1.4,0.7,1.8c0.4,0.4,0.9,0.8,1.5,1c0.6,0.2,1.2,0.3,1.7,0.3c0.8,0,1.4-0.1,1.9-0.3
							c0.5-0.2,0.9-0.5,1.2-0.8C329.2,208.7,329.4,208.3,329.4,207.8z"/>
						<path class="st0" d="M342.7,197.9h-8.9v-2.1h8.9V197.9z M339.6,191.8v16.3c0,0.6,0.1,1,0.3,1.3s0.4,0.5,0.7,0.6
							c0.3,0.1,0.6,0.1,0.9,0.1c0.2,0,0.5,0,0.7-0.1c0.3,0,0.4-0.1,0.6-0.1l0,2.3c-0.2,0.1-0.5,0.1-0.9,0.2
							c-0.4,0.1-0.8,0.1-1.3,0.1c-0.7,0-1.3-0.1-1.9-0.4c-0.6-0.3-1-0.7-1.4-1.4s-0.5-1.5-0.5-2.6v-16.3H339.6z"/>
						<path class="st0" d="M356.1,204.2h-2.8c-1.6,0-2.8,0.3-3.7,0.8s-1.3,1.3-1.3,2.3c0,0.8,0.3,1.5,0.8,2c0.5,0.5,1.3,0.8,2.3,0.8
							c0.9,0,1.6-0.2,2.3-0.5s1.2-0.8,1.6-1.3c0.4-0.5,0.6-1,0.6-1.5l1.2,1.3c-0.1,0.4-0.3,0.9-0.6,1.4c-0.3,0.5-0.7,1-1.2,1.5
							c-0.5,0.5-1.1,0.9-1.8,1.2c-0.7,0.3-1.5,0.5-2.4,0.5c-1.1,0-2.1-0.2-2.9-0.6c-0.8-0.4-1.5-1-1.9-1.7s-0.7-1.6-0.7-2.5
							c0-1.8,0.7-3.1,2-4s3.1-1.4,5.4-1.4h3.2L356.1,204.2z M355.6,201c0-1-0.3-1.8-0.9-2.3c-0.6-0.6-1.4-0.9-2.6-0.9
							c-0.7,0-1.3,0.1-1.8,0.4c-0.5,0.2-0.9,0.6-1.2,1c-0.3,0.4-0.4,0.8-0.4,1.3h-2.8c0-0.8,0.3-1.6,0.8-2.3
							c0.5-0.7,1.3-1.4,2.3-1.8c1-0.5,2.1-0.7,3.4-0.7c1.2,0,2.2,0.2,3.2,0.6c0.9,0.4,1.6,1,2.2,1.8c0.5,0.8,0.8,1.8,0.8,3v7.6
							c0,0.5,0,1.1,0.1,1.7c0.1,0.6,0.2,1.1,0.4,1.6v0.2h-3c-0.1-0.3-0.3-0.8-0.3-1.3s-0.1-1-0.1-1.5V201z"/>
						<path class="st0" d="M362.2,203.9c0-1.7,0.3-3.1,0.8-4.4c0.5-1.3,1.3-2.2,2.2-2.9c1-0.7,2.1-1,3.5-1c1,0,1.9,0.2,2.7,0.5
							c0.8,0.4,1.4,0.9,2,1.6c0.5,0.7,1,1.5,1.3,2.5c0.3,1,0.5,2,0.7,3.2v1.5c-0.2,1.6-0.5,3-1,4.1c-0.5,1.2-1.2,2-2.2,2.7
							c-0.9,0.6-2.1,0.9-3.5,0.9c-1.3,0-2.5-0.4-3.4-1.1c-1-0.7-1.7-1.7-2.2-3c-0.5-1.3-0.8-2.7-0.8-4.3V203.9z M376,195.8v16
							c0,1.4-0.3,2.7-0.9,3.7c-0.6,1-1.4,1.8-2.5,2.3c-1,0.5-2.2,0.8-3.6,0.8c-0.6,0-1.2-0.1-2-0.3c-0.8-0.2-1.5-0.5-2.2-0.9
							c-0.7-0.4-1.3-1-1.8-1.7l1.5-1.6c0.7,0.8,1.4,1.4,2.2,1.7c0.8,0.3,1.5,0.5,2.2,0.5c1.3,0,2.4-0.4,3.2-1.1
							c0.8-0.8,1.2-1.8,1.2-3.3v-12.6l0.3-3.6H376z M365,204.2c0,1.1,0.1,2.1,0.4,3c0.3,0.9,0.8,1.6,1.4,2.2s1.5,0.8,2.5,0.8
							c0.9,0,1.7-0.2,2.3-0.6c0.6-0.4,1.1-0.9,1.4-1.6s0.6-1.3,0.8-2.1v-3.7c-0.1-0.6-0.3-1.1-0.5-1.6c-0.2-0.5-0.5-1-0.9-1.4
							c-0.4-0.4-0.8-0.7-1.3-1c-0.5-0.2-1.1-0.4-1.8-0.4c-1,0-1.8,0.3-2.5,0.8s-1.1,1.3-1.4,2.2c-0.3,0.9-0.4,1.9-0.4,3V204.2z"/>
						<path class="st0" d="M387.1,212.5c-1.5,0-2.8-0.3-4-1c-1.1-0.7-2-1.6-2.6-2.8c-0.6-1.2-0.9-2.6-0.9-4.1v-0.7
							c0-1.8,0.3-3.3,1-4.5c0.7-1.3,1.6-2.2,2.7-2.9c1.1-0.7,2.3-1,3.5-1c1.6,0,2.9,0.4,3.9,1.1c1,0.7,1.7,1.7,2.2,2.9
							c0.5,1.2,0.7,2.6,0.7,4.1v1.3h-12.2v-2.3h9.4v-0.2c0-0.7-0.2-1.4-0.4-2.1c-0.3-0.7-0.7-1.3-1.2-1.7c-0.6-0.4-1.3-0.7-2.3-0.7
							c-0.8,0-1.6,0.2-2.2,0.7c-0.7,0.5-1.2,1.2-1.5,2.1c-0.4,0.9-0.6,2-0.6,3.3v0.7c0,1,0.2,2,0.6,2.8c0.4,0.9,0.9,1.5,1.7,2
							c0.7,0.5,1.6,0.8,2.6,0.8c1,0,1.8-0.2,2.5-0.6c0.7-0.4,1.3-0.9,1.8-1.6l1.7,1.3c-0.5,0.8-1.3,1.5-2.3,2.2
							C390,212.2,388.7,212.5,387.1,212.5z"/>
					</g>
				</g>
				<g>
					<g id="prev_button_1-2">
						<path class="st2" d="M532.9,132.5c-0.3,7.7-2,11.6-4.8,18.2c-2.2,5.3-4.8,10.5-7.5,15.6c-3.3,6.1-7,12.2-14,14.9
							c-2.6,1-5.5,1-8.1,0.2c-5.7-1.7-9.5,5.4-13.4,9.9c-2.2,2.5-4.9,4.4-7.7,6.2c-47.1,30.3-105.9,41.8-160.9,31.4
							c-4.4-0.8-9.2-2-12-5.5c-8.1-10.4-5.1-24.3-3.8-45.7c0.1-1.6,0.5-3.3,0.6-4.9c0.6-5.8,1.5-11.5,3-17.1c0.3-1,0.5-2.1,0.6-3.1
							l7.4-27c3.5-13,8.5-25.6,14.9-37.5c8.7-16.3,17.5-30.6,32.2-41.3c3.1-2.3,5.2-5.6,6.1-9.4c2.2-9.4,10.1-14.6,17.7-19.4
							c6.3-4,12.9-8.1,20.2-9.3c9.6-1.5,19.2,2.1,28,6.1c19.5,9,37.7,20.6,54.1,34.5c2.8,2.4,6.6,3.1,10.1,2.1
							c9.9-2.7,20.9,0,28.7,6.6c1.1,1,1,2.8-0.4,3.5c-3.5,1.9-6.5,4.8-8.6,8.2c-1.2,1.9,0.7,3.8,1.7,5.8c6.1,12,4.8,8.8,9.8,22
							c0.3,4.1,6.5,16.2,6,24.7 M305.3,188.3c-2,19.2-0.7,22.2,6.3,30.1c7.1,8.1,21.6,7.1,32.4,7.5c51.6,2.1,95.5-7.6,133.8-41.9
							c2.3-2,1.2-9-1.1-10.9c-41.3-33.2-73.4-62.9-100.5-108.4c-1-1.6-3.6-5.3-5.1-6.5c-5.8-4.6-9.5-5-17.4,2.2
							C344.2,73,340,82,336,88.7C315.8,120.3,312.3,152.7,305.3,188.3 M386.9,25.1c-12.2,8.3-15.5,13.8-14.1,20.3l1.4,3.5
							c10.3,13.7,16.9,24.5,27.2,38.3c6.2,8.3,12.5,16.7,19.4,24.4c10.8,12,23.1,22.5,35.4,33c10.7,9.1,15,12.8,25.7,21.9
							c3.6,3.1,10.3,7.1,15.1,6.8c6.6-0.3,12.2-1.9,15.3-7.7c3.4-6.7,7.3-14,9.2-21.3c5.3-20.3-0.3-41.4-8.8-60.6
							c-2-4.5-4.1-9.3-3.5-14.2s5.3-9.6,10.1-8.4c-3.3-5.9-11.5-6.6-18.2-5.9c-6.8,0.7-15.4,3.1-20.4-1.4
							c-17-15.4-30.6-24.7-52-33.1c-4.3-1.7-13.9-4.6-18.5-4.6c-5.4,0-7.3,0.8-12.1,3.1"/>
					</g>
					<g class="st1">
						<path class="st2" d="M329.3,177.6h-2.8v-22.7h2.6l0.3,3.1V177.6z M340.4,163.3c0,1.6-0.2,3-0.7,4.3c-0.5,1.3-1.2,2.2-2.2,3
							s-2.1,1.1-3.4,1.1c-1.4,0-2.6-0.3-3.5-0.9s-1.7-1.5-2.2-2.6c-0.5-1.1-0.9-2.4-1-4v-1.8c0.2-1.6,0.5-3,1.1-4.1
							c0.5-1.2,1.3-2.1,2.2-2.7s2.1-0.9,3.5-0.9s2.5,0.3,3.5,1c0.9,0.7,1.7,1.7,2.2,2.9c0.5,1.3,0.7,2.7,0.7,4.4V163.3z M337.5,163
							c0-1.1-0.2-2.1-0.5-3c-0.3-0.9-0.8-1.6-1.4-2.2c-0.7-0.5-1.5-0.8-2.5-0.8c-0.7,0-1.3,0.1-1.8,0.4s-1,0.6-1.3,1
							c-0.4,0.4-0.7,0.9-0.9,1.4c-0.2,0.5-0.4,1.1-0.5,1.6v4c0.2,0.7,0.5,1.4,0.8,2c0.4,0.6,0.8,1.1,1.4,1.5
							c0.6,0.4,1.4,0.6,2.3,0.6c1,0,1.8-0.3,2.5-0.8c0.6-0.6,1.1-1.3,1.4-2.2c0.3-0.9,0.5-1.9,0.5-3V163z"/>
						<path class="st2" d="M346.7,171.3h-2.8v-16.4h2.8l0.1,2.6V171.3z M351.8,157.4c-0.2,0-0.5-0.1-0.7-0.1c-0.2,0-0.4,0-0.7,0
							c-0.9,0-1.6,0.2-2.2,0.5c-0.6,0.4-1,0.8-1.4,1.5c-0.3,0.6-0.5,1.3-0.6,2.1l-0.8,0.5c0-1.3,0.2-2.5,0.5-3.6
							c0.4-1.1,0.9-2,1.7-2.6c0.8-0.7,1.7-1,2.9-1c0.2,0,0.4,0,0.7,0.1c0.3,0,0.5,0.1,0.6,0.1V157.4z"/>
					</g>
					<g class="st1">
						<path class="st2" d="M361.2,171.6c-1.5,0-2.8-0.3-4-1c-1.1-0.7-2-1.6-2.6-2.8c-0.6-1.2-0.9-2.6-0.9-4.1V163
							c0-1.8,0.3-3.3,1-4.5c0.7-1.3,1.6-2.2,2.7-2.9c1.1-0.7,2.3-1,3.5-1c1.6,0,2.9,0.4,3.9,1.1c1,0.7,1.7,1.7,2.2,2.9
							c0.5,1.2,0.7,2.6,0.7,4.1v1.3h-12.2v-2.3h9.4v-0.2c0-0.7-0.2-1.4-0.4-2.1c-0.3-0.7-0.7-1.3-1.2-1.7s-1.3-0.7-2.3-0.7
							c-0.8,0-1.6,0.2-2.2,0.7c-0.7,0.5-1.2,1.2-1.5,2.1c-0.4,0.9-0.6,2-0.6,3.3v0.7c0,1,0.2,2,0.6,2.8s0.9,1.5,1.7,2
							c0.7,0.5,1.6,0.8,2.6,0.8c1,0,1.8-0.2,2.5-0.6s1.3-0.9,1.8-1.6l1.7,1.3c-0.5,0.8-1.3,1.5-2.3,2.2
							C364.2,171.3,362.9,171.6,361.2,171.6z"/>
					</g>
					<g class="st1">
						<path class="st2" d="M376.6,168.9l0.3,2.4H375l-5.9-16.4h2.9L376.6,168.9z M380.1,154.9h2.9l-5.9,16.4h-1.9l0.4-2.5
							L380.1,154.9z"/>
						<path class="st2" d="M385.7,150.6c0-0.4,0.1-0.8,0.4-1.1c0.3-0.3,0.7-0.5,1.2-0.5s1,0.2,1.2,0.5c0.3,0.3,0.4,0.7,0.4,1.1
							c0,0.4-0.1,0.8-0.4,1.1c-0.3,0.3-0.7,0.5-1.2,0.5s-1-0.2-1.2-0.5C385.9,151.4,385.7,151,385.7,150.6z M388.8,171.3H386v-16.4
							h2.8V171.3z"/>
						<path class="st2" d="M392.5,162.9c0-1.6,0.3-3,0.9-4.3c0.6-1.3,1.5-2.2,2.6-3c1.1-0.7,2.4-1.1,4-1.1c1.5,0,2.9,0.4,4,1.1
							s2,1.7,2.6,3c0.6,1.3,0.9,2.7,0.9,4.3v0.3c0,1.6-0.3,3-0.9,4.2c-0.6,1.3-1.5,2.2-2.6,3s-2.4,1.1-4,1.1s-2.9-0.4-4-1.1
							c-1.1-0.7-2-1.7-2.6-3c-0.6-1.3-0.9-2.7-0.9-4.2V162.9z M395.4,163.3c0,1.1,0.2,2.1,0.5,3c0.3,0.9,0.9,1.7,1.5,2.2
							c0.7,0.6,1.5,0.8,2.6,0.8c1,0,1.9-0.3,2.6-0.8c0.7-0.6,1.2-1.3,1.5-2.2c0.3-0.9,0.5-1.9,0.5-3v-0.3c0-1.1-0.2-2.1-0.5-3
							c-0.3-0.9-0.9-1.7-1.5-2.2c-0.7-0.6-1.5-0.8-2.6-0.8c-1,0-1.9,0.3-2.6,0.8c-0.7,0.6-1.2,1.3-1.5,2.2c-0.3,0.9-0.5,1.9-0.5,3
							V163.3z"/>
						<path class="st2" d="M422.7,164c0,1.5-0.2,2.8-0.6,3.9c-0.4,1.1-1.1,2-2,2.7c-0.9,0.7-2.2,1-3.8,1c-1.6,0-2.9-0.5-3.9-1.4
							s-1.5-2.5-1.5-4.7v-10.6h2.8v10.6c0,1,0.1,1.8,0.4,2.3c0.3,0.5,0.7,0.9,1.1,1.1c0.5,0.2,0.9,0.3,1.4,0.3
							c1.2,0,2.1-0.2,2.8-0.7s1.2-1.1,1.5-1.9s0.5-1.7,0.5-2.6L422.7,164z M421,154.9h2.8v16.4h-2.7l-0.1-3.8V154.9z"/>
						<path class="st2" d="M437.6,166.9c0-0.4-0.1-0.8-0.3-1.1c-0.2-0.3-0.5-0.7-1.1-1c-0.5-0.3-1.3-0.5-2.4-0.8
							c-1.2-0.3-2.3-0.6-3.1-1c-0.9-0.4-1.6-0.9-2-1.5s-0.7-1.4-0.7-2.3c0-0.9,0.2-1.7,0.7-2.4c0.5-0.7,1.2-1.3,2.1-1.7
							c0.9-0.4,2-0.7,3.2-0.7c1.3,0,2.4,0.2,3.4,0.7c0.9,0.5,1.6,1.1,2.1,1.8c0.5,0.8,0.7,1.6,0.7,2.6h-2.8c0-0.7-0.3-1.3-0.9-1.9
							c-0.6-0.6-1.4-0.9-2.5-0.9c-0.8,0-1.4,0.1-1.9,0.4c-0.5,0.2-0.8,0.5-1,0.9c-0.2,0.4-0.3,0.8-0.3,1.2s0.1,0.8,0.3,1.1
							c0.2,0.3,0.6,0.6,1.1,0.8c0.5,0.2,1.3,0.5,2.4,0.7c1.3,0.3,2.4,0.7,3.3,1.1s1.5,0.9,1.9,1.6c0.4,0.6,0.6,1.4,0.6,2.3
							c0,0.9-0.3,1.8-0.8,2.5s-1.3,1.3-2.2,1.7c-0.9,0.4-2.1,0.6-3.3,0.6c-1.4,0-2.7-0.3-3.7-0.8c-1-0.5-1.8-1.2-2.3-2
							c-0.5-0.8-0.8-1.7-0.8-2.6h2.8c0,0.8,0.3,1.4,0.7,1.8c0.4,0.4,0.9,0.8,1.5,1c0.6,0.2,1.2,0.3,1.7,0.3c0.8,0,1.4-0.1,1.9-0.3
							c0.5-0.2,0.9-0.5,1.2-0.8C437.4,167.8,437.6,167.4,437.6,166.9z"/>
					</g>
					<g class="st1">
						<path class="st2" d="M328.4,204.1c0-0.4-0.1-0.8-0.3-1.1c-0.2-0.3-0.5-0.7-1.1-1c-0.5-0.3-1.3-0.5-2.4-0.8
							c-1.2-0.3-2.3-0.6-3.1-1c-0.9-0.4-1.6-0.9-2-1.5s-0.7-1.4-0.7-2.3c0-0.9,0.2-1.7,0.7-2.4c0.5-0.7,1.2-1.3,2.1-1.7
							c0.9-0.4,2-0.7,3.2-0.7c1.3,0,2.4,0.2,3.4,0.7c0.9,0.5,1.6,1.1,2.1,1.8c0.5,0.8,0.7,1.6,0.7,2.6h-2.8c0-0.7-0.3-1.3-0.9-1.9
							c-0.6-0.6-1.4-0.9-2.5-0.9c-0.8,0-1.4,0.1-1.9,0.4c-0.5,0.2-0.8,0.5-1,0.9c-0.2,0.4-0.3,0.8-0.3,1.2s0.1,0.8,0.3,1.1
							c0.2,0.3,0.6,0.6,1.1,0.8c0.5,0.2,1.3,0.5,2.4,0.7c1.3,0.3,2.4,0.7,3.3,1.1s1.5,0.9,1.9,1.6c0.4,0.6,0.6,1.4,0.6,2.3
							c0,0.9-0.3,1.8-0.8,2.5s-1.3,1.3-2.2,1.7c-0.9,0.4-2.1,0.6-3.3,0.6c-1.4,0-2.7-0.3-3.7-0.8c-1-0.5-1.8-1.2-2.3-2
							c-0.5-0.8-0.8-1.7-0.8-2.6h2.8c0,0.8,0.3,1.4,0.7,1.8c0.4,0.4,0.9,0.8,1.5,1c0.6,0.2,1.2,0.3,1.7,0.3c0.8,0,1.4-0.1,1.9-0.3
							c0.5-0.2,0.9-0.5,1.2-0.8C328.2,205,328.4,204.6,328.4,204.1z"/>
						<path class="st2" d="M341.7,194.2h-8.9v-2.1h8.9V194.2z M338.6,188.1v16.3c0,0.6,0.1,1,0.3,1.3s0.4,0.5,0.7,0.6
							c0.3,0.1,0.6,0.1,0.9,0.1c0.2,0,0.5,0,0.7-0.1c0.3,0,0.4-0.1,0.6-0.1l0,2.3c-0.2,0.1-0.5,0.1-0.9,0.2
							c-0.4,0.1-0.8,0.1-1.3,0.1c-0.7,0-1.3-0.1-1.9-0.4c-0.6-0.3-1-0.7-1.4-1.4s-0.5-1.5-0.5-2.6v-16.3H338.6z"/>
						<path class="st2" d="M355.1,200.5h-2.8c-1.6,0-2.8,0.3-3.7,0.8s-1.3,1.3-1.3,2.3c0,0.8,0.3,1.5,0.8,2c0.5,0.5,1.3,0.8,2.3,0.8
							c0.9,0,1.6-0.2,2.3-0.5s1.2-0.8,1.6-1.3c0.4-0.5,0.6-1,0.6-1.5l1.2,1.3c-0.1,0.4-0.3,0.9-0.6,1.4c-0.3,0.5-0.7,1-1.2,1.5
							c-0.5,0.5-1.1,0.9-1.8,1.2c-0.7,0.3-1.5,0.5-2.4,0.5c-1.1,0-2.1-0.2-2.9-0.6c-0.8-0.4-1.5-1-1.9-1.7s-0.7-1.6-0.7-2.5
							c0-1.8,0.7-3.1,2-4s3.1-1.4,5.4-1.4h3.2L355.1,200.5z M354.6,197.3c0-1-0.3-1.8-0.9-2.3c-0.6-0.6-1.4-0.9-2.6-0.9
							c-0.7,0-1.3,0.1-1.8,0.4c-0.5,0.2-0.9,0.6-1.2,1c-0.3,0.4-0.4,0.8-0.4,1.3h-2.8c0-0.8,0.3-1.6,0.8-2.3
							c0.5-0.7,1.3-1.4,2.3-1.8c1-0.5,2.1-0.7,3.4-0.7c1.2,0,2.2,0.2,3.2,0.6c0.9,0.4,1.6,1,2.2,1.8c0.5,0.8,0.8,1.8,0.8,3v7.6
							c0,0.5,0,1.1,0.1,1.7c0.1,0.6,0.2,1.1,0.4,1.6v0.2h-3c-0.1-0.3-0.3-0.8-0.3-1.3s-0.1-1-0.1-1.5V197.3z"/>
						<path class="st2" d="M361.2,200.2c0-1.7,0.3-3.1,0.8-4.4c0.5-1.3,1.3-2.2,2.2-2.9c1-0.7,2.1-1,3.5-1c1,0,1.9,0.2,2.7,0.5
							c0.8,0.4,1.4,0.9,2,1.6c0.5,0.7,1,1.5,1.3,2.5c0.3,1,0.5,2,0.7,3.2v1.5c-0.2,1.6-0.5,3-1,4.1c-0.5,1.2-1.2,2-2.2,2.7
							c-0.9,0.6-2.1,0.9-3.5,0.9c-1.3,0-2.5-0.4-3.4-1.1c-1-0.7-1.7-1.7-2.2-3c-0.5-1.3-0.8-2.7-0.8-4.3V200.2z M375,192.1v16
							c0,1.4-0.3,2.7-0.9,3.7c-0.6,1-1.4,1.8-2.5,2.3c-1,0.5-2.2,0.8-3.6,0.8c-0.6,0-1.2-0.1-2-0.3c-0.8-0.2-1.5-0.5-2.2-0.9
							c-0.7-0.4-1.3-1-1.8-1.7l1.5-1.6c0.7,0.8,1.4,1.4,2.2,1.7c0.8,0.3,1.5,0.5,2.2,0.5c1.3,0,2.4-0.4,3.2-1.1
							c0.8-0.8,1.2-1.8,1.2-3.3v-12.6l0.3-3.6H375z M364,200.5c0,1.1,0.1,2.1,0.4,3c0.3,0.9,0.8,1.6,1.4,2.2s1.5,0.8,2.5,0.8
							c0.9,0,1.7-0.2,2.3-0.6c0.6-0.4,1.1-0.9,1.4-1.6s0.6-1.3,0.8-2.1v-3.7c-0.1-0.6-0.3-1.1-0.5-1.6c-0.2-0.5-0.5-1-0.9-1.4
							c-0.4-0.4-0.8-0.7-1.3-1c-0.5-0.2-1.1-0.4-1.8-0.4c-1,0-1.8,0.3-2.5,0.8s-1.1,1.3-1.4,2.2c-0.3,0.9-0.4,1.9-0.4,3V200.5z"/>
						<path class="st2" d="M386.1,208.8c-1.5,0-2.8-0.3-4-1c-1.1-0.7-2-1.6-2.6-2.8c-0.6-1.2-0.9-2.6-0.9-4.1v-0.7
							c0-1.8,0.3-3.3,1-4.5c0.7-1.3,1.6-2.2,2.7-2.9c1.1-0.7,2.3-1,3.5-1c1.6,0,2.9,0.4,3.9,1.1c1,0.7,1.7,1.7,2.2,2.9
							c0.5,1.2,0.7,2.6,0.7,4.1v1.3h-12.2v-2.3h9.4v-0.2c0-0.7-0.2-1.4-0.4-2.1c-0.3-0.7-0.7-1.3-1.2-1.7c-0.6-0.4-1.3-0.7-2.3-0.7
							c-0.8,0-1.6,0.2-2.2,0.7c-0.7,0.5-1.2,1.2-1.5,2.1c-0.4,0.9-0.6,2-0.6,3.3v0.7c0,1,0.2,2,0.6,2.8c0.4,0.9,0.9,1.5,1.7,2
							c0.7,0.5,1.6,0.8,2.6,0.8c1,0,1.8-0.2,2.5-0.6c0.7-0.4,1.3-0.9,1.8-1.6l1.7,1.3c-0.5,0.8-1.3,1.5-2.3,2.2
							C389,208.5,387.7,208.8,386.1,208.8z"/>
					</g>
				</g>
			</g>
			<g id="arrow_forward-2">
				<path class="st2" d="M119.8,127.4c6.2-7.6,12.3-15.2,18.4-22.8c1.4-1.7,3-3.5,5.1-3.8c4.5-0.5,6.5,5.3,6.8,9.8
					c0.3,4.5,1.8,10.4,6.3,10.5c10.4,0.2,20.8,0.5,31.2,0.7c5.2,0.1,10.4,0.3,15.2,2.1c4.8,1.9,9.1,5.9,9.9,10.9
					c0.3,2.1-0.2,4.6-2.1,5.4c-1.3,0.6-2.8,0.3-4.2,0c-15.1-3.3-30.7-2.6-46.1-2c-2.1,0.1-4.6,0.4-5.6,2.2c-1,1.7-0.2,3.8,0.4,5.6
					c1.9,5.7,2.4,12,1.3,17.9c-12.6-9.9-25.3-19.8-37.9-29.7C116.6,132.8,118.2,129.5,119.8,127.4L119.8,127.4z"/>
			</g>
		</g>
		<rect y="0" class="st3" width="623.8" height="248.5"/>
	</g>
</g>
</svg>
