<?xml version="1.0" encoding="UTF-8"?>
<svg id="Layer_2" data-name="Layer 2" xmlns="http://www.w3.org/2000/svg" viewBox="0 0 268.28 329.22">
  <defs>
    <style>
      .cls-1, .cls-2 {
        fill: #fee9d9;
        stroke: #fee9d9;
      }

      .cls-1, .cls-2, .cls-3 {
        stroke-miterlimit: 10;
      }

      .cls-2, .cls-3 {
        stroke-width: .75px;
      }

      .cls-3 {
        fill: #252933;
        stroke: #252933;
      }
    </style>
  </defs>
  <g id="shadows">
    <g>
      <g>
        <path class="cls-3" d="M50.55,131.56c-1.54,5.59-3.08,11.19-4.62,16.78-.23,.82-.46,1.66-.99,2.33-1.65-.57-1.76-2.84-1.48-4.56,.77-4.63,2.19-9.14,4.22-13.37,.56-1.18,2.32-2.37,2.86-1.18Z"/>
        <path class="cls-3" d="M60.49,218.66c4.21,3.58,4.77,9.76,5.03,15.28,.07,1.41-.41,3.38-1.82,3.24-.87-1.07-1.2-2.47-1.5-3.82-.98-4.39-1.96-8.77-2.94-13.16,.41-.51,.82-1.03,1.23-1.54Z"/>
        <path class="cls-3" d="M128.7,272.99c-5.01,1.22-7.89,6.31-10.49,10.77-8.19,14.01-21.38,30.99-34.59,40.42-2.73,1.95-5.64,3.82-8.94,4.44-5.01,.94-10.04-1.15-14.72-3.18-15.86-6.91-30.63-19.32-39.92-33.91-5.75-9.02-7.99-19.81-9.35-30.42-1.03-8.07-1.57-16.52,1.36-24.11-9.24-1.95-14.44-14.26-9.4-22.25,11.37-18,11.63-42.43,.66-60.68,2.98-5.05,14.34,.45,15.28-5.34,1.75-10.78,6.88-20.98,14.48-28.82-5.28,10.13-9.43,20.85-12.36,31.9,17.09,.15,34.18,.3,51.27,.45,1.99,.02,4.11,.07,5.76,1.19,1.75,1.19,2.57,3.31,3.29,5.3,1.97,5.44,3.94,10.88,5.91,16.32,4.21,1.57,7.07-4.14,8.62-8.35,3.39-9.18,10.69-16.83,19.69-20.65-2.51-5.55-5.03-11.09-7.54-16.64-1.32-2.92-3.83-6.4-6.86-5.37-14.79,5.01-30.76,7.96-46.04,4.73-15.28-3.22-29.71-13.56-34.54-28.41-4.42-13.56-.31-28.73,7.48-40.67,7.79-11.94,18.92-21.25,29.87-30.38,7.48-6.23,14.96-12.46,22.44-18.69,6.76,2.41,3.37,15.5,10.19,17.74,9.02,2.97,17.26,8.24,23.74,15.18,3.09-4.77,7.43-8.73,12.47-11.37,1.1-.58,2.36-1.1,3.55-.76,2.21,.64,2.57,3.58,2.51,5.88-.17,5.98-.35,11.97-.52,17.95C154.21,26.78,188.42,7.99,224.37,4.52c11.08-1.07,23.11-.47,32,6.23,14.33,10.8,14.26,33.29,5.6,49-8.66,15.71-23.53,26.81-36.52,39.18-23.52,22.41-41.94,50.75-49.74,82.28-4.38,17.7-5.42,36.21-11.26,53.48-5.84,17.27-18.03,33.99-35.75,38.3M83.86,25.78c-2.81-4.17-.88-12.03-5.8-13.05-3.47,7.11-9.01,13.19-15.76,17.31-14.56,8.9-26.74,21.66-34.96,36.62-3.29,5.99-5.99,12.46-6.51,19.28-1.32,17.4,12.57,33.4,29.14,38.86,16.57,5.46,34.87,2.25,51.15-4.03,3.79-1.46,7.1,2.9,8.84,6.57,3.13,6.59,6.25,13.19,9.38,19.78-11.47,4.52-20.41,14.98-23.07,27.02-.64,2.9-.75,6.39,1.49,8.33,1.84,1.59,4.55,1.5,6.95,1.14,8.82-1.33,17.23-5.28,23.89-11.23,2.61-2.34,6.02,1.91,6.85,5.32,7.42,30.49,5.35,63.23-5.87,92.54,14.15-5.4,24.23-18.4,30.08-32.36,8.96-21.38,9.47-45.66,4.51-68.31-4.96-22.64-15.12-43.84-26.91-63.8-5.76-9.76-.86-22.52-4.07-33.39-3.72-12.58-5.06-25.86-3.95-38.93-3.94,3.43-7.88,6.86-11.82,10.3-.85,.74-1.82,1.53-2.95,1.48-.76-.03-1.44-.45-2.09-.85-8.25-5.13-16.49-10.27-24.74-15.4-1.41-.88-2.87-1.8-3.79-3.18M229.43,90.08c11.5-10.36,24.63-19.95,31-34.05,3.93-8.68,4.93-18.65,2.81-27.94-1.25-5.45-3.66-10.83-7.88-14.5-6.11-5.32-14.85-6.23-22.95-6.11-36.4,.55-72.22,17.71-95.47,45.72-2.19,2.64-4.38,6.17-2.88,9.26,6.71,13.85-.39,31.9,7.72,44.98,14.3,23.1,24.17,48.93,28.91,75.68,10.57-35.61,31.14-68.19,58.75-93.04M87.14,317.69c11.95-10.05,24.93-26.44,31.7-40.5,6.77-14.07,8.98-30.83,3.45-45.43-10.5,7.08-23.77,8.28-36.42,8.88-23.89,1.13-47.84,.83-71.7-.88-3.56,17.68,.41,36.74,10.72,51.53,10.31,14.79,24.81,29.83,42.63,32.6,3.05,.47,6.19,.73,9.18,0,3.97-.97,7.31-3.57,10.44-6.2M11.88,219.2c.67-1.37,1.37-2.83,1.24-4.35-.13-1.52-1.43-3.05-2.94-2.84,4.61,1.53,9.97,.55,13.74-2.51,3.46-2.81,8.3-3,12.76-3.06,20.1-.27,40.19-.54,60.29-.81-6.62-15.44-13.23-30.87-19.85-46.31-.5-1.16-1.05-2.39-2.13-3.03-.89-.53-1.98-.57-3.01-.6-20.6-.49-41.21-.98-61.81-1.47-.67-.02-1.41,0-1.9,.45-.75,.69-.46,1.91-.11,2.86,5.92,16.43,11.85,32.86,17.77,49.29-4.29,.07-8.57,.13-12.86,.2,2.37-2.11,5.72-3.06,8.84-2.51-2.54-7.04-5.09-14.08-7.63-21.12-.61,6.45-1.21,12.9-1.82,19.35-.2,2.14-.53,4.54-2.24,5.85-6.49,5.02-8.31,15.14-3.97,22.1,1.88-3.82,3.76-7.65,5.64-11.47m82.93-35.62c-.98-1.48-1.1-3.43-2.16-4.86-1.06-1.43-3.91-1.62-4.17,.14,3.54,7.63,7.07,15.25,10.61,22.88,2.68,5.79,5.91,12.1,11.89,14.35,2.79-3.19,5.63-8.08,2.78-11.21,4.89,.08,9.75-2.35,12.62-6.31-.62-1.73-2.24-3.06-4.06-3.33-7.79-1.16-10.4,14.28-18.15,12.87,8.22-10,16.44-19.99,24.66-29.99,1.52,5.3-3.2,10.17-7.46,13.67,6.28,2.34,11.16,8.08,12.46,14.65s-1.04,13.74-5.95,18.29c-3.69,3.42-1.51,9.41-.17,14.26,2.64,9.51,.83,19.62-.99,29.33,10.93-29.92,12.35-63.23,4.01-93.98-7.49,6.85-17.3,11.11-27.42,11.93-3.11,.25-6.78-.08-8.5-2.69m-53.32,55.07c.27-4.04-.5-8.15-2.22-11.82-1.01-2.15-1.99-5.36,.17-6.34,4.42,4.54,6.25,11.45,4.66,17.58,.84,.4,1.81,.51,2.71,.3-.5-5.85,1.67-11.87,5.78-16.06,1.18-1.19,2.63-2.66,2.14-4.26-.22-.74-.83-1.29-1.41-1.8-1.4-1.24-2.8-2.48-4.2-3.72-.65-.57-1.37-1.18-2.23-1.2-.92-.02-1.69,.62-2.37,1.24-2.89,2.61-5.69,5.33-8.38,8.16-1.61,1.7-3.19,3.43-4.54,5.35-2.5,3.56-4.16,7.7-4.81,12,4.84,.82,9.79,1.01,14.69,.57m-10.38-23.51c-1.03-.85-2.05-1.71-3.08-2.56-.55-.46-1.14-.94-1.84-1.08-.9-.18-1.8,.22-2.61,.65-7.46,3.95-12.8,11.65-13.9,20.01-.15,1.14,1.03,1.96,2.06,2.45,3.29,1.56,6.8,2.65,10.39,3.24,3.34-4.69,.75-11.19-2.26-16.09-.49-.81-1.01-1.65-1.05-2.6-.04-.94,.61-1.99,1.55-2.02,2.95,3.44,5.27,7.42,6.81,11.68-.06-2.31,1.89-4.1,3.5-5.75,1.62-1.65,3.12-4.08,2.06-6.14-.37-.72-1.01-1.26-1.64-1.78m34.81,23.45c.8-5.65,2.82-11.12,5.88-15.93,1.01-1.59,.62-3.76-.44-5.31-1.07-1.55-2.68-2.62-4.26-3.66-.84-.55-1.78-1.13-2.78-.99-1.02,.14-1.77,.98-2.44,1.76-5.91,6.97-12.14,14.71-12.39,23.85,5.46-.51,10.98-.42,16.42,.28m12.99-15.17c2.44,2.92,3.6,6.89,3.11,10.66-.13,1.01-.37,2.07-.02,3.03,.35,.96,1.61,1.66,2.41,1.03,.32-.25,.49-.63,.64-1,2.01-4.73,4.01-9.45,6.02-14.18,.21-.49,.42-1,.42-1.53,0-1.02-.76-1.86-1.51-2.56-1.71-1.6-3.58-3.03-5.58-4.25-.48-.29-1.02-.58-1.56-.47-.42,.09-.75,.39-1.06,.68-1.22,1.15-2.47,2.33-3.18,3.85-.71,1.52-.77,3.46,.31,4.75m24.4,12.97c1.17-3.62,2.34-7.23,3.51-10.85,.43-1.34,.87-2.7,.86-4.11-.04-3.79-3.21-6.71-6.13-9.13-1.57,1.72-3.16,3.48-4.06,5.63-.9,2.14-.97,4.78,.41,6.65,2.4,3.26,3.34,7.56,2.53,11.53,.9,.39,1.92,.49,2.88,.28m-28.11-19.15c2.36-.29,2.77-3.69,4.69-5.1,2.14-1.58,5.12-.14,7.36,1.31,2.42,1.56,4.84,3.13,7.26,4.69,1.71-2.97,3.4-5.96,5.06-8.97-2.9,.03-5.8,.06-8.7,.09-6.86,.07-13.72,.14-20.58,.21-1.22,.01-2.85,.4-2.87,1.62,3.11,1.25,5.85,3.41,7.79,6.15m43.06-8.11c-.99,3.42-2.84,6.59-5.33,9.13-1.79,1.83-1.28,4.84-.4,7.24,.87,2.4,1.99,5.03,1.06,7.41,4.33-.16,8.11-4.29,7.88-8.62-.27-5.18-1.36-10.31-3.2-15.16m3.03-2.34c-.45,.39-.95,1.01-.63,1.51,3.01,4.7,4.35,10.45,3.73,16,5.54-6.33,7.16-15.83,4.03-23.64-2.38,2.05-4.76,4.09-7.14,6.14m-46.5,16.3c-2.63,4.71-4.49,9.84-5.48,15.14,2.8,.25,5.61,.32,8.41,.2,1.07-5.23-.01-10.87-2.94-15.34m22.07,13.86c.51-4.15-.47-8.47-2.72-12-2.18,4.23-3.9,8.69-5.13,13.29,2.62-.43,5.23-.86,7.85-1.29m-46.94-26.19c2.2,1.84,4.74,3.78,7.58,3.48,2.42-.26,4.33-2.1,6.04-3.83-3.75-1.47-7.89-1.95-11.88-1.36-.95,.14-2.18,.86-1.75,1.72m-18.19-.95c-.65,0-1.43,.06-1.76,.62-.19,.32-.16,.76,.07,1.06,3.76,4.19,11.63,3.28,14.34-1.65-4.22,0-8.43-.02-12.65-.03m76.9,19.84c-1.03,1.89-1.53,4.06-1.42,6.21,1.77,.05,3.15-1.74,3.31-3.5s-.56-3.47-1.27-5.1c-.93-.08-1.01,1.34-.72,2.22l.1,.17Z"/>
        <g>
          <path class="cls-3" d="M80.91,66.95c-5.48-1.18-11.12,3.05-12.84,8.39-1.28-.51-2.66-.79-4.04-.79v2.75c.59,.14,1.17,.38,1.68,.74,2.19,1.53,3.51,3.98,5.5,5.73,4.59,4.02,12.76,2.88,15.84-2.38,3.09-5.25-.19-13.14-6.14-14.43Zm-.41,16.4c-3.37,1.1-7.37-.51-9.16-3.58-.4-.68-.71-1.45-.73-2.25-.03-1,.39-1.96,.87-2.84,1.41-2.52,3.67-4.77,6.58-5.11,1.49-.17,2.98,.3,4.24,1.11,5.75,3.69,3.12,11.05-1.8,12.66Z"/>
          <path class="cls-3" d="M40.07,80.92c2.97,5.33,11.11,6.65,15.78,2.74,2.04-1.7,3.41-4.12,5.63-5.6,.52-.35,1.76-.91,2.54-.75v-2.75c-1.38-.02-3.55,.27-4.84,.76-1.6-5.37-7.14-9.73-12.65-8.67-5.98,1.16-9.43,8.97-6.46,14.29Zm4.99-10.59c1.28-.78,2.78-1.22,4.27-1.02,2.91,.4,5.12,2.7,6.47,5.25,.46,.89,.86,1.85,.81,2.86-.04,.8-.36,1.56-.78,2.24-1.86,3.02-5.9,4.55-9.24,3.37-4.89-1.72-7.35-9.14-1.52-12.7Z"/>
        </g>
      </g>
      <path class="cls-3" d="M66.33,182.51c-3.51-4.13-7.01-8.26-10.52-12.39,3.2-.77,6.4-1.55,9.6-2.32,1.07-.26,2.23-.51,3.24-.08,1.01,.43,1.65,1.86,.9,2.67-1.23,1.34-.91,3.46-.28,5.17,.63,1.71,1.5,3.48,1.11,5.26-.38,1.78-2.87,3.08-4.05,1.7m1.86-3.31c-.68-2.4-1.37-4.8-2.05-7.2-.2-.69-.49-1.47-1.17-1.68-.43-.13-.9,.03-1.32,.18-1.03,.38-2.06,.75-3.1,1.13l6.07,7.91c.4,.52,1.23,1.03,1.57,.48,.15-.24,.08-.55,0-.81Z"/>
      <path class="cls-3" d="M65.29,186.44c-.21,.28-.54,.43-.85,.56-3.29,1.41-6.76,2.39-10.3,2.9-7.19,1.05-14.51,.19-21.72-.67-.63-.07-1.31-.18-1.73-.65-1.06-1.21,.68-2.87,2.17-3.48,6.97-2.87,14.69-5.12,19.53-10.91,1.3-1.56,3.76,.02,5.09,1.55l7.15,8.27c.6,.69,1.21,1.7,.67,2.43m-28.22,.5c7.43,1.85,15.48,1.1,22.44-2.1,.94-.43,.58-1.84,.08-2.75-.67-1.19-1.37-2.41-2.48-3.21-1.11-.79-2.73-1.04-3.8-.2-4.8,3.77-10.35,6.6-16.24,8.25Z"/>
    </g>
  </g>
  <g id="illustrations">
    <g>
      <path class="cls-1" d="M50.37,127.96c-1.54,5.59-3.08,11.19-4.62,16.78-.23,.82-.46,1.66-.99,2.33-1.65-.57-1.76-2.84-1.48-4.56,.77-4.63,2.19-9.14,4.22-13.37,.56-1.18,2.32-2.37,2.86-1.18Z"/>
      <path class="cls-1" d="M60.31,215.06c4.21,3.58,4.77,9.76,5.03,15.28,.07,1.41-.41,3.38-1.82,3.24-.87-1.07-1.2-2.47-1.5-3.82-.98-4.39-1.96-8.77-2.94-13.16,.41-.51,.82-1.03,1.23-1.54Z"/>
      <path class="cls-1" d="M128.52,269.39c-5.01,1.22-7.89,6.31-10.49,10.77-8.19,14.01-21.38,30.99-34.59,40.42-2.73,1.95-5.64,3.82-8.94,4.44-5.01,.94-10.04-1.15-14.72-3.18-15.86-6.91-30.63-19.32-39.92-33.91-5.75-9.02-7.99-19.81-9.35-30.42-1.03-8.07-1.57-16.52,1.36-24.11-9.24-1.95-14.44-14.26-9.4-22.25,11.37-18,11.63-42.43,.66-60.68,2.98-5.05,14.34,.45,15.28-5.34,1.75-10.78,6.88-20.98,14.48-28.82-5.28,10.13-9.43,20.85-12.36,31.9,17.09,.15,34.18,.3,51.27,.45,1.99,.02,4.11,.07,5.76,1.19,1.75,1.19,2.57,3.31,3.29,5.3,1.97,5.44,3.94,10.88,5.91,16.32,4.21,1.57,7.07-4.14,8.62-8.35,3.39-9.18,10.69-16.83,19.69-20.65-2.51-5.55-5.03-11.09-7.54-16.64-1.32-2.92-3.83-6.4-6.86-5.37-14.79,5.01-30.76,7.96-46.04,4.73-15.28-3.22-29.71-13.56-34.54-28.41-4.42-13.56-.31-28.73,7.48-40.67,7.79-11.94,18.92-21.25,29.87-30.38,7.48-6.23,14.96-12.46,22.44-18.69,6.76,2.41,3.37,15.5,10.19,17.74,9.02,2.97,17.26,8.24,23.74,15.18,3.09-4.77,7.43-8.73,12.47-11.37,1.1-.58,2.36-1.1,3.55-.76,2.21,.64,2.57,3.58,2.51,5.88-.17,5.98-.35,11.97-.52,17.95C154.03,23.17,188.24,4.39,224.18,.92c11.08-1.07,23.11-.47,32,6.23,14.33,10.8,14.26,33.29,5.6,49-8.66,15.71-23.53,26.81-36.52,39.18-23.52,22.41-41.94,50.75-49.74,82.28-4.38,17.7-5.42,36.21-11.26,53.48-5.84,17.27-18.03,33.99-35.75,38.3M83.68,22.17c-2.81-4.17-.88-12.03-5.8-13.05-3.47,7.11-9.01,13.19-15.76,17.31-14.56,8.9-26.74,21.66-34.96,36.62-3.29,5.99-5.99,12.46-6.51,19.28-1.32,17.4,12.57,33.4,29.14,38.86,16.57,5.46,34.87,2.25,51.15-4.03,3.79-1.46,7.1,2.9,8.84,6.57,3.13,6.59,6.25,13.19,9.38,19.78-11.47,4.52-20.41,14.98-23.07,27.02-.64,2.9-.75,6.39,1.49,8.33,1.84,1.59,4.55,1.5,6.95,1.14,8.82-1.33,17.23-5.28,23.89-11.23,2.61-2.34,6.02,1.91,6.85,5.32,7.42,30.49,5.35,63.23-5.87,92.54,14.15-5.4,24.23-18.4,30.08-32.36,8.96-21.38,9.47-45.66,4.51-68.31-4.96-22.64-15.12-43.84-26.91-63.8-5.76-9.76-.86-22.52-4.07-33.39-3.72-12.58-5.06-25.86-3.95-38.93-3.94,3.43-7.88,6.86-11.82,10.3-.85,.74-1.82,1.53-2.95,1.48-.76-.03-1.44-.45-2.09-.85-8.25-5.13-16.49-10.27-24.74-15.4-1.41-.88-2.87-1.8-3.79-3.18M229.25,86.48c11.5-10.36,24.63-19.95,31-34.05,3.93-8.68,4.93-18.65,2.81-27.94-1.25-5.45-3.66-10.83-7.88-14.5-6.11-5.32-14.85-6.23-22.95-6.11-36.4,.55-72.22,17.71-95.47,45.72-2.19,2.64-4.38,6.17-2.88,9.26,6.71,13.85-.39,31.9,7.72,44.98,14.3,23.1,24.17,48.93,28.91,75.68,10.57-35.61,31.14-68.19,58.75-93.04M86.96,314.09c11.95-10.05,24.93-26.44,31.7-40.5,6.77-14.07,8.98-30.83,3.45-45.43-10.5,7.08-23.77,8.28-36.42,8.88-23.89,1.13-47.84,.83-71.7-.88-3.56,17.68,.41,36.74,10.72,51.53,10.31,14.79,24.81,29.83,42.63,32.6,3.05,.47,6.19,.73,9.18,0,3.97-.97,7.31-3.57,10.44-6.2M11.7,215.6c.67-1.37,1.37-2.83,1.24-4.35-.13-1.52-1.43-3.05-2.94-2.84,4.61,1.53,9.97,.55,13.74-2.51,3.46-2.81,8.3-3,12.76-3.06,20.1-.27,40.19-.54,60.29-.81-6.62-15.44-13.23-30.87-19.85-46.31-.5-1.16-1.05-2.39-2.13-3.03-.89-.53-1.98-.57-3.01-.6-20.6-.49-41.21-.98-61.81-1.47-.67-.02-1.41,0-1.9,.45-.75,.69-.46,1.91-.11,2.86,5.92,16.43,11.85,32.86,17.77,49.29-4.29,.07-8.57,.13-12.86,.2,2.37-2.11,5.72-3.06,8.84-2.51-2.54-7.04-5.09-14.08-7.63-21.12-.61,6.45-1.21,12.9-1.82,19.35-.2,2.14-.53,4.54-2.24,5.85-6.49,5.02-8.31,15.14-3.97,22.1,1.88-3.82,3.76-7.65,5.64-11.47m82.93-35.62c-.98-1.48-1.1-3.43-2.16-4.86-1.06-1.43-3.91-1.62-4.17,.14,3.54,7.63,7.07,15.25,10.61,22.88,2.68,5.79,5.91,12.1,11.89,14.35,2.79-3.19,5.63-8.08,2.78-11.21,4.89,.08,9.75-2.35,12.62-6.31-.62-1.73-2.24-3.06-4.06-3.33-7.79-1.16-10.4,14.28-18.15,12.87,8.22-10,16.44-19.99,24.66-29.99,1.52,5.3-3.2,10.17-7.46,13.67,6.28,2.34,11.16,8.08,12.46,14.65s-1.04,13.74-5.95,18.29c-3.69,3.42-1.51,9.41-.17,14.26,2.64,9.51,.83,19.62-.99,29.33,10.93-29.92,12.35-63.23,4.01-93.98-7.49,6.85-17.3,11.11-27.42,11.93-3.11,.25-6.78-.08-8.5-2.69m-53.32,55.07c.27-4.04-.5-8.15-2.22-11.82-1.01-2.15-1.99-5.36,.17-6.34,4.42,4.54,6.25,11.45,4.66,17.58,.84,.4,1.81,.51,2.71,.3-.5-5.85,1.67-11.87,5.78-16.06,1.18-1.19,2.63-2.66,2.14-4.26-.22-.74-.83-1.29-1.41-1.8-1.4-1.24-2.8-2.48-4.2-3.72-.65-.57-1.37-1.18-2.23-1.2-.92-.02-1.69,.62-2.37,1.24-2.89,2.61-5.69,5.33-8.38,8.16-1.61,1.7-3.19,3.43-4.54,5.35-2.5,3.56-4.16,7.7-4.81,12,4.84,.82,9.79,1.01,14.69,.57m-10.38-23.51c-1.03-.85-2.05-1.71-3.08-2.56-.55-.46-1.14-.94-1.84-1.08-.9-.18-1.8,.22-2.61,.65-7.46,3.95-12.8,11.65-13.9,20.01-.15,1.14,1.03,1.96,2.06,2.45,3.29,1.56,6.8,2.65,10.39,3.24,3.34-4.69,.75-11.19-2.26-16.09-.49-.81-1.01-1.65-1.05-2.6-.04-.94,.61-1.99,1.55-2.02,2.95,3.44,5.27,7.42,6.81,11.68-.06-2.31,1.89-4.1,3.5-5.75,1.62-1.65,3.12-4.08,2.06-6.14-.37-.72-1.01-1.26-1.64-1.78m34.81,23.45c.8-5.65,2.82-11.12,5.88-15.93,1.01-1.59,.62-3.76-.44-5.31-1.07-1.55-2.68-2.62-4.26-3.66-.84-.55-1.78-1.13-2.78-.99-1.02,.14-1.77,.98-2.44,1.76-5.91,6.97-12.14,14.71-12.39,23.85,5.46-.51,10.98-.42,16.42,.28m12.99-15.17c2.44,2.92,3.6,6.89,3.11,10.66-.13,1.01-.37,2.07-.02,3.03,.35,.96,1.61,1.66,2.41,1.03,.32-.25,.49-.63,.64-1,2.01-4.73,4.01-9.45,6.02-14.18,.21-.49,.42-1,.42-1.53,0-1.02-.76-1.86-1.51-2.56-1.71-1.6-3.58-3.03-5.58-4.25-.48-.29-1.02-.58-1.56-.47-.42,.09-.75,.39-1.06,.68-1.22,1.15-2.47,2.33-3.18,3.85-.71,1.52-.77,3.46,.31,4.75m24.4,12.97c1.17-3.62,2.34-7.23,3.51-10.85,.43-1.34,.87-2.7,.86-4.11-.04-3.79-3.21-6.71-6.13-9.13-1.57,1.72-3.16,3.48-4.06,5.63-.9,2.14-.97,4.78,.41,6.65,2.4,3.26,3.34,7.56,2.53,11.53,.9,.39,1.92,.49,2.88,.28m-28.11-19.15c2.36-.29,2.77-3.69,4.69-5.1,2.14-1.58,5.12-.14,7.36,1.31,2.42,1.56,4.84,3.13,7.26,4.69,1.71-2.97,3.4-5.96,5.06-8.97-2.9,.03-5.8,.06-8.7,.09-6.86,.07-13.72,.14-20.58,.21-1.22,.01-2.85,.4-2.87,1.62,3.11,1.25,5.85,3.41,7.79,6.15m43.06-8.11c-.99,3.42-2.84,6.59-5.33,9.13-1.79,1.83-1.28,4.84-.4,7.24,.87,2.4,1.99,5.03,1.06,7.41,4.33-.16,8.11-4.29,7.88-8.62-.27-5.18-1.36-10.31-3.2-15.16m3.03-2.34c-.45,.39-.95,1.01-.63,1.51,3.01,4.7,4.35,10.45,3.73,16,5.54-6.33,7.16-15.83,4.03-23.64-2.38,2.05-4.76,4.09-7.14,6.14m-46.5,16.3c-2.63,4.71-4.49,9.84-5.48,15.14,2.8,.25,5.61,.32,8.41,.2,1.07-5.23-.01-10.87-2.94-15.34m22.07,13.86c.51-4.15-.47-8.47-2.72-12-2.18,4.23-3.9,8.69-5.13,13.29,2.62-.43,5.23-.86,7.85-1.29m-46.94-26.19c2.2,1.84,4.74,3.78,7.58,3.48,2.42-.26,4.33-2.1,6.04-3.83-3.75-1.47-7.89-1.95-11.88-1.36-.95,.14-2.18,.86-1.75,1.72m-18.19-.95c-.65,0-1.43,.06-1.76,.62-.19,.32-.16,.76,.07,1.06,3.76,4.19,11.63,3.28,14.34-1.65-4.22,0-8.43-.02-12.65-.03m76.9,19.84c-1.03,1.89-1.53,4.06-1.42,6.21,1.77,.05,3.15-1.74,3.31-3.5s-.56-3.47-1.27-5.1c-.93-.08-1.01,1.34-.72,2.22l.1,.17Z"/>
      <g>
        <path class="cls-1" d="M80.73,63.35c-5.48-1.18-11.12,3.05-12.84,8.39-1.28-.51-2.66-.79-4.04-.79v2.75c.59,.14,1.17,.38,1.68,.74,2.19,1.53,3.51,3.98,5.5,5.73,4.59,4.02,12.76,2.88,15.84-2.38,3.09-5.25-.19-13.14-6.14-14.43Zm-.41,16.4c-3.37,1.1-7.37-.51-9.16-3.58-.4-.68-.71-1.45-.73-2.25-.03-1,.39-1.96,.87-2.84,1.41-2.52,3.67-4.77,6.58-5.11,1.49-.17,2.98,.3,4.24,1.11,5.75,3.69,3.12,11.05-1.8,12.66Z"/>
        <path class="cls-1" d="M39.89,77.32c2.97,5.33,11.11,6.65,15.78,2.74,2.04-1.7,3.41-4.12,5.63-5.6,.52-.35,1.76-.91,2.54-.75v-2.75c-1.38-.02-3.55,.27-4.84,.76-1.6-5.37-7.14-9.73-12.65-8.67-5.98,1.16-9.43,8.97-6.46,14.29Zm4.99-10.59c1.28-.78,2.78-1.22,4.27-1.02,2.91,.4,5.12,2.7,6.47,5.25,.46,.89,.86,1.85,.81,2.86-.04,.8-.36,1.56-.78,2.24-1.86,3.02-5.9,4.55-9.24,3.37-4.89-1.72-7.35-9.14-1.52-12.7Z"/>
      </g>
    </g>
    <path class="cls-2" d="M66.15,178.9c-3.51-4.13-7.01-8.26-10.52-12.39,3.2-.77,6.4-1.55,9.6-2.32,1.07-.26,2.23-.51,3.24-.08,1.01,.43,1.65,1.86,.9,2.67-1.23,1.34-.91,3.46-.28,5.17,.63,1.71,1.5,3.48,1.11,5.26-.38,1.78-2.87,3.08-4.05,1.7m1.86-3.31c-.68-2.4-1.37-4.8-2.05-7.2-.2-.69-.49-1.47-1.17-1.68-.43-.13-.9,.03-1.32,.18-1.03,.38-2.06,.75-3.1,1.13l6.07,7.91c.4,.52,1.23,1.03,1.57,.48,.15-.24,.08-.55,0-.81Z"/>
    <path class="cls-2" d="M65.11,182.84c-.21,.28-.54,.43-.85,.56-3.29,1.41-6.76,2.39-10.3,2.9-7.19,1.05-14.51,.19-21.72-.67-.63-.07-1.31-.18-1.73-.65-1.06-1.21,.68-2.87,2.17-3.48,6.97-2.87,14.69-5.12,19.53-10.91,1.3-1.56,3.76,.02,5.09,1.55l7.15,8.27c.6,.69,1.21,1.7,.67,2.43m-28.22,.5c7.43,1.85,15.48,1.1,22.44-2.1,.94-.43,.58-1.84,.08-2.75-.67-1.19-1.37-2.41-2.48-3.21-1.11-.79-2.73-1.04-3.8-.2-4.8,3.77-10.35,6.6-16.24,8.25Z"/>
  </g>
</svg>