<?xml version="1.0" encoding="UTF-8"?>
<svg id="Layer_2" data-name="Layer 2" xmlns="http://www.w3.org/2000/svg" viewBox="0 0 245.65 304.34">
  <defs>
    <style>
      .cls-1 {
        fill: #fee9d9;
        stroke: #fee9d9;
      }

      .cls-1, .cls-2 {
        stroke-miterlimit: 10;
      }

      .cls-2 {
        fill: #252933;
        stroke: #252933;
        stroke-width: .75px;
      }
    </style>
  </defs>
  <g id="shadows">
    <g>
      <path class="cls-2" d="M92.71,200.83c.3-.47,.84-.77,1.4-.76,.88,3.21,1.1,6.6,.64,9.9-3.69-.48-7.18-2.32-9.66-5.1,.36-.89,1.68-.63,2.55-.21,1.8,.87,3.61,1.74,5.41,2.62,.28-2.15,.16-4.34-.33-6.45Z"/>
      <path class="cls-2" d="M.69,193.53c-.19-16.73,7.94-32.29,15.86-47.04-9.09-8.18-14.32-20.48-13.9-32.7,.65-18.94,13.65-34.89,26.01-49.26,9.64-11.22,19.29-22.43,28.93-33.65,4.29,1.07,1.97,8.13,4.61,11.69,1.22,1.64,3.35,2.27,5.34,2.79,6.33,1.68,12.66,3.35,18.98,5.03,2.06,.55,4.22,1.1,6.31,.65,5.31-1.14,8.52-8.29,13.92-7.67,1.7,8.36,3.4,16.72,5.1,25.09-4.58-6.28-6.55-14.4-5.36-22.08-4.15-1.02-6.57,4.67-10.39,6.59-2.69,1.35-5.92,.68-8.85-.02-4.37-1.05-8.75-2.09-13.12-3.14-4.2-1.01-8.56-2.09-11.86-4.88-3.29-2.79-5.11-7.83-2.91-11.55C38.46,54.59,17.1,76.48,5.3,103.83c13.53-3.55,27.06-7.09,40.6-10.64,1.3-.34,2.71-.76,3.44-1.89,.71-1.09,.55-2.51,.36-3.8-1.75-12.05-3.5-24.09-5.25-36.14,5.72-3.19,12.61-4.24,19.02-2.89-5.82,1.37-11.63,2.75-17.45,4.12,2.48,12.54,4.56,25.15,6.25,37.82,2-12.79,4-25.58,5.99-38.37-.83,12.69-1.66,25.39-2.5,38.08,11.57-9.57,22.39-20.05,32.3-31.32,3.9-4.44,11.12-1.22,15.95,2.19,1.39,.98,2.89,2.14,3.15,3.82,.41,2.65-2.4,4.55-4.81,5.74-11.92,5.86-23.84,11.71-35.76,17.57-4.85,2.38-10,5.04-12.61,9.78-3.12,5.66-1.76,12.6-.78,18.99,1.99,12.96,2.04,26.22,.15,39.2-1.34-18.21-2.37-36.45-3.11-54.69-.57-1.75-3.22-.58-4.43,.81-11.26,13.02-21.83,26.63-31.66,40.77,8.26,3.42,16.51,6.84,24.77,10.26,5.86,2.43,12.64,4.84,18.31,2.01,10.07-5.04,20.72-8.89,31.68-11.48-10.83-12.37-21.65-24.74-32.48-37.12-1.33-1.52-2.51-4.21-.75-5.2,.74-.41,1.65-.24,2.47-.04,20.03,4.65,40.06,9.31,60.09,13.96-20.53-1.99-40.86-6.02-60.6-12,16.32,21.23,34.81,40.79,55.09,58.28,4.31-13.82,7.09-28.12,8.27-42.55-8.07,8.62-17.07,16.37-26.79,23.08,7.29-7.3,14.59-14.6,21.88-21.9,6.9-6.91,.41-20.19,6.51-27.81-22.17,5.07-45,7.2-67.72,6.33,21.58-2.37,43.16-4.74,64.75-7.12,1.03-6.65-6.8-11.83-6.89-18.56-.05-3.97,2.6-7.4,5.16-10.44,7.67-9.13,15.61-18.03,23.82-26.67,5.12-5.39,10.44-10.76,16.92-14.42,5.35-3.01,11.3-4.76,17.2-6.47,10.93-3.18,21.86-6.36,32.79-9.55,3.73-1.09,7.75-2.17,11.43-.91,2.38,.82,4.34,2.53,6.22,4.2,8.65,7.68,17.9,16.53,18.9,28.05,.85,9.71-4.5,19.45-2.36,28.96-4.44,5.46-8.88,10.92-13.32,16.38-13.01,16-26.15,32.2-34.92,50.86-8.44,17.94-12.6,37.87-12.06,57.68,.78,28.38-10.97,56.88-31.54,76.46,9.39-12.78,17.35-26.61,23.68-41.15-16.1,4.11-32.08,8.72-47.89,13.83,7.82,10.05,15.64,20.09,23.46,30.14-9.24,12.38-19.73,25.6-34.78,29.08-15.83,3.65-32.53,7.29-48.1,2.63-15.17-4.54-26.93-16.27-38.01-27.58-3.34-3.41-6.68-6.81-10.01-10.22,11.06,7.13,21.21,15.66,30.14,25.33-3.13-7.96-3.88-16.84-2.14-25.22-9.82-2.26-19.35-5.75-28.3-10.37,9.41,2.36,18.81,4.72,28.22,7.07-3.94-13.26-8.32-26.39-13.13-39.36-4.75,10.15-10.42,19.86-16.9,29,3.95-11.01,9.08-21.59,15.27-31.52-8.43-4.63-17.35-8.35-26.57-11.08,4.38,18.39,8.75,36.77,13.13,55.16-7.85-15.38-11.63-32.45-15.34-49.31-1.46-6.64-2.93-13.34-3.01-20.14m34.61,22.57c7.45-1.28,14.89-2.55,22.34-3.83,1.55-.26,3.77-.03,3.83,1.54-8.26,1.71-16.55,3.26-24.86,4.65,3.96,12.49,7.92,24.98,11.88,37.48,1.17,3.68,2.35,7.39,4.29,10.72,1.82,3.12,4.27,5.82,6.71,8.48,7.6,8.29,15.33,16.46,23.18,24.51,2.63,2.69,7.03,2.07,10.7,1.25,8.31-1.86,16.61-3.72,24.92-5.59,2-.45,4.04-.91,5.81-1.95,2.22-1.3,3.84-3.39,5.46-5.4,5.24-6.49,11.01-12.56,17.25-18.1-5.45-6.93-10.9-13.87-16.35-20.8-2.85-3.62-5.73-7.3-7.54-11.54-1.88-4.39-2.52-9.2-3.14-13.94-.92-6.94-1.83-14.04-.44-20.91,1.47,10.19,2.93,20.39,4.4,30.58,.19,1.35,.55,2.93,1.81,3.46,.85,.36,1.82,.1,2.7-.16,14.64-4.37,29.28-8.74,43.92-13.1-12.7-5.82-25.41-11.64-38.11-17.46-7.23-3.31-15.56-6.66-22.86-3.49-4.93,2.14-9.86,7.15-14.7,4.8,7.23-3.39,14.46-6.78,21.68-10.17-3.73,.03-7.45,.07-11.18,.1-9.09,.08-19.85,1.09-24.38,8.97-1.71-8.15,.49-17.03,5.8-23.44,6.43-7.76,13.62-14.89,21.43-21.25l-17.94-14.29c-1.1-.88-2.69-.61-4.06-.29-10.27,2.46-20.27,6.08-29.74,10.76-6.47,3.2-14.15,.19-20.72-2.8-2.56,8.12-4.19,16.53-4.86,25.02,5.87-.86,12.04-1.69,17.58,.41,3.97,1.5,7.24,4.38,10.41,7.19,3.52,3.12,7.03,6.23,10.55,9.35l-7.35,12.92c-1.57,2.76-5.78,1.06-8.28-.89-3.64-2.85-7.28-5.71-10.92-8.56-3.06,5.26-6.13,10.53-9.19,15.79M197,59.6c3.61,19.5,2.05,39.54,.48,59.31,13.48-17.67,26.96-35.35,40.44-53.02-13.28-2.99-26.56-5.99-39.83-8.98,12.91,.21,25.79,2.38,38.05,6.41,2.23,.73,3.61-2.39,3.88-4.72,.95-8.36,1.9-16.73,2.84-25.09-8.73,4.38-17.46,8.76-26.19,13.14-6.6,3.31-13.21,6.63-20.04,9.45-24.95,10.29-52.12,13.64-78.91,16.89,10.03,9.97,22.75,16.7,35.3,23.21,14.08,7.31,28.21,14.52,42.38,21.65,1.87-19.35,2.41-38.82,1.61-58.24M213.24,6.96c-14.32,4.37-28.64,8.73-42.96,13.1-4.39,1.34-8.84,2.7-12.77,5.08-3.51,2.12-6.5,4.97-9.41,7.85-11.62,11.52-22.37,23.92-32.12,37.06,19.7-1.75,39.27-4.94,58.5-9.53,4.41-1.05,8.81-2.18,13.15-3.53,18.8-5.84,36.07-15.68,53.16-25.44,.38-.22,.8-.49,.9-.92,.1-.44-.2-.87-.47-1.23-5.92-7.73-12.38-15.04-19.31-21.88-.97-.96-2.39-1.97-3.56-1.28-.51,.3-.8,.85-1.07,1.37-7.28,14.26-13.57,29.01-18.82,44.14-.71,2.04-3.77,1.28-5.61,.14-11.01-6.87-21.81-14.07-32.4-21.57-1.37-.97-2.83-2.96-1.57-4.06,12.25,8.64,24.75,16.93,37.47,24.87,5.04-15.07,11.56-29.64,19.45-43.44-.11-1.01-1.58-1.02-2.56-.72m-31.56,152.93c3.35-9.58,6.69-19.16,10.04-28.74,.77-2.19,1.69-4.58,3.75-5.67-1.42-1.12-1.56-3.53-.28-4.81-12.64-6.55-25.27-13.11-37.91-19.66-14.83-7.69-29.83-15.5-42.35-26.57,2.36,4.68,4.72,9.36,7.07,14.04,4.41,8.76-3.34,19.64-.18,28.92,.91,2.67,2.66,4.96,4.38,7.2,8.44,10.96,16.87,21.92,25.31,32.89,1.36,1.76,4.51,.43,5.11-1.71,.61-2.14-.4-4.37-1.39-6.37-11.11-22.47-22.22-44.94-33.33-67.41,5.04,4.99,8.25,11.48,11.37,17.84,8.7,17.73,17.39,35.46,26.09,53.19,9.66-11.97,20.68-22.83,32.78-32.31-10.11,10.58-20.22,21.16-30.33,31.74-1.08,1.13-.37,2.98,.38,4.35,5.52,10.01,11.05,20.03,17.3,29.59-1.33-2.95-1.44-6.43-.31-9.46-1.38-5.66,.57-11.54,2.49-17.05m-70.11,5.26c1.29,.08,1.04,2.07,.39,3.19-5.25,8.94-10.5,17.89-15.74,26.83,6.3-.21,12.59-.42,18.89-.62,2.89-.1,5.91-.22,8.44-1.64,1.44-.8,2.63-1.98,3.8-3.14l24.32-24.15c.61-.6,1.19-1.68,.5-2.17-.25-.18-.59-.18-.9-.18-12.4,.19-24.8,.37-37.2,.56-1.3,.02-2.64,.05-3.85,.51-1.38,.53-2.49,1.59-3.55,2.63-7.44,7.31-14.44,15.06-20.94,23.22,1.14,1.53,2.35,3.12,4.08,3.93,1.73,.81,4.13,.53,5.1-1.12,5.48-9.33,11.04-18.61,16.67-27.85m56.6,54.44c1.08,.61,2.98,.82,3.06-.41-5.47-16.46-10.94-32.91-16.42-49.37-.18-.55-.46-1.18-1.03-1.28-.43-.07-.83,.19-1.17,.45-11.83,8.87-20.01,22.31-32.92,29.51,16.8,5.41,33.06,12.49,48.47,21.1M6.62,105.57c-.61,.17-1.25,.35-1.68,.81-.73,.78-.57,2.01-.37,3.06,1.83,9.51,3.66,19.02,5.48,28.53,.26,1.34,1.14,3.07,2.43,2.63,.44-.15,.75-.53,1.03-.89,10.77-13.76,21.53-27.51,32.3-41.27,.68-.87-.03-2.24-1.06-2.62s-2.17-.1-3.24,.19c-11.63,3.19-23.26,6.37-34.89,9.56m113.03,56.34c10.37-.6,20.74-1.2,31.11-1.81-9.58-11.87-18.82-24.01-27.73-36.39-1.02,7.26-2.3,14.48-3.85,21.65-1.01,4.68-2.13,9.35-3.68,13.88-.32,.93,.37,1.95,1.26,2.36,.89,.41,1.91,.36,2.89,.3m54.98,60.4c.23,.7,.93,1.56,1.5,1.1,.22-9.9,.44-19.8,.66-29.7,.04-1.74,.08-3.5-.28-5.2-.46-2.2-1.54-4.21-2.62-6.19-3.68-6.78-7.36-13.55-11.05-20.33-.92-1.69-2.19-3.6-4.11-3.61-1.7,0-3.04,1.64-3.31,3.32-.26,1.68,.28,3.37,.81,4.99,6.13,18.54,12.25,37.08,18.38,55.62M12.46,159.43c-.77,1.73-1.53,3.65-.99,5.47,.38,1.26,1.34,2.25,2.26,3.19,5.07,5.14,10.13,10.27,15.2,15.41,1.71-9.03,3.42-18.05,5.13-27.08,.08-.43,.16-.86,.07-1.29-.23-1.05-1.37-1.59-2.38-1.97-4.02-1.53-8.04-3.05-12.06-4.58-.34-.13-.69-.26-1.05-.22-.76,.08-1.23,.84-1.58,1.52-1.62,3.14-3.15,6.33-4.59,9.56M2.43,191.65c.6,4.02,1.19,8.04,1.79,12.06,.07,.48,.21,1.05,.67,1.2,6.91-6.55,14.2-12.7,21.82-18.42,.74-.56,.11-1.72-.53-2.39-5.45-5.62-10.89-11.25-16.34-16.87-3.17,6.93-5.58,14.2-7.17,21.66-.19,.91-.38,1.84-.24,2.76M94.49,58.4c-1.31-.56-3.08-.99-3.97,.14-8.19,10.45-17.69,19.87-28.22,27.96-1.57,1.21-3.3,2.61-3.51,4.58,15.67-8.29,31.26-16.72,46.78-25.28,.81-.64-.15-1.87-1.05-2.38-3.24-1.87-6.6-3.55-10.04-5.02m-37.01,236.88c6.98,.36,13.87,2.32,19.99,5.7,1.28,.7,2.9,1.46,4.08,.61-12.07-10.92-23.12-22.97-32.96-35.93-.67,3.22-.6,6.6,.2,9.79,1.07,4.27,2.14,8.55,3.21,12.82,.77,3.1,2.3,6.85,5.48,7.01m-24.11-108.13c3.71,3.89,7.43,7.78,11.14,11.68,1.21-4.27,2.41-8.53,3.62-12.8,.16-.56,.35-1.17,.84-1.5,.49-.33,1.34-.1,1.36,.48-.98,4.49-1.96,8.97-2.94,13.46,6.24,.12,12.5-.96,18.34-3.16-3.37-2.98-6.75-5.97-10.12-8.95-1.73-1.53-3.51-3.09-5.67-3.89-1.21-.45-2.49-.64-3.77-.79-4.36-.49-8.79-.44-13.13,.17-1.1,.15-1.69,1.49-1.45,2.57,.23,1.08,1.03,1.94,1.79,2.74m-4.26,27.32c.85,.35,2.31,.23,2.1-.66-1.97-8.35-2.36-17.07-1.15-25.56,.09-.64-.02-1.56-.67-1.57-.27,0-.51,.19-.72,.36-7.11,6.12-14.23,12.25-21.34,18.37,7.26,3.02,14.52,6.04,21.78,9.06m6.86-3.26c1.11-3.62,3.08-6.97,5.68-9.71,.91-.96-.01-2.49-.92-3.46-2.96-3.15-5.91-6.3-8.87-9.46-.35,8.64,.19,17.31,1.61,25.83,1.44-.12,2.07-1.83,2.49-3.21m24.11-.87c2.76-4.27,5.52-8.54,8.28-12.81-5.94,1.11-11.88,2.22-17.82,3.33,.06,.86,.7,1.56,1.3,2.17,2.58,2.61,5.33,5.05,8.24,7.31m24.96-17.54c-.12,2.77-.25,5.54-.37,8.31,1.66-1.09,3.32-2.17,4.98-3.26-.11-2.39-2.5-3.93-4.61-5.06m95.2,13.78c.26-3.98,.51-7.97,.77-11.95,.08-1.18,0-2.63-1.05-3.16-.36,4.44-.7,8.88-1.01,13.33-.06,.91,.51,2.26,1.29,1.78M54.22,92.79c.85-.45-.19-2.05-.95-1.45-.32,.27-.45,.75-.31,1.14,.35,.24,.8,.33,1.22,.23l.03,.08Z"/>
    </g>
  </g>
  <g id="illustrations">
    <path class="cls-1" d="M92.53,197.22c.3-.47,.84-.77,1.4-.76,.88,3.21,1.1,6.6,.64,9.9-3.69-.48-7.18-2.32-9.66-5.1,.36-.89,1.68-.63,2.55-.21,1.8,.87,3.61,1.74,5.41,2.62,.28-2.15,.16-4.34-.33-6.45Z"/>
    <path class="cls-1" d="M.5,189.93c-.19-16.73,7.94-32.29,15.86-47.04-9.09-8.18-14.32-20.48-13.9-32.7,.65-18.94,13.65-34.89,26.01-49.26,9.64-11.22,19.29-22.43,28.93-33.65,4.29,1.07,1.97,8.13,4.61,11.69,1.22,1.64,3.35,2.27,5.34,2.79,6.33,1.68,12.66,3.35,18.98,5.03,2.06,.55,4.22,1.1,6.31,.65,5.31-1.14,8.52-8.29,13.92-7.67,1.7,8.36,3.4,16.72,5.1,25.09-4.58-6.28-6.55-14.4-5.36-22.08-4.15-1.02-6.57,4.67-10.39,6.59-2.69,1.35-5.92,.68-8.85-.02-4.37-1.05-8.75-2.09-13.12-3.14-4.2-1.01-8.56-2.09-11.86-4.88-3.29-2.79-5.11-7.83-2.91-11.55C38.28,50.99,16.91,72.88,5.12,100.23c13.53-3.55,27.06-7.09,40.6-10.64,1.3-.34,2.71-.76,3.44-1.89,.71-1.09,.55-2.51,.36-3.8-1.75-12.05-3.5-24.09-5.25-36.14,5.72-3.19,12.61-4.24,19.02-2.89-5.82,1.37-11.63,2.75-17.45,4.12,2.48,12.54,4.56,25.15,6.25,37.82,2-12.79,4-25.58,5.99-38.37-.83,12.69-1.66,25.39-2.5,38.08,11.57-9.57,22.39-20.05,32.3-31.32,3.9-4.44,11.12-1.22,15.95,2.19,1.39,.98,2.89,2.14,3.15,3.82,.41,2.65-2.4,4.55-4.81,5.74-11.92,5.86-23.84,11.71-35.76,17.57-4.85,2.38-10,5.04-12.61,9.78-3.12,5.66-1.76,12.6-.78,18.99,1.99,12.96,2.04,26.22,.15,39.2-1.34-18.21-2.37-36.45-3.11-54.69-.57-1.75-3.22-.58-4.43,.81-11.26,13.02-21.83,26.63-31.66,40.77,8.26,3.42,16.51,6.84,24.77,10.26,5.86,2.43,12.64,4.84,18.31,2.01,10.07-5.04,20.72-8.89,31.68-11.48-10.83-12.37-21.65-24.74-32.48-37.12-1.33-1.52-2.51-4.21-.75-5.2,.74-.41,1.65-.24,2.47-.04,20.03,4.65,40.06,9.31,60.09,13.96-20.53-1.99-40.86-6.02-60.6-12,16.32,21.23,34.81,40.79,55.09,58.28,4.31-13.82,7.09-28.12,8.27-42.55-8.07,8.62-17.07,16.37-26.79,23.08,7.29-7.3,14.59-14.6,21.88-21.9,6.9-6.91,.41-20.19,6.51-27.81-22.17,5.07-45,7.2-67.72,6.33,21.58-2.37,43.16-4.74,64.75-7.12,1.03-6.65-6.8-11.83-6.89-18.56-.05-3.97,2.6-7.4,5.16-10.44,7.67-9.13,15.61-18.03,23.82-26.67,5.12-5.39,10.44-10.76,16.92-14.42,5.35-3.01,11.3-4.76,17.2-6.47,10.93-3.18,21.86-6.36,32.79-9.55,3.73-1.09,7.75-2.17,11.43-.91,2.38,.82,4.34,2.53,6.22,4.2,8.65,7.68,17.9,16.53,18.9,28.05,.85,9.71-4.5,19.45-2.36,28.96-4.44,5.46-8.88,10.92-13.32,16.38-13.01,16-26.15,32.2-34.92,50.86-8.44,17.94-12.6,37.87-12.06,57.68,.78,28.38-10.97,56.88-31.54,76.46,9.39-12.78,17.35-26.61,23.68-41.15-16.1,4.11-32.08,8.72-47.89,13.83,7.82,10.05,15.64,20.09,23.46,30.14-9.24,12.38-19.73,25.6-34.78,29.08-15.83,3.65-32.53,7.29-48.1,2.63-15.17-4.54-26.93-16.27-38.01-27.58-3.34-3.41-6.68-6.81-10.01-10.22,11.06,7.13,21.21,15.66,30.14,25.33-3.13-7.96-3.88-16.84-2.14-25.22-9.82-2.26-19.35-5.75-28.3-10.37,9.41,2.36,18.81,4.72,28.22,7.07-3.94-13.26-8.32-26.39-13.13-39.36-4.75,10.15-10.42,19.86-16.9,29,3.95-11.01,9.08-21.59,15.27-31.52-8.43-4.63-17.35-8.35-26.57-11.08,4.38,18.39,8.75,36.77,13.13,55.16-7.85-15.38-11.63-32.45-15.34-49.31-1.46-6.64-2.93-13.34-3.01-20.14m34.61,22.57c7.45-1.28,14.89-2.55,22.34-3.83,1.55-.26,3.77-.03,3.83,1.54-8.26,1.71-16.55,3.26-24.86,4.65,3.96,12.49,7.92,24.98,11.88,37.48,1.17,3.68,2.35,7.39,4.29,10.72,1.82,3.12,4.27,5.82,6.71,8.48,7.6,8.29,15.33,16.46,23.18,24.51,2.63,2.69,7.03,2.07,10.7,1.25,8.31-1.86,16.61-3.72,24.92-5.59,2-.45,4.04-.91,5.81-1.95,2.22-1.3,3.84-3.39,5.46-5.4,5.24-6.49,11.01-12.56,17.25-18.1-5.45-6.93-10.9-13.87-16.35-20.8-2.85-3.62-5.73-7.3-7.54-11.54-1.88-4.39-2.52-9.2-3.14-13.94-.92-6.94-1.83-14.04-.44-20.91,1.47,10.19,2.93,20.39,4.4,30.58,.19,1.35,.55,2.93,1.81,3.46,.85,.36,1.82,.1,2.7-.16,14.64-4.37,29.28-8.74,43.92-13.1-12.7-5.82-25.41-11.64-38.11-17.46-7.23-3.31-15.56-6.66-22.86-3.49-4.93,2.14-9.86,7.15-14.7,4.8,7.23-3.39,14.46-6.78,21.68-10.17-3.73,.03-7.45,.07-11.18,.1-9.09,.08-19.85,1.09-24.38,8.97-1.71-8.15,.49-17.03,5.8-23.44,6.43-7.76,13.62-14.89,21.43-21.25l-17.94-14.29c-1.1-.88-2.69-.61-4.06-.29-10.27,2.46-20.27,6.08-29.74,10.76-6.47,3.2-14.15,.19-20.72-2.8-2.56,8.12-4.19,16.53-4.86,25.02,5.87-.86,12.04-1.69,17.58,.41,3.97,1.5,7.24,4.38,10.41,7.19,3.52,3.12,7.03,6.23,10.55,9.35l-7.35,12.92c-1.57,2.76-5.78,1.06-8.28-.89-3.64-2.85-7.28-5.71-10.92-8.56-3.06,5.26-6.13,10.53-9.19,15.79M196.82,56c3.61,19.5,2.05,39.54,.48,59.31,13.48-17.67,26.96-35.35,40.44-53.02-13.28-2.99-26.56-5.99-39.83-8.98,12.91,.21,25.79,2.38,38.05,6.41,2.23,.73,3.61-2.39,3.88-4.72,.95-8.36,1.9-16.73,2.84-25.09-8.73,4.38-17.46,8.76-26.19,13.14-6.6,3.31-13.21,6.63-20.04,9.45-24.95,10.29-52.12,13.64-78.91,16.89,10.03,9.97,22.75,16.7,35.3,23.21,14.08,7.31,28.21,14.52,42.38,21.65,1.87-19.35,2.41-38.82,1.61-58.24M213.06,3.36c-14.32,4.37-28.64,8.73-42.96,13.1-4.39,1.34-8.84,2.7-12.77,5.08-3.51,2.12-6.5,4.97-9.41,7.85-11.62,11.52-22.37,23.92-32.12,37.06,19.7-1.75,39.27-4.94,58.5-9.53,4.41-1.05,8.81-2.18,13.15-3.53,18.8-5.84,36.07-15.68,53.16-25.44,.38-.22,.8-.49,.9-.92,.1-.44-.2-.87-.47-1.23-5.92-7.73-12.38-15.04-19.31-21.88-.97-.96-2.39-1.97-3.56-1.28-.51,.3-.8,.85-1.07,1.37-7.28,14.26-13.57,29.01-18.82,44.14-.71,2.04-3.77,1.28-5.61,.14-11.01-6.87-21.81-14.07-32.4-21.57-1.37-.97-2.83-2.96-1.57-4.06,12.25,8.64,24.75,16.93,37.47,24.87,5.04-15.07,11.56-29.64,19.45-43.44-.11-1.01-1.58-1.02-2.56-.72m-31.56,152.93c3.35-9.58,6.69-19.16,10.04-28.74,.77-2.19,1.69-4.58,3.75-5.67-1.42-1.12-1.56-3.53-.28-4.81-12.64-6.55-25.27-13.11-37.91-19.66-14.83-7.69-29.83-15.5-42.35-26.57,2.36,4.68,4.72,9.36,7.07,14.04,4.41,8.76-3.34,19.64-.18,28.92,.91,2.67,2.66,4.96,4.38,7.2,8.44,10.96,16.87,21.92,25.31,32.89,1.36,1.76,4.51,.43,5.11-1.71,.61-2.14-.4-4.37-1.39-6.37-11.11-22.47-22.22-44.94-33.33-67.41,5.04,4.99,8.25,11.48,11.37,17.84,8.7,17.73,17.39,35.46,26.09,53.19,9.66-11.97,20.68-22.83,32.78-32.31-10.11,10.58-20.22,21.16-30.33,31.74-1.08,1.13-.37,2.98,.38,4.35,5.52,10.01,11.05,20.03,17.3,29.59-1.33-2.95-1.44-6.43-.31-9.46-1.38-5.66,.57-11.54,2.49-17.05m-70.11,5.26c1.29,.08,1.04,2.07,.39,3.19-5.25,8.94-10.5,17.89-15.74,26.83,6.3-.21,12.59-.42,18.89-.62,2.89-.1,5.91-.22,8.44-1.64,1.44-.8,2.63-1.98,3.8-3.14l24.32-24.15c.61-.6,1.19-1.68,.5-2.17-.25-.18-.59-.18-.9-.18-12.4,.19-24.8,.37-37.2,.56-1.3,.02-2.64,.05-3.85,.51-1.38,.53-2.49,1.59-3.55,2.63-7.44,7.31-14.44,15.06-20.94,23.22,1.14,1.53,2.35,3.12,4.08,3.93,1.73,.81,4.13,.53,5.1-1.12,5.48-9.33,11.04-18.61,16.67-27.85m56.6,54.44c1.08,.61,2.98,.82,3.06-.41-5.47-16.46-10.94-32.91-16.42-49.37-.18-.55-.46-1.18-1.03-1.28-.43-.07-.83,.19-1.17,.45-11.83,8.87-20.01,22.31-32.92,29.51,16.8,5.41,33.06,12.49,48.47,21.1M6.44,101.96c-.61,.17-1.25,.35-1.68,.81-.73,.78-.57,2.01-.37,3.06,1.83,9.51,3.66,19.02,5.48,28.53,.26,1.34,1.14,3.07,2.43,2.63,.44-.15,.75-.53,1.03-.89,10.77-13.76,21.53-27.51,32.3-41.27,.68-.87-.03-2.24-1.06-2.62s-2.17-.1-3.24,.19c-11.63,3.19-23.26,6.37-34.89,9.56m113.03,56.34c10.37-.6,20.74-1.2,31.11-1.81-9.58-11.87-18.82-24.01-27.73-36.39-1.02,7.26-2.3,14.48-3.85,21.65-1.01,4.68-2.13,9.35-3.68,13.88-.32,.93,.37,1.95,1.26,2.36,.89,.41,1.91,.36,2.89,.3m54.98,60.4c.23,.7,.93,1.56,1.5,1.1,.22-9.9,.44-19.8,.66-29.7,.04-1.74,.08-3.5-.28-5.2-.46-2.2-1.54-4.21-2.62-6.19-3.68-6.78-7.36-13.55-11.05-20.33-.92-1.69-2.19-3.6-4.11-3.61-1.7,0-3.04,1.64-3.31,3.32-.26,1.68,.28,3.37,.81,4.99,6.13,18.54,12.25,37.08,18.38,55.62M12.28,155.83c-.77,1.73-1.53,3.65-.99,5.47,.38,1.26,1.34,2.25,2.26,3.19,5.07,5.14,10.13,10.27,15.2,15.41,1.71-9.03,3.42-18.05,5.13-27.08,.08-.43,.16-.86,.07-1.29-.23-1.05-1.37-1.59-2.38-1.97-4.02-1.53-8.04-3.05-12.06-4.58-.34-.13-.69-.26-1.05-.22-.76,.08-1.23,.84-1.58,1.52-1.62,3.14-3.15,6.33-4.59,9.56M2.25,188.05c.6,4.02,1.19,8.04,1.79,12.06,.07,.48,.21,1.05,.67,1.2,6.91-6.55,14.2-12.7,21.82-18.42,.74-.56,.11-1.72-.53-2.39-5.45-5.62-10.89-11.25-16.34-16.87-3.17,6.93-5.58,14.2-7.17,21.66-.19,.91-.38,1.84-.24,2.76M94.3,54.8c-1.31-.56-3.08-.99-3.97,.14-8.19,10.45-17.69,19.87-28.22,27.96-1.57,1.21-3.3,2.61-3.51,4.58,15.67-8.29,31.26-16.72,46.78-25.28,.81-.64-.15-1.87-1.05-2.38-3.24-1.87-6.6-3.55-10.04-5.02m-37.01,236.88c6.98,.36,13.87,2.32,19.99,5.7,1.28,.7,2.9,1.46,4.08,.61-12.07-10.92-23.12-22.97-32.96-35.93-.67,3.22-.6,6.6,.2,9.79,1.07,4.27,2.14,8.55,3.21,12.82,.77,3.1,2.3,6.85,5.48,7.01m-24.11-108.13c3.71,3.89,7.43,7.78,11.14,11.68,1.21-4.27,2.41-8.53,3.62-12.8,.16-.56,.35-1.17,.84-1.5,.49-.33,1.34-.1,1.36,.48-.98,4.49-1.96,8.97-2.94,13.46,6.24,.12,12.5-.96,18.34-3.16-3.37-2.98-6.75-5.97-10.12-8.95-1.73-1.53-3.51-3.09-5.67-3.89-1.21-.45-2.49-.64-3.77-.79-4.36-.49-8.79-.44-13.13,.17-1.1,.15-1.69,1.49-1.45,2.57,.23,1.08,1.03,1.94,1.79,2.74m-4.26,27.32c.85,.35,2.31,.23,2.1-.66-1.97-8.35-2.36-17.07-1.15-25.56,.09-.64-.02-1.56-.67-1.57-.27,0-.51,.19-.72,.36-7.11,6.12-14.23,12.25-21.34,18.37,7.26,3.02,14.52,6.04,21.78,9.06m6.86-3.26c1.11-3.62,3.08-6.97,5.68-9.71,.91-.96-.01-2.49-.92-3.46-2.96-3.15-5.91-6.3-8.87-9.46-.35,8.64,.19,17.31,1.61,25.83,1.44-.12,2.07-1.83,2.49-3.21m24.11-.87c2.76-4.27,5.52-8.54,8.28-12.81-5.94,1.11-11.88,2.22-17.82,3.33,.06,.86,.7,1.56,1.3,2.17,2.58,2.61,5.33,5.05,8.24,7.31m24.96-17.54c-.12,2.77-.25,5.54-.37,8.31,1.66-1.09,3.32-2.17,4.98-3.26-.11-2.39-2.5-3.93-4.61-5.06m95.2,13.78c.26-3.98,.51-7.97,.77-11.95,.08-1.18,0-2.63-1.05-3.16-.36,4.44-.7,8.88-1.01,13.33-.06,.91,.51,2.26,1.29,1.78M54.04,89.18c.85-.45-.19-2.05-.95-1.45-.32,.27-.45,.75-.31,1.14,.35,.24,.8,.33,1.22,.23l.03,.08Z"/>
  </g>
</svg>