<?xml version="1.0" encoding="UTF-8"?>
<svg id="Layer_1" data-name="Layer 1" xmlns="http://www.w3.org/2000/svg" viewBox="0 0 130.06 110.17">
  <defs>
    <style>
      .cls-1 {
        fill: #ffead9;
      }

      .cls-2 {
        fill: none;
        stroke: #ffead9;
        stroke-miterlimit: 10;
      }
    </style>
  </defs>
  <path class="cls-2" d="M13.49,57.9c-1.03-.63-2.4-.24-2.9,.86-.78,1.69-1.17,3.64-1.17,5.77,.03,7.07-14.42,23.19-6.6,23.16,5.41-.02,21.27-11.12,26.86-17.42,.75-.84,.56-2.15-.4-2.73l-15.79-9.64Z"/>
  <path class="cls-1" d="M130.03,20.81c-.35,4.05-3.57,6.83-4.97,8.02-1.7,1.47-3.01,2.02-4.98,3.02-4.88,2.5-9.25,5.53-10.98,7.05-4.14,3.64-4.2,8.28-5.93,17.02-2.21,11.23-6.52,21.42-11.38,27.55-7.96,10.03-11.33,11.99-21.43,16.59-12.79,5.82-18.98,7.08-33.47,9.64-.17,.03-6.99,1.03-9,.03-.63-.31-2.06-1.01-2.73-2.59-.1-.25-.43-1.1-.29-2.39,.12-.99,.52-2.3,4.48-6.52,1.79-1.91,4.15-4.25,4.98-5.02,.11-.11,.57-.54,1.16-1.14,.37-.38,.66-.69,.83-.87-.75-1.48-1.44-3.14-2.02-4.99-2.56-8.22-1.28-15.65-.08-20l-1.66-.2-3.7-.45c-1.63-.19-3.03-1.27-3.65-2.79-.22-.55-.32-1.12-.33-1.68,0-1.36,.6-2.7,1.73-3.58,.45-.35,.97-.77,1.56-1.28l1.2-.77,9.78-6.27c.78-.47,1.85-1.47,1.99-2.01-.67-.47-2.72-1.16-4.01-1.98-5.86-3.73-6.93-5.22-9.03-6.97-3.81-3.18-4.88-5.21-5.03-6.98-.69-8.14,11.27-20.83,31.9-25.13C57.26,1.89,60.47-.49,62.94,.09c1.96,.45,2.94,2.62,4.02,4.98,1.82,3.98,.93,5.92,1.05,12,.03,1.27,1.03,4.31,1.02,4.99,2.02,4.67,4.04,9.32,6.06,13.98-.01-2.59,.3-6.56,1.96-11.01,.58-1.56,3.65-9.36,11.93-15.05,1.69-1.15,12.34-8.21,24.98-5.1,2.25,.55,8.71,2.23,13.04,7.95,1.26,1.67,3.35,4.41,3.03,7.98Z"/>
  <path class="cls-2" d="M32.56,66.01c-.09,.34-.21,.69-.36,1.05-.41,.98-1.61,1.35-2.51,.79l-.09-.06-3.12-1.96-13.91-8.75c-.62-.39-.63-1.28-.04-1.72,2.05-1.5,4.74-2.34,7.96-2.36,.78,0,1.53,.03,2.23,.1,1.25,.11,2.42-.59,2.84-1.77,1.08-3.04,2.11-7.87,2.76-6.3,.42,1.05,.4,4.5,.1,7.87-.09,.96,.24,1.92,.95,2.56l-1.2,.77c-.59,.51-1.11,.93-1.56,1.28-1.13,.88-1.73,2.22-1.73,3.58,.01,.56,.11,1.13,.33,1.68,.62,1.52,2.02,2.6,3.65,2.79l3.7,.45Z"/>
</svg>