<?xml version="1.0" encoding="UTF-8"?>
<svg id="Layer_2" data-name="Layer 2" xmlns="http://www.w3.org/2000/svg" viewBox="0 0 623.81 248.48">
  <defs>
    <style>
      .cls-1 {
        fill: none;
      }

      .cls-2, .cls-3 {
        font-family: Heebo-Regular, Heebo;
        font-size: 31px;
      }

      .cls-2, .cls-4 {
        fill: #fee9d9;
      }

      .cls-3, .cls-5 {
        fill: #252933;
      }

      .cls-6 {
        letter-spacing: 0em;
      }
    </style>
  </defs>
  <g id="illustrations">
    <g>
      <g>
        <g id="arrow_forward" data-name="arrow forward">
          <path class="cls-5" d="M120.44,130.02c6.15-7.61,12.29-15.23,18.44-22.84,1.38-1.7,2.97-3.54,5.15-3.8,4.46-.53,6.53,5.35,6.83,9.82,.3,4.48,1.77,10.36,6.26,10.47,10.4,.25,20.81,.49,31.21,.74,5.16,.12,10.43,.27,15.24,2.14,4.81,1.87,9.13,5.85,9.93,10.94,.32,2.06-.18,4.55-2.05,5.44-1.28,.61-2.78,.29-4.16-.01-15.08-3.27-30.7-2.63-46.12-1.97-2.12,.09-4.6,.39-5.65,2.23-.96,1.69-.2,3.79,.43,5.63,1.95,5.73,2.4,11.97,1.27,17.92-12.65-9.89-25.29-19.78-37.94-29.66-2.1-1.64-.52-4.97,1.15-7.05Z"/>
        </g>
        <g>
          <g>
            <g id="prev_button_1" data-name="prev button 1">
              <path class="cls-5" d="M533.86,136.23c-.26,7.73-2.01,11.64-4.82,18.25-2.25,5.31-4.76,10.52-7.5,15.6-3.28,6.08-7.05,12.17-14.03,14.87-2.6,1.01-5.47,1.02-8.14,.2-5.66-1.74-9.48,5.4-13.37,9.89-2.17,2.5-4.94,4.38-7.72,6.17-47.06,30.31-105.89,41.8-160.9,31.42-4.43-.84-9.24-1.99-12.02-5.54-8.12-10.39-5.12-24.33-3.77-45.69,.1-1.65,.48-3.27,.65-4.91,.57-5.75,1.5-11.47,2.95-17.07,.27-1.04,.46-2.11,.64-3.15l7.36-26.98c3.55-13.01,8.52-25.59,14.89-37.47,8.72-16.26,17.52-30.64,32.22-41.31,3.12-2.27,5.24-5.59,6.11-9.35,2.18-9.41,10.15-14.63,17.72-19.44,6.31-4.01,12.86-8.1,20.24-9.28,9.59-1.53,19.21,2.07,28.03,6.14,19.48,8.99,37.73,20.63,54.1,34.49,2.8,2.37,6.58,3.1,10.12,2.14,9.89-2.68,20.94-.04,28.68,6.62,1.14,.98,.96,2.8-.36,3.52-3.5,1.92-6.48,4.78-8.57,8.18-1.17,1.9,.66,3.84,1.67,5.83,6.12,12.01,4.75,8.8,9.79,22.02,.31,4.06,6.47,16.22,6.02,24.66m-227.56,65.95c-1.99,19.23-.69,22.17,6.26,30.09,7.12,8.12,21.61,7.05,32.4,7.49,51.63,2.11,95.49-7.58,133.84-41.92,2.26-2.02,1.24-8.98-1.13-10.88-41.33-33.21-73.38-62.9-100.52-108.42-.96-1.61-3.61-5.33-5.08-6.49-5.83-4.61-9.48-5.05-17.39,2.25-9.45,12.62-13.71,21.6-17.62,28.25-20.28,31.61-23.72,64.09-30.76,99.64M387.89,28.84c-12.24,8.27-15.49,13.8-14.12,20.33l1.41,3.48c10.29,13.72,16.88,24.55,27.16,38.27,6.24,8.33,12.49,16.66,19.43,24.42,10.76,12.02,23.08,22.52,35.36,32.98,10.68,9.1,15.03,12.8,25.71,21.91,3.63,3.1,10.29,7.09,15.06,6.84,6.56-.34,12.24-1.88,15.25-7.72,3.44-6.68,7.33-13.99,9.22-21.27,5.29-20.28-.35-41.38-8.81-60.56-2-4.52-4.1-9.32-3.46-14.22,.64-4.9,5.27-9.63,10.07-8.41-3.29-5.94-11.49-6.58-18.25-5.93-6.76,.65-15.36,3.14-20.39-1.42-16.98-15.39-30.64-24.71-51.95-33.13-4.34-1.71-13.88-4.58-18.54-4.61-5.37-.03-7.27,.83-12.14,3.11"/>
            </g>
            <text class="cls-3" transform="translate(317.7 174.99)"><tspan x="0" y="0" xml:space="preserve"> pr</tspan><tspan class="cls-6" x="35.6" y="0">e</tspan><tspan x="51.86" y="0">vious</tspan><tspan x="0" y="37.2">stage</tspan></text>
          </g>
          <g>
            <g id="prev_button_1-2" data-name="prev button 1">
              <path class="cls-4" d="M532.86,132.53c-.26,7.73-2.01,11.64-4.82,18.25-2.25,5.31-4.76,10.52-7.5,15.6-3.28,6.08-7.05,12.17-14.03,14.87-2.6,1.01-5.47,1.02-8.14,.2-5.66-1.74-9.48,5.4-13.37,9.89-2.17,2.5-4.94,4.38-7.72,6.17-47.06,30.31-105.89,41.8-160.9,31.42-4.43-.84-9.24-1.99-12.02-5.54-8.12-10.39-5.12-24.33-3.77-45.69,.1-1.65,.48-3.27,.65-4.91,.57-5.75,1.5-11.47,2.95-17.07,.27-1.04,.46-2.11,.64-3.15l7.36-26.98c3.55-13.01,8.52-25.59,14.89-37.47,8.72-16.26,17.52-30.64,32.22-41.31,3.12-2.27,5.24-5.59,6.11-9.35,2.18-9.41,10.15-14.63,17.72-19.44,6.31-4.01,12.86-8.1,20.24-9.28,9.59-1.53,19.21,2.07,28.03,6.14,19.48,8.99,37.73,20.63,54.1,34.49,2.8,2.37,6.58,3.1,10.12,2.14,9.89-2.68,20.94-.04,28.68,6.62,1.14,.98,.96,2.8-.36,3.52-3.5,1.92-6.48,4.78-8.57,8.18-1.17,1.9,.66,3.84,1.67,5.83,6.12,12.01,4.75,8.8,9.79,22.02,.31,4.06,6.47,16.22,6.02,24.66m-227.56,65.95c-1.99,19.23-.69,22.17,6.26,30.09,7.12,8.12,21.61,7.05,32.4,7.49,51.63,2.11,95.49-7.58,133.84-41.92,2.26-2.02,1.24-8.98-1.13-10.88-41.33-33.21-73.38-62.9-100.52-108.42-.96-1.61-3.61-5.33-5.08-6.49-5.83-4.61-9.48-5.05-17.39,2.25-9.45,12.62-13.71,21.6-17.62,28.25-20.28,31.61-23.72,64.09-30.76,99.64M386.89,25.14c-12.24,8.27-15.49,13.8-14.12,20.33l1.41,3.48c10.29,13.72,16.88,24.55,27.16,38.27,6.24,8.33,12.49,16.66,19.43,24.42,10.76,12.02,23.08,22.52,35.36,32.98,10.68,9.1,15.03,12.8,25.71,21.91,3.63,3.1,10.29,7.09,15.06,6.84,6.56-.34,12.24-1.88,15.25-7.72,3.44-6.68,7.33-13.99,9.22-21.27,5.29-20.28-.35-41.38-8.81-60.56-2-4.52-4.1-9.32-3.46-14.22,.64-4.9,5.27-9.63,10.07-8.41-3.29-5.94-11.49-6.58-18.25-5.93-6.76,.65-15.36,3.14-20.39-1.42-16.98-15.39-30.64-24.71-51.95-33.13-4.34-1.71-13.88-4.58-18.54-4.61-5.37-.03-7.27,.83-12.14,3.11"/>
            </g>
            <text class="cls-2" transform="translate(316.7 171.29)"><tspan x="0" y="0" xml:space="preserve"> pr</tspan><tspan class="cls-6" x="35.6" y="0">e</tspan><tspan x="51.86" y="0">vious</tspan><tspan x="0" y="37.2">stage</tspan></text>
          </g>
        </g>
        <g id="arrow_forward-2" data-name="arrow forward">
          <path class="cls-4" d="M119.83,127.42c6.15-7.61,12.29-15.23,18.44-22.84,1.38-1.7,2.97-3.54,5.15-3.8,4.46-.53,6.53,5.35,6.83,9.82,.3,4.48,1.77,10.36,6.26,10.47,10.4,.25,20.81,.49,31.21,.74,5.16,.12,10.43,.27,15.24,2.14,4.81,1.87,9.13,5.85,9.93,10.94,.32,2.06-.18,4.55-2.05,5.44-1.28,.61-2.78,.29-4.16-.01-15.08-3.27-30.7-2.63-46.12-1.97-2.12,.09-4.6,.39-5.65,2.23-.96,1.69-.2,3.79,.43,5.63,1.95,5.73,2.4,11.97,1.27,17.92-12.65-9.89-25.29-19.78-37.94-29.66-2.1-1.64-.52-4.97,1.15-7.05Z"/>
        </g>
      </g>
      <rect class="cls-1" width="623.81" height="248.48"/>
    </g>
  </g>
</svg>