<?xml version="1.0" encoding="UTF-8"?>
<svg id="Layer_2" data-name="Layer 2" xmlns="http://www.w3.org/2000/svg" viewBox="0 0 306.7 311.44">
  <defs>
    <style>
      .cls-1 {
        fill: #fee9d9;
        stroke: #fee9d9;
      }

      .cls-1, .cls-2 {
        stroke-miterlimit: 10;
      }

      .cls-2 {
        fill: #252933;
        stroke: #252933;
        stroke-width: .75px;
      }
    </style>
  </defs>
  <g id="shadows">
    <g id="design_6" data-name="design 6">
      <path class="cls-2" d="M138.43,158.36c-.4,.1-.82,.04-1.21-.09-1.73-.58-2.75-2.84-1.82-4.4,.93-1.56,3.71-1.53,4.42,.14,.21,.49,.24,1.04,.21,1.58-.05,1.15-.5,2.49-1.61,2.77Z"/>
      <path class="cls-2" d="M136.67,147.21c-.18,.2-.37,.41-.61,.52-.72,.33-1.54-.22-1.99-.88-.34-.49-.57-1.05-.72-1.62-.49-1.83,.26-4.32,2.14-4.49,1.41-.13,2.63,1.24,2.74,2.65,.11,1.41-.63,2.76-1.55,3.83Z"/>
      <path class="cls-2" d="M51.77,216.36c1.21,.76,2.42,1.51,3.63,2.27,.21,.13,.43,.28,.5,.51,.17,.53-.5,1.24-.05,1.57-.58-.43-1.13-.91-1.62-1.44-1.38-.17-2.52-1.51-2.46-2.91Z"/>
      <path class="cls-2" d="M54.28,220.59c.27,.4,.53,.79,.8,1.19l-2.78-.81c.33-.65,1.34-.82,1.86-.31l.12-.07Z"/>
      <path class="cls-2" d="M135.84,167.52c-1.72,.27-3.29-1.83-2.54-3.4s3.37-1.67,4.24-.17c.55,.94,.34,2.26-.47,2.99-.34,.31-.77,.51-1.22,.58Z"/>
      <path class="cls-2" d="M129.41,169.18c0-.13,.01-.25,.05-.37,.23-.63,1.27-.39,1.59,.2s.23,1.32,.42,1.97c.19,.65,.95,1.25,1.5,.86,1.09-.77,2.79,.39,2.7,1.72-.1,1.33-1.58,2.27-2.9,2.08-1.32-.2-2.38-1.28-2.88-2.52-.5-1.24-.54-2.61-.49-3.94Z"/>
      <path class="cls-2" d="M303.94,22.52c6.3,12.79-.88,28.11-9.75,39.27-22.2,27.93-56.46,47.93-67.33,81.91-5.07,15.84-4.29,32.93-7.3,49.29-3.68,20.03-13.42,39.26-28.95,52.44-15.53,13.17-37.06,19.7-56.93,15.27-12.13-2.71-23.14-9.23-32.72-17.15-18.39-15.23-32.5-37.39-32.38-61.27-4.01-1.08-8.03-2.15-12.04-3.23-2.43,8.53,.8,18.38,7.81,23.81,2.06,1.6,4.65,3.22,4.85,5.82,1.71,21.44,20.51,37.01,30.2,56.2,1.06,2.1,.31,6.06-1.76,4.94-3.63-4.72-7.27-9.45-10.9-14.17-12.18,12.24-25.38,27.92-21.08,44.64,.59,2.28,1.5,4.58,1.13,6.91-.37,2.32-2.75,4.54-4.93,3.66-2.15-.85-2.43-3.73-2.37-6.04,.12-4.22,.23-8.43,.35-12.65,.17-6.29-4.4-11.93-9.95-14.89-5.55-2.96-11.95-3.77-18.19-4.53-3,8.62-6.93,18.23-15.45,21.48,8.17-19.81,16.33-39.61,24.5-59.42,2.43-5.9,4.91-12.12,4.13-18.45-.81-6.56,2.56-12.79,4.86-18.98,2.3-6.19,3.28-13.96-1.31-18.71-6.43-6.63-18.6-2.45-25.99-7.99-4.71-3.53-6.05-9.9-7.05-15.7C10.54,126.79,5.68,98.58,.82,70.38c-.18-1.05-.31-2.28,.44-3.04,.75-.75,1.98-.63,3.03-.46,7.92,1.31,15.83,2.62,23.75,3.92-1.99-7.6-2.34-15.63-1-23.38,4.66,6.99,7.24,15.36,7.32,23.77,7.88,.88,15.77,1.77,23.65,2.65,2.18,.24,4.55,.58,6.05,2.18,1.16,1.24,1.56,2.99,1.9,4.65,3.32,15.82,6.64,31.63,9.96,47.45,1.61-6.85,5.26-13.21,10.36-18.06-7.4-2.41-12-10.32-12.48-18.08-.49-7.76,2.41-15.35,6.04-22.23,7.94-15.06,19.66-28.11,33.78-37.63-4.12-8.64,.72-19.73,9-24.53,8.28-4.8,18.83-4.23,27.76-.77,8.93,3.45,16.6,9.46,24.12,15.39,4.25-7.75,14.04-11.98,22.6-9.77-8.28,6.06-8.32,20.37-.08,26.49,9.64-19.6,32.32-29.19,53.87-32.74,14.74-2.42,30.91-2.5,43.35,5.78,4.03,2.68,7.56,6.23,9.7,10.57M90.44,111.6c13.5,10.11,31.99,9.8,48.7,7.51-.7-2.51-.32-5.31,1.03-7.54,.91,3.01,3.87,5.28,7.02,5.37s6.24-2,7.32-4.96c3.69,7.89,11.61,13.64,20.25,14.71-.52,1.56-2.27,2.27-3.83,2.81-6.82,2.36-13.86,5.28-18.31,10.96-4.45,5.68-5.16,14.91,.34,19.58,5.94,5.06,14.96,2.4,22.2-.5,2.08-.83,4.15-1.66,6.23-2.5-6.48,6.54-9.26,16.13-8.92,25.33,.33,9.2,3.51,18.09,7.58,26.34,4.07,8.25,9.49,16.44,17.79,20.42,.72,.34,1.51,.66,2.28,.46,.94-.24,1.52-1.15,2.02-1.98,8.18-13.94,16.58-28.53,17.67-44.65,.39-5.73-.17-11.47-.81-17.18-.86-7.66-1.87-15.34-3.99-22.75-4.09-14.29-12.32-27.36-23.45-37.2-3.17-2.8-6.79-5.73-7.5-9.9-3.56,1-7.34-1.58-8.99-4.9s-1.7-7.17-1.77-10.87c-.22-10.73-1.02-21.83-6.02-31.33-5-9.5-15.24-17.01-25.89-15.67-2.69-1.16-5.56-1.87-8.48-2.13-15.44-1.37-29.24,9.63-39.02,21.66-4.03,4.95-7.7,10.18-10.99,15.65-5.32,8.85-9.68,19.79-5.6,29.28,2.56,5.94,7.95,10.09,13.13,13.97m81.18,78.31c-1.91-9.88-1.95-21.26,4.9-28.62-4.71,1.96-9.58,3.86-14.68,3.94-5.1,.08-10.53-2.01-13.1-6.42-1.86-3.19-1.98-7.15-1.19-10.76,1.04-4.77,3.59-9.2,7.2-12.49-3.99-2.69-7.35-6.31-9.73-10.5,.08,1.09-1.69,1.32-2.47,.56s-1.02-1.94-1.71-2.78c-1.39-1.7-3.99-1.51-6.16-1.22-14.8,1.97-30.72,1.2-43.39-6.7-1.46-.91-3.45-.49-4.83,.55s-2.28,2.57-3.14,4.06c-1.11,1.92-2.22,3.84-3.33,5.76-1.6,2.77-3.26,5.88-2.54,9,3.54,15.27,7.09,30.55,10.63,45.82,.6,2.57-2.65,4.52-5.28,4.23-2.63-.29-4.98-1.83-7.6-2.18-2.62-.35-5.92,1.44-5.47,4.05,5.36,31.21,28.03,58.86,57.58,70.24-8.53-8.95-13.82-20.43-18.7-31.79-6.63-15.43-12.88-31.42-13.78-48.2-.08-1.48-.1-3.04,.56-4.36,.66-1.33,2.23-2.32,3.64-1.85,4.03,1.37,8.48,1.85,12.52,.52,4.04-1.33,7.55-4.69,8.28-8.88,.81-4.67-1.92-9.39-5.7-12.25-3.78-2.86-8.46-4.21-13.05-5.41-1.43-.38-1.35-2.43-.94-3.85,1.52-5.28,3.04-10.56,4.56-15.84,.38-1.32,1.71-2.97,2.74-2.06,.57,.51,.41,1.43,.19,2.16-1.46,4.92-3.28,9.74-5.45,14.4-.83,1.78,1.39,3.4,3.21,4.13,3.33,1.34,6.66,2.68,9.99,4.01-2.37-4.73-.64-11.12,3.81-14,1.85-1.2,4.01-1.81,5.93-2.89,1.92-1.08,3.7-2.86,3.79-5.06,.55-.62,1.65,.05,1.8,.87,.16,.82-.2,1.64-.24,2.47-.09,1.8,1.31,3.36,2.87,4.24,1.57,.88,3.36,1.29,4.97,2.1,5.28,2.66,7.55,9.07,7.88,14.97,.57,10.4-3.51,20.79-10.27,28.71-6.76,7.92-16.03,13.48-25.94,16.7,3.83-7.96,6.54-16.46,8.05-25.16-5.71,2.7-12.36,5.43-18.11,2.81-1.03-.47-2.3,.26-2.81,1.28-.51,1.02-.45,2.21-.36,3.35,1.19,15.03,6.79,29.31,12.45,43.29,3.78,9.34,7.67,18.75,13.49,26.97,3.93,5.56,9.34,10.84,16.13,11.45,2.68,.24,5.36-.28,8-.82,19.52-4,40.2-10.12,52.47-25.82-.66,4.01-4.23,6.79-7.54,9.16-3.98,2.84-7.96,5.69-11.95,8.52,9.36-3.45,17.49-10.11,22.72-18.6-1.98,1.29-4.6,.19-6.59-1.08-13.69-8.76-21.24-24.75-24.32-40.71m19.5-97.93c-1.36,.96-2.88,1.81-3.82,3.19-.94,1.38-1.06,3.52,.27,4.53,21.22,16.19,33.76,43.14,32.47,69.8,1.58-.76,1.57-2.97,1.43-4.71-1.22-14.65,4.6-29.15,12.99-41.22,8.4-12.06,19.29-22.13,29.71-32.49,8.28-8.24,16.31-16.72,24.08-25.45,5.7-6.4,11.36-13.1,14.39-21.11,3.03-8.01,3-17.69-2.17-24.52-2.47-3.26-5.91-5.67-9.53-7.57-10.63-5.6-23.07-7.27-35.02-5.96-11.94,1.31-23.44,5.47-34.14,10.94-6.96,3.56-13.8,7.82-18.58,14.01-2.01,2.59-3.65,5.59-4,8.85-.35,3.26,.81,6.81,3.47,8.72,.62,7.76,1.24,15.63-.15,23.29-1.39,7.66-5.04,15.23-11.41,19.71M54.88,123.36c1.03,1.9-.59,4.28-2.57,5.14-1.98,.86-4.23,.79-6.31,1.35,1.23,15.05,3.92,29.97,8.02,44.5,.18,.63,.37,1.27,.79,1.76,.61,.7,1.57,.96,2.47,1.17,9.49,2.26,19.19,3.69,28.93,4.28-7.34-31.55-14.68-63.09-22.02-94.64-.46-1.97-.88-4.18,.18-5.89,.62-1,.08-2.39-.86-3.09-.94-.7-2.16-.9-3.32-1.07-7.71-1.15-15.42-2.31-23.13-3.46-.6-.09-1.29-.16-1.75,.25-.53,.47-.46,1.3-.34,2,2.17,12.98,4.35,25.97,6.52,38.95,.44,2.63,1.18,5.67,3.62,6.75,3.19,1.41,8.12-1.07,9.78,1.99m-28.99,4.63c-1.23-2.35,1.48-4.97,4.08-5.5,2.6-.53,5.49-.1,7.75-1.49-2.44-15.04-5.17-30.03-8.17-44.96-.18-.9-.4-1.87-1.11-2.46-.51-.43-1.2-.58-1.86-.72-7.28-1.52-14.6-2.81-21.96-3.86-.7-.1-1.5-.17-2.02,.31-.56,.52-.49,1.41-.37,2.16,1.5,9.47,4.41,18.65,6.43,28.02,4.85,22.46,4.65,46.12,12.81,67.61,.22,.58,.46,1.18,.91,1.6,.54,.5,1.3,.67,2.02,.83,7.79,1.65,15.59,3.31,23.38,4.96-2.21-14.96-5.15-29.82-8.8-44.5-2.65-.01-5.3-.03-7.95-.04-1.94,0-4.27-.24-5.17-1.96m92.92,17.94c-.61,.88-1.23,1.76-1.84,2.64,3.42,3.27,4.8,8.23,4.72,12.96-.08,4.73-1.45,9.33-2.8,13.86-1.67,5.58-3.34,11.17-5.02,16.75,8.49-3.8,16.39-9.22,22.1-16.56,5.71-7.34,9.07-16.71,8.21-25.97-.5-5.34-2.88-11.08-7.82-13.15-3.07-1.29-6.22-2.6-9.54-2.83-3.33-.23-6.93,.8-8.96,3.45-2.03,2.64-1.82,7.02,.96,8.86m-80.69,121.24c5.93,2.53,11.86,5.06,17.79,7.6,1.01,.43,2.22,.85,3.16,.28-.57-14.06-1.14-28.11-1.71-42.17-.06-1.46-1.2-2.69-2.53-3.29-1.33-.6-2.82-.69-4.27-.77-.18-.01-.36-.02-.53,.05-.31,.12-.47,.46-.59,.76-4.58,11.07-9.17,22.13-13.75,33.2-.21,.51-.42,1.03-.4,1.58,.07,1.4,1.55,2.22,2.84,2.77m45.88-15.2c.39-.34,.15-.98-.12-1.42-4.52-7.43-10.52-14.01-13.93-22.01-.97-2.26-4.65-1.85-6.05,.17-1.4,2.02-1.22,4.7-1.01,7.15,1.05,12.12,1.35,24.3,1.66,36.47,5.8-7.4,12.32-14.23,19.45-20.36m85.63-124.32c-3.37-1.63-6.66-3.44-9.85-5.4-2.03-1.25-4.06-2.61-5.49-4.51-.18-.25-.54-.26-.85-.24-1.62,.13-3.22,.8-4.31,2.01-1.08,1.21-1.57,2.98-1.06,4.52,.34,1.04,1.09,1.89,1.81,2.72,1.97,2.23,3.94,4.46,5.91,6.69,.36,.41,.96,.85,1.39,.51,3.68-2.89,7.94-5.04,12.44-6.3m29.37-70.36c.63-.55,.11-1.81,.8-2.3,.93-.66,.29-2.27-.77-2.69-1.06-.42-2.26-.13-3.4-.11-.62,.01-1.43-.24-1.44-.86,0-.73,1.02-.89,1.75-.8,1.2,.15,2.4,.3,3.6,.44,.49,.06,.57-.68,.45-1.15-.63-2.45-1.68-5.32-4.15-5.86-1.43,4.84-3.29,9.55-5.56,14.06-1.37,2.73-2.9,5.4-4.87,7.73,2.36,.57,4.72,1.14,7.08,1.72,.37,.09,.75,.18,1.13,.11,.82-.15,1.3-.99,1.67-1.74,.81-1.64,1.63-3.28,2.44-4.92,.25-.5,.49-1.11,.18-1.57-.24-.36-.71-.45-1.13-.52l-5.55-.9c.7-.99,2.1-1.21,3.3-1.04,1.2,.17,2.37,.63,3.58,.64,.32,0,.66-.03,.9-.24m-7.98,27.4c-1.09-.92-2.2-1.85-3.53-2.36-1.33-.51-2.94-.52-4.07,.34-1.91,1.44-3.83,2.88-5.74,4.32-.5-.35-.54-1.12-.25-1.66,.29-.54,.83-.9,1.34-1.23,1.37-.9,2.75-1.8,4.12-2.7-2-.97-4.19-1.56-6.41-1.71-.23-.02-.47-.02-.66,.1-.29,.19-.31,.59-.32,.94,0,4.16,.1,8.68,2.68,11.94,4.83-1.58,9.27-4.35,12.83-7.98m7.92-13.02c-1.05-.46-2.1-.92-3.16-1.38-.37-.16-.8-.32-1.16-.16-.21,.1-.36,.29-.51,.48l-3.74,4.91c1.39,.35,2.77,.7,4.16,1.04,.47,.12,.97,.23,1.42,.04,.62-.27,.86-1,1.14-1.62s.89-1.26,1.54-1.03c.19,.57,0,1.18-.2,1.74-2.9,7.86-9.3,14.36-17.12,17.37-.57,.22-1.23,.51-1.35,1.11,4.99,.27,9.81-2.33,13.18-6.02,3.37-3.68,5.46-8.35,7.1-13.07,.28-.81,.53-1.75,.07-2.47-.3-.47-.85-.72-1.37-.95M157.75,14.39c-.28,.55-.96,.86-1.55,.7,.2-.77,.41-1.54,.61-2.31-2.74,.48-5.44,1.18-8.06,2.11-.38,.13-.36,.67-.26,1.05,.67,2.83,1.35,5.65,2.02,8.48,2.53-1.06,5.06-2.13,7.59-3.19,.4-.17,.82-.36,1.03-.74,.17-.32,.16-.7,.12-1.06-.18-1.76-.69-3.48-1.49-5.05M54.11,201.65c-1.18,1.85-2.36,3.69-3.53,5.54-.55,.87,.4,1.95,1.35,2.33,.96,.38,2.12,.59,2.62,1.49,.65,1.17,2.3,1.44,3.54,.97,1.25-.47,2.19-1.5,3.09-2.49,1.02-1.13,2.04-2.26,3.06-3.39-3.38-1.48-6.75-2.96-10.13-4.45M127.6,12.45c-1.37-1.53-2.98-3.17-5.03-3.19-2.58-.03-4.38,2.47-5.7,4.69-.25,.42-.51,.87-.47,1.36,.05,.68,.65,1.18,1.21,1.58,1.06,.78,2.11,1.55,3.17,2.33,.48,.35,1.13-.02,1.6-.38,1.76-1.36,3.52-2.71,5.27-4.07,.23-.18,.48-.37,.59-.65,.24-.58-.21-1.2-.63-1.67m3.84,11.58c.48-.31,1.02-.66,1.15-1.22,.09-.41-.06-.82-.21-1.21l-1.7-4.35c-.26-.66-.65-1.43-1.36-1.49-.49-.04-.92,.28-1.3,.59-1.25,1.01-2.5,2.02-3.74,3.03-.55,.44-1.15,1.08-.92,1.74,.97,2.8,1.94,5.61,2.91,8.41,1.25-2.21,3.04-4.12,5.17-5.5m17.41,7.08c-1.34-.42,.19-2.83-.81-3.81-1.45,.97-2.91,1.95-4.36,2.92,2.48,1.75,5.88,2.12,8.67,.93,2.15-.91,4.29-1.83,6.44-2.74,.38-.16,.8-.35,1-.72,.18-.31,.16-.7,.14-1.06-.06-.99-.11-1.97-.17-2.96-.02-.33-.06-.71-.33-.9-.3-.22-.72-.09-1.07,.05-2.06,.82-4.13,1.65-6.19,2.47-.93,.37-1.97,.86-2.24,1.83-.22,.78,.17,1.59,.23,2.4s-.54,1.83-1.32,1.59m32.22,6.35c-.03,.19-.06,.39-.09,.58-.27,1.87-.55,3.73-.82,5.6,1.45-.09,2.92-.26,4.22-.92,1.29-.66,2.38-1.88,2.5-3.33,.09-1.01-.82-2.27-1.72-1.79-.95,.51-2.11,.6-3.13,.26,.14-1.25,1.96-1.13,3.19-1.38,1.7-.34,2.89-2.23,2.54-3.93-.35-1.7-2.1-2.96-3.83-2.82-.71,.06-1.46,.37-1.78,1.01-.14,.28-.19,.6-.24,.92-.28,1.93-.56,3.87-.85,5.8m-.52-5.95c.06-.4,.09-.88-.23-1.12-.25-.19-.61-.14-.93-.07-2.27,.47-4.54,.94-6.8,1.41-.58,.12-1.2,.26-1.65,.65-.65,.56-.8,1.48-.91,2.33-.17,1.25-.34,2.5-.5,3.76-.06,.46,.19,1.15,.59,.93,2.67-1.51,5.75-2.29,8.82-2.24,.58,0,.84-.72,.93-1.3,.23-1.44,.45-2.89,.68-4.33M57.52,217.06c-.04-.35-.1-.71-.33-.98-.22-.25-.55-.36-.87-.46-1.32-.41-2.64-.82-3.95-1.23-.35-.11-.72-.22-1.09-.2-1.28,.09-1.89,1.66-1.83,2.94,.05,1.28,.45,2.63-.06,3.8-.24,.55,.42,1.05,.97,1.3,2.77,1.26,5.53,2.51,8.3,3.77-.38-2.98-.76-5.97-1.14-8.95M176.42,61.84c-.84,1.18-1.68,2.35-2.53,3.53,2.67,0,5.35-.01,8.02-.02,.92,0,1.99-.08,2.52-.82,1.33-1.86,2.62-3.76,3.86-5.69-2.53-.13-5.08,0-7.59,.38-.96,.15-1.95,.35-2.75,.91-.63,.44-1.09,1.08-1.54,1.71m6.62,6.61c-1.04,1.36-2.07,2.71-3.11,4.07,2.37,.77,4.79,1.37,7.24,1.82,.62,.11,1.29,.21,1.87-.03,.49-.2,.85-.62,1.19-1.03,1.03-1.24,2-2.54,2.91-3.87-2.1-.66-4.2-1.32-6.31-1.99-.82-.26-1.73-.51-2.51-.16-.54,.24-.92,.73-1.28,1.2m-35.82-51.26c-.13-.53-.38-1.16-.92-1.21-.28-.03-.55,.13-.79,.27-.92,.56-1.84,1.11-2.76,1.67-.33,.2-.69,.43-.84,.79-.13,.31-.08,.66-.03,.98,.45,3,.9,6,1.36,8.99,1.5-1.06,3.01-2.11,4.51-3.17,.29-.2,.59-.42,.72-.75,.11-.29,.07-.61,.03-.92-.32-2.24-.75-4.46-1.28-6.66m22.01,28.99c2.6-.72,5.2-1.44,7.8-2.16,1.28-.35,1.78-1.88,2.08-3.17,.12-.54,.24-1.1,.09-1.63s-.71-.98-1.23-.83c-2.12,.6-4.24,1.2-6.36,1.79-.98,.28-2.01,.58-2.69,1.34-.91,1.02-.92,2.53-.88,3.89,0,.24,.02,.5,.19,.68,.24,.25,.66,.18,1,.09m-35.23-19.81c-.08,.84,.04,1.78,.66,2.35,.57,.53,1.42,.61,2.2,.66,1.44,.1,2.87,.19,4.31,.29,.24-2.93-.02-5.91-.74-8.76-.07-.29-.19-.63-.47-.74-.18-.08-.39-.04-.58,0-2.85,.67-5.12,3.29-5.38,6.2m57.4,25.47c-1.94-.12-3.88-.24-5.82-.36-.43-.03-.88-.05-1.25,.15-.31,.17-.53,.47-.74,.75-1.28,1.78-2.57,3.56-3.85,5.34,.04,.54,.85,.46,1.35,.25,1.7-.71,3.6-.95,5.43-.68,1.33,.2,2.65-.63,3.43-1.73,.78-1.1,1.13-2.44,1.46-3.74M121.38,22.35c-.59-.1-1.12,.34-1.56,.75-1.61,1.5-3.36,3.65-2.42,5.64,.25,.53-.68,.86-.82,1.43-.17,.71,.9,.99,1.63,.92,2.18-.22,4.35-.44,6.53-.66l-2.08-6.48c-.22-.68-.56-1.48-1.27-1.6m12.67-1.37c.1,.23,.26,.51,.51,.5,.13,0,.24-.09,.35-.17,1.27-.98,2.54-1.95,3.8-2.93,.29-.22,.59-.47,.68-.82,.07-.28-.01-.56-.1-.84-.38-1.22-.82-2.43-1.32-3.61-.21-.5-.61-1.09-1.14-.97-1.64,.38-3.23,.98-4.72,1.77-.25,.13-.52,.3-.61,.57-.1,.28,.02,.59,.14,.86,.8,1.88,1.6,3.75,2.4,5.63m52.77,24.12c-1.01,1.78-1.7,3.74-2.03,5.75,1.3-.74,2.89-.95,4.33-.58,1.5,.39,3.08-.64,3.84-1.99s.89-2.95,1.01-4.5c-1.63,.02-3.26,.03-4.88,.05-.49,0-1.01,.02-1.43,.27-.37,.23-.61,.61-.82,.99m4.09-26.84c0-.17-.05-.35-.14-.5-.17-.27-.48-.39-.78-.51-.85-.33-1.71-.65-2.56-.98-1.09-.42-2.25-.84-3.4-.66-1.26,.2-2.34,1.17-2.74,2.39s-.09,2.61,.72,3.59c.19,.23,.42,.44,.7,.53,.67,.2,1.31-.36,1.92-.7,1.12-.61,2.47-.52,3.73-.76,1.25-.24,2.61-1.13,2.55-2.4m10.32,36.99c-.92,3.01-1.85,6.04-3.32,8.82-.9,1.69-2.02,3.35-2.22,5.26,1.03-1.02,2.59,1.22,3.99,.85,.75-.2,1.09-1.06,1.29-1.81,1.1-4.28,1.2-8.81,.27-13.12m-13.67,21.14c.08-.38-.41-.61-.79-.69-2.34-.46-4.68-.93-7.02-1.39-2.11-.42-4.32,1.57-4.15,3.7,2.59-.09,5.21,.49,7.52,1.67,.69,.35,1.46-.24,2.01-.78,.73-.72,1.46-1.45,2.19-2.17,.1-.1,.21-.21,.24-.35m-12.54-50.9c-1.32,.34-2.7,.73-3.66,1.69-.96,.96-1.28,2.71-.3,3.65,1.9-.83,3.99-1.1,6.03-1.46,1.27-.22,2.62-.53,3.48-1.48s.85-2.76-.32-3.29c-.64-.29-1.38-.12-2.06,.06-1.06,.28-2.11,.55-3.17,.83M62.21,222.11c.2,.7,.47,1.37,.79,2.03,.64-2.09,3.13-3.16,3.82-5.23,.81-2.45-1.24-5.28-.13-7.61-.03-.3-.49-.22-.73-.05-3.3,2.4-4.87,6.94-3.75,10.87M166.87,21.02c-1.31-.85-3.04-.28-4.49,.3-.47,.19-.99,.42-1.21,.88-.19,.39-.12,.84-.05,1.26,.24,1.44,.48,2.88,.71,4.33,1.86-.6,3.71-1.19,5.57-1.79,.48-.16,1.02-.36,1.23-.82,.17-.39,.05-.83-.07-1.24-.33-1.11-.72-2.3-1.68-2.93m-37.22-8.92c.22,.21,.46,.43,.76,.47,.25,.04,.5-.05,.73-.14l4.23-1.62c.51-.2,1.01-1,.47-1.11-1.12-.22-1.88-1.54-1.51-2.62-2.69-.72-5.62-.51-8.17,.6-.17,.08-.37,.18-.42,.36-.06,.22,.12,.43,.29,.59,1.21,1.16,2.41,2.31,3.62,3.47m30.4,24.64c.06,.19,.22,.32,.37,.44,1.03,.82,2.06,1.64,3.09,2.46,.54,.43,1.12,.88,1.81,.92,1.58,.1,2.42-1.82,2.71-3.37,.27-1.41,.47-2.82,.61-4.24-2.56,.93-5.13,1.85-7.69,2.78-.47,.17-1.05,.53-.9,1.01m24.64,7.51c-1.42,.18-2.85,.37-4.27,.55-.4,.05-.83,.11-1.14,.38-.23,.19-.36,.47-.49,.74-.69,1.44-1.38,2.87-2.07,4.31-.11,.23-.23,.5-.14,.74,.18,.47,.89,.37,1.31,.09s.89-.68,1.36-.51c1.44,.5,3.08-.25,4.06-1.42s1.45-2.67,1.89-4.13c.07-.24,.12-.55-.08-.7-.12-.08-.28-.07-.42-.05m-23.42-14.49c-1.13,1.17-.4,3.17-1.03,4.67,2.13-.83,4.27-1.66,6.4-2.5,.88-.34,1.81-.72,2.4-1.46,.59-.74,.7-1.96-.04-2.56-.69-.56-1.69-.33-2.54-.07-1.16,.35-2.32,.7-3.48,1.06-.62,.19-1.26,.39-1.71,.86m28.52,7.2c-.32,.04-.66,.1-.91,.3-.36,.28-.49,.75-.59,1.2-.35,1.5-.7,2.99-1.06,4.49,2.01-.26,4.02-.51,6.02-.77,1.63-.21,2.14-2.63,1.08-3.9-1.05-1.26-2.91-1.51-4.55-1.31m5.41,41.81c-.12-.18-.34-.27-.55-.35-1.39-.52-2.78-1.04-4.17-1.56-.48-.18-1.02-.36-1.48-.13-.27,.13-.46,.37-.64,.61-.78,1.02-1.56,2.05-2.33,3.07,1.59,.67,3.17,1.35,4.76,2.02,.58,.25,1.27,.49,1.82,.17,.72-.42,.69-1.5,1.27-2.09,.57-.58,1.78-1.07,1.33-1.74m-18.83-20.27c2.21-1.65,4.03-3.81,5.27-6.27-1.88-.31-3.84-.13-5.63,.52-.54,.19-1.16,.58-1.09,1.15,.15,1.32-.55,2.69-1.71,3.34-.82,.46-.33,1.88,.58,2.12,.91,.24,1.83-.29,2.58-.85m-7.13-9.55c.3,1.34,.8,2.9,2.12,3.3,1.36,.41,2.71-.73,3.42-1.96,.71-1.23,1.14-2.68,2.22-3.61,.29-.25,.08-.78-.28-.92-.36-.14-.76-.02-1.13,.09-1.91,.61-3.82,1.22-5.73,1.84-.21,.07-.43,.14-.56,.31-.2,.26-.14,.63-.07,.94m-50.71-29.46c-.69-.47-1.4-.92-2.12-1.35-.28-.17-.6-.34-.93-.27-.43,.08-.68,.54-.84,.95-1.09,2.76-1.05,5.94,.09,8.68,.98-2.33,2.56-4.4,4.55-5.96,.67-.53-.05-1.56-.75-2.05m56.48,51.41c.04,.44,.1,.91,.38,1.24,.79,.94,2.28,.06,3.14-.81,1.29-1.32,2.58-2.63,3.88-3.95-2.54-.61-5.2-.75-7.8-.41,.13,1.31,.26,2.62,.4,3.92m13.46-47.24c.05-.21,.1-.44,.02-.64-.19-.48-.87-.42-1.37-.28-1.56,.44-3.12,.89-4.68,1.33-.24,1.52-.13,3.09,.32,4.56l3.59-.36c.3-.03,.61-.07,.84-.26,.24-.2,.32-.52,.4-.82,.29-1.18,.58-2.36,.87-3.54m-26.46-3.77c1.7-.55,3.4-1.1,5.1-1.65-1.92-2-4.14-3.72-6.55-5.08-.35-.2-.89-.33-1.07,.03l1.41,6.05c.06,.27,.15,.58,.4,.7,.22,.11,.48,.04,.72-.04m-22.06-8.38c-.2,.08-.42,.16-.55,.34-.24,.32-.08,.78,.1,1.14,.63,1.34,1.25,2.68,1.88,4.02,1.13-.75,2.25-1.5,3.38-2.25,1.19-.79,.65-2.86-.64-3.49s-2.82-.26-4.17,.24m14.14,.09c.43-.12,.95-.38,.89-.82-2.86-1.18-6.23-2.33-8.92-.79,.09,.77,.2,1.58,.61,2.24,.41,.66,1.22,1.15,1.97,.94,1.82-.52,3.63-1.04,5.45-1.56m4.07,23.57c.14-.14,.19-.34,.24-.54,.33-1.49,.59-3,.77-4.52-2.4,.7-4.7,1.74-6.8,3.1,1.55,.65,3.11,1.3,4.66,1.94,.37,.15,.84,.29,1.13,.01m35.89-20.93c.39-.67-.65-1.25-1.42-1.29-2.14-.11-4.3,.29-6.26,1.14l4.23,1.83c.32,.14,.64,.27,.98,.3,1.11,.07,1.9-1.02,2.46-1.97m-54.47-4.31c.51,.07,1.08,.05,1.48-.29,.39-.33,.44-1.08-.02-1.31-1.85-.92-3.9-1.42-5.97-1.45,.92,1.64,2.65,2.81,4.52,3.04m-7.04,15.12l-4.1,3.92c-.17,.16-.35,.34-.39,.57-.05,.26,.11,.54,.35,.63,1.21-.52,2.51-.85,3.82-.97,.25-1.37,.36-2.76,.32-4.16m40.65-.67c-.72-1.34-1.67-2.56-2.81-3.57-.35-.31-.86-.6-1.23-.33,.3,1.13,.6,2.25,.91,3.38,.35,1.29,2.4,1.63,3.14,.52m6.98-4.98c-1.51,.54-2.82,1.64-3.63,3.03-.26,.45-.47,.99-.32,1.49,2.16-.31,3.93-2.34,3.95-4.52m8.78,15.22c-.16,.4-.18,.86-.05,1.28,1.04-.16,2.09-.32,3.13-.48-.51-1.43-1.34-2.74-2.42-3.81-.39,.95-.61,1.97-.66,3m-23.76,221.18c-2.43,.29-4.81,1.06-6.95,2.24,2.48,.01,4.95-.78,6.95-2.24m7.61-200.48c.04-.46,.29-.89,.65-1.17-.42-.68-1.56-.65-2.02,0-.46,.65-.19,1.65,.48,2.08,.28-.3,.56-.59,.84-.89m2.81,5.86c-.58-.73-1.96-.47-2.24,.41,.24,.33,.48,.67,.72,1,.56-.36,1.06-.83,1.46-1.37m-33.77,56.42c.27-.25-.29-.63-.6-.43-.14,.39-.17,.83-.07,1.23,.35,.25,.68-.35,.69-.78m24.87-75.42c-.09-.37-.76-.33-.8,.05-.11,.48,.93,.42,.76-.05h.03Z"/>
    </g>
  </g>
  <g id="illustrations">
    <g id="design_6-2" data-name="design 6">
      <path class="cls-1" d="M138.25,154.75c-.4,.1-.82,.04-1.21-.09-1.73-.58-2.75-2.84-1.82-4.4,.93-1.56,3.71-1.53,4.42,.14,.21,.49,.24,1.04,.21,1.58-.05,1.15-.5,2.49-1.61,2.77Z"/>
      <path class="cls-1" d="M136.49,143.61c-.18,.2-.37,.41-.61,.52-.72,.33-1.54-.22-1.99-.88-.34-.49-.57-1.05-.72-1.62-.49-1.83,.26-4.32,2.14-4.49,1.41-.13,2.63,1.24,2.74,2.65,.11,1.41-.63,2.76-1.55,3.83Z"/>
      <path class="cls-1" d="M51.58,212.76c1.21,.76,2.42,1.51,3.63,2.27,.21,.13,.43,.28,.5,.51,.17,.53-.5,1.24-.05,1.57-.58-.43-1.13-.91-1.62-1.44-1.38-.17-2.52-1.51-2.46-2.91Z"/>
      <path class="cls-1" d="M54.1,216.98c.27,.4,.53,.79,.8,1.19l-2.78-.81c.33-.65,1.34-.82,1.86-.31l.12-.07Z"/>
      <path class="cls-1" d="M135.66,163.92c-1.72,.27-3.29-1.83-2.54-3.4s3.37-1.67,4.24-.17c.55,.94,.34,2.26-.47,2.99-.34,.31-.77,.51-1.22,.58Z"/>
      <path class="cls-1" d="M129.23,165.58c0-.13,.01-.25,.05-.37,.23-.63,1.27-.39,1.59,.2s.23,1.32,.42,1.97c.19,.65,.95,1.25,1.5,.86,1.09-.77,2.79,.39,2.7,1.72-.1,1.33-1.58,2.27-2.9,2.08-1.32-.2-2.38-1.28-2.88-2.52-.5-1.24-.54-2.61-.49-3.94Z"/>
      <path class="cls-1" d="M303.76,18.92c6.3,12.79-.88,28.11-9.75,39.27-22.2,27.93-56.46,47.93-67.33,81.91-5.07,15.84-4.29,32.93-7.3,49.29-3.68,20.03-13.42,39.26-28.95,52.44-15.53,13.17-37.06,19.7-56.93,15.27-12.13-2.71-23.14-9.23-32.72-17.15-18.39-15.23-32.5-37.39-32.38-61.27-4.01-1.08-8.03-2.15-12.04-3.23-2.43,8.53,.8,18.38,7.81,23.81,2.06,1.6,4.65,3.22,4.85,5.82,1.71,21.44,20.51,37.01,30.2,56.2,1.06,2.1,.31,6.06-1.76,4.94-3.63-4.72-7.27-9.45-10.9-14.17-12.18,12.24-25.38,27.92-21.08,44.64,.59,2.28,1.5,4.58,1.13,6.91-.37,2.32-2.75,4.54-4.93,3.66-2.15-.85-2.43-3.73-2.37-6.04,.12-4.22,.23-8.43,.35-12.65,.17-6.29-4.4-11.93-9.95-14.89-5.55-2.96-11.95-3.77-18.19-4.53-3,8.62-6.93,18.23-15.45,21.48,8.17-19.81,16.33-39.61,24.5-59.42,2.43-5.9,4.91-12.12,4.13-18.45-.81-6.56,2.56-12.79,4.86-18.98,2.3-6.19,3.28-13.96-1.31-18.71-6.43-6.63-18.6-2.45-25.99-7.99-4.71-3.53-6.05-9.9-7.05-15.7C10.35,123.19,5.5,94.98,.64,66.77c-.18-1.05-.31-2.28,.44-3.04,.75-.75,1.98-.63,3.03-.46,7.92,1.31,15.83,2.62,23.75,3.92-1.99-7.6-2.34-15.63-1-23.38,4.66,6.99,7.24,15.36,7.32,23.77,7.88,.88,15.77,1.77,23.65,2.65,2.18,.24,4.55,.58,6.05,2.18,1.16,1.24,1.56,2.99,1.9,4.65,3.32,15.82,6.64,31.63,9.96,47.45,1.61-6.85,5.26-13.21,10.36-18.06-7.4-2.41-12-10.32-12.48-18.08-.49-7.76,2.41-15.35,6.04-22.23,7.94-15.06,19.66-28.11,33.78-37.63-4.12-8.64,.72-19.73,9-24.53,8.28-4.8,18.83-4.23,27.76-.77,8.93,3.45,16.6,9.46,24.12,15.39,4.25-7.75,14.04-11.98,22.6-9.77-8.28,6.06-8.32,20.37-.08,26.49,9.64-19.6,32.32-29.19,53.87-32.74,14.74-2.42,30.91-2.5,43.35,5.78,4.03,2.68,7.56,6.23,9.7,10.57M90.26,108c13.5,10.11,31.99,9.8,48.7,7.51-.7-2.51-.32-5.31,1.03-7.54,.91,3.01,3.87,5.28,7.02,5.37s6.24-2,7.32-4.96c3.69,7.89,11.61,13.64,20.25,14.71-.52,1.56-2.27,2.27-3.83,2.81-6.82,2.36-13.86,5.28-18.31,10.96-4.45,5.68-5.16,14.91,.34,19.58,5.94,5.06,14.96,2.4,22.2-.5,2.08-.83,4.15-1.66,6.23-2.5-6.48,6.54-9.26,16.13-8.92,25.33,.33,9.2,3.51,18.09,7.58,26.34,4.07,8.25,9.49,16.44,17.79,20.42,.72,.34,1.51,.66,2.28,.46,.94-.24,1.52-1.15,2.02-1.98,8.18-13.94,16.58-28.53,17.67-44.65,.39-5.73-.17-11.47-.81-17.18-.86-7.66-1.87-15.34-3.99-22.75-4.09-14.29-12.32-27.36-23.45-37.2-3.17-2.8-6.79-5.73-7.5-9.9-3.56,1-7.34-1.58-8.99-4.9s-1.7-7.17-1.77-10.87c-.22-10.73-1.02-21.83-6.02-31.33-5-9.5-15.24-17.01-25.89-15.67-2.69-1.16-5.56-1.87-8.48-2.13-15.44-1.37-29.24,9.63-39.02,21.66-4.03,4.95-7.7,10.18-10.99,15.65-5.32,8.85-9.68,19.79-5.6,29.28,2.56,5.94,7.95,10.09,13.13,13.97m81.18,78.31c-1.91-9.88-1.95-21.26,4.9-28.62-4.71,1.96-9.58,3.86-14.68,3.94-5.1,.08-10.53-2.01-13.1-6.42-1.86-3.19-1.98-7.15-1.19-10.76,1.04-4.77,3.59-9.2,7.2-12.49-3.99-2.69-7.35-6.31-9.73-10.5,.08,1.09-1.69,1.32-2.47,.56s-1.02-1.94-1.71-2.78c-1.39-1.7-3.99-1.51-6.16-1.22-14.8,1.97-30.72,1.2-43.39-6.7-1.46-.91-3.45-.49-4.83,.55s-2.28,2.57-3.14,4.06c-1.11,1.92-2.22,3.84-3.33,5.76-1.6,2.77-3.26,5.88-2.54,9,3.54,15.27,7.09,30.55,10.63,45.82,.6,2.57-2.65,4.52-5.28,4.23-2.63-.29-4.98-1.83-7.6-2.18-2.62-.35-5.92,1.44-5.47,4.05,5.36,31.21,28.03,58.86,57.58,70.24-8.53-8.95-13.82-20.43-18.7-31.79-6.63-15.43-12.88-31.42-13.78-48.2-.08-1.48-.1-3.04,.56-4.36,.66-1.33,2.23-2.32,3.64-1.85,4.03,1.37,8.48,1.85,12.52,.52,4.04-1.33,7.55-4.69,8.28-8.88,.81-4.67-1.92-9.39-5.7-12.25-3.78-2.86-8.46-4.21-13.05-5.41-1.43-.38-1.35-2.43-.94-3.85,1.52-5.28,3.04-10.56,4.56-15.84,.38-1.32,1.71-2.97,2.74-2.06,.57,.51,.41,1.43,.19,2.16-1.46,4.92-3.28,9.74-5.45,14.4-.83,1.78,1.39,3.4,3.21,4.13,3.33,1.34,6.66,2.68,9.99,4.01-2.37-4.73-.64-11.12,3.81-14,1.85-1.2,4.01-1.81,5.93-2.89,1.92-1.08,3.7-2.86,3.79-5.06,.55-.62,1.65,.05,1.8,.87,.16,.82-.2,1.64-.24,2.47-.09,1.8,1.31,3.36,2.87,4.24,1.57,.88,3.36,1.29,4.97,2.1,5.28,2.66,7.55,9.07,7.88,14.97,.57,10.4-3.51,20.79-10.27,28.71-6.76,7.92-16.03,13.48-25.94,16.7,3.83-7.96,6.54-16.46,8.05-25.16-5.71,2.7-12.36,5.43-18.11,2.81-1.03-.47-2.3,.26-2.81,1.28-.51,1.02-.45,2.21-.36,3.35,1.19,15.03,6.79,29.31,12.45,43.29,3.78,9.34,7.67,18.75,13.49,26.97,3.93,5.56,9.34,10.84,16.13,11.45,2.68,.24,5.36-.28,8-.82,19.52-4,40.2-10.12,52.47-25.82-.66,4.01-4.23,6.79-7.54,9.16-3.98,2.84-7.96,5.69-11.95,8.52,9.36-3.45,17.49-10.11,22.72-18.6-1.98,1.29-4.6,.19-6.59-1.08-13.69-8.76-21.24-24.75-24.32-40.71m19.5-97.93c-1.36,.96-2.88,1.81-3.82,3.19-.94,1.38-1.06,3.52,.27,4.53,21.22,16.19,33.76,43.14,32.47,69.8,1.58-.76,1.57-2.97,1.43-4.71-1.22-14.65,4.6-29.15,12.99-41.22,8.4-12.06,19.29-22.13,29.71-32.49,8.28-8.24,16.31-16.72,24.08-25.45,5.7-6.4,11.36-13.1,14.39-21.11,3.03-8.01,3-17.69-2.17-24.52-2.47-3.26-5.91-5.67-9.53-7.57-10.63-5.6-23.07-7.27-35.02-5.96-11.94,1.31-23.44,5.47-34.14,10.94-6.96,3.56-13.8,7.82-18.58,14.01-2.01,2.59-3.65,5.59-4,8.85-.35,3.26,.81,6.81,3.47,8.72,.62,7.76,1.24,15.63-.15,23.29-1.39,7.66-5.04,15.23-11.41,19.71M54.7,119.76c1.03,1.9-.59,4.28-2.57,5.14-1.98,.86-4.23,.79-6.31,1.35,1.23,15.05,3.92,29.97,8.02,44.5,.18,.63,.37,1.27,.79,1.76,.61,.7,1.57,.96,2.47,1.17,9.49,2.26,19.19,3.69,28.93,4.28-7.34-31.55-14.68-63.09-22.02-94.64-.46-1.97-.88-4.18,.18-5.89,.62-1,.08-2.39-.86-3.09-.94-.7-2.16-.9-3.32-1.07-7.71-1.15-15.42-2.31-23.13-3.46-.6-.09-1.29-.16-1.75,.25-.53,.47-.46,1.3-.34,2,2.17,12.98,4.35,25.97,6.52,38.95,.44,2.63,1.18,5.67,3.62,6.75,3.19,1.41,8.12-1.07,9.78,1.99m-28.99,4.63c-1.23-2.35,1.48-4.97,4.08-5.5,2.6-.53,5.49-.1,7.75-1.49-2.44-15.04-5.17-30.03-8.17-44.96-.18-.9-.4-1.87-1.11-2.46-.51-.43-1.2-.58-1.86-.72-7.28-1.52-14.6-2.81-21.96-3.86-.7-.1-1.5-.17-2.02,.31-.56,.52-.49,1.41-.37,2.16,1.5,9.47,4.41,18.65,6.43,28.02,4.85,22.46,4.65,46.12,12.81,67.61,.22,.58,.46,1.18,.91,1.6,.54,.5,1.3,.67,2.02,.83,7.79,1.65,15.59,3.31,23.38,4.96-2.21-14.96-5.15-29.82-8.8-44.5-2.65-.01-5.3-.03-7.95-.04-1.94,0-4.27-.24-5.17-1.96m92.92,17.94c-.61,.88-1.23,1.76-1.84,2.64,3.42,3.27,4.8,8.23,4.72,12.96-.08,4.73-1.45,9.33-2.8,13.86-1.67,5.58-3.34,11.17-5.02,16.75,8.49-3.8,16.39-9.22,22.1-16.56,5.71-7.34,9.07-16.71,8.21-25.97-.5-5.34-2.88-11.08-7.82-13.15-3.07-1.29-6.22-2.6-9.54-2.83-3.33-.23-6.93,.8-8.96,3.45-2.03,2.64-1.82,7.02,.96,8.86m-80.69,121.24c5.93,2.53,11.86,5.06,17.79,7.6,1.01,.43,2.22,.85,3.16,.28-.57-14.06-1.14-28.11-1.71-42.17-.06-1.46-1.2-2.69-2.53-3.29-1.33-.6-2.82-.69-4.27-.77-.18-.01-.36-.02-.53,.05-.31,.12-.47,.46-.59,.76-4.58,11.07-9.17,22.13-13.75,33.2-.21,.51-.42,1.03-.4,1.58,.07,1.4,1.55,2.22,2.84,2.77m45.88-15.2c.39-.34,.15-.98-.12-1.42-4.52-7.43-10.52-14.01-13.93-22.01-.97-2.26-4.65-1.85-6.05,.17-1.4,2.02-1.22,4.7-1.01,7.15,1.05,12.12,1.35,24.3,1.66,36.47,5.8-7.4,12.32-14.23,19.45-20.36m85.63-124.32c-3.37-1.63-6.66-3.44-9.85-5.4-2.03-1.25-4.06-2.61-5.49-4.51-.18-.25-.54-.26-.85-.24-1.62,.13-3.22,.8-4.31,2.01-1.08,1.21-1.57,2.98-1.06,4.52,.34,1.04,1.09,1.89,1.81,2.72,1.97,2.23,3.94,4.46,5.91,6.69,.36,.41,.96,.85,1.39,.51,3.68-2.89,7.94-5.04,12.44-6.3m29.37-70.36c.63-.55,.11-1.81,.8-2.3,.93-.66,.29-2.27-.77-2.69-1.06-.42-2.26-.13-3.4-.11-.62,.01-1.43-.24-1.44-.86,0-.73,1.02-.89,1.75-.8,1.2,.15,2.4,.3,3.6,.44,.49,.06,.57-.68,.45-1.15-.63-2.45-1.68-5.32-4.15-5.86-1.43,4.84-3.29,9.55-5.56,14.06-1.37,2.73-2.9,5.4-4.87,7.73,2.36,.57,4.72,1.14,7.08,1.72,.37,.09,.75,.18,1.13,.11,.82-.15,1.3-.99,1.67-1.74,.81-1.64,1.63-3.28,2.44-4.92,.25-.5,.49-1.11,.18-1.57-.24-.36-.71-.45-1.13-.52l-5.55-.9c.7-.99,2.1-1.21,3.3-1.04,1.2,.17,2.37,.63,3.58,.64,.32,0,.66-.03,.9-.24m-7.98,27.4c-1.09-.92-2.2-1.85-3.53-2.36-1.33-.51-2.94-.52-4.07,.34-1.91,1.44-3.83,2.88-5.74,4.32-.5-.35-.54-1.12-.25-1.66,.29-.54,.83-.9,1.34-1.23,1.37-.9,2.75-1.8,4.12-2.7-2-.97-4.19-1.56-6.41-1.71-.23-.02-.47-.02-.66,.1-.29,.19-.31,.59-.32,.94,0,4.16,.1,8.68,2.68,11.94,4.83-1.58,9.27-4.35,12.83-7.98m7.92-13.02c-1.05-.46-2.1-.92-3.16-1.38-.37-.16-.8-.32-1.16-.16-.21,.1-.36,.29-.51,.48l-3.74,4.91c1.39,.35,2.77,.7,4.16,1.04,.47,.12,.97,.23,1.42,.04,.62-.27,.86-1,1.14-1.62s.89-1.26,1.54-1.03c.19,.57,0,1.18-.2,1.74-2.9,7.86-9.3,14.36-17.12,17.37-.57,.22-1.23,.51-1.35,1.11,4.99,.27,9.81-2.33,13.18-6.02,3.37-3.68,5.46-8.35,7.1-13.07,.28-.81,.53-1.75,.07-2.47-.3-.47-.85-.72-1.37-.95M157.57,10.79c-.28,.55-.96,.86-1.55,.7,.2-.77,.41-1.54,.61-2.31-2.74,.48-5.44,1.18-8.06,2.11-.38,.13-.36,.67-.26,1.05,.67,2.83,1.35,5.65,2.02,8.48,2.53-1.06,5.06-2.13,7.59-3.19,.4-.17,.82-.36,1.03-.74,.17-.32,.16-.7,.12-1.06-.18-1.76-.69-3.48-1.49-5.05M53.93,198.05c-1.18,1.85-2.36,3.69-3.53,5.54-.55,.87,.4,1.95,1.35,2.33,.96,.38,2.12,.59,2.62,1.49,.65,1.17,2.3,1.44,3.54,.97,1.25-.47,2.19-1.5,3.09-2.49,1.02-1.13,2.04-2.26,3.06-3.39-3.38-1.48-6.75-2.96-10.13-4.45M127.42,8.85c-1.37-1.53-2.98-3.17-5.03-3.19-2.58-.03-4.38,2.47-5.7,4.69-.25,.42-.51,.87-.47,1.36,.05,.68,.65,1.18,1.21,1.58,1.06,.78,2.11,1.55,3.17,2.33,.48,.35,1.13-.02,1.6-.38,1.76-1.36,3.52-2.71,5.27-4.07,.23-.18,.48-.37,.59-.65,.24-.58-.21-1.2-.63-1.67m3.84,11.58c.48-.31,1.02-.66,1.15-1.22,.09-.41-.06-.82-.21-1.21l-1.7-4.35c-.26-.66-.65-1.43-1.36-1.49-.49-.04-.92,.28-1.3,.59-1.25,1.01-2.5,2.02-3.74,3.03-.55,.44-1.15,1.08-.92,1.74,.97,2.8,1.94,5.61,2.91,8.41,1.25-2.21,3.04-4.12,5.17-5.5m17.41,7.08c-1.34-.42,.19-2.83-.81-3.81-1.45,.97-2.91,1.95-4.36,2.92,2.48,1.75,5.88,2.12,8.67,.93,2.15-.91,4.29-1.83,6.44-2.74,.38-.16,.8-.35,1-.72,.18-.31,.16-.7,.14-1.06-.06-.99-.11-1.97-.17-2.96-.02-.33-.06-.71-.33-.9-.3-.22-.72-.09-1.07,.05-2.06,.82-4.13,1.65-6.19,2.47-.93,.37-1.97,.86-2.24,1.83-.22,.78,.17,1.59,.23,2.4s-.54,1.83-1.32,1.59m32.22,6.35c-.03,.19-.06,.39-.09,.58-.27,1.87-.55,3.73-.82,5.6,1.45-.09,2.92-.26,4.22-.92,1.29-.66,2.38-1.88,2.5-3.33,.09-1.01-.82-2.27-1.72-1.79-.95,.51-2.11,.6-3.13,.26,.14-1.25,1.96-1.13,3.19-1.38,1.7-.34,2.89-2.23,2.54-3.93-.35-1.7-2.1-2.96-3.83-2.82-.71,.06-1.46,.37-1.78,1.01-.14,.28-.19,.6-.24,.92-.28,1.93-.56,3.87-.85,5.8m-.52-5.95c.06-.4,.09-.88-.23-1.12-.25-.19-.61-.14-.93-.07-2.27,.47-4.54,.94-6.8,1.41-.58,.12-1.2,.26-1.65,.65-.65,.56-.8,1.48-.91,2.33-.17,1.25-.34,2.5-.5,3.76-.06,.46,.19,1.15,.59,.93,2.67-1.51,5.75-2.29,8.82-2.24,.58,0,.84-.72,.93-1.3,.23-1.44,.45-2.89,.68-4.33M57.34,213.46c-.04-.35-.1-.71-.33-.98-.22-.25-.55-.36-.87-.46-1.32-.41-2.64-.82-3.95-1.23-.35-.11-.72-.22-1.09-.2-1.28,.09-1.89,1.66-1.83,2.94,.05,1.28,.45,2.63-.06,3.8-.24,.55,.42,1.05,.97,1.3,2.77,1.26,5.53,2.51,8.3,3.77-.38-2.98-.76-5.97-1.14-8.95M176.24,58.24c-.84,1.18-1.68,2.35-2.53,3.53,2.67,0,5.35-.01,8.02-.02,.92,0,1.99-.08,2.52-.82,1.33-1.86,2.62-3.76,3.86-5.69-2.53-.13-5.08,0-7.59,.38-.96,.15-1.95,.35-2.75,.91-.63,.44-1.09,1.08-1.54,1.71m6.62,6.61c-1.04,1.36-2.07,2.71-3.11,4.07,2.37,.77,4.79,1.37,7.24,1.82,.62,.11,1.29,.21,1.87-.03,.49-.2,.85-.62,1.19-1.03,1.03-1.24,2-2.54,2.91-3.87-2.1-.66-4.2-1.32-6.31-1.99-.82-.26-1.73-.51-2.51-.16-.54,.24-.92,.73-1.28,1.2M147.04,13.59c-.13-.53-.38-1.16-.92-1.21-.28-.03-.55,.13-.79,.27-.92,.56-1.84,1.11-2.76,1.67-.33,.2-.69,.43-.84,.79-.13,.31-.08,.66-.03,.98,.45,3,.9,6,1.36,8.99,1.5-1.06,3.01-2.11,4.51-3.17,.29-.2,.59-.42,.72-.75,.11-.29,.07-.61,.03-.92-.32-2.24-.75-4.46-1.28-6.66m22.01,28.99c2.6-.72,5.2-1.44,7.8-2.16,1.28-.35,1.78-1.88,2.08-3.17,.12-.54,.24-1.1,.09-1.63s-.71-.98-1.23-.83c-2.12,.6-4.24,1.2-6.36,1.79-.98,.28-2.01,.58-2.69,1.34-.91,1.02-.92,2.53-.88,3.89,0,.24,.02,.5,.19,.68,.24,.25,.66,.18,1,.09m-35.23-19.81c-.08,.84,.04,1.78,.66,2.35,.57,.53,1.42,.61,2.2,.66,1.44,.1,2.87,.19,4.31,.29,.24-2.93-.02-5.91-.74-8.76-.07-.29-.19-.63-.47-.74-.18-.08-.39-.04-.58,0-2.85,.67-5.12,3.29-5.38,6.2m57.4,25.47c-1.94-.12-3.88-.24-5.82-.36-.43-.03-.88-.05-1.25,.15-.31,.17-.53,.47-.74,.75-1.28,1.78-2.57,3.56-3.85,5.34,.04,.54,.85,.46,1.35,.25,1.7-.71,3.6-.95,5.43-.68,1.33,.2,2.65-.63,3.43-1.73,.78-1.1,1.13-2.44,1.46-3.74M121.2,18.74c-.59-.1-1.12,.34-1.56,.75-1.61,1.5-3.36,3.65-2.42,5.64,.25,.53-.68,.86-.82,1.43-.17,.71,.9,.99,1.63,.92,2.18-.22,4.35-.44,6.53-.66l-2.08-6.48c-.22-.68-.56-1.48-1.27-1.6m12.67-1.37c.1,.23,.26,.51,.51,.5,.13,0,.24-.09,.35-.17,1.27-.98,2.54-1.95,3.8-2.93,.29-.22,.59-.47,.68-.82,.07-.28-.01-.56-.1-.84-.38-1.22-.82-2.43-1.32-3.61-.21-.5-.61-1.09-1.14-.97-1.64,.38-3.23,.98-4.72,1.77-.25,.13-.52,.3-.61,.57-.1,.28,.02,.59,.14,.86,.8,1.88,1.6,3.75,2.4,5.63m52.77,24.12c-1.01,1.78-1.7,3.74-2.03,5.75,1.3-.74,2.89-.95,4.33-.58,1.5,.39,3.08-.64,3.84-1.99s.89-2.95,1.01-4.5c-1.63,.02-3.26,.03-4.88,.05-.49,0-1.01,.02-1.43,.27-.37,.23-.61,.61-.82,.99m4.09-26.84c0-.17-.05-.35-.14-.5-.17-.27-.48-.39-.78-.51-.85-.33-1.71-.65-2.56-.98-1.09-.42-2.25-.84-3.4-.66-1.26,.2-2.34,1.17-2.74,2.39s-.09,2.61,.72,3.59c.19,.23,.42,.44,.7,.53,.67,.2,1.31-.36,1.92-.7,1.12-.61,2.47-.52,3.73-.76,1.25-.24,2.61-1.13,2.55-2.4m10.32,36.99c-.92,3.01-1.85,6.04-3.32,8.82-.9,1.69-2.02,3.35-2.22,5.26,1.03-1.02,2.59,1.22,3.99,.85,.75-.2,1.09-1.06,1.29-1.81,1.1-4.28,1.2-8.81,.27-13.12m-13.67,21.14c.08-.38-.41-.61-.79-.69-2.34-.46-4.68-.93-7.02-1.39-2.11-.42-4.32,1.57-4.15,3.7,2.59-.09,5.21,.49,7.52,1.67,.69,.35,1.46-.24,2.01-.78,.73-.72,1.46-1.45,2.19-2.17,.1-.1,.21-.21,.24-.35m-12.54-50.9c-1.32,.34-2.7,.73-3.66,1.69-.96,.96-1.28,2.71-.3,3.65,1.9-.83,3.99-1.1,6.03-1.46,1.27-.22,2.62-.53,3.48-1.48s.85-2.76-.32-3.29c-.64-.29-1.38-.12-2.06,.06-1.06,.28-2.11,.55-3.17,.83M62.03,218.51c.2,.7,.47,1.37,.79,2.03,.64-2.09,3.13-3.16,3.82-5.23,.81-2.45-1.24-5.28-.13-7.61-.03-.3-.49-.22-.73-.05-3.3,2.4-4.87,6.94-3.75,10.87M166.69,17.42c-1.31-.85-3.04-.28-4.49,.3-.47,.19-.99,.42-1.21,.88-.19,.39-.12,.84-.05,1.26,.24,1.44,.48,2.88,.71,4.33,1.86-.6,3.71-1.19,5.57-1.79,.48-.16,1.02-.36,1.23-.82,.17-.39,.05-.83-.07-1.24-.33-1.11-.72-2.3-1.68-2.93m-37.22-8.92c.22,.21,.46,.43,.76,.47,.25,.04,.5-.05,.73-.14l4.23-1.62c.51-.2,1.01-1,.47-1.11-1.12-.22-1.88-1.54-1.51-2.62-2.69-.72-5.62-.51-8.17,.6-.17,.08-.37,.18-.42,.36-.06,.22,.12,.43,.29,.59,1.21,1.16,2.41,2.31,3.62,3.47m30.4,24.64c.06,.19,.22,.32,.37,.44,1.03,.82,2.06,1.64,3.09,2.46,.54,.43,1.12,.88,1.81,.92,1.58,.1,2.42-1.82,2.71-3.37,.27-1.41,.47-2.82,.61-4.24-2.56,.93-5.13,1.85-7.69,2.78-.47,.17-1.05,.53-.9,1.01m24.64,7.51c-1.42,.18-2.85,.37-4.27,.55-.4,.05-.83,.11-1.14,.38-.23,.19-.36,.47-.49,.74-.69,1.44-1.38,2.87-2.07,4.31-.11,.23-.23,.5-.14,.74,.18,.47,.89,.37,1.31,.09s.89-.68,1.36-.51c1.44,.5,3.08-.25,4.06-1.42s1.45-2.67,1.89-4.13c.07-.24,.12-.55-.08-.7-.12-.08-.28-.07-.42-.05m-23.42-14.49c-1.13,1.17-.4,3.17-1.03,4.67,2.13-.83,4.27-1.66,6.4-2.5,.88-.34,1.81-.72,2.4-1.46,.59-.74,.7-1.96-.04-2.56-.69-.56-1.69-.33-2.54-.07-1.16,.35-2.32,.7-3.48,1.06-.62,.19-1.26,.39-1.71,.86m28.52,7.2c-.32,.04-.66,.1-.91,.3-.36,.28-.49,.75-.59,1.2-.35,1.5-.7,2.99-1.06,4.49,2.01-.26,4.02-.51,6.02-.77,1.63-.21,2.14-2.63,1.08-3.9-1.05-1.26-2.91-1.51-4.55-1.31m5.41,41.81c-.12-.18-.34-.27-.55-.35-1.39-.52-2.78-1.04-4.17-1.56-.48-.18-1.02-.36-1.48-.13-.27,.13-.46,.37-.64,.61-.78,1.02-1.56,2.05-2.33,3.07,1.59,.67,3.17,1.35,4.76,2.02,.58,.25,1.27,.49,1.82,.17,.72-.42,.69-1.5,1.27-2.09,.57-.58,1.78-1.07,1.33-1.74m-18.83-20.27c2.21-1.65,4.03-3.81,5.27-6.27-1.88-.31-3.84-.13-5.63,.52-.54,.19-1.16,.58-1.09,1.15,.15,1.32-.55,2.69-1.71,3.34-.82,.46-.33,1.88,.58,2.12,.91,.24,1.83-.29,2.58-.85m-7.13-9.55c.3,1.34,.8,2.9,2.12,3.3,1.36,.41,2.71-.73,3.42-1.96,.71-1.23,1.14-2.68,2.22-3.61,.29-.25,.08-.78-.28-.92-.36-.14-.76-.02-1.13,.09-1.91,.61-3.82,1.22-5.73,1.84-.21,.07-.43,.14-.56,.31-.2,.26-.14,.63-.07,.94M118.34,15.9c-.69-.47-1.4-.92-2.12-1.35-.28-.17-.6-.34-.93-.27-.43,.08-.68,.54-.84,.95-1.09,2.76-1.05,5.94,.09,8.68,.98-2.33,2.56-4.4,4.55-5.96,.67-.53-.05-1.56-.75-2.05m56.48,51.41c.04,.44,.1,.91,.38,1.24,.79,.94,2.28,.06,3.14-.81,1.29-1.32,2.58-2.63,3.88-3.95-2.54-.61-5.2-.75-7.8-.41,.13,1.31,.26,2.62,.4,3.92m13.46-47.24c.05-.21,.1-.44,.02-.64-.19-.48-.87-.42-1.37-.28-1.56,.44-3.12,.89-4.68,1.33-.24,1.52-.13,3.09,.32,4.56l3.59-.36c.3-.03,.61-.07,.84-.26,.24-.2,.32-.52,.4-.82,.29-1.18,.58-2.36,.87-3.54m-26.46-3.77c1.7-.55,3.4-1.1,5.1-1.65-1.92-2-4.14-3.72-6.55-5.08-.35-.2-.89-.33-1.07,.03l1.41,6.05c.06,.27,.15,.58,.4,.7,.22,.11,.48,.04,.72-.04m-22.06-8.38c-.2,.08-.42,.16-.55,.34-.24,.32-.08,.78,.1,1.14,.63,1.34,1.25,2.68,1.88,4.02,1.13-.75,2.25-1.5,3.38-2.25,1.19-.79,.65-2.86-.64-3.49s-2.82-.26-4.17,.24m14.14,.09c.43-.12,.95-.38,.89-.82-2.86-1.18-6.23-2.33-8.92-.79,.09,.77,.2,1.58,.61,2.24,.41,.66,1.22,1.15,1.97,.94,1.82-.52,3.63-1.04,5.45-1.56m4.07,23.57c.14-.14,.19-.34,.24-.54,.33-1.49,.59-3,.77-4.52-2.4,.7-4.7,1.74-6.8,3.1,1.55,.65,3.11,1.3,4.66,1.94,.37,.15,.84,.29,1.13,.01m35.89-20.93c.39-.67-.65-1.25-1.42-1.29-2.14-.11-4.3,.29-6.26,1.14l4.23,1.83c.32,.14,.64,.27,.98,.3,1.11,.07,1.9-1.02,2.46-1.97m-54.47-4.31c.51,.07,1.08,.05,1.48-.29,.39-.33,.44-1.08-.02-1.31-1.85-.92-3.9-1.42-5.97-1.45,.92,1.64,2.65,2.81,4.52,3.04m-7.04,15.12l-4.1,3.92c-.17,.16-.35,.34-.39,.57-.05,.26,.11,.54,.35,.63,1.21-.52,2.51-.85,3.82-.97,.25-1.37,.36-2.76,.32-4.16m40.65-.67c-.72-1.34-1.67-2.56-2.81-3.57-.35-.31-.86-.6-1.23-.33,.3,1.13,.6,2.25,.91,3.38,.35,1.29,2.4,1.63,3.14,.52m6.98-4.98c-1.51,.54-2.82,1.64-3.63,3.03-.26,.45-.47,.99-.32,1.49,2.16-.31,3.93-2.34,3.95-4.52m8.78,15.22c-.16,.4-.18,.86-.05,1.28,1.04-.16,2.09-.32,3.13-.48-.51-1.43-1.34-2.74-2.42-3.81-.39,.95-.61,1.97-.66,3m-23.76,221.18c-2.43,.29-4.81,1.06-6.95,2.24,2.48,.01,4.95-.78,6.95-2.24m7.61-200.48c.04-.46,.29-.89,.65-1.17-.42-.68-1.56-.65-2.02,0-.46,.65-.19,1.65,.48,2.08,.28-.3,.56-.59,.84-.89m2.81,5.86c-.58-.73-1.96-.47-2.24,.41,.24,.33,.48,.67,.72,1,.56-.36,1.06-.83,1.46-1.37m-33.77,56.42c.27-.25-.29-.63-.6-.43-.14,.39-.17,.83-.07,1.23,.35,.25,.68-.35,.69-.78m24.87-75.42c-.09-.37-.76-.33-.8,.05-.11,.48,.93,.42,.76-.05h.03Z"/>
    </g>
  </g>
</svg>