<?xml version="1.0" encoding="UTF-8"?>
<svg id="Layer_2" data-name="Layer 2" xmlns="http://www.w3.org/2000/svg" viewBox="0 0 623.81 248.48">
  <defs>
    <style>
      .cls-1 {
        fill: none;
      }

      .cls-2, .cls-3 {
        font-family: Heebo-Regular, Heebo;
        font-size: 31px;
      }

      .cls-2, .cls-4 {
        fill: #fee9d9;
      }

      .cls-3, .cls-5 {
        fill: #252933;
      }
    </style>
  </defs>
  <g id="illustrations">
    <g>
      <g>
        <g id="next_button_1" data-name="next button 1">
          <path class="cls-5" d="M9.21,110.62c3.51-19.18,8.61-33.31,12.91-49.96,2.89-11.2,5.65-23.71,.07-33.84-2.49-4.53,2.47-10.11,7.6-10.67,5.13-.57,10.05,1.88,15.01,3.33,15.45,4.51,31.82-.67,47.69-3.32,15.88-2.65,34.76-1.57,44.46,11.27,41.34,54.78,102.27,94.45,169.1,110.11,38.35,8.98,79.54,10.05,116.34-3.96,3.27-1.25,6.97,1.61,7.84,5s-.26,6.95-1.58,10.2c-16.93,41.61-62.48,63.82-106.05,74.75-56.82,14.25-116.82,15.66-174.24,4.1-15.39-3.1-30.68-7.15-44.99-13.63-14.83-6.72-28.37-15.94-41.72-25.26-23.2-16.19-47.98-35.81-52.21-63.78M145.83,55.67c-3.97-4.62-11.31,.03-15.36,4.58-27.68,31.06-55.36,62.11-83.04,93.17-2.12,2.38-4.24,6.18-1.94,8.39,29.84,28.6,68.04,48.38,108.61,56.25,14.52,2.82,29.29,4.14,44.05,5.06,39.53,2.47,79.74,2.05,118.04-8.04,38.3-10.09,74.84-30.62,98.47-62.41-6.52-.33-13.02,.61-19.51,1.33-92.39,10.25-188.81-27.77-249.34-98.32m-12.45-13.19c-3.25-10.21-14.49-16.09-25.19-16.67-10.7-.58-21.13,2.96-31.41,5.99-10.28,3.03-21.21,5.59-31.61,3.04-5-1.22-8.16,5.15-9.3,10.17-3.81,16.77-7.62,33.54-11.43,50.31-3.33,14.65-6.32,31.28,2.2,43.65,4.04,5.87,13.28,9.77,17.94,4.38,18.58-21.48,37.15-42.95,55.73-64.43,10.73-12.41,21.48-24.84,33.08-36.44"/>
        </g>
        <text class="cls-3" transform="translate(115.91 143.67)"><tspan x="0" y="0">next </tspan><tspan x="0" y="37.2" xml:space="preserve">   stage</tspan></text>
        <g id="next_button_1-2" data-name="next button 1">
          <path class="cls-4" d="M8.45,107.08c3.51-19.18,8.61-33.31,12.91-49.96,2.89-11.2,5.65-23.71,.07-33.84-2.49-4.53,2.47-10.11,7.6-10.67,5.13-.57,10.05,1.88,15.01,3.33,15.45,4.51,31.82-.67,47.69-3.32,15.88-2.65,34.76-1.57,44.46,11.27,41.34,54.78,102.27,94.45,169.1,110.11,38.35,8.98,79.54,10.05,116.34-3.96,3.27-1.25,6.97,1.61,7.84,5s-.26,6.95-1.58,10.2c-16.93,41.61-62.48,63.82-106.05,74.75-56.82,14.25-116.82,15.66-174.24,4.1-15.39-3.1-30.68-7.15-44.99-13.63-14.83-6.72-28.37-15.94-41.72-25.26-23.2-16.19-47.98-35.81-52.21-63.78M145.06,52.14c-3.97-4.62-11.31,.03-15.36,4.58-27.68,31.06-55.36,62.11-83.04,93.17-2.12,2.38-4.24,6.18-1.94,8.39,29.84,28.6,68.04,48.38,108.61,56.25,14.52,2.82,29.29,4.14,44.05,5.06,39.53,2.47,79.74,2.05,118.04-8.04,38.3-10.09,74.84-30.62,98.47-62.41-6.52-.33-13.02,.61-19.51,1.33-92.39,10.25-188.81-27.77-249.34-98.32m-12.45-13.19c-3.25-10.21-14.49-16.09-25.19-16.67-10.7-.58-21.13,2.96-31.41,5.99-10.28,3.03-21.21,5.59-31.61,3.04-5-1.22-8.16,5.15-9.3,10.17-3.81,16.77-7.62,33.54-11.43,50.31-3.33,14.65-6.32,31.28,2.2,43.65,4.04,5.87,13.28,9.77,17.94,4.38,18.58-21.48,37.15-42.95,55.73-64.43,10.73-12.41,21.48-24.84,33.08-36.44"/>
        </g>
        <text class="cls-2" transform="translate(114.91 141.67)"><tspan x="0" y="0">next </tspan><tspan x="0" y="37.2" xml:space="preserve">   stage</tspan></text>
        <g id="arrow_forward" data-name="arrow forward">
          <path class="cls-5" d="M609.75,140.2c-12.65,9.89-25.29,19.78-37.94,29.66-1.13-5.95-.69-12.19,1.27-17.92,.63-1.84,1.39-3.94,.43-5.63-1.05-1.84-3.53-2.14-5.65-2.23-15.42-.66-31.03-1.3-46.12,1.97-1.38,.3-2.88,.62-4.16,.01-1.88-.89-2.38-3.39-2.05-5.44,.81-5.09,5.13-9.07,9.93-10.94,4.81-1.87,10.08-2.02,15.24-2.14,10.4-.25,20.81-.49,31.21-.74,4.49-.11,5.95-5.99,6.26-10.47,.3-4.48,2.37-10.35,6.83-9.82,2.17,.26,3.77,2.09,5.15,3.8,6.15,7.61,12.29,15.23,18.44,22.84,1.68,2.08,3.26,5.41,1.15,7.05Z"/>
        </g>
        <g id="arrow_forward-2" data-name="arrow forward">
          <path class="cls-4" d="M609.19,137.57c-12.65,9.89-25.29,19.78-37.94,29.66-1.13-5.95-.69-12.19,1.27-17.92,.63-1.84,1.39-3.94,.43-5.63-1.05-1.84-3.53-2.14-5.65-2.23-15.42-.66-31.03-1.3-46.12,1.97-1.38,.3-2.88,.62-4.16,.01-1.88-.89-2.38-3.39-2.05-5.44,.81-5.09,5.13-9.07,9.93-10.94,4.81-1.87,10.08-2.02,15.24-2.14,10.4-.25,20.81-.49,31.21-.74,4.49-.11,5.95-5.99,6.26-10.47,.3-4.48,2.37-10.35,6.83-9.82,2.17,.26,3.77,2.09,5.15,3.8,6.15,7.61,12.29,15.23,18.44,22.84,1.68,2.08,3.26,5.41,1.15,7.05Z"/>
        </g>
      </g>
      <rect class="cls-1" width="623.81" height="248.48"/>
    </g>
  </g>
</svg>