<?xml version="1.0" encoding="utf-8"?>
<!-- Generator: Adobe Illustrator 27.0.0, SVG Export Plug-In . SVG Version: 6.00 Build 0)  -->
<svg version="1.1" id="Layer_2_00000058580009562993931660000003070710855782096812_"
	 xmlns="http://www.w3.org/2000/svg" xmlns:xlink="http://www.w3.org/1999/xlink" x="0px" y="0px" viewBox="0 0 623.8 248.5"
	 style="enable-background:new 0 0 623.8 248.5;" xml:space="preserve">
<style type="text/css">
	.st0{fill:#252933;}
	.st1{enable-background:new    ;}
	.st2{fill:#FEE9D9;}
	.st3{fill:none;}
</style>
<g id="illustrations">
	<g>
		<g>
			<g id="next_button_1">
				<path class="st0" d="M9.2,110.6c3.5-19.2,8.6-33.3,12.9-50c2.9-11.2,5.6-23.7,0.1-33.8c-2.5-4.5,2.5-10.1,7.6-10.7
					c5.1-0.6,10.1,1.9,15,3.3c15.5,4.5,31.8-0.7,47.7-3.3c15.9-2.6,34.8-1.6,44.5,11.3c41.3,54.8,102.3,94.4,169.1,110.1
					c38.4,9,79.5,10.1,116.3-4c3.3-1.2,7,1.6,7.8,5s-0.3,6.9-1.6,10.2c-16.9,41.6-62.5,63.8-106.1,74.8
					c-56.8,14.2-116.8,15.7-174.2,4.1c-15.4-3.1-30.7-7.1-45-13.6c-14.8-6.7-28.4-15.9-41.7-25.3c-23.2-16.2-48-35.8-52.2-63.8
					 M145.8,55.7c-4-4.6-11.3,0-15.4,4.6c-27.7,31.1-55.4,62.1-83,93.2c-2.1,2.4-4.2,6.2-1.9,8.4c29.8,28.6,68,48.4,108.6,56.2
					c14.5,2.8,29.3,4.1,44.1,5.1c39.5,2.5,79.7,2.1,118-8s74.8-30.6,98.5-62.4c-6.5-0.3-13,0.6-19.5,1.3
					C302.8,164.2,206.3,126.2,145.8,55.7 M133.4,42.5c-3.2-10.2-14.5-16.1-25.2-16.7s-21.1,3-31.4,6s-21.2,5.6-31.6,3
					c-5-1.2-8.2,5.2-9.3,10.2C32,61.8,28.2,78.6,24.4,95.3c-3.3,14.7-6.3,31.3,2.2,43.7c4,5.9,13.3,9.8,17.9,4.4
					c18.6-21.5,37.2-42.9,55.7-64.4C111,66.5,121.8,54.1,133.4,42.5"/>
			</g>
			<g class="st1">
				<path class="st0" d="M120.9,143.7H118v-16.4h2.7l0.2,3.5V143.7z M119,134.8c0-1.5,0.3-2.8,0.9-4c0.6-1.2,1.3-2.1,2.3-2.8
					c1-0.7,2.2-1,3.5-1c1.1,0,2,0.2,2.8,0.6c0.8,0.4,1.4,1,1.8,1.9c0.4,0.9,0.6,2,0.6,3.5v10.7h-2.8v-10.8c0-0.9-0.1-1.5-0.4-2.1
					c-0.2-0.5-0.6-0.9-1.1-1.1s-1.1-0.4-1.8-0.4c-0.7,0-1.3,0.1-1.9,0.4c-0.6,0.3-1.1,0.7-1.5,1.2c-0.4,0.5-0.7,1.1-1,1.8
					c-0.2,0.7-0.3,1.4-0.3,2.1L119,134.8z"/>
				<path class="st0" d="M142,144c-1.5,0-2.8-0.3-4-1c-1.1-0.7-2-1.6-2.6-2.8c-0.6-1.2-0.9-2.6-0.9-4.1v-0.7c0-1.8,0.3-3.3,1-4.5
					c0.7-1.3,1.6-2.2,2.7-2.9c1.1-0.7,2.3-1,3.5-1c1.6,0,2.9,0.4,3.9,1.1c1,0.7,1.7,1.7,2.2,2.9c0.5,1.2,0.7,2.6,0.7,4.1v1.3h-12.2
					V134h9.4v-0.2c0-0.7-0.2-1.4-0.4-2.1c-0.3-0.7-0.7-1.3-1.2-1.7c-0.6-0.4-1.3-0.7-2.3-0.7c-0.8,0-1.6,0.2-2.2,0.7
					c-0.7,0.5-1.2,1.2-1.5,2.1c-0.4,0.9-0.6,2-0.6,3.3v0.7c0,1,0.2,2,0.6,2.8c0.4,0.9,0.9,1.5,1.7,2c0.7,0.5,1.6,0.8,2.6,0.8
					c1,0,1.8-0.2,2.5-0.6c0.7-0.4,1.3-0.9,1.8-1.6l1.7,1.3c-0.5,0.8-1.3,1.5-2.3,2.2C144.9,143.6,143.6,144,142,144z"/>
				<path class="st0" d="M157.1,133.3l3.6-6h3.3l-5.3,8.1l5.5,8.3h-3.3l-3.8-6.2l-3.8,6.2h-3.3l5.5-8.3l-5.4-8.1h3.3L157.1,133.3z"
					/>
				<path class="st0" d="M173.9,129.4H165v-2.1h8.9V129.4z M170.8,123.3v16.3c0,0.6,0.1,1,0.3,1.3c0.2,0.3,0.4,0.5,0.7,0.6
					c0.3,0.1,0.6,0.1,0.9,0.1c0.2,0,0.5,0,0.7-0.1c0.3,0,0.4-0.1,0.6-0.1l0,2.3c-0.2,0.1-0.5,0.1-0.9,0.2c-0.4,0.1-0.8,0.1-1.3,0.1
					c-0.7,0-1.3-0.1-1.9-0.4c-0.6-0.3-1-0.7-1.4-1.4c-0.3-0.6-0.5-1.5-0.5-2.6v-16.3H170.8z"/>
			</g>
			<g class="st1">
				<path class="st0" d="M150.6,176.5c0-0.4-0.1-0.8-0.3-1.1c-0.2-0.3-0.5-0.7-1.1-1c-0.5-0.3-1.3-0.5-2.4-0.8
					c-1.2-0.3-2.3-0.6-3.1-1c-0.9-0.4-1.6-0.9-2-1.5c-0.5-0.6-0.7-1.4-0.7-2.3c0-0.9,0.2-1.7,0.7-2.4c0.5-0.7,1.2-1.3,2.1-1.7
					c0.9-0.4,2-0.7,3.2-0.7c1.3,0,2.4,0.2,3.4,0.7c0.9,0.5,1.6,1.1,2.1,1.8c0.5,0.8,0.7,1.6,0.7,2.6h-2.8c0-0.7-0.3-1.3-0.9-1.9
					c-0.6-0.6-1.4-0.9-2.5-0.9c-0.8,0-1.4,0.1-1.9,0.4c-0.5,0.2-0.8,0.5-1,0.9c-0.2,0.4-0.3,0.8-0.3,1.2c0,0.4,0.1,0.8,0.3,1.1
					c0.2,0.3,0.6,0.6,1.1,0.8c0.5,0.2,1.3,0.5,2.4,0.7c1.3,0.3,2.4,0.7,3.3,1.1c0.9,0.4,1.5,0.9,1.9,1.6s0.6,1.4,0.6,2.3
					c0,0.9-0.3,1.8-0.8,2.5c-0.5,0.7-1.3,1.3-2.2,1.7c-0.9,0.4-2.1,0.6-3.3,0.6c-1.4,0-2.7-0.3-3.7-0.8c-1-0.5-1.8-1.2-2.3-2
					c-0.5-0.8-0.8-1.7-0.8-2.6h2.8c0.1,0.8,0.3,1.4,0.7,1.8c0.4,0.4,0.9,0.8,1.5,1c0.6,0.2,1.2,0.3,1.7,0.3c0.8,0,1.4-0.1,1.9-0.3
					c0.5-0.2,0.9-0.5,1.2-0.8C150.5,177.4,150.6,177,150.6,176.5z"/>
				<path class="st0" d="M164,166.6h-8.9v-2.1h8.9V166.6z M160.9,160.5v16.3c0,0.6,0.1,1,0.3,1.3c0.2,0.3,0.4,0.5,0.7,0.6
					c0.3,0.1,0.6,0.1,0.9,0.1c0.2,0,0.5,0,0.7-0.1c0.3,0,0.4-0.1,0.6-0.1l0,2.3c-0.2,0.1-0.5,0.1-0.9,0.2c-0.4,0.1-0.8,0.1-1.3,0.1
					c-0.7,0-1.3-0.1-1.9-0.4c-0.6-0.3-1-0.7-1.4-1.4c-0.3-0.6-0.5-1.5-0.5-2.6v-16.3H160.9z"/>
				<path class="st0" d="M177.4,172.9h-2.8c-1.6,0-2.8,0.3-3.7,0.8c-0.9,0.5-1.3,1.3-1.3,2.3c0,0.8,0.3,1.5,0.8,2
					c0.5,0.5,1.3,0.8,2.3,0.8c0.9,0,1.6-0.2,2.3-0.5c0.7-0.4,1.2-0.8,1.6-1.3c0.4-0.5,0.6-1,0.6-1.5l1.2,1.3
					c-0.1,0.4-0.3,0.9-0.6,1.4c-0.3,0.5-0.7,1-1.2,1.5c-0.5,0.5-1.1,0.9-1.8,1.2c-0.7,0.3-1.5,0.5-2.4,0.5c-1.1,0-2.1-0.2-2.9-0.6
					c-0.8-0.4-1.5-1-1.9-1.7c-0.5-0.7-0.7-1.6-0.7-2.5c0-1.8,0.7-3.1,2-4c1.3-0.9,3.1-1.4,5.4-1.4h3.2L177.4,172.9z M176.9,169.6
					c0-1-0.3-1.8-0.9-2.3c-0.6-0.6-1.4-0.9-2.6-0.9c-0.7,0-1.3,0.1-1.8,0.4c-0.5,0.2-0.9,0.6-1.2,1c-0.3,0.4-0.4,0.8-0.4,1.3h-2.8
					c0-0.8,0.3-1.6,0.8-2.3c0.5-0.7,1.3-1.4,2.3-1.8c1-0.5,2.1-0.7,3.4-0.7c1.2,0,2.2,0.2,3.2,0.6c0.9,0.4,1.6,1,2.2,1.8
					c0.5,0.8,0.8,1.8,0.8,3.1v7.6c0,0.5,0,1.1,0.1,1.7c0.1,0.6,0.2,1.1,0.4,1.6v0.2h-3c-0.1-0.3-0.3-0.8-0.3-1.3
					c-0.1-0.5-0.1-1-0.1-1.5V169.6z"/>
				<path class="st0" d="M183.5,172.5c0-1.7,0.3-3.1,0.8-4.4c0.5-1.3,1.3-2.2,2.2-2.9c1-0.7,2.1-1,3.5-1c1,0,1.9,0.2,2.7,0.5
					c0.8,0.4,1.4,0.9,2,1.6c0.5,0.7,1,1.5,1.3,2.5c0.3,1,0.5,2,0.7,3.2v1.5c-0.2,1.6-0.5,3-1,4.1c-0.5,1.2-1.2,2-2.2,2.7
					c-0.9,0.6-2.1,0.9-3.5,0.9c-1.3,0-2.4-0.4-3.4-1.1c-1-0.7-1.7-1.7-2.2-3c-0.5-1.3-0.8-2.7-0.8-4.3V172.5z M197.3,164.5v16
					c0,1.4-0.3,2.7-0.9,3.7c-0.6,1-1.4,1.8-2.5,2.3c-1,0.5-2.2,0.8-3.6,0.8c-0.6,0-1.2-0.1-2-0.3c-0.8-0.2-1.5-0.5-2.2-0.9
					c-0.7-0.4-1.3-1-1.8-1.7l1.5-1.7c0.7,0.8,1.4,1.4,2.2,1.7c0.8,0.3,1.5,0.5,2.2,0.5c1.3,0,2.4-0.4,3.2-1.1
					c0.8-0.8,1.2-1.8,1.2-3.3v-12.6l0.3-3.6H197.3z M186.3,172.9c0,1.1,0.1,2.1,0.4,3c0.3,0.9,0.8,1.6,1.4,2.2
					c0.6,0.5,1.5,0.8,2.5,0.8c0.9,0,1.7-0.2,2.3-0.6c0.6-0.4,1.1-0.9,1.4-1.6c0.4-0.6,0.6-1.3,0.8-2.1v-3.7
					c-0.1-0.6-0.3-1.1-0.5-1.6c-0.2-0.5-0.5-1-0.9-1.4c-0.4-0.4-0.8-0.7-1.3-1c-0.5-0.2-1.1-0.4-1.8-0.4c-1,0-1.8,0.3-2.5,0.8
					c-0.6,0.5-1.1,1.3-1.4,2.2c-0.3,0.9-0.4,1.9-0.4,3V172.9z"/>
				<path class="st0" d="M208.3,181.2c-1.5,0-2.8-0.3-4-1c-1.1-0.7-2-1.6-2.6-2.8c-0.6-1.2-0.9-2.6-0.9-4.1v-0.7
					c0-1.8,0.3-3.3,1-4.5c0.7-1.3,1.6-2.2,2.7-2.9c1.1-0.7,2.3-1,3.5-1c1.6,0,2.9,0.4,3.9,1.1c1,0.7,1.7,1.7,2.2,2.9
					c0.5,1.2,0.7,2.6,0.7,4.1v1.3h-12.2v-2.3h9.4V171c0-0.7-0.2-1.4-0.4-2.1c-0.3-0.7-0.7-1.3-1.2-1.7c-0.6-0.4-1.3-0.7-2.3-0.7
					c-0.8,0-1.6,0.2-2.2,0.7c-0.7,0.5-1.2,1.2-1.5,2.1c-0.4,0.9-0.6,2-0.6,3.3v0.7c0,1,0.2,2,0.6,2.8c0.4,0.9,0.9,1.5,1.7,2
					s1.6,0.8,2.6,0.8c1,0,1.8-0.2,2.5-0.6c0.7-0.4,1.3-0.9,1.8-1.6l1.7,1.3c-0.5,0.8-1.3,1.5-2.3,2.2
					C211.3,180.8,210,181.2,208.3,181.2z"/>
			</g>
			<g id="next_button_1-2">
				<path class="st2" d="M8.4,107.1c3.5-19.2,8.6-33.3,12.9-50c2.9-11.2,5.6-23.7,0.1-33.8c-2.5-4.5,2.5-10.1,7.6-10.7
					c5.1-0.6,10.1,1.9,15,3.3c15.5,4.5,31.8-0.7,47.7-3.3c15.9-2.6,34.8-1.6,44.5,11.3c41.3,54.8,102.3,94.4,169.1,110.1
					c38.4,9,79.5,10.1,116.3-4c3.3-1.2,7,1.6,7.8,5s-0.3,6.9-1.6,10.2c-16.9,41.6-62.5,63.8-106,74.8
					c-56.8,14.2-116.8,15.7-174.2,4.1c-15.4-3.1-30.7-7.1-45-13.6c-14.8-6.7-28.4-15.9-41.7-25.3c-23.2-16.2-48-35.8-52.2-63.8
					 M145.1,52.1c-4-4.6-11.3,0-15.4,4.6c-27.7,31.1-55.4,62.1-83,93.2c-2.1,2.4-4.2,6.2-1.9,8.4c29.8,28.6,68,48.4,108.6,56.2
					c14.5,2.8,29.3,4.1,44.1,5.1c39.5,2.5,79.7,2.1,118-8s74.8-30.6,98.5-62.4c-6.5-0.3-13,0.6-19.5,1.3
					C302,160.7,205.6,122.7,145.1,52.1 M132.6,39c-3.2-10.2-14.5-16.1-25.2-16.7s-21.1,3-31.4,6s-21.2,5.6-31.6,3
					c-5-1.2-8.2,5.2-9.3,10.2C31.3,58.3,27.5,75,23.7,91.8c-3.3,14.7-6.3,31.3,2.2,43.7c4,5.9,13.3,9.8,17.9,4.4
					c18.6-21.5,37.2-42.9,55.7-64.4C110.2,63,121,50.6,132.6,39"/>
			</g>
			<g class="st1">
				<path class="st2" d="M119.9,141.7H117v-16.4h2.7l0.2,3.5V141.7z M118,132.8c0-1.5,0.3-2.8,0.9-4c0.6-1.2,1.3-2.1,2.3-2.8
					c1-0.7,2.2-1,3.5-1c1.1,0,2,0.2,2.8,0.6c0.8,0.4,1.4,1,1.8,1.9c0.4,0.9,0.6,2,0.6,3.5v10.7h-2.8v-10.8c0-0.9-0.1-1.5-0.4-2.1
					c-0.2-0.5-0.6-0.9-1.1-1.1s-1.1-0.4-1.8-0.4c-0.7,0-1.3,0.1-1.9,0.4c-0.6,0.3-1.1,0.7-1.5,1.2c-0.4,0.5-0.7,1.1-1,1.8
					c-0.2,0.7-0.3,1.4-0.3,2.1L118,132.8z"/>
				<path class="st2" d="M141,142c-1.5,0-2.8-0.3-4-1c-1.1-0.7-2-1.6-2.6-2.8c-0.6-1.2-0.9-2.6-0.9-4.1v-0.7c0-1.8,0.3-3.3,1-4.5
					c0.7-1.3,1.6-2.2,2.7-2.9c1.1-0.7,2.3-1,3.5-1c1.6,0,2.9,0.4,3.9,1.1c1,0.7,1.7,1.7,2.2,2.9c0.5,1.2,0.7,2.6,0.7,4.1v1.3h-12.2
					V132h9.4v-0.2c0-0.7-0.2-1.4-0.4-2.1c-0.3-0.7-0.7-1.3-1.2-1.7c-0.6-0.4-1.3-0.7-2.3-0.7c-0.8,0-1.6,0.2-2.2,0.7
					c-0.7,0.5-1.2,1.2-1.5,2.1c-0.4,0.9-0.6,2-0.6,3.3v0.7c0,1,0.2,2,0.6,2.8c0.4,0.9,0.9,1.5,1.7,2c0.7,0.5,1.6,0.8,2.6,0.8
					c1,0,1.8-0.2,2.5-0.6c0.7-0.4,1.3-0.9,1.8-1.6l1.7,1.3c-0.5,0.8-1.3,1.5-2.3,2.2C143.9,141.6,142.6,142,141,142z"/>
				<path class="st2" d="M156.1,131.3l3.6-6h3.3l-5.3,8.1l5.5,8.3h-3.3l-3.8-6.2l-3.8,6.2h-3.3l5.5-8.3l-5.4-8.1h3.3L156.1,131.3z"
					/>
				<path class="st2" d="M172.9,127.4H164v-2.1h8.9V127.4z M169.8,121.3v16.3c0,0.6,0.1,1,0.3,1.3c0.2,0.3,0.4,0.5,0.7,0.6
					c0.3,0.1,0.6,0.1,0.9,0.1c0.2,0,0.5,0,0.7-0.1c0.3,0,0.4-0.1,0.6-0.1l0,2.3c-0.2,0.1-0.5,0.1-0.9,0.2c-0.4,0.1-0.8,0.1-1.3,0.1
					c-0.7,0-1.3-0.1-1.9-0.4c-0.6-0.3-1-0.7-1.4-1.4c-0.3-0.6-0.5-1.5-0.5-2.6v-16.3H169.8z"/>
			</g>
			<g class="st1">
				<path class="st2" d="M149.6,174.5c0-0.4-0.1-0.8-0.3-1.1c-0.2-0.3-0.5-0.7-1.1-1c-0.5-0.3-1.3-0.5-2.4-0.8
					c-1.2-0.3-2.3-0.6-3.1-1c-0.9-0.4-1.6-0.9-2-1.5c-0.5-0.6-0.7-1.4-0.7-2.3c0-0.9,0.2-1.7,0.7-2.4c0.5-0.7,1.2-1.3,2.1-1.7
					c0.9-0.4,2-0.7,3.2-0.7c1.3,0,2.4,0.2,3.4,0.7c0.9,0.5,1.6,1.1,2.1,1.8c0.5,0.8,0.7,1.6,0.7,2.6h-2.8c0-0.7-0.3-1.3-0.9-1.9
					c-0.6-0.6-1.4-0.9-2.5-0.9c-0.8,0-1.4,0.1-1.9,0.4c-0.5,0.2-0.8,0.5-1,0.9c-0.2,0.4-0.3,0.8-0.3,1.2c0,0.4,0.1,0.8,0.3,1.1
					c0.2,0.3,0.6,0.6,1.1,0.8c0.5,0.2,1.3,0.5,2.4,0.7c1.3,0.3,2.4,0.7,3.3,1.1c0.9,0.4,1.5,0.9,1.9,1.6s0.6,1.4,0.6,2.3
					c0,0.9-0.3,1.8-0.8,2.5c-0.5,0.7-1.3,1.3-2.2,1.7c-0.9,0.4-2.1,0.6-3.3,0.6c-1.4,0-2.7-0.3-3.7-0.8c-1-0.5-1.8-1.2-2.3-2
					c-0.5-0.8-0.8-1.7-0.8-2.6h2.8c0.1,0.8,0.3,1.4,0.7,1.8c0.4,0.4,0.9,0.8,1.5,1c0.6,0.2,1.2,0.3,1.7,0.3c0.8,0,1.4-0.1,1.9-0.3
					c0.5-0.2,0.9-0.5,1.2-0.8C149.5,175.4,149.6,175,149.6,174.5z"/>
				<path class="st2" d="M163,164.6h-8.9v-2.1h8.9V164.6z M159.9,158.5v16.3c0,0.6,0.1,1,0.3,1.3c0.2,0.3,0.4,0.5,0.7,0.6
					c0.3,0.1,0.6,0.1,0.9,0.1c0.2,0,0.5,0,0.7-0.1c0.3,0,0.4-0.1,0.6-0.1l0,2.3c-0.2,0.1-0.5,0.1-0.9,0.2c-0.4,0.1-0.8,0.1-1.3,0.1
					c-0.7,0-1.3-0.1-1.9-0.4c-0.6-0.3-1-0.7-1.4-1.4c-0.3-0.6-0.5-1.5-0.5-2.6v-16.3H159.9z"/>
				<path class="st2" d="M176.4,170.9h-2.8c-1.6,0-2.8,0.3-3.7,0.8c-0.9,0.5-1.3,1.3-1.3,2.3c0,0.8,0.3,1.5,0.8,2
					c0.5,0.5,1.3,0.8,2.3,0.8c0.9,0,1.6-0.2,2.3-0.5c0.7-0.4,1.2-0.8,1.6-1.3c0.4-0.5,0.6-1,0.6-1.5l1.2,1.3
					c-0.1,0.4-0.3,0.9-0.6,1.4c-0.3,0.5-0.7,1-1.2,1.5c-0.5,0.5-1.1,0.9-1.8,1.2c-0.7,0.3-1.5,0.5-2.4,0.5c-1.1,0-2.1-0.2-2.9-0.6
					c-0.8-0.4-1.5-1-1.9-1.7c-0.5-0.7-0.7-1.6-0.7-2.5c0-1.8,0.7-3.1,2-4c1.3-0.9,3.1-1.4,5.4-1.4h3.2L176.4,170.9z M175.9,167.6
					c0-1-0.3-1.8-0.9-2.3c-0.6-0.6-1.4-0.9-2.6-0.9c-0.7,0-1.3,0.1-1.8,0.4c-0.5,0.2-0.9,0.6-1.2,1c-0.3,0.4-0.4,0.8-0.4,1.3h-2.8
					c0-0.8,0.3-1.6,0.8-2.3c0.5-0.7,1.3-1.4,2.3-1.8c1-0.5,2.1-0.7,3.4-0.7c1.2,0,2.2,0.2,3.2,0.6c0.9,0.4,1.6,1,2.2,1.8
					c0.5,0.8,0.8,1.8,0.8,3.1v7.6c0,0.5,0,1.1,0.1,1.7c0.1,0.6,0.2,1.1,0.4,1.6v0.2h-3c-0.1-0.3-0.3-0.8-0.3-1.3
					c-0.1-0.5-0.1-1-0.1-1.5V167.6z"/>
				<path class="st2" d="M182.5,170.5c0-1.7,0.3-3.1,0.8-4.4c0.5-1.3,1.3-2.2,2.2-2.9c1-0.7,2.1-1,3.5-1c1,0,1.9,0.2,2.7,0.5
					c0.8,0.4,1.4,0.9,2,1.6c0.5,0.7,1,1.5,1.3,2.5c0.3,1,0.5,2,0.7,3.2v1.5c-0.2,1.6-0.5,3-1,4.1c-0.5,1.2-1.2,2-2.2,2.7
					c-0.9,0.6-2.1,0.9-3.5,0.9c-1.3,0-2.4-0.4-3.4-1.1c-1-0.7-1.7-1.7-2.2-3c-0.5-1.3-0.8-2.7-0.8-4.3V170.5z M196.3,162.5v16
					c0,1.4-0.3,2.7-0.9,3.7c-0.6,1-1.4,1.8-2.5,2.3c-1,0.5-2.2,0.8-3.6,0.8c-0.6,0-1.2-0.1-2-0.3c-0.8-0.2-1.5-0.5-2.2-0.9
					c-0.7-0.4-1.3-1-1.8-1.7l1.5-1.7c0.7,0.8,1.4,1.4,2.2,1.7c0.8,0.3,1.5,0.5,2.2,0.5c1.3,0,2.4-0.4,3.2-1.1
					c0.8-0.8,1.2-1.8,1.2-3.3v-12.6l0.3-3.6H196.3z M185.3,170.9c0,1.1,0.1,2.1,0.4,3c0.3,0.9,0.8,1.6,1.4,2.2
					c0.6,0.5,1.5,0.8,2.5,0.8c0.9,0,1.7-0.2,2.3-0.6c0.6-0.4,1.1-0.9,1.4-1.6c0.4-0.6,0.6-1.3,0.8-2.1v-3.7
					c-0.1-0.6-0.3-1.1-0.5-1.6c-0.2-0.5-0.5-1-0.9-1.4c-0.4-0.4-0.8-0.7-1.3-1c-0.5-0.2-1.1-0.4-1.8-0.4c-1,0-1.8,0.3-2.5,0.8
					c-0.6,0.5-1.1,1.3-1.4,2.2c-0.3,0.9-0.4,1.9-0.4,3V170.9z"/>
				<path class="st2" d="M207.3,179.2c-1.5,0-2.8-0.3-4-1c-1.1-0.7-2-1.6-2.6-2.8c-0.6-1.2-0.9-2.6-0.9-4.1v-0.7
					c0-1.8,0.3-3.3,1-4.5c0.7-1.3,1.6-2.2,2.7-2.9c1.1-0.7,2.3-1,3.5-1c1.6,0,2.9,0.4,3.9,1.1c1,0.7,1.7,1.7,2.2,2.9
					c0.5,1.2,0.7,2.6,0.7,4.1v1.3h-12.2v-2.3h9.4V169c0-0.7-0.2-1.4-0.4-2.1c-0.3-0.7-0.7-1.3-1.2-1.7c-0.6-0.4-1.3-0.7-2.3-0.7
					c-0.8,0-1.6,0.2-2.2,0.7c-0.7,0.5-1.2,1.2-1.5,2.1c-0.4,0.9-0.6,2-0.6,3.3v0.7c0,1,0.2,2,0.6,2.8c0.4,0.9,0.9,1.5,1.7,2
					s1.6,0.8,2.6,0.8c1,0,1.8-0.2,2.5-0.6c0.7-0.4,1.3-0.9,1.8-1.6l1.7,1.3c-0.5,0.8-1.3,1.5-2.3,2.2
					C210.3,178.8,209,179.2,207.3,179.2z"/>
			</g>
			<g id="arrow_forward">
				<path class="st0" d="M609.8,140.2c-12.7,9.9-25.3,19.8-37.9,29.7c-1.1-5.9-0.7-12.2,1.3-17.9c0.6-1.8,1.4-3.9,0.4-5.6
					c-1-1.8-3.5-2.1-5.7-2.2c-15.4-0.7-31-1.3-46.1,2c-1.4,0.3-2.9,0.6-4.2,0c-1.9-0.9-2.4-3.4-2-5.4c0.8-5.1,5.1-9.1,9.9-10.9
					c4.8-1.9,10.1-2,15.2-2.1c10.4-0.2,20.8-0.5,31.2-0.7c4.5-0.1,6-6,6.3-10.5c0.3-4.5,2.4-10.3,6.8-9.8c2.2,0.3,3.8,2.1,5.2,3.8
					c6.2,7.6,12.3,15.2,18.4,22.8C610.3,135.2,611.9,138.6,609.8,140.2L609.8,140.2z"/>
			</g>
			<g id="arrow_forward-2">
				<path class="st2" d="M609.2,137.6c-12.7,9.9-25.3,19.8-37.9,29.7c-1.1-5.9-0.7-12.2,1.3-17.9c0.6-1.8,1.4-3.9,0.4-5.6
					c-1-1.8-3.5-2.1-5.7-2.2c-15.4-0.7-31-1.3-46.1,2c-1.4,0.3-2.9,0.6-4.2,0c-1.9-0.9-2.4-3.4-2-5.4c0.8-5.1,5.1-9.1,9.9-10.9
					c4.8-1.9,10.1-2,15.2-2.1c10.4-0.2,20.8-0.5,31.2-0.7c4.5-0.1,6-6,6.3-10.5c0.3-4.5,2.4-10.3,6.8-9.8c2.2,0.3,3.8,2.1,5.2,3.8
					c6.2,7.6,12.3,15.2,18.4,22.8C609.7,132.6,611.3,135.9,609.2,137.6L609.2,137.6z"/>
			</g>
		</g>
		<rect y="0" class="st3" width="623.8" height="248.5"/>
	</g>
</g>
</svg>
