<?xml version="1.0" encoding="UTF-8"?>
<svg id="Layer_2" data-name="Layer 2" xmlns="http://www.w3.org/2000/svg" viewBox="0 0 255.03 293.88">
  <defs>
    <style>
      .cls-1 {
        fill: #fee9d9;
      }

      .cls-2 {
        fill: #252933;
      }

      .cls-3 {
        stroke: #fee9d9;
        stroke-width: 1.25px;
      }

      .cls-3, .cls-4 {
        fill: none;
        stroke-miterlimit: 10;
      }

      .cls-4 {
        stroke: #252933;
        stroke-width: .75px;
      }
    </style>
  </defs>
  <g id="shadows">
    <g id="brief_4" data-name="brief 4">
      <g>
        <path class="cls-2" d="M21.64,257.46c-9.98-16.93-17.17-33.54-19.96-53.4-1.81-12.87-.46-26.2,1.04-37.09,1.49-10.77,2.53-18.11,6.95-27.89s9.93-18.04,16.94-26.23c1.12-1.31,1.59-2.32,.09-3.83-4.46-4.48-7.57-10.01-9.47-15.86-2.36-7.28,.05-14.15,2.42-21.04,1.28-3.74,2.72-7.43,4.5-10.96s4.14-6.52,6.65-9.62c4.89-6.02,10.5-11.34,16.66-15.98,5.49-4.14,11.12-8.43,17.34-11.14,4.11-1.79,5.52-4.43,7.31-7.83,1.66-3.17,6.73-10.55,10.2-5.07,1.75,2.76,2.87,5.91,4.36,8.84,.51,.99,1.19,2.14,2.11,2.63,5.31,2.88,10.73,5.55,16.05,8.39,1.41,.76,2.55,2.03,3.96,2.79,.67,.36,2.09,.45,2.48,.03,3.35-3.62,7.6-5.66,12.12-7.31,1.45-.53,3.79,.69,4.22,2.89,1.31,6.73,4.44,13.24,2.78,20.4-.1,.42,.41,.99,.63,1.49,.33-.22,.83-.36,.97-.67,2.72-6.14,6.91-11.2,11.68-15.8,5.97-5.77,11.89-11.65,19.36-15.52,5.32-2.76,10.67-5.48,16.17-7.86,5.08-2.19,10.26-4.32,15.6-5.69,4.62-1.18,9.5-1.49,14.29-1.76,6.61-.37,13.27-.15,19.62,1.84,5.22,1.64,10.19,3.79,14.93,6.79,3.78,2.39,6.53,5.26,8.3,9.04,2.52,5.37,2.56,10.88,2.64,17.09,.05,3.39-.08,6.46-1.38,10.35-1.53,4.58-3.18,8.12-6.12,11.33-5.74,6.26-13.29,10.47-19.3,16.42-3.63,3.59-7.08,7.35-10.45,11.2-4.32,4.94-8.42,10.05-12.51,15.18-2.9,3.63-5.93,7.19-8.56,11.01-3.95,5.73-7.66,11.63-11.42,17.49-4.06,6.33-6.48,13.34-8.97,20.4-3.69,10.45-3.44,21.29-4.52,32.04-.64,6.4-.85,12.91-3.37,19.18-1.9,4.73-2.11,10.12-3.2,15.19-1.77,8.25-5.25,15.91-8.18,23.77-2.97,7.97-8.24,14.35-13.55,20.66-9.98,11.87-23.83,20.17-38.36,25.24-13.5,4.71-30.03,7.46-44.61,1.54-8.89-3.61-16.47-10.29-23.88-16.38-5.51-4.53-9.66-10.73-14.57-16.29M98.43,119.48c.22-.11,.44-.22,.65-.34,3.95-2.19,4.64-2.92,6.96,.76,4.24,6.73,8.3,13.58,12.36,20.43,.88,1.49,1.52,3.3-.63,4.36-6.41,3.16-12.86,6.25-19.31,9.33-5.82,2.78-11.09,6.14-13.28,12.67-2.3,6.85-.12,12.4,6.54,12.93,6.66,.54,13.48-.17,19.54-3.3,3.33-1.72,7.33-2.93,9.11-6.91,.21-.48,1.05-.69,1.6-1.02,.17,.82,.77,1.92,.45,2.41-2.48,3.73-3.08,8.12-3.4,12.25-.28,3.64-2.44,8.07,1.78,11.2,.32,.24,.31,.98,.37,1.5,.43,3.35,.87,6.7,1.24,10.06,.62,5.68,1.25,11.36,1.76,17.05,.39,4.39,.35,8.84,.98,13.19,.95,6.57,4.52,12.06,8.14,17.44,1.8,2.68,3.88,5.2,5.98,7.67,.7,.82,1.65,1.31,2.77-.06,4.81-5.87,9.21-12.02,12.2-19.01,2.5-5.86,4.74-11.84,6.82-17.87,1.01-2.92,1.74-5.92,2.26-8.96,.78-4.61,1.59-9.29,1.72-13.96,.1-3.82-.57-7.66-.88-11.49-.37-4.57-.26-9.25-1.19-13.7-1.22-5.85-3.22-11.55-4.96-17.29-2.05-6.77-4.09-13.55-6.33-20.26-1.24-3.71-2.83-7.3-4.36-10.9-1.19-2.81-2.61-5.52-3.79-8.33-1.04-2.47-1.88-5.02-2.85-7.53-2.2-5.69-4.42-11.37-6.63-17.05-.42-1.09-1.31-2.21-1.22-3.25,.71-8.63,1.33-17.25-.1-25.87-.33-2-.47-4.04-.95-6.01-.85-3.52-2.93-7.08-2.63-10.46,.54-6.14-2.24-11.38-3.14-17.08-.25-1.6-1.35-2.39-3.38-1.94-4.25,.94-7.58,3.26-10.41,6.35-1.39,1.52-2.65,1.8-4.32,.72-.81-.53-1.63-1.02-2.45-1.54-2.51-1.57-4.96-3.27-7.56-4.68-3.27-1.78-6.7-3.25-9.97-5.02-1.05-.57-2.14-1.5-2.65-2.54-1.41-2.91-2.5-5.98-3.77-8.97-.99-2.34-3.07-2.82-4.54-.86-1.77,2.37-3.06,5.09-4.8,7.48-1.36,1.86-2.8,4.25-4.73,4.98-7.66,2.87-14.01,7.75-20.18,12.76-3.13,2.54-5.95,5.41-8.71,8.32-2.47,2.6-5.2,4.91-7.53,7.68-7.02,8.36-11.09,18.92-11.75,29.81-.23,3.81-.78,7.19,.96,10.97,5.43,11.78,14.69,19.35,26.11,24.49,5.2,2.34,10.79,3.91,16.32,5.41,5.07,1.38,9.52,.96,14.59,.17,3.62-.56,7.31-.84,10.84-1.86s6.92-2.95,10.39-4.34m67.98,75.81c.35,.91,.71,1.82,1.06,2.72,.32-.84,.87-1.66,.88-2.52,0-2.94-.13-5.87,.31-8.77,1.27-8.5,1.04-17.33,2.69-25.79,1.8-9.25,4.88-18.19,9.46-26.48,3.49-6.32,7.08-12.63,11.21-18.53,4.13-5.91,8.91-11.38,13.55-16.93,5.83-6.98,11.42-14.22,17.81-20.66,3.72-3.75,8.04-6.8,11.84-10.43,3.58-3.42,7.87-6.03,11.17-9.82,3.66-4.2,5.31-8.72,5.81-14.19,.33-3.69,1.11-7.15,.64-10.89-1.64-13.13-12.32-20.25-24.12-24.08-5.33-1.73-14.29-2.66-19.86-2.08-4.77,.49-9.52,1.21-14.26,1.9-8.22,1.2-15.42,5.27-22.82,8.59-7.95,3.57-15.21,8.35-21.65,14.39-6.86,6.44-12.99,13.39-17.74,21.53-.31,.54-.56,1.3-.44,1.87,.78,3.72,1.53,7.45,2.56,11.1,1.45,5.11,1.27,10.34,.59,15.39-.9,6.64,.52,12.65,2.93,18.62,1.45,3.61,3.06,7.16,4.62,10.72,1.89,4.32,3.86,8.61,5.67,12.96,1.83,4.39,3.59,8.81,5.21,13.28,.99,2.73,1.61,5.6,2.52,8.36,2.29,7,4.7,13.96,6.97,20.97,2.99,9.24,2.83,18.9,3.41,28.74M36.31,252.59c-.5-1.34-.98-2.68-1.5-4.01-1.49-3.81-3.37-7.51-4.41-11.44-2.02-7.61-3.92-15.27-3.88-23.27,.02-4.71-.76-9.45-.51-14.14,.32-6.06,1.31-12.09,2.02-18.12,.17-1.46,.66-2.28,2.47-1.7,1.68,.53,3.5,.6,5.27,.84,4.17,.57,8.34,1.32,12.53,1.62,2.39,.17,4.84-.59,7.26-.61,4.88-.03,9.95-3.21,11.39-7.78,1.37-4.34-.72-8.28-3.34-11.15-3.91-4.28-8.43-8.19-13.28-11.36-3.57-2.33-8.06-3.3-12.19-4.74-4.99-1.74-6.79-2.56-5.74-6.01,1.84-6.04,3.9-12.03,6.13-17.94,1.2-3.19,1.31-3.49-1.71-5.43-1.14-.73-2.14-1.67-3.26-2.44-1.65-1.14-3.34-2.08-5.2-.33-1.78,1.68-3.87,3.13-5.31,5.07-3.11,4.16-6.18,8.41-8.73,12.92-3.82,6.76-5.79,15.18-7.45,22.64-2.23,10.01-3.27,19.61-4.16,29.78-.65,7.43-.77,14.88,.77,22.32,1.39,6.72,2.61,13.53,4.75,20.03,5.57,16.98,17.29,32.77,29.88,45.16,2.1,2.07,4.68,3.67,7.12,5.37,3.41,2.37,6.89,4.65,10.39,6.9,.32,.21,.95-.06,1.44-.11-.1-.29-.13-.65-.31-.87-3.25-3.95-6.45-7.94-9.79-11.81-4.87-5.65-7.4-12.52-10.64-19.39m65.92,34.15c1.23-.37,2.55-.57,3.66-1.15,10.85-5.67,20.95-12.66,31.23-19.29,.47-.3,.98-.66,1.13-1.2,.18-.64-.21-1.29-.58-1.84-3.97-5.93-7.94-11.86-11.9-17.79-1.23,2.53-4.42,3.26-7.2,3.68-25.74,3.89-51.74,6.03-77.77,6.39,.15,0,3.3,8.51,3.71,9.33,1.65,3.34,3.59,6.53,5.8,9.53,4.12,5.61,8.57,12.47,15.28,14.44,7.3,2.14,12.46,2.24,18.77,1.28,2.71-.41,5.44-.48,8.13-.83,3.28-.43,6.58-1.61,9.74-2.56m-16.41-126.02c4.18-6.52,11.45-8.51,17.75-11.88,3.98-2.12,8.12-3.92,12.21-5.83,1.15-.54,1.09-.95,.37-2.1-3.97-6.33-7.75-12.78-11.51-19.25-.87-1.5-1.93-1.92-3.34-1.13-5.96,3.35-12.2,5.75-18.98,7.06-7.81,1.51-15.4,2.7-23.09-.65-5.13-2.23-10.5-3.91-15.75-5.87-1.38-.52-2.38-.36-2.92,1.16-1.92,5.43-3.91,10.83-5.76,16.28-1.11,3.27-.63,3.54,2.52,4.67,4.92,1.77,10.03,3.4,14.44,6.09,4.45,2.71,8.25,6.53,12.15,10.06,5.45,4.93,6.78,12.45,3.58,18.79-.18,.35-.22,.78-.32,1.17,.41,0,.82,.04,1.22,0,4.26-.43,8.52-1.18,12.78-1.19,2,0,1.87-.62,1.47-1.81-1.87-5.66-.03-10.58,3.17-15.59m-57.4,30.8c-.14,.96-.39,1.92-.39,2.89,0,3.86-.06,7.74,.15,11.59,.33,6.07,.63,12.16,1.39,18.19,.52,4.15,1.7,8.23,2.8,12.29,.54,1.99,1.53,3.85,2.38,5.74,.15,.34,.63,.53,.96,.8,.16-.46,.5-.94,.46-1.39-.24-2.84-.58-5.68-.86-8.52-.39-3.95-.98-7.89-1.06-11.84-.09-4.73,.4-9.46,.41-14.19,0-5.16,1.62-7.37,6.02-7.28,5.64,.11,11.21,.47,16.8-1.1,4.29-1.2,4.19-.81,4.85-5.48,.46-3.27-.71-7.08,2.57-9.66,.07-.05-.37-1.08-.57-1.07-.68,0-1.55,.05-2.01,.46-4.12,3.69-9.47,2.53-14.03,2.72-5.5,.23-11.09-1.96-16.66-3.05-.7-.14-1.68-.82-1.91,.77-.37,2.56-.95,5.09-1.33,8.15m88.74-6.94c.8-2.96,.33-5.71,.54-8.78-6.12,3.69-13.06,6.03-20.17,6.79-1.26,.13-2.81,.45-3.14,1.67-.12,.44-.03,.9,.05,1.35,.56,2.94,1.11,5.89,1.67,8.83,.07,.35,.14,.71,.38,.97,.34,.37,.9,.4,1.4,.41,5.16,.06,10.75-.33,15.71-1.85,3.84-1.18,3.84-1.94,3.5-4.91l.07-4.48Zm-33.86,2.63c-2.41,.2-4.82,.48-7.23,.57-5.01,.2-5.02,.16-5.89,4.99-.83,4.58-.21,5.23,4.33,4.58,.4-.06,.82,.07,1.22,.03,3.27-.31,6.55-.57,9.8-1.03,.75-.11,1.34-.83,1.33-1.59-.05-1.85-.2-3.76-.75-5.51-.27-.87-1.5-1.45-2.8-2.04m-4.45,41.52c1.85-.61,3.76-1.09,5.54-1.86,1.26-.55,1.98-1.52,.67-2.88-1.02-1.05-2.12-2.08-2.86-3.32-.92-1.53-1.98-1.27-2.87-.35-2.87,2.98-5.44,4.84-8.2,7.92-.24,.27-5.47,3.84-4.71,3.87,1.15,.27,5.07-1.17,5.49-1.27,2.26-.54,4.5-1.19,6.95-2.11m7.95-4.07c.11-.03,2.46-2.45,1.19-4.47-.66-1.2,.8-1.8,.09-2.02-1.3-.4-.92,.25-2.45,.56-.09,.02-.84-.89-2.08-1.03-1.87,.19-1.8,.76-.62,2.35,1.34,1.81,3.72,4.58,3.4,4.2l.47,.39Z"/>
        <path class="cls-4" d="M21.64,257.46c-9.98-16.93-17.17-33.54-19.96-53.4-1.81-12.87-.46-26.2,1.04-37.09,1.49-10.77,2.53-18.11,6.95-27.89s9.93-18.04,16.94-26.23c1.12-1.31,1.59-2.32,.09-3.83-4.46-4.48-7.57-10.01-9.47-15.86-2.36-7.28,.05-14.15,2.42-21.04,1.28-3.74,2.72-7.43,4.5-10.96s4.14-6.52,6.65-9.62c4.89-6.02,10.5-11.34,16.66-15.98,5.49-4.14,11.12-8.43,17.34-11.14,4.11-1.79,5.52-4.43,7.31-7.83,1.66-3.17,6.73-10.55,10.2-5.07,1.75,2.76,2.87,5.91,4.36,8.84,.51,.99,1.19,2.14,2.11,2.63,5.31,2.88,10.73,5.55,16.05,8.39,1.41,.76,2.55,2.03,3.96,2.79,.67,.36,2.09,.45,2.48,.03,3.35-3.62,7.6-5.66,12.12-7.31,1.45-.53,3.79,.69,4.22,2.89,1.31,6.73,4.44,13.24,2.78,20.4-.1,.42,.41,.99,.63,1.49,.33-.22,.83-.36,.97-.67,2.72-6.14,6.91-11.2,11.68-15.8,5.97-5.77,11.89-11.65,19.36-15.52,5.32-2.76,10.67-5.48,16.17-7.86,5.08-2.19,10.26-4.32,15.6-5.69,4.62-1.18,9.5-1.49,14.29-1.76,6.61-.37,13.27-.15,19.62,1.84,5.22,1.64,10.19,3.79,14.93,6.79,3.78,2.39,6.53,5.26,8.3,9.04,2.52,5.37,2.56,10.88,2.64,17.09,.05,3.39-.08,6.46-1.38,10.35-1.53,4.58-3.18,8.12-6.12,11.33-5.74,6.26-13.29,10.47-19.3,16.42-3.63,3.59-7.08,7.35-10.45,11.2-4.32,4.94-8.42,10.05-12.51,15.18-2.9,3.63-5.93,7.19-8.56,11.01-3.95,5.73-7.66,11.63-11.42,17.49-4.06,6.33-6.48,13.34-8.97,20.4-3.69,10.45-3.44,21.29-4.52,32.04-.64,6.4-.85,12.91-3.37,19.18-1.9,4.73-2.11,10.12-3.2,15.19-1.77,8.25-5.25,15.91-8.18,23.77-2.97,7.97-8.24,14.35-13.55,20.66-9.98,11.87-23.83,20.17-38.36,25.24-13.5,4.71-30.03,7.46-44.61,1.54-8.89-3.61-16.47-10.29-23.88-16.38-5.51-4.53-9.66-10.73-14.57-16.29M98.43,119.48c.22-.11,.44-.22,.65-.34,3.95-2.19,4.64-2.92,6.96,.76,4.24,6.73,8.3,13.58,12.36,20.43,.88,1.49,1.52,3.3-.63,4.36-6.41,3.16-12.86,6.25-19.31,9.33-5.82,2.78-11.09,6.14-13.28,12.67-2.3,6.85-.12,12.4,6.54,12.93,6.66,.54,13.48-.17,19.54-3.3,3.33-1.72,7.33-2.93,9.11-6.91,.21-.48,1.05-.69,1.6-1.02,.17,.82,.77,1.92,.45,2.41-2.48,3.73-3.08,8.12-3.4,12.25-.28,3.64-2.44,8.07,1.78,11.2,.32,.24,.31,.98,.37,1.5,.43,3.35,.87,6.7,1.24,10.06,.62,5.68,1.25,11.36,1.76,17.05,.39,4.39,.35,8.84,.98,13.19,.95,6.57,4.52,12.06,8.14,17.44,1.8,2.68,3.88,5.2,5.98,7.67,.7,.82,1.65,1.31,2.77-.06,4.81-5.87,9.21-12.02,12.2-19.01,2.5-5.86,4.74-11.84,6.82-17.87,1.01-2.92,1.74-5.92,2.26-8.96,.78-4.61,1.59-9.29,1.72-13.96,.1-3.82-.57-7.66-.88-11.49-.37-4.57-.26-9.25-1.19-13.7-1.22-5.85-3.22-11.55-4.96-17.29-2.05-6.77-4.09-13.55-6.33-20.26-1.24-3.71-2.83-7.3-4.36-10.9-1.19-2.81-2.61-5.52-3.79-8.33-1.04-2.47-1.88-5.02-2.85-7.53-2.2-5.69-4.42-11.37-6.63-17.05-.42-1.09-1.31-2.21-1.22-3.25,.71-8.63,1.33-17.25-.1-25.87-.33-2-.47-4.04-.95-6.01-.85-3.52-2.93-7.08-2.63-10.46,.54-6.14-2.24-11.38-3.14-17.08-.25-1.6-1.35-2.39-3.38-1.94-4.25,.94-7.58,3.26-10.41,6.35-1.39,1.52-2.65,1.8-4.32,.72-.81-.53-1.63-1.02-2.45-1.54-2.51-1.57-4.96-3.27-7.56-4.68-3.27-1.78-6.7-3.25-9.97-5.02-1.05-.57-2.14-1.5-2.65-2.54-1.41-2.91-2.5-5.98-3.77-8.97-.99-2.34-3.07-2.82-4.54-.86-1.77,2.37-3.06,5.09-4.8,7.48-1.36,1.86-2.8,4.25-4.73,4.98-7.66,2.87-14.01,7.75-20.18,12.76-3.13,2.54-5.95,5.41-8.71,8.32-2.47,2.6-5.2,4.91-7.53,7.68-7.02,8.36-11.09,18.92-11.75,29.81-.23,3.81-.78,7.19,.96,10.97,5.43,11.78,14.69,19.35,26.11,24.49,5.2,2.34,10.79,3.91,16.32,5.41,5.07,1.38,9.52,.96,14.59,.17,3.62-.56,7.31-.84,10.84-1.86s6.92-2.95,10.39-4.34m67.98,75.81c.35,.91,.71,1.82,1.06,2.72,.32-.84,.87-1.66,.88-2.52,0-2.94-.13-5.87,.31-8.77,1.27-8.5,1.04-17.33,2.69-25.79,1.8-9.25,4.88-18.19,9.46-26.48,3.49-6.32,7.08-12.63,11.21-18.53,4.13-5.91,8.91-11.38,13.55-16.93,5.83-6.98,11.42-14.22,17.81-20.66,3.72-3.75,8.04-6.8,11.84-10.43,3.58-3.42,7.87-6.03,11.17-9.82,3.66-4.2,5.31-8.72,5.81-14.19,.33-3.69,1.11-7.15,.64-10.89-1.64-13.13-12.32-20.25-24.12-24.08-5.33-1.73-14.29-2.66-19.86-2.08-4.77,.49-9.52,1.21-14.26,1.9-8.22,1.2-15.42,5.27-22.82,8.59-7.95,3.57-15.21,8.35-21.65,14.39-6.86,6.44-12.99,13.39-17.74,21.53-.31,.54-.56,1.3-.44,1.87,.78,3.72,1.53,7.45,2.56,11.1,1.45,5.11,1.27,10.34,.59,15.39-.9,6.64,.52,12.65,2.93,18.62,1.45,3.61,3.06,7.16,4.62,10.72,1.89,4.32,3.86,8.61,5.67,12.96,1.83,4.39,3.59,8.81,5.21,13.28,.99,2.73,1.61,5.6,2.52,8.36,2.29,7,4.7,13.96,6.97,20.97,2.99,9.24,2.83,18.9,3.41,28.74M36.31,252.59c-.5-1.34-.98-2.68-1.5-4.01-1.49-3.81-3.37-7.51-4.41-11.44-2.02-7.61-3.92-15.27-3.88-23.27,.02-4.71-.76-9.45-.51-14.14,.32-6.06,1.31-12.09,2.02-18.12,.17-1.46,.66-2.28,2.47-1.7,1.68,.53,3.5,.6,5.27,.84,4.17,.57,8.34,1.32,12.53,1.62,2.39,.17,4.84-.59,7.26-.61,4.88-.03,9.95-3.21,11.39-7.78,1.37-4.34-.72-8.28-3.34-11.15-3.91-4.28-8.43-8.19-13.28-11.36-3.57-2.33-8.06-3.3-12.19-4.74-4.99-1.74-6.79-2.56-5.74-6.01,1.84-6.04,3.9-12.03,6.13-17.94,1.2-3.19,1.31-3.49-1.71-5.43-1.14-.73-2.14-1.67-3.26-2.44-1.65-1.14-3.34-2.08-5.2-.33-1.78,1.68-3.87,3.13-5.31,5.07-3.11,4.16-6.18,8.41-8.73,12.92-3.82,6.76-5.79,15.18-7.45,22.64-2.23,10.01-3.27,19.61-4.16,29.78-.65,7.43-.77,14.88,.77,22.32,1.39,6.72,2.61,13.53,4.75,20.03,5.57,16.98,17.29,32.77,29.88,45.16,2.1,2.07,4.68,3.67,7.12,5.37,3.41,2.37,6.89,4.65,10.39,6.9,.32,.21,.95-.06,1.44-.11-.1-.29-.13-.65-.31-.87-3.25-3.95-6.45-7.94-9.79-11.81-4.87-5.65-7.4-12.52-10.64-19.39m65.92,34.15c1.23-.37,2.55-.57,3.66-1.15,10.85-5.67,20.95-12.66,31.23-19.29,.47-.3,.98-.66,1.13-1.2,.18-.64-.21-1.29-.58-1.84-3.97-5.93-7.94-11.86-11.9-17.79-1.23,2.53-4.42,3.26-7.2,3.68-25.74,3.89-51.74,6.03-77.77,6.39,.15,0,3.3,8.51,3.71,9.33,1.65,3.34,3.59,6.53,5.8,9.53,4.12,5.61,8.57,12.47,15.28,14.44,7.3,2.14,12.46,2.24,18.77,1.28,2.71-.41,5.44-.48,8.13-.83,3.28-.43,6.58-1.61,9.74-2.56m-16.41-126.02c4.18-6.52,11.45-8.51,17.75-11.88,3.98-2.12,8.12-3.92,12.21-5.83,1.15-.54,1.09-.95,.37-2.1-3.97-6.33-7.75-12.78-11.51-19.25-.87-1.5-1.93-1.92-3.34-1.13-5.96,3.35-12.2,5.75-18.98,7.06-7.81,1.51-15.4,2.7-23.09-.65-5.13-2.23-10.5-3.91-15.75-5.87-1.38-.52-2.38-.36-2.92,1.16-1.92,5.43-3.91,10.83-5.76,16.28-1.11,3.27-.63,3.54,2.52,4.67,4.92,1.77,10.03,3.4,14.44,6.09,4.45,2.71,8.25,6.53,12.15,10.06,5.45,4.93,6.78,12.45,3.58,18.79-.18,.35-.22,.78-.32,1.17,.41,0,.82,.04,1.22,0,4.26-.43,8.52-1.18,12.78-1.19,2,0,1.87-.62,1.47-1.81-1.87-5.66-.03-10.58,3.17-15.59m-57.4,30.8c-.14,.96-.39,1.92-.39,2.89,0,3.86-.06,7.74,.15,11.59,.33,6.07,.63,12.16,1.39,18.19,.52,4.15,1.7,8.23,2.8,12.29,.54,1.99,1.53,3.85,2.38,5.74,.15,.34,.63,.53,.96,.8,.16-.46,.5-.94,.46-1.39-.24-2.84-.58-5.68-.86-8.52-.39-3.95-.98-7.89-1.06-11.84-.09-4.73,.4-9.46,.41-14.19,0-5.16,1.62-7.37,6.02-7.28,5.64,.11,11.21,.47,16.8-1.1,4.29-1.2,4.19-.81,4.85-5.48,.46-3.27-.71-7.08,2.57-9.66,.07-.05-.37-1.08-.57-1.07-.68,0-1.55,.05-2.01,.46-4.12,3.69-9.47,2.53-14.03,2.72-5.5,.23-11.09-1.96-16.66-3.05-.7-.14-1.68-.82-1.91,.77-.37,2.56-.95,5.09-1.33,8.15m88.74-6.94c.8-2.96,.33-5.71,.54-8.78-6.12,3.69-13.06,6.03-20.17,6.79-1.26,.13-2.81,.45-3.14,1.67-.12,.44-.03,.9,.05,1.35,.56,2.94,1.11,5.89,1.67,8.83,.07,.35,.14,.71,.38,.97,.34,.37,.9,.4,1.4,.41,5.16,.06,10.75-.33,15.71-1.85,3.84-1.18,3.84-1.94,3.5-4.91l.07-4.48Zm-33.86,2.63c-2.41,.2-4.82,.48-7.23,.57-5.01,.2-5.02,.16-5.89,4.99-.83,4.58-.21,5.23,4.33,4.58,.4-.06,.82,.07,1.22,.03,3.27-.31,6.55-.57,9.8-1.03,.75-.11,1.34-.83,1.33-1.59-.05-1.85-.2-3.76-.75-5.51-.27-.87-1.5-1.45-2.8-2.04m-4.45,41.52c1.85-.61,3.76-1.09,5.54-1.86,1.26-.55,1.98-1.52,.67-2.88-1.02-1.05-2.12-2.08-2.86-3.32-.92-1.53-1.98-1.27-2.87-.35-2.87,2.98-5.44,4.84-8.2,7.92-.24,.27-5.47,3.84-4.71,3.87,1.15,.27,5.07-1.17,5.49-1.27,2.26-.54,4.5-1.19,6.95-2.11m7.95-4.07c.11-.03,2.46-2.45,1.19-4.47-.66-1.2,.8-1.8,.09-2.02-1.3-.4-.92,.25-2.45,.56-.09,.02-.84-.89-2.08-1.03-1.87,.19-1.8,.76-.62,2.35,1.34,1.81,3.72,4.58,3.4,4.2l.47,.39Z"/>
      </g>
    </g>
  </g>
  <g id="illustrations">
    <g id="brief_4-2" data-name="brief 4">
      <g>
        <path class="cls-1" d="M21.46,253.86c-9.98-16.93-17.17-33.54-19.96-53.4-1.81-12.87-.46-26.2,1.04-37.09,1.49-10.77,2.53-18.11,6.95-27.89s9.93-18.04,16.94-26.23c1.12-1.31,1.59-2.32,.09-3.83-4.46-4.48-7.57-10.01-9.47-15.86-2.36-7.28,.05-14.15,2.42-21.04,1.28-3.74,2.72-7.43,4.5-10.96s4.14-6.52,6.65-9.62c4.89-6.02,10.5-11.34,16.66-15.98,5.49-4.14,11.12-8.43,17.34-11.14,4.11-1.79,5.52-4.43,7.31-7.83,1.66-3.17,6.73-10.55,10.2-5.07,1.75,2.76,2.87,5.91,4.36,8.84,.51,.99,1.19,2.14,2.11,2.63,5.31,2.88,10.73,5.55,16.05,8.39,1.41,.76,2.55,2.03,3.96,2.79,.67,.36,2.09,.45,2.48,.03,3.35-3.62,7.6-5.66,12.12-7.31,1.45-.53,3.79,.69,4.22,2.89,1.31,6.73,4.44,13.24,2.78,20.4-.1,.42,.41,.99,.63,1.49,.33-.22,.83-.36,.97-.67,2.72-6.14,6.91-11.2,11.68-15.8,5.97-5.77,11.89-11.65,19.36-15.52,5.32-2.76,10.67-5.48,16.17-7.86,5.08-2.19,10.26-4.32,15.6-5.69,4.62-1.18,9.5-1.49,14.29-1.76,6.61-.37,13.27-.15,19.62,1.84,5.22,1.64,10.19,3.79,14.93,6.79,3.78,2.39,6.53,5.26,8.3,9.04,2.52,5.37,2.56,10.88,2.64,17.09,.05,3.39-.08,6.46-1.38,10.35-1.53,4.58-3.18,8.12-6.12,11.33-5.74,6.26-13.29,10.47-19.3,16.42-3.63,3.59-7.08,7.35-10.45,11.2-4.32,4.94-8.42,10.05-12.51,15.18-2.9,3.63-5.93,7.19-8.56,11.01-3.95,5.73-7.66,11.63-11.42,17.49-4.06,6.33-6.48,13.34-8.97,20.4-3.69,10.45-3.44,21.29-4.52,32.04-.64,6.4-.85,12.91-3.37,19.18-1.9,4.73-2.11,10.12-3.2,15.19-1.77,8.25-5.25,15.91-8.18,23.77-2.97,7.97-8.24,14.35-13.55,20.66-9.98,11.87-23.83,20.17-38.36,25.24-13.5,4.71-30.03,7.46-44.61,1.54-8.89-3.61-16.47-10.29-23.88-16.38-5.51-4.53-9.66-10.73-14.57-16.29M98.25,115.88c.22-.11,.44-.22,.65-.34,3.95-2.19,4.64-2.92,6.96,.76,4.24,6.73,8.3,13.58,12.36,20.43,.88,1.49,1.52,3.3-.63,4.36-6.41,3.16-12.86,6.25-19.31,9.33-5.82,2.78-11.09,6.14-13.28,12.67-2.3,6.85-.12,12.4,6.54,12.93,6.66,.54,13.48-.17,19.54-3.3,3.33-1.72,7.33-2.93,9.11-6.91,.21-.48,1.05-.69,1.6-1.02,.17,.82,.77,1.92,.45,2.41-2.48,3.73-3.08,8.12-3.4,12.25-.28,3.64-2.44,8.07,1.78,11.2,.32,.24,.31,.98,.37,1.5,.43,3.35,.87,6.7,1.24,10.06,.62,5.68,1.25,11.36,1.76,17.05,.39,4.39,.35,8.84,.98,13.19,.95,6.57,4.52,12.06,8.14,17.44,1.8,2.68,3.88,5.2,5.98,7.67,.7,.82,1.65,1.31,2.77-.06,4.81-5.87,9.21-12.02,12.2-19.01,2.5-5.86,4.74-11.84,6.82-17.87,1.01-2.92,1.74-5.92,2.26-8.96,.78-4.61,1.59-9.29,1.72-13.96,.1-3.82-.57-7.66-.88-11.49-.37-4.57-.26-9.25-1.19-13.7-1.22-5.85-3.22-11.55-4.96-17.29-2.05-6.77-4.09-13.55-6.33-20.26-1.24-3.71-2.83-7.3-4.36-10.9-1.19-2.81-2.61-5.52-3.79-8.33-1.04-2.47-1.88-5.02-2.85-7.53-2.2-5.69-4.42-11.37-6.63-17.05-.42-1.09-1.31-2.21-1.22-3.25,.71-8.63,1.33-17.25-.1-25.87-.33-2-.47-4.04-.95-6.01-.85-3.52-2.93-7.08-2.63-10.46,.54-6.14-2.24-11.38-3.14-17.08-.25-1.6-1.35-2.39-3.38-1.94-4.25,.94-7.58,3.26-10.41,6.35-1.39,1.52-2.65,1.8-4.32,.72-.81-.53-1.63-1.02-2.45-1.54-2.51-1.57-4.96-3.27-7.56-4.68-3.27-1.78-6.7-3.25-9.97-5.02-1.05-.57-2.14-1.5-2.65-2.54-1.41-2.91-2.5-5.98-3.77-8.97-.99-2.34-3.07-2.82-4.54-.86-1.77,2.37-3.06,5.09-4.8,7.48-1.36,1.86-2.8,4.25-4.73,4.98-7.66,2.87-14.01,7.75-20.18,12.76-3.13,2.54-5.95,5.41-8.71,8.32-2.47,2.6-5.2,4.91-7.53,7.68-7.02,8.36-11.09,18.92-11.75,29.81-.23,3.81-.78,7.19,.96,10.97,5.43,11.78,14.69,19.35,26.11,24.49,5.2,2.34,10.79,3.91,16.32,5.41,5.07,1.38,9.52,.96,14.59,.17,3.62-.56,7.31-.84,10.84-1.86s6.92-2.95,10.39-4.34m67.98,75.81c.35,.91,.71,1.82,1.06,2.72,.32-.84,.87-1.66,.88-2.52,0-2.94-.13-5.87,.31-8.77,1.27-8.5,1.04-17.33,2.69-25.79,1.8-9.25,4.88-18.19,9.46-26.48,3.49-6.32,7.08-12.63,11.21-18.53,4.13-5.91,8.91-11.38,13.55-16.93,5.83-6.98,11.42-14.22,17.81-20.66,3.72-3.75,8.04-6.8,11.84-10.43,3.58-3.42,7.87-6.03,11.17-9.82,3.66-4.2,5.31-8.72,5.81-14.19,.33-3.69,1.11-7.15,.64-10.89-1.64-13.13-12.32-20.25-24.12-24.08-5.33-1.73-14.29-2.66-19.86-2.08-4.77,.49-9.52,1.21-14.26,1.9-8.22,1.2-15.42,5.27-22.82,8.59-7.95,3.57-15.21,8.35-21.65,14.39-6.86,6.44-12.99,13.39-17.74,21.53-.31,.54-.56,1.3-.44,1.87,.78,3.72,1.53,7.45,2.56,11.1,1.45,5.11,1.27,10.34,.59,15.39-.9,6.64,.52,12.65,2.93,18.62,1.45,3.61,3.06,7.16,4.62,10.72,1.89,4.32,3.86,8.61,5.67,12.96,1.83,4.39,3.59,8.81,5.21,13.28,.99,2.73,1.61,5.6,2.52,8.36,2.29,7,4.7,13.96,6.97,20.97,2.99,9.24,2.83,18.9,3.41,28.74M36.12,248.99c-.5-1.34-.98-2.68-1.5-4.01-1.49-3.81-3.37-7.51-4.41-11.44-2.02-7.61-3.92-15.27-3.88-23.27,.02-4.71-.76-9.45-.51-14.14,.32-6.06,1.31-12.09,2.02-18.12,.17-1.46,.66-2.28,2.47-1.7,1.68,.53,3.5,.6,5.27,.84,4.17,.57,8.34,1.32,12.53,1.62,2.39,.17,4.84-.59,7.26-.61,4.88-.03,9.95-3.21,11.39-7.78,1.37-4.34-.72-8.28-3.34-11.15-3.91-4.28-8.43-8.19-13.28-11.36-3.57-2.33-8.06-3.3-12.19-4.74-4.99-1.74-6.79-2.56-5.74-6.01,1.84-6.04,3.9-12.03,6.13-17.94,1.2-3.19,1.31-3.49-1.71-5.43-1.14-.73-2.14-1.67-3.26-2.44-1.65-1.14-3.34-2.08-5.2-.33-1.78,1.68-3.87,3.13-5.31,5.07-3.11,4.16-6.18,8.41-8.73,12.92-3.82,6.76-5.79,15.18-7.45,22.64-2.23,10.01-3.27,19.61-4.16,29.78-.65,7.43-.77,14.88,.77,22.32,1.39,6.72,2.61,13.53,4.75,20.03,5.57,16.98,17.29,32.77,29.88,45.16,2.1,2.07,4.68,3.67,7.12,5.37,3.41,2.37,6.89,4.65,10.39,6.9,.32,.21,.95-.06,1.44-.11-.1-.29-.13-.65-.31-.87-3.25-3.95-6.45-7.94-9.79-11.81-4.87-5.65-7.4-12.52-10.64-19.39m65.92,34.15c1.23-.37,2.55-.57,3.66-1.15,10.85-5.67,20.95-12.66,31.23-19.29,.47-.3,.98-.66,1.13-1.2,.18-.64-.21-1.29-.58-1.84-3.97-5.93-7.94-11.86-11.9-17.79-1.23,2.53-4.42,3.26-7.2,3.68-25.74,3.89-51.74,6.03-77.77,6.39,.15,0,3.3,8.51,3.71,9.33,1.65,3.34,3.59,6.53,5.8,9.53,4.12,5.61,8.57,12.47,15.28,14.44,7.3,2.14,12.46,2.24,18.77,1.28,2.71-.41,5.44-.48,8.13-.83,3.28-.43,6.58-1.61,9.74-2.56m-16.41-126.02c4.18-6.52,11.45-8.51,17.75-11.88,3.98-2.12,8.12-3.92,12.21-5.83,1.15-.54,1.09-.95,.37-2.1-3.97-6.33-7.75-12.78-11.51-19.25-.87-1.5-1.93-1.92-3.34-1.13-5.96,3.35-12.2,5.75-18.98,7.06-7.81,1.51-15.4,2.7-23.09-.65-5.13-2.23-10.5-3.91-15.75-5.87-1.38-.52-2.38-.36-2.92,1.16-1.92,5.43-3.91,10.83-5.76,16.28-1.11,3.27-.63,3.54,2.52,4.67,4.92,1.77,10.03,3.4,14.44,6.09,4.45,2.71,8.25,6.53,12.15,10.06,5.45,4.93,6.78,12.45,3.58,18.79-.18,.35-.22,.78-.32,1.17,.41,0,.82,.04,1.22,0,4.26-.43,8.52-1.18,12.78-1.19,2,0,1.87-.62,1.47-1.81-1.87-5.66-.03-10.58,3.17-15.59m-57.4,30.8c-.14,.96-.39,1.92-.39,2.89,0,3.86-.06,7.74,.15,11.59,.33,6.07,.63,12.16,1.39,18.19,.52,4.15,1.7,8.23,2.8,12.29,.54,1.99,1.53,3.85,2.38,5.74,.15,.34,.63,.53,.96,.8,.16-.46,.5-.94,.46-1.39-.24-2.84-.58-5.68-.86-8.52-.39-3.95-.98-7.89-1.06-11.84-.09-4.73,.4-9.46,.41-14.19,0-5.16,1.62-7.37,6.02-7.28,5.64,.11,11.21,.47,16.8-1.1,4.29-1.2,4.19-.81,4.85-5.48,.46-3.27-.71-7.08,2.57-9.66,.07-.05-.37-1.08-.57-1.07-.68,0-1.55,.05-2.01,.46-4.12,3.69-9.47,2.53-14.03,2.72-5.5,.23-11.09-1.96-16.66-3.05-.7-.14-1.68-.82-1.91,.77-.37,2.56-.95,5.09-1.33,8.15m88.74-6.94c.8-2.96,.33-5.71,.54-8.78-6.12,3.69-13.06,6.03-20.17,6.79-1.26,.13-2.81,.45-3.14,1.67-.12,.44-.03,.9,.05,1.35,.56,2.94,1.11,5.89,1.67,8.83,.07,.35,.14,.71,.38,.97,.34,.37,.9,.4,1.4,.41,5.16,.06,10.75-.33,15.71-1.85,3.84-1.18,3.84-1.94,3.5-4.91l.07-4.48Zm-33.86,2.63c-2.41,.2-4.82,.48-7.23,.57-5.01,.2-5.02,.16-5.89,4.99-.83,4.58-.21,5.23,4.33,4.58,.4-.06,.82,.07,1.22,.03,3.27-.31,6.55-.57,9.8-1.03,.75-.11,1.34-.83,1.33-1.59-.05-1.85-.2-3.76-.75-5.51-.27-.87-1.5-1.45-2.8-2.04m-4.45,41.52c1.85-.61,3.76-1.09,5.54-1.86,1.26-.55,1.98-1.52,.67-2.88-1.02-1.05-2.12-2.08-2.86-3.32-.92-1.53-1.98-1.27-2.87-.35-2.87,2.98-5.44,4.84-8.2,7.92-.24,.27-5.47,3.84-4.71,3.87,1.15,.27,5.07-1.17,5.49-1.27,2.26-.54,4.5-1.19,6.95-2.11m7.95-4.07c.11-.03,2.46-2.45,1.19-4.47-.66-1.2,.8-1.8,.09-2.02-1.3-.4-.92,.25-2.45,.56-.09,.02-.84-.89-2.08-1.03-1.87,.19-1.8,.76-.62,2.35,1.34,1.81,3.72,4.58,3.4,4.2l.47,.39Z"/>
        <path class="cls-3" d="M21.46,253.86c-9.98-16.93-17.17-33.54-19.96-53.4-1.81-12.87-.46-26.2,1.04-37.09,1.49-10.77,2.53-18.11,6.95-27.89s9.93-18.04,16.94-26.23c1.12-1.31,1.59-2.32,.09-3.83-4.46-4.48-7.57-10.01-9.47-15.86-2.36-7.28,.05-14.15,2.42-21.04,1.28-3.74,2.72-7.43,4.5-10.96s4.14-6.52,6.65-9.62c4.89-6.02,10.5-11.34,16.66-15.98,5.49-4.14,11.12-8.43,17.34-11.14,4.11-1.79,5.52-4.43,7.31-7.83,1.66-3.17,6.73-10.55,10.2-5.07,1.75,2.76,2.87,5.91,4.36,8.84,.51,.99,1.19,2.14,2.11,2.63,5.31,2.88,10.73,5.55,16.05,8.39,1.41,.76,2.55,2.03,3.96,2.79,.67,.36,2.09,.45,2.48,.03,3.35-3.62,7.6-5.66,12.12-7.31,1.45-.53,3.79,.69,4.22,2.89,1.31,6.73,4.44,13.24,2.78,20.4-.1,.42,.41,.99,.63,1.49,.33-.22,.83-.36,.97-.67,2.72-6.14,6.91-11.2,11.68-15.8,5.97-5.77,11.89-11.65,19.36-15.52,5.32-2.76,10.67-5.48,16.17-7.86,5.08-2.19,10.26-4.32,15.6-5.69,4.62-1.18,9.5-1.49,14.29-1.76,6.61-.37,13.27-.15,19.62,1.84,5.22,1.64,10.19,3.79,14.93,6.79,3.78,2.39,6.53,5.26,8.3,9.04,2.52,5.37,2.56,10.88,2.64,17.09,.05,3.39-.08,6.46-1.38,10.35-1.53,4.58-3.18,8.12-6.12,11.33-5.74,6.26-13.29,10.47-19.3,16.42-3.63,3.59-7.08,7.35-10.45,11.2-4.32,4.94-8.42,10.05-12.51,15.18-2.9,3.63-5.93,7.19-8.56,11.01-3.95,5.73-7.66,11.63-11.42,17.49-4.06,6.33-6.48,13.34-8.97,20.4-3.69,10.45-3.44,21.29-4.52,32.04-.64,6.4-.85,12.91-3.37,19.18-1.9,4.73-2.11,10.12-3.2,15.19-1.77,8.25-5.25,15.91-8.18,23.77-2.97,7.97-8.24,14.35-13.55,20.66-9.98,11.87-23.83,20.17-38.36,25.24-13.5,4.71-30.03,7.46-44.61,1.54-8.89-3.61-16.47-10.29-23.88-16.38-5.51-4.53-9.66-10.73-14.57-16.29M98.25,115.88c.22-.11,.44-.22,.65-.34,3.95-2.19,4.64-2.92,6.96,.76,4.24,6.73,8.3,13.58,12.36,20.43,.88,1.49,1.52,3.3-.63,4.36-6.41,3.16-12.86,6.25-19.31,9.33-5.82,2.78-11.09,6.14-13.28,12.67-2.3,6.85-.12,12.4,6.54,12.93,6.66,.54,13.48-.17,19.54-3.3,3.33-1.72,7.33-2.93,9.11-6.91,.21-.48,1.05-.69,1.6-1.02,.17,.82,.77,1.92,.45,2.41-2.48,3.73-3.08,8.12-3.4,12.25-.28,3.64-2.44,8.07,1.78,11.2,.32,.24,.31,.98,.37,1.5,.43,3.35,.87,6.7,1.24,10.06,.62,5.68,1.25,11.36,1.76,17.05,.39,4.39,.35,8.84,.98,13.19,.95,6.57,4.52,12.06,8.14,17.44,1.8,2.68,3.88,5.2,5.98,7.67,.7,.82,1.65,1.31,2.77-.06,4.81-5.87,9.21-12.02,12.2-19.01,2.5-5.86,4.74-11.84,6.82-17.87,1.01-2.92,1.74-5.92,2.26-8.96,.78-4.61,1.59-9.29,1.72-13.96,.1-3.82-.57-7.66-.88-11.49-.37-4.57-.26-9.25-1.19-13.7-1.22-5.85-3.22-11.55-4.96-17.29-2.05-6.77-4.09-13.55-6.33-20.26-1.24-3.71-2.83-7.3-4.36-10.9-1.19-2.81-2.61-5.52-3.79-8.33-1.04-2.47-1.88-5.02-2.85-7.53-2.2-5.69-4.42-11.37-6.63-17.05-.42-1.09-1.31-2.21-1.22-3.25,.71-8.63,1.33-17.25-.1-25.87-.33-2-.47-4.04-.95-6.01-.85-3.52-2.93-7.08-2.63-10.46,.54-6.14-2.24-11.38-3.14-17.08-.25-1.6-1.35-2.39-3.38-1.94-4.25,.94-7.58,3.26-10.41,6.35-1.39,1.52-2.65,1.8-4.32,.72-.81-.53-1.63-1.02-2.45-1.54-2.51-1.57-4.96-3.27-7.56-4.68-3.27-1.78-6.7-3.25-9.97-5.02-1.05-.57-2.14-1.5-2.65-2.54-1.41-2.91-2.5-5.98-3.77-8.97-.99-2.34-3.07-2.82-4.54-.86-1.77,2.37-3.06,5.09-4.8,7.48-1.36,1.86-2.8,4.25-4.73,4.98-7.66,2.87-14.01,7.75-20.18,12.76-3.13,2.54-5.95,5.41-8.71,8.32-2.47,2.6-5.2,4.91-7.53,7.68-7.02,8.36-11.09,18.92-11.75,29.81-.23,3.81-.78,7.19,.96,10.97,5.43,11.78,14.69,19.35,26.11,24.49,5.2,2.34,10.79,3.91,16.32,5.41,5.07,1.38,9.52,.96,14.59,.17,3.62-.56,7.31-.84,10.84-1.86s6.92-2.95,10.39-4.34m67.98,75.81c.35,.91,.71,1.82,1.06,2.72,.32-.84,.87-1.66,.88-2.52,0-2.94-.13-5.87,.31-8.77,1.27-8.5,1.04-17.33,2.69-25.79,1.8-9.25,4.88-18.19,9.46-26.48,3.49-6.32,7.08-12.63,11.21-18.53,4.13-5.91,8.91-11.38,13.55-16.93,5.83-6.98,11.42-14.22,17.81-20.66,3.72-3.75,8.04-6.8,11.84-10.43,3.58-3.42,7.87-6.03,11.17-9.82,3.66-4.2,5.31-8.72,5.81-14.19,.33-3.69,1.11-7.15,.64-10.89-1.64-13.13-12.32-20.25-24.12-24.08-5.33-1.73-14.29-2.66-19.86-2.08-4.77,.49-9.52,1.21-14.26,1.9-8.22,1.2-15.42,5.27-22.82,8.59-7.95,3.57-15.21,8.35-21.65,14.39-6.86,6.44-12.99,13.39-17.74,21.53-.31,.54-.56,1.3-.44,1.87,.78,3.72,1.53,7.45,2.56,11.1,1.45,5.11,1.27,10.34,.59,15.39-.9,6.64,.52,12.65,2.93,18.62,1.45,3.61,3.06,7.16,4.62,10.72,1.89,4.32,3.86,8.61,5.67,12.96,1.83,4.39,3.59,8.81,5.21,13.28,.99,2.73,1.61,5.6,2.52,8.36,2.29,7,4.7,13.96,6.97,20.97,2.99,9.24,2.83,18.9,3.41,28.74M36.12,248.99c-.5-1.34-.98-2.68-1.5-4.01-1.49-3.81-3.37-7.51-4.41-11.44-2.02-7.61-3.92-15.27-3.88-23.27,.02-4.71-.76-9.45-.51-14.14,.32-6.06,1.31-12.09,2.02-18.12,.17-1.46,.66-2.28,2.47-1.7,1.68,.53,3.5,.6,5.27,.84,4.17,.57,8.34,1.32,12.53,1.62,2.39,.17,4.84-.59,7.26-.61,4.88-.03,9.95-3.21,11.39-7.78,1.37-4.34-.72-8.28-3.34-11.15-3.91-4.28-8.43-8.19-13.28-11.36-3.57-2.33-8.06-3.3-12.19-4.74-4.99-1.74-6.79-2.56-5.74-6.01,1.84-6.04,3.9-12.03,6.13-17.94,1.2-3.19,1.31-3.49-1.71-5.43-1.14-.73-2.14-1.67-3.26-2.44-1.65-1.14-3.34-2.08-5.2-.33-1.78,1.68-3.87,3.13-5.31,5.07-3.11,4.16-6.18,8.41-8.73,12.92-3.82,6.76-5.79,15.18-7.45,22.64-2.23,10.01-3.27,19.61-4.16,29.78-.65,7.43-.77,14.88,.77,22.32,1.39,6.72,2.61,13.53,4.75,20.03,5.57,16.98,17.29,32.77,29.88,45.16,2.1,2.07,4.68,3.67,7.12,5.37,3.41,2.37,6.89,4.65,10.39,6.9,.32,.21,.95-.06,1.44-.11-.1-.29-.13-.65-.31-.87-3.25-3.95-6.45-7.94-9.79-11.81-4.87-5.65-7.4-12.52-10.64-19.39m65.92,34.15c1.23-.37,2.55-.57,3.66-1.15,10.85-5.67,20.95-12.66,31.23-19.29,.47-.3,.98-.66,1.13-1.2,.18-.64-.21-1.29-.58-1.84-3.97-5.93-7.94-11.86-11.9-17.79-1.23,2.53-4.42,3.26-7.2,3.68-25.74,3.89-51.74,6.03-77.77,6.39,.15,0,3.3,8.51,3.71,9.33,1.65,3.34,3.59,6.53,5.8,9.53,4.12,5.61,8.57,12.47,15.28,14.44,7.3,2.14,12.46,2.24,18.77,1.28,2.71-.41,5.44-.48,8.13-.83,3.28-.43,6.58-1.61,9.74-2.56m-16.41-126.02c4.18-6.52,11.45-8.51,17.75-11.88,3.98-2.12,8.12-3.92,12.21-5.83,1.15-.54,1.09-.95,.37-2.1-3.97-6.33-7.75-12.78-11.51-19.25-.87-1.5-1.93-1.92-3.34-1.13-5.96,3.35-12.2,5.75-18.98,7.06-7.81,1.51-15.4,2.7-23.09-.65-5.13-2.23-10.5-3.91-15.75-5.87-1.38-.52-2.38-.36-2.92,1.16-1.92,5.43-3.91,10.83-5.76,16.28-1.11,3.27-.63,3.54,2.52,4.67,4.92,1.77,10.03,3.4,14.44,6.09,4.45,2.71,8.25,6.53,12.15,10.06,5.45,4.93,6.78,12.45,3.58,18.79-.18,.35-.22,.78-.32,1.17,.41,0,.82,.04,1.22,0,4.26-.43,8.52-1.18,12.78-1.19,2,0,1.87-.62,1.47-1.81-1.87-5.66-.03-10.58,3.17-15.59m-57.4,30.8c-.14,.96-.39,1.92-.39,2.89,0,3.86-.06,7.74,.15,11.59,.33,6.07,.63,12.16,1.39,18.19,.52,4.15,1.7,8.23,2.8,12.29,.54,1.99,1.53,3.85,2.38,5.74,.15,.34,.63,.53,.96,.8,.16-.46,.5-.94,.46-1.39-.24-2.84-.58-5.68-.86-8.52-.39-3.95-.98-7.89-1.06-11.84-.09-4.73,.4-9.46,.41-14.19,0-5.16,1.62-7.37,6.02-7.28,5.64,.11,11.21,.47,16.8-1.1,4.29-1.2,4.19-.81,4.85-5.48,.46-3.27-.71-7.08,2.57-9.66,.07-.05-.37-1.08-.57-1.07-.68,0-1.55,.05-2.01,.46-4.12,3.69-9.47,2.53-14.03,2.72-5.5,.23-11.09-1.96-16.66-3.05-.7-.14-1.68-.82-1.91,.77-.37,2.56-.95,5.09-1.33,8.15m88.74-6.94c.8-2.96,.33-5.71,.54-8.78-6.12,3.69-13.06,6.03-20.17,6.79-1.26,.13-2.81,.45-3.14,1.67-.12,.44-.03,.9,.05,1.35,.56,2.94,1.11,5.89,1.67,8.83,.07,.35,.14,.71,.38,.97,.34,.37,.9,.4,1.4,.41,5.16,.06,10.75-.33,15.71-1.85,3.84-1.18,3.84-1.94,3.5-4.91l.07-4.48Zm-33.86,2.63c-2.41,.2-4.82,.48-7.23,.57-5.01,.2-5.02,.16-5.89,4.99-.83,4.58-.21,5.23,4.33,4.58,.4-.06,.82,.07,1.22,.03,3.27-.31,6.55-.57,9.8-1.03,.75-.11,1.34-.83,1.33-1.59-.05-1.85-.2-3.76-.75-5.51-.27-.87-1.5-1.45-2.8-2.04m-4.45,41.52c1.85-.61,3.76-1.09,5.54-1.86,1.26-.55,1.98-1.52,.67-2.88-1.02-1.05-2.12-2.08-2.86-3.32-.92-1.53-1.98-1.27-2.87-.35-2.87,2.98-5.44,4.84-8.2,7.92-.24,.27-5.47,3.84-4.71,3.87,1.15,.27,5.07-1.17,5.49-1.27,2.26-.54,4.5-1.19,6.95-2.11m7.95-4.07c.11-.03,2.46-2.45,1.19-4.47-.66-1.2,.8-1.8,.09-2.02-1.3-.4-.92,.25-2.45,.56-.09,.02-.84-.89-2.08-1.03-1.87,.19-1.8,.76-.62,2.35,1.34,1.81,3.72,4.58,3.4,4.2l.47,.39Z"/>
      </g>
    </g>
  </g>
</svg>